<svg width="24" height="24" viewBox="0 0 24 24" fill="none" xmlns="http://www.w3.org/2000/svg">
<path d="M12.0125 17.3331C10.232 17.3331 8.45119 17.3334 6.67066 17.3331C6.05977 17.3331 5.67936 17.0143 5.56047 16.4203C5.29368 15.0867 5.0225 13.7543 4.75249 12.4213C4.50709 11.2108 4.25963 10.0008 4.01539 8.79031C3.93398 8.38689 4.11496 7.98001 4.46784 7.75418C4.81136 7.53443 5.26937 7.5249 5.59707 7.76689C6.22904 8.23355 6.84695 8.71898 7.47424 9.19199C7.66313 9.33436 7.83327 9.50329 8.06023 9.59339C8.44416 9.74557 8.88578 9.67453 9.16515 9.37161C9.58481 8.9165 9.98367 8.44291 10.391 7.97683C10.6648 7.6638 10.9319 7.3447 11.2131 7.03803C11.6617 6.54855 12.3332 6.53931 12.7766 7.03109C13.3561 7.67419 13.9163 8.33433 14.4851 8.98696C14.5931 9.11084 14.6974 9.23877 14.8128 9.35544C15.1943 9.74095 15.7754 9.773 16.2067 9.4412C16.9102 8.90004 17.6142 8.35974 18.3196 7.82118C18.6877 7.53991 19.1425 7.51479 19.5212 7.7487C19.8969 7.98058 20.0636 8.37794 19.971 8.83535C19.6301 10.5215 19.2872 12.2071 18.946 13.8929C18.7736 14.7454 18.6028 15.5982 18.4336 16.4512C18.324 17.0039 17.9266 17.3322 17.3547 17.3325C15.5742 17.3334 13.7931 17.3331 12.0125 17.3331Z" fill="#00AAFF"/>
</svg>
