<svg width="24" height="24" viewBox="0 0 24 24" fill="none" xmlns="http://www.w3.org/2000/svg">
<path d="M12.014 17.9998C10.5089 17.9998 9.00363 18.0001 7.49856 17.9998C6.98219 17.9998 6.66063 17.7322 6.56012 17.2335C6.33461 16.114 6.10539 14.9955 5.87715 13.8764C5.66971 12.8604 5.46053 11.8447 5.25408 10.8284C5.18526 10.4897 5.33825 10.1482 5.63654 9.95858C5.92691 9.77409 6.31406 9.76609 6.59107 9.96925C7.12527 10.361 7.64758 10.7685 8.17782 11.1656C8.33749 11.2851 8.48131 11.427 8.67316 11.5026C8.99769 11.6303 9.37099 11.5707 9.60714 11.3164C9.96187 10.9343 10.299 10.5368 10.6434 10.1455C10.8748 9.8827 11.1006 9.61482 11.3382 9.35736C11.7175 8.94645 12.2851 8.93869 12.6599 9.35154C13.1497 9.89143 13.6233 10.4456 14.104 10.9935C14.1954 11.0975 14.2835 11.2049 14.381 11.3028C14.7036 11.6265 15.1947 11.6534 15.5593 11.3748C16.1539 10.9205 16.749 10.4669 17.3454 10.0148C17.6565 9.7787 18.041 9.75761 18.361 9.95397C18.6786 10.1486 18.8195 10.4822 18.7413 10.8662C18.4531 12.2817 18.1633 13.6968 17.8749 15.1121C17.7291 15.8277 17.5847 16.5436 17.4417 17.2597C17.3491 17.7237 17.0132 17.9994 16.5297 17.9996C15.0246 18.0003 13.5193 17.9998 12.0143 17.9998H12.014Z" fill="#7000FF"/>
<path d="M12.0001 8.47274C12.6974 8.47274 13.2626 7.9192 13.2626 7.23637C13.2626 6.55354 12.6974 6 12.0001 6C11.3029 6 10.7376 6.55354 10.7376 7.23637C10.7376 7.9192 11.3029 8.47274 12.0001 8.47274Z" fill="#7000FF"/>
<path d="M18.7375 9.49093C19.4348 9.49093 20 8.93739 20 8.25456C20 7.57173 19.4348 7.01819 18.7375 7.01819C18.0403 7.01819 17.475 7.57173 17.475 8.25456C17.475 8.93739 18.0403 9.49093 18.7375 9.49093Z" fill="#7000FF"/>
<path d="M5.26247 9.49093C5.95972 9.49093 6.52495 8.93739 6.52495 8.25456C6.52495 7.57173 5.95972 7.01819 5.26247 7.01819C4.56523 7.01819 4 7.57173 4 8.25456C4 8.93739 4.56523 9.49093 5.26247 9.49093Z" fill="#7000FF"/>
</svg>
