<svg width="24" height="24" viewBox="0 0 24 24" fill="none" xmlns="http://www.w3.org/2000/svg">
<path d="M12.67 21.2421C12.2894 21.586 11.7106 21.586 11.33 21.2421L10.975 20.9213C9.20833 19.3026 7.75 17.9051 6.6 16.7287C5.45 15.5522 4.53333 14.5009 3.85 13.5748C3.16667 12.6487 2.6875 11.8102 2.4125 11.0592C2.1375 10.3083 2 9.54906 2 8.78145C2 7.27962 2.50417 6.02392 3.5125 5.01435C4.52083 4.00478 5.76667 3.5 7.25 3.5C8.2 3.5 9.07917 3.72528 9.8875 4.17583C10.3321 4.42365 10.7452 4.73205 11.1268 5.10104C11.6097 5.56802 12.4139 5.58714 12.8995 5.12299C13.3272 4.71419 13.7691 4.38596 14.225 4.13828C15.0083 3.71276 15.85 3.5 16.75 3.5C18.2333 3.5 19.4792 4.00478 20.4875 5.01435C21.4958 6.02392 22 7.27962 22 8.78145C22 9.54906 21.8625 10.3083 21.5875 11.0592C21.3125 11.8102 20.8333 12.6487 20.15 13.5748C19.4667 14.5009 18.55 15.5522 17.4 16.7287C16.25 17.9051 14.7917 19.3026 13.025 20.9213L12.67 21.2421Z" fill="#FF2E14"/>
</svg>
