<svg width="24" height="24" viewBox="0 0 24 24" fill="none" xmlns="http://www.w3.org/2000/svg">
<path d="M10.7853 6.05399C11.3316 5.13016 12.6684 5.13016 13.2147 6.05399L14.5218 8.2646C14.7117 8.58563 15.0209 8.81846 15.3819 8.91219L17.8902 9.5635C18.8807 9.82067 19.2767 11.0136 18.6366 11.812L16.9045 13.9725C16.683 14.2489 16.5735 14.5985 16.5977 14.9518L16.7863 17.699C16.8585 18.7511 15.7933 19.5078 14.8237 19.0932L12.5548 18.123C12.2004 17.9715 11.7996 17.9715 11.4452 18.123L9.17627 19.0932C8.20665 19.5078 7.14146 18.7511 7.21368 17.699L7.40227 14.9518C7.42653 14.5985 7.31701 14.2489 7.09546 13.9725L5.3634 11.812C4.72333 11.0136 5.1193 9.82067 6.10976 9.5635L8.61814 8.91219C8.97913 8.81846 9.28833 8.58563 9.47816 8.2646L10.7853 6.05399Z" fill="#A9AEB8"/>
</svg>
