<svg width="24" height="24" viewBox="0 0 24 24" fill="none" xmlns="http://www.w3.org/2000/svg">
<path d="M10.7853 6.05422C11.3316 5.13039 12.6684 5.13039 13.2147 6.05422L14.5218 8.26483C14.7117 8.58586 15.0209 8.81869 15.3819 8.91242L17.8902 9.56373C18.8807 9.8209 19.2767 11.0138 18.6366 11.8122L16.9045 13.9728C16.683 14.2491 16.5735 14.5987 16.5977 14.9521L16.7863 17.6993C16.8585 18.7513 15.7933 19.508 14.8237 19.0934L12.5548 18.1233C12.2004 17.9718 11.7996 17.9718 11.4452 18.1233L9.17627 19.0934C8.20665 19.508 7.14146 18.7513 7.21368 17.6993L7.40227 14.9521C7.42653 14.5987 7.31701 14.2491 7.09546 13.9728L5.3634 11.8122C4.72333 11.0138 5.1193 9.8209 6.10976 9.56373L8.61814 8.91242C8.97913 8.81869 9.28833 8.58586 9.47816 8.26483L10.7853 6.05422Z" fill="#00B158"/>
</svg>
