<svg width="76" height="76" viewBox="0 0 76 76" fill="none" xmlns="http://www.w3.org/2000/svg">
<rect x="0.5" y="0.5" width="75" height="75" rx="23.5" fill="white"/>
<rect x="0.5" y="0.5" width="75" height="75" rx="23.5" stroke="#E8EAED"/>
<path d="M37.4281 20.9817C35.0532 20.9817 32.7016 21.42 30.5075 22.2716C28.3134 23.1233 26.3198 24.3716 24.6405 25.9452C22.9612 27.5188 21.6292 29.387 20.7203 31.4431C19.8115 33.4991 19.3437 35.7028 19.3438 37.9282V45.5534C19.3438 47.7789 19.8115 49.9826 20.7203 52.0386C21.6292 54.0947 22.9612 55.9628 24.6405 57.5365C26.3198 59.1101 28.3134 60.3584 30.5075 61.21C32.7016 62.0617 35.0532 62.5 37.4281 62.5V62.5C42.224 62.4995 46.8233 60.7138 50.2144 57.5358C53.6054 54.3577 55.5104 50.0476 55.5104 45.5534V37.9271C55.5101 33.4331 53.6049 29.1233 50.2139 25.9455C46.8229 22.7677 42.2238 20.9822 37.4281 20.9817V20.9817ZM45.5163 45.5274C45.5352 46.5338 45.3399 47.5336 44.942 48.4684C44.544 49.4033 43.9513 50.2546 43.1985 50.9725C42.4457 51.6904 41.5478 52.2607 40.5573 52.6499C39.5668 53.0392 38.5035 53.2397 37.4294 53.2397C36.3553 53.2397 35.2919 53.0392 34.3014 52.6499C33.3109 52.2607 32.413 51.6904 31.6602 50.9725C30.9074 50.2546 30.3147 49.4033 29.9168 48.4684C29.5188 47.5336 29.3236 46.5338 29.3424 45.5274V37.952C29.3236 36.9456 29.5188 35.9458 29.9168 35.0109C30.3147 34.076 30.9074 33.2248 31.6602 32.5068C32.413 31.7889 33.3109 31.2187 34.3014 30.8294C35.2919 30.4402 36.3553 30.2397 37.4294 30.2397C38.5035 30.2397 39.5668 30.4402 40.5573 30.8294C41.5478 31.2187 42.4457 31.7889 43.1985 32.5068C43.9513 33.2248 44.544 34.076 44.942 35.0109C45.3399 35.9458 45.5352 36.9456 45.5163 37.952V45.5274Z" fill="#25A765"/>
<path d="M32.016 17.9565C32.1403 17.9985 32.2523 18.067 32.3434 18.1567C32.4345 18.2463 32.502 18.3546 32.5408 18.4729C32.5795 18.5912 32.5883 18.7164 32.5664 18.8384C32.5446 18.9605 32.4928 19.0761 32.415 19.1762L32.4184 19.1851C32.0505 19.3983 31.7316 19.6779 31.4803 20.0077C31.2289 20.3374 31.0501 20.7108 30.9542 21.106C35.1361 19.6927 39.7134 19.6927 43.8953 21.106C43.7997 20.7108 43.6211 20.3374 43.3698 20.0076C43.1186 19.6778 42.7998 19.3982 42.432 19.1851L42.4344 19.1762C42.3566 19.0761 42.3048 18.9604 42.283 18.8383C42.2611 18.7162 42.27 18.591 42.3088 18.4726C42.3476 18.3542 42.4153 18.246 42.5065 18.1564C42.5977 18.0668 42.7099 17.9984 42.8343 17.9565V17.9565C43.1473 17.8742 43.4235 17.6992 43.6215 17.4576C43.8195 17.2159 43.9287 16.9207 43.9327 16.6161C43.9367 16.3114 43.8353 16.0138 43.6437 15.7676C43.4521 15.5215 43.1806 15.3402 42.8698 15.2507C42.559 15.1613 42.2257 15.1686 41.9197 15.2715C41.6137 15.3744 41.3515 15.5674 41.1723 15.8216C40.9931 16.0758 40.9066 16.3776 40.9258 16.6817C40.9449 16.9859 41.0687 17.276 41.2785 17.5087H41.2751V17.5111C41.3528 17.6113 41.4045 17.727 41.4262 17.8491C41.4479 17.9712 41.439 18.0964 41.4003 18.2148C41.3615 18.3332 41.2939 18.4415 41.2028 18.5311C41.1117 18.6208 40.9995 18.6894 40.8753 18.7315L40.872 18.7416C40.4426 18.7272 40.0145 18.7933 39.6127 18.936C39.2383 18.705 38.8261 18.5328 38.3924 18.4264V18.4124C38.2582 18.3183 38.1492 18.1962 38.0741 18.0557C37.999 17.9152 37.9599 17.7603 37.9599 17.6032C37.9599 17.4461 37.999 17.2911 38.0741 17.1507C38.1492 17.0102 38.2582 16.888 38.3924 16.7939V16.7916H38.3879C38.7345 16.5826 38.9995 16.2741 39.1434 15.9122C39.2873 15.5502 39.3023 15.1544 39.186 14.7838C39.0698 14.4133 38.8287 14.088 38.4987 13.8565C38.1687 13.6251 37.7676 13.5001 37.3555 13.5001C36.9433 13.5001 36.5422 13.6251 36.2123 13.8565C35.8823 14.088 35.6411 14.4133 35.5249 14.7838C35.4087 15.1544 35.4236 15.5502 35.5675 15.9122C35.7114 16.2741 35.9765 16.5826 36.3231 16.7916C36.4573 16.8857 36.5663 17.0078 36.6414 17.1483C36.7165 17.2888 36.7556 17.4437 36.7556 17.6008C36.7556 17.7579 36.7165 17.9129 36.6414 18.0534C36.5663 18.1938 36.4573 18.316 36.3231 18.4101V18.4217C35.9091 18.5243 35.5147 18.6865 35.1538 18.9025C34.7767 18.7806 34.3787 18.725 33.98 18.7385L33.9767 18.7284C33.8523 18.6865 33.74 18.618 33.6487 18.5284C33.5574 18.4387 33.4897 18.3304 33.4509 18.2119C33.4121 18.0935 33.4033 17.9682 33.4251 17.846C33.447 17.7238 33.4989 17.6081 33.5768 17.5079V17.5056H33.5735C33.7835 17.2728 33.9074 16.9825 33.9266 16.6782C33.9459 16.3739 33.8594 16.0719 33.6801 15.8175C33.5009 15.5631 33.2386 15.3699 32.9324 15.2669C32.6262 15.1639 32.2927 15.1566 31.9817 15.246C31.6707 15.3355 31.399 15.517 31.2073 15.7632C31.0155 16.0095 30.9141 16.3074 30.9181 16.6122C30.9221 16.917 31.0313 17.2124 31.2295 17.4542C31.4276 17.696 31.704 17.8711 32.0173 17.9534L32.016 17.9565Z" fill="#123B1E"/>
<path d="M37.4281 20.9817C35.0532 20.9817 32.7016 21.42 30.5075 22.2716C28.3134 23.1233 26.3198 24.3716 24.6405 25.9452C22.9612 27.5188 21.6292 29.387 20.7203 31.4431C19.8115 33.4991 19.3437 35.7028 19.3438 37.9282V45.5534C19.3438 47.7789 19.8115 49.9826 20.7203 52.0386C21.6292 54.0947 22.9612 55.9628 24.6405 57.5365C26.3198 59.1101 28.3134 60.3584 30.5075 61.21C32.7016 62.0617 35.0532 62.5 37.4281 62.5V62.5C42.224 62.4995 46.8233 60.7138 50.2144 57.5358C53.6054 54.3577 55.5104 50.0476 55.5104 45.5534V37.9271C55.5101 33.4331 53.6049 29.1233 50.2139 25.9455C46.8229 22.7677 42.2238 20.9822 37.4281 20.9817V20.9817ZM45.5163 45.5274C45.5352 46.5338 45.3399 47.5336 44.942 48.4684C44.544 49.4033 43.9513 50.2546 43.1985 50.9725C42.4457 51.6904 41.5478 52.2607 40.5573 52.6499C39.5668 53.0392 38.5035 53.2397 37.4294 53.2397C36.3553 53.2397 35.2919 53.0392 34.3014 52.6499C33.3109 52.2607 32.413 51.6904 31.6602 50.9725C30.9074 50.2546 30.3147 49.4033 29.9168 48.4684C29.5188 47.5336 29.3236 46.5338 29.3424 45.5274V37.952C29.3236 36.9456 29.5188 35.9458 29.9168 35.0109C30.3147 34.076 30.9074 33.2248 31.6602 32.5068C32.413 31.7889 33.3109 31.2187 34.3014 30.8294C35.2919 30.4402 36.3553 30.2397 37.4294 30.2397C38.5035 30.2397 39.5668 30.4402 40.5573 30.8294C41.5478 31.2187 42.4457 31.7889 43.1985 32.5068C43.9513 33.2248 44.544 34.076 44.942 35.0109C45.3399 35.9458 45.5352 36.9456 45.5163 37.952V45.5274Z" fill="#25A765"/>
<path d="M32.016 17.9565C32.1403 17.9985 32.2523 18.067 32.3434 18.1567C32.4345 18.2463 32.502 18.3546 32.5408 18.4729C32.5795 18.5912 32.5883 18.7164 32.5664 18.8384C32.5446 18.9605 32.4928 19.0761 32.415 19.1762L32.4184 19.1851C32.0505 19.3983 31.7316 19.6779 31.4803 20.0077C31.2289 20.3374 31.0501 20.7108 30.9542 21.106C35.1361 19.6927 39.7134 19.6927 43.8953 21.106C43.7997 20.7108 43.6211 20.3374 43.3698 20.0076C43.1186 19.6778 42.7998 19.3982 42.432 19.1851L42.4344 19.1762C42.3566 19.0761 42.3048 18.9604 42.283 18.8383C42.2611 18.7162 42.27 18.591 42.3088 18.4726C42.3476 18.3542 42.4153 18.246 42.5065 18.1564C42.5977 18.0668 42.7099 17.9984 42.8343 17.9565V17.9565C43.1473 17.8742 43.4235 17.6992 43.6215 17.4576C43.8195 17.2159 43.9287 16.9207 43.9327 16.6161C43.9367 16.3114 43.8353 16.0138 43.6437 15.7676C43.4521 15.5215 43.1806 15.3402 42.8698 15.2507C42.559 15.1613 42.2257 15.1686 41.9197 15.2715C41.6137 15.3744 41.3515 15.5674 41.1723 15.8216C40.9931 16.0758 40.9066 16.3776 40.9258 16.6817C40.9449 16.9859 41.0687 17.276 41.2785 17.5087H41.2751V17.5111C41.3528 17.6113 41.4045 17.727 41.4262 17.8491C41.4479 17.9712 41.439 18.0964 41.4003 18.2148C41.3615 18.3332 41.2939 18.4415 41.2028 18.5311C41.1117 18.6208 40.9995 18.6894 40.8753 18.7315L40.872 18.7416C40.4426 18.7272 40.0145 18.7933 39.6127 18.936C39.2383 18.705 38.8261 18.5328 38.3924 18.4264V18.4124C38.2582 18.3183 38.1492 18.1962 38.0741 18.0557C37.999 17.9152 37.9599 17.7603 37.9599 17.6032C37.9599 17.4461 37.999 17.2911 38.0741 17.1507C38.1492 17.0102 38.2582 16.888 38.3924 16.7939V16.7916H38.3879C38.7345 16.5826 38.9995 16.2741 39.1434 15.9122C39.2873 15.5502 39.3023 15.1544 39.186 14.7838C39.0698 14.4133 38.8287 14.088 38.4987 13.8565C38.1687 13.6251 37.7676 13.5001 37.3555 13.5001C36.9433 13.5001 36.5422 13.6251 36.2123 13.8565C35.8823 14.088 35.6411 14.4133 35.5249 14.7838C35.4087 15.1544 35.4236 15.5502 35.5675 15.9122C35.7114 16.2741 35.9765 16.5826 36.3231 16.7916C36.4573 16.8857 36.5663 17.0078 36.6414 17.1483C36.7165 17.2888 36.7556 17.4437 36.7556 17.6008C36.7556 17.7579 36.7165 17.9129 36.6414 18.0534C36.5663 18.1938 36.4573 18.316 36.3231 18.4101V18.4217C35.9091 18.5243 35.5147 18.6865 35.1538 18.9025C34.7767 18.7806 34.3787 18.725 33.98 18.7385L33.9767 18.7284C33.8523 18.6865 33.74 18.618 33.6487 18.5284C33.5574 18.4387 33.4897 18.3304 33.4509 18.2119C33.4121 18.0935 33.4033 17.9682 33.4251 17.846C33.447 17.7238 33.4989 17.6081 33.5768 17.5079V17.5056H33.5735C33.7835 17.2728 33.9074 16.9825 33.9266 16.6782C33.9459 16.3739 33.8594 16.0719 33.6801 15.8175C33.5009 15.5631 33.2386 15.3699 32.9324 15.2669C32.6262 15.1639 32.2927 15.1566 31.9817 15.246C31.6707 15.3355 31.399 15.517 31.2073 15.7632C31.0155 16.0095 30.9141 16.3074 30.9181 16.6122C30.9221 16.917 31.0313 17.2124 31.2295 17.4542C31.4276 17.696 31.704 17.8711 32.0173 17.9534L32.016 17.9565Z" fill="#123B1E"/>
</svg>
