<svg width="126" height="126" viewBox="0 0 126 126" fill="none" xmlns="http://www.w3.org/2000/svg">
<path d="M9.9524 39.5727C7.74188 42.265 6.08398 47.6496 6.08398 51.1496L6.08398 74.0343C6.08398 77.5343 7.74188 82.6496 9.9524 85.6112L23.7682 103.919C25.9787 106.611 30.3998 109.842 33.7156 110.919L56.0971 117.919C59.4129 118.996 64.9392 118.996 68.5313 117.919L90.9129 110.919C93.9524 109.842 98.3734 106.611 100.584 103.919L114.4 85.3419C116.61 82.6496 118.268 77.265 118.268 73.765L118.268 50.8804C118.268 47.3804 116.61 42.265 114.4 39.3035L100.584 20.7266C98.3734 18.0343 93.9524 14.8035 90.6366 13.7266L68.255 6.9958C64.9392 5.91887 59.4129 5.91887 55.8208 6.9958L33.4392 13.9958C30.1234 15.0727 25.4261 18.3035 23.4919 20.9958L9.9524 39.5727Z" fill="white"/>
<path d="M9.9524 39.5727C7.74188 42.265 6.08398 47.6496 6.08398 51.1496L6.08398 74.0343C6.08398 77.5343 7.74188 82.6496 9.9524 85.6112L23.7682 103.919C25.9787 106.611 30.3998 109.842 33.7156 110.919L56.0971 117.919C59.4129 118.996 64.9392 118.996 68.5313 117.919L90.9129 110.919C93.9524 109.842 98.3734 106.611 100.584 103.919L114.4 85.3419C116.61 82.6496 118.268 77.265 118.268 73.765L118.268 50.8804C118.268 47.3804 116.61 42.265 114.4 39.3035L100.584 20.7266C98.3734 18.0343 93.9524 14.8035 90.6366 13.7266L68.255 6.9958C64.9392 5.91888 59.4129 5.91888 55.8208 6.9958L33.4392 13.9958C30.1234 15.0727 25.4261 18.3035 23.4919 20.9958L9.9524 39.5727Z" stroke="#00783B" stroke-width="6.26864" stroke-miterlimit="10"/>
<path d="M9.9524 39.5727C7.74188 42.265 6.08398 47.6496 6.08398 51.1496L6.08398 74.0343C6.08398 77.5343 7.74188 82.6496 9.9524 85.6112L23.7682 103.919C25.9787 106.611 30.3998 109.842 33.7156 110.919L56.0971 117.919C59.4129 118.996 64.9392 118.996 68.5313 117.919L90.9129 110.919C93.9524 109.842 98.3734 106.611 100.584 103.919L114.4 85.3419C116.61 82.6496 118.268 77.265 118.268 73.765L118.268 50.8804C118.268 47.3804 116.61 42.265 114.4 39.3035L100.584 20.7266C98.3734 18.0343 93.9524 14.8035 90.6366 13.7266L68.255 6.9958C64.9392 5.91888 59.4129 5.91888 55.8208 6.9958L33.4392 13.9958C30.1234 15.0727 25.4261 18.3035 23.4919 20.9958L9.9524 39.5727Z" stroke="#00783B" stroke-width="6.26864" stroke-miterlimit="10"/>
<rect x="77.7451" y="38.0294" width="31" height="24" rx="4" transform="rotate(1.7085 77.7451 38.0294)" stroke="black" stroke-width="2"/>
<path d="M24.8344 54.6865L42.1378 53.0138L44.2363 45.8721L21.4068 48.0789L24.8344 54.6865Z" fill="#263238"/>
<path d="M101.93 53.4217L84.5754 52.4006L82.21 45.3428L105.106 46.69L101.93 53.4217Z" fill="#263238"/>
<rect x="17.1309" y="40.2167" width="31" height="24" rx="4" transform="rotate(-4.37253 17.1309 40.2167)" stroke="black" stroke-width="2"/>
<path d="M49 50H77.5" stroke="#263238" stroke-width="2" stroke-linecap="round" stroke-linejoin="round"/>
<path d="M39.2592 74.1672C39.6719 76.1952 36.1063 77.9931 31.3992 78.3337C26.6922 78.6743 22.7914 77.3887 22.6225 75.441C22.2097 73.413 25.7754 71.6151 30.4824 71.2745C35.1895 70.9339 38.8464 72.1392 39.2592 74.1672Z" fill="#CADE9C"/>
<path d="M102.58 73.4699C102.487 75.5374 98.8943 76.7457 94.2966 76.2195C89.6989 75.6933 86.5828 74.1184 86.6328 72.304C86.6828 70.4896 90.3184 69.0282 94.6631 69.5111C99.0077 69.994 102.63 71.6555 102.58 73.4699Z" fill="#CADE9C"/>
<path d="M43.8749 84.6514C49.7876 83.138 65.2213 79.9166 82.0678 82.3348C82.3167 82.375 82.5549 82.4649 82.7683 82.5991C82.9817 82.7332 83.166 82.9089 83.3102 83.1157C83.4544 83.3224 83.5555 83.5561 83.6076 83.8027C83.6597 84.0494 83.6617 84.304 83.6134 84.5514C80.9653 99.204 53.5355 100.804 42.8789 87.6005C42.6856 87.3583 42.5562 87.0715 42.5025 86.7664C42.4489 86.4613 42.4727 86.1475 42.5719 85.854C42.671 85.5605 42.8423 85.2965 43.0699 85.0864C43.2976 84.8763 43.5744 84.7267 43.8749 84.6514Z" fill="#263238"/>
<path opacity="0.6" d="M69.8655 87.9222C68.8753 88.1523 67.9147 88.4951 67.0025 88.944C64.7192 87.8407 62.1149 87.5961 59.666 88.2549C55.9226 89.1313 52.9288 91.4861 51.8032 94.1298C57.3046 96.4336 63.3443 97.139 69.2286 96.1648C73.3916 95.4634 77.1424 93.86 79.7898 91.3953C78.6075 88.3784 74.4773 86.8384 69.8655 87.9222Z" fill="#CADE9C"/>
</svg>
