<svg width="126" height="126" viewBox="0 0 126 126" fill="none" xmlns="http://www.w3.org/2000/svg">
<g clip-path="url(#clip0_237_801)">
<path d="M8.57088 81.8796C8.82544 85.3538 11.3363 90.3974 13.749 92.9329L29.5245 109.511C31.9372 112.047 36.6645 114.61 40.3074 115.231L62.9363 118.97C66.3936 119.397 71.8235 118.689 74.9679 117.184L96.0073 106.826C99.1517 105.321 103.155 101.511 105.015 98.2546L116.403 77.7549C117.863 74.8795 118.839 69.4914 118.584 66.0172L115.787 43.0356C115.532 39.5614 113.021 34.5178 110.609 31.9823L94.8331 15.4039C92.4203 12.8684 87.693 10.3056 84.0501 9.68395L61.2356 5.75014C57.7783 5.32357 52.3484 6.03075 49.204 7.53633L28.3502 18.089C25.2058 19.5946 21.2024 23.4042 19.3425 26.6605L7.95406 47.1602C6.29437 50.2261 5.11859 55.8047 5.57332 59.0885L8.57088 81.8796Z" fill="white"/>
<path d="M8.57088 81.8796C8.82544 85.3538 11.3363 90.3974 13.749 92.9329L29.5245 109.511C31.9372 112.047 36.6645 114.61 40.3074 115.231L62.9363 118.97C66.3936 119.397 71.8235 118.689 74.9679 117.184L96.0073 106.826C99.1517 105.321 103.155 101.511 105.015 98.2546L116.403 77.7549C117.863 74.8795 118.839 69.4914 118.584 66.0172L115.787 43.0356C115.532 39.5614 113.021 34.5178 110.609 31.9823L94.8331 15.4039C92.4203 12.8684 87.693 10.3056 84.0501 9.68396L61.2356 5.75015C57.7783 5.32358 52.3484 6.03076 49.204 7.53634L28.3502 18.0891C25.2058 19.5946 21.2024 23.4042 19.3425 26.6605L7.95406 47.1602C6.29438 50.2261 5.11859 55.8047 5.57333 59.0885L8.57088 81.8796Z" stroke="#00783B" stroke-width="6.27234" stroke-miterlimit="10"/>
<path d="M8.57088 81.8796C8.82544 85.3538 11.3363 90.3974 13.749 92.9329L29.5245 109.511C31.9372 112.047 36.6645 114.61 40.3074 115.231L62.9363 118.97C66.3936 119.397 71.8235 118.689 74.9679 117.184L96.0073 106.826C99.1517 105.321 103.155 101.511 105.015 98.2546L116.403 77.7549C117.863 74.8795 118.839 69.4914 118.584 66.0172L115.787 43.0356C115.532 39.5614 113.021 34.5178 110.609 31.9823L94.8331 15.4039C92.4203 12.8684 87.693 10.3056 84.0501 9.68396L61.2356 5.75015C57.7783 5.32358 52.3484 6.03076 49.204 7.53634L28.3502 18.0891C25.2058 19.5946 21.2024 23.4042 19.3425 26.6605L7.95406 47.1602C6.29438 50.2261 5.11859 55.8047 5.57333 59.0885L8.57088 81.8796Z" stroke="#00783B" stroke-width="6.27234" stroke-miterlimit="10"/>
<path d="M39.3657 72.0709C39.9956 74.0423 36.6456 76.2157 32.0031 77.064C27.3606 77.9123 23.3436 77.0566 22.9647 75.1387C22.3348 73.1674 25.6849 70.9939 30.3273 70.1456C34.9698 69.2973 38.7358 70.0996 39.3657 72.0709Z" fill="#CADE9C"/>
<path d="M102.866 70.8997C102.689 72.9618 99.0508 74.024 94.4781 73.3124C89.9055 72.6008 86.8555 70.9013 86.9788 69.0903C87.1021 67.2794 90.7938 65.9661 95.1154 66.6242C99.437 67.2823 102.989 69.0888 102.866 70.8997Z" fill="#CADE9C"/>
<path d="M46.3838 85.2676C47.2582 86.9795 49.8534 90.2935 53.2388 89.8537C57.4705 89.3038 59.2789 85.1569 64.28 84.5071C69.2812 83.8573 72.0892 87.4044 76.3209 86.8546C80.5526 86.3048 81.2069 82.3078 81.1069 81.5384" stroke="#37572C" stroke-width="3.10349" stroke-linecap="round"/>
<ellipse cx="38.5166" cy="55.3373" rx="7.9615" ry="8.52058" transform="rotate(-6.69337 38.5166 55.3373)" fill="#263238"/>
<rect x="20.0986" y="64.6953" width="26.6514" height="1.47471" transform="rotate(-6.69337 20.0986 64.6953)" fill="#263238"/>
<path d="M19.625 45.4863L43.8275 47.5202" stroke="#263238" stroke-width="2" stroke-linecap="round" stroke-linejoin="round"/>
<ellipse rx="7.73695" ry="8.52058" transform="matrix(-0.999846 0.0175292 0.0175292 0.999846 82.562 52.3619)" fill="#263238"/>
<rect width="26.6514" height="1.47471" transform="matrix(-0.999846 0.0175292 0.0175292 0.999846 102.293 59.165)" fill="#263238"/>
<path d="M100.188 40.0654L76.4765 45.3229" stroke="#263238" stroke-width="2" stroke-linecap="round" stroke-linejoin="round"/>
<path d="M31.3105 37.6836L43.1188 42.1208C48.467 43.8537 48.2039 42.6488 47.543 40.6006" stroke="#263238" stroke-width="2" stroke-linecap="round" stroke-linejoin="round"/>
<path d="M88.0449 33.8672L76.9375 39.8461C71.8695 42.2798 72.6041 41.0077 72.9848 38.8894" stroke="#263238" stroke-width="2" stroke-linecap="round" stroke-linejoin="round"/>
</g>
<defs>
<clipPath id="clip0_237_801">
<rect width="126" height="126" fill="white" transform="translate(0 126) rotate(-90)"/>
</clipPath>
</defs>
</svg>
