<svg width="126" height="127" viewBox="0 0 126 127" fill="none" xmlns="http://www.w3.org/2000/svg">
<path d="M9.98463 40.3061C7.7741 42.9984 6.11621 48.383 6.11621 51.883L6.11621 74.7677C6.11621 78.2677 7.7741 83.383 9.98463 86.3446L23.8004 104.652C26.0109 107.345 30.432 110.575 33.7478 111.652L56.1294 118.652C59.4451 119.729 64.9715 119.729 68.5636 118.652L90.9451 111.652C93.9846 110.575 98.4057 107.345 100.616 104.652L114.432 86.0753C116.643 83.383 118.3 77.9984 118.3 74.4984L118.3 51.6138C118.3 48.1138 116.643 42.9984 114.432 40.0369L100.616 21.46C98.4057 18.7677 93.9846 15.5369 90.6688 14.46L68.2872 7.72921C64.9715 6.65229 59.4451 6.65229 55.853 7.72921L33.4715 14.7292C30.1557 15.8061 25.4583 19.0369 23.5241 21.7292L9.98463 40.3061Z" fill="white"/>
<path d="M9.98463 40.3061C7.7741 42.9984 6.11621 48.383 6.11621 51.883L6.11621 74.7677C6.11621 78.2677 7.7741 83.383 9.98463 86.3446L23.8004 104.652C26.0109 107.345 30.432 110.575 33.7478 111.652L56.1294 118.652C59.4451 119.729 64.9715 119.729 68.5636 118.652L90.9451 111.652C93.9846 110.575 98.4057 107.345 100.616 104.652L114.432 86.0753C116.643 83.383 118.3 77.9984 118.3 74.4984L118.3 51.6138C118.3 48.1138 116.643 42.9984 114.432 40.0369L100.616 21.46C98.4057 18.7677 93.9846 15.5369 90.6688 14.46L68.2872 7.72921C64.9715 6.65229 59.4451 6.65229 55.853 7.72921L33.4715 14.7292C30.1557 15.8061 25.4583 19.0369 23.5241 21.7292L9.98463 40.3061Z" stroke="#00783B" stroke-width="6.26864" stroke-miterlimit="10"/>
<path d="M9.98463 40.3061C7.7741 42.9984 6.11621 48.383 6.11621 51.883L6.11621 74.7677C6.11621 78.2677 7.7741 83.383 9.98463 86.3446L23.8004 104.652C26.0109 107.345 30.432 110.575 33.7478 111.652L56.1294 118.652C59.4451 119.729 64.9715 119.729 68.5636 118.652L90.9451 111.652C93.9846 110.575 98.4057 107.345 100.616 104.652L114.432 86.0753C116.643 83.383 118.3 77.9984 118.3 74.4984L118.3 51.6138C118.3 48.1138 116.643 42.9984 114.432 40.0369L100.616 21.46C98.4057 18.7677 93.9846 15.5369 90.6688 14.46L68.2872 7.72921C64.9715 6.65229 59.4451 6.65229 55.853 7.72921L33.4715 14.7292C30.1557 15.8061 25.4583 19.0369 23.5241 21.7292L9.98463 40.3061Z" stroke="#00783B" stroke-width="6.26864" stroke-miterlimit="10"/>
<path d="M97.0415 48.9058C96.9268 51.1994 94.1439 52.9808 90.8258 52.8126C87.5078 52.6444 84.916 50.626 85.0383 48.2942C85.1607 45.9623 87.9359 44.2269 91.254 44.395C94.5721 44.5632 97.1638 46.5816 97.0415 48.9058Z" fill="#263238"/>
<path d="M40.4357 52.7283C40.8791 55.0219 38.5932 57.3766 35.3363 58.0112C32.0794 58.6457 29.0748 57.3078 28.6313 55.0219C28.1879 52.7359 30.4662 50.3659 33.7308 49.7313C36.9953 49.0967 39.9999 50.4423 40.4357 52.7283Z" fill="#263238"/>
<path d="M32.7137 70.2132C38.9586 70.2132 44.0211 68.3272 44.0211 66.0007C44.0211 63.6741 38.9586 61.7881 32.7137 61.7881C26.4688 61.7881 21.4062 63.6741 21.4062 66.0007C21.4062 68.3272 26.4688 70.2132 32.7137 70.2132Z" fill="#CADE9C"/>
<path d="M107.279 57.3069C107.623 59.5241 103.081 62.0776 97.1409 63.0104C91.2005 63.9431 86.0934 62.8957 85.7418 60.6785C85.3901 58.4614 89.939 55.9155 95.8794 54.9828C101.82 54.05 106.95 55.0898 107.279 57.3069Z" fill="#CADE9C"/>
<path d="M45.6414 78.8474C51.4672 77.0278 66.7119 73.0063 83.6616 74.5431C83.9122 74.5703 84.1548 74.6476 84.3749 74.7705C84.5951 74.8933 84.7882 75.0591 84.943 75.2581C85.0978 75.4571 85.2109 75.6852 85.2758 75.9288C85.3407 76.1724 85.3559 76.4265 85.3207 76.6761C83.4399 91.4469 56.1308 94.4744 44.8004 81.8443C44.5948 81.6126 44.4506 81.333 44.3811 81.0311C44.3116 80.7291 44.3191 80.4146 44.4028 80.1163C44.4865 79.818 44.6438 79.5455 44.8602 79.3238C45.0766 79.1021 45.3452 78.9383 45.6414 78.8474Z" fill="#263238"/>
<path opacity="0.6" d="M71.767 80.7592C70.79 81.0407 69.8486 81.4331 68.9611 81.929C66.6233 80.9462 64.0099 80.8376 61.5987 81.6232C57.906 82.6935 55.039 85.2012 54.0527 87.9C59.6668 89.9139 65.7351 90.3035 71.5605 89.0238C75.6814 88.1064 79.3435 86.3097 81.8588 83.7103C80.5208 80.7592 76.3159 79.4366 71.767 80.7592Z" fill="#CADE9C"/>
</svg>
