<svg width="126" height="126" viewBox="0 0 126 126" fill="none" xmlns="http://www.w3.org/2000/svg">
<path d="M9.9524 39.5727C7.74188 42.265 6.08398 47.6496 6.08398 51.1496L6.08398 74.0343C6.08398 77.5343 7.74188 82.6496 9.9524 85.6112L23.7682 103.919C25.9787 106.611 30.3998 109.842 33.7156 110.919L56.0971 117.919C59.4129 118.996 64.9392 118.996 68.5313 117.919L90.9129 110.919C93.9524 109.842 98.3734 106.611 100.584 103.919L114.4 85.3419C116.61 82.6496 118.268 77.265 118.268 73.765L118.268 50.8804C118.268 47.3804 116.61 42.265 114.4 39.3035L100.584 20.7266C98.3734 18.0343 93.9524 14.8035 90.6366 13.7266L68.255 6.9958C64.9392 5.91887 59.4129 5.91887 55.8208 6.9958L33.4392 13.9958C30.1234 15.0727 25.4261 18.3035 23.4919 20.9958L9.9524 39.5727Z" fill="white"/>
<path d="M9.9524 39.5727C7.74188 42.265 6.08398 47.6496 6.08398 51.1496L6.08398 74.0343C6.08398 77.5343 7.74188 82.6496 9.9524 85.6112L23.7682 103.919C25.9787 106.611 30.3998 109.842 33.7156 110.919L56.0971 117.919C59.4129 118.996 64.9392 118.996 68.5313 117.919L90.9129 110.919C93.9524 109.842 98.3734 106.611 100.584 103.919L114.4 85.3419C116.61 82.6496 118.268 77.265 118.268 73.765L118.268 50.8804C118.268 47.3804 116.61 42.265 114.4 39.3035L100.584 20.7266C98.3734 18.0343 93.9524 14.8035 90.6366 13.7266L68.255 6.9958C64.9392 5.91888 59.4129 5.91888 55.8208 6.9958L33.4392 13.9958C30.1234 15.0727 25.4261 18.3035 23.4919 20.9958L9.9524 39.5727Z" stroke="#00783B" stroke-width="6.26864" stroke-miterlimit="10"/>
<path d="M9.9524 39.5727C7.74188 42.265 6.08398 47.6496 6.08398 51.1496L6.08398 74.0343C6.08398 77.5343 7.74188 82.6496 9.9524 85.6112L23.7682 103.919C25.9787 106.611 30.3998 109.842 33.7156 110.919L56.0971 117.919C59.4129 118.996 64.9392 118.996 68.5313 117.919L90.9129 110.919C93.9524 109.842 98.3734 106.611 100.584 103.919L114.4 85.3419C116.61 82.6496 118.268 77.265 118.268 73.765L118.268 50.8804C118.268 47.3804 116.61 42.265 114.4 39.3035L100.584 20.7266C98.3734 18.0343 93.9524 14.8035 90.6366 13.7266L68.255 6.9958C64.9392 5.91888 59.4129 5.91888 55.8208 6.9958L33.4392 13.9958C30.1234 15.0727 25.4261 18.3035 23.4919 20.9958L9.9524 39.5727Z" stroke="#00783B" stroke-width="6.26864" stroke-miterlimit="10"/>
<path d="M41.351 62.7424C41.7637 64.7704 38.1981 66.5683 33.491 66.9089C28.784 67.2495 24.8832 65.9639 24.7143 64.0162C24.3015 61.9882 27.8672 60.1903 32.5742 59.8497C37.2813 59.5091 40.9382 60.7144 41.351 62.7424Z" fill="#CADE9C"/>
<path d="M104.673 62.0451C104.579 64.1126 100.987 65.3209 96.3894 64.7947C91.7917 64.2685 88.6756 62.6936 88.7256 60.8792C88.7756 59.0648 92.4112 57.6034 96.7559 58.0863C101.101 58.5692 104.723 60.2306 104.673 62.0451Z" fill="#CADE9C"/>
<path d="M53.4561 65.2539L69.4361 63.7023" stroke="#263238" stroke-width="2.2936" stroke-linecap="round"/>
<path d="M72.5679 59.6334C70.6619 61.0987 68.1485 64.7481 73.3437 67.6235" stroke="#263238" stroke-width="2.2936" stroke-linecap="round"/>
<path d="M24.8344 54.6865L42.1378 53.0138L44.2363 45.8721L21.4068 48.0789L24.8344 54.6865Z" fill="#263238"/>
<path d="M101.93 52.4217L84.5764 51.4006L82.2109 44.3428L105.107 45.69L101.93 52.4217Z" fill="#263238"/>
</svg>
