<svg width="126" height="126" viewBox="0 0 126 126" fill="none" xmlns="http://www.w3.org/2000/svg">
<path d="M85.8872 10.7776C83.1949 8.56707 77.8103 6.90918 74.3103 6.90918L51.4257 6.90918C47.9257 6.90918 42.8103 8.56707 39.8488 10.7776L21.5411 24.5934C18.8488 26.8039 15.618 31.225 14.5411 34.5408L7.54109 56.9223C6.46417 60.2381 6.46417 65.7644 7.54109 69.3565L14.5411 91.7381C15.618 94.7776 18.8488 99.1987 21.5411 101.409L40.118 115.225C42.8103 117.435 48.1949 119.093 51.6949 119.093H74.5796C78.0796 119.093 83.1949 117.435 86.1565 115.225L104.733 101.409C107.426 99.1987 110.656 94.7776 111.733 91.4618L118.464 69.0802C119.541 65.7644 119.541 60.2381 118.464 56.646L111.464 34.2644C110.387 30.9487 107.156 26.2513 104.464 24.3171L85.8872 10.7776Z" fill="white"/>
<path d="M85.8872 10.7776C83.1949 8.56707 77.8103 6.90918 74.3103 6.90918L51.4257 6.90918C47.9257 6.90918 42.8103 8.56707 39.8488 10.7776L21.5411 24.5934C18.8488 26.8039 15.618 31.225 14.5411 34.5408L7.54109 56.9223C6.46417 60.2381 6.46417 65.7644 7.54109 69.3565L14.5411 91.7381C15.618 94.7776 18.8488 99.1987 21.5411 101.409L40.118 115.225C42.8103 117.435 48.1949 119.093 51.6949 119.093H74.5796C78.0796 119.093 83.1949 117.435 86.1565 115.225L104.733 101.409C107.426 99.1987 110.656 94.7776 111.733 91.4618L118.464 69.0802C119.541 65.7644 119.541 60.2381 118.464 56.646L111.464 34.2644C110.387 30.9487 107.156 26.2513 104.464 24.3171L85.8872 10.7776Z" stroke="#00783B" stroke-width="6.92907" stroke-miterlimit="10"/>
<path d="M39.3093 66.3517C43.324 66.3517 46.5785 63.0115 46.5785 58.8912C46.5785 54.7709 43.324 51.4307 39.3093 51.4307C35.2946 51.4307 32.04 54.7709 32.04 58.8912C32.04 63.0115 35.2946 66.3517 39.3093 66.3517Z" fill="#294020"/>
<path d="M88.0427 64.1417C92.0573 64.1417 95.3119 60.8016 95.3119 56.6812C95.3119 52.5609 92.0573 49.2207 88.0427 49.2207C84.028 49.2207 80.7734 52.5609 80.7734 56.6812C80.7734 60.8016 84.028 64.1417 88.0427 64.1417Z" fill="#294020"/>
<path d="M39.0395 77.5104C39.3512 76.0182 36.6572 74.1603 33.0225 73.3607C29.3877 72.561 26.1885 73.1224 25.8768 74.6146C25.5651 76.1068 28.2591 77.9647 31.8938 78.7643C35.5286 79.564 38.7278 79.0026 39.0395 77.5104Z" fill="#CADE9C"/>
<path d="M96.8441 74.2792C100.424 73.2522 103.002 71.2281 102.602 69.7584C102.201 68.2887 98.9747 67.9298 95.3945 68.9568C91.8144 69.9838 89.2366 72.0079 89.6369 73.4776C90.0372 74.9473 93.2639 75.3062 96.8441 74.2792Z" fill="#CADE9C"/>
<path d="M79.2844 75.2941C79.4525 77.0983 79.2518 78.9178 78.6945 80.642C78.1372 82.3661 77.2349 83.9588 76.0425 85.3232C74.8502 86.6876 73.3926 87.7951 71.7587 88.5784C70.1247 89.3616 68.3485 89.8042 66.5381 89.8792C64.7277 89.9543 62.9209 89.6602 61.2277 89.0148C59.5346 88.3694 57.9904 87.3863 56.6892 86.1253C55.3881 84.8643 54.3571 83.3517 53.659 81.6795C52.9609 80.0074 52.6103 78.2108 52.6286 76.3989L79.2844 75.2941Z" fill="#263238"/>
<path d="M76.6807 83.7805C75.4944 85.3889 73.9627 86.7108 72.1981 87.6491C70.4335 88.5874 68.481 89.1181 66.4842 89.2022C64.4874 89.2864 62.4972 88.9217 60.6599 88.1352C58.8227 87.3486 57.1851 86.1601 55.8678 84.6572C58.6613 82.0509 62.295 80.53 66.1121 80.3692C69.9292 80.2084 73.6779 81.4184 76.6807 83.7805Z" fill="#889974"/>
</svg>
