<svg width="126" height="126" viewBox="0 0 126 126" fill="none" xmlns="http://www.w3.org/2000/svg">
<path d="M9.98658 39.5024C7.77606 42.1947 6.11816 47.5793 6.11816 51.0793L6.11816 73.9639C6.11816 77.4639 7.77606 82.5793 9.98658 85.5409L23.8024 103.849C26.0129 106.541 30.4339 109.772 33.7497 110.849L56.1313 117.849C59.4471 118.925 64.9734 118.925 68.5655 117.849L90.9471 110.849C93.9866 109.772 98.4076 106.541 100.618 103.849L114.434 85.2716C116.644 82.5793 118.302 77.1947 118.302 73.6947L118.302 50.8101C118.302 47.3101 116.644 42.1947 114.434 39.2332L100.618 20.6563C98.4076 17.964 93.9866 14.7332 90.6708 13.6563L68.2892 6.9255C64.9734 5.84858 59.4471 5.84858 55.855 6.9255L33.4734 13.9255C30.1576 15.0024 25.4603 18.2332 23.5261 20.9255L9.98658 39.5024Z" fill="white"/>
<path d="M9.98658 39.5024C7.77606 42.1947 6.11816 47.5793 6.11816 51.0793L6.11816 73.9639C6.11816 77.4639 7.77606 82.5793 9.98658 85.5409L23.8024 103.849C26.0129 106.541 30.4339 109.772 33.7497 110.849L56.1313 117.849C59.4471 118.925 64.9734 118.925 68.5655 117.849L90.9471 110.849C93.9866 109.772 98.4076 106.541 100.618 103.849L114.434 85.2716C116.644 82.5793 118.302 77.1947 118.302 73.6947L118.302 50.8101C118.302 47.3101 116.644 42.1947 114.434 39.2332L100.618 20.6563C98.4076 17.964 93.9866 14.7332 90.6708 13.6563L68.2892 6.9255C64.9734 5.84857 59.4471 5.84857 55.855 6.9255L33.4734 13.9255C30.1576 15.0024 25.4603 18.2332 23.5261 20.9255L9.98658 39.5024Z" stroke="#00783B" stroke-width="6.26864" stroke-miterlimit="10"/>
<path d="M9.98658 39.5024C7.77606 42.1947 6.11816 47.5793 6.11816 51.0793L6.11816 73.9639C6.11816 77.4639 7.77606 82.5793 9.98658 85.5409L23.8024 103.849C26.0129 106.541 30.4339 109.772 33.7497 110.849L56.1313 117.849C59.4471 118.925 64.9734 118.925 68.5655 117.849L90.9471 110.849C93.9866 109.772 98.4076 106.541 100.618 103.849L114.434 85.2716C116.644 82.5793 118.302 77.1947 118.302 73.6947L118.302 50.8101C118.302 47.3101 116.644 42.1947 114.434 39.2332L100.618 20.6563C98.4076 17.964 93.9866 14.7332 90.6708 13.6563L68.2892 6.9255C64.9734 5.84857 59.4471 5.84857 55.855 6.9255L33.4734 13.9255C30.1576 15.0024 25.4603 18.2332 23.5261 20.9255L9.98658 39.5024Z" stroke="#00783B" stroke-width="6.26864" stroke-miterlimit="10"/>
<path d="M25.8773 65.746C25.5422 64.4968 25.4689 63.1917 25.6621 61.9128C25.8553 60.6339 26.3108 59.4088 27.0001 58.3143C27.7076 57.1313 28.6732 56.1234 29.8247 55.3659C31.0221 54.6121 32.3814 54.1534 33.7907 54.0275C35.2053 53.9171 36.6256 54.1511 37.93 54.7094C39.1921 55.267 40.3134 56.1001 41.2116 57.1476C42.0649 58.119 42.7086 59.2561 43.1024 60.4876C43.4962 61.7192 43.6317 63.0188 43.5003 64.3051C42.7446 62.1248 41.4177 60.1872 39.658 58.6944C38.8982 58.0117 38.0075 57.4906 37.04 57.1628C36.0725 56.8351 35.0485 56.7074 34.0302 56.7877C33.0118 56.868 32.0205 57.1546 31.1163 57.6299C30.2122 58.1052 29.4141 58.7594 28.7706 59.5528C27.2775 61.3263 26.2793 63.4628 25.8773 65.746Z" fill="#263238"/>
<path d="M97.7882 55.7226C97.9301 57.4655 97.5531 59.2115 96.7045 60.7406C95.856 62.2697 94.5739 63.5135 93.0198 64.3152C91.4657 65.117 89.709 65.4409 87.9711 65.2462C86.2333 65.0514 84.5919 64.3467 83.2538 63.2208C81.9157 62.0949 80.9407 60.5982 80.4517 58.9192C79.9627 57.2402 79.9815 55.4541 80.5057 53.7858C81.03 52.1174 82.0362 50.6416 83.3977 49.5441C84.7592 48.4466 86.415 47.7766 88.1566 47.6184C89.3218 47.5147 90.496 47.6423 91.6117 47.994C92.7274 48.3456 93.7626 48.9144 94.6577 49.6676C95.5528 50.4207 96.2902 51.3434 96.8274 52.3825C97.3647 53.4217 97.6912 54.5568 97.7882 55.7226Z" fill="#263238"/>
<path d="M48.2723 77.3448C48.2723 77.3448 51.0791 83.4619 60.6534 84.5788C60.6534 84.5788 55.6054 101.986 45.344 95.5285C35.0826 89.0711 48.2723 77.3448 48.2723 77.3448Z" fill="#889974"/>
<path d="M45.9459 71.4057C47.1576 75.0561 49.4166 78.2693 52.4415 80.645C55.4565 82.7127 59.1143 83.6276 62.7477 83.2227C66.3988 83.1032 69.8782 81.6438 72.5221 79.1228C75.1524 76.3561 77.0055 72.9439 77.894 69.2313C78.0571 73.3651 76.7178 77.4181 74.1237 80.6407C72.749 82.2883 71.0296 83.6142 69.0867 84.5249C67.1434 85.3908 65.0627 85.9071 62.9401 86.0501C60.8222 86.196 58.6949 85.9879 56.6455 85.4343C54.5836 84.8383 52.6795 83.7924 51.0705 82.3719C47.9983 79.5241 46.1596 75.5893 45.9459 71.4057Z" fill="#263238"/>
<path d="M48.4924 91.2619C48.9428 89.5954 49.6433 88.0068 50.5701 86.5503C51.4391 85.0427 52.5386 83.6802 53.8287 82.5124C53.3908 84.1817 52.6948 85.7725 51.7661 87.2271C50.8857 88.7302 49.7819 90.0907 48.4924 91.2619Z" fill="#263238"/>
<path d="M39.2094 72.5264C39.7661 74.5197 36.3383 76.5681 31.6676 77.2446C26.997 77.9211 23.0143 76.9178 22.7064 74.9872C22.1497 72.994 25.5776 70.9456 30.2482 70.2691C34.9188 69.5926 38.6526 70.5332 39.2094 72.5264Z" fill="#CADE9C"/>
<path d="M102.708 73.6969C102.455 75.751 98.7799 76.6783 94.2366 75.7986C89.6933 74.9188 86.7081 73.108 86.8981 71.3028C87.0881 69.4976 90.8257 68.3214 95.1201 69.1385C99.4145 69.9555 102.898 71.8918 102.708 73.6969Z" fill="#CADE9C"/>
</svg>
