<svg width="126" height="126" viewBox="0 0 126 126" fill="none" xmlns="http://www.w3.org/2000/svg">
<path d="M85.8872 10.7776C83.1949 8.56707 77.8103 6.90918 74.3103 6.90918L51.4257 6.90918C47.9257 6.90918 42.8103 8.56707 39.8488 10.7776L21.5411 24.5934C18.8488 26.8039 15.618 31.225 14.5411 34.5408L7.54109 56.9223C6.46417 60.2381 6.46417 65.7644 7.54109 69.3565L14.5411 91.7381C15.618 94.7776 18.8488 99.1987 21.5411 101.409L40.118 115.225C42.8103 117.435 48.1949 119.093 51.6949 119.093H74.5796C78.0796 119.093 83.1949 117.435 86.1565 115.225L104.733 101.409C107.426 99.1987 110.656 94.7776 111.733 91.4618L118.464 69.0802C119.541 65.7644 119.541 60.2381 118.464 56.646L111.464 34.2644C110.387 30.9487 107.156 26.2513 104.464 24.3171L85.8872 10.7776Z" fill="white"/>
<path d="M85.8872 10.7776C83.1949 8.56707 77.8103 6.90918 74.3103 6.90918L51.4257 6.90918C47.9257 6.90918 42.8103 8.56707 39.8488 10.7776L21.5411 24.5934C18.8488 26.8039 15.618 31.225 14.5411 34.5408L7.54109 56.9223C6.46417 60.2381 6.46417 65.7644 7.54109 69.3565L14.5411 91.7381C15.618 94.7776 18.8488 99.1987 21.5411 101.409L40.118 115.225C42.8103 117.435 48.1949 119.093 51.6949 119.093H74.5796C78.0796 119.093 83.1949 117.435 86.1565 115.225L104.733 101.409C107.426 99.1987 110.656 94.7776 111.733 91.4618L118.464 69.0802C119.541 65.7644 119.541 60.2381 118.464 56.646L111.464 34.2644C110.387 30.9487 107.156 26.2513 104.464 24.3171L85.8872 10.7776Z" stroke="#00783B" stroke-width="6.92907" stroke-miterlimit="10"/>
<path d="M39.0395 80.5109C39.3512 79.0187 36.6572 77.1608 33.0225 76.3612C29.3877 75.5615 26.1885 76.1229 25.8768 77.6151C25.5651 79.1072 28.2591 80.9651 31.8938 81.7648C35.5286 82.5644 38.7278 82.003 39.0395 80.5109Z" fill="#CADE9C"/>
<path d="M96.8441 77.2802C100.424 76.2531 103.002 74.2291 102.602 72.7594C102.201 71.2896 98.9747 70.9307 95.3945 71.9578C91.8144 72.9848 89.2366 75.0088 89.6369 76.4786C90.0372 77.9483 93.2639 78.3072 96.8441 77.2802Z" fill="#CADE9C"/>
<path d="M67.176 91.6753C62.0281 91.7427 59.7037 88.1425 59.185 86.3341C58.6382 82.3805 62.6337 85.0514 65.1151 85.514C67.5965 85.9766 68.1748 82.8747 71.2345 80.2355C74.2941 77.5963 78.0584 81.5077 77.7114 83.3687C77.3644 85.2298 73.6109 91.5911 67.176 91.6753Z" fill="#263238"/>
<path d="M100 42L91 65.5" stroke="#DEEAC2" stroke-width="4"/>
<path d="M42.8252 41.9997L39.107 65.474" stroke="#DEEAC2" stroke-width="4"/>
<path d="M92.5 41.5L83.5 65.5" stroke="#DEEAC2" stroke-width="3"/>
<path d="M35.3935 43.0656L31.7832 67.0004" stroke="#DEEAC2" stroke-width="3"/>
<rect x="74.6875" y="41.2496" width="31" height="24" rx="4" transform="rotate(1.7085 74.6875 41.2496)" stroke="black" stroke-width="2"/>
<rect x="20.0733" y="43.437" width="31" height="24" rx="4" transform="rotate(-4.37253 20.0733 43.437)" stroke="black" stroke-width="2"/>
<path d="M51.9424 53.2202H73.9424" stroke="#263238" stroke-width="2" stroke-linecap="round" stroke-linejoin="round"/>
</svg>
