<svg width="126" height="126" viewBox="0 0 126 126" fill="none" xmlns="http://www.w3.org/2000/svg">
<path d="M9.9524 39.5727C7.74188 42.265 6.08398 47.6496 6.08398 51.1496L6.08398 74.0343C6.08398 77.5343 7.74188 82.6496 9.9524 85.6112L23.7682 103.919C25.9787 106.611 30.3998 109.842 33.7156 110.919L56.0971 117.919C59.4129 118.996 64.9392 118.996 68.5313 117.919L90.9129 110.919C93.9524 109.842 98.3734 106.611 100.584 103.919L114.4 85.3419C116.61 82.6496 118.268 77.265 118.268 73.765L118.268 50.8804C118.268 47.3804 116.61 42.265 114.4 39.3035L100.584 20.7266C98.3734 18.0343 93.9524 14.8035 90.6366 13.7266L68.255 6.9958C64.9392 5.91887 59.4129 5.91887 55.8208 6.9958L33.4392 13.9958C30.1234 15.0727 25.4261 18.3035 23.4919 20.9958L9.9524 39.5727Z" fill="white"/>
<path d="M9.9524 39.5727C7.74188 42.265 6.08398 47.6496 6.08398 51.1496L6.08398 74.0343C6.08398 77.5343 7.74188 82.6496 9.9524 85.6112L23.7682 103.919C25.9787 106.611 30.3998 109.842 33.7156 110.919L56.0971 117.919C59.4129 118.996 64.9392 118.996 68.5313 117.919L90.9129 110.919C93.9524 109.842 98.3734 106.611 100.584 103.919L114.4 85.3419C116.61 82.6496 118.268 77.265 118.268 73.765L118.268 50.8804C118.268 47.3804 116.61 42.265 114.4 39.3035L100.584 20.7266C98.3734 18.0343 93.9524 14.8035 90.6366 13.7266L68.255 6.9958C64.9392 5.91888 59.4129 5.91888 55.8208 6.9958L33.4392 13.9958C30.1234 15.0727 25.4261 18.3035 23.4919 20.9958L9.9524 39.5727Z" stroke="#00783B" stroke-width="6.26864" stroke-miterlimit="10"/>
<path d="M9.9524 39.5727C7.74188 42.265 6.08398 47.6496 6.08398 51.1496L6.08398 74.0343C6.08398 77.5343 7.74188 82.6496 9.9524 85.6112L23.7682 103.919C25.9787 106.611 30.3998 109.842 33.7156 110.919L56.0971 117.919C59.4129 118.996 64.9392 118.996 68.5313 117.919L90.9129 110.919C93.9524 109.842 98.3734 106.611 100.584 103.919L114.4 85.3419C116.61 82.6496 118.268 77.265 118.268 73.765L118.268 50.8804C118.268 47.3804 116.61 42.265 114.4 39.3035L100.584 20.7266C98.3734 18.0343 93.9524 14.8035 90.6366 13.7266L68.255 6.9958C64.9392 5.91888 59.4129 5.91888 55.8208 6.9958L33.4392 13.9958C30.1234 15.0727 25.4261 18.3035 23.4919 20.9958L9.9524 39.5727Z" stroke="#00783B" stroke-width="6.26864" stroke-miterlimit="10"/>
<ellipse cx="40.0054" cy="58.0969" rx="7.9615" ry="8.52058" transform="rotate(-2.84448 40.0054 58.0969)" fill="#263238"/>
<rect x="21" y="66.1973" width="26.6514" height="1.47471" transform="rotate(-2.84448 21 66.1973)" fill="#263238"/>
<path d="M21.8174 47L45.8288 50.6539" stroke="#263238" stroke-width="2" stroke-linecap="round" stroke-linejoin="round"/>
<ellipse rx="7.73695" ry="8.52058" transform="matrix(-0.998768 -0.0496252 -0.0496252 0.998768 84.1505 58.0856)" fill="#263238"/>
<rect width="26.6514" height="1.47471" transform="matrix(-0.998768 -0.0496252 -0.0496252 0.998768 103.38 66.1973)" fill="#263238"/>
<path d="M102.562 47L78.5511 50.6539" stroke="#263238" stroke-width="2" stroke-linecap="round" stroke-linejoin="round"/>
<path d="M34 40L45.4837 45.2199C50.7036 47.3078 50.522 46.088 50 44" stroke="#263238" stroke-width="2" stroke-linecap="round" stroke-linejoin="round"/>
<path d="M90.8633 40L79.3796 45.2199C74.1597 47.3078 74.978 46.088 75.5 44" stroke="#263238" stroke-width="2" stroke-linecap="round" stroke-linejoin="round"/>
<path d="M104.672 75.255C104.578 77.3225 100.986 78.5309 96.3884 78.0047C91.7907 77.4785 88.6746 75.9036 88.7246 74.0892C88.7746 72.2747 92.4102 70.8133 96.7549 71.2962C101.1 71.7792 104.722 73.4406 104.672 75.255Z" fill="#CADE9C"/>
<path d="M41.351 75.1672C41.7637 77.1952 38.1981 78.9931 33.491 79.3337C28.784 79.6743 24.8832 78.3887 24.7143 76.441C24.3015 74.413 27.8672 72.6151 32.5742 72.2745C37.2813 71.9339 40.9382 73.1392 41.351 75.1672Z" fill="#CADE9C"/>
<path d="M42.5916 86.2384C48.5358 84.8539 64.0359 81.969 80.8258 84.7529C81.0738 84.7986 81.31 84.8936 81.5204 85.0324C81.7309 85.1711 81.9113 85.3508 82.0509 85.5606C82.1906 85.7705 82.2866 86.0063 82.3333 86.254C82.38 86.5017 82.3765 86.7563 82.3229 87.0026C79.3567 101.594 51.8986 102.597 41.5316 89.1651C41.3437 88.9188 41.2205 88.6293 41.1735 88.323C41.1265 88.0168 41.1572 87.7036 41.2627 87.4123C41.3682 87.121 41.5451 86.8609 41.7773 86.6558C42.0095 86.4506 42.2895 86.3071 42.5916 86.2384Z" fill="#263238"/>
<path opacity="0.6" d="M68.5049 90.074C67.5099 90.2825 66.5421 90.6044 65.6204 91.0334C63.3616 89.8807 60.7633 89.5794 58.3006 90.1848C54.539 90.9796 51.4947 93.2688 50.3118 95.8874C55.7619 98.3103 61.7848 99.1468 67.6889 98.3008C71.8662 97.6901 75.651 96.1688 78.3513 93.7622C77.2349 90.7203 73.1391 89.0909 68.5049 90.074Z" fill="#CADE9C"/>
</svg>
