<svg width="126" height="126" viewBox="0 0 126 126" fill="none" xmlns="http://www.w3.org/2000/svg">
<g clip-path="url(#clip0_239_983)">
<path d="M8.57088 81.8796C8.82544 85.3538 11.3363 90.3974 13.749 92.9329L29.5245 109.511C31.9372 112.047 36.6645 114.61 40.3074 115.231L62.9363 118.97C66.3936 119.397 71.8235 118.689 74.9679 117.184L96.0073 106.826C99.1517 105.321 103.155 101.511 105.015 98.2546L116.403 77.7549C117.863 74.8795 118.839 69.4914 118.584 66.0172L115.787 43.0356C115.532 39.5614 113.021 34.5178 110.609 31.9823L94.8331 15.4039C92.4203 12.8684 87.693 10.3056 84.0501 9.68395L61.2356 5.75014C57.7783 5.32357 52.3484 6.03075 49.204 7.53633L28.3502 18.089C25.2058 19.5946 21.2024 23.4042 19.3425 26.6605L7.95406 47.1602C6.29437 50.2261 5.11859 55.8047 5.57332 59.0885L8.57088 81.8796Z" fill="white"/>
<path d="M8.57088 81.8796C8.82544 85.3538 11.3363 90.3974 13.749 92.9329L29.5245 109.511C31.9372 112.047 36.6645 114.61 40.3074 115.231L62.9363 118.97C66.3936 119.397 71.8235 118.689 74.9679 117.184L96.0073 106.826C99.1517 105.321 103.155 101.511 105.015 98.2546L116.403 77.7549C117.863 74.8795 118.839 69.4914 118.584 66.0172L115.787 43.0356C115.532 39.5614 113.021 34.5178 110.609 31.9823L94.8331 15.4039C92.4203 12.8684 87.693 10.3056 84.0501 9.68396L61.2356 5.75015C57.7783 5.32358 52.3484 6.03076 49.204 7.53634L28.3502 18.0891C25.2058 19.5946 21.2024 23.4042 19.3425 26.6605L7.95406 47.1602C6.29438 50.2261 5.11859 55.8047 5.57333 59.0885L8.57088 81.8796Z" stroke="#00783B" stroke-width="6.27234" stroke-miterlimit="10"/>
<path d="M8.57088 81.8796C8.82544 85.3538 11.3363 90.3974 13.749 92.9329L29.5245 109.511C31.9372 112.047 36.6645 114.61 40.3074 115.231L62.9363 118.97C66.3936 119.397 71.8235 118.689 74.9679 117.184L96.0073 106.826C99.1517 105.321 103.155 101.511 105.015 98.2546L116.403 77.7549C117.863 74.8795 118.839 69.4914 118.584 66.0172L115.787 43.0356C115.532 39.5614 113.021 34.5178 110.609 31.9823L94.8331 15.4039C92.4203 12.8684 87.693 10.3056 84.0501 9.68396L61.2356 5.75015C57.7783 5.32358 52.3484 6.03076 49.204 7.53634L28.3502 18.0891C25.2058 19.5946 21.2024 23.4042 19.3425 26.6605L7.95406 47.1602C6.29438 50.2261 5.11859 55.8047 5.57333 59.0885L8.57088 81.8796Z" stroke="#00783B" stroke-width="6.27234" stroke-miterlimit="10"/>
<path d="M71.3496 86.5795C70.5639 86.7667 70.0401 86.8915 69.1904 86.81C63.9581 86.9205 60.4424 83.7816 60.3784 83.5128C59.7265 83.1 59.7322 81.9624 60.1919 81.5688C60.5876 80.9064 61.6993 80.9256 62.0893 81.4008C62.4152 81.6072 69.4466 87.8851 77.0758 79.2499C77.4715 78.5875 78.5831 78.6067 78.9731 79.0818C79.625 79.4946 79.6193 80.6322 79.1596 81.0258C76.5933 84.1938 73.9686 85.9554 71.3496 86.5795Z" fill="#37572C"/>
<path d="M41.7854 72.4331C42.8133 74.2293 39.9915 77.0548 35.6288 78.8546C31.2661 80.6544 27.159 80.6571 26.3877 78.8607C25.3597 77.0645 28.1815 74.2389 32.5442 72.4392C36.9069 70.6394 40.7574 70.6369 41.7854 72.4331Z" fill="#CADE9C"/>
<path d="M21.7558 54.2182C26.6319 52.4181 31.7651 51.3879 36.8991 51.3846C39.4661 51.3829 42.0333 51.6379 44.6004 51.8929C47.1676 52.1479 49.7351 52.9163 52.3025 53.6847C53.5862 53.9406 54.614 55.4801 54.1015 56.7639C53.8454 57.7909 52.8192 58.5617 51.7925 58.819C49.7391 59.0771 47.429 59.3353 45.3757 59.8501C43.3225 60.3648 41.2692 60.8795 38.9595 61.6512C34.8533 63.1941 30.7475 65.2503 26.8985 67.5632C28.1807 65.5087 29.7197 63.7108 31.5155 62.1695C33.3114 60.6281 35.3642 59.3432 37.4169 58.0584C39.4698 57.0303 41.7794 56.0019 44.0892 55.2303C46.399 54.4587 48.7089 53.9438 51.2757 53.6854L50.5089 58.5632C48.1981 57.7946 46.1441 57.2826 43.8335 56.7707C41.2662 56.259 38.9556 55.7471 36.6451 55.4919C34.3347 55.2367 31.7673 54.725 29.2004 54.7267C26.6334 54.7284 24.3229 54.4732 21.7558 54.2182Z" fill="#263238"/>
<path d="M91.8245 39.0309C90.5414 39.5452 89.2584 40.3161 87.9756 41.3437C86.9493 42.1145 85.6663 42.8854 84.8969 43.9127C83.8708 44.9402 83.1014 45.9675 82.3319 46.9948C81.5625 48.0221 81.0498 49.0492 80.2805 50.3332L77.1985 47.7683C78.738 46.7405 80.5344 45.9692 82.3311 45.7113C84.1277 45.1967 85.9244 44.9389 87.7214 45.1944C91.3152 45.192 94.6531 46.4733 97.4783 48.7817C95.938 48.526 94.1409 48.2705 92.6006 48.0148C91.0604 48.0159 89.5202 48.0169 87.9801 48.2746C86.4401 48.5323 84.9001 48.79 83.617 49.3043C82.3338 49.8185 80.7939 50.3329 79.511 51.1038C78.4845 51.6179 77.2008 51.3621 76.6869 50.5923C76.4299 50.0791 76.4294 49.309 76.6858 48.7954C77.1981 47.2549 78.2239 45.714 79.2499 44.4299C80.2758 43.1457 81.3021 42.3749 82.5849 41.3473C83.8679 40.5763 85.4076 39.8052 86.9474 39.2908C88.7442 39.0329 90.2844 39.0319 91.8245 39.0309Z" fill="#263238"/>
<path d="M103.639 58.0174C103.897 60.0708 100.562 61.8699 95.9411 62.1297C91.3207 62.3894 87.983 61.3648 87.7251 59.5681C87.4672 57.7714 90.8029 55.7156 95.1666 55.456C99.5304 55.1964 103.382 56.2207 103.639 58.0174Z" fill="#CADE9C"/>
</g>
<defs>
<clipPath id="clip0_239_983">
<rect width="126" height="126" fill="white" transform="translate(0 126) rotate(-90)"/>
</clipPath>
</defs>
</svg>
