<svg width="126" height="126" viewBox="0 0 126 126" fill="none" xmlns="http://www.w3.org/2000/svg">
<path d="M9.98463 39.5005C7.7741 42.1928 6.11621 47.5774 6.11621 51.0774L6.11621 73.962C6.11621 77.462 7.7741 82.5774 9.98463 85.5389L23.8004 103.847C26.0109 106.539 30.432 109.77 33.7478 110.847L56.1294 117.847C59.4451 118.924 64.9715 118.924 68.5636 117.847L90.9451 110.847C93.9846 109.77 98.4057 106.539 100.616 103.847L114.432 85.2697C116.643 82.5774 118.3 77.1928 118.3 73.6928L118.3 50.8081C118.3 47.3081 116.643 42.1928 114.432 39.2312L100.616 20.6543C98.4057 17.962 93.9846 14.7312 90.6688 13.6543L68.2872 6.92354C64.9715 5.84662 59.4451 5.84662 55.853 6.92354L33.4715 13.9235C30.1557 15.0005 25.4583 18.2312 23.5241 20.9235L9.98463 39.5005Z" fill="white"/>
<path d="M9.98463 39.5005C7.7741 42.1928 6.11621 47.5774 6.11621 51.0774L6.11621 73.962C6.11621 77.462 7.7741 82.5774 9.98463 85.5389L23.8004 103.847C26.0109 106.539 30.432 109.77 33.7478 110.847L56.1294 117.847C59.4451 118.924 64.9715 118.924 68.5636 117.847L90.9451 110.847C93.9846 109.77 98.4057 106.539 100.616 103.847L114.432 85.2697C116.643 82.5774 118.3 77.1928 118.3 73.6928L118.3 50.8081C118.3 47.3081 116.643 42.1928 114.432 39.2312L100.616 20.6543C98.4057 17.962 93.9846 14.7312 90.6688 13.6543L68.2872 6.92354C64.9715 5.84662 59.4451 5.84662 55.853 6.92354L33.4715 13.9235C30.1557 15.0005 25.4583 18.2312 23.5241 20.9235L9.98463 39.5005Z" stroke="#00783B" stroke-width="6.26864" stroke-miterlimit="10"/>
<path d="M9.98463 39.5005C7.7741 42.1928 6.11621 47.5774 6.11621 51.0774L6.11621 73.962C6.11621 77.462 7.7741 82.5774 9.98463 85.5389L23.8004 103.847C26.0109 106.539 30.432 109.77 33.7478 110.847L56.1294 117.847C59.4451 118.924 64.9715 118.924 68.5636 117.847L90.9451 110.847C93.9846 109.77 98.4057 106.539 100.616 103.847L114.432 85.2697C116.643 82.5774 118.3 77.1928 118.3 73.6928L118.3 50.8081C118.3 47.3081 116.643 42.1928 114.432 39.2312L100.616 20.6543C98.4057 17.962 93.9846 14.7312 90.6688 13.6543L68.2872 6.92354C64.9715 5.84662 59.4451 5.84662 55.853 6.92354L33.4715 13.9235C30.1557 15.0005 25.4583 18.2312 23.5241 20.9235L9.98463 39.5005Z" stroke="#00783B" stroke-width="6.26864" stroke-miterlimit="10"/>
<path d="M27.8902 58.4395C27.5469 57.1946 27.4551 55.8939 27.6204 54.6132C27.7856 53.3325 28.2045 52.0976 28.8526 50.9807C29.5128 49.7848 30.4363 48.7548 31.5533 47.9685C32.7014 47.1702 34.0242 46.6589 35.4107 46.4775C36.7962 46.3145 38.2005 46.4809 39.5096 46.9629C40.7846 47.4529 41.9346 48.2207 42.876 49.2105C43.7773 50.1345 44.4855 51.2289 44.9591 52.4298C45.4327 53.6306 45.6623 54.9138 45.6344 56.2043C44.8429 53.9924 43.4598 52.04 41.6357 50.5595C40.8125 49.8847 39.8625 49.3817 38.8417 49.0802C37.8208 48.7787 36.7499 48.6848 35.6922 48.8041C34.638 48.9466 33.6237 49.3017 32.7108 49.8478C31.7978 50.3939 31.0053 51.1197 30.3811 51.9812C28.9715 53.8633 28.1095 56.0983 27.8902 58.4395V58.4395Z" fill="#263238"/>
<path d="M76.0581 53.1774C75.7135 51.9339 75.6202 50.6341 75.7834 49.3541C75.9467 48.074 76.3633 46.8393 77.009 45.722C77.672 44.5281 78.595 43.4986 79.7097 42.7098C80.8547 41.9042 82.1794 41.391 83.5682 41.2152C84.9571 41.0393 86.3679 41.2061 87.6775 41.7009C88.9526 42.1909 90.1025 42.9586 91.0439 43.9484C91.9475 44.8709 92.6571 45.965 93.1308 47.1663C93.6046 48.3675 93.8329 49.6514 93.8023 50.9423C93.0086 48.7315 91.6259 46.7796 89.8036 45.2975C88.9894 44.6089 88.0411 44.0969 87.0187 43.7938C85.9963 43.4907 84.9221 43.4032 83.8641 43.5369C82.8062 43.6705 81.7875 44.0224 80.8726 44.5702C79.9577 45.1179 79.1665 45.8497 78.5491 46.7192C77.1345 48.5985 76.2719 50.835 76.0581 53.1774V53.1774Z" fill="#263238"/>
<path d="M76.6294 73.3022C76.9542 75.0849 76.9129 76.9149 76.5081 78.6811C76.1032 80.4473 75.3433 82.1126 74.2744 83.5758C73.2055 85.0389 71.8502 86.2693 70.2907 87.1921C68.7313 88.1148 67.0004 88.7106 65.2034 88.9432C63.4065 89.1758 61.5809 89.0404 59.8379 88.5452C58.0949 88.0499 56.471 87.2052 55.0648 86.0624C53.6586 84.9196 52.4996 83.5027 51.6584 81.8978C50.8172 80.293 50.3113 78.5337 50.1715 76.7271L76.6294 73.3022Z" fill="#263238"/>
<path d="M74.7752 81.9836C73.7338 83.6893 72.3231 85.1398 70.647 86.2284C68.971 87.317 67.0722 88.016 65.0903 88.2739C63.1085 88.5318 61.0941 88.3421 59.1952 87.7187C57.2964 87.0954 55.5615 86.0542 54.1181 84.6719C56.6737 81.832 60.1609 79.9999 63.9494 79.5069C67.738 79.0139 71.5779 79.8924 74.7752 81.9836Z" fill="#889974"/>
<path d="M35.9211 66.4142C35.9791 64.8909 33.0127 63.5091 29.2955 63.3277C25.5782 63.1464 22.5177 64.2342 22.4596 65.7575C22.4016 67.2808 25.3679 68.6626 29.0852 68.844C32.8025 69.0253 35.863 67.9374 35.9211 66.4142Z" fill="#CADE9C"/>
<path d="M93.886 64.0849C97.4662 63.0578 100.044 61.0338 99.6437 59.5641C99.2434 58.0943 96.0166 57.7354 92.4365 58.7625C88.8564 59.7895 86.2786 61.8135 86.6789 63.2833C87.0792 64.753 90.3059 65.1119 93.886 64.0849Z" fill="#CADE9C"/>
</svg>
