<svg width="126" height="126" viewBox="0 0 126 126" fill="none" xmlns="http://www.w3.org/2000/svg">
<path d="M9.9524 39.5727C7.74188 42.265 6.08398 47.6496 6.08398 51.1496L6.08398 74.0343C6.08398 77.5343 7.74188 82.6496 9.9524 85.6112L23.7682 103.919C25.9787 106.611 30.3998 109.842 33.7156 110.919L56.0971 117.919C59.4129 118.996 64.9392 118.996 68.5313 117.919L90.9129 110.919C93.9524 109.842 98.3734 106.611 100.584 103.919L114.4 85.3419C116.61 82.6496 118.268 77.265 118.268 73.765L118.268 50.8804C118.268 47.3804 116.61 42.265 114.4 39.3035L100.584 20.7266C98.3734 18.0343 93.9524 14.8035 90.6366 13.7266L68.255 6.9958C64.9392 5.91887 59.4129 5.91887 55.8208 6.9958L33.4392 13.9958C30.1234 15.0727 25.4261 18.3035 23.4919 20.9958L9.9524 39.5727Z" fill="white"/>
<path d="M9.9524 39.5727C7.74188 42.265 6.08398 47.6496 6.08398 51.1496L6.08398 74.0343C6.08398 77.5343 7.74188 82.6496 9.9524 85.6112L23.7682 103.919C25.9787 106.611 30.3998 109.842 33.7156 110.919L56.0971 117.919C59.4129 118.996 64.9392 118.996 68.5313 117.919L90.9129 110.919C93.9524 109.842 98.3734 106.611 100.584 103.919L114.4 85.3419C116.61 82.6496 118.268 77.265 118.268 73.765L118.268 50.8804C118.268 47.3804 116.61 42.265 114.4 39.3035L100.584 20.7266C98.3734 18.0343 93.9524 14.8035 90.6366 13.7266L68.255 6.9958C64.9392 5.91888 59.4129 5.91888 55.8208 6.9958L33.4392 13.9958C30.1234 15.0727 25.4261 18.3035 23.4919 20.9958L9.9524 39.5727Z" stroke="#00783B" stroke-width="6.26864" stroke-miterlimit="10"/>
<path d="M9.9524 39.5727C7.74188 42.265 6.08398 47.6496 6.08398 51.1496L6.08398 74.0343C6.08398 77.5343 7.74188 82.6496 9.9524 85.6112L23.7682 103.919C25.9787 106.611 30.3998 109.842 33.7156 110.919L56.0971 117.919C59.4129 118.996 64.9392 118.996 68.5313 117.919L90.9129 110.919C93.9524 109.842 98.3734 106.611 100.584 103.919L114.4 85.3419C116.61 82.6496 118.268 77.265 118.268 73.765L118.268 50.8804C118.268 47.3804 116.61 42.265 114.4 39.3035L100.584 20.7266C98.3734 18.0343 93.9524 14.8035 90.6366 13.7266L68.255 6.9958C64.9392 5.91888 59.4129 5.91888 55.8208 6.9958L33.4392 13.9958C30.1234 15.0727 25.4261 18.3035 23.4919 20.9958L9.9524 39.5727Z" stroke="#00783B" stroke-width="6.26864" stroke-miterlimit="10"/>
<ellipse cx="40.0054" cy="58.0974" rx="7.9615" ry="8.52058" transform="rotate(-2.84448 40.0054 58.0974)" fill="#263238"/>
<rect x="21" y="66.1973" width="26.6514" height="1.47471" transform="rotate(-2.84448 21 66.1973)" fill="#263238"/>
<path d="M21.8174 47L45.8288 50.6539" stroke="#263238" stroke-width="2" stroke-linecap="round" stroke-linejoin="round"/>
<ellipse rx="7.73695" ry="8.52058" transform="matrix(-0.998768 -0.0496252 -0.0496252 0.998768 84.1505 58.0851)" fill="#263238"/>
<rect width="26.6514" height="1.47471" transform="matrix(-0.998768 -0.0496252 -0.0496252 0.998768 103.38 66.1973)" fill="#263238"/>
<path d="M102.562 47L78.5511 50.6539" stroke="#263238" stroke-width="2" stroke-linecap="round" stroke-linejoin="round"/>
<path d="M58 60H67.6L59.6 62L67.2 63L58 65H68" stroke="#263238" stroke-linecap="round" stroke-linejoin="round"/>
<path d="M34 40L45.4837 45.2199C50.7036 47.3078 50.522 46.088 50 44" stroke="#263238" stroke-width="2" stroke-linecap="round" stroke-linejoin="round"/>
<path d="M90.8633 40L79.3796 45.2199C74.1597 47.3078 74.978 46.088 75.5 44" stroke="#263238" stroke-width="2" stroke-linecap="round" stroke-linejoin="round"/>
<path d="M104.672 75.255C104.578 77.3225 100.986 78.5309 96.3884 78.0047C91.7907 77.4785 88.6746 75.9036 88.7246 74.0892C88.7746 72.2747 92.4102 70.8133 96.7549 71.2962C101.1 71.7792 104.722 73.4406 104.672 75.255Z" fill="#CADE9C"/>
<path d="M41.351 75.1672C41.7637 77.1952 38.1981 78.9931 33.491 79.3337C28.784 79.6743 24.8832 78.3887 24.7143 76.441C24.3015 74.413 27.8672 72.6151 32.5742 72.2745C37.2813 71.9339 40.9382 73.1392 41.351 75.1672Z" fill="#CADE9C"/>
<path d="M65.7749 88.7406C64.9892 88.9278 64.4654 89.0527 63.6157 88.9711C58.3834 89.0817 54.8677 85.9427 54.8037 85.6739C54.1518 85.2611 54.1575 84.1236 54.6172 83.73C55.0129 83.0676 56.1246 83.0867 56.5146 83.5619C56.8405 83.7683 63.8719 90.0463 71.5011 81.411C71.8968 80.7486 73.0084 80.7678 73.3984 81.243C74.0503 81.6557 74.0446 82.7933 73.5849 83.1869C71.0186 86.3549 68.3939 88.1165 65.7749 88.7406Z" fill="#263238"/>
</svg>
