<svg width="126" height="126" viewBox="0 0 126 126" fill="none" xmlns="http://www.w3.org/2000/svg">
<path d="M9.95142 39.5737C7.7409 42.266 6.083 47.6506 6.083 51.1506L6.08301 74.0352C6.08301 77.5352 7.7409 82.6506 9.95143 85.6122L23.7672 103.92C25.9777 106.612 30.3988 109.843 33.7146 110.92L56.0962 117.92C59.4119 118.997 64.9383 118.997 68.5304 117.92L90.9119 110.92C93.9514 109.843 98.3725 106.612 100.583 103.92L114.399 85.3429C116.609 82.6506 118.267 77.266 118.267 73.766L118.267 50.8814C118.267 47.3814 116.609 42.266 114.399 39.3045L100.583 20.7275C98.3725 18.0352 93.9514 14.8045 90.6356 13.7275L68.254 6.99678C64.9383 5.91985 59.4119 5.91985 55.8198 6.99678L33.4383 13.9968C30.1225 15.0737 25.4251 18.3045 23.4909 20.9968L9.95142 39.5737Z" fill="white"/>
<path d="M9.95142 39.5737C7.7409 42.266 6.083 47.6506 6.083 51.1506L6.08301 74.0352C6.08301 77.5352 7.7409 82.6506 9.95143 85.6122L23.7672 103.92C25.9777 106.612 30.3988 109.843 33.7146 110.92L56.0962 117.92C59.4119 118.997 64.9383 118.997 68.5304 117.92L90.9119 110.92C93.9514 109.843 98.3725 106.612 100.583 103.92L114.399 85.3429C116.609 82.6506 118.267 77.266 118.267 73.766L118.267 50.8814C118.267 47.3814 116.609 42.266 114.399 39.3045L100.583 20.7275C98.3725 18.0352 93.9514 14.8045 90.6356 13.7275L68.254 6.99678C64.9383 5.91985 59.4119 5.91985 55.8198 6.99678L33.4383 13.9968C30.1225 15.0737 25.4251 18.3045 23.4909 20.9968L9.95142 39.5737Z" stroke="#00783B" stroke-width="6.26864" stroke-miterlimit="10"/>
<path d="M9.95142 39.5737C7.7409 42.266 6.083 47.6506 6.083 51.1506L6.08301 74.0352C6.08301 77.5352 7.7409 82.6506 9.95143 85.6122L23.7672 103.92C25.9777 106.612 30.3988 109.843 33.7146 110.92L56.0962 117.92C59.4119 118.997 64.9383 118.997 68.5304 117.92L90.9119 110.92C93.9514 109.843 98.3725 106.612 100.583 103.92L114.399 85.3429C116.609 82.6506 118.267 77.266 118.267 73.766L118.267 50.8814C118.267 47.3814 116.609 42.266 114.399 39.3045L100.583 20.7275C98.3725 18.0352 93.9514 14.8045 90.6356 13.7275L68.254 6.99678C64.9383 5.91985 59.4119 5.91985 55.8198 6.99678L33.4383 13.9968C30.1225 15.0737 25.4251 18.3045 23.4909 20.9968L9.95142 39.5737Z" stroke="#00783B" stroke-width="6.26864" stroke-miterlimit="10"/>
<path d="M74.1737 90.1565L55.291 91.9013L59.2763 63.8327L65.0988 63.2947L74.1737 90.1565Z" fill="#263238"/>
<path d="M59.4385 67.6606L59.8207 64.2202L64.7902 63.8379L65.5547 66.896L59.4385 67.6606Z" fill="#CADE9C"/>
<path d="M72.0542 86.3911L73.201 89.4492L55.999 90.9783L56.3813 87.9202L72.0542 86.3911Z" fill="#CADE9C"/>
<path d="M41.2716 71.6841C41.9806 73.6284 38.7212 75.9354 34.1168 76.9706C29.5124 78.0059 25.464 77.3132 25.008 75.4122C24.2989 73.4679 27.5584 71.1608 32.1628 70.1256C36.7672 69.0904 40.5625 69.7398 41.2716 71.6841Z" fill="#CADE9C"/>
<path d="M104.673 67.9465C104.579 70.0139 100.987 71.2223 96.3894 70.6961C91.7917 70.1699 88.6756 68.595 88.7256 66.7806C88.7756 64.9661 92.4112 63.5047 96.7559 63.9876C101.101 64.4706 104.723 66.132 104.673 67.9465Z" fill="#CADE9C"/>
<path d="M72.7181 48.2147L95.1317 33.3014L102.32 36.3135L72.7181 48.2147Z" fill="#263238"/>
<path d="M49.1478 50.392L24.2765 40.0867L17.8049 44.4301L49.1478 50.392Z" fill="#263238"/>
<ellipse cx="40.0996" cy="55.5168" rx="5.27876" ry="7.39026" transform="rotate(-5.56607 40.0996 55.5168)" fill="#263238"/>
<ellipse cx="81.5332" cy="51.5983" rx="5.27876" ry="7.39026" transform="rotate(-5.56607 81.5332 51.5983)" fill="#263238"/>
<rect x="22.8516" y="63.562" width="25.338" height="1.27908" transform="rotate(-5.56607 22.8516 63.562)" fill="#263238"/>
<rect x="75.8428" y="58.5186" width="25.338" height="1.27908" transform="rotate(-5.56607 75.8428 58.5186)" fill="#263238"/>
</svg>
