<svg width="126" height="126" viewBox="0 0 126 126" fill="none" xmlns="http://www.w3.org/2000/svg">
<path d="M9.9524 39.5727C7.74188 42.265 6.08398 47.6496 6.08398 51.1496L6.08398 74.0343C6.08398 77.5343 7.74188 82.6496 9.9524 85.6112L23.7682 103.919C25.9787 106.611 30.3998 109.842 33.7156 110.919L56.0971 117.919C59.4129 118.996 64.9392 118.996 68.5313 117.919L90.9129 110.919C93.9524 109.842 98.3734 106.611 100.584 103.919L114.4 85.3419C116.61 82.6496 118.268 77.265 118.268 73.765L118.268 50.8804C118.268 47.3804 116.61 42.265 114.4 39.3035L100.584 20.7266C98.3734 18.0343 93.9524 14.8035 90.6366 13.7266L68.255 6.9958C64.9392 5.91888 59.4129 5.91888 55.8208 6.9958L33.4392 13.9958C30.1234 15.0727 25.4261 18.3035 23.4919 20.9958L9.9524 39.5727Z" fill="white"/>
<path d="M9.9524 39.5727C7.74188 42.265 6.08398 47.6496 6.08398 51.1496L6.08398 74.0343C6.08398 77.5343 7.74188 82.6496 9.9524 85.6112L23.7682 103.919C25.9787 106.611 30.3998 109.842 33.7156 110.919L56.0971 117.919C59.4129 118.996 64.9392 118.996 68.5313 117.919L90.9129 110.919C93.9524 109.842 98.3734 106.611 100.584 103.919L114.4 85.3419C116.61 82.6496 118.268 77.265 118.268 73.765L118.268 50.8804C118.268 47.3804 116.61 42.265 114.4 39.3035L100.584 20.7266C98.3734 18.0343 93.9524 14.8035 90.6366 13.7266L68.255 6.9958C64.9392 5.91888 59.4129 5.91888 55.8208 6.9958L33.4392 13.9958C30.1234 15.0727 25.4261 18.3035 23.4919 20.9958L9.9524 39.5727Z" stroke="#00783B" stroke-width="6.26864" stroke-miterlimit="10"/>
<path d="M9.9524 39.5727C7.74188 42.265 6.08398 47.6496 6.08398 51.1496L6.08398 74.0343C6.08398 77.5343 7.74188 82.6496 9.9524 85.6112L23.7682 103.919C25.9787 106.611 30.3998 109.842 33.7156 110.919L56.0971 117.919C59.4129 118.996 64.9392 118.996 68.5313 117.919L90.9129 110.919C93.9524 109.842 98.3734 106.611 100.584 103.919L114.4 85.3419C116.61 82.6496 118.268 77.265 118.268 73.765L118.268 50.8804C118.268 47.3804 116.61 42.265 114.4 39.3035L100.584 20.7266C98.3734 18.0343 93.9524 14.8035 90.6366 13.7266L68.255 6.9958C64.9392 5.91888 59.4129 5.91888 55.8208 6.9958L33.4392 13.9958C30.1234 15.0727 25.4261 18.3035 23.4919 20.9958L9.9524 39.5727Z" stroke="#00783B" stroke-width="6.26864" stroke-miterlimit="10"/>
<ellipse cx="40.0054" cy="58.0974" rx="7.9615" ry="8.52058" transform="rotate(-2.84448 40.0054 58.0974)" fill="#263238"/>
<rect x="21" y="66.1973" width="26.6514" height="1.47471" transform="rotate(-2.84448 21 66.1973)" fill="#263238"/>
<path d="M22.7539 48.4717L46.8903 51.1796" stroke="#263238" stroke-width="2" stroke-linecap="round" stroke-linejoin="round"/>
<path d="M77.0732 51.1562L101.215 48.4966" stroke="#263238" stroke-width="2" stroke-linecap="round" stroke-linejoin="round"/>
<ellipse rx="7.73695" ry="8.52058" transform="matrix(-0.998768 -0.0496252 -0.0496252 0.998768 84.1505 58.0851)" fill="#263238"/>
<rect width="26.6514" height="1.47471" transform="matrix(-0.998768 -0.0496252 -0.0496252 0.998768 103.38 66.1973)" fill="#263238"/>
<path d="M104.672 75.255C104.578 77.3225 100.986 78.5309 96.3884 78.0047C91.7907 77.4785 88.6746 75.9036 88.7246 74.0892C88.7746 72.2747 92.4102 70.8133 96.7549 71.2962C101.1 71.7792 104.722 73.4406 104.672 75.255Z" fill="#CADE9C"/>
<path d="M41.351 75.1672C41.7637 77.1952 38.1981 78.9931 33.491 79.3337C28.784 79.6743 24.8832 78.3887 24.7143 76.441C24.3015 74.413 27.8672 72.6151 32.5742 72.2745C37.2813 71.9339 40.9382 73.1392 41.351 75.1672Z" fill="#CADE9C"/>
<path d="M29 41H47" stroke="#263238" stroke-width="2" stroke-linecap="round" stroke-linejoin="round"/>
<path d="M76 41H94" stroke="#263238" stroke-width="2" stroke-linecap="round" stroke-linejoin="round"/>
<path d="M63.7685 99.6732C62.968 99.7808 62.4343 99.8526 61.597 99.6864C56.38 99.2729 53.196 95.7979 53.1592 95.524C52.5519 95.0481 52.6714 93.9168 53.1682 93.5712C53.6282 92.9517 54.7323 93.082 55.0728 93.5938C55.3765 93.8318 61.7443 100.782 70.1994 92.9534C70.6593 92.3339 71.7635 92.4642 72.104 92.976C72.7113 93.4519 72.5918 94.5832 72.095 94.9288C69.2245 97.8241 66.4368 99.3143 63.7685 99.6732Z" fill="#37572C"/>
</svg>
