<svg width="126" height="126" viewBox="0 0 126 126" fill="none" xmlns="http://www.w3.org/2000/svg">
<path d="M9.98463 39.5005C7.7741 42.1928 6.11621 47.5774 6.11621 51.0774L6.11621 73.962C6.11621 77.462 7.7741 82.5774 9.98463 85.5389L23.8004 103.847C26.0109 106.539 30.432 109.77 33.7478 110.847L56.1294 117.847C59.4452 118.924 64.9715 118.924 68.5636 117.847L90.9452 110.847C93.9846 109.77 98.4057 106.539 100.616 103.847L114.432 85.2697C116.643 82.5774 118.3 77.1928 118.3 73.6928L118.3 50.8081C118.3 47.3081 116.643 42.1928 114.432 39.2312L100.616 20.6543C98.4057 17.962 93.9846 14.7312 90.6688 13.6543L68.2873 6.92354C64.9715 5.84662 59.4451 5.84662 55.853 6.92354L33.4715 13.9235C30.1557 15.0005 25.4583 18.2312 23.5241 20.9235L9.98463 39.5005Z" fill="white"/>
<path d="M9.98463 39.5005C7.7741 42.1928 6.11621 47.5774 6.11621 51.0774L6.11621 73.962C6.11621 77.462 7.7741 82.5774 9.98463 85.5389L23.8004 103.847C26.0109 106.539 30.432 109.77 33.7478 110.847L56.1294 117.847C59.4452 118.924 64.9715 118.924 68.5636 117.847L90.9452 110.847C93.9846 109.77 98.4057 106.539 100.616 103.847L114.432 85.2697C116.643 82.5774 118.3 77.1928 118.3 73.6928L118.3 50.8081C118.3 47.3081 116.643 42.1928 114.432 39.2312L100.616 20.6543C98.4057 17.962 93.9846 14.7312 90.6688 13.6543L68.2873 6.92354C64.9715 5.84662 59.4451 5.84662 55.853 6.92354L33.4715 13.9235C30.1557 15.0005 25.4583 18.2312 23.5241 20.9235L9.98463 39.5005Z" stroke="#00783B" stroke-width="6.26864" stroke-miterlimit="10"/>
<path d="M9.98463 39.5005C7.7741 42.1928 6.11621 47.5774 6.11621 51.0774L6.11621 73.962C6.11621 77.462 7.7741 82.5774 9.98463 85.5389L23.8004 103.847C26.0109 106.539 30.432 109.77 33.7478 110.847L56.1294 117.847C59.4452 118.924 64.9715 118.924 68.5636 117.847L90.9452 110.847C93.9846 109.77 98.4057 106.539 100.616 103.847L114.432 85.2697C116.643 82.5774 118.3 77.1928 118.3 73.6928L118.3 50.8081C118.3 47.3081 116.643 42.1928 114.432 39.2312L100.616 20.6543C98.4057 17.962 93.9846 14.7312 90.6688 13.6543L68.2873 6.92354C64.9715 5.84662 59.4451 5.84662 55.853 6.92354L33.4715 13.9235C30.1557 15.0005 25.4583 18.2312 23.5241 20.9235L9.98463 39.5005Z" stroke="#00783B" stroke-width="6.26864" stroke-miterlimit="10"/>
<path d="M67.8106 94.0288C62.8186 95.2878 59.7228 92.3246 58.799 90.6856C57.3505 86.9665 61.8564 88.6384 64.3774 88.5132C66.8985 88.3879 66.7419 85.2364 69.1064 81.9598C71.4709 78.6832 76.0393 81.6154 76.1332 83.5062C76.2272 85.397 74.0506 92.4551 67.8106 94.0288Z" fill="#263238"/>
<path d="M39.1869 72.3449C39.7927 74.3238 36.4165 76.4563 31.764 77.248C27.1116 78.0397 23.1052 77.1352 22.7498 75.2128C22.1439 73.2339 25.5202 71.1014 30.1726 70.3097C34.8251 69.518 38.581 70.366 39.1869 72.3449Z" fill="#CADE9C"/>
<path d="M102.697 71.9461C102.495 74.0058 98.8438 75.0237 94.2802 74.2565C89.7165 73.4893 86.6875 71.7528 86.8328 69.9435C86.9782 68.1342 90.6856 66.8659 94.9988 67.5766C99.3121 68.2872 102.842 70.1368 102.697 71.9461Z" fill="#CADE9C"/>
<ellipse cx="40.3967" cy="54.9006" rx="7.9615" ry="8.52058" transform="rotate(-5.44122 40.3967 54.9006)" fill="#263238"/>
<ellipse rx="7.73695" ry="8.52058" transform="matrix(-0.999991 -0.00432396 -0.00432396 0.999991 84.4968 52.8889)" fill="#263238"/>
<path d="M28.061 42.297C27.7997 41.0324 27.7932 39.7284 28.0418 38.4613C28.2904 37.1941 28.7891 35.9892 29.5087 34.9171C30.2457 33.7669 31.2345 32.7994 32.4005 32.0877C33.5983 31.3662 34.9517 30.9425 36.3471 30.852C37.7402 30.7799 39.1307 31.0377 40.4054 31.6042C41.6458 32.1765 42.7431 33.0178 43.6178 34.067C44.4568 35.0479 45.092 36.1863 45.4861 37.4155C45.8803 38.6447 46.0255 39.9401 45.9133 41.2261C45.2681 38.9672 44.0155 36.9286 42.292 35.3321C41.5147 34.6049 40.5995 34.0409 39.6006 33.6733C38.6017 33.3058 37.5392 33.1421 36.476 33.1921C35.4147 33.2654 34.3793 33.5534 33.4327 34.0387C32.486 34.524 31.6477 35.1965 30.9686 36.0153C29.439 37.8013 28.4328 39.9752 28.061 42.297V42.297Z" fill="#263238"/>
<path d="M76.4697 40.1933C76.2071 38.9299 76.1989 37.6268 76.4454 36.3601C76.692 35.0935 77.1884 33.8886 77.9057 32.816C78.6453 31.6679 79.6336 30.7009 80.7975 29.9866C81.9926 29.2575 83.348 28.832 84.7454 28.7473C86.1428 28.6626 87.5397 28.9212 88.8142 29.5005C90.0545 30.0728 91.1518 30.914 92.0265 31.9632C92.8678 32.9428 93.5044 34.0809 93.8987 35.3105C94.293 36.5401 94.4369 37.8363 94.322 39.1224C93.6745 36.8645 92.4223 34.8264 90.7007 33.2284C89.9332 32.4881 89.0204 31.9151 88.02 31.5459C87.0196 31.1767 85.9534 31.0192 84.889 31.0834C83.8246 31.1476 82.7851 31.4322 81.8363 31.919C80.8876 32.4058 80.0502 33.0844 79.3773 33.9116C77.843 35.6945 76.836 37.8698 76.4697 40.1933V40.1933Z" fill="#263238"/>
</svg>
