<svg width="126" height="126" viewBox="0 0 126 126" fill="none" xmlns="http://www.w3.org/2000/svg">
<path d="M85.8872 10.7771C83.1949 8.56659 77.8103 6.90869 74.3103 6.90869L51.4257 6.90869C47.9257 6.90869 42.8103 8.56659 39.8488 10.7771L21.5411 24.5929C18.8488 26.8034 15.618 31.2245 14.5411 34.5403L7.54109 56.9218C6.46417 60.2376 6.46417 65.764 7.54109 69.3561L14.5411 91.7376C15.618 94.7771 18.8488 99.1982 21.5411 101.409L40.118 115.224C42.8103 117.435 48.1949 119.093 51.6949 119.093H74.5796C78.0796 119.093 83.1949 117.435 86.1565 115.224L104.733 101.409C107.426 99.1982 110.656 94.7771 111.733 91.4613L118.464 69.0797C119.541 65.7639 119.541 60.2376 118.464 56.6455L111.464 34.264C110.387 30.9482 107.156 26.2508 104.464 24.3166L85.8872 10.7771Z" fill="white"/>
<path d="M85.8872 10.7771C83.1949 8.56659 77.8103 6.90869 74.3103 6.90869L51.4257 6.90869C47.9257 6.90869 42.8103 8.56659 39.8488 10.7771L21.5411 24.5929C18.8488 26.8034 15.618 31.2245 14.5411 34.5403L7.54109 56.9218C6.46417 60.2376 6.46417 65.7639 7.54109 69.3561L14.5411 91.7376C15.618 94.7771 18.8488 99.1982 21.5411 101.409L40.118 115.224C42.8103 117.435 48.1949 119.093 51.6949 119.093H74.5796C78.0796 119.093 83.1949 117.435 86.1565 115.224L104.733 101.409C107.426 99.1982 110.656 94.7771 111.733 91.4613L118.464 69.0797C119.541 65.7639 119.541 60.2376 118.464 56.6455L111.464 34.264C110.387 30.9482 107.156 26.2508 104.464 24.3166L85.8872 10.7771Z" stroke="#00783B" stroke-width="6.80533" stroke-miterlimit="10"/>
<path d="M39.3093 69.3517C43.324 69.3517 46.5785 66.0115 46.5785 61.8912C46.5785 57.7709 43.324 54.4307 39.3093 54.4307C35.2946 54.4307 32.04 57.7709 32.04 61.8912C32.04 66.0115 35.2946 69.3517 39.3093 69.3517Z" fill="#294020"/>
<path d="M88.0427 67.1417C92.0573 67.1417 95.3119 63.8016 95.3119 59.6812C95.3119 55.5609 92.0573 52.2207 88.0427 52.2207C84.028 52.2207 80.7734 55.5609 80.7734 59.6812C80.7734 63.8016 84.028 67.1417 88.0427 67.1417Z" fill="#294020"/>
<path d="M39.0395 80.5109C39.3512 79.0187 36.6572 77.1608 33.0225 76.3612C29.3877 75.5615 26.1885 76.1229 25.8768 77.6151C25.5651 79.1072 28.2591 80.9651 31.8938 81.7648C35.5286 82.5644 38.7278 82.003 39.0395 80.5109Z" fill="#CADE9C"/>
<path d="M96.8441 77.2787C100.424 76.2517 103.002 74.2276 102.602 72.7579C102.201 71.2882 98.9747 70.9293 95.3945 71.9563C91.8144 72.9833 89.2366 75.0074 89.6369 76.4771C90.0372 77.9469 93.2639 78.3057 96.8441 77.2787Z" fill="#CADE9C"/>
<path d="M48.7627 80.2881C49.5615 82.0366 52.0095 85.4608 55.4108 85.1692C59.6625 84.8048 61.6503 80.7408 66.6751 80.3101C71.6998 79.8794 74.3502 83.5458 78.6019 83.1813C82.8536 82.8169 83.6819 78.8523 83.6156 78.0793" stroke="#37572C" stroke-width="3.10349" stroke-linecap="round"/>
</svg>
