<svg width="126" height="126" viewBox="0 0 126 126" fill="none" xmlns="http://www.w3.org/2000/svg">
<path d="M9.9524 39.5722C7.74188 42.2645 6.08398 47.6492 6.08398 51.1492L6.08398 74.0338C6.08398 77.5338 7.74188 82.6492 9.9524 85.6107L23.7682 103.918C25.9787 106.611 30.3998 109.841 33.7156 110.918L56.0971 117.918C59.4129 118.995 64.9392 118.995 68.5313 117.918L90.9129 110.918C93.9524 109.841 98.3734 106.611 100.584 103.918L114.4 85.3415C116.61 82.6491 118.268 77.2645 118.268 73.7645L118.268 50.8799C118.268 47.3799 116.61 42.2645 114.4 39.303L100.584 20.7261C98.3734 18.0338 93.9524 14.803 90.6366 13.7261L68.255 6.99531C64.9392 5.91839 59.4129 5.91839 55.8208 6.99531L33.4392 13.9953C30.1234 15.0722 25.4261 18.303 23.4919 20.9953L9.9524 39.5722Z" fill="white"/>
<path d="M9.9524 39.5722C7.74188 42.2645 6.08398 47.6492 6.08398 51.1492L6.08398 74.0338C6.08398 77.5338 7.74188 82.6492 9.9524 85.6107L23.7682 103.918C25.9787 106.611 30.3998 109.841 33.7156 110.918L56.0971 117.918C59.4129 118.995 64.9392 118.995 68.5313 117.918L90.9129 110.918C93.9524 109.841 98.3734 106.611 100.584 103.918L114.4 85.3415C116.61 82.6492 118.268 77.2645 118.268 73.7645L118.268 50.8799C118.268 47.3799 116.61 42.2645 114.4 39.303L100.584 20.7261C98.3734 18.0338 93.9524 14.803 90.6366 13.7261L68.255 6.99531C64.9392 5.91839 59.4129 5.91839 55.8208 6.99531L33.4392 13.9953C30.1234 15.0722 25.4261 18.303 23.4919 20.9953L9.9524 39.5722Z" stroke="#00783B" stroke-width="6.26864" stroke-miterlimit="10"/>
<path d="M9.9524 39.5722C7.74188 42.2645 6.08398 47.6492 6.08398 51.1492L6.08398 74.0338C6.08398 77.5338 7.74188 82.6492 9.9524 85.6107L23.7682 103.918C25.9787 106.611 30.3998 109.841 33.7156 110.918L56.0971 117.918C59.4129 118.995 64.9392 118.995 68.5313 117.918L90.9129 110.918C93.9524 109.841 98.3734 106.611 100.584 103.918L114.4 85.3415C116.61 82.6492 118.268 77.2645 118.268 73.7645L118.268 50.8799C118.268 47.3799 116.61 42.2645 114.4 39.303L100.584 20.7261C98.3734 18.0338 93.9524 14.803 90.6366 13.7261L68.255 6.99531C64.9392 5.91839 59.4129 5.91839 55.8208 6.99531L33.4392 13.9953C30.1234 15.0722 25.4261 18.303 23.4919 20.9953L9.9524 39.5722Z" stroke="#00783B" stroke-width="6.26864" stroke-miterlimit="10"/>
<path d="M41.2592 74.1672C41.6719 76.1952 38.1063 77.9931 33.3992 78.3337C28.6922 78.6743 24.7914 77.3887 24.6225 75.441C24.2097 73.413 27.7754 71.6151 32.4824 71.2745C37.1895 70.9339 40.8464 72.1392 41.2592 74.1672Z" fill="#CADE9C"/>
<path d="M102.58 73.4699C102.487 75.5374 98.8943 76.7457 94.2966 76.2195C89.6989 75.6933 86.5828 74.1184 86.6328 72.304C86.6828 70.4896 90.3184 69.0282 94.6631 69.5111C99.0077 69.994 102.63 71.6555 102.58 73.4699Z" fill="#CADE9C"/>
<rect x="74.7451" y="40.0289" width="31" height="24" rx="4" transform="rotate(1.7085 74.7451 40.0289)" stroke="black" stroke-width="2"/>
<rect x="20.1309" y="42.2163" width="31" height="24" rx="4" transform="rotate(-4.37253 20.1309 42.2163)" stroke="black" stroke-width="2"/>
<path d="M52 51.9995H74" stroke="#263238" stroke-width="2" stroke-linecap="round" stroke-linejoin="round"/>
<path d="M76.2 48.7684L97.1686 37.1058L103.342 40.2908L76.2 48.7684Z" fill="#263238"/>
<path d="M49.4812 49.2889L28.1146 38.3727L22.0575 41.7732L49.4812 49.2889Z" fill="#263238"/>
<ellipse cx="41.0808" cy="53.2023" rx="4.70465" ry="6.58652" transform="rotate(-1.00995 41.0808 53.2023)" fill="#263238"/>
<ellipse cx="83.7927" cy="52.3986" rx="4.70465" ry="6.58652" transform="rotate(-1.00995 83.7927 52.3986)" fill="#263238"/>
<rect x="25.1865" y="59.1284" width="22.5823" height="1.13997" transform="rotate(-1.00995 25.1865 59.1284)" fill="#263238"/>
<rect x="78.2471" y="58.144" width="22.5823" height="1.13997" transform="rotate(-1.00995 78.2471 58.144)" fill="#263238"/>
<path d="M67.7448 87.2383C67.0418 87.6361 66.5732 87.9012 65.7341 88.0585C60.7377 89.6157 56.4895 87.5747 56.3534 87.3342C55.6126 87.1184 55.3026 86.0239 55.6352 85.5182C55.8317 84.7721 56.905 84.4822 57.4115 84.8306C57.7819 84.9385 66.2784 89.0205 71.2138 78.6083C71.4103 77.8621 72.4837 77.5723 72.9902 77.9206C73.731 78.1364 74.0409 79.231 73.7084 79.7366C72.1212 83.4921 70.088 85.9124 67.7448 87.2383Z" fill="#263238"/>
</svg>
