<svg width="766" height="269" viewBox="0 0 766 269" fill="none" xmlns="http://www.w3.org/2000/svg">
<mask id="path-1-inside-1_224_397" fill="white">
<path fill-rule="evenodd" clip-rule="evenodd" d="M480 97C480 43.4284 436.572 0 383 0C329.428 0 286 43.4284 286 97H0V269H766V97H480Z"/>
</mask>
<path fill-rule="evenodd" clip-rule="evenodd" d="M480 97C480 43.4284 436.572 0 383 0C329.428 0 286 43.4284 286 97H0V269H766V97H480Z" fill="#FFF500"/>
<path d="M480 97H479V98H480V97ZM286 97V98H287V97H286ZM0 97V96H-1V97H0ZM0 269H-1V270H0V269ZM766 269V270H767V269H766ZM766 97H767V96H766V97ZM383 1C436.019 1 479 43.9807 479 97H481C481 42.8761 437.124 -1 383 -1V1ZM287 97C287 43.9807 329.981 1 383 1V-1C328.876 -1 285 42.8761 285 97H287ZM0 98H286V96H0V98ZM1 269V97H-1V269H1ZM766 268H0V270H766V268ZM765 97V269H767V97H765ZM480 98H766V96H480V98Z" fill="black" mask="url(#path-1-inside-1_224_397)"/>
<rect x="50" y="142" width="155" height="12" fill="#DC0000"/>
<rect x="50" y="177" width="155" height="12" fill="#DC0000"/>
<rect x="50" y="212" width="155" height="12" fill="#DC0000"/>
<rect x="561" y="142" width="155" height="12" fill="#DC0000"/>
<rect x="561" y="177" width="155" height="12" fill="#DC0000"/>
<rect x="561" y="212" width="155" height="12" fill="#DC0000"/>
<g clip-path="url(#clip0_224_397)">
<path d="M336.687 50.5488C334.757 52.8992 333.31 57.6001 333.31 60.6556L333.31 80.6343C333.31 83.6898 334.757 88.1556 336.687 90.7411L348.749 106.724C350.678 109.074 354.538 111.895 357.433 112.835L376.972 118.946C379.867 119.886 384.692 119.886 387.828 118.946L407.367 112.835C410.021 111.895 413.88 109.074 415.81 106.724L427.871 90.5061C429.801 88.1556 431.249 83.4548 431.249 80.3992L431.249 60.4206C431.249 57.365 429.801 52.8992 427.871 50.3138L415.81 34.0958C413.88 31.7454 410.021 28.9249 407.126 27.9847L387.586 22.1086C384.692 21.1685 379.867 21.1685 376.731 22.1086L357.192 28.2197C354.297 29.1599 350.196 31.9804 348.507 34.3309L336.687 50.5488Z" fill="white"/>
<path d="M336.687 50.5488C334.757 52.8992 333.31 57.6001 333.31 60.6556L333.31 80.6343C333.31 83.6898 334.757 88.1556 336.687 90.7411L348.749 106.724C350.678 109.074 354.538 111.895 357.433 112.835L376.972 118.946C379.867 119.886 384.692 119.886 387.828 118.946L407.367 112.835C410.021 111.895 413.88 109.074 415.81 106.724L427.871 90.5061C429.801 88.1556 431.249 83.4548 431.249 80.3992L431.249 60.4206C431.249 57.365 429.801 52.8992 427.871 50.3138L415.81 34.0958C413.88 31.7454 410.021 28.9249 407.126 27.9847L387.586 22.1086C384.692 21.1685 379.867 21.1685 376.731 22.1086L357.192 28.2197C354.297 29.1599 350.196 31.9804 348.507 34.3309L336.687 50.5488Z" stroke="#00783B" stroke-width="5.66201" stroke-miterlimit="10"/>
<path d="M336.687 50.5488C334.757 52.8992 333.31 57.6001 333.31 60.6556L333.31 80.6343C333.31 83.6898 334.757 88.1556 336.687 90.7411L348.749 106.724C350.678 109.074 354.538 111.895 357.433 112.835L376.972 118.946C379.867 119.886 384.692 119.886 387.828 118.946L407.367 112.835C410.021 111.895 413.88 109.074 415.81 106.724L427.871 90.5061C429.801 88.1556 431.249 83.4548 431.249 80.3992L431.249 60.4206C431.249 57.365 429.801 52.8992 427.871 50.3138L415.81 34.0958C413.88 31.7454 410.021 28.9249 407.126 27.9847L387.586 22.1086C384.692 21.1685 379.867 21.1685 376.731 22.1086L357.192 28.2197C354.297 29.1599 350.196 31.9804 348.507 34.3309L336.687 50.5488Z" stroke="#00783B" stroke-width="5.66201" stroke-miterlimit="10"/>
<path d="M386.035 92.2453C385.336 92.3359 384.87 92.3964 384.14 92.2479C379.587 91.8653 376.822 88.8184 376.79 88.5792C376.262 88.1612 376.371 87.1741 376.806 86.8744C377.211 86.3355 378.174 86.4538 378.469 86.902C378.733 87.111 384.264 93.2048 391.677 86.4054C392.081 85.8665 393.045 85.9848 393.34 86.433C393.868 86.851 393.759 87.8382 393.324 88.1378C390.806 90.6536 388.366 91.943 386.035 92.2453Z" fill="#37572C"/>
<path d="M361.663 77.2621C362.391 78.9155 359.683 81.11 355.731 82.273C351.778 83.4361 348.212 83.0624 347.707 81.4324C346.979 79.779 349.688 77.5845 353.64 76.4215C357.592 75.2585 360.935 75.6087 361.663 77.2621Z" fill="#CADE9C"/>
<path d="M345.938 59.614C350.336 58.4984 354.887 58.0745 359.344 58.5419C361.573 58.7756 363.778 59.2321 365.983 59.6887C368.189 60.1452 370.347 61.0473 372.506 61.9494C373.596 62.2891 374.348 63.7194 373.785 64.7867C373.469 65.6546 372.507 66.2296 371.592 66.3589C369.786 66.3947 367.757 66.4072 365.927 66.6659C364.098 66.9245 362.268 67.1832 360.192 67.6413C356.486 68.6042 352.733 70.0128 349.18 71.6675C350.481 70.0019 351.982 68.5824 353.682 67.4092C355.383 66.2359 357.282 65.3088 359.182 64.3817C361.059 63.6774 363.158 62.9965 365.234 62.5384C367.31 62.0803 369.362 61.8451 371.614 61.8559L370.501 66.0192C368.566 65.1405 366.83 64.5079 364.871 63.8519C362.689 63.1726 360.73 62.5167 358.747 62.0835C356.765 61.6504 354.583 60.9711 352.355 60.7373C350.126 60.5036 348.144 60.0705 345.938 59.614Z" fill="#263238"/>
<path d="M408.162 52.8399C407.001 53.1687 405.816 53.7203 404.609 54.4946C403.647 55.0696 402.463 55.6212 401.701 56.4423C400.716 57.2401 399.953 58.0613 399.191 58.8824C398.429 59.7035 397.89 60.5481 397.105 61.592L394.664 59.0834C396.095 58.3324 397.725 57.8275 399.308 57.7683C400.915 57.4863 402.498 57.4271 404.035 57.8135C407.155 58.1407 409.935 59.5587 412.176 61.8211C410.862 61.4581 409.326 61.0716 408.012 60.7086C406.675 60.5683 405.338 60.4281 403.977 60.5107C402.617 60.5933 401.256 60.6758 400.095 61.0046C398.934 61.3334 397.55 61.6388 396.366 62.1904C395.428 62.5425 394.337 62.2028 393.961 61.4876C393.785 61.0186 393.855 60.3502 394.125 59.9279C394.711 58.6378 395.743 57.3943 396.751 56.3738C397.759 55.3532 398.721 54.7782 399.929 54.0038C401.113 53.4522 402.52 52.924 403.904 52.6186C405.488 52.5594 406.825 52.6997 408.162 52.8399Z" fill="#263238"/>
<path d="M416.683 70.4017C416.719 72.2078 413.658 73.4642 409.623 73.2668C405.588 73.0693 402.784 71.8744 402.725 70.2911C402.665 68.7078 405.749 67.2286 409.562 67.4027C413.374 67.5768 416.624 68.8184 416.683 70.4017Z" fill="#CADE9C"/>
</g>
<defs>
<clipPath id="clip0_224_397">
<rect width="110" height="110" fill="white" transform="translate(328 126) rotate(-90)"/>
</clipPath>
</defs>
</svg>
