<svg width="56" height="56" viewBox="0 0 56 56" fill="none" xmlns="http://www.w3.org/2000/svg">
<path d="M42.5598 9.60553H13.4475C9.73754 9.60553 6.72754 12.6233 6.72754 16.3489V32.3478C6.72754 36.0733 9.73754 39.0911 13.4475 39.0911H22.8664L26.9031 45.6555C26.9031 45.6555 26.942 45.7255 27.012 45.8111C27.2142 46.1533 27.5798 46.3866 28.0075 46.3866C28.4275 46.3866 28.7931 46.1533 28.9953 45.8189C29.0809 45.7178 29.112 45.6555 29.112 45.6555L33.1487 39.0911H42.5675C46.2775 39.0911 49.2875 36.0733 49.2875 32.3478V16.3489C49.2798 12.6233 46.2698 9.60553 42.5598 9.60553Z" fill="#00C402"/>
<path d="M16.1772 21.8944C16.1772 21.8944 15.0183 21.8944 13.9605 22.9211V18.7911H11.355V29.6489H13.9839V28.8011C13.9839 28.8011 14.6061 29.9211 16.1694 29.9211C16.1694 29.9211 19.8405 29.7889 19.8405 25.8689C19.8483 25.8611 19.7161 21.8944 16.1772 21.8944ZM15.6016 27.6189C14.5361 27.6189 13.6961 26.6233 13.9839 25.5033C14.1316 24.9355 14.5905 24.4766 15.1505 24.3289C16.2705 24.0333 17.2739 24.8733 17.2739 25.9466C17.2739 26.8722 16.5272 27.6189 15.6016 27.6189Z" fill="white"/>
<path d="M20.688 18.7988V21.311C20.688 21.311 21.878 21.2565 21.878 23.4732V29.8977H24.3902V22.8743C24.3824 22.8821 24.4913 18.7988 20.688 18.7988Z" fill="white"/>
<path d="M30.5282 21.9255C30.5282 21.9255 26.2271 21.9255 26.2271 25.9466C26.2271 25.9466 26.0871 29.9133 30.5282 29.9133C30.5282 29.9133 34.9304 29.9055 34.9304 25.9466C34.9304 25.9466 35.0704 21.9255 30.5282 21.9255ZM30.5282 27.6189C29.4626 27.6189 28.6226 26.6233 28.9104 25.5111C29.0504 24.9511 29.5093 24.4844 30.0693 24.3366C31.1893 24.0411 32.2004 24.8733 32.2004 25.9466C32.2004 26.8722 31.4537 27.6189 30.5282 27.6189Z" fill="white"/>
<path d="M42.1159 22.1899V22.921C42.1159 22.921 41.3692 21.9254 39.9303 21.9254C39.9303 21.9254 36.2437 21.7699 36.2437 25.9154C36.2437 25.9154 36.2048 29.781 39.8292 29.781C39.8292 29.781 41.307 29.8432 42.1159 28.7854V29.3921C42.1159 29.3921 42.2948 31.2977 40.4592 31.2977H39.8292V33.6077H40.8403C40.8403 33.6077 44.6514 33.6466 44.6514 29.5399V22.1899H42.1159V22.1899ZM40.5603 27.6188C39.4948 27.6188 38.6548 26.6154 38.9425 25.4954C39.0903 24.9354 39.5492 24.4688 40.1092 24.3288C41.2292 24.041 42.2326 24.8732 42.2326 25.9466C42.2326 26.8721 41.4859 27.6188 40.5603 27.6188Z" fill="white"/>
</svg>
