<svg width="24" height="24" viewBox="0 0 24 24" fill="none" xmlns="http://www.w3.org/2000/svg">
<path fill-rule="evenodd" clip-rule="evenodd" d="M21.5994 11.9994C21.5994 17.3013 17.3013 21.5994 11.9994 21.5994C6.69748 21.5994 2.39941 17.3013 2.39941 11.9994C2.39941 6.69748 6.69748 2.39941 11.9994 2.39941C17.3013 2.39941 21.5994 6.69748 21.5994 11.9994ZM13 6C13 5.44772 12.5523 5 12 5C11.4477 5 11 5.44772 11 6V12C11 12.5523 11.4477 13 12 13H16.2C16.7523 13 17.2 12.5523 17.2 12C17.2 11.4477 16.7523 11 16.2 11H13V6Z" fill="#D1D0DF"/>
</svg>
