<svg width="24" height="24" viewBox="0 0 24 24" fill="none" xmlns="http://www.w3.org/2000/svg">
<g clip-path="url(#clip0_108_1030)">
<mask id="path-1-inside-1_108_1030" fill="white">
<path d="M20 19.9821V17.6964C20 15.1707 18.21 13.125 16 13.125H8C5.79 13.125 4 15.1707 4 17.6964V19.9821"/>
</mask>
<path d="M20 19.9821V17.6964C20 15.1707 18.21 13.125 16 13.125H8C5.79 13.125 4 15.1707 4 17.6964V19.9821" fill="#D1D0DF"/>
<path d="M18.5 19.9821C18.5 20.8106 19.1716 21.4821 20 21.4821C20.8284 21.4821 21.5 20.8106 21.5 19.9821H18.5ZM2.5 19.9821C2.5 20.8106 3.17157 21.4821 4 21.4821C4.82843 21.4821 5.5 20.8106 5.5 19.9821H2.5ZM21.5 19.9821V17.6964H18.5V19.9821H21.5ZM21.5 17.6964C21.5 14.5367 19.2203 11.625 16 11.625V14.625C17.1997 14.625 18.5 15.8047 18.5 17.6964H21.5ZM16 11.625H8V14.625H16V11.625ZM8 11.625C4.77969 11.625 2.5 14.5367 2.5 17.6964H5.5C5.5 15.8047 6.80031 14.625 8 14.625V11.625ZM2.5 17.6964V19.9821H5.5V17.6964H2.5Z" fill="#D1D0DF" mask="url(#path-1-inside-1_108_1030)"/>
<path d="M11.9999 11.1252C13.8934 11.1252 15.4284 9.59019 15.4284 7.69664C15.4284 5.80309 13.8934 4.26807 11.9999 4.26807C10.1063 4.26807 8.57129 5.80309 8.57129 7.69664C8.57129 9.59019 10.1063 11.1252 11.9999 11.1252Z" fill="#D1D0DF" stroke="#D1D0DF" stroke-width="1.5" stroke-linecap="round" stroke-linejoin="round"/>
</g>
<defs>
<clipPath id="clip0_108_1030">
<rect width="24" height="24" fill="white"/>
</clipPath>
</defs>
</svg>
