<svg width="360" height="360" viewBox="0 0 360 360" fill="none" xmlns="http://www.w3.org/2000/svg">
<rect width="360" height="360" fill="#25A765"/>
<rect y="262" width="360" height="98" fill="white"/>
<g opacity="0.5">
<path opacity="0.5" d="M215.664 75.3288C229.654 75.3288 240.995 63.988 240.995 49.9984C240.995 36.0088 229.654 24.668 215.664 24.668C201.675 24.668 190.334 36.0088 190.334 49.9984C190.334 63.988 201.675 75.3288 215.664 75.3288Z" stroke="black" stroke-width="0.333333" stroke-miterlimit="10"/>
<path opacity="0.5" d="M215.665 72.7959C228.255 72.7959 238.462 62.5892 238.462 49.9986C238.462 37.4079 228.255 27.2012 215.665 27.2012C203.074 27.2012 192.867 37.4079 192.867 49.9986C192.867 62.5892 203.074 72.7959 215.665 72.7959Z" stroke="black" stroke-width="0.333333" stroke-miterlimit="10"/>
<path opacity="0.5" d="M206.793 55.6877L215.664 49.9985L206.135 34.4102" stroke="black" stroke-width="0.333333" stroke-miterlimit="10"/>
</g>
<g opacity="0.5">
<path opacity="0.5" d="M145.391 139.041H85.6113V235.636H145.391V139.041Z" stroke="black" stroke-width="0.333333" stroke-miterlimit="10"/>
<path opacity="0.5" d="M143.026 144.441H87.9727V177.878H143.026V144.441Z" stroke="black" stroke-width="0.333333" stroke-miterlimit="10"/>
<path opacity="0.5" d="M118.708 157.613H110.263V165.38H118.708V157.613Z" stroke="black" stroke-width="0.333333" stroke-miterlimit="10"/>
<path opacity="0.5" d="M143.026 182.945H87.9727V216.381H143.026V182.945Z" stroke="black" stroke-width="0.333333" stroke-miterlimit="10"/>
<path opacity="0.5" d="M118.708 196.115H110.263V203.882H118.708V196.115Z" stroke="black" stroke-width="0.333333" stroke-miterlimit="10"/>
<path opacity="0.5" d="M143.026 221.787H87.9727V235.298H143.026V221.787Z" stroke="black" stroke-width="0.333333" stroke-miterlimit="10"/>
</g>
<g opacity="0.5">
<path opacity="0.5" d="M104.089 128.08H88.6123L90.5475 139.018H102.154L104.089 128.08Z" stroke="black" stroke-width="0.333333" stroke-miterlimit="10"/>
<path opacity="0.5" d="M98.3179 111.493C98.3179 113.697 96.1395 116.053 96.1395 116.053C96.1395 116.053 92.7959 113.682 92.7959 111.493C92.7959 109.305 95.5569 106.336 95.5569 106.336C95.5569 106.336 98.3179 109.284 98.3179 111.493Z" stroke="black" stroke-width="0.333333" stroke-miterlimit="10"/>
<path opacity="0.5" d="M90.4403 117.628C91.8538 119.32 91.6967 122.537 91.6967 122.537C91.6967 122.537 87.6134 122.861 86.2 121.169C84.7866 119.477 85.0145 115.439 85.0145 115.439C85.0145 115.439 89.037 115.951 90.4403 117.628Z" stroke="black" stroke-width="0.333333" stroke-miterlimit="10"/>
<path opacity="0.5" d="M101.018 113.018C102.538 111.433 106.16 111.929 106.16 111.929C106.16 111.929 106.52 115.278 104.985 116.863C103.45 118.449 99.4121 118.642 99.4121 118.642C99.4121 118.642 99.483 114.589 101.018 113.018Z" stroke="black" stroke-width="0.333333" stroke-miterlimit="10"/>
<path opacity="0.5" d="M103.414 124.883C101.352 124.103 99.9082 121.225 99.9082 121.225C99.9082 121.225 103.313 118.941 105.375 119.706C107.436 120.47 109.215 124.113 109.215 124.113C109.215 124.113 105.476 125.668 103.414 124.883Z" stroke="black" stroke-width="0.333333" stroke-miterlimit="10"/>
<path opacity="0.5" d="M95.9932 127.907V110.764" stroke="black" stroke-width="0.333333" stroke-miterlimit="10"/>
<path opacity="0.5" d="M95.8467 121.95L104.418 114.543" stroke="black" stroke-width="0.333333" stroke-miterlimit="10"/>
<path opacity="0.5" d="M95.993 125.871L87.2793 119.047" stroke="black" stroke-width="0.333333" stroke-miterlimit="10"/>
<path opacity="0.5" d="M98.0244 120.354L104.707 122.968" stroke="black" stroke-width="0.333333" stroke-miterlimit="10"/>
</g>
<path opacity="0.5" d="M348.666 81.6504H232.485V159.232H348.666V81.6504Z" stroke="black" stroke-width="0.333333" stroke-miterlimit="10"/>
<path opacity="0.5" d="M347.111 82.6953H234.046V158.195H347.111V82.6953Z" stroke="black" stroke-width="0.333333" stroke-miterlimit="10"/>
<path opacity="0.3" d="M247.729 94.0019C247.729 94.0019 248.97 100.684 248.97 102.665V109.59C248.97 109.59 253.919 109.839 257.876 109.59C261.832 109.342 266.539 106.87 266.539 106.87C266.539 106.87 264.806 100.188 264.806 98.455C264.806 96.7224 263.793 92.5176 263.793 92.5176L247.729 94.0019Z" fill="white" stroke="black" stroke-width="0.333333" stroke-miterlimit="10"/>
<path opacity="0.3" d="M248.226 135.578C248.226 135.578 247.486 141.267 247.486 143.745C247.486 146.222 246.245 150.179 246.245 150.179C246.245 150.179 252.188 152.408 253.672 152.408C255.156 152.408 261.59 151.901 261.59 151.901L262.578 137.301C262.578 137.301 250.207 136.075 248.226 135.578Z" fill="white" stroke="black" stroke-width="0.333333" stroke-miterlimit="10"/>
<path opacity="0.3" d="M275.699 104.89L278.688 118.497C278.688 118.497 282.402 118.746 286.358 118.746C290.315 118.746 296.997 115.032 296.997 115.032C296.997 115.032 293.78 108.598 293.78 106.866C293.78 105.133 292.767 100.184 292.767 100.184C292.767 100.184 282.635 103.401 281.115 103.649C279.595 103.897 275.699 104.89 275.699 104.89Z" fill="white" stroke="black" stroke-width="0.333333" stroke-miterlimit="10"/>
<path opacity="0.3" d="M297.969 101.18C297.969 101.18 297.23 110.086 297.23 111.079C297.23 112.072 296.981 116.028 296.981 116.028C299.523 116.414 302.083 116.661 304.652 116.768C307.377 116.768 312.078 116.52 312.078 116.52C312.078 116.52 311.83 107.862 312.327 107.117C312.823 106.372 313.066 102.416 313.066 102.416C313.066 102.416 298.952 101.423 297.969 101.18Z" fill="white" stroke="black" stroke-width="0.333333" stroke-miterlimit="10"/>
<path opacity="0.3" d="M303.415 120.979V126.917C303.415 127.905 302.908 135.083 302.908 135.083C302.908 135.083 309.342 135.332 311.819 135.083C314.297 134.835 319.241 133.351 319.241 133.351L318.502 125.432L317.995 119.986C317.995 119.986 306.135 121.719 303.415 120.979Z" fill="white" stroke="black" stroke-width="0.333333" stroke-miterlimit="10"/>
<path opacity="0.3" d="M340.788 87.5922L335.094 87.8404H332.125V92.0453C332.125 93.2814 331.877 97.2431 331.877 97.9827C331.877 98.7224 335.839 99.2239 337.571 99.2239H343.757L344.005 87.0957L340.788 87.5922Z" fill="white" stroke="black" stroke-width="0.333333" stroke-miterlimit="10"/>
<g opacity="0.5">
<path opacity="0.5" d="M326.432 114.293H337.075" stroke="black" stroke-width="0.333333" stroke-miterlimit="10"/>
<path opacity="0.5" d="M326.432 116.766H337.075" stroke="black" stroke-width="0.333333" stroke-miterlimit="10"/>
<path opacity="0.5" d="M326.432 119.242H337.075" stroke="black" stroke-width="0.333333" stroke-miterlimit="10"/>
<path opacity="0.5" d="M326.432 121.715H337.075" stroke="black" stroke-width="0.333333" stroke-miterlimit="10"/>
</g>
<g opacity="0.5">
<path opacity="0.5" d="M271.49 86.084H306.634" stroke="black" stroke-width="0.333333" stroke-miterlimit="10"/>
<path opacity="0.5" d="M271.49 88.5566H306.634" stroke="black" stroke-width="0.333333" stroke-miterlimit="10"/>
</g>
<g opacity="0.5">
<path opacity="0.5" d="M307.377 140.031H318.016" stroke="black" stroke-width="0.333333" stroke-miterlimit="10"/>
<path opacity="0.5" d="M307.377 142.51H318.016" stroke="black" stroke-width="0.333333" stroke-miterlimit="10"/>
<path opacity="0.5" d="M307.377 144.98H318.016" stroke="black" stroke-width="0.333333" stroke-miterlimit="10"/>
<path opacity="0.5" d="M307.377 147.459H318.016" stroke="black" stroke-width="0.333333" stroke-miterlimit="10"/>
</g>
<g opacity="0.5">
<path opacity="0.5" d="M241.295 123.697H251.939" stroke="black" stroke-width="0.333333" stroke-miterlimit="10"/>
<path opacity="0.5" d="M241.295 126.176H251.939" stroke="black" stroke-width="0.333333" stroke-miterlimit="10"/>
<path opacity="0.5" d="M241.295 128.646H251.939" stroke="black" stroke-width="0.333333" stroke-miterlimit="10"/>
<path opacity="0.5" d="M241.295 131.125H251.939" stroke="black" stroke-width="0.333333" stroke-miterlimit="10"/>
</g>
<g opacity="0.5">
<path opacity="0.5" d="M316.283 92.5176H326.927" stroke="black" stroke-width="0.333333" stroke-miterlimit="10"/>
<path opacity="0.5" d="M316.283 94.9902H326.927" stroke="black" stroke-width="0.333333" stroke-miterlimit="10"/>
<path opacity="0.5" d="M316.283 97.4668H326.927" stroke="black" stroke-width="0.333333" stroke-miterlimit="10"/>
<path opacity="0.5" d="M316.283 99.9395H326.927" stroke="black" stroke-width="0.333333" stroke-miterlimit="10"/>
</g>
<path opacity="0.5" d="M277.321 116.15L271.216 117.893L272.787 119.251C269.934 121.13 263.891 124.347 259.934 121.08C254.63 116.698 256.058 112.913 256.119 112.751L255.653 112.564L255.182 112.371C255.106 112.553 253.378 116.976 259.291 121.86C260.637 122.967 262.335 123.554 264.078 123.516C267.771 123.516 271.581 121.318 273.592 119.97L275.578 121.688L277.321 116.15Z" fill="black"/>
<path opacity="0.5" d="M338.929 105.734L337.166 99.8574L333.934 104.559L335.728 104.979L333.863 111.682L334.841 111.955L336.715 105.212L338.929 105.734Z" fill="black"/>
<path opacity="0.3" d="M257.877 94.7409C257.881 94.4463 257.797 94.1572 257.636 93.9103C257.475 93.6634 257.245 93.47 256.973 93.3547C256.702 93.2394 256.403 93.2074 256.114 93.2628C255.824 93.3182 255.558 93.4584 255.348 93.6657C255.139 93.873 254.996 94.1379 254.938 94.4267C254.879 94.7155 254.908 95.0151 255.021 95.2875C255.133 95.5598 255.324 95.7925 255.569 95.9559C255.815 96.1193 256.103 96.206 256.397 96.205C256.787 96.2038 257.16 96.0496 257.437 95.7757C257.713 95.5018 257.871 95.1302 257.877 94.7409V94.7409Z" fill="white" stroke="black" stroke-width="0.333333" stroke-miterlimit="10"/>
<path opacity="0.3" d="M285.103 104.148C285.103 103.855 285.015 103.568 284.852 103.324C284.689 103.08 284.457 102.889 284.186 102.777C283.915 102.665 283.617 102.635 283.329 102.693C283.041 102.75 282.776 102.891 282.569 103.099C282.361 103.306 282.22 103.571 282.162 103.859C282.105 104.147 282.134 104.445 282.247 104.716C282.359 104.988 282.549 105.22 282.793 105.383C283.038 105.546 283.325 105.633 283.618 105.633C284.012 105.633 284.389 105.476 284.668 105.198C284.946 104.92 285.103 104.542 285.103 104.148Z" fill="#92E3A9" stroke="black" stroke-width="0.333333" stroke-miterlimit="10"/>
<path opacity="0.3" d="M306.136 103.404C306.956 103.404 307.62 102.74 307.62 101.92C307.62 101.1 306.956 100.436 306.136 100.436C305.316 100.436 304.651 101.1 304.651 101.92C304.651 102.74 305.316 103.404 306.136 103.404Z" fill="white" stroke="black" stroke-width="0.333333" stroke-miterlimit="10"/>
<path opacity="0.3" d="M311.086 123.949C311.906 123.949 312.57 123.285 312.57 122.465C312.57 121.645 311.906 120.98 311.086 120.98C310.266 120.98 309.602 121.645 309.602 122.465C309.602 123.285 310.266 123.949 311.086 123.949Z" fill="white" stroke="black" stroke-width="0.333333" stroke-miterlimit="10"/>
<path opacity="0.3" d="M257.876 138.299C257.878 138.005 257.792 137.717 257.63 137.471C257.468 137.226 257.237 137.034 256.965 136.92C256.694 136.806 256.395 136.776 256.106 136.832C255.818 136.889 255.552 137.03 255.344 137.238C255.135 137.445 254.993 137.71 254.936 137.999C254.878 138.287 254.908 138.587 255.021 138.858C255.134 139.13 255.325 139.362 255.57 139.525C255.815 139.688 256.102 139.774 256.397 139.773C256.788 139.772 257.162 139.616 257.439 139.34C257.716 139.064 257.873 138.69 257.876 138.299V138.299Z" fill="#92E3A9" stroke="black" stroke-width="0.333333" stroke-miterlimit="10"/>
<path opacity="0.3" d="M339.547 87.5937C339.547 87.3002 339.46 87.0132 339.297 86.7691C339.134 86.525 338.902 86.3347 338.631 86.2224C338.359 86.11 338.061 86.0806 337.773 86.1379C337.485 86.1952 337.22 86.3365 337.013 86.5441C336.805 86.7517 336.664 87.0162 336.607 87.3042C336.549 87.5921 336.579 87.8905 336.691 88.1618C336.803 88.433 336.994 88.6648 337.238 88.8279C337.482 88.991 337.769 89.0781 338.062 89.0781C338.456 89.0781 338.834 88.9217 339.112 88.6433C339.39 88.365 339.547 87.9874 339.547 87.5937Z" fill="#92E3A9" stroke="black" stroke-width="0.333333" stroke-miterlimit="10"/>
<path d="M268.183 230.924H224.868V228.614L268.183 226.309V230.924Z" fill="white" stroke="#263238" stroke-width="0.333333" stroke-miterlimit="10"/>
<path d="M292.876 222.353L281.731 194.723L279.846 195.488V195.939L290.85 223.164C291.106 223.803 291.201 224.495 291.127 225.179C291.054 225.864 290.813 226.52 290.427 227.09C290.041 227.66 289.521 228.126 288.913 228.449C288.305 228.771 287.627 228.939 286.939 228.939H272.333V231.143H286.939C287.984 231.137 289.011 230.877 289.933 230.384C290.855 229.891 291.642 229.181 292.227 228.315C292.812 227.449 293.177 226.453 293.29 225.414C293.403 224.375 293.261 223.325 292.876 222.353V222.353Z" fill="white" stroke="#263238" stroke-width="0.333333" stroke-miterlimit="10"/>
<path d="M287.188 156.581L283.748 156.166L275.966 220.666L279.406 221.081L287.188 156.581Z" fill="white" stroke="#263238" stroke-width="0.333333" stroke-miterlimit="10"/>
<path d="M272.697 230.967H253.952V228.764C253.951 227.611 254.378 226.499 255.151 225.644C255.923 224.788 256.985 224.25 258.132 224.133L267.59 223.176C268.237 223.111 268.89 223.182 269.507 223.385C270.125 223.587 270.693 223.917 271.175 224.353C271.657 224.789 272.042 225.321 272.306 225.915C272.57 226.509 272.707 227.151 272.707 227.801L272.697 230.967Z" fill="white" stroke="#263238" stroke-width="0.333333" stroke-miterlimit="10"/>
<path d="M189.435 139.978C189.435 139.978 185.438 130.306 181.654 129.465C177.869 128.624 161.896 136.614 166.304 143.975C170.711 151.336 175.347 150.91 179.551 149.041C183.756 147.171 189.435 139.978 189.435 139.978Z" fill="#263238" stroke="#263238" stroke-width="0.333333" stroke-miterlimit="10"/>
<path d="M172.19 133.038C172.19 133.038 167.985 131.568 165.883 131.568C163.78 131.568 163.35 138.296 163.35 138.296C163.35 138.296 164.834 131.776 172.19 133.038Z" fill="#263238" stroke="#263238" stroke-width="0.333333" stroke-miterlimit="10"/>
<path d="M217.607 147.34C217.607 147.34 219.922 150.491 220.551 153.227C221.179 155.963 219.502 158.901 220.13 161.216C220.758 163.531 223.707 165.629 223.494 167.103C223.281 168.577 219.081 170.887 219.081 170.887C219.081 170.887 215.505 179.5 214.015 180.138C212.526 180.776 207.515 179.292 205.231 178.248C202.946 177.205 199.972 177.407 199.972 177.407L186.294 170.467C186.294 170.467 187.768 167.731 186.086 163.739C184.404 159.747 183.553 153.014 193.862 146.286C204.172 139.559 217.607 147.34 217.607 147.34Z" fill="white" stroke="#263238" stroke-width="0.333333" stroke-miterlimit="10"/>
<path d="M215.717 170.464C215.432 170.026 215.002 169.702 214.502 169.548C214.002 169.394 213.464 169.421 212.981 169.623" stroke="#263238" stroke-width="0.333333" stroke-miterlimit="10"/>
<path d="M217.389 160.161C217.389 161.21 217.06 162.056 216.655 162.056C216.249 162.056 215.915 161.21 215.915 160.161C215.915 159.112 216.244 158.271 216.655 158.271C217.065 158.271 217.389 159.118 217.389 160.161Z" fill="#263238"/>
<path d="M215.297 154.907C215.493 154.706 215.73 154.549 215.993 154.449C216.255 154.349 216.537 154.307 216.817 154.327C217.097 154.347 217.37 154.428 217.616 154.564C217.861 154.7 218.075 154.888 218.24 155.115" stroke="#263238" stroke-width="0.333333" stroke-miterlimit="10"/>
<path d="M216.872 164.367C218.904 164.367 220.55 161.732 220.55 158.481C220.55 155.229 218.904 152.594 216.872 152.594C214.841 152.594 213.194 155.229 213.194 158.481C213.194 161.732 214.841 164.367 216.872 164.367Z" stroke="#263238" stroke-width="0.333333" stroke-miterlimit="10"/>
<path d="M213.195 158.479L196.791 160.16" stroke="#263238" stroke-width="0.333333" stroke-miterlimit="10"/>
<path d="M193.427 164.159C193.427 164.159 189.435 168.576 187.119 168.576C184.804 168.576 180.392 165.628 178.289 162.497C176.187 159.366 180.392 151.352 182.707 146.726C185.022 142.101 189.222 134.32 197.844 132.638C206.467 130.956 209.831 131.589 217.187 135.373C224.543 139.158 223.707 144.624 222.445 146.306C221.516 147.474 220.457 148.533 219.289 149.462C219.289 149.462 223.914 146.929 225.596 147.78C227.278 148.631 227.283 149.67 227.283 149.67C227.283 149.67 222.025 149.883 221.392 149.883C220.758 149.883 218.661 150.931 218.661 150.931C218.661 150.931 214.243 151.985 211.933 151.352C209.623 150.719 206.467 148.388 206.244 150.921C206.021 153.454 202.88 157.862 201.619 158.282C200.357 158.703 198.462 158.91 196.781 160.172C195.099 161.433 193.427 164.159 193.427 164.159Z" fill="#263238" stroke="#263238" stroke-width="0.333333" stroke-miterlimit="10"/>
<path d="M198.265 162.264C198.265 162.264 195.322 156.185 192.378 158.692C189.435 161.2 192.586 167.73 193.847 168.364C195.109 168.997 197.632 167.31 197.632 167.31C197.632 167.31 197.845 170.046 198.686 171.307" fill="white"/>
<path d="M198.265 162.264C198.265 162.264 195.322 156.185 192.378 158.692C189.435 161.2 192.586 167.73 193.847 168.364C195.109 168.997 197.632 167.31 197.632 167.31C197.632 167.31 197.845 170.046 198.686 171.307" stroke="#263238" stroke-width="0.333333" stroke-miterlimit="10"/>
<path d="M181.445 177.404C181.445 177.404 184.992 173.828 184.992 171.518C184.992 169.208 186.253 167.308 194.242 171.097C202.231 174.887 204.992 179.289 203.311 180.556C201.629 181.822 198.052 183.089 197.231 183.919C196.411 184.75 193.447 188.758 193.447 188.758C193.447 188.758 188.381 177.404 181.445 177.404Z" fill="#92E3A9" stroke="#263238" stroke-width="0.333333" stroke-miterlimit="10"/>
<path d="M190.155 169.857C190.155 169.857 188.371 170.217 188.731 171.463C188.942 172.219 188.942 173.018 188.731 173.773L187.662 175.379" stroke="#263238" stroke-width="0.333333" stroke-miterlimit="10"/>
<path d="M194.268 171.098C194.268 171.098 192.288 173.241 192.465 173.95C192.642 174.659 193.002 175.733 192.288 176.088C191.653 176.371 191 176.61 190.332 176.802" stroke="#263238" stroke-width="0.333333" stroke-miterlimit="10"/>
<path d="M194.957 179.352C194.587 179.894 194.248 180.365 194.248 180.365" stroke="#263238" stroke-width="0.333333" stroke-miterlimit="10"/>
<path d="M197.987 173.596C197.987 173.596 198.341 175.197 197.627 176.266C196.913 177.334 196.026 177.334 195.849 177.866" stroke="#263238" stroke-width="0.333333" stroke-miterlimit="10"/>
<path d="M201.903 176.443C201.575 177.372 201.158 178.266 200.657 179.113C200.12 179.827 198.164 179.65 197.804 180.537C197.455 181.221 196.97 181.827 196.381 182.32" stroke="#263238" stroke-width="0.333333" stroke-miterlimit="10"/>
<path d="M242.811 209.874C241.245 209.251 236.863 208.623 236.863 208.623" stroke="#263238" stroke-width="0.333333" stroke-miterlimit="10"/>
<path d="M234.984 207.995C234.984 207.995 238.429 207.057 240.618 207.995" stroke="#263238" stroke-width="0.333333" stroke-miterlimit="10"/>
<path d="M242.113 215.26C242.113 215.26 243.972 218.467 244.479 219.48C244.985 220.494 245.153 221 244.646 221C244.139 221 242.28 220.159 242.113 219.146C242.045 218.611 241.872 218.095 241.606 217.626C241.606 217.626 242.559 221.34 242.28 221.507C241.181 222.181 240.426 221 240.426 221L239.073 216.947C239.073 216.947 238.567 218.974 238.399 219.48C238.232 219.987 237.214 218.639 237.214 217.626C237.231 216.835 237.288 216.046 237.386 215.26L236.373 214.414C236.373 214.414 237.893 212.895 239.58 212.895C241.267 212.895 242.113 215.26 242.113 215.26Z" fill="white" stroke="#263238" stroke-width="0.333333" stroke-miterlimit="10"/>
<path d="M216.108 210.193L216.767 210.147C219.68 209.955 231.241 209.18 231.965 209.18C232.811 209.18 237.705 211.88 237.705 211.88C239.227 211.788 240.754 211.846 242.264 212.052C243.956 212.387 245.476 214.413 246.15 215.092C246.824 215.771 249.022 216.612 247.837 216.946C246.652 217.28 246.15 217.453 245.476 217.285C244.802 217.118 242.097 215.259 242.097 215.259L237.705 214.585C237.705 214.585 233.652 216.779 233.145 216.946C232.639 217.113 233.824 218.299 235.005 219.145C236.185 219.991 238.044 221.171 237.877 222.519C237.71 223.866 237.198 223.704 235.851 222.519C234.503 221.333 233.145 220.665 231.119 219.312C229.267 217.98 227.518 216.512 225.886 214.92L224.872 213.906C224.872 213.906 213.053 217.792 209 218.972C205.291 220.016 201.515 220.806 197.698 221.338C195.165 221.678 190.271 220.665 188.918 219.651C187.566 218.638 184.02 215.426 184.02 215.426L190.099 203.268C190.099 203.268 197.364 210.026 200.231 210.7C203.098 211.373 216.108 210.193 216.108 210.193Z" fill="white" stroke="#263238" stroke-width="0.333333" stroke-miterlimit="10"/>
<path d="M200.231 210.7C197.364 210.026 190.099 203.268 190.099 203.268L184.02 215.426C184.02 215.426 187.566 218.638 188.918 219.651C190.271 220.665 195.165 221.678 197.698 221.338C201.163 220.854 204.596 220.161 207.977 219.261C208.068 218.486 208.139 217.655 208.17 216.779C208.235 214.864 208.17 212.696 208.073 210.765C204.811 210.953 201.513 211.019 200.231 210.7Z" fill="#92E3A9" stroke="#263238" stroke-width="0.333333" stroke-miterlimit="10"/>
<path d="M196.026 190.734C196.011 187.241 194.908 183.839 192.87 181.002C191.89 179.566 190.564 178.4 189.014 177.613C181.993 174.421 177.058 176.736 172.61 182.679C163.78 194.457 157.741 208.445 155.386 214.22C150.416 226.257 149.504 230.599 149.504 230.599H182.727C182.727 230.599 181.045 226.394 181.045 225.345C181.045 224.297 182.727 222.189 182.727 222.189C182.727 222.189 192.819 218.612 194.709 213.146C196.081 209.124 196.112 196.909 196.026 190.734Z" fill="#92E3A9" stroke="#263238" stroke-width="0.333333" stroke-miterlimit="10"/>
<path d="M245 193.598C247.668 194.132 250.293 194.866 252.852 195.791" stroke="#263238" stroke-width="0.333333" stroke-miterlimit="10"/>
<path d="M250.01 192.66C251.922 193.45 253.714 194.504 255.334 195.791" stroke="#263238" stroke-width="0.333333" stroke-miterlimit="10"/>
<path d="M174.506 199.273C174.506 199.273 184.81 227.45 187.541 228.291C190.272 229.132 193.007 227.871 194.269 227.03C195.53 226.189 232.117 200.327 232.117 200.327C232.117 200.327 238.637 204.116 239.899 204.116C241.16 204.116 243.683 207.9 244.311 209.182C244.94 210.464 245.573 211.072 245.786 209.81C245.998 208.549 244.311 205.818 243.891 204.977C243.649 204.5 243.439 204.008 243.263 203.503C243.993 203.601 244.703 203.814 245.365 204.136C245.993 204.557 248.096 207.287 248.729 208.128C249.362 208.969 250.832 209.81 250.832 208.549C250.832 207.287 248.516 204.977 248.096 203.923C247.853 203.305 247.409 202.787 246.834 202.454C246.834 202.454 250.831 203.083 251.9 203.503C252.969 203.923 253.587 206.446 254.849 206.659C256.11 206.872 254.216 204.126 253.795 202.875C253.375 201.623 248.116 199.931 248.116 199.931C248.116 199.931 251.48 199.511 252.534 199.511C253.587 199.511 255.893 201.583 256.511 201.583C257.129 201.583 257.139 200.95 255.457 199.688C253.775 198.427 250.831 197.155 249.57 197.155C248.299 197.12 247.033 196.98 245.786 196.735C244.524 196.527 235.061 194.632 233.171 194.632C231.281 194.632 202.891 207.88 202.891 207.88L201.052 206.244C201.017 206.212 200.973 206.193 200.925 206.188L200.616 206.153C199.556 206.063 198.499 206.362 197.643 206.994C197.491 207.095 197.339 207.08 197.212 206.826C196.792 205.985 194.061 189.166 192.587 185.589C191.112 182.013 186.507 174.029 178.503 178.654" fill="white"/>
<path d="M174.506 199.273C174.506 199.273 184.81 227.45 187.541 228.291C190.272 229.132 193.007 227.871 194.269 227.03C195.53 226.189 232.117 200.327 232.117 200.327C232.117 200.327 238.637 204.116 239.899 204.116C241.16 204.116 243.683 207.9 244.311 209.182C244.94 210.464 245.573 211.072 245.786 209.81C245.998 208.549 244.311 205.818 243.891 204.977C243.649 204.5 243.439 204.008 243.263 203.503C243.993 203.601 244.703 203.814 245.365 204.136C245.993 204.557 248.096 207.287 248.729 208.128C249.362 208.969 250.832 209.81 250.832 208.549C250.832 207.287 248.516 204.977 248.096 203.923C247.853 203.305 247.409 202.787 246.834 202.454C246.834 202.454 250.831 203.083 251.9 203.503C252.969 203.923 253.587 206.446 254.849 206.659C256.11 206.872 254.216 204.126 253.795 202.875C253.375 201.623 248.116 199.931 248.116 199.931C248.116 199.931 251.48 199.511 252.534 199.511C253.587 199.511 255.893 201.583 256.511 201.583C257.129 201.583 257.139 200.95 255.457 199.688C253.775 198.427 250.831 197.155 249.57 197.155C248.299 197.12 247.033 196.98 245.786 196.735C244.524 196.527 235.061 194.632 233.171 194.632C231.281 194.632 202.891 207.88 202.891 207.88L201.052 206.244C201.017 206.212 200.973 206.193 200.925 206.188L200.616 206.153C199.556 206.063 198.499 206.362 197.643 206.994C197.491 207.095 197.339 207.08 197.212 206.826C196.792 205.985 194.061 189.166 192.587 185.589C191.112 182.013 186.507 174.029 178.503 178.654" stroke="#263238" stroke-width="0.333333" stroke-miterlimit="10"/>
<path d="M174.506 199.269C174.506 199.269 184.81 227.447 187.541 228.288C190.272 229.129 193.007 227.867 194.269 227.026C194.937 226.581 205.414 219.179 215.192 212.279L211.554 203.89C206.665 206.129 202.891 207.892 202.891 207.892L201.052 206.255C201.017 206.224 200.973 206.204 200.925 206.2L200.616 206.164C199.556 206.075 198.499 206.374 197.643 207.005C197.491 207.107 197.339 207.091 197.212 206.838C196.792 205.997 194.061 189.178 192.587 185.601C191.112 182.024 186.507 174.04 178.503 178.666" fill="#92E3A9"/>
<path d="M174.506 199.269C174.506 199.269 184.81 227.447 187.541 228.288C190.272 229.129 193.007 227.867 194.269 227.026C194.937 226.581 205.414 219.179 215.192 212.279L211.554 203.89C206.665 206.129 202.891 207.892 202.891 207.892L201.052 206.255C201.017 206.224 200.973 206.204 200.925 206.2L200.616 206.164C199.556 206.075 198.499 206.374 197.643 207.005C197.491 207.107 197.339 207.091 197.212 206.838C196.792 205.997 194.061 189.178 192.587 185.601C191.112 182.024 186.507 174.04 178.503 178.666" stroke="#263238" stroke-width="0.333333" stroke-miterlimit="10"/>
<path d="M197.242 207.523C195.64 209.48 193.874 211.295 191.963 212.949" stroke="#263238" stroke-width="0.333333" stroke-miterlimit="10"/>
<path d="M196.037 208.881C196.037 208.881 192.572 210.087 189.704 210.841" stroke="#263238" stroke-width="0.333333" stroke-miterlimit="10"/>
<path d="M149.504 230.601L143.703 179.738C143.633 179.119 143.439 178.521 143.134 177.978C142.828 177.435 142.417 176.959 141.925 176.578C141.432 176.197 140.868 175.918 140.266 175.759C139.664 175.599 139.036 175.562 138.419 175.649V175.649C137.208 175.822 136.114 176.464 135.372 177.436C134.63 178.409 134.3 179.634 134.453 180.847L140.775 230.682L149.504 230.601Z" fill="#263238" stroke="#263238" stroke-width="0.333333" stroke-miterlimit="10"/>
<path d="M342.086 230.477H124.163V235.396H342.086V230.477Z" fill="#263238" stroke="#263238" stroke-width="0.333333" stroke-miterlimit="10"/>
<path d="M58.6412 71.8501C57.8192 72.0998 57.0885 72.2415 55.9143 72.3602L55.6347 69.0319L58.0263 68.831L57.8521 66.7583L52.9693 67.1686L53.599 74.6622L54.5556 74.5818C56.8276 74.3909 57.8025 74.2889 59.0113 73.8662L58.6412 71.8501ZM52.6623 72.3525C51.8204 72.6038 51.0697 72.7472 50.2759 72.8541L49.9946 69.5058L52.2466 69.3166L52.0725 67.2439L47.3092 67.6442L47.9389 75.1378L48.8756 75.059C50.4102 74.9301 51.5661 74.833 53.0357 74.4084L52.6623 72.3525ZM53.0404 81.1517L62.9256 80.3211L62.5069 75.3386L49.991 76.3903L50.1601 78.4032L60.0852 77.5693L60.1756 78.6455L50.2705 79.4778L50.6959 84.5399L63.7698 83.4414L63.599 81.4085L53.1358 82.2877L53.0404 81.1517ZM61.9727 68.981L61.6679 65.3538L59.0372 65.5749L59.8159 74.8422L62.4466 74.6212L62.1502 71.0936L64.1631 70.9245L63.9856 68.8119L61.9727 68.981ZM75.9125 73.1443C76.0139 74.351 75.7945 75.356 75.2544 76.1592C74.7143 76.9625 73.9674 77.4042 73.0138 77.4843C72.5337 77.5246 72.0784 77.4714 71.6479 77.3247C71.2234 77.1709 70.7204 76.8603 70.1389 76.3931C69.5568 75.9193 69.0387 75.7015 68.5845 75.7397C68.2083 75.7713 67.917 75.9591 67.7107 76.3031C67.5044 76.6471 67.4225 77.0721 67.465 77.5781L65.3712 77.7345C65.2698 76.5278 65.4802 75.5334 66.0025 74.7512C66.5312 73.9685 67.2822 73.5363 68.2553 73.4545C68.7614 73.412 69.2302 73.4706 69.6617 73.6304C70.0933 73.7901 70.5931 74.1009 71.1611 74.5628C71.735 75.0176 72.2393 75.2268 72.674 75.1902C73.0568 75.1581 73.3537 74.96 73.5649 74.596C73.7825 74.2314 73.8706 73.8026 73.8292 73.3096L75.9125 73.1443ZM91.6456 71.1441C88.6987 70.4684 87.2457 68.4631 87.0134 66.4153L90.6008 66.1139L90.425 64.0213L80.5199 64.8536L80.6957 66.9462L84.3428 66.6397C84.4723 68.8968 83.3478 71.2793 80.457 72.4655L81.9283 74.4493C84.0221 73.5709 85.3763 72.012 86.0444 70.1696C86.9972 71.7153 88.4977 72.8536 90.5642 73.3223L91.6456 71.1441ZM86.2599 76.7949L93.036 76.2255L93.2604 78.8961L86.4843 79.4654L86.2599 76.7949ZM84.0659 81.7359L96.0038 80.7328L95.4345 73.9567L83.4965 74.9598L84.0659 81.7359ZM97.2597 66.5378L94.8282 66.7421L94.4816 62.6166L91.8509 62.8377L92.7418 73.4403L95.3725 73.2193L95.0091 68.8945L97.4405 68.6902L97.2597 66.5378ZM104.827 73.4886C107.844 70.4653 108.372 67.1897 108.015 62.9446L103.531 63.3214L103.707 65.414L105.739 65.2432C105.731 68.0136 104.992 69.9624 102.995 71.9967L104.827 73.4886ZM97.9903 63.787L98.1662 65.8796L100.578 65.677C100.531 68.2298 99.7684 69.8995 97.9111 71.6813L99.7424 73.1732C102.581 70.4058 103.231 67.4008 102.893 63.375L97.9903 63.787ZM103.44 74.1871L100.81 74.4082L101.295 80.1878L113.951 79.1244L113.775 77.0318L103.75 77.8742L103.44 74.1871ZM112.283 66.6804L111.817 61.1399L109.187 61.361L110.312 74.7538L112.943 74.5327L112.464 68.8328L114.895 68.6285L114.714 66.4761L112.283 66.6804ZM61.5243 100.429L62.8795 100.315L63.3786 106.254L65.8698 106.045L64.7059 92.1937L62.2147 92.403L62.7004 98.1827L61.3451 98.2965L60.888 92.8557L58.4366 93.0617L59.5452 106.255L61.9966 106.049L61.5243 100.429ZM58.0507 94.6797L54.8819 94.946L54.7379 93.232L52.147 93.4497L52.291 95.1637L49.1222 95.4299L49.2947 97.4827L58.2232 96.7325L58.0507 94.6797ZM52.5045 101.287C52.4241 100.331 53.0383 99.7572 54.0148 99.6752C54.9715 99.5948 55.6727 100.058 55.7531 101.014C55.8351 101.991 55.221 102.564 54.2644 102.645C53.2878 102.727 52.5866 102.264 52.5045 101.287ZM58.0848 100.818C57.914 98.7856 56.1393 97.4896 53.8474 97.6822C51.5355 97.8765 50.0019 99.4504 50.1727 101.483C50.3452 103.536 52.12 104.832 54.4318 104.638C56.7237 104.445 58.2573 102.871 58.0848 100.818ZM56.3199 108.955L56.0369 105.587L53.4062 105.808L53.865 111.268L66.6799 110.192L66.504 108.099L56.3199 108.955ZM81.9578 99.274L71.674 100.138L71.2688 95.3151L81.413 94.4627L81.2338 92.3303L68.4589 93.4037L69.2192 102.452L82.1336 101.367L81.9578 99.274ZM67.5757 106.062L67.7565 108.215L84.378 106.818L84.1971 104.665L67.5757 106.062ZM89.4595 103.059L86.8288 103.28L87.2642 108.462L99.9794 107.394L99.8036 105.301L89.7191 106.148L89.4595 103.059ZM90.366 92.8274L94.1327 92.5108L94.3923 95.6L90.6255 95.9165L90.366 92.8274ZM94.1275 99.3754L93.9885 97.7212L99.3695 97.2691L99.1953 95.1964L97.0031 95.3806L96.7435 92.2915L99.0753 92.0955L98.8994 90.0029L85.2476 91.15L85.4234 93.2427L87.7552 93.0467L88.0147 96.1358L85.8025 96.3217L85.9767 98.3944L91.3577 97.9423L91.4967 99.5964L84.5412 100.181L84.7171 102.274L101.299 100.88L101.123 98.7876L94.1275 99.3754ZM103.315 96.4759C106.735 95.8474 108.88 94.3826 109.709 92.5467C110.813 94.2202 113.192 95.3048 116.668 95.3539L117.411 93.2041C113.96 93.2132 112.065 92.1681 111.503 90.971L116.386 90.5607L116.21 88.468L102.638 89.6085L102.814 91.7011L107.677 91.2925C107.322 92.5667 105.629 93.9132 102.224 94.4802L103.315 96.4759ZM106.761 102.85L114.275 102.218L114.442 104.211L106.929 104.843L106.761 102.85ZM104.53 107.112L117.206 106.046L116.693 99.9479L104.018 101.013L104.53 107.112ZM111.381 96.9221L111.202 94.7896L108.571 95.0107L108.75 97.1431L101.795 97.7276L101.971 99.8202L118.552 98.4269L118.376 96.3343L111.381 96.9221ZM126.307 92.7978L130.373 92.4562L130.549 94.5488L126.483 94.8904L126.307 92.7978ZM130.025 96.6801L133.334 96.4021L132.625 87.9718L130.014 88.1912L130.204 90.4433L126.138 90.7849L125.949 88.5328L123.358 88.7505L124.066 97.1808L127.394 96.9012L127.634 99.7511C126.061 99.9034 124.566 100.029 123.251 100.139L123.749 102.245C126.82 102.007 130.906 101.664 134.692 100.623L134.312 98.7284C133.031 99.0166 131.645 99.2335 130.256 99.4304L130.025 96.6801ZM139.895 93.2817L137.484 93.4844L136.866 86.1303L134.235 86.3513L135.776 104.687L138.407 104.466L137.666 95.6567L140.078 95.4541L139.895 93.2817ZM141.84 92.5564C145.188 92.0342 147.389 90.7654 148.338 89.1603C149.543 90.6045 151.944 91.4665 155.332 91.4226L155.964 89.3826C152.577 89.4464 150.68 88.6023 150.011 87.5746L155.014 87.1543L154.841 85.1015L141.269 86.242L141.442 88.2947L146.444 87.8744C145.936 89.0009 144.187 90.1514 140.857 90.652L141.84 92.5564ZM157.081 93.8447L156.909 91.7919L140.327 93.1852L140.5 95.238L147.475 94.6519L147.572 95.8078L142.49 96.2348L142.651 98.1481L152.735 97.3007L152.821 98.3171L142.756 99.1628L143.158 103.946L156.292 102.842L156.128 100.889L145.605 101.773L145.518 100.737L155.562 99.8931L155.165 95.1698L150.203 95.5867L150.106 94.4308L157.081 93.8447ZM160.848 93.0666L165.212 92.6998L164.614 85.5849L157.679 86.1677L157.856 88.2802L162.261 87.9101L162.507 90.8398L158.123 91.2082L158.751 98.6819L160.046 98.573C162.258 98.3872 164.246 98.1599 166.566 97.5836L166.188 95.4679C164.377 95.901 162.791 96.1346 161.121 96.3151L160.848 93.0666ZM170.303 83.3006L170.886 90.2361L169.232 90.3751L168.677 83.7784L166.226 83.9843L167.668 101.144L170.119 100.938L169.409 92.4877L171.063 92.3487L171.846 101.656L174.337 101.447L172.794 83.0912L170.303 83.3006ZM177.942 95.057C177.865 94.1488 177.915 93.4161 178.09 92.8591C178.265 92.3021 178.623 91.7396 179.163 91.1715C179.71 90.5964 180.066 90.1385 180.234 89.7978C180.401 89.4506 180.469 89.0953 180.438 88.732C180.346 87.6356 179.794 87.1299 178.782 87.215C178.302 87.2553 177.928 87.437 177.662 87.7599C177.401 88.0758 177.286 88.4939 177.316 89.014L174.494 89.2511C174.403 88.0109 174.72 87.0075 175.447 86.2408C176.179 85.4737 177.227 85.0329 178.589 84.9184C179.964 84.8028 181.06 85.0472 181.875 85.6517C182.689 86.2496 183.148 87.1552 183.25 88.3684C183.296 88.9198 183.217 89.4524 183.012 89.9662C182.806 90.4735 182.42 91.0514 181.854 91.7001L181.129 92.5156C180.675 93.0306 180.44 93.609 180.422 94.2508L180.433 94.8477L177.942 95.057ZM177.91 98.0683C177.874 97.6336 177.99 97.2645 178.258 96.961C178.533 96.6505 178.9 96.4759 179.361 96.4372C179.822 96.3985 180.21 96.5096 180.526 96.7705C180.848 97.0244 181.027 97.3687 181.063 97.8033C181.099 98.2315 180.983 98.5973 180.715 98.9008C180.453 99.2038 180.085 99.3752 179.611 99.415C179.138 99.4548 178.743 99.3474 178.428 99.093C178.119 98.838 177.946 98.4964 177.91 98.0683Z" fill="#DCFBE5"/>
<g filter="url(#filter0_d_183_14)">
<path d="M11.333 68.8076C15.1103 66.5339 58.6847 37.0992 79.9997 22.666M11.333 76.9993L68.128 51.2537" stroke="#92E3A9" stroke-width="3.33333"/>
</g>
<g filter="url(#filter1_d_183_14)">
<path d="M13.8566 125.556C17.7653 126.959 63.5844 146.237 86.0054 155.7M11.9931 117.631L68.843 130.549" stroke="#92E3A9" stroke-width="3.33333"/>
</g>
<path d="M90.32 295.813H85.3867V290.373H90.32V295.813ZM90.32 287.627H85.3867V281.68H81.8933V298.613H93.8133V281.68H90.32V287.627ZM103.947 288.88H100.373V279.76H96.8533V304.293H100.373V291.813H103.947V288.88ZM121.491 287.893H119.411V285.707H121.491V287.893ZM124.798 280.64H121.491V282.987H119.411V280.64H116.131V290.667H124.798V280.64ZM111.491 287.893H109.385V285.707H111.491V287.893ZM114.771 280.64H111.491V282.987H109.385V280.64H106.051V290.667H114.771V280.64ZM110.398 296.613H106.878V303.867H124.211V301.067H110.398V296.613ZM104.318 292.32V295.12H126.558V292.32H104.318ZM131.729 285.307H137.622V282.507H128.262V298.827H129.942C133.542 298.827 135.969 298.72 138.716 298.187L138.422 295.307C136.262 295.733 134.289 295.893 131.729 295.947V285.307ZM140.209 288.693H135.942V291.547H140.209V303.2H143.489V280.187H140.209V288.693ZM145.302 279.707V304.267H148.636V279.707H145.302ZM97.28 321.747H87.1733V319.213H97.28V321.747ZM100.747 313.667H97.28V316.467H87.1733V313.667H83.68V324.547H100.747V313.667ZM103.387 326.867H81.1467V329.667H90.4267V337.32H93.9467V329.667H103.387V326.867ZM110.131 317.32H120.718V323.827H110.131V317.32ZM117.198 331.587V326.6H124.158V314.547H106.691V326.6H113.678V331.587H104.345V334.44H126.585V331.587H117.198ZM142.396 321.4C139.169 322.12 136.076 322.36 132.422 322.413V314.147H128.929V325.32H131.062C135.462 325.32 139.062 325.053 142.822 324.253L142.396 321.4ZM135.062 330.28H144.476V334.253H135.062V330.28ZM131.596 337H147.916V327.507H131.596V337ZM144.396 312.707V326.467H147.916V312.707H144.396ZM167.567 312.707V337.347H171.087V312.707H167.567ZM157.887 314.44C154.18 314.44 151.434 317.8 151.434 323.187C151.434 328.6 154.18 331.987 157.887 331.987C161.594 331.987 164.34 328.6 164.34 323.187C164.34 317.8 161.594 314.44 157.887 314.44ZM157.887 317.613C159.7 317.613 160.954 319.56 160.954 323.187C160.954 326.84 159.7 328.787 157.887 328.787C156.074 328.787 154.82 326.84 154.82 323.187C154.82 319.56 156.074 317.613 157.887 317.613ZM195.379 321.747H185.272V319.213H195.379V321.747ZM198.846 313.667H195.379V316.467H185.272V313.667H181.779V324.547H198.846V313.667ZM201.486 326.867H179.246V329.667H188.526V337.32H192.046V329.667H201.486V326.867ZM218.71 319.827H205.004V328.12H222.737V325.32H208.497V322.573H222.177V314.387H204.977V317.187H218.71V319.827ZM202.444 331.64V334.52H224.684V331.64H202.444ZM246.041 312.76H242.495V330.653H246.041V312.76ZM240.681 324.147C236.681 322.867 234.975 319.72 234.975 316.467V314.093H231.401V316.467C231.401 319.747 229.641 323.187 225.561 324.573L227.348 327.373C230.201 326.387 232.121 324.387 233.241 321.907C234.308 324.2 236.175 326.013 238.895 326.947L240.681 324.147ZM233.215 334.067V328.947H229.695V336.867H246.655V334.067H233.215ZM253.293 317.853H261.239V315H249.799V331.453H251.879C256.146 331.453 259.506 331.32 263.213 330.653L262.866 327.747C259.693 328.28 256.786 328.467 253.293 328.52V317.853ZM271.639 321.8H268.066V312.733H264.546V337.347H268.066V324.707H271.639V321.8ZM275.409 329.18C275.409 327.964 275.556 326.997 275.852 326.276C276.147 325.556 276.685 324.848 277.466 324.154C278.256 323.451 278.781 322.882 279.042 322.448C279.302 322.005 279.432 321.541 279.432 321.055C279.432 319.588 278.755 318.854 277.401 318.854C276.759 318.854 276.242 319.054 275.852 319.453C275.47 319.844 275.27 320.386 275.253 321.081H271.477C271.494 319.423 272.028 318.125 273.078 317.188C274.137 316.25 275.578 315.781 277.401 315.781C279.241 315.781 280.669 316.228 281.685 317.122C282.701 318.008 283.208 319.262 283.208 320.885C283.208 321.623 283.043 322.322 282.714 322.982C282.384 323.633 281.806 324.358 280.982 325.156L279.927 326.159C279.267 326.793 278.89 327.535 278.794 328.385L278.742 329.18H275.409ZM275.031 333.177C275.031 332.595 275.227 332.118 275.617 331.745C276.016 331.363 276.524 331.172 277.141 331.172C277.757 331.172 278.26 331.363 278.651 331.745C279.05 332.118 279.25 332.595 279.25 333.177C279.25 333.75 279.055 334.223 278.664 334.596C278.282 334.97 277.774 335.156 277.141 335.156C276.507 335.156 275.995 334.97 275.604 334.596C275.222 334.223 275.031 333.75 275.031 333.177Z" fill="#0B5932"/>
<defs>
<filter id="filter0_d_183_14" x="9.1403" y="21.2852" width="73.1276" height="59.8991" filterUnits="userSpaceOnUse" color-interpolation-filters="sRGB">
<feFlood flood-opacity="0" result="BackgroundImageFix"/>
<feColorMatrix in="SourceAlpha" type="matrix" values="0 0 0 0 0 0 0 0 0 0 0 0 0 0 0 0 0 0 127 0" result="hardAlpha"/>
<feOffset dy="1.33333"/>
<feGaussianBlur stdDeviation="0.666667"/>
<feComposite in2="hardAlpha" operator="out"/>
<feColorMatrix type="matrix" values="0 0 0 0 0 0 0 0 0 0 0 0 0 0 0 0 0 0 0.25 0"/>
<feBlend mode="normal" in2="BackgroundImageFix" result="effect1_dropShadow_183_14"/>
<feBlend mode="normal" in="SourceGraphic" in2="effect1_dropShadow_183_14" result="shape"/>
</filter>
<filter id="filter1_d_183_14" x="10.2907" y="116.006" width="77.696" height="43.8971" filterUnits="userSpaceOnUse" color-interpolation-filters="sRGB">
<feFlood flood-opacity="0" result="BackgroundImageFix"/>
<feColorMatrix in="SourceAlpha" type="matrix" values="0 0 0 0 0 0 0 0 0 0 0 0 0 0 0 0 0 0 127 0" result="hardAlpha"/>
<feOffset dy="1.33333"/>
<feGaussianBlur stdDeviation="0.666667"/>
<feComposite in2="hardAlpha" operator="out"/>
<feColorMatrix type="matrix" values="0 0 0 0 0 0 0 0 0 0 0 0 0 0 0 0 0 0 0.25 0"/>
<feBlend mode="normal" in2="BackgroundImageFix" result="effect1_dropShadow_183_14"/>
<feBlend mode="normal" in="SourceGraphic" in2="effect1_dropShadow_183_14" result="shape"/>
</filter>
</defs>
</svg>
