<svg width="360" height="360" viewBox="0 0 360 360" fill="none" xmlns="http://www.w3.org/2000/svg">
<g clip-path="url(#clip0_173_252)">
<rect width="360" height="360" fill="#25A765"/>
<g opacity="0.5">
<path d="M137.519 143.149V43.666H145.981" stroke="black" stroke-width="0.333333" stroke-linecap="round" stroke-linejoin="round"/>
<path d="M137.524 159.41V155.783" stroke="black" stroke-width="0.333333" stroke-linecap="round" stroke-linejoin="round"/>
<path d="M167.737 43.666H255.022V172.147H137.519" stroke="black" stroke-width="0.333333" stroke-linecap="round" stroke-linejoin="round"/>
<path d="M157.033 43.666H164.703" stroke="black" stroke-width="0.333333" stroke-linecap="round" stroke-linejoin="round"/>
<path d="M250.603 48.0781H141.938V167.738H250.603V48.0781Z" stroke="black" stroke-width="0.333333" stroke-linecap="round" stroke-linejoin="round"/>
<path d="M245.55 56.4766V103.016H146.99V98.7734" stroke="black" stroke-width="0.333333" stroke-linecap="round" stroke-linejoin="round"/>
<path d="M146.99 88.8143V52.6992H245.55" stroke="black" stroke-width="0.333333" stroke-linecap="round" stroke-linejoin="round"/>
<path d="M146.996 95.5057V91.377" stroke="black" stroke-width="0.333333" stroke-linecap="round" stroke-linejoin="round"/>
<path d="M228.909 107.908H250.602" stroke="black" stroke-width="0.333333" stroke-linecap="round" stroke-linejoin="round"/>
<path d="M221.194 107.908H224.262" stroke="black" stroke-width="0.333333" stroke-linecap="round" stroke-linejoin="round"/>
<path d="M141.938 107.908H217.528" stroke="black" stroke-width="0.333333" stroke-linecap="round" stroke-linejoin="round"/>
<path d="M190.811 103.015V100.779H199.895V102.051H196.274V103.015" stroke="black" stroke-width="0.333333" stroke-linecap="round" stroke-linejoin="round"/>
<path d="M142.125 148.014C142.125 148.014 143.631 149.154 144.691 156.055C144.691 156.055 146.516 145.031 148.729 144.86C150.941 144.689 150.474 152.034 150.474 152.034C150.474 152.034 150.839 148.413 152.572 148.579C154.306 148.744 152.572 156.055 152.572 156.055C152.572 156.055 154.654 150.352 156.621 150.455C158.589 150.557 155.315 160.782 155.315 160.782C155.315 160.782 160.368 157.121 162.415 158.912C164.462 160.702 161.275 165.219 161.275 165.219C161.275 165.219 168.523 163.645 169.646 167.893" stroke="black" stroke-width="0.333333" stroke-linecap="round" stroke-linejoin="round"/>
<path d="M169.665 163.777C169.665 163.777 172.824 161.707 175.305 162.67C175.305 162.67 173.725 160.264 175.305 158.793C176.885 157.321 178.915 162.67 178.915 162.67C178.915 162.67 179.143 153.712 182.302 154.162C185.461 154.613 182.302 162.67 182.302 162.67C182.302 162.67 187.942 157.675 189.294 159.414C190.645 161.154 188.393 163.777 188.393 163.777C188.393 163.777 191.774 162.693 194.255 165.22C194.255 165.22 198.036 161.359 202.239 160.806C202.239 160.806 199.444 152.696 200.802 151.06C202.159 149.423 204.611 158.137 204.611 158.137C204.611 158.137 205.689 152.468 209.219 152.035C209.219 152.035 206.276 150.432 207.149 148.015C208.021 145.597 212.082 148.585 212.082 148.585C212.082 148.585 210.411 144.325 213.051 143.156C215.691 141.987 216.792 146.72 216.792 146.72C216.792 146.72 217.528 141.759 220.63 142.032C223.732 142.306 222.728 148.02 222.728 148.02C222.728 148.02 225.654 143.458 227.222 143.943C230.353 144.867 229.401 152.041 229.401 152.041C229.401 152.041 233.775 149.001 234.898 150.398C236.113 151.909 230.336 155.793 230.336 155.793C230.336 155.793 234.676 156.272 237.373 158.798" stroke="black" stroke-width="0.333333" stroke-linecap="round" stroke-linejoin="round"/>
<path d="M250.603 149.651C250.603 149.651 250.106 145.089 245.55 144.861C240.994 144.633 246.805 154.841 246.805 154.841C246.805 154.841 243.047 151.733 241.701 152.691C240.355 153.649 245.55 158.913 245.55 158.913C245.55 158.913 243.058 156.632 240.418 157.322C237.777 158.012 241.917 165.362 241.917 165.362C238.015 164.574 233.963 165.048 230.347 166.714" stroke="black" stroke-width="0.333333" stroke-linecap="round" stroke-linejoin="round"/>
</g>
<g opacity="0.5">
<path d="M295.931 210.842V153.998H359.938" stroke="black" stroke-width="0.333333" stroke-linecap="round" stroke-linejoin="round"/>
<path d="M357.61 159.879H301.079V212.828" stroke="black" stroke-width="0.333333" stroke-linecap="round" stroke-linejoin="round"/>
<path d="M312.394 188.756V165.221H316.095V170.074H321.033V167.895H325.447V170.536H331.406V165.221H337.502V168.791H340.787V166.715H346.672V180.578" stroke="black" stroke-width="0.333333" stroke-linecap="round" stroke-linejoin="round"/>
<path d="M340.789 168.789V188.754" stroke="black" stroke-width="0.333333" stroke-linecap="round" stroke-linejoin="round"/>
<path d="M337.977 171.779V175.343" stroke="black" stroke-width="0.333333" stroke-linecap="round" stroke-linejoin="round"/>
<path d="M337.977 177.896V192.535" stroke="black" stroke-width="0.333333" stroke-linecap="round" stroke-linejoin="round"/>
<path d="M331.408 170.543V183.693" stroke="black" stroke-width="0.333333" stroke-linecap="round" stroke-linejoin="round"/>
<path d="M331.635 188.023V192.118" stroke="black" stroke-width="0.333333" stroke-linecap="round" stroke-linejoin="round"/>
<path d="M325.448 170.543V177.899" stroke="black" stroke-width="0.333333" stroke-linecap="round" stroke-linejoin="round"/>
<path d="M325.448 182.418V197.918" stroke="black" stroke-width="0.333333" stroke-linecap="round" stroke-linejoin="round"/>
<path d="M321.034 170.074V188.346" stroke="black" stroke-width="0.333333" stroke-linecap="round" stroke-linejoin="round"/>
<path d="M316.095 170.074V176.986" stroke="black" stroke-width="0.333333" stroke-linecap="round" stroke-linejoin="round"/>
<path d="M316.095 180.578V197.008" stroke="black" stroke-width="0.333333" stroke-linecap="round" stroke-linejoin="round"/>
<path d="M312.394 192.121V199.54" stroke="black" stroke-width="0.333333" stroke-linecap="round" stroke-linejoin="round"/>
<path d="M304.758 199.541H349.684" stroke="black" stroke-width="0.333333" stroke-linecap="round" stroke-linejoin="round"/>
<path d="M340.789 199.537V194.787" stroke="black" stroke-width="0.333333" stroke-linecap="round" stroke-linejoin="round"/>
<path d="M331.635 196.043V199.316" stroke="black" stroke-width="0.333333" stroke-linecap="round" stroke-linejoin="round"/>
<path d="M347.174 172.811H351.531" stroke="black" stroke-width="0.333333" stroke-linecap="round" stroke-linejoin="round"/>
<path d="M304.93 203.678H346.673" stroke="black" stroke-width="0.333333" stroke-linecap="round" stroke-linejoin="round"/>
<path d="M313.889 215.752V210.221H321.622V213.785H327.843V220.736H331.407V210.432H339.306V212.827H344.159" stroke="black" stroke-width="0.333333" stroke-linecap="round" stroke-linejoin="round"/>
<path d="M339.306 212.828V218.759" stroke="black" stroke-width="0.333333" stroke-linecap="round" stroke-linejoin="round"/>
<path d="M331.635 223.246V227.238" stroke="black" stroke-width="0.333333" stroke-linecap="round" stroke-linejoin="round"/>
<path d="M327.843 220.738V225.996" stroke="black" stroke-width="0.333333" stroke-linecap="round" stroke-linejoin="round"/>
<path d="M321.621 213.785V216.802" stroke="black" stroke-width="0.333333" stroke-linecap="round" stroke-linejoin="round"/>
</g>
<path d="M231.967 224.481H216.418L208 221.815L205.374 220.981L204.606 228.906L112.535 229.077C112.535 229.077 113.94 225.531 116.232 220.331C121.176 209.109 130.238 190.159 138.163 182.418C144.598 176.134 160.672 175.957 160.672 175.957C162.313 174.869 164.238 174.289 166.207 174.289C169.162 174.434 191.5 176.856 192.885 177.572C193.85 178.131 194.677 178.898 195.308 179.818C195.308 179.818 203.135 176.357 210.824 179.476C218.513 182.595 231.967 224.481 231.967 224.481Z" fill="#92E3A9"/>
<path opacity="0.2" d="M208.003 221.823L205.377 220.989L204.609 228.914L112.538 229.085C112.538 229.085 113.943 225.539 116.235 220.339C119.787 220.254 123.792 220.07 123.792 220.07L125.854 213.326C125.854 213.326 129.091 209.905 133.136 211.921C133.001 211.411 133.029 210.871 133.217 210.378C133.404 209.885 133.741 209.462 134.18 209.17C135.743 208.132 142.151 211.461 142.151 211.461C142.151 211.461 145.238 205.552 146.288 201.684C147.339 197.817 148.035 207.154 148.035 207.154C148.035 207.154 150.661 202.86 150.661 201.684C150.661 200.509 155.507 213.326 155.507 213.326C155.507 213.326 161.916 214.095 163.649 214.751C165.382 215.408 182.638 216.064 188.193 214.751C193.748 213.438 184.254 221.317 184.254 221.317C184.254 221.317 194.011 224.6 199.526 222.447C205.042 220.293 207.511 217.988 207.511 217.988C207.511 217.988 207.714 219.584 208.003 221.823Z" fill="black" fill-opacity="0.7"/>
<path d="M231.967 224.481H216.418L208 221.815L205.374 220.981L204.606 228.906L112.535 229.077C112.535 229.077 113.94 225.531 116.232 220.331C121.176 209.109 130.237 190.159 138.163 182.418C144.598 176.134 160.672 175.957 160.672 175.957C162.313 174.869 164.238 174.289 166.207 174.289C169.162 174.434 191.5 176.856 192.885 177.572C193.85 178.131 194.677 178.898 195.308 179.818C195.308 179.818 203.135 176.357 210.824 179.476C218.513 182.595 231.967 224.481 231.967 224.481Z" stroke="#263238" stroke-width="0.333333" stroke-linecap="round" stroke-linejoin="round"/>
<path d="M202.933 204.234C201.565 206.163 200.006 207.947 198.277 209.56" stroke="#263238" stroke-width="0.333333" stroke-linecap="round" stroke-linejoin="round"/>
<path d="M193.728 213.385C187.038 218.326 179.176 221.438 170.917 222.413" stroke="#263238" stroke-width="0.333333" stroke-linecap="round" stroke-linejoin="round"/>
<path d="M222.479 211.149C222.479 211.149 224.87 209.665 226.964 210.151C229.059 210.637 230.792 212.706 230.792 212.706C230.792 212.706 248.179 211.268 252.126 211.392C256.072 211.517 264.903 214.104 264.903 214.104C264.903 214.104 269.184 213.237 269.644 213.415C270.104 213.592 268.718 228.162 268.718 228.162H212.249C209.478 228.162 207.423 224.15 205.342 220.999C208.928 208.457 210.762 195.48 210.792 182.436" fill="#92E3A9"/>
<path opacity="0.2" d="M237.977 228.148H212.264C209.493 228.148 207.438 224.136 205.356 220.984C207.415 213.909 208.88 206.674 209.736 199.355C209.736 199.355 212.468 203.407 210.806 208.102L212.468 203.407C212.468 203.407 214.063 208.436 212.468 212.698C210.872 216.959 209.736 218.181 209.736 218.181C209.736 218.181 211.706 220.755 213.794 220.065C215.882 219.376 218.154 223.552 218.154 223.552C218.154 223.552 223.17 223.742 224.214 223.552C224.694 223.466 231.188 225.705 237.977 228.148Z" fill="black" fill-opacity="0.7"/>
<path d="M222.479 211.149C222.479 211.149 224.87 209.665 226.964 210.151C229.059 210.637 230.792 212.706 230.792 212.706C230.792 212.706 248.179 211.268 252.126 211.392C256.072 211.517 264.903 214.104 264.903 214.104C264.903 214.104 269.184 213.237 269.644 213.415C270.104 213.592 268.718 228.162 268.718 228.162H212.249C209.478 228.162 207.423 224.15 205.342 220.999C208.928 208.457 210.762 195.48 210.792 182.436" stroke="#263238" stroke-width="0.333333" stroke-linecap="round" stroke-linejoin="round"/>
<path d="M190.201 165.775V179.8C188.423 181.011 186.582 182.127 184.685 183.142C180.857 185.171 175.946 187.18 173.024 186.038C167.725 183.956 164.291 175.959 164.291 175.959C170.01 171.599 170.7 165.775 171.566 163.004L190.201 165.775Z" fill="white" stroke="#263238" stroke-width="0.333333" stroke-linecap="round" stroke-linejoin="round"/>
<path d="M161.52 177.031C161.52 177.031 166.372 187.596 172.262 189.507C178.152 191.418 188.126 183.959 188.126 183.959" stroke="#263238" stroke-width="0.333333" stroke-linecap="round" stroke-linejoin="round"/>
<path d="M135.025 189.814C135.025 189.814 144.218 196.972 145.761 199.381C147.304 201.791 145.761 224.484 145.761 224.484" stroke="#263238" stroke-width="0.333333" stroke-linecap="round" stroke-linejoin="round"/>
<path d="M122.51 212.906C127.928 209.413 131.736 213.235 135.026 213.924C138.315 214.614 145.59 210.897 151.047 213.924C156.503 216.951 156.503 215.894 156.503 215.894C156.503 215.894 162.216 220.254 159.268 228.98L112.517 229.066C112.517 229.066 109.398 222.401 119.648 212.893" fill="#92E3A9"/>
<path d="M122.51 212.906C127.928 209.413 131.736 213.235 135.026 213.924C138.315 214.614 145.59 210.897 151.047 213.924C156.503 216.951 156.503 215.894 156.503 215.894C156.503 215.894 162.216 220.254 159.268 228.98L112.517 229.066C112.517 229.066 109.398 222.401 119.648 212.893" stroke="#263238" stroke-width="0.333333" stroke-linecap="round" stroke-linejoin="round"/>
<path d="M168.321 199.399L180.659 221.967L181.047 224.501L179.077 222.748L166.352 200.344C166.539 200 166.83 199.723 167.184 199.553C167.537 199.383 167.935 199.329 168.321 199.399V199.399Z" fill="#E2E2E2" stroke="#263238" stroke-width="0.333333" stroke-linecap="round" stroke-linejoin="round"/>
<path d="M156.609 217.075C157.541 216.805 158.498 216.631 159.466 216.557C160.51 216.557 166.931 211.809 169.111 211.455C171.291 211.1 175.211 214.35 177.208 214.869C179.204 215.388 179.079 217.988 180.248 219.025C181.416 220.063 179.729 221.232 178.278 220.063C178.381 220.468 178.388 220.893 178.297 221.301C178.205 221.71 178.019 222.091 177.753 222.414C177.753 222.414 178.146 223.832 177.753 224.482H154.64C154.64 224.482 154.292 220.063 156.609 217.075Z" fill="white" stroke="#263238" stroke-width="0.333333" stroke-linecap="round" stroke-linejoin="round"/>
<path d="M178.324 220.063L176.242 218.008L170.917 216.301" stroke="#263238" stroke-width="0.333333" stroke-linecap="round" stroke-linejoin="round"/>
<path d="M177.805 222.416L174.62 220.985L170.267 220.164" stroke="#263238" stroke-width="0.333333" stroke-linecap="round" stroke-linejoin="round"/>
<path d="M170.267 223.551L174.62 223.748L177.805 224.483" stroke="#263238" stroke-width="0.333333" stroke-linecap="round" stroke-linejoin="round"/>
<path d="M169.13 211.455C167.161 213.182 169.13 215.001 168.192 216.301C167.253 217.601 166.222 217.988 167.023 220.063" stroke="#263238" stroke-width="0.333333" stroke-linecap="round" stroke-linejoin="round"/>
<path d="M197.24 225.58H302.416C302.416 226.508 302.048 227.398 301.391 228.055C300.735 228.711 299.845 229.08 298.917 229.08H205.677C205.312 229.079 204.948 229.022 204.6 228.909L197.109 226.493C197.002 226.461 196.91 226.391 196.85 226.297C196.79 226.203 196.765 226.09 196.781 225.98C196.797 225.869 196.852 225.768 196.936 225.695C197.02 225.621 197.128 225.581 197.24 225.58V225.58Z" fill="#E2E2E2"/>
<path opacity="0.2" d="M302.418 225.582C302.417 226.51 302.049 227.4 301.393 228.058L301.288 228.15C300.645 228.749 299.798 229.082 298.918 229.082H205.679C205.313 229.081 204.95 229.024 204.602 228.911L197.11 226.495C197.002 226.462 196.909 226.392 196.849 226.296C196.789 226.201 196.765 226.087 196.783 225.975C196.801 225.864 196.858 225.763 196.945 225.69C197.032 225.618 197.141 225.58 197.254 225.582H302.418Z" fill="black" fill-opacity="0.7"/>
<path opacity="0.2" d="M302.417 225.582C302.416 226.51 302.048 227.4 301.393 228.057L301.288 228.149H241.109C240.428 228.149 239.774 227.879 239.291 227.398C238.809 226.917 238.537 226.264 238.535 225.582H302.417Z" fill="black" fill-opacity="0.7"/>
<path d="M197.24 225.58H302.416C302.416 226.508 302.048 227.398 301.391 228.055C300.735 228.711 299.845 229.08 298.917 229.08H205.677C205.312 229.079 204.948 229.022 204.6 228.909L197.109 226.493C197.002 226.461 196.91 226.391 196.85 226.297C196.79 226.203 196.765 226.09 196.781 225.98C196.797 225.869 196.852 225.768 196.936 225.695C197.02 225.621 197.128 225.581 197.24 225.58V225.58Z" stroke="#263238" stroke-width="0.333333" stroke-linecap="round" stroke-linejoin="round"/>
<path d="M238.537 225.58C238.539 226.262 238.811 226.915 239.293 227.396C239.776 227.877 240.43 228.147 241.111 228.147H251.098" stroke="#263238" stroke-width="0.333333" stroke-linecap="round" stroke-linejoin="round"/>
<path d="M321.242 182.406V182.491L309.002 225.073C308.82 225.62 308.475 226.098 308.014 226.444C307.553 226.79 306.998 226.988 306.422 227.01H242.664C242.423 227.029 242.181 226.987 241.96 226.888C241.739 226.789 241.546 226.636 241.4 226.444C241.253 226.251 241.157 226.024 241.121 225.785C241.086 225.545 241.11 225.3 241.194 225.073L253.42 182.491C253.601 181.944 253.946 181.465 254.407 181.119C254.868 180.773 255.424 180.576 256 180.554H319.758C319.992 180.534 320.227 180.571 320.443 180.663C320.659 180.755 320.849 180.899 320.996 181.083C321.143 181.266 321.242 181.483 321.285 181.714C321.328 181.944 321.313 182.182 321.242 182.406Z" fill="#E2E2E2"/>
<path opacity="0.4" d="M321.242 182.408V182.494L309.003 225.075C308.82 225.622 308.476 226.1 308.015 226.446C307.554 226.792 306.998 226.99 306.422 227.012H243.085V226.927L255.305 184.345C255.487 183.798 255.832 183.32 256.293 182.974C256.754 182.628 257.309 182.431 257.885 182.408H321.242Z" fill="white"/>
<path d="M321.242 182.406V182.491L309.002 225.073C308.82 225.62 308.475 226.098 308.014 226.444C307.553 226.79 306.998 226.988 306.422 227.01H242.664C242.423 227.029 242.181 226.987 241.96 226.888C241.739 226.789 241.546 226.636 241.4 226.444C241.253 226.251 241.157 226.024 241.121 225.785C241.086 225.545 241.11 225.3 241.194 225.073L253.42 182.491C253.601 181.944 253.946 181.465 254.407 181.119C254.868 180.773 255.424 180.576 256 180.554H319.758C319.992 180.534 320.227 180.571 320.443 180.663C320.659 180.755 320.849 180.899 320.996 181.083C321.143 181.266 321.242 181.483 321.285 181.714C321.328 181.944 321.313 182.182 321.242 182.406Z" stroke="#263238" stroke-width="0.333333" stroke-linecap="round" stroke-linejoin="round"/>
<path d="M285.804 204.568C285.261 205.686 284.424 206.635 283.383 207.314C282.342 207.993 281.137 208.376 279.895 208.423C277.216 208.423 275.633 206.348 276.369 203.787C276.808 202.476 277.636 201.331 278.742 200.502C279.848 199.673 281.179 199.199 282.561 199.145H282.679C282.555 199.398 282.454 199.661 282.377 199.932C281.622 202.474 283.165 204.529 285.804 204.568Z" fill="white" stroke="#263238" stroke-width="0.333333" stroke-linecap="round" stroke-linejoin="round"/>
<path d="M243.413 224.924L255.344 183.36C255.45 183.041 255.651 182.763 255.92 182.561C256.188 182.359 256.512 182.244 256.847 182.23H318.648" stroke="#263238" stroke-width="0.333333" stroke-linecap="round" stroke-linejoin="round"/>
<path d="M213.793 229.081H125.807L126.87 226.862C126.87 226.862 135.183 227.637 141.769 225.582C144.678 224.675 149.156 224.268 153.647 224.321C156.477 224.36 163.365 224.387 167.64 224.367C169.163 224.367 170.358 224.367 170.923 224.327C171.139 224.327 171.356 224.327 171.579 224.327C172.798 224.313 174.015 224.427 175.21 224.669C176.363 224.538 177.524 224.481 178.684 224.498C180.713 224.498 189.439 224.465 191.816 224.498C194.948 224.538 198.566 225.155 202 225.628L202.092 225.595V225.641C206.242 226.219 210.129 226.612 212.598 225.595L213.793 229.081Z" fill="white"/>
<path opacity="0.4" d="M213.795 229.082H145.593L146.978 226.698C146.978 226.698 150.701 228.872 154.339 227.355C157.977 225.838 161.64 225.011 167.642 224.354C168.951 224.214 170.27 224.197 171.582 224.302C174.194 224.502 176.763 225.086 179.205 226.035C179.205 226.035 182.783 224.473 191.818 224.473C194.951 224.512 198.568 225.129 202.003 225.602L202.095 225.569V225.615C206.244 226.193 210.131 226.587 212.6 225.569L213.795 229.082Z" fill="#E2E2E2"/>
<path d="M146.977 226.697L126.898 226.861L125.834 229.081H145.592L146.977 226.697Z" fill="#E2E2E2"/>
<path d="M146.155 228.104L146.976 226.698C148.751 227.471 150.667 227.869 152.603 227.867C155.545 227.782 160.194 224.138 169.13 224.315" stroke="#263238" stroke-width="0.333333" stroke-linecap="round" stroke-linejoin="round"/>
<path d="M175.19 224.655C176.839 225.259 179.183 226.047 179.183 226.047C179.183 226.047 182.216 224.3 188.881 224.484" stroke="#263238" stroke-width="0.333333" stroke-linecap="round" stroke-linejoin="round"/>
<path d="M146.978 226.697C146.978 226.697 136.59 226.881 132.434 226.973" stroke="#263238" stroke-width="0.333333" stroke-linecap="round" stroke-linejoin="round"/>
<path d="M177.798 229.082C177.854 228.654 178.044 228.255 178.34 227.94C178.635 227.626 179.022 227.412 179.446 227.329C180.917 227.086 181.869 228.905 181.869 228.905" stroke="#263238" stroke-width="0.333333" stroke-linecap="round" stroke-linejoin="round"/>
<path d="M179.185 226.047L179.447 227.327" stroke="#263238" stroke-width="0.333333" stroke-linecap="round" stroke-linejoin="round"/>
<path d="M180.662 227.329C180.662 227.329 185.337 225.195 189.855 225.582" stroke="#263238" stroke-width="0.333333" stroke-linecap="round" stroke-linejoin="round"/>
<path d="M178.738 227.584C178.325 227.262 171.305 225.095 164.122 226.697" stroke="#263238" stroke-width="0.333333" stroke-linecap="round" stroke-linejoin="round"/>
<path d="M177.798 228.471C177.798 228.471 171.888 227.349 166.747 228.13" stroke="#263238" stroke-width="0.333333" stroke-linecap="round" stroke-linejoin="round"/>
<path d="M181.317 228.144C185.24 227.051 189.345 226.773 193.379 227.33C197.352 227.921 201.366 228.189 205.382 228.131" stroke="#263238" stroke-width="0.333333" stroke-linecap="round" stroke-linejoin="round"/>
<path d="M213.793 229.081H125.807L126.87 226.862C126.87 226.862 135.183 227.637 141.769 225.582C144.678 224.675 149.156 224.268 153.647 224.321C156.477 224.36 163.365 224.387 167.64 224.367C169.163 224.367 170.358 224.367 170.923 224.327C171.139 224.327 171.356 224.327 171.579 224.327C172.798 224.313 174.015 224.427 175.21 224.669C176.363 224.538 177.524 224.481 178.684 224.498C180.713 224.498 189.439 224.465 191.816 224.498C194.948 224.538 198.566 225.155 202 225.628L202.092 225.595V225.641C206.242 226.219 210.129 226.612 212.598 225.595L213.793 229.081Z" stroke="#263238" stroke-width="0.333333" stroke-linecap="round" stroke-linejoin="round"/>
<path d="M190.202 177.468V179.799C188.424 181.01 186.583 182.125 184.686 183.141C180.477 179.273 179.88 171.926 179.88 171.926L190.202 177.468Z" fill="#263238"/>
<path d="M172.262 164.046C167.311 156.724 168.323 143.034 174.685 135.562C184.035 124.649 208.435 132.62 208.416 148.037C208.396 150.18 208.212 152.318 207.864 154.433C207.542 156.468 205.776 158.524 205.238 160.552C204.699 162.581 204.916 165.805 204.699 167.775C204.213 172.26 198.008 181.157 196.327 182.122C193.977 183.436 181.271 179.87 178.5 171.722" fill="white"/>
<path d="M172.262 164.046C167.311 156.724 168.323 143.034 174.685 135.562C184.035 124.649 208.435 132.62 208.416 148.037C208.396 150.18 208.212 152.318 207.864 154.433C207.542 156.468 205.776 158.524 205.238 160.552C204.699 162.581 204.916 165.805 204.699 167.775C204.213 172.26 198.008 181.157 196.327 182.122C193.977 183.436 181.271 179.87 178.5 171.722" stroke="#263238" stroke-width="0.333333" stroke-linecap="round" stroke-linejoin="round"/>
<path d="M190.334 155.001C190.334 155.001 192.793 153.501 195.001 155.001" stroke="#263238" stroke-width="0.333333" stroke-linecap="round" stroke-linejoin="round"/>
<path d="M203.333 155.001C203.333 155.001 205.53 153.501 207 155.001" stroke="#263238" stroke-width="0.333333" stroke-linecap="round" stroke-linejoin="round"/>
<path d="M192.814 160.878C192.63 161.765 192.026 162.395 191.501 162.283C190.976 162.172 190.628 161.351 190.811 160.458C190.995 159.565 191.599 158.941 192.157 159.059C192.716 159.177 192.998 160.005 192.814 160.878Z" fill="#263238"/>
<path d="M203.95 160.878C203.766 161.765 203.162 162.395 202.637 162.283C202.111 162.172 201.763 161.351 201.947 160.458C202.131 159.565 202.729 158.941 203.293 159.059C203.858 159.177 204.134 160.005 203.95 160.878Z" fill="#263238"/>
<path d="M202.13 156.34C202.13 156.34 200.482 159.196 200.311 161.593C200.14 163.989 202.938 168.953 202.13 170.51C201.322 172.066 197.888 171.987 196.759 171.035" fill="white"/>
<path d="M202.13 156.34C202.13 156.34 200.482 159.196 200.311 161.593C200.14 163.989 202.938 168.953 202.13 170.51C201.322 172.066 197.888 171.987 196.759 171.035" stroke="#263238" stroke-width="0.333333" stroke-linecap="round" stroke-linejoin="round"/>
<path d="M198.25 174.713C195.981 174.392 193.668 174.722 191.579 175.665" stroke="#263238" stroke-width="0.333333" stroke-linecap="round" stroke-linejoin="round"/>
<path d="M177.227 157.292C177.227 157.292 178.842 155.729 180.746 156.34C182.65 156.951 182.998 162.138 182.998 162.138L184.384 160.66C184.384 160.66 186.666 154.833 186.833 154.667C186.833 154.667 187.166 153.333 191.499 151.833C191.499 151.833 195.499 150.667 196.166 150.5L198.666 150L201.833 149.667C201.833 149.667 203.358 149.667 204.499 149.667H205.333C205.333 149.667 206.868 149.513 207.666 149.333L208.333 149L208.999 148.667L209.333 148C209.333 148 212.303 140.312 202.933 132.866C193.563 125.42 177.522 127.107 175.027 132.866C175.027 132.866 175.854 128.624 177.522 127.107C177.522 127.107 172.926 129.156 173.024 133.385C173.024 133.385 168.966 132.866 166.891 135.466C168.163 135.37 169.442 135.427 170.7 135.637C170.7 135.637 165.158 138.92 165.506 146.721C165.854 154.521 170.7 165.762 170.7 165.762L174.495 164.653C174.495 164.653 175.099 159.347 177.227 157.292Z" fill="#263238"/>
<path d="M181.436 159.193C181.436 159.193 178.494 153.999 176.938 153.651C175.382 153.303 172.434 155.385 173.123 158.156C173.813 160.927 174.338 165.602 175.205 166.12C176.071 166.639 177.457 169.758 178.842 168.891C179.025 168.797 179.182 168.662 179.303 168.496C179.424 168.331 179.504 168.139 179.537 167.937C179.57 167.734 179.555 167.527 179.494 167.331C179.433 167.136 179.327 166.957 179.184 166.81" fill="white"/>
<path d="M181.436 159.193C181.436 159.193 178.494 153.999 176.938 153.651C175.382 153.303 172.434 155.385 173.123 158.156C173.813 160.927 174.338 165.602 175.205 166.12C176.071 166.639 177.457 169.758 178.842 168.891C179.025 168.797 179.182 168.662 179.303 168.496C179.424 168.331 179.504 168.139 179.537 167.937C179.57 167.734 179.555 167.527 179.494 167.331C179.433 167.136 179.327 166.957 179.184 166.81" stroke="#263238" stroke-width="0.333333" stroke-linecap="round" stroke-linejoin="round"/>
<path d="M214.337 199.354C214.039 200.634 213.658 201.893 213.194 203.123" stroke="#263238" stroke-width="0.333333" stroke-linecap="round" stroke-linejoin="round"/>
<path d="M212.139 205.633C211.093 208.019 209.558 210.159 207.635 211.917" stroke="#263238" stroke-width="0.333333" stroke-linecap="round" stroke-linejoin="round"/>
<path d="M230.807 212.704C229.907 212.586 228.075 213.722 226.395 215.186" stroke="#263238" stroke-width="0.333333" stroke-linecap="round" stroke-linejoin="round"/>
<path d="M225.159 216.348C223.846 217.707 222.828 219.145 222.828 220.064" stroke="#263238" stroke-width="0.333333" stroke-linecap="round" stroke-linejoin="round"/>
<path d="M129.688 209.166C129.688 209.166 133.425 210.203 133.457 213.408" stroke="#263238" stroke-width="0.333333" stroke-linecap="round" stroke-linejoin="round"/>
<path d="M143.686 191.672C144.306 192.366 144.87 193.108 145.373 193.891" stroke="#263238" stroke-width="0.333333" stroke-linecap="round" stroke-linejoin="round"/>
<path d="M146.851 196.596C147.586 198.191 147.982 199.922 148.013 201.678C148.013 207.082 146.457 210.214 146.457 210.214" stroke="#263238" stroke-width="0.333333" stroke-linecap="round" stroke-linejoin="round"/>
<path d="M166.373 186.375C167.364 187.296 168.424 188.139 169.544 188.896" stroke="#263238" stroke-width="0.333333" stroke-linecap="round" stroke-linejoin="round"/>
<path d="M172.841 190.865C176.196 192.559 180.536 193.833 185.041 192.71" stroke="#263238" stroke-width="0.333333" stroke-linecap="round" stroke-linejoin="round"/>
<g opacity="0.2">
<path opacity="0.2" d="M179.878 133.141C181.051 132.962 182.237 132.885 183.424 132.911" stroke="white" stroke-width="0.333333" stroke-linecap="round" stroke-linejoin="round"/>
<path opacity="0.2" d="M185.152 133.006C188.363 133.308 192.316 134.431 194.772 137.819" stroke="white" stroke-width="0.333333" stroke-linecap="round" stroke-linejoin="round"/>
<path opacity="0.2" d="M187.674 130.508C187.674 130.508 193.695 130.573 198.009 133.587" stroke="white" stroke-width="0.333333" stroke-linecap="round" stroke-linejoin="round"/>
<path opacity="0.2" d="M199.702 135.049C200.474 135.856 201.093 136.797 201.528 137.826" stroke="white" stroke-width="0.333333" stroke-linecap="round" stroke-linejoin="round"/>
<path opacity="0.2" d="M178.322 135.707C178.322 135.707 184.232 137.788 186.287 141.512" stroke="white" stroke-width="0.333333" stroke-linecap="round" stroke-linejoin="round"/>
<path opacity="0.2" d="M175.459 137.814C176.74 139.589 177.661 141.596 178.171 143.724" stroke="white" stroke-width="0.333333" stroke-linecap="round" stroke-linejoin="round"/>
<path opacity="0.2" d="M178.539 146.65C178.547 147.435 178.474 148.218 178.322 148.988" stroke="white" stroke-width="0.333333" stroke-linecap="round" stroke-linejoin="round"/>
<path opacity="0.2" d="M171.481 140.242C171.177 141.015 170.924 141.807 170.726 142.613" stroke="white" stroke-width="0.333333" stroke-linecap="round" stroke-linejoin="round"/>
<path opacity="0.2" d="M170.26 144.9C169.915 146.948 169.888 149.037 170.181 151.092" stroke="white" stroke-width="0.333333" stroke-linecap="round" stroke-linejoin="round"/>
</g>
<path d="M248.864 235.998H331.667V229.09H101V235.998H147.637" fill="#263238"/>
<rect y="262" width="360" height="98" fill="white"/>
<g opacity="0.5">
<path opacity="0.5" d="M300.663 77.6609C314.653 77.6609 325.994 66.32 325.994 52.3304C325.994 38.3408 314.653 27 300.663 27C286.674 27 275.333 38.3408 275.333 52.3304C275.333 66.32 286.674 77.6609 300.663 77.6609Z" stroke="black" stroke-width="0.333333" stroke-miterlimit="10"/>
<path opacity="0.5" d="M300.664 75.128C313.254 75.128 323.461 64.9212 323.461 52.3306C323.461 39.7399 313.254 29.5332 300.664 29.5332C288.073 29.5332 277.866 39.7399 277.866 52.3306C277.866 64.9212 288.073 75.128 300.664 75.128Z" stroke="black" stroke-width="0.333333" stroke-miterlimit="10"/>
<path opacity="0.5" d="M291.793 58.0197L300.664 52.3305L291.135 36.7422" stroke="black" stroke-width="0.333333" stroke-miterlimit="10"/>
</g>
<path d="M52.7301 78.1872C51.355 78.3028 50.3159 76.9249 50.0865 74.1945C49.8588 71.4841 50.6533 69.9522 52.0284 69.8366C53.3836 69.7228 54.4426 71.0989 54.6704 73.8094C54.8998 76.5397 54.0853 78.0733 52.7301 78.1872ZM51.8291 67.465C49.039 67.6994 47.2171 70.3814 47.5554 74.4072C47.8954 78.453 50.1409 80.8132 52.9311 80.5788C55.7013 80.346 57.5414 77.6424 57.2014 73.5967C56.8632 69.5709 54.5994 67.2322 51.8291 67.465ZM64.4204 72.0869L61.7498 72.3113L61.1687 65.3957L58.5379 65.6168L60.0803 83.9721L62.711 83.751L61.9323 74.4837L64.6029 74.2593L64.4204 72.0869ZM79.1267 67.9811L69.1618 68.8184L69.0261 67.2041L78.8515 66.3785L78.6757 64.2859L66.2395 65.3309L66.7251 71.1105L79.3008 70.0538L79.1267 67.9811ZM69.9284 79.853L79.973 79.009L79.5644 74.1461L66.8891 75.2112L67.0549 77.1842L77.1393 76.3369L77.2264 77.3732L67.1619 78.2189L67.5789 83.1814L80.7126 82.0778L80.5434 80.0649L70.0205 80.9491L69.9284 79.853ZM64.7544 72.2596L64.9286 74.3323L81.5301 72.9373L81.3559 70.8646L64.7544 72.2596ZM93.2489 71.6875C93.3503 72.8942 93.1309 73.8992 92.5908 74.7024C92.0507 75.5057 91.3038 75.9474 90.3501 76.0275C89.87 76.0678 89.4148 76.0146 88.9843 75.8679C88.5598 75.7141 88.0568 75.4035 87.4752 74.9363C86.8931 74.4625 86.375 74.2447 85.9209 74.2829C85.5446 74.3145 85.2533 74.5023 85.0471 74.8463C84.8408 75.1903 84.7589 75.6153 84.8014 76.1213L82.7075 76.2777C82.6061 75.071 82.8166 74.0766 83.3388 73.2944C83.8676 72.5117 84.6186 72.0795 85.5917 71.9977C86.0977 71.9552 86.5665 72.0138 86.9981 72.1735C87.4296 72.3333 87.9294 72.6441 88.4974 73.106C89.0714 73.5608 89.5757 73.77 90.0104 73.7334C90.3931 73.7013 90.6901 73.5032 90.9012 73.1392C91.1189 72.7746 91.207 72.3458 91.1655 71.8528L93.2489 71.6875ZM108.982 69.6872C106.035 69.0116 104.582 67.0062 104.35 64.9585L107.937 64.6571L107.761 62.5644L97.8562 63.3967L98.0321 65.4894L101.679 65.1829C101.809 67.44 100.684 69.8225 97.7934 71.0087L99.2646 72.9925C101.358 72.1141 102.713 70.5552 103.381 68.7128C104.334 70.2585 105.834 71.3968 107.901 71.8654L108.982 69.6872ZM103.596 75.338L110.372 74.7687L110.597 77.4393L103.821 78.0086L103.596 75.338ZM101.402 80.2791L113.34 79.276L112.771 72.4999L100.833 73.503L101.402 80.2791ZM114.596 65.081L112.165 65.2853L111.818 61.1598L109.187 61.3809L110.078 71.9835L112.709 71.7625L112.345 67.4377L114.777 67.2334L114.596 65.081ZM122.163 72.0318C125.181 69.0085 125.708 65.7328 125.351 61.4878L120.867 61.8646L121.043 63.9572L123.076 63.7864C123.068 66.5568 122.328 68.5056 120.332 70.5399L122.163 72.0318ZM115.327 62.3301L115.503 64.4228L117.914 64.2201C117.868 66.773 117.105 68.4427 115.247 70.2245L117.079 71.7164C119.917 68.949 120.568 65.944 120.229 61.9182L115.327 62.3301ZM120.777 72.7303L118.146 72.9514L118.632 78.731L131.287 77.6676L131.111 75.575L121.086 76.4173L120.777 72.7303ZM129.619 65.2236L129.154 59.6831L126.523 59.9041L127.648 73.2969L130.279 73.0759L129.8 67.376L132.231 67.1717L132.051 65.0193L129.619 65.2236ZM61.5233 100.429L62.8786 100.315L63.3776 106.254L65.8688 106.045L64.705 92.1937L62.2137 92.403L62.6994 98.1827L61.3442 98.2965L60.887 92.8557L58.4356 93.0617L59.5442 106.255L61.9956 106.049L61.5233 100.429ZM58.0497 94.6797L54.8809 94.946L54.7369 93.232L52.146 93.4497L52.29 95.1637L49.1212 95.4299L49.2937 97.4827L58.2222 96.7325L58.0497 94.6797ZM52.5035 101.287C52.4232 100.331 53.0373 99.7572 54.0139 99.6752C54.9705 99.5948 55.6717 100.058 55.7521 101.014C55.8341 101.991 55.22 102.564 54.2634 102.645C53.2868 102.727 52.5856 102.264 52.5035 101.287ZM58.0839 100.818C57.9131 98.7856 56.1383 97.4896 53.8464 97.6822C51.5345 97.8765 50.0009 99.4504 50.1718 101.483C50.3442 103.536 52.119 104.832 54.4308 104.638C56.7228 104.445 58.2564 102.871 58.0839 100.818ZM56.3189 108.955L56.0359 105.587L53.4052 105.808L53.8641 111.268L66.6789 110.192L66.5031 108.099L56.3189 108.955ZM81.9568 99.274L71.6731 100.138L71.2678 95.3151L81.4121 94.4627L81.2329 92.3303L68.4579 93.4037L69.2182 102.452L82.1327 101.367L81.9568 99.274ZM67.5747 106.062L67.7556 108.215L84.377 106.818L84.1961 104.665L67.5747 106.062ZM89.4586 103.059L86.8278 103.28L87.2632 108.462L99.9784 107.394L99.8026 105.301L89.7181 106.148L89.4586 103.059ZM90.365 92.8273L94.1317 92.5108L94.3913 95.6L90.6246 95.9165L90.365 92.8273ZM94.1265 99.3754L93.9875 97.7212L99.3685 97.2691L99.1944 95.1964L97.0021 95.3806L96.7425 92.2915L99.0743 92.0955L98.8985 90.0029L85.2466 91.15L85.4224 93.2427L87.7542 93.0467L88.0138 96.1358L85.8016 96.3217L85.9757 98.3944L91.3568 97.9423L91.4958 99.5964L84.5403 100.181L84.7161 102.274L101.298 100.88L101.122 98.7876L94.1265 99.3754ZM103.314 96.4759C106.734 95.8474 108.879 94.3826 109.708 92.5467C110.812 94.2202 113.191 95.3048 116.667 95.3539L117.41 93.2041C113.959 93.2132 112.064 92.1681 111.502 90.971L116.385 90.5607L116.209 88.468L102.637 89.6085L102.813 91.7011L107.676 91.2925C107.321 92.5667 105.628 93.9132 102.223 94.4802L103.314 96.4759ZM106.76 102.85L114.274 102.218L114.441 104.211L106.928 104.843L106.76 102.85ZM104.529 107.112L117.205 106.046L116.692 99.9479L104.017 101.013L104.529 107.112ZM111.38 96.9221L111.201 94.7896L108.57 95.0107L108.749 97.1431L101.794 97.7276L101.97 99.8202L118.551 98.4269L118.375 96.3343L111.38 96.9221ZM126.306 92.7978L130.372 92.4562L130.548 94.5488L126.482 94.8904L126.306 92.7978ZM130.024 96.6801L133.333 96.4021L132.624 87.9718L130.013 88.1912L130.203 90.4433L126.137 90.7849L125.948 88.5328L123.357 88.7505L124.065 97.1808L127.393 96.9012L127.633 99.7511C126.06 99.9034 124.565 100.029 123.25 100.139L123.748 102.245C126.819 102.007 130.905 101.664 134.691 100.623L134.311 98.7284C133.03 99.0166 131.644 99.2335 130.255 99.4304L130.024 96.6801ZM139.894 93.2817L137.483 93.4844L136.865 86.1303L134.234 86.3513L135.775 104.687L138.406 104.466L137.665 95.6567L140.077 95.4541L139.894 93.2817ZM141.839 92.5564C145.187 92.0342 147.388 90.7654 148.337 89.1603C149.542 90.6045 151.943 91.4665 155.331 91.4226L155.963 89.3826C152.576 89.4464 150.679 88.6023 150.01 87.5746L155.013 87.1543L154.84 85.1015L141.268 86.242L141.441 88.2947L146.443 87.8744C145.936 89.0009 144.186 90.1514 140.856 90.652L141.839 92.5564ZM157.08 93.8447L156.908 91.7919L140.326 93.1852L140.499 95.238L147.474 94.6519L147.571 95.8078L142.489 96.2348L142.65 98.1481L152.734 97.3007L152.82 98.3171L142.755 99.1628L143.157 103.946L156.291 102.842L156.127 100.889L145.604 101.773L145.517 100.737L155.561 99.8931L155.164 95.1698L150.202 95.5867L150.105 94.4308L157.08 93.8447ZM160.847 93.0666L165.211 92.6998L164.614 85.5849L157.678 86.1677L157.855 88.2802L162.26 87.9101L162.506 90.8398L158.122 91.2082L158.75 98.6819L160.045 98.573C162.257 98.3872 164.245 98.1599 166.565 97.5836L166.187 95.4679C164.376 95.901 162.79 96.1346 161.12 96.3151L160.847 93.0666ZM170.302 83.3006L170.885 90.2361L169.231 90.3751L168.677 83.7784L166.225 83.9843L167.667 101.144L170.118 100.938L169.408 92.4877L171.063 92.3487L171.845 101.656L174.336 101.447L172.793 83.0912L170.302 83.3006ZM177.941 95.057C177.864 94.1488 177.914 93.4161 178.089 92.8591C178.264 92.3021 178.622 91.7396 179.162 91.1715C179.709 90.5964 180.065 90.1385 180.233 89.7978C180.4 89.4506 180.468 89.0953 180.437 88.732C180.345 87.6356 179.793 87.1299 178.781 87.215C178.301 87.2553 177.927 87.437 177.661 87.7599C177.4 88.0758 177.285 88.4939 177.315 89.014L174.493 89.2511C174.402 88.0109 174.719 87.0075 175.446 86.2408C176.178 85.4737 177.226 85.0329 178.588 84.9184C179.963 84.8028 181.059 85.0472 181.874 85.6517C182.689 86.2496 183.147 87.1552 183.249 88.3684C183.295 88.9198 183.216 89.4524 183.011 89.9662C182.805 90.4735 182.419 91.0514 181.853 91.7001L181.128 92.5156C180.674 93.0306 180.439 93.609 180.421 94.2508L180.432 94.8477L177.941 95.057ZM177.909 98.0683C177.873 97.6336 177.989 97.2645 178.257 96.961C178.532 96.6505 178.899 96.4759 179.36 96.4372C179.821 96.3985 180.209 96.5096 180.525 96.7705C180.847 97.0244 181.026 97.3687 181.062 97.8033C181.098 98.2315 180.982 98.5973 180.714 98.9008C180.452 99.2038 180.084 99.3752 179.61 99.415C179.137 99.4547 178.742 99.3474 178.427 99.093C178.118 98.838 177.945 98.4964 177.909 98.0683Z" fill="#DCFBE5"/>
<g filter="url(#filter0_d_173_252)">
<path d="M11.333 68.8076C15.1103 66.5339 58.6847 37.0992 79.9997 22.666M11.333 76.9993L68.128 51.2537" stroke="#92E3A9" stroke-width="3.33333"/>
</g>
<g filter="url(#filter1_d_173_252)">
<path d="M13.8566 125.558C17.7653 126.961 63.5844 146.239 86.0054 155.702M11.9931 117.633L68.843 130.551" stroke="#92E3A9" stroke-width="3.33333"/>
</g>
<path d="M90.321 296.147H85.3876V290.707H90.321V296.147ZM90.321 287.961H85.3876V282.014H81.8943V298.947H93.8143V282.014H90.321V287.961ZM103.948 289.214H100.374V280.094H96.8543V304.627H100.374V292.147H103.948V289.214ZM121.492 288.227H119.412V286.041H121.492V288.227ZM124.799 280.974H121.492V283.321H119.412V280.974H116.132V291.001H124.799V280.974ZM111.492 288.227H109.386V286.041H111.492V288.227ZM114.772 280.974H111.492V283.321H109.386V280.974H106.052V291.001H114.772V280.974ZM110.399 296.947H106.879V304.201H124.212V301.401H110.399V296.947ZM104.319 292.654V295.454H126.559V292.654H104.319ZM131.73 285.641H137.623V282.841H128.263V299.161H129.943C133.543 299.161 135.97 299.054 138.717 298.521L138.423 295.641C136.263 296.067 134.29 296.227 131.73 296.281V285.641ZM140.21 289.027H135.943V291.881H140.21V303.534H143.49V280.521H140.21V289.027ZM145.303 280.041V304.601H148.637V280.041H145.303ZM97.281 322.081H87.1743V319.547H97.281V322.081ZM100.748 314.001H97.281V316.801H87.1743V314.001H83.681V324.881H100.748V314.001ZM103.388 327.201H81.1476V330.001H90.4276V337.654H93.9476V330.001H103.388V327.201ZM110.132 317.654H120.719V324.161H110.132V317.654ZM117.199 331.921V326.934H124.159V314.881H106.692V326.934H113.679V331.921H104.346V334.774H126.586V331.921H117.199ZM142.397 321.734C139.17 322.454 136.077 322.694 132.423 322.747V314.481H128.93V325.654H131.063C135.463 325.654 139.063 325.387 142.823 324.587L142.397 321.734ZM135.063 330.614H144.477V334.587H135.063V330.614ZM131.597 337.334H147.917V327.841H131.597V337.334ZM144.397 313.041V326.801H147.917V313.041H144.397ZM167.568 313.041V337.681H171.088V313.041H167.568ZM157.888 314.774C154.181 314.774 151.435 318.134 151.435 323.521C151.435 328.934 154.181 332.321 157.888 332.321C161.595 332.321 164.341 328.934 164.341 323.521C164.341 318.134 161.595 314.774 157.888 314.774ZM157.888 317.947C159.701 317.947 160.955 319.894 160.955 323.521C160.955 327.174 159.701 329.121 157.888 329.121C156.075 329.121 154.821 327.174 154.821 323.521C154.821 319.894 156.075 317.947 157.888 317.947ZM195.38 322.081H185.273V319.547H195.38V322.081ZM198.847 314.001H195.38V316.801H185.273V314.001H181.78V324.881H198.847V314.001ZM201.487 327.201H179.247V330.001H188.527V337.654H192.047V330.001H201.487V327.201ZM218.711 320.161H205.005V328.454H222.738V325.654H208.498V322.907H222.178V314.721H204.978V317.521H218.711V320.161ZM202.445 331.974V334.854H224.685V331.974H202.445ZM246.042 313.094H242.496V330.987H246.042V313.094ZM240.682 324.481C236.682 323.201 234.976 320.054 234.976 316.801V314.427H231.402V316.801C231.402 320.081 229.642 323.521 225.562 324.907L227.349 327.707C230.202 326.721 232.122 324.721 233.242 322.241C234.309 324.534 236.176 326.347 238.896 327.281L240.682 324.481ZM233.216 334.401V329.281H229.696V337.201H246.656V334.401H233.216ZM253.294 318.187H261.24V315.334H249.8V331.787H251.88C256.147 331.787 259.507 331.654 263.214 330.987L262.867 328.081C259.694 328.614 256.787 328.801 253.294 328.854V318.187ZM271.64 322.134H268.067V313.067H264.547V337.681H268.067V325.041H271.64V322.134ZM275.41 329.514C275.41 328.298 275.557 327.331 275.853 326.61C276.148 325.89 276.686 325.182 277.467 324.488C278.257 323.785 278.782 323.216 279.043 322.782C279.303 322.339 279.433 321.875 279.433 321.389C279.433 319.922 278.756 319.188 277.402 319.188C276.76 319.188 276.243 319.388 275.853 319.787C275.471 320.178 275.271 320.72 275.254 321.415H271.478C271.495 319.757 272.029 318.459 273.079 317.521C274.138 316.584 275.579 316.115 277.402 316.115C279.242 316.115 280.67 316.562 281.686 317.456C282.701 318.342 283.209 319.596 283.209 321.219C283.209 321.957 283.044 322.656 282.715 323.316C282.385 323.967 281.807 324.692 280.983 325.49L279.928 326.493C279.268 327.127 278.891 327.869 278.795 328.719L278.743 329.514H275.41ZM275.032 333.511C275.032 332.929 275.228 332.452 275.618 332.079C276.017 331.697 276.525 331.506 277.142 331.506C277.758 331.506 278.261 331.697 278.652 332.079C279.051 332.452 279.251 332.929 279.251 333.511C279.251 334.084 279.056 334.557 278.665 334.93C278.283 335.304 277.775 335.49 277.142 335.49C276.508 335.49 275.996 335.304 275.605 334.93C275.223 334.557 275.032 334.084 275.032 333.511Z" fill="#0B5932"/>
<path d="M206.501 150.165C206.334 150.498 206.001 150.665 206.001 150.665C206.001 150.665 208.001 149.832 208.334 149.498C208.667 149.165 209.001 148.668 209.001 148.668C208.667 148.165 201.201 147.135 200.667 147.001C200.134 146.868 187.167 150.831 187.834 153.501C187.167 153.998 186.501 153.998 186.334 155.665C188.001 154.831 190.001 153.998 190.501 153.498C190.501 153.498 190.167 153.998 189.834 154.165C193.967 153.765 197.556 151.335 198.667 150.335C198.556 150.612 197.934 151.435 196.334 152.501C199.401 152.101 202.056 150.446 203.001 149.668C203.167 149.779 203.001 150.301 201.001 151.501C205.401 150.968 206.834 149.498 206.834 149.498L206.501 150.165Z" fill="#263238"/>
</g>
<defs>
<filter id="filter0_d_173_252" x="9.1403" y="21.2852" width="73.1276" height="59.8991" filterUnits="userSpaceOnUse" color-interpolation-filters="sRGB">
<feFlood flood-opacity="0" result="BackgroundImageFix"/>
<feColorMatrix in="SourceAlpha" type="matrix" values="0 0 0 0 0 0 0 0 0 0 0 0 0 0 0 0 0 0 127 0" result="hardAlpha"/>
<feOffset dy="1.33333"/>
<feGaussianBlur stdDeviation="0.666667"/>
<feComposite in2="hardAlpha" operator="out"/>
<feColorMatrix type="matrix" values="0 0 0 0 0 0 0 0 0 0 0 0 0 0 0 0 0 0 0.25 0"/>
<feBlend mode="normal" in2="BackgroundImageFix" result="effect1_dropShadow_173_252"/>
<feBlend mode="normal" in="SourceGraphic" in2="effect1_dropShadow_173_252" result="shape"/>
</filter>
<filter id="filter1_d_173_252" x="10.2907" y="116.008" width="77.696" height="43.8971" filterUnits="userSpaceOnUse" color-interpolation-filters="sRGB">
<feFlood flood-opacity="0" result="BackgroundImageFix"/>
<feColorMatrix in="SourceAlpha" type="matrix" values="0 0 0 0 0 0 0 0 0 0 0 0 0 0 0 0 0 0 127 0" result="hardAlpha"/>
<feOffset dy="1.33333"/>
<feGaussianBlur stdDeviation="0.666667"/>
<feComposite in2="hardAlpha" operator="out"/>
<feColorMatrix type="matrix" values="0 0 0 0 0 0 0 0 0 0 0 0 0 0 0 0 0 0 0.25 0"/>
<feBlend mode="normal" in2="BackgroundImageFix" result="effect1_dropShadow_173_252"/>
<feBlend mode="normal" in="SourceGraphic" in2="effect1_dropShadow_173_252" result="shape"/>
</filter>
<clipPath id="clip0_173_252">
<rect width="360" height="360" fill="white"/>
</clipPath>
</defs>
</svg>
