<svg width="360" height="360" viewBox="0 0 360 360" fill="none" xmlns="http://www.w3.org/2000/svg">
<g clip-path="url(#clip0_183_1102)">
<rect width="360" height="360" fill="#25A765"/>
<path d="M170.097 237.915C235.321 237.915 288.195 234.828 288.195 231.02C288.195 227.212 235.321 224.125 170.097 224.125C104.874 224.125 52 227.212 52 231.02C52 234.828 104.874 237.915 170.097 237.915Z" fill="#F5F5F5"/>
<path d="M293.701 102.716H147.354L141.537 18.5273H287.89L293.701 102.716Z" fill="white"/>
<path d="M280.223 32.1589H257.327L256.383 18.5273H279.279L280.223 32.1589Z" fill="#29A063"/>
<path d="M203.678 99.804C203.564 92.3627 203.447 84.9215 203.349 77.4799C203.343 76.9475 203.193 76.7316 202.65 76.5731C199.301 75.5897 195.968 74.5484 192.63 73.5199C192.433 73.4588 192.253 73.3396 192.066 73.2479C192.065 73.1949 192.064 73.1404 192.063 73.0875C194.669 72.8872 197.274 72.6981 199.877 72.4834C201.083 72.3847 202.303 72.3227 203.487 72.0977C206.42 71.5378 209.065 72.5175 211.725 73.4874C212.012 73.5921 212.31 73.6693 212.715 73.7931C212.355 72.3116 212.071 70.9236 211.676 69.5661C211.101 67.581 210.86 65.5603 210.801 63.5032C210.774 62.5796 210.593 61.6552 210.627 60.7372C210.666 59.7083 210.867 58.6867 211.003 57.6275C210.721 57.5516 210.275 57.3547 209.823 57.3344C209.331 57.313 208.83 57.4362 208.34 57.5351C208.038 57.5959 207.753 57.7382 207.454 57.8246C206.889 57.9872 206.537 57.8162 206.55 57.1775C206.576 55.9596 206.649 54.7426 206.64 53.5252C206.633 52.7088 206.544 51.8905 206.448 51.0787C206.195 48.9202 207.196 47.0458 207.776 45.0751C208.047 44.1534 208.294 43.224 208.569 42.3039C208.688 41.9074 208.847 41.5232 208.995 41.1119C208.18 40.5004 207.335 39.8941 206.522 39.2505C204.328 37.5132 202.696 35.2571 201.023 33.0595C200.634 32.5473 199.879 31.8884 200.453 30.9107C200.572 30.7068 200.008 30.0465 199.69 29.6551C199.199 29.0547 198.647 28.5049 198.123 27.9307C197.75 27.5225 197.338 27.1406 197.028 26.6882C196.872 26.4612 196.878 26.1066 196.875 25.8099C196.874 25.7586 197.191 25.7024 197.374 25.645C197.262 24.8078 197.579 24.2287 198.397 23.9226C198.547 23.8658 198.781 23.9601 198.949 24.0409C199.308 24.2119 199.651 24.4215 200.081 24.6604C201.138 26.1152 200.999 28.2572 202.433 29.7078C203.386 30.6717 204.238 31.7334 205.161 32.7282C206.174 33.8212 207.347 34.6774 208.633 35.4646C209.403 35.9356 210.139 36.5131 210.97 36.927C211.351 37.1169 211.596 37.0682 211.946 36.7822C212.344 36.4569 212.883 36.3058 213.367 36.0754C213.213 34.6726 212.969 33.191 212.906 31.7017C212.828 29.8887 213.966 28.782 215.754 28.498C217.301 28.253 218.546 28.5499 219.646 29.5982C220.787 30.6843 221.013 32.1117 220.393 33.5521C219.936 34.6162 219.247 35.6229 219.369 36.869C219.375 36.9219 219.39 36.973 219.405 37.0417C220.525 37.7512 221.334 36.8902 222.161 36.406C222.66 36.1128 223.033 35.9788 223.509 36.3292C224.09 36.7566 224.723 36.5592 225.175 36.2251C226.647 35.1342 228.124 34.0288 229.463 32.7844C231.061 31.3018 232.496 29.6468 234.05 28.1152C234.525 27.6459 235.161 27.3427 235.715 26.9508C236.46 26.4228 236.605 25.8223 236.495 24.9401C236.378 23.9907 236.437 23.0193 236.405 22.0573C236.399 21.8826 236.253 21.6891 236.296 21.5393C236.366 21.2976 236.539 21.0864 236.667 20.8615C236.899 21.0135 237.294 21.131 237.332 21.3213C237.433 21.8234 237.38 22.3568 237.388 22.878C237.473 22.912 237.557 22.946 237.643 22.9816C238.028 22.3934 238.43 21.8146 238.795 21.2123C239.079 20.7443 239.341 20.2591 239.571 19.7615C239.897 19.0539 240.566 19.0244 241.098 18.8206C241.92 19.6742 241.634 20.5031 241.08 21.4917C241.521 21.1962 241.759 21.0369 241.996 20.8777C242.078 20.9214 242.159 20.965 242.242 21.0103C242.104 21.4471 242.051 21.9372 241.814 22.313C240.588 24.2583 239.577 26.3446 237.936 28.0204C237.384 28.5839 237.504 29.4017 237.595 30.1623C237.623 30.3928 237.484 30.727 237.307 30.8853C235.875 32.1649 234.41 33.4064 232.971 34.678C232.603 35.0029 232.213 35.3489 231.969 35.7649C230.996 37.4273 229.446 38.4985 228.037 39.7167C227.165 40.4711 226.244 41.1702 225.39 41.9436C225.235 42.084 225.226 42.4835 225.274 42.7394C226.036 46.8551 227.526 50.7575 228.819 54.7175C229.029 55.3591 229.217 56.0091 229.424 56.6524C229.632 57.2989 228.904 58.2035 228.303 57.9128C227.154 57.3545 226.142 57.9908 225.077 58.0616C224.367 58.1094 223.673 58.3606 222.968 58.5206C223.822 64.0192 222.924 69.3971 222.631 74.8635C223.03 74.8574 223.316 74.8531 223.603 74.8487C227.15 74.7943 230.697 74.7015 234.243 74.7002C236.41 74.6991 238.579 74.8214 240.746 74.9134C242.194 74.9746 243.641 75.076 245.087 75.1581C245.089 75.2656 245.09 75.3714 245.092 75.4788C244.985 75.4805 244.875 75.4661 244.773 75.4853C242.818 75.8345 240.862 76.1773 238.91 76.5424C237.668 76.7748 236.43 77.0407 235.193 77.2923C235.199 77.7077 235.204 78.0284 235.209 78.3475C235.298 84.1883 235.384 90.0291 235.483 95.8698C235.491 96.3348 235.455 96.645 234.889 96.7755C232.35 97.3582 229.817 97.9729 227.289 98.6051C225.525 99.0476 223.767 99.3793 221.926 99.3866C216.272 99.4106 210.618 99.5341 204.964 99.6303C204.696 99.6344 204.43 99.7396 204.164 99.7982C203.999 99.7991 203.839 99.8015 203.678 99.804ZM224.101 98.978C223.985 91.4372 223.871 83.9623 223.757 76.5065C217.025 76.6096 210.349 76.7119 203.687 76.8139C203.802 84.3353 203.916 91.7927 204.031 99.2853C210.73 99.1827 217.388 99.0807 224.101 98.978ZM224.172 76.5258C224.288 84.0698 224.401 91.4421 224.514 98.8208C224.661 98.8266 224.774 98.857 224.872 98.833C228.029 98.0484 231.178 97.2238 234.349 96.4951C235.033 96.3386 235.172 96.0895 235.161 95.456C235.053 89.7262 234.973 83.9976 234.885 78.2675C234.881 77.9852 234.876 77.703 234.872 77.3951C231.26 77.1007 227.754 76.8159 224.172 76.5258ZM217.998 76.1664C216.857 71.1246 215.735 66.1578 214.612 61.1911C214.719 61.167 214.828 61.1445 214.935 61.1204C216.077 66.1446 217.219 71.1672 218.354 76.1562C218.832 76.1489 219.302 76.1417 219.834 76.1335C219.515 73.3376 219.186 70.5997 218.896 67.8579C218.611 65.1657 218.367 62.4698 218.106 59.7741C218.202 59.7662 218.3 59.7583 218.396 59.752C218.982 65.2082 219.567 70.666 220.153 76.127C220.913 76.1154 221.616 76.1046 222.313 76.0939C222.366 74.5323 222.37 73.0228 222.479 71.5197C222.61 69.7147 222.911 67.9199 222.991 66.1157C223.069 64.3612 223.005 62.5945 222.907 60.8379C222.876 60.2737 222.576 59.7104 222.341 59.1718C222.05 58.5042 221.699 57.8615 221.374 57.2072C221.446 57.1692 221.519 57.1312 221.591 57.0932C221.888 57.5458 222.185 57.9984 222.483 58.4526C222.522 58.4344 222.564 58.4145 222.604 58.3963C222.385 57.5029 222.167 56.6079 221.958 55.7562C218.485 56.2344 215.273 57.9775 211.803 56.8886C211.652 57.3753 211.522 57.7142 211.443 58.0651C211.255 58.8989 210.972 59.7341 210.947 60.5751C210.91 61.814 211.027 63.0618 211.145 64.2984C211.26 65.4965 211.374 66.7074 211.639 67.8776C212.272 70.667 212.995 73.4375 213.684 76.2293C215.057 76.2115 216.455 76.1901 217.998 76.1664ZM222.673 36.4142C222.804 37.0089 222.912 37.4981 223.019 37.9873C222.954 38.0124 222.887 38.0375 222.822 38.0625C222.652 37.6529 222.483 37.2416 222.313 36.8287C221.581 37.1624 220.848 37.496 220.104 37.833C220.186 38.4847 220.267 39.1267 220.352 39.8071C221.008 39.4955 221.591 39.2187 222.352 38.8573C222.139 40.1118 221.087 40.0429 220.578 40.5849C220.734 41.2321 220.866 41.8942 221.054 42.541C221.661 44.6266 221.83 46.8137 223.024 48.7636C224.528 51.2157 225.755 53.8373 227.107 56.3815C227.266 56.6807 227.414 57.0521 227.677 57.2085C227.976 57.3868 228.407 57.4332 228.757 57.3829C228.866 57.3668 229.024 56.8077 228.95 56.5602C228.365 54.6154 227.736 52.6841 227.095 50.7561C227.034 50.5758 226.833 50.4056 226.653 50.3073C226.129 50.0186 226.091 49.6262 226.503 49.2798C226.131 47.7471 225.778 46.2543 225.404 44.7666C225.209 43.9884 225.053 43.1872 224.745 42.454C224.265 41.3128 223.663 40.2232 223.134 39.102C223.091 39.0112 223.21 38.8442 223.276 38.6427C223.771 39.8205 224.229 40.9107 224.686 42.0009C225.919 41.0019 227.094 40.1145 228.192 39.1417C229.232 38.221 230.211 37.2275 231.178 36.2278C231.419 35.9787 231.428 35.4909 231.681 35.2689C233.493 33.6787 235.341 32.1281 237.142 30.5975C236.218 29.7791 235.327 28.9891 234.507 28.2606C232.304 30.5834 230.078 32.9322 227.775 35.3592C227.985 34.9196 228.17 34.5318 228.355 34.144C227.466 34.7367 226.712 35.4605 225.912 36.1272C225.593 36.3919 225.186 36.589 224.785 36.7075C224.383 36.8275 224.116 36.9407 224.162 37.4324C224.209 37.9338 224.186 38.4395 224.194 38.9446C224.088 38.9462 223.984 38.9478 223.878 38.9495C223.872 38.6015 223.82 38.2461 223.871 37.9053C223.995 37.0645 223.591 36.6424 222.673 36.4142ZM220.317 54.5991C220.38 54.6302 220.442 54.6613 220.505 54.6924C220.727 52.9887 220.948 51.285 221.171 49.5796C221.266 49.5942 221.359 49.6104 221.454 49.625C221.266 51.2961 221.078 52.9657 220.892 54.6239C221.548 54.6155 221.852 54.3815 221.892 53.736C221.98 52.3247 222.075 50.9068 222.307 49.5141C222.469 48.5411 222.139 47.8243 221.626 47.0686C220.583 45.5286 219.826 43.8463 219.266 42.0695C219.077 41.4676 218.772 40.9029 218.519 40.3212C217.994 40.5875 217.553 40.8124 217.112 41.0357C217.069 40.9626 217.025 40.8911 216.982 40.818C217.234 40.6328 217.488 40.4477 217.607 40.3609C217.676 40.0791 217.678 39.7807 217.771 39.7504C218.403 39.537 218.335 39.0985 218.212 38.6143C217.259 38.8182 216.84 39.2962 216.851 40.1479C216.856 40.467 216.877 40.7891 216.856 41.107C216.69 43.6537 216.482 46.1994 216.357 48.7486C216.296 49.9975 216.311 51.2613 216.434 52.5042C216.537 53.5421 216.871 54.5604 216.197 55.6503C217.431 55.3876 218.667 55.1232 219.922 54.857C220.087 53.5118 220.249 52.1988 220.41 50.8874C220.503 50.8988 220.596 50.9102 220.688 50.9232C220.562 52.1475 220.44 53.3733 220.317 54.5991ZM193.504 73.2339C193.505 73.2788 193.504 73.3253 193.505 73.3702C196.338 74.2411 199.211 75.004 201.989 76.0282C203.435 76.5611 204.791 76.3254 206.183 76.2062C208.171 76.0346 210.15 75.7589 212.126 75.4864C212.454 75.4413 212.976 75.2247 213.016 75.014C213.091 74.6102 212.89 74.2059 212.348 74.0425C210.828 73.5813 209.336 73.0251 207.815 72.5688C207.174 72.3765 206.475 72.2171 205.816 72.2593C203.845 72.3841 201.884 72.6387 199.915 72.7972C197.78 72.9695 195.64 73.0905 193.504 73.2339ZM210.627 42.8226C209.522 44.4099 208.453 45.9437 207.389 47.4807C207.315 47.5861 207.266 47.712 207.223 47.8346C206.773 49.1183 206.633 50.3989 206.898 51.7712C207.086 52.7484 206.98 53.7879 206.962 54.7988C206.947 55.6845 206.869 56.5711 206.807 57.6596C207.417 57.4418 207.813 57.2721 208.227 57.1599C208.602 57.0579 208.998 56.9411 209.376 56.9674C210.012 57.0122 210.641 57.163 211.35 57.2821C211.286 52.3761 211.208 47.557 210.627 42.8226ZM211.971 51.6967C212.062 51.6793 212.155 51.6618 212.246 51.6444C212.409 53.015 212.575 54.3856 212.742 55.7978C213.227 55.7904 213.61 55.7845 214.075 55.7774C213.308 54.9422 213.323 54.942 213.373 53.6162C213.457 51.3692 213.49 49.1197 213.608 46.8754C213.664 45.8062 213.86 44.7445 213.999 43.6821C214.151 42.5216 214.554 41.3556 213.545 40.314C213.269 40.0295 213.264 39.4841 213.136 39.0578C213.2 39.044 213.262 39.0302 213.326 39.0148C213.66 39.685 213.994 40.3536 214.352 41.07C215.167 40.1239 214.565 39.5958 213.687 39.0157C214.137 39.0088 214.275 39.0067 214.482 39.0035C213.686 38.3452 213.294 38.3239 212.783 38.9734C212.236 39.6699 211.735 40.4091 211.259 41.1574C210.924 41.6855 210.717 42.2052 210.927 42.9222C211.196 43.8421 211.278 44.8354 211.321 45.802C211.457 48.9632 211.538 52.1252 211.641 55.2886C211.644 55.3928 211.666 55.4983 211.682 55.6119C211.92 55.6436 212.145 55.6722 212.358 55.7011C212.228 54.3684 212.099 53.0326 211.971 51.6967ZM216.546 39.4852C216.476 39.4189 216.406 39.3542 216.338 39.2879C215.987 39.5194 215.553 39.6881 215.306 40.0015C215.043 40.3343 214.898 40.7921 214.803 41.2187C214.036 44.66 213.734 48.1535 213.662 51.6724C213.644 52.5662 213.59 53.4589 213.561 54.3528C213.557 54.4523 213.571 54.5805 213.629 54.6501C214.013 55.103 214.411 55.5445 214.803 55.986C216.242 54.7353 216.381 54.4877 216.252 53.378C216.219 53.093 216.092 52.8142 216.091 52.5335C216.092 49.9878 216.095 47.4404 216.14 44.8957C216.151 44.1945 216.343 43.4986 216.393 42.7968C216.471 41.692 216.497 40.588 216.546 39.4852ZM210.357 37.1305C209.459 36.5267 208.61 35.9542 207.632 35.2954C207.608 36.0802 207.589 36.6788 207.571 37.2791C207.493 37.2851 207.414 37.2911 207.336 37.2971C207.309 36.8243 207.302 36.3496 207.252 35.8804C207.216 35.5456 207.237 35.1074 207.038 34.9019C205.933 33.7543 204.745 32.6865 203.634 31.5453C202.84 30.7298 201.986 30.7846 201.36 31.7743C201.067 32.2359 201.039 32.6149 201.439 33.0916C202.514 34.3729 203.509 35.7227 204.563 37.0219C204.813 37.3293 205.176 37.5451 205.627 37.9184C205.615 37.1293 205.607 36.5584 205.597 35.9009C205.949 36.9462 206.067 38.048 206.642 38.8027C207.261 39.6146 208.306 40.1007 209.17 40.7323C209.461 40.2434 209.688 39.8629 209.915 39.4841C210.139 39.1101 210.365 38.7377 210.622 38.3135C210.425 38.331 210.289 38.3411 210.125 38.3548C210.21 37.9092 210.286 37.507 210.357 37.1305ZM217.14 31.2326C216.816 31.1285 216.332 30.8841 215.83 30.8324C214.504 30.6955 213.452 31.0292 213.392 32.2493C213.309 33.9076 213.502 35.5585 214.089 37.1311C214.514 38.2715 215.237 38.5476 216.282 37.9814C216.623 37.7965 216.915 37.5258 217.234 37.3011C217.376 37.2011 217.613 37.0082 217.663 37.0459C218.313 37.5316 218.465 36.5701 218.95 36.6236C218.973 36.2687 218.995 35.9123 219.019 35.5574C218.93 35.5219 218.839 35.488 218.751 35.4524C218.668 35.6863 218.583 35.9218 218.5 36.1557C218.396 36.0674 218.294 35.9792 218.19 35.8925C218.376 35.6202 218.67 35.0895 218.733 35.1158C219.419 35.3989 219.509 34.7783 219.584 34.4756C219.69 34.0553 219.566 33.576 219.539 33.1208C219.445 33.1175 219.348 33.1125 219.254 33.1092C219.02 33.4496 218.788 33.7916 218.557 34.1272C218.074 33.1433 217.638 32.2516 217.14 31.2326ZM227.206 57.304C226.449 55.9296 225.722 54.611 224.948 53.2064C224.761 54.1942 224.593 55.0726 224.427 55.9526C224.332 54.7044 224.685 53.4462 224.445 52.3126C224.201 51.1646 223.372 50.141 222.695 48.8665C222.563 50.3844 222.552 51.6502 222.323 52.8744C221.976 54.726 222.387 56.4329 222.964 58.1325C224.384 57.8557 225.758 57.5876 227.206 57.304ZM239.734 20.4247C239.708 20.4059 239.68 20.3886 239.654 20.3698C239.2 21.1579 238.782 21.9712 238.267 22.7186C238.092 22.9731 237.674 23.0613 237.367 23.2264C237.268 22.9232 237.143 22.6251 237.078 22.3149C237.003 21.9599 236.981 21.5945 236.937 21.2327C236.853 21.2452 236.768 21.2593 236.683 21.2719C236.702 21.5459 236.728 21.8198 236.736 22.0956C236.758 23.0577 236.639 24.0493 236.839 24.9718C236.994 25.6896 236.826 26.1879 236.47 26.7211C236.313 26.9561 236.151 27.1895 235.994 27.4213C236.321 27.8173 236.611 28.169 237.05 28.7029C238.434 26.7584 239.738 24.9241 241.045 23.0899C240.983 23.0427 240.92 22.9956 240.858 22.95C240.691 23.0312 240.524 23.1107 240.357 23.1919C240.289 23.1544 240.221 23.117 240.153 23.0795C240.541 22.0181 240.929 20.9566 241.315 19.8952C241.273 19.8782 241.231 19.8612 241.189 19.8442C240.787 20.7021 240.385 21.5617 239.982 22.4196C239.894 22.3793 239.806 22.3389 239.717 22.2986C240.112 21.3525 240.507 20.4049 240.901 19.4588C240.833 19.431 240.767 19.4031 240.699 19.3753C240.241 20.34 239.781 21.3046 239.322 22.2693C239.248 22.2384 239.172 22.2074 239.098 22.1765C239.309 21.591 239.521 21.0087 239.734 20.4247ZM243.015 75.477C237.389 74.729 231.701 75.1947 226.053 76.3687C226.532 76.4143 227.014 76.3652 227.486 76.4077C229.341 76.5702 231.194 76.7696 233.047 76.9402C233.589 76.9896 234.15 77.0869 234.675 76.997C237.502 76.511 240.32 75.9738 243.015 75.477ZM213.386 31.0896C214.694 30.2162 215.997 30.3599 217.31 30.9156C217.444 30.9729 217.593 31.0829 217.651 31.2088C217.94 31.8332 218.2 32.4692 218.469 33.1019C218.513 33.0194 218.557 32.9386 218.6 32.8561C219.095 32.9223 219.589 32.9869 220.163 33.0632C220.803 32.2256 220.306 30.8104 219.644 30.0891C218.309 28.6337 216.65 28.449 214.848 29.0653C214.16 29.2988 213.4 30.3323 213.386 31.0896ZM200.913 30.4882C201.28 30.3109 201.708 30.1039 202.146 29.8918C201.523 29.0047 200.782 28.2862 200.735 27.1111C200.709 26.4586 200.242 25.8241 199.939 25.1005C199.896 26.1967 199.858 27.1534 199.82 28.11C199.754 28.1094 199.687 28.1104 199.621 28.1098C199.612 27.5084 199.603 26.907 199.594 26.3169C199.353 26.197 199.139 26.0896 199.044 26.0414C198.798 26.5135 198.558 26.9728 198.218 27.6244C199.038 28.4957 199.942 29.4556 200.913 30.4882ZM219.015 37.9748C218.461 38.625 218.54 39.2863 218.82 39.9894C219.167 40.8551 219.437 41.7525 219.794 42.6148C220.245 43.7051 220.749 44.7753 221.229 45.854C221.304 45.8272 221.378 45.8004 221.453 45.7736C221.236 44.8513 221.022 43.9274 220.806 43.0052C220.497 41.6913 220.113 40.3883 219.911 39.0583C219.816 38.4278 219.758 37.9859 219.015 37.9748ZM208.001 46.2474C208.3 45.7953 208.625 45.3588 208.894 44.8879C209.953 43.035 210.986 41.1664 212.046 39.3135C212.481 38.5497 213.023 37.9046 214.055 37.9995C213.911 37.6423 213.796 37.3554 213.683 37.0764C212.452 37.1802 208.161 43.9142 208.001 46.2474ZM222.726 75.2038C222.547 75.9476 222.822 76.2081 223.501 76.1335C225.299 75.9343 227.101 75.7656 228.897 75.5504C229.805 75.4418 230.704 75.2629 231.606 75.1159C231.604 75.0999 231.604 75.0838 231.602 75.0678C228.66 75.1129 225.717 75.158 222.726 75.2038ZM209.097 42.299C209.963 40.9431 210.795 39.5653 211.712 38.2439C212.157 37.6018 212.76 37.0697 213.339 36.4368C212.918 36.6566 212.369 36.7837 212.07 37.1268C210.746 38.6501 209.654 40.327 209.097 42.299ZM234.905 28.1614C235.604 28.7555 236.238 29.296 236.937 29.8916C237.082 29.6279 237.196 29.4209 237.241 29.3384C236.633 28.674 236.103 28.095 235.554 27.4954C235.355 27.699 235.152 27.9074 234.905 28.1614ZM213.195 75.701C211.529 75.8885 209.907 76.0722 208.284 76.2558C208.286 76.2799 208.288 76.3023 208.288 76.3264C209.924 76.3013 211.559 76.2763 213.229 76.2507C213.216 76.0408 213.205 75.8661 213.195 75.701ZM216.324 55.905C216.38 56.6452 216.38 56.6452 218.553 56.0954C218.503 55.9518 218.445 55.6897 218.406 55.6918C217.73 55.7407 217.058 55.8232 216.324 55.905ZM218.936 55.8377C219.007 55.8912 219.079 55.9462 219.15 55.9997C219.704 55.8853 220.259 55.787 220.805 55.6487C220.938 55.6146 221.038 55.4558 221.153 55.353C221.004 55.2478 220.841 55.037 220.708 55.0551C220.253 55.115 219.798 55.2214 219.367 55.3788C219.192 55.444 219.078 55.68 218.936 55.8377ZM202.514 30.3883C201.456 30.3195 200.521 31.0572 200.778 31.7126C201.338 31.2853 201.91 30.8483 202.514 30.3883ZM217.374 38.0673C217.829 38.1117 218.128 38.1408 218.439 38.1713C218.642 37.8137 218.846 37.4577 219.047 37.1033C219.018 37.0685 218.988 37.0353 218.959 37.0004C218.468 37.3303 217.978 37.6603 217.374 38.0673ZM214.264 56.729C214.269 56.7915 214.273 56.854 214.279 56.9164C214.789 56.8316 215.299 56.7468 215.794 56.6638C215.894 55.987 215.583 55.9741 215.164 56.1874C214.852 56.3462 214.563 56.5463 214.264 56.729Z" fill="black"/>
<path d="M224.101 98.9766C217.387 99.0794 210.73 99.1813 204.032 99.2839C203.917 91.7913 203.803 84.334 203.688 76.8125C210.349 76.7105 217.025 76.6083 223.757 76.5052C223.871 83.9593 223.986 91.4359 224.101 98.9766ZM214.404 78.984C215.016 78.9746 215.627 78.9508 216.24 78.9607C216.721 78.9677 216.82 78.7016 216.797 78.2961C216.776 77.9258 216.851 77.5092 216.269 77.5213C215.018 77.5437 213.765 77.5244 212.52 77.6108C212.278 77.6274 211.851 78.0911 211.887 78.2718C211.944 78.5532 212.298 78.9328 212.575 78.9799C213.167 79.0783 213.793 78.9933 214.404 78.984Z" fill="white"/>
<path d="M224.172 76.5254C227.753 76.8154 231.259 77.1002 234.873 77.393C234.877 77.7009 234.882 77.9831 234.886 78.2654C234.974 83.9955 235.054 89.7241 235.162 95.4539C235.173 96.0874 235.035 96.3365 234.35 96.493C231.179 97.2217 228.03 98.0463 224.873 98.8309C224.774 98.8549 224.663 98.8261 224.515 98.8188C224.4 91.44 224.287 84.0693 224.172 76.5254Z" fill="white"/>
<path d="M217.998 76.1668C216.456 76.1904 215.056 76.2119 213.686 76.2328C212.997 73.441 212.274 70.6706 211.641 67.8811C211.376 66.711 211.262 65.5 211.147 64.3019C211.029 63.0638 210.912 61.816 210.949 60.5786C210.975 59.7377 211.257 58.9008 211.445 58.0686C211.524 57.7177 211.654 57.3789 211.805 56.8921C215.275 57.9811 218.487 56.2396 221.961 55.7597C222.169 56.6115 222.387 57.5049 222.606 58.3998C222.566 58.4181 222.524 58.438 222.485 58.4562C222.187 58.0036 221.89 57.551 221.593 57.0968C221.521 57.1348 221.448 57.1728 221.376 57.2108C221.701 57.8635 222.052 58.5061 222.343 59.1754C222.578 59.714 222.878 60.2757 222.909 60.8414C223.007 62.598 223.071 64.3632 222.993 66.1192C222.914 67.9251 222.612 69.7199 222.481 71.5233C222.371 73.0264 222.367 74.5359 222.315 76.0975C221.618 76.1082 220.915 76.1189 220.155 76.1306C219.569 70.6696 218.984 65.2118 218.398 59.7556C218.302 59.7634 218.204 59.7714 218.108 59.7776C218.369 62.4717 218.614 65.1693 218.898 67.8614C219.187 70.6032 219.517 73.3396 219.836 76.1371C219.304 76.1452 218.834 76.1524 218.356 76.1597C217.222 71.1723 216.08 66.1481 214.937 61.1239C214.83 61.148 214.721 61.1705 214.614 61.1946C215.736 66.1582 216.859 71.1233 217.998 76.1668ZM213.322 74.0232C213.423 74.0152 213.522 74.0073 213.623 73.9977C213.241 69.8136 212.86 65.6296 212.465 61.4473C212.458 61.3752 212.279 61.3202 212.084 61.1965C212.502 65.5468 212.912 69.785 213.322 74.0232Z" fill="#29A063"/>
<path d="M222.673 36.4153C223.591 36.645 223.995 37.0655 223.873 37.9063C223.824 38.2472 223.874 38.6025 223.88 38.9505C223.986 38.9489 224.09 38.9473 224.196 38.9457C224.188 38.4421 224.211 37.9349 224.165 37.4335C224.12 36.9401 224.385 36.8286 224.787 36.7085C225.186 36.5901 225.594 36.393 225.914 36.1282C226.715 35.4615 227.468 34.7377 228.357 34.145C228.172 34.5329 227.987 34.9207 227.777 35.3602C230.08 32.9316 232.306 30.5844 234.51 28.2616C235.331 28.9885 236.222 29.7802 237.144 30.5986C235.344 32.1308 233.495 33.6798 231.683 35.2699C231.43 35.4919 231.421 35.9797 231.18 36.2289C230.213 37.2286 229.236 38.222 228.194 39.1427C227.094 40.1156 225.919 41.003 224.688 42.002C224.231 40.9118 223.773 39.82 223.278 38.6437C223.212 38.8436 223.093 39.0107 223.136 39.1031C223.665 40.2242 224.266 41.3139 224.747 42.455C225.055 43.1898 225.211 43.9895 225.406 44.7677C225.78 46.2554 226.133 47.7482 226.505 49.2808C226.093 49.6272 226.131 50.0196 226.655 50.3084C226.833 50.4067 227.036 50.5768 227.097 50.7572C227.738 52.6851 228.366 54.6165 228.952 56.5613C229.026 56.8088 228.868 57.3678 228.759 57.3839C228.409 57.4358 227.976 57.3895 227.679 57.2096C227.416 57.0532 227.268 56.6801 227.109 56.3826C225.755 53.8383 224.528 51.2168 223.026 48.7646C221.832 46.8147 221.663 44.6277 221.056 42.542C220.868 41.8969 220.736 41.2332 220.58 40.5859C221.089 40.0423 222.141 40.1128 222.355 38.8584C221.593 39.2197 221.011 39.4965 220.354 39.8082C220.269 39.1277 220.188 38.4857 220.106 37.8341C220.85 37.4955 221.583 37.1618 222.315 36.8298C222.485 37.2426 222.655 37.6539 222.824 38.0636C222.889 38.0385 222.956 38.0134 223.021 37.9884C222.913 37.4992 222.804 37.01 222.673 36.4153Z" fill="#29A063"/>
<path d="M220.318 54.5979C220.441 53.3721 220.565 52.1463 220.687 50.9205C220.594 50.9091 220.501 50.8977 220.409 50.8847C220.248 52.1961 220.087 53.5091 219.921 54.8542C218.666 55.1221 217.432 55.3848 216.196 55.6476C216.871 54.5593 216.534 53.5394 216.433 52.5015C216.312 51.2586 216.297 49.9948 216.356 48.7459C216.481 46.1967 216.689 43.651 216.855 41.1043C216.876 40.7864 216.855 40.4643 216.85 40.1451C216.839 39.2935 217.258 38.8155 218.211 38.6116C218.334 39.0958 218.402 39.5343 217.77 39.7477C217.679 39.778 217.677 40.0763 217.606 40.3581C217.485 40.4466 217.233 40.6301 216.981 40.8153C217.024 40.8884 217.068 40.9599 217.111 41.033C217.552 40.8097 217.993 40.5848 218.518 40.3185C218.771 40.9001 219.074 41.4649 219.265 42.0668C219.823 43.8436 220.58 45.5275 221.626 47.0659C222.138 47.8216 222.468 48.5384 222.306 49.5114C222.074 50.9041 221.979 52.3219 221.891 53.7333C221.851 54.3788 221.547 54.6128 220.891 54.6212C221.078 52.9646 221.265 51.2934 221.453 49.6223C221.358 49.6077 221.265 49.5915 221.17 49.5769C220.947 51.2806 220.727 52.9844 220.504 54.6897C220.443 54.6602 220.38 54.6291 220.318 54.5979Z" fill="white"/>
<path d="M193.506 73.237C195.643 73.0935 197.781 72.9726 199.915 72.8003C201.884 72.6419 203.845 72.3873 205.816 72.2624C206.475 72.2203 207.171 72.3796 207.814 72.5719C209.336 73.0282 210.828 73.5845 212.348 74.0456C212.889 74.2106 213.091 74.6133 213.015 75.0171C212.975 75.2279 212.454 75.4444 212.126 75.4895C210.149 75.762 208.171 76.0377 206.183 76.2093C204.791 76.3285 203.434 76.5642 201.989 76.0313C199.212 75.0071 196.339 74.2442 193.504 73.3733C193.505 73.3284 193.505 73.2835 193.506 73.237Z" fill="white"/>
<path d="M210.626 42.8228C211.205 47.5573 211.286 52.3764 211.35 57.2855C210.642 57.1664 210.012 57.0141 209.375 56.9709C208.998 56.9446 208.6 57.0614 208.226 57.1633C207.814 57.2755 207.416 57.4452 206.806 57.6631C206.868 56.573 206.945 55.6879 206.961 54.8022C206.98 53.7913 207.086 52.7519 206.897 51.7746C206.633 50.4024 206.772 49.1218 207.222 47.838C207.265 47.7155 207.316 47.5896 207.388 47.4842C208.454 45.944 209.521 44.4101 210.626 42.8228ZM207.181 54.1684C207.488 54.0097 207.664 53.9782 207.725 53.8778C208.708 52.2474 209.682 50.6123 210.633 48.9648C210.727 48.8013 210.661 48.5457 210.668 48.3772C209.524 50.2731 208.406 52.1317 207.181 54.1684Z" fill="white"/>
<path d="M211.97 51.6955C212.1 53.0314 212.228 54.3688 212.357 55.6998C212.147 55.6726 211.922 55.6424 211.682 55.6107C211.668 55.4955 211.645 55.3915 211.64 55.2873C211.536 52.1257 211.455 48.962 211.32 45.8008C211.278 44.8341 211.196 43.8409 210.927 42.921C210.717 42.2024 210.924 41.6843 211.259 41.1562C211.735 40.4078 212.235 39.6687 212.783 38.9722C213.294 38.3211 213.686 38.3424 214.482 39.0023C214.275 39.0055 214.137 39.0076 213.687 39.0145C214.565 39.5929 215.166 40.1227 214.352 41.0688C213.994 40.3524 213.66 39.6822 213.326 39.0136C213.262 39.0274 213.199 39.0412 213.135 39.0566C213.264 39.4829 213.269 40.0282 213.545 40.3128C214.553 41.3544 214.151 42.5203 213.999 43.6808C213.859 44.7449 213.664 45.8066 213.608 46.8742C213.492 49.1185 213.459 51.3679 213.373 53.615C213.323 54.9424 213.307 54.941 214.075 55.7762C213.61 55.7833 213.225 55.7892 212.742 55.7966C212.573 54.3844 212.409 53.0138 212.246 51.6432C212.153 51.6606 212.062 51.6781 211.97 51.6955Z" fill="white"/>
<path d="M216.546 39.4829C216.497 40.5857 216.471 41.6913 216.393 42.7929C216.343 43.4947 216.152 44.1906 216.14 44.8918C216.095 47.4382 216.093 49.9839 216.092 52.5297C216.091 52.8104 216.219 53.0907 216.252 53.3742C216.381 54.4838 216.242 54.7314 214.804 55.9822C214.412 55.539 214.014 55.0992 213.63 54.6463C213.571 54.5766 213.558 54.4485 213.561 54.349C213.591 53.455 213.644 52.5623 213.663 51.6686C213.734 48.1497 214.037 44.6561 214.804 41.2148C214.898 40.7883 215.043 40.3305 215.306 39.9976C215.553 39.6842 215.987 39.5156 216.338 39.284C216.406 39.3503 216.476 39.4166 216.546 39.4829Z" fill="#92E3A9"/>
<path d="M210.356 37.1324C210.285 37.5088 210.209 37.911 210.124 38.3567C210.288 38.3429 210.424 38.3312 210.621 38.3154C210.364 38.7396 210.139 39.112 209.914 39.486C209.686 39.8648 209.46 40.2468 209.169 40.7341C208.305 40.1025 207.26 39.6164 206.641 38.8046C206.066 38.0499 205.947 36.9481 205.596 35.9028C205.606 36.5603 205.614 37.1312 205.626 37.9202C205.175 37.5454 204.812 37.3312 204.562 37.0238C203.508 35.7246 202.513 34.3763 201.438 33.0935C201.038 32.6168 201.067 32.2378 201.359 31.7761C201.987 30.7864 202.839 30.7316 203.633 31.5472C204.744 32.6899 205.932 33.7561 207.037 34.9038C207.234 35.1093 207.215 35.5475 207.251 35.8822C207.301 36.3515 207.308 36.8262 207.335 37.299C207.413 37.293 207.492 37.2869 207.57 37.2809C207.588 36.6807 207.608 36.0821 207.631 35.2973C208.609 35.9561 209.458 36.5286 210.356 37.1324Z" fill="#29A063"/>
<path d="M217.14 31.2317C217.638 32.2507 218.074 33.1423 218.556 34.1279C218.786 33.7907 219.019 33.4503 219.252 33.1099C219.347 33.1132 219.443 33.1182 219.538 33.1215C219.564 33.5751 219.69 34.056 219.583 34.4763C219.507 34.7774 219.417 35.3996 218.731 35.1166C218.668 35.0902 218.375 35.6209 218.188 35.8932C218.292 35.9815 218.395 36.0697 218.499 36.1564C218.582 35.9225 218.666 35.687 218.749 35.4531C218.838 35.4887 218.928 35.5226 219.017 35.5581C218.994 35.913 218.972 36.2694 218.948 36.6243C218.463 36.5708 218.313 37.5323 217.662 37.0466C217.61 37.0073 217.374 37.2018 217.233 37.3018C216.914 37.5265 216.621 37.7972 216.281 37.9821C215.237 38.5483 214.514 38.2722 214.088 37.1318C213.501 35.5592 213.307 33.9067 213.391 32.25C213.452 31.0299 214.504 30.6962 215.828 30.8331C216.333 30.8832 216.816 31.1292 217.14 31.2317ZM214.287 36.5914C214.63 36.9407 214.832 37.1445 215.033 37.3483C215.247 37.1028 215.601 36.8728 215.629 36.6077C215.652 36.4005 215.307 36.0609 215.053 35.9557C214.935 35.9078 214.646 36.2827 214.287 36.5914Z" fill="#CE7A63"/>
<path d="M227.208 57.3058C225.757 57.5895 224.385 57.8576 222.963 58.136C222.389 56.4348 221.978 54.7279 222.323 52.8779C222.553 51.6537 222.564 50.3879 222.695 48.87C223.372 50.1445 224.201 51.1681 224.445 52.3161C224.685 53.4497 224.332 54.7095 224.427 55.9561C224.593 55.0761 224.761 54.1977 224.948 53.2099C225.725 54.6128 226.451 55.9331 227.208 57.3058Z" fill="white"/>
<path d="M239.734 20.4221C239.522 21.0044 239.309 21.5883 239.097 22.1707C239.171 22.2016 239.247 22.2325 239.321 22.2635C239.78 21.2988 240.24 20.3341 240.698 19.3694C240.766 19.3973 240.832 19.4251 240.9 19.453C240.505 20.399 240.111 21.3467 239.716 22.2927C239.805 22.3331 239.892 22.3734 239.981 22.4138C240.383 21.5558 240.786 20.6963 241.188 19.8384C241.23 19.8554 241.272 19.8724 241.314 19.8894C240.926 20.9508 240.538 22.0122 240.152 23.0737C240.22 23.1111 240.288 23.1486 240.355 23.186C240.523 23.1049 240.69 23.0253 240.857 22.9442C240.919 22.9913 240.982 23.0385 241.044 23.0841C239.739 24.9183 238.432 26.7541 237.049 28.697C236.609 28.1648 236.32 27.8131 235.993 27.4155C236.15 27.1837 236.31 26.9503 236.468 26.7152C236.824 26.182 236.993 25.6838 236.838 24.9659C236.638 24.0434 236.759 23.0518 236.734 22.0897C236.727 21.8156 236.7 21.5417 236.682 21.266C236.767 21.2535 236.851 21.2394 236.936 21.2269C236.98 21.5887 237.002 21.9541 237.076 22.3091C237.142 22.6193 237.267 22.9173 237.366 23.2206C237.673 23.0571 238.091 22.9689 238.266 22.7127C238.781 21.9654 239.197 21.1521 239.653 20.3639C239.682 20.386 239.708 20.4048 239.734 20.4221Z" fill="#CE7A63"/>
<path d="M243.015 75.4803C240.32 75.9769 237.502 76.5138 234.675 76.9996C234.151 77.0894 233.589 76.9922 233.048 76.9427C231.193 76.7724 229.342 76.5746 227.487 76.4107C227.013 76.3698 226.532 76.4173 226.054 76.3717C231.701 75.1982 237.388 74.7327 243.015 75.4803Z" fill="white"/>
<path d="M213.387 31.0906C213.403 30.3332 214.161 29.2998 214.849 29.0647C216.651 28.45 218.31 28.6331 219.645 30.0885C220.306 30.8098 220.804 32.225 220.164 33.0626C219.59 32.9863 219.096 32.9217 218.601 32.8555C218.558 32.938 218.514 33.0188 218.47 33.1013C218.201 32.4686 217.941 31.8326 217.652 31.2082C217.594 31.0839 217.443 30.9724 217.311 30.915C215.997 30.3609 214.695 30.2172 213.387 31.0906Z" fill="#263238"/>
<path d="M200.913 30.4861C199.941 29.4535 199.038 28.4937 198.218 27.624C198.558 26.9723 198.798 26.5131 199.044 26.0409C199.139 26.0892 199.353 26.195 199.593 26.3164C199.602 26.905 199.612 27.508 199.621 28.1094C199.687 28.11 199.754 28.1089 199.82 28.1095C199.858 27.1529 199.895 26.1963 199.939 25.1C200.24 25.8237 200.709 26.4581 200.735 27.1106C200.782 28.2841 201.523 29.0042 202.146 29.8914C201.708 30.1018 201.279 30.3089 200.913 30.4861Z" fill="#CE7A63"/>
<path d="M219.015 37.9759C219.757 37.9869 219.815 38.4288 219.91 39.0577C220.112 40.3877 220.496 41.6907 220.805 43.0046C221.021 43.9268 221.236 44.8507 221.452 45.773C221.377 45.7998 221.303 45.8266 221.228 45.8534C220.747 44.7748 220.244 43.7061 219.793 42.6142C219.436 41.7519 219.166 40.8545 218.819 39.9888C218.539 39.2873 218.46 38.6244 219.015 37.9759Z" fill="#29A063"/>
<path d="M208 46.2479C208.162 43.9147 212.452 37.1807 213.683 37.0769C213.794 37.3559 213.909 37.6429 214.054 38C213.023 37.9035 212.481 38.5502 212.045 39.314C210.986 41.1685 209.953 43.0355 208.894 44.8884C208.625 45.3593 208.298 45.7958 208 46.2479Z" fill="#29A063"/>
<path d="M222.725 75.2042C225.715 75.1584 228.659 75.1133 231.602 75.0682C231.603 75.0843 231.604 75.1003 231.606 75.1163C230.703 75.2632 229.804 75.4437 228.897 75.5506C227.1 75.7641 225.298 75.9343 223.5 76.1334C222.823 76.2079 222.546 75.946 222.725 75.2042Z" fill="white"/>
<path d="M209.097 42.3001C209.653 40.3282 210.746 38.6512 212.07 37.1295C212.369 36.7848 212.918 36.6593 213.339 36.4395C212.76 37.0724 212.157 37.6046 211.712 38.2466C210.795 39.5664 209.963 40.9458 209.097 42.3001Z" fill="#29A063"/>
<path d="M234.905 28.1598C235.151 27.9058 235.355 27.699 235.554 27.4938C236.103 28.0933 236.632 28.6724 237.24 29.3368C237.195 29.4193 237.081 29.6263 236.936 29.89C236.237 29.2944 235.603 28.7539 234.905 28.1598Z" fill="white"/>
<path d="M213.196 75.7001C213.206 75.8634 213.217 76.038 213.23 76.2495C211.56 76.275 209.925 76.3001 208.289 76.3251C208.287 76.3011 208.285 76.2787 208.285 76.2547C209.907 76.0727 211.53 75.8891 213.196 75.7001Z" fill="white"/>
<path d="M216.323 55.9038C217.056 55.822 217.729 55.7412 218.403 55.6908C218.442 55.6886 218.5 55.9506 218.551 56.0941C216.378 56.6436 216.378 56.6436 216.323 55.9038Z" fill="white"/>
<path d="M218.935 55.8378C219.077 55.6801 219.191 55.4427 219.366 55.3791C219.797 55.2218 220.252 55.1154 220.707 55.0556C220.84 55.0375 221.004 55.2482 221.153 55.3533C221.037 55.4545 220.937 55.6147 220.804 55.6488C220.258 55.787 219.701 55.8869 219.15 55.9996C219.078 55.9462 219.007 55.8928 218.935 55.8378Z" fill="white"/>
<path d="M202.514 30.3856C201.91 30.8469 201.338 31.2837 200.778 31.709C200.522 31.0541 201.456 30.3168 202.514 30.3856Z" fill="white"/>
<path d="M217.375 38.0671C217.979 37.6619 218.469 37.3322 218.96 37.0009C218.989 37.0357 219.019 37.0689 219.048 37.1037C218.847 37.4579 218.645 37.812 218.44 38.171C218.129 38.1405 217.83 38.1115 217.375 38.0671Z" fill="white"/>
<path d="M214.266 56.7274C214.564 56.5464 214.853 56.3448 215.164 56.1862C215.582 55.973 215.892 55.9859 215.793 56.6623C215.299 56.7452 214.789 56.83 214.278 56.9147C214.274 56.8523 214.27 56.7898 214.266 56.7274Z" fill="white"/>
<path d="M214.403 78.9822C213.791 78.9916 213.167 79.0765 212.573 78.9766C212.297 78.9295 211.943 78.5502 211.885 78.2689C211.849 78.0883 212.277 77.6249 212.519 77.6084C213.764 77.522 215.017 77.5413 216.267 77.5189C216.849 77.5084 216.774 77.9231 216.796 78.2931C216.82 78.6984 216.721 78.9644 216.238 78.9573C215.628 78.949 215.016 78.9728 214.403 78.9822ZM216.421 77.8869C215.592 77.8996 214.762 77.9123 213.888 77.9257C213.923 78.2057 213.951 78.4249 213.978 78.6345C216.408 78.7624 216.44 78.7523 216.421 77.8869ZM213.557 77.7576C213.032 77.9051 212.602 78.0255 212.172 78.1459C212.241 78.3116 212.287 78.6058 212.382 78.622C212.76 78.6884 213.154 78.6695 213.571 78.684C213.567 78.3923 213.564 78.1871 213.557 77.7576Z" fill="black"/>
<path d="M213.321 74.0223C212.911 69.7842 212.503 65.546 212.084 61.1973C212.278 61.321 212.459 61.376 212.465 61.4481C212.859 65.6304 213.24 69.8144 213.622 73.9985C213.521 74.0048 213.42 74.0128 213.321 74.0223Z" fill="black"/>
<path d="M207.182 54.1698C208.408 52.133 209.526 50.2744 210.668 48.3769C210.661 48.5454 210.728 48.8011 210.634 48.9645C209.682 50.6121 208.708 52.2471 207.726 53.8775C207.663 53.9779 207.487 54.0095 207.182 54.1698Z" fill="black"/>
<path d="M214.285 36.5928C214.643 36.2843 214.933 35.9096 215.049 35.9575C215.303 36.061 215.648 36.4004 215.625 36.6091C215.597 36.874 215.243 37.1039 215.029 37.3492C214.83 37.1455 214.63 36.9418 214.285 36.5928Z" fill="black"/>
<path d="M216.421 77.889C216.44 78.7543 216.409 78.7644 213.978 78.6365C213.952 78.4285 213.925 78.2077 213.889 77.9277C214.763 77.9144 215.592 77.9017 216.421 77.889Z" fill="white"/>
<path d="M213.555 77.758C213.562 78.1875 213.565 78.3927 213.57 78.6859C213.151 78.6715 212.759 78.6903 212.381 78.624C212.286 78.6078 212.24 78.3136 212.172 78.1479C212.601 78.0259 213.029 77.9055 213.555 77.758Z" fill="white"/>
<path d="M208.278 87.0584C208.009 87.0626 207.743 87.1197 207.496 87.2264C207.249 87.3332 207.026 87.488 206.838 87.681C206.651 87.874 206.503 88.1024 206.404 88.3531C206.305 88.6037 206.256 88.8706 206.26 89.14L206.274 90.0629C206.278 90.3323 206.335 90.5982 206.442 90.845C206.549 91.0925 206.704 91.3157 206.896 91.5035C207.09 91.6913 207.318 91.8386 207.568 91.9377C207.819 92.0368 208.086 92.0858 208.355 92.0817C208.899 92.0733 209.417 91.849 209.796 91.4591C210.174 91.0684 210.382 90.5441 210.374 90.0001L210.36 89.0772C210.351 88.5332 210.127 88.0154 209.737 87.6366C209.347 87.2584 208.822 87.0501 208.278 87.0584ZM209.241 90.0141C209.245 90.136 209.225 90.257 209.182 90.371C209.138 90.4851 209.073 90.589 208.989 90.6769C208.905 90.7653 208.804 90.8357 208.692 90.8846C208.581 90.9335 208.461 90.9596 208.339 90.9615C208.217 90.9634 208.096 90.941 207.983 90.8955C207.87 90.85 207.767 90.7828 207.681 90.6969C207.594 90.611 207.525 90.5092 207.478 90.3971C207.431 90.2844 207.407 90.1642 207.408 90.0422L207.394 89.1259C207.39 89.0041 207.41 88.8831 207.453 88.769C207.497 88.655 207.562 88.551 207.646 88.4632C207.73 88.3747 207.831 88.3043 207.943 88.2554C208.054 88.2065 208.174 88.1804 208.296 88.1786C208.418 88.1767 208.539 88.1991 208.652 88.2446C208.765 88.29 208.868 88.3573 208.954 88.4432C209.041 88.529 209.11 88.6309 209.157 88.7429C209.204 88.8556 209.228 88.9759 209.227 89.0978L209.241 90.0141Z" fill="#29A063"/>
<path d="M207.661 86.7032C207.675 86.7082 207.688 86.7158 207.698 86.7268C207.709 86.7378 207.716 86.7508 207.721 86.7645C207.726 86.7788 207.727 86.7939 207.725 86.8083C207.722 86.8234 207.716 86.8373 207.708 86.8492L207.709 86.8505C207.667 86.8767 207.632 86.9113 207.604 86.9517C207.577 86.992 207.557 87.0376 207.547 87.0855C208.018 86.9073 208.536 86.8994 209.013 87.0631C209.001 87.0155 208.981 86.9706 208.951 86.931C208.923 86.8915 208.885 86.8587 208.844 86.8331L208.844 86.8318C208.835 86.8201 208.829 86.8058 208.826 86.7915C208.823 86.7764 208.824 86.7613 208.828 86.7469C208.832 86.7324 208.839 86.7192 208.85 86.7085C208.86 86.6972 208.872 86.6892 208.887 86.6837C208.922 86.6734 208.953 86.6519 208.975 86.6221C208.997 86.5923 209.008 86.5567 209.009 86.5201C209.009 86.4834 208.996 86.4475 208.974 86.4177C208.952 86.3886 208.921 86.3668 208.886 86.3568C208.85 86.3462 208.813 86.3481 208.778 86.3611C208.744 86.3741 208.715 86.3981 208.695 86.4292C208.675 86.4603 208.666 86.4971 208.668 86.5338C208.671 86.5704 208.686 86.6056 208.71 86.6334L208.709 86.6334C208.718 86.645 208.724 86.6594 208.727 86.6737C208.73 86.6888 208.728 86.7038 208.725 86.7183C208.72 86.7328 208.713 86.746 208.703 86.7566C208.693 86.7673 208.68 86.776 208.666 86.7815L208.665 86.7828C208.617 86.7816 208.569 86.7908 208.523 86.8085C208.48 86.781 208.433 86.7614 208.384 86.7491L208.384 86.7471C208.369 86.7362 208.356 86.7213 208.347 86.7044C208.338 86.6875 208.334 86.6686 208.333 86.6496C208.333 86.6306 208.337 86.6116 208.346 86.5944C208.354 86.5772 208.366 86.5626 208.381 86.5506L208.38 86.5506C208.419 86.5245 208.449 86.4867 208.464 86.4432C208.48 86.3991 208.481 86.3512 208.467 86.3069C208.453 86.2626 208.425 86.2237 208.387 86.1961C208.349 86.1685 208.304 86.1541 208.257 86.1549C208.21 86.1556 208.165 86.1713 208.128 86.2001C208.091 86.2288 208.064 86.2685 208.052 86.3133C208.039 86.358 208.041 86.4058 208.058 86.4494C208.075 86.4931 208.106 86.5299 208.146 86.5542C208.161 86.5651 208.174 86.58 208.182 86.5969C208.191 86.6138 208.196 86.6327 208.196 86.6517C208.197 86.6707 208.192 86.6898 208.184 86.7069C208.176 86.7241 208.164 86.7387 208.149 86.7507L208.149 86.752C208.102 86.7652 208.058 86.7855 208.017 86.8123C207.975 86.7979 207.929 86.7921 207.884 86.7947L207.883 86.7934C207.869 86.7884 207.856 86.7807 207.846 86.7698C207.835 86.7588 207.827 86.7458 207.823 86.7321C207.818 86.7178 207.817 86.7027 207.82 86.6876C207.822 86.6725 207.828 86.6587 207.836 86.6467L207.835 86.6468C207.859 86.6182 207.872 86.5826 207.874 86.5459C207.875 86.5092 207.865 86.4727 207.844 86.4422C207.823 86.4117 207.793 86.3886 207.759 86.3767C207.724 86.3648 207.686 86.3647 207.651 86.3757C207.616 86.3874 207.585 86.4095 207.564 86.4393C207.543 86.4691 207.532 86.5053 207.533 86.5426C207.534 86.5793 207.547 86.6151 207.57 86.6436C207.593 86.6727 207.625 86.6932 207.661 86.7032Z" fill="#103B1E"/>
<path d="M211.404 87.5736C211.403 87.5114 211.414 87.4496 211.436 87.3915C211.458 87.3322 211.49 87.2773 211.533 87.2301C211.577 87.1822 211.63 87.1427 211.688 87.1136C211.752 87.0825 211.823 87.0663 211.893 87.0666L212.643 87.0551C212.714 87.0527 212.784 87.0667 212.849 87.0959C212.908 87.1225 212.963 87.1603 213.008 87.2075C213.052 87.2534 213.087 87.3073 213.111 87.3659C213.135 87.4232 213.147 87.4847 213.148 87.5469L213.151 87.7082C213.152 87.7691 213.143 87.8296 213.123 87.8869C213.104 87.9429 213.074 87.9938 213.035 88.0377C212.993 88.0836 212.942 88.1198 212.885 88.1443C212.818 88.1728 212.745 88.187 212.672 88.1868L212.474 88.1899L212.482 88.6644L213.094 88.655C213.13 88.6538 213.165 88.6572 213.2 88.6659C213.224 88.672 213.246 88.6835 213.265 88.6996C213.28 88.7131 213.291 88.7307 213.296 88.7496C213.302 88.7698 213.306 88.7914 213.305 88.8124C213.306 88.8314 213.303 88.8505 213.298 88.8689C213.293 88.8886 213.282 88.9058 213.268 88.9198C213.25 88.9365 213.228 88.9493 213.205 88.9562C213.171 88.9666 213.135 88.9724 213.099 88.9716L211.5 88.9961C211.464 88.9979 211.429 88.9932 211.394 88.9839C211.371 88.9771 211.348 88.9656 211.33 88.9495C211.314 88.936 211.304 88.9184 211.298 88.8995C211.292 88.8813 211.289 88.8623 211.289 88.8433C211.288 88.8217 211.291 88.8006 211.296 88.7802C211.301 88.7605 211.311 88.7433 211.326 88.7293C211.344 88.7126 211.367 88.7005 211.39 88.6936C211.425 88.6839 211.46 88.6787 211.495 88.6795L212.109 88.6701L212.102 88.1962L211.902 88.1993C211.83 88.2024 211.757 88.1897 211.689 88.1632C211.632 88.1411 211.581 88.1072 211.538 88.0639C211.496 88.0206 211.463 87.9694 211.441 87.9127C211.419 87.856 211.408 87.7958 211.407 87.7349L211.404 87.5736L211.404 87.5736ZM211.778 87.6715C211.778 87.7239 211.795 87.7748 211.828 87.8156C211.846 87.8363 211.869 87.8523 211.895 87.8631C211.92 87.8738 211.947 87.8787 211.975 87.8776L212.587 87.8682C212.614 87.8685 212.642 87.8628 212.667 87.8513C212.693 87.8397 212.715 87.823 212.732 87.8018C212.763 87.76 212.779 87.7086 212.777 87.6562L212.776 87.5828C212.776 87.5297 212.759 87.4775 212.726 87.4354C212.707 87.414 212.683 87.398 212.656 87.3879C212.629 87.3779 212.601 87.3737 212.572 87.3768L211.974 87.3859C211.946 87.3837 211.917 87.3881 211.89 87.3997C211.863 87.4112 211.84 87.428 211.821 87.4492C211.79 87.4923 211.774 87.545 211.776 87.5981L211.778 87.6715Z" fill="#29A063"/>
<path d="M213.835 87.2269C213.834 87.1941 213.839 87.1613 213.85 87.1303C213.858 87.1066 213.873 87.0847 213.891 87.0674C213.909 87.052 213.93 87.0406 213.952 87.0343C213.998 87.0212 214.047 87.0204 214.095 87.0322C214.117 87.0377 214.138 87.0485 214.156 87.0633C214.175 87.0801 214.19 87.1015 214.2 87.125C214.212 87.1556 214.218 87.1883 214.217 87.2211L214.217 87.2368C214.218 87.2859 214.224 87.335 214.236 87.3827C214.247 87.4206 214.264 87.4564 214.288 87.4881C214.314 87.5224 214.346 87.5534 214.381 87.5798C214.42 87.61 214.468 87.6453 214.527 87.6857C214.57 87.7132 214.605 87.752 214.627 87.7983C214.635 87.8204 214.637 87.8446 214.634 87.8683C214.63 87.892 214.621 87.9144 214.607 87.9329C214.593 87.9574 214.572 87.9781 214.547 87.9929C214.524 88.0063 214.498 88.0139 214.47 88.0157C214.452 88.016 214.435 88.0143 214.417 88.0106C214.398 88.007 214.379 87.9987 214.364 87.9872C214.309 87.948 214.255 87.9042 214.2 87.8559C214.146 87.8082 214.096 87.7559 214.05 87.6996C214.01 87.7585 213.964 87.8136 213.914 87.8649C213.866 87.9148 213.811 87.9582 213.751 87.9939C213.731 88.0067 213.709 88.0168 213.686 88.0244C213.663 88.0326 213.639 88.0376 213.614 88.0393C213.587 88.041 213.559 88.0368 213.534 88.0267C213.505 88.0147 213.48 87.9935 213.464 87.9655C213.449 87.9467 213.44 87.9246 213.435 87.9011C213.431 87.8775 213.433 87.8532 213.44 87.8308C213.46 87.784 213.494 87.7441 213.536 87.7153C213.592 87.6731 213.639 87.6357 213.677 87.6037C213.712 87.5756 213.743 87.5423 213.768 87.5059C213.79 87.4728 213.806 87.4358 213.816 87.397C213.827 87.3496 213.834 87.3017 213.835 87.2531L213.835 87.2269ZM213.787 89.018C213.753 89.0199 213.719 89.0158 213.686 89.0071C213.664 89.0009 213.645 88.9894 213.629 88.9733C213.615 88.959 213.607 88.9421 213.604 88.9232C213.6 88.9022 213.599 88.8813 213.598 88.8596L213.59 88.3189C213.586 88.2908 213.588 88.2619 213.596 88.2342C213.605 88.2072 213.619 88.1815 213.638 88.1602C213.672 88.1308 213.717 88.1151 213.762 88.1157C213.806 88.1143 213.85 88.1268 213.887 88.1518C213.907 88.1685 213.924 88.1906 213.935 88.2146C213.946 88.2387 213.952 88.2655 213.951 88.2924L214.953 88.2771C214.954 88.2476 214.96 88.2186 214.97 88.1916C214.98 88.1698 214.994 88.1506 215.012 88.1359C215.03 88.1218 215.049 88.1117 215.071 88.1048C215.092 88.0986 215.114 88.095 215.137 88.0946C215.16 88.0943 215.183 88.0965 215.206 88.1028C215.226 88.1084 215.245 88.1192 215.261 88.134C215.279 88.1515 215.292 88.1722 215.3 88.1957C215.31 88.2264 215.316 88.2591 215.315 88.2919L215.324 88.8326C215.324 88.8536 215.323 88.8752 215.32 88.8962C215.318 88.9153 215.309 88.9331 215.297 88.9471C215.281 88.9637 215.262 88.9758 215.241 88.9827C215.208 88.993 215.174 88.9975 215.14 88.9967L213.787 89.018ZM214.958 88.572L213.955 88.5874L213.957 88.7204L214.96 88.7051L214.958 88.572ZM214.926 87.1984C214.922 87.1696 214.925 87.1401 214.934 87.1131C214.944 87.086 214.959 87.0609 214.98 87.0403C215.017 87.0115 215.062 86.9957 215.109 86.9957C215.132 86.9953 215.156 86.9982 215.179 87.0038C215.201 87.0093 215.221 87.0202 215.238 87.035C215.256 87.0524 215.27 87.0732 215.28 87.0966C215.292 87.1272 215.298 87.1599 215.297 87.1927L215.307 87.8252C215.309 87.8586 215.303 87.8928 215.293 87.9244C215.284 87.9482 215.27 87.9693 215.252 87.9873C215.236 88.0026 215.216 88.0141 215.195 88.0203C215.149 88.0335 215.1 88.0342 215.054 88.0225C215.032 88.0169 215.011 88.0061 214.994 87.9913C214.975 87.9745 214.961 87.9538 214.952 87.9296C214.94 87.8977 214.935 87.8643 214.935 87.8309L214.926 87.1984Z" fill="#29A063"/>
<path d="M216.059 88.5796L216.326 88.5755C216.362 88.5736 216.398 88.5783 216.432 88.5877C216.455 88.5945 216.478 88.606 216.497 88.6221C216.512 88.6356 216.523 88.6531 216.528 88.6721C216.534 88.6903 216.537 88.7093 216.537 88.7283C216.537 88.7499 216.535 88.771 216.53 88.7914C216.525 88.8111 216.514 88.8283 216.5 88.8423C216.482 88.859 216.46 88.8711 216.436 88.878C216.402 88.8877 216.366 88.8929 216.331 88.8921L215.901 88.8987C215.867 88.9005 215.833 88.8964 215.8 88.8878C215.778 88.8815 215.759 88.87 215.743 88.8539C215.73 88.8397 215.722 88.8221 215.718 88.8038C215.714 88.7829 215.713 88.7619 215.712 88.7409L215.688 87.1744C215.688 87.1535 215.689 87.1318 215.692 87.1114C215.694 87.0924 215.703 87.0746 215.716 87.0606C215.731 87.044 215.75 87.0319 215.771 87.025C215.804 87.0147 215.838 87.0102 215.872 87.011L216.256 87.0051C216.291 87.0039 216.328 87.0073 216.362 87.016C216.386 87.0222 216.408 87.0336 216.427 87.0497C216.442 87.0633 216.453 87.0808 216.458 87.0997C216.464 87.1199 216.467 87.1415 216.467 87.1625C216.467 87.1815 216.465 87.2006 216.46 87.219C216.455 87.2388 216.444 87.256 216.43 87.27C216.412 87.2866 216.39 87.2994 216.366 87.3063C216.332 87.3167 216.296 87.3225 216.261 87.3217L216.04 87.3251L216.059 88.5796V88.5796ZM216.659 87.1714C216.655 87.1432 216.658 87.1144 216.666 87.0874C216.674 87.0604 216.688 87.0346 216.706 87.0133C216.737 86.9853 216.777 86.9696 216.819 86.969C216.861 86.9683 216.901 86.9828 216.931 87.0099C216.951 87.0306 216.965 87.0559 216.974 87.0827C216.983 87.1094 216.986 87.1382 216.983 87.1664L216.992 87.7281L217.208 87.7248L217.2 87.1631C217.196 87.135 217.198 87.1061 217.206 87.0791C217.214 87.0521 217.229 87.0263 217.247 87.0051C217.278 86.977 217.318 86.9613 217.36 86.9607C217.401 86.9601 217.441 86.9745 217.472 87.0016C217.491 87.0223 217.505 87.0476 217.514 87.0744C217.523 87.1011 217.526 87.1299 217.524 87.1582L217.548 88.7292C217.549 88.7627 217.545 88.7961 217.535 88.8284C217.529 88.8515 217.516 88.8726 217.501 88.8912C217.487 88.9065 217.469 88.9179 217.45 88.9241C217.43 88.9303 217.41 88.9339 217.39 88.9342C217.369 88.9345 217.348 88.9316 217.328 88.926C217.308 88.9204 217.29 88.9095 217.276 88.8947C217.259 88.8772 217.247 88.8558 217.239 88.8329C217.229 88.801 217.223 88.7676 217.224 88.7342L217.213 88.042L216.996 88.0454L217.007 88.7375C217.008 88.7709 217.004 88.8044 216.995 88.8367C216.988 88.8597 216.976 88.8809 216.96 88.8995C216.946 88.9148 216.929 88.9262 216.909 88.9324C216.889 88.9386 216.87 88.9422 216.85 88.9425C216.829 88.9428 216.808 88.9399 216.787 88.9343C216.767 88.9287 216.75 88.9178 216.735 88.9029C216.719 88.8848 216.706 88.8641 216.699 88.8412C216.688 88.8093 216.682 88.7759 216.683 88.7425L216.659 87.1714V87.1714Z" fill="#29A063"/>
<path d="M218.005 87.9579C217.974 87.959 217.943 87.9562 217.913 87.9501C217.894 87.9459 217.875 87.9376 217.859 87.9254C217.847 87.9151 217.838 87.9015 217.834 87.8858C217.83 87.8675 217.828 87.8485 217.828 87.8295C217.827 87.8131 217.829 87.7974 217.833 87.7816C217.836 87.7658 217.845 87.7512 217.856 87.7399C217.871 87.7259 217.889 87.7158 217.909 87.7103C217.939 87.7019 217.97 87.6982 218.001 87.6984L219.673 87.6728C219.704 87.6717 219.735 87.6744 219.765 87.6819C219.785 87.6868 219.803 87.6964 219.818 87.7099C219.83 87.7208 219.839 87.7351 219.843 87.7508C219.847 87.7665 219.85 87.7828 219.85 87.7986C219.85 87.8176 219.849 87.8366 219.845 87.855C219.842 87.8708 219.834 87.8847 219.821 87.8954C219.806 87.9081 219.788 87.9169 219.769 87.9217C219.738 87.9288 219.708 87.9325 219.677 87.9323L218.005 87.9579ZM218.376 88.6288L218.377 88.714L219.541 88.6962C219.577 88.695 219.612 88.6977 219.647 88.7038C219.67 88.7073 219.692 88.7162 219.711 88.7283C219.726 88.7373 219.737 88.7509 219.743 88.7672C219.748 88.7835 219.752 88.8005 219.751 88.8175C219.752 88.8365 219.75 88.8549 219.744 88.8727C219.739 88.8885 219.728 88.9025 219.714 88.9125C219.695 88.9253 219.673 88.9335 219.65 88.9364C219.616 88.9422 219.58 88.9447 219.545 88.9453L218.195 88.9659C218.161 88.9678 218.127 88.9643 218.094 88.957C218.073 88.9521 218.053 88.9425 218.037 88.9277C218.024 88.9154 218.015 88.8985 218.012 88.8809C218.009 88.8613 218.007 88.841 218.007 88.8213L218.002 88.5178C218.002 88.5028 218.003 88.4876 218.007 88.4732C218.011 88.458 218.019 88.4441 218.031 88.4335C218.046 88.4201 218.064 88.4107 218.083 88.4051C218.114 88.3968 218.144 88.3931 218.176 88.3932L219.323 88.3757L219.322 88.2905L218.167 88.3081C218.136 88.3093 218.106 88.3071 218.075 88.3004C218.056 88.2961 218.037 88.2878 218.022 88.275C218.01 88.264 218.001 88.2497 217.997 88.234C217.993 88.2171 217.991 88.2 217.99 88.1823C217.99 88.1666 217.992 88.1515 217.995 88.1364C217.999 88.1206 218.007 88.1054 218.019 88.0934C218.034 88.0788 218.051 88.068 218.072 88.0618C218.102 88.0528 218.132 88.0484 218.163 88.0486L219.513 88.0279C219.544 88.0268 219.575 88.0303 219.604 88.0383C219.624 88.0439 219.643 88.0535 219.658 88.0677C219.67 88.0793 219.679 88.0929 219.684 88.1086C219.689 88.1236 219.692 88.1386 219.692 88.1543L219.697 88.4971C219.699 88.5128 219.697 88.5286 219.691 88.5431C219.685 88.5576 219.677 88.5709 219.665 88.5815C219.622 88.6065 219.572 88.6171 219.522 88.6126L218.376 88.6288ZM218.178 87.5967C218.144 87.5985 218.109 87.5944 218.077 87.5844C218.056 87.5782 218.037 87.566 218.023 87.5499C218.011 87.535 218.003 87.5174 218 87.4984C217.997 87.4775 217.995 87.4559 217.995 87.4343L217.99 87.1347C217.99 87.1138 217.991 87.0921 217.994 87.0717C217.997 87.0527 218.003 87.0349 218.014 87.0196C218.028 87.0024 218.047 86.9896 218.068 86.9834C218.1 86.9737 218.134 86.9686 218.168 86.9694L219.45 86.9498C219.48 86.9487 219.512 86.9515 219.542 86.9589C219.562 86.9638 219.58 86.9734 219.596 86.9869C219.608 86.9985 219.616 87.0128 219.62 87.0291C219.625 87.0468 219.627 87.0651 219.627 87.0828C219.627 87.0992 219.626 87.1149 219.622 87.1307C219.618 87.1465 219.61 87.1611 219.598 87.1724C219.584 87.1864 219.565 87.1972 219.546 87.2027C219.516 87.2117 219.485 87.2161 219.454 87.2159L218.363 87.2326L218.365 87.327L219.455 87.3103C219.486 87.3085 219.517 87.312 219.548 87.3207C219.567 87.3263 219.586 87.3365 219.601 87.3507C219.613 87.3629 219.621 87.3779 219.626 87.3942C219.63 87.4099 219.632 87.4256 219.633 87.4413C219.633 87.4597 219.631 87.4774 219.628 87.4952C219.624 87.5109 219.616 87.5255 219.604 87.5368C219.589 87.5502 219.571 87.5596 219.551 87.5652C219.521 87.5735 219.491 87.5772 219.459 87.5771L218.178 87.5967Z" fill="#29A063"/>
<path d="M220.029 88.7119C220.029 88.6903 220.031 88.6692 220.036 88.6488C220.041 88.6291 220.052 88.6119 220.066 88.5979C220.084 88.5812 220.107 88.5691 220.13 88.5622C220.165 88.5525 220.2 88.5473 220.235 88.5481L221.155 88.534C221.191 88.5328 221.227 88.5362 221.261 88.5449C221.285 88.5511 221.307 88.5625 221.326 88.5786C221.341 88.5922 221.352 88.6097 221.357 88.6286C221.364 88.6488 221.367 88.6704 221.366 88.6914C221.367 88.7104 221.364 88.7295 221.359 88.7479C221.354 88.7677 221.343 88.7849 221.329 88.7989C221.311 88.8155 221.289 88.8283 221.266 88.8352C221.232 88.8456 221.196 88.8514 221.16 88.8506L220.24 88.8647C220.204 88.8665 220.169 88.8618 220.134 88.8525C220.111 88.8457 220.088 88.8342 220.07 88.8181C220.054 88.8046 220.044 88.7871 220.038 88.7681C220.033 88.7498 220.03 88.7309 220.029 88.7119ZM220.644 86.9193C220.787 86.9079 220.929 86.949 221.045 87.0338C221.094 87.0776 221.134 87.1314 221.162 87.1913C221.19 87.2512 221.206 87.3165 221.208 87.382C221.21 87.4017 221.211 87.4298 221.211 87.4659L221.215 87.6914C221.215 87.7274 221.215 87.7556 221.214 87.7753C221.218 87.8408 221.207 87.9065 221.183 87.9672C221.157 88.0279 221.119 88.0816 221.07 88.1249C220.952 88.21 220.81 88.2528 220.665 88.2459C220.52 88.2586 220.376 88.2188 220.258 88.1347C220.209 88.0916 220.17 88.0391 220.143 87.9798C220.116 87.9206 220.102 87.8565 220.101 87.7917C220.1 87.772 220.098 87.7438 220.097 87.7078C220.095 87.6718 220.094 87.6344 220.094 87.5957C220.093 87.5571 220.092 87.5191 220.093 87.4837C220.094 87.4476 220.094 87.4194 220.095 87.3997C220.093 87.3342 220.105 87.2691 220.13 87.2084C220.154 87.1477 220.191 87.0927 220.238 87.0468C220.353 86.9559 220.497 86.9104 220.644 86.9193ZM220.835 87.3785C220.836 87.351 220.827 87.3236 220.812 87.3009C220.798 87.2821 220.78 87.2673 220.76 87.2571C220.74 87.2476 220.719 87.2413 220.698 87.2384C220.682 87.236 220.666 87.2343 220.649 87.2345C220.633 87.2354 220.617 87.2377 220.601 87.2412C220.58 87.2454 220.56 87.2536 220.542 87.2637C220.521 87.2752 220.504 87.2918 220.491 87.3117C220.476 87.3355 220.468 87.3632 220.468 87.3914C220.467 87.413 220.466 87.4419 220.466 87.4786C220.466 87.5153 220.466 87.5533 220.466 87.5927C220.467 87.632 220.468 87.6693 220.469 87.7041C220.471 87.7394 220.472 87.767 220.474 87.7866C220.473 87.8155 220.48 87.8435 220.496 87.8682C220.51 87.887 220.528 87.9018 220.547 87.9127C220.567 87.9229 220.587 87.9291 220.609 87.9314C220.626 87.9331 220.643 87.9341 220.66 87.9339C220.677 87.9336 220.693 87.9321 220.708 87.9299C220.729 87.9269 220.749 87.9201 220.768 87.9093C220.788 87.8978 220.805 87.8825 220.819 87.8633C220.835 87.8388 220.842 87.8105 220.842 87.781C220.843 87.7593 220.843 87.7305 220.842 87.6938L220.839 87.465C220.838 87.429 220.837 87.4002 220.835 87.3785ZM221.512 87.0987C221.508 87.07 221.511 87.0404 221.519 87.0134C221.529 86.9857 221.544 86.9612 221.565 86.9406C221.602 86.9118 221.647 86.8961 221.694 86.896C221.718 86.8956 221.741 86.8986 221.764 86.9041C221.786 86.9097 221.806 86.9205 221.824 86.9353C221.842 86.9527 221.856 86.9735 221.866 86.997C221.878 87.0276 221.884 87.0603 221.883 87.0931L221.907 88.6641C221.909 88.6975 221.904 88.7317 221.893 88.7633C221.884 88.7871 221.871 88.8083 221.853 88.8262C221.836 88.8416 221.816 88.853 221.794 88.8593C221.749 88.8718 221.7 88.8725 221.654 88.8614C221.631 88.8552 221.609 88.8437 221.591 88.8276C221.573 88.8115 221.56 88.7914 221.552 88.7686C221.54 88.7366 221.535 88.7033 221.535 88.6698L221.512 87.0987Z" fill="#29A063"/>
<path d="M211.855 89.527C211.928 89.5245 212.002 89.5339 212.073 89.5544C212.13 89.5719 212.181 89.6019 212.224 89.6432C212.265 89.6846 212.297 89.7352 212.316 89.79C212.338 89.8546 212.353 89.9225 212.357 89.9906C212.357 90.0044 212.358 90.0372 212.36 90.0883C212.362 90.1394 212.363 90.2003 212.364 90.2711C212.365 90.3419 212.366 90.4166 212.369 90.4966C212.371 90.5765 212.372 90.6512 212.372 90.722C212.372 90.7928 212.373 90.8538 212.373 90.9049C212.373 90.9561 212.373 90.9882 212.373 91.0006C212.382 91.1277 212.341 91.2529 212.259 91.3498C212.184 91.4277 212.059 91.4683 211.886 91.4703C211.81 91.4734 211.734 91.4641 211.661 91.4436C211.605 91.4274 211.554 91.398 211.512 91.3574C211.472 91.3167 211.442 91.268 211.423 91.2138C211.402 91.1499 211.388 91.0833 211.385 91.0151C211.383 91.0014 211.382 90.9686 211.381 90.9175C211.381 90.8664 211.379 90.8054 211.377 90.7347C211.375 90.6639 211.374 90.5892 211.372 90.5092C211.371 90.4292 211.37 90.3545 211.37 90.2837C211.371 90.2129 211.37 90.1526 211.369 90.1021C211.368 90.0517 211.368 90.0195 211.369 90.0058C211.372 89.9369 211.382 89.8692 211.401 89.8027C211.417 89.7474 211.445 89.6965 211.484 89.6539C211.525 89.6113 211.575 89.5798 211.631 89.5605C211.702 89.5378 211.778 89.5262 211.855 89.527ZM211.984 89.9872C211.984 89.9603 211.98 89.9341 211.971 89.9094C211.965 89.8924 211.954 89.8768 211.94 89.8652C211.928 89.8556 211.914 89.8492 211.9 89.8462C211.887 89.8438 211.873 89.842 211.86 89.8422C211.847 89.8424 211.834 89.8446 211.821 89.8487C211.806 89.8529 211.793 89.8609 211.783 89.8709C211.77 89.8842 211.76 89.9008 211.753 89.9186C211.745 89.9443 211.74 89.9712 211.74 89.9981C211.74 90.0119 211.74 90.0447 211.74 90.0971C211.739 90.1496 211.74 90.2105 211.741 90.2813C211.741 90.3521 211.742 90.4268 211.743 90.5068C211.744 90.5868 211.745 90.6615 211.748 90.7323C211.75 90.803 211.751 90.864 211.752 90.9151C211.752 90.9662 211.754 90.9983 211.755 91.0108C211.754 91.0383 211.759 91.0664 211.768 91.0925C211.774 91.1095 211.784 91.1244 211.798 91.1366C211.808 91.147 211.822 91.1533 211.837 91.1557C211.851 91.1581 211.865 91.1585 211.88 91.1583C211.893 91.1581 211.906 91.1566 211.919 91.1545C211.933 91.1516 211.946 91.1449 211.956 91.1342C211.969 91.1216 211.979 91.1057 211.986 91.0892C211.995 91.0628 212 91.0352 211.999 91.007C211.999 90.9933 211.999 90.9605 211.999 90.908C211.999 90.8562 211.999 90.794 211.998 90.7225L211.991 90.2696C211.99 90.1982 211.988 90.1372 211.987 90.0855C211.985 90.0337 211.984 90.0009 211.984 89.9872ZM212.798 89.7052C212.795 89.6765 212.797 89.6469 212.806 89.6199C212.816 89.5922 212.831 89.5677 212.852 89.5471C212.888 89.5183 212.934 89.5025 212.981 89.5025C213.004 89.5021 213.028 89.505 213.051 89.5106C213.073 89.5162 213.093 89.527 213.11 89.5418C213.128 89.5586 213.143 89.58 213.152 89.6034C213.164 89.6341 213.17 89.6668 213.169 89.6996L213.193 91.2706C213.195 91.304 213.19 91.3382 213.179 91.3698C213.17 91.3936 213.157 91.4148 213.139 91.4327C213.123 91.4481 213.102 91.4595 213.081 91.4657C213.035 91.4789 212.987 91.4796 212.941 91.4679C212.918 91.4623 212.898 91.4515 212.88 91.4367C212.861 91.4199 212.847 91.3992 212.838 91.3751C212.827 91.3438 212.822 91.3098 212.822 91.2763L212.798 89.7052Z" fill="#29A063"/>
<path d="M216.228 89.4606C216.301 89.4576 216.374 89.4669 216.445 89.4881C216.501 89.5056 216.552 89.5357 216.594 89.577C216.634 89.619 216.664 89.669 216.683 89.7238C216.705 89.7883 216.718 89.8563 216.723 89.9244C216.723 89.9382 216.723 89.971 216.726 90.0221C216.728 90.0732 216.729 90.1341 216.73 90.2049C216.731 90.2757 216.732 90.3504 216.734 90.4304C216.737 90.5103 216.737 90.585 216.738 90.6558C216.738 90.7266 216.739 90.7876 216.739 90.8387C216.739 90.8899 216.739 90.922 216.739 90.9344C216.747 91.0608 216.708 91.1854 216.628 91.2836C216.555 91.3614 216.431 91.402 216.258 91.404C216.183 91.4071 216.107 91.3978 216.035 91.3773C215.98 91.3611 215.929 91.3317 215.888 91.291C215.848 91.2503 215.819 91.2016 215.801 91.1474C215.781 91.0829 215.768 91.0162 215.764 90.9487C215.762 90.935 215.761 90.9022 215.76 90.8511C215.759 90.8 215.758 90.739 215.756 90.6683C215.754 90.5975 215.753 90.5228 215.751 90.4428C215.75 90.3628 215.75 90.2881 215.749 90.2173C215.749 90.1465 215.749 90.0862 215.748 90.0357C215.747 89.9853 215.747 89.9531 215.748 89.9394C215.75 89.8705 215.761 89.8028 215.779 89.7363C215.793 89.681 215.821 89.6301 215.859 89.5876C215.899 89.545 215.948 89.5134 216.004 89.4942C216.076 89.4715 216.152 89.4598 216.228 89.4606ZM216.35 89.921C216.351 89.8947 216.347 89.8679 216.339 89.8431C216.333 89.8262 216.324 89.8106 216.31 89.799C216.3 89.7893 216.287 89.7829 216.272 89.7799C216.259 89.7775 216.246 89.7757 216.233 89.7759C216.22 89.7761 216.207 89.7783 216.195 89.7824C216.181 89.7865 216.169 89.7946 216.16 89.8046C216.148 89.8185 216.139 89.8344 216.133 89.8522C216.125 89.8779 216.121 89.9048 216.12 89.9317C216.119 89.9455 216.119 89.9783 216.12 90.0307C216.121 90.0825 216.121 90.1441 216.122 90.2149C216.122 90.2857 216.122 90.3604 216.124 90.4404C216.125 90.5203 216.127 90.595 216.128 90.6658C216.13 90.7366 216.132 90.7975 216.133 90.8487C216.133 90.8998 216.134 90.9319 216.136 90.9443C216.135 90.9719 216.139 90.9993 216.148 91.0261C216.153 91.0424 216.163 91.058 216.175 91.0703C216.185 91.0806 216.198 91.087 216.212 91.0894C216.225 91.0918 216.239 91.0922 216.253 91.092C216.265 91.0918 216.278 91.0903 216.291 91.0882C216.305 91.0853 216.317 91.0786 216.326 91.068C216.338 91.0547 216.347 91.0394 216.353 91.023C216.362 90.9966 216.366 90.969 216.365 90.9408C216.365 90.9271 216.365 90.8943 216.365 90.8418C216.365 90.79 216.365 90.7278 216.364 90.6563L216.357 90.2034C216.356 90.132 216.354 90.071 216.353 90.0193C216.351 89.9675 216.35 89.9347 216.35 89.921ZM217.011 89.6414C217.008 89.6126 217.01 89.5831 217.019 89.556C217.029 89.5284 217.044 89.5039 217.065 89.4832C217.102 89.4545 217.147 89.4387 217.194 89.4386C217.217 89.4383 217.241 89.4412 217.264 89.4467C217.286 89.4523 217.306 89.4631 217.324 89.478C217.342 89.4954 217.356 89.5161 217.366 89.5396C217.378 89.5702 217.384 89.6029 217.383 89.6357L217.386 89.8566L217.531 89.8544C217.567 89.8525 217.603 89.8572 217.637 89.8665C217.661 89.8734 217.683 89.8848 217.702 89.9009C217.716 89.9145 217.728 89.932 217.733 89.9509C217.739 89.9692 217.742 89.9882 217.742 90.0072C217.742 90.0288 217.74 90.0498 217.735 90.0702C217.73 90.0899 217.719 90.1072 217.705 90.1211C217.687 90.1378 217.665 90.15 217.641 90.1569C217.607 90.1666 217.571 90.1717 217.536 90.1709L217.391 90.1732L217.397 90.571L217.542 90.5688C217.578 90.5669 217.614 90.5716 217.648 90.5809C217.672 90.5878 217.694 90.5992 217.713 90.6153C217.728 90.6289 217.739 90.6464 217.744 90.6653C217.75 90.6836 217.753 90.7026 217.753 90.7216C217.753 90.7432 217.751 90.7642 217.746 90.7846C217.741 90.8044 217.73 90.8216 217.716 90.8356C217.698 90.8522 217.676 90.8644 217.652 90.8713C217.618 90.881 217.582 90.8861 217.547 90.8854L217.402 90.8876L217.407 91.2048C217.409 91.2382 217.403 91.2724 217.393 91.304C217.384 91.3278 217.371 91.3489 217.352 91.3669C217.336 91.3823 217.316 91.3937 217.294 91.3999C217.248 91.4131 217.2 91.4138 217.154 91.4021C217.131 91.3965 217.111 91.3857 217.094 91.3709C217.074 91.3541 217.06 91.3334 217.051 91.3092C217.04 91.2773 217.035 91.2439 217.035 91.2105L217.011 89.6414Z" fill="#29A063"/>
<path d="M220.791 89.4094C220.824 89.4076 220.856 89.4117 220.888 89.4204C220.908 89.4266 220.927 89.4388 220.941 89.4543C220.954 89.4698 220.962 89.4881 220.965 89.5077C220.969 89.5319 220.97 89.5568 220.971 89.581L220.985 90.4829C220.985 90.5137 220.983 90.5518 220.979 90.5977C220.975 90.6437 220.968 90.6943 220.958 90.7475C220.948 90.8034 220.935 90.8593 220.918 90.914C220.902 90.97 220.881 91.024 220.855 91.0762C220.831 91.1258 220.801 91.1728 220.766 91.2159C220.734 91.2564 220.695 91.2898 220.649 91.3141C220.63 91.3255 220.61 91.3324 220.589 91.3353C220.567 91.3383 220.545 91.336 220.524 91.3298C220.489 91.3179 220.456 91.298 220.43 91.2715C220.415 91.258 220.404 91.2398 220.397 91.2203C220.391 91.1994 220.388 91.1771 220.389 91.1548C220.391 91.1305 220.395 91.1069 220.403 91.0845C220.411 91.0614 220.422 91.0389 220.436 91.0184C220.468 90.9707 220.498 90.9204 220.523 90.8689C220.545 90.8233 220.562 90.7765 220.574 90.7278C220.586 90.6791 220.593 90.6292 220.597 90.5793C220.601 90.5268 220.602 90.4684 220.601 90.4042L220.591 89.7304L220.177 89.7368C220.141 89.738 220.105 89.7346 220.071 89.7259C220.047 89.7197 220.025 89.7083 220.006 89.6922C219.991 89.6786 219.98 89.6611 219.975 89.6422C219.969 89.6219 219.965 89.6004 219.966 89.5794C219.966 89.5604 219.968 89.5413 219.973 89.5229C219.978 89.5032 219.989 89.4859 220.003 89.472C220.021 89.4553 220.043 89.4425 220.067 89.4356C220.1 89.4252 220.136 89.4194 220.172 89.4202L220.791 89.4107L220.791 89.4094ZM221.507 89.5709C221.503 89.5421 221.506 89.5125 221.515 89.4855C221.524 89.4578 221.539 89.4333 221.56 89.4127C221.597 89.384 221.643 89.3682 221.689 89.3681C221.713 89.3678 221.736 89.3707 221.759 89.3762C221.781 89.3818 221.802 89.3926 221.819 89.4074C221.837 89.4248 221.852 89.4456 221.861 89.4691C221.873 89.4997 221.879 89.5324 221.878 89.5652L221.902 91.1362C221.904 91.1697 221.899 91.2038 221.888 91.2355C221.879 91.2592 221.866 91.2804 221.848 91.2983C221.832 91.3137 221.812 91.3251 221.789 91.3314C221.744 91.3445 221.695 91.3453 221.649 91.3335C221.626 91.328 221.604 91.3159 221.586 91.2997C221.568 91.2836 221.555 91.2635 221.547 91.2407C221.535 91.2087 221.53 91.1754 221.53 91.1419L221.507 89.5709Z" fill="#29A063"/>
<path d="M191.66 51.7112C192.778 51.7455 193.643 52.1594 193.991 53.5126C194.208 53.1298 194.372 52.9474 194.418 52.7386C194.585 51.9711 195.08 51.6943 195.813 51.6794C195.996 51.6754 196.179 51.5649 196.51 51.3248C196.269 51.151 196.046 50.9317 195.78 50.8134C195.134 50.5295 195.212 50.0278 195.306 49.4927C195.346 49.2632 195.345 49.0282 195.384 48.5283C194.336 49.5577 193.352 49.4308 192.287 48.7801C192.813 49.9617 192.691 50.9268 191.612 51.5528" fill="black"/>
<path d="M192.696 49.2656C193.58 49.9227 194.343 49.7801 195.104 49.001C195.038 49.6018 194.852 50.077 194.981 50.4398C195.114 50.8098 195.556 51.0686 195.976 51.4906C194.811 51.3358 194.273 51.8691 194.035 52.8629C193.716 51.8312 193.058 51.4618 192 51.5429C192.971 50.9675 193.058 50.211 192.696 49.2656Z" fill="black"/>
<path d="M198.477 56.3747C197.485 55.1115 198.553 56.316 198.477 56.3747C196.835 54.2837 197.427 54.7642 195.784 52.6732C195.713 52.7294 195.642 52.7843 195.57 52.8405C197.209 54.9352 198.477 56.3747 198.477 56.3747Z" fill="black"/>
<path d="M192.695 49.2644C193.057 50.2098 192.97 50.9663 192 51.5429C193.058 51.4606 193.716 51.8312 194.035 52.8629C194.273 51.8679 194.811 51.3346 195.976 51.4906C195.556 51.0686 195.112 50.8098 194.981 50.4398C194.852 50.0783 195.036 49.603 195.104 49.001C194.342 49.7777 193.579 49.9203 192.695 49.2644Z" fill="white"/>
<path d="M242.456 59.4439C240.974 59.5388 239.843 60.1562 239.439 62.0709C239.135 61.5425 238.908 61.2932 238.839 61.002C238.585 59.9313 237.917 59.5632 236.944 59.573C236.7 59.575 236.452 59.4275 236.004 59.1042C236.317 58.8501 236.603 58.5328 236.951 58.3556C237.796 57.93 237.671 57.2287 237.525 56.4813C237.462 56.1607 237.453 55.8307 237.381 55.1303C238.814 56.532 240.116 56.3127 241.502 55.3544C240.853 57.0356 241.056 58.3856 242.513 59.2195" fill="black"/>
<path d="M240.977 56.311C239.765 57.2213 238.69 57.0637 237.59 56.0602C237.709 56.8558 237.99 57.4796 237.824 57.967C237.653 58.4643 237.044 58.8268 236.473 59.4051C238.099 59.1507 238.875 59.8369 239.251 61.1476C239.655 59.7631 240.562 59.2448 242.049 59.3083C240.663 58.5842 240.509 57.5826 240.977 56.311Z" fill="black"/>
<path d="M232.121 68.2277C232.019 68.1504 232.06 68.1414 231.958 68.0625C234.031 65.1316 234.607 64.1167 236.68 61.1858C236.776 61.2598 236.872 61.3321 236.969 61.4061C234.9 64.3419 234.19 65.2918 232.121 68.2277Z" fill="black"/>
<path d="M240.978 56.3094C240.511 57.5809 240.665 58.5826 242.049 59.3083C240.562 59.2432 239.655 59.7631 239.251 61.1476C238.875 59.8353 238.099 59.1491 236.473 59.4051C237.044 58.8268 237.655 58.4643 237.824 57.967C237.99 57.4812 237.711 56.8574 237.59 56.0602C238.692 57.0604 239.767 57.218 240.978 56.3094Z" fill="white"/>
<path d="M293.701 102.716H147.354L146.787 94.5723H293.14L293.701 102.716Z" fill="#29A063"/>
<path d="M292.164 102.716H145.817L140 18.5273H286.353L292.164 102.716Z" fill="black" fill-opacity="0.3"/>
<path d="M259.342 24.168H260.956L261.224 28.0966H263.739L263.831 29.3818H259.701L259.342 24.168Z" fill="white"/>
<path d="M264.27 24.168H265.884L266.243 29.3818H264.629L264.27 24.168Z" fill="white"/>
<path d="M266.523 24.168H268.211L269.642 27.92L270.543 24.168H272.176L270.598 29.3818H268.85L266.523 24.168Z" fill="white"/>
<path d="M272.699 24.168H277.018L277.097 25.2826H274.392L274.453 26.111H276.957L277.03 27.1769H274.526L274.593 28.2002H277.377L277.456 29.3818H273.034L272.699 24.168Z" fill="white"/>
<path d="M295.333 104.238H145.928L139.91 17.0039H289.309L295.333 104.238ZM148.772 101.193H292.068L286.464 20.0494H143.169L148.772 101.193Z" fill="#263238"/>
<path d="M289.217 102.629C289.21 102.562 289.218 102.494 289.239 102.43C289.261 102.365 289.296 102.306 289.342 102.257C289.388 102.207 289.444 102.168 289.507 102.142C289.569 102.116 289.637 102.104 289.704 102.106C289.846 102.108 289.981 102.163 290.085 102.26C290.188 102.356 290.252 102.488 290.264 102.629C290.27 102.696 290.262 102.764 290.24 102.828C290.218 102.892 290.183 102.95 290.137 102.999C290.091 103.049 290.036 103.088 289.974 103.114C289.912 103.141 289.845 103.154 289.777 103.153C289.635 103.151 289.499 103.097 289.395 103C289.292 102.903 289.228 102.771 289.217 102.629V102.629Z" fill="#407BFF"/>
<path d="M285.868 102.629C285.861 102.562 285.868 102.494 285.89 102.43C285.911 102.365 285.946 102.306 285.992 102.257C286.039 102.207 286.095 102.168 286.157 102.142C286.22 102.116 286.287 102.104 286.355 102.106C286.496 102.108 286.632 102.163 286.735 102.26C286.839 102.356 286.903 102.488 286.915 102.629C286.921 102.696 286.912 102.764 286.891 102.828C286.869 102.892 286.834 102.95 286.788 102.999C286.742 103.049 286.686 103.088 286.624 103.114C286.562 103.141 286.495 103.154 286.428 103.153C286.286 103.151 286.149 103.097 286.046 103C285.942 102.903 285.878 102.771 285.868 102.629V102.629Z" fill="white"/>
<path d="M108.707 169.071L107.27 168.005C107.005 167.806 106.697 167.674 106.37 167.619C106.044 167.564 105.709 167.588 105.394 167.689L102.403 168.645C101.814 168.835 101.278 169.162 100.84 169.601C100.403 170.04 100.076 170.576 99.8877 171.167L99.6562 171.91C101.91 173.847 105.747 174.273 105.747 174.273L106.837 174.523C107.059 174.578 107.289 174.589 107.515 174.556C107.741 174.522 107.958 174.444 108.154 174.327C108.35 174.209 108.521 174.054 108.656 173.87C108.792 173.686 108.89 173.477 108.945 173.256L109.457 171.106C109.542 170.73 109.516 170.339 109.383 169.978C109.25 169.617 109.015 169.302 108.707 169.071V169.071Z" fill="#FFC3BD"/>
<path d="M100.984 150.297L100.466 151.101L99.9238 151.972C99.5706 152.582 99.2295 153.154 98.8884 153.757C98.2184 154.975 97.591 156.193 97.0063 157.412C96.4215 158.63 95.8916 159.921 95.4165 161.2C94.9432 162.467 94.5366 163.758 94.1983 165.068L94.2471 164.508C94.2139 164.629 94.2139 164.758 94.2471 164.879C94.3257 165.108 94.4548 165.316 94.6247 165.488C95.1805 166.066 95.8264 166.549 96.5373 166.92C97.3719 167.387 98.239 167.794 99.132 168.138C100.04 168.515 101.032 168.838 101.94 169.131L102.031 169.161C102.36 169.269 102.639 169.49 102.82 169.784C103.002 170.078 103.073 170.428 103.021 170.769C102.969 171.111 102.798 171.423 102.537 171.651C102.277 171.878 101.944 172.006 101.599 172.012C100.47 172.02 99.3425 171.947 98.2245 171.792C97.0672 171.63 95.9274 171.361 94.8196 170.988C93.5587 170.582 92.3807 169.953 91.3417 169.131C90.7113 168.619 90.1753 168 89.758 167.303C89.2889 166.491 89.0215 165.578 88.9784 164.642C88.9629 164.496 88.9629 164.349 88.9784 164.203V164.081C89.2377 162.527 89.5958 160.991 90.0504 159.483C90.4956 157.989 91.0284 156.522 91.6462 155.091C92.2553 153.66 92.9253 152.271 93.6623 150.913C94.04 150.243 94.4237 149.573 94.8318 148.909C95.2399 148.245 95.6419 147.624 96.1596 146.905C96.5984 146.273 97.2686 145.839 98.0249 145.698C98.7812 145.557 99.5627 145.72 100.2 146.151C100.837 146.582 101.279 147.247 101.429 148.002C101.579 148.756 101.425 149.539 101.002 150.182L100.984 150.297Z" fill="#FFC3BD"/>
<path d="M149.778 168.6L148.73 167.15C148.535 166.882 148.28 166.665 147.984 166.516C147.689 166.366 147.362 166.289 147.031 166.291L143.906 166.309C143.288 166.312 142.679 166.463 142.131 166.751C141.583 167.038 141.112 167.453 140.757 167.96L140.307 168.569C141.884 171.091 145.441 172.656 145.441 172.656L146.404 173.21C146.598 173.332 146.815 173.413 147.041 173.45C147.268 173.487 147.499 173.478 147.722 173.424C147.945 173.37 148.155 173.272 148.34 173.136C148.524 173 148.68 172.829 148.797 172.632L149.93 170.737C150.11 170.403 150.191 170.025 150.164 169.646C150.137 169.268 150.003 168.905 149.778 168.6V168.6Z" fill="#FFC3BD"/>
<path d="M127.18 148.862L127.649 150.531C127.82 151.14 127.996 151.688 128.191 152.267C128.565 153.424 128.959 154.577 129.373 155.727C129.793 156.878 130.226 158.023 130.688 159.156C131.151 160.289 131.633 161.416 132.138 162.536L131.827 162.067C132.326 162.68 132.949 163.181 133.655 163.535C134.557 164.015 135.496 164.423 136.463 164.753C137.468 165.119 138.521 165.436 139.599 165.728C140.678 166.02 141.792 166.288 142.846 166.526H142.913C143.253 166.606 143.553 166.804 143.759 167.086C143.965 167.368 144.064 167.715 144.037 168.063C144.009 168.411 143.858 168.738 143.611 168.985C143.363 169.231 143.036 169.381 142.688 169.407C141.47 169.476 140.25 169.476 139.033 169.407C137.807 169.339 136.586 169.194 135.378 168.974C134.093 168.748 132.834 168.393 131.62 167.915C130.166 167.37 128.858 166.494 127.801 165.356C127.728 165.272 127.662 165.18 127.606 165.082L127.497 164.887C126.193 162.587 125.036 160.207 124.031 157.761C123.519 156.543 123.069 155.294 122.648 154.033C122.441 153.424 122.246 152.766 122.039 152.121C121.832 151.475 121.686 150.86 121.515 150.105C121.325 149.353 121.441 148.556 121.838 147.889C122.235 147.223 122.88 146.741 123.632 146.551C124.384 146.36 125.181 146.476 125.847 146.873C126.514 147.27 126.996 147.915 127.186 148.667L127.18 148.862Z" fill="#FFC3BD"/>
<path d="M158.366 140.308C157.845 139.263 156.987 138.424 155.93 137.926C155.546 136.889 155.535 135.749 155.899 134.704L143.906 130.666C144.82 134.674 145.533 137.841 144.016 139.754C146.367 141.24 150.679 143.914 155.424 143.853C160.169 143.792 159.134 141.995 158.366 140.308Z" fill="#FFB573"/>
<path d="M155.004 122.9L156.222 126.671C156.222 126.671 157.763 126.537 158.403 125.617C157.535 124.422 156.361 123.484 155.004 122.9V122.9Z" fill="#ED893E"/>
<path d="M154.779 122.455C154.968 122.887 155.351 123.131 155.631 123.003C155.911 122.875 155.984 122.394 155.79 121.992C155.595 121.59 155.218 121.316 154.938 121.444C154.658 121.572 154.585 121.998 154.779 122.455Z" fill="#263238"/>
<path d="M154.163 119.307C154.124 119.328 154.08 119.338 154.035 119.338C153.991 119.338 153.947 119.328 153.907 119.307C153.593 119.16 153.248 119.091 152.901 119.106C152.554 119.121 152.216 119.219 151.916 119.392C151.854 119.432 151.779 119.447 151.707 119.432C151.635 119.417 151.572 119.374 151.532 119.313C151.492 119.252 151.477 119.177 151.492 119.105C151.507 119.033 151.55 118.97 151.611 118.929C151.987 118.705 152.412 118.576 152.849 118.553C153.286 118.529 153.723 118.613 154.121 118.795C154.154 118.809 154.185 118.829 154.211 118.854C154.237 118.88 154.257 118.91 154.271 118.944C154.284 118.977 154.291 119.013 154.29 119.05C154.29 119.086 154.282 119.122 154.267 119.155C154.248 119.215 154.212 119.268 154.163 119.307Z" fill="#263238"/>
<path d="M139.551 127.425C142.243 132.554 144.174 135.953 148.237 136.836C156.301 138.541 158.664 134.028 157.562 128.181C156.563 122.924 152.336 115.39 146.245 115.682C144.895 115.739 143.582 116.138 142.429 116.841C141.276 117.545 140.32 118.529 139.651 119.703C138.982 120.876 138.622 122.2 138.604 123.551C138.587 124.902 138.913 126.235 139.551 127.425V127.425Z" fill="#FFB573"/>
<path d="M149.223 119.915C151.946 119.653 152.914 123.003 151.86 126.657C154.065 128.564 153.822 135.361 145.55 135.526C141.944 135.599 133.703 129.672 135.805 125.062C137.906 120.451 149.223 119.915 149.223 119.915Z" fill="#263238"/>
<path d="M147.293 123.674C151.234 121.061 153.299 117.65 152.27 114.537C151.24 111.425 147.434 110.359 143.858 111.169C140.283 111.979 143.353 114.068 143.353 114.068C143.353 114.068 138.559 113.459 136.141 115.487C133.723 117.516 136.89 118.198 136.89 118.198C136.89 118.198 132.365 122.139 135.897 125.397C138.65 127.937 144.918 125.227 147.293 123.674Z" fill="#263238"/>
<path d="M139.361 139.99C139.769 138.035 141.189 137.28 142.583 136.689C143.978 136.098 155.6 136.89 158.383 137.475C159.037 138.661 159.627 139.881 160.15 141.129L139.361 139.99Z" fill="#92E3A9"/>
<path d="M148.998 126.974C149.397 127.456 149.888 127.854 150.442 128.146C150.996 128.438 151.602 128.617 152.226 128.673C153.901 128.813 154.437 127.235 153.718 125.816C153.073 124.543 151.422 122.935 149.863 123.459C149.525 123.579 149.222 123.782 148.982 124.048C148.741 124.314 148.57 124.635 148.485 124.984C148.399 125.332 148.401 125.696 148.491 126.043C148.58 126.391 148.754 126.71 148.998 126.974V126.974Z" fill="#FFB573"/>
<path d="M162.228 138.951C154.115 138.055 145.928 138.055 137.815 138.951C136.694 139.092 135.613 139.461 134.639 140.035C133.665 140.608 132.819 141.375 132.151 142.287C131.484 143.2 131.01 144.239 130.759 145.341C130.507 146.443 130.484 147.585 130.689 148.696C132.105 156.593 132.859 164.594 132.943 172.616C132.999 176.68 134.45 180.603 137.052 183.726C139.654 186.849 143.25 188.984 147.238 189.774C151.916 190.734 156.664 191.312 161.436 191.504C163.78 191.56 166.11 191.129 168.279 190.239C170.448 189.348 172.409 188.018 174.037 186.33C175.665 184.643 176.925 182.637 177.738 180.437C178.551 178.238 178.898 175.894 178.759 173.554C177.857 158.546 171.699 150.268 168.727 143.708C168.14 142.426 167.235 141.316 166.097 140.483C164.959 139.65 163.627 139.123 162.228 138.951V138.951Z" fill="#263238"/>
<path d="M88.2106 147.191H74.5547V148.403H88.2106V147.191Z" fill="#263238"/>
<path d="M94.7102 145.083L95.2828 148.737C94.4788 152.556 89.7461 150.674 89.7461 150.674H87.1026C86.6389 150.645 86.2006 150.452 85.866 150.129C85.5314 149.807 85.322 149.376 85.2753 148.914L84.8551 146.356C84.7402 145.836 84.8315 145.291 85.1098 144.837C85.3881 144.382 85.8317 144.053 86.3473 143.919L88.6193 143.536C89.2795 143.421 89.9579 143.474 90.5927 143.688L94.7102 145.083Z" fill="#FFB573"/>
<path d="M140.611 153.246L134.818 154.233L128.995 155.189L123.209 156.17C121.29 156.505 119.371 156.833 117.489 157.187L116.411 157.388H115.967C113.689 157.284 111.703 157.034 109.681 156.779C107.659 156.523 105.703 156.206 103.742 155.883C101.781 155.56 99.8378 155.195 97.8948 154.805C95.9517 154.415 94.0331 154.007 92.084 153.538L93.223 144.256C95.1477 144.256 97.1029 144.31 99.0398 144.329L104.832 144.438C106.757 144.493 108.67 144.511 110.558 144.536C112.446 144.56 114.34 144.536 115.967 144.463L114.438 144.645C116.423 144.067 118.391 143.519 120.364 143.013C122.338 142.508 124.293 142.02 126.26 141.563C128.228 141.107 130.195 140.656 132.162 140.242C134.13 139.828 136.091 139.426 138.113 139.072L140.611 153.246Z" fill="#263238"/>
<path d="M202.482 165.975L202.123 169.672C203.146 173.437 207.757 171.28 207.757 171.28L210.401 171.146C210.863 171.09 211.291 170.872 211.608 170.531C211.926 170.19 212.113 169.748 212.137 169.283L212.405 166.694C212.492 166.167 212.371 165.626 212.066 165.187C211.761 164.748 211.297 164.445 210.772 164.343L208.482 164.087C207.816 164.014 207.143 164.106 206.521 164.355L202.482 165.975Z" fill="#FFB573"/>
<path d="M167.758 142.105C169.323 143.537 170.883 145.029 172.448 146.485L177.101 150.907L186.372 159.678L185.02 158.801C186.335 159.522 187.694 160.161 189.088 160.713C190.575 161.286 192.134 161.84 193.736 162.334C195.338 162.827 196.988 163.284 198.645 163.716C199.48 163.935 200.314 164.155 201.148 164.325L203.585 164.934L202.884 174.229C201.818 174.26 200.911 174.26 199.936 174.229C198.962 174.199 198.018 174.174 197.055 174.113C195.143 174 193.22 173.809 191.287 173.541C189.35 173.248 187.401 172.901 185.428 172.408C183.361 171.895 181.337 171.223 179.373 170.398L178.892 170.197L178.015 169.545C176.261 168.187 174.543 166.829 172.85 165.446C171.157 164.063 169.476 162.687 167.819 161.274C166.162 159.861 164.505 158.472 162.867 157.047C161.228 155.621 159.608 154.196 157.994 152.71L167.758 142.105Z" fill="#263238"/>
<path d="M222.937 169.59H191.483C189.544 169.59 187.685 170.36 186.315 171.731C184.944 173.101 184.174 174.96 184.174 176.899V225.304C184.174 227.242 184.944 229.101 186.315 230.472C187.685 231.843 189.544 232.613 191.483 232.613H215.627C217.566 232.613 219.425 231.843 220.796 230.472C222.167 229.101 222.937 227.242 222.937 225.304V190.841C225.711 190.775 228.349 189.626 230.287 187.641C232.226 185.655 233.311 182.99 233.311 180.216C233.311 177.441 232.226 174.776 230.287 172.79C228.349 170.805 225.711 169.656 222.937 169.59V169.59Z" fill="#92E3A9"/>
<path opacity="0.2" d="M206.861 190.84L222.935 196.626V190.84H206.861Z" fill="black"/>
<path d="M184.716 148.404H63.7745C62.8585 148.382 61.949 148.561 61.1096 148.928C60.2701 149.295 59.5212 149.842 58.9153 150.529C58.3093 151.216 57.8611 152.027 57.602 152.906C57.343 153.785 57.2793 154.71 57.4155 155.616C57.6865 157.578 58.6464 159.38 60.1237 160.7C61.601 162.02 63.4994 162.772 65.4799 162.821L72.9109 225.302C73.1896 227.291 74.1645 229.117 75.6621 230.455C77.1598 231.793 79.0833 232.557 81.091 232.611H194.748C195.675 232.631 196.596 232.448 197.445 232.076C198.295 231.703 199.052 231.149 199.666 230.453C200.279 229.757 200.732 228.935 200.995 228.046C201.258 227.156 201.323 226.22 201.186 225.302L192.921 155.713C192.642 153.72 191.664 151.89 190.162 150.551C188.659 149.212 186.729 148.451 184.716 148.404V148.404Z" fill="#92E3A9"/>
<path opacity="0.2" d="M176.322 150.43H59.0166C58.3897 151.124 57.9221 151.948 57.6464 152.842C57.3708 153.736 57.2938 154.68 57.4208 155.607C57.6905 157.571 58.6498 159.374 60.1273 160.695C61.6047 162.017 63.5038 162.769 65.4852 162.819L72.9101 225.3C73.1875 227.288 74.1611 229.114 75.6577 230.452C77.1544 231.79 79.0771 232.554 81.0841 232.609H191.123C191.768 231.903 192.249 231.064 192.533 230.151C192.818 229.239 192.898 228.275 192.768 227.328L184.502 157.739C184.217 155.753 183.24 153.931 181.744 152.594C180.247 151.257 178.328 150.491 176.322 150.43V150.43Z" fill="black"/>
<path opacity="0.1" d="M178.016 163.124H68.3788C68.298 163.124 68.2205 163.092 68.1634 163.035C68.1063 162.978 68.0742 162.901 68.0742 162.82C68.0742 162.739 68.1063 162.662 68.1634 162.605C68.2205 162.548 68.298 162.516 68.3788 162.516H178.016C178.097 162.516 178.174 162.548 178.231 162.605C178.288 162.662 178.32 162.739 178.32 162.82C178.32 162.901 178.288 162.978 178.231 163.035C178.174 163.092 178.097 163.124 178.016 163.124Z" fill="black"/>
<path d="M191.273 160.865C193.846 158.135 193.438 153.574 190.363 150.676C187.289 147.778 182.71 147.642 180.138 150.372C177.566 153.102 177.973 157.663 181.048 160.561C184.123 163.459 188.701 163.595 191.273 160.865Z" fill="#92E3A9"/>
<path d="M244.152 128.668L238.658 129.74C237.945 129.879 237.48 130.57 237.619 131.283L238.691 136.777C238.83 137.491 239.521 137.956 240.234 137.817L245.728 136.745C246.441 136.606 246.907 135.915 246.768 135.202L245.696 129.708C245.557 128.995 244.866 128.529 244.152 128.668Z" fill="#263238"/>
<path d="M257.495 154.737L236.085 158.915C235.904 158.951 235.717 158.946 235.538 158.902C235.359 158.858 235.192 158.774 235.048 158.658C234.905 158.542 234.788 158.396 234.708 158.23C234.627 158.063 234.584 157.882 234.581 157.697L234.404 134.752C234.41 134.463 234.515 134.184 234.701 133.963C234.887 133.741 235.144 133.59 235.428 133.534L248.554 130.982C248.842 130.926 249.142 130.973 249.4 131.114C249.658 131.255 249.858 131.482 249.967 131.756L258.427 153.074C258.488 153.244 258.512 153.425 258.498 153.606C258.483 153.786 258.429 153.961 258.341 154.118C258.253 154.276 258.131 154.413 257.985 154.52C257.839 154.626 257.672 154.7 257.495 154.737V154.737Z" fill="#92E3A9"/>
<path d="M216.668 225.294C216.506 225.294 216.351 225.23 216.237 225.116C216.123 225.002 216.059 224.847 216.059 224.685V159.305C216.059 159.164 216.106 159.027 216.193 158.915L241.056 128.802C241.158 128.676 241.307 128.597 241.468 128.581C241.629 128.565 241.789 128.614 241.915 128.716C242.04 128.819 242.119 128.967 242.135 129.128C242.151 129.289 242.103 129.45 242 129.575L217.277 159.524V224.697C217.274 224.857 217.208 225.009 217.094 225.12C216.98 225.232 216.827 225.294 216.668 225.294V225.294Z" fill="#263238"/>
<path d="M216.668 160.85C217.523 160.85 218.215 160.157 218.215 159.303C218.215 158.449 217.523 157.756 216.668 157.756C215.814 157.756 215.121 158.449 215.121 159.303C215.121 160.157 215.814 160.85 216.668 160.85Z" fill="#263238"/>
<path d="M243.218 130.464C243.015 130.762 242.728 130.993 242.394 131.128C242.06 131.264 241.693 131.297 241.34 131.225C240.987 131.152 240.664 130.977 240.41 130.721C240.156 130.465 239.984 130.139 239.915 129.786C239.846 129.432 239.883 129.066 240.021 128.733C240.159 128.4 240.393 128.116 240.693 127.915C240.992 127.715 241.345 127.608 241.705 127.607C242.065 127.607 242.418 127.713 242.718 127.912C242.92 128.046 243.093 128.218 243.227 128.419C243.362 128.621 243.455 128.846 243.501 129.084C243.548 129.321 243.547 129.565 243.498 129.802C243.449 130.039 243.354 130.264 243.218 130.464Z" fill="#263238"/>
<path d="M218.824 231.196H214.561V210.591C214.562 210.026 214.787 209.485 215.187 209.085C215.586 208.686 216.127 208.461 216.692 208.459V208.459C217.257 208.462 217.797 208.688 218.196 209.087C218.595 209.486 218.821 210.026 218.824 210.591V231.196Z" fill="#263238"/>
<path d="M207.02 230.641H226.31C227.171 230.641 227.997 230.983 228.606 231.592C229.214 232.2 229.556 233.026 229.556 233.887H203.773C203.773 233.026 204.115 232.2 204.724 231.592C205.333 230.983 206.159 230.641 207.02 230.641V230.641Z" fill="#263238"/>
<path d="M152.29 23.9534C151.606 23.9937 150.937 24.1683 150.322 24.4666C149.705 24.7651 149.155 25.1831 148.7 25.6941C148.246 26.205 147.895 26.8016 147.671 27.4492C147.447 28.0969 147.352 28.7803 147.392 29.4641L147.53 31.8067C147.57 32.4906 147.745 33.1598 148.043 33.775C148.342 34.3918 148.76 34.9416 149.271 35.3973C149.784 35.853 150.378 36.202 151.026 36.426C151.674 36.65 152.357 36.745 153.041 36.7047C154.422 36.6234 155.712 35.9965 156.632 34.964C157.551 33.9299 158.02 32.5749 157.939 31.194L157.801 28.8514C157.72 27.4704 157.093 26.18 156.06 25.2608C155.028 24.3432 153.671 23.8721 152.29 23.9534ZM155.063 31.3549C155.087 31.6641 155.048 31.9736 154.952 32.2681C154.854 32.5627 154.7 32.8339 154.495 33.0663C154.291 33.3003 154.042 33.4903 153.765 33.6268C153.487 33.7634 153.185 33.843 152.875 33.8612C152.566 33.8794 152.256 33.8359 151.964 33.7328C151.673 33.6298 151.403 33.4704 151.174 33.2618C150.944 33.0533 150.758 32.8021 150.626 32.5227C150.494 32.2416 150.42 31.9388 150.408 31.629L150.271 29.303C150.248 28.9938 150.287 28.6843 150.383 28.3898C150.481 28.0953 150.635 27.824 150.84 27.5916C151.043 27.3576 151.292 27.1676 151.57 27.0311C151.847 26.8945 152.15 26.8149 152.459 26.7967C152.769 26.7785 153.079 26.822 153.37 26.9251C153.662 27.0281 153.932 27.1875 154.161 27.3961C154.39 27.6047 154.577 27.8558 154.709 28.1352C154.84 28.4163 154.915 28.7191 154.926 29.0289L155.063 31.3549Z" fill="#29A063"/>
<path d="M150.682 23.1182C150.717 23.1294 150.752 23.1474 150.78 23.1741C150.808 23.2009 150.829 23.2331 150.842 23.2673C150.856 23.3032 150.86 23.3414 150.856 23.3784C150.851 23.4171 150.838 23.4529 150.818 23.4841L150.82 23.4873C150.718 23.5585 150.631 23.6504 150.566 23.7561C150.5 23.8618 150.455 23.9796 150.434 24.1028C151.611 23.5977 152.929 23.5201 154.159 23.8835C154.124 23.7637 154.067 23.6518 153.988 23.5546C153.911 23.4573 153.812 23.378 153.704 23.3176L153.703 23.3143C153.68 23.2856 153.663 23.2499 153.654 23.2137C153.645 23.1758 153.646 23.1373 153.654 23.1001C153.664 23.0628 153.68 23.0285 153.705 23.0003C153.73 22.9704 153.76 22.9486 153.796 22.9332C153.885 22.9029 153.961 22.845 154.013 22.7668C154.066 22.6886 154.092 22.5969 154.088 22.5036C154.084 22.4103 154.049 22.3206 153.99 22.2473C153.93 22.1756 153.849 22.1237 153.757 22.1023C153.666 22.0793 153.571 22.0882 153.485 22.125C153.399 22.1618 153.327 22.2262 153.28 22.3074C153.233 22.3886 153.214 22.4833 153.224 22.5761C153.235 22.669 153.277 22.7567 153.341 22.8247L153.339 22.8248C153.362 22.8535 153.38 22.8892 153.388 22.9254C153.397 22.9633 153.396 23.0018 153.388 23.039C153.379 23.0763 153.363 23.1106 153.337 23.1388C153.312 23.167 153.282 23.1905 153.246 23.2059L153.245 23.2094C153.121 23.2116 153 23.2405 152.886 23.2906C152.773 23.2254 152.652 23.1808 152.525 23.1549L152.525 23.1499C152.485 23.1239 152.451 23.0875 152.427 23.0455C152.403 23.0035 152.388 22.9559 152.386 22.9077C152.383 22.8594 152.392 22.8105 152.411 22.766C152.43 22.7214 152.459 22.683 152.496 22.6508L152.494 22.6509C152.59 22.5801 152.661 22.4808 152.696 22.3685C152.731 22.2546 152.727 22.1329 152.687 22.0217C152.647 21.9106 152.572 21.8148 152.473 21.7489C152.374 21.6829 152.257 21.6514 152.137 21.6585C152.019 21.6654 151.904 21.7105 151.814 21.7877C151.723 21.8648 151.659 21.9687 151.633 22.0838C151.606 22.1989 151.616 22.3202 151.665 22.4292C151.713 22.5382 151.795 22.6286 151.898 22.6859C151.938 22.712 151.972 22.7484 151.996 22.7903C152.021 22.8323 152.035 22.8799 152.038 22.9281C152.041 22.9764 152.032 23.0253 152.013 23.0699C151.994 23.1144 151.964 23.1529 151.928 23.1851L151.928 23.1884C151.81 23.227 151.7 23.2836 151.601 23.3562C151.49 23.3243 151.374 23.3145 151.26 23.3262L151.258 23.323C151.221 23.3118 151.188 23.2937 151.16 23.267C151.131 23.2403 151.109 23.2082 151.097 23.1738C151.084 23.1379 151.08 23.0997 151.084 23.0611C151.088 23.0224 151.101 22.9866 151.121 22.9554L151.12 22.9555C151.175 22.8804 151.207 22.7884 151.206 22.695C151.206 22.6015 151.175 22.5098 151.119 22.4346C151.063 22.3595 150.984 22.304 150.894 22.2775C150.804 22.2511 150.708 22.2551 150.621 22.287C150.533 22.3205 150.458 22.38 150.407 22.4581C150.357 22.5362 150.332 22.6295 150.34 22.7243C150.347 22.8173 150.384 22.907 150.445 22.9769C150.507 23.0483 150.59 23.0968 150.682 23.1182Z" fill="#103B1E"/>
<rect y="276.002" width="360" height="84" fill="white"/>
<path d="M58.2681 314.094H48.1684V311.562H58.2681V314.094ZM61.7323 306.019H58.2681V308.817H48.1684V306.019H44.6775V316.892H61.7323V306.019ZM64.3705 319.21H42.1459V322.008H51.4195V329.656H54.937V322.008H64.3705V319.21ZM71.1104 309.67H81.6898V316.172H71.1104V309.67ZM78.1722 323.927V318.944H85.1274V306.899H67.6728V318.944H74.6547V323.927H65.3278V326.778H87.5524V323.927H78.1722ZM103.353 313.747C100.128 314.467 97.0371 314.707 93.3863 314.76V306.499H89.8954V317.665H92.0272C96.4242 317.665 100.022 317.398 103.779 316.599L103.353 313.747ZM96.0245 322.621H105.431V326.592H96.0245V322.621ZM92.5602 329.337H108.869V319.85H92.5602V329.337ZM105.351 305.06V318.81H108.869V305.06H105.351ZM128.507 305.06V329.683H132.024V305.06H128.507ZM118.833 306.792C115.129 306.792 112.384 310.15 112.384 315.533C112.384 320.942 115.129 324.327 118.833 324.327C122.537 324.327 125.282 320.942 125.282 315.533C125.282 310.15 122.537 306.792 118.833 306.792ZM118.833 309.963C120.645 309.963 121.898 311.909 121.898 315.533C121.898 319.184 120.645 321.129 118.833 321.129C117.021 321.129 115.769 319.184 115.769 315.533C115.769 311.909 117.021 309.963 118.833 309.963ZM155.473 315.399C151.742 314.307 149.93 311.775 149.744 309.19H154.567V306.419H141.216V309.19H146.12C145.933 311.962 144.148 314.627 140.257 315.773L142.016 318.544C144.894 317.665 146.866 315.826 147.985 313.534C149.104 315.639 150.996 317.318 153.768 318.118L155.473 315.399ZM157.072 326.538H147.745V324.38H157.072V326.538ZM157.072 321.688H147.745V319.45H144.254V329.337H160.563V319.45H157.072V321.688ZM157.019 305.113V318.411H160.563V305.113H157.019ZM168.875 321.342C167.543 321.342 166.743 319.503 166.743 315.719C166.743 311.962 167.543 310.123 168.875 310.123C170.234 310.123 171.007 311.962 171.007 315.719C171.007 319.503 170.234 321.342 168.875 321.342ZM176.097 314.12H174.152C173.752 309.537 171.78 306.819 168.875 306.819C165.624 306.819 163.572 310.176 163.572 315.719C163.572 321.289 165.624 324.646 168.875 324.646C171.86 324.646 173.858 321.768 174.178 316.972H176.097V328.537H179.375V305.486H176.097V314.12ZM181.08 305.06V329.603H184.411V305.06H181.08ZM195.495 316.172H190.698V309.883H195.495V316.172ZM198.959 307.112H187.26V318.944H198.959V307.112ZM193.549 321.235H190.032V329.203H206.74V326.405H193.549V321.235ZM205.861 312.175V305.087H202.343V322.994H205.861V315.053H209.112V312.175H205.861ZM227.764 311.562H225.393C225.526 310.416 225.606 309.244 225.606 307.991H216.066V310.789H222.115C221.662 315.586 219.53 319.13 214.68 322.088L216.679 324.54C221.262 321.822 223.714 318.411 224.806 314.36H227.764V317.691H224.353V320.516H227.764V328.564H231.042V305.62H227.764V311.562ZM232.801 305.06V329.63H236.132V305.06H232.801ZM258.594 305.113H255.05V322.994H258.594V305.113ZM253.238 316.492C249.241 315.213 247.535 312.068 247.535 308.817V306.446H243.964V308.817C243.964 312.095 242.206 315.533 238.128 316.918L239.914 319.716C242.765 318.731 244.684 316.732 245.803 314.254C246.869 316.545 248.734 318.357 251.452 319.29L253.238 316.492ZM245.776 326.405V321.289H242.259V329.203H259.207V326.405H245.776ZM265.84 310.203H273.782V307.352H262.35V323.794H264.428C268.692 323.794 272.049 323.66 275.754 322.994L275.407 320.09C272.236 320.623 269.331 320.809 265.84 320.862V310.203ZM284.174 314.147H280.604V305.087H277.086V329.683H280.604V317.052H284.174V314.147ZM293.712 316.279H289.049V309.803H293.712V316.279ZM301.574 311.749V314.227H297.15V311.749H301.574ZM297.15 317.025H301.574V322.968H305.091V305.087H301.574V308.951H297.15V307.059H285.585V319.05H297.15V317.025ZM292.407 326.405V321.289H288.889V329.203H305.624V326.405H292.407ZM311.123 321.522C311.123 320.307 311.271 319.34 311.566 318.62C311.861 317.9 312.398 317.193 313.179 316.499C313.968 315.796 314.493 315.228 314.754 314.794C315.014 314.352 315.144 313.888 315.144 313.402C315.144 311.936 314.467 311.203 313.114 311.203C312.472 311.203 311.956 311.403 311.566 311.802C311.184 312.192 310.984 312.734 310.967 313.428H307.194C307.211 311.771 307.744 310.475 308.794 309.538C309.852 308.601 311.292 308.132 313.114 308.132C314.953 308.132 316.38 308.579 317.395 309.473C318.41 310.357 318.917 311.611 318.917 313.233C318.917 313.97 318.752 314.669 318.423 315.328C318.093 315.979 317.516 316.703 316.692 317.501L315.638 318.503C314.979 319.136 314.602 319.878 314.506 320.728L314.454 321.522H311.123ZM310.746 325.516C310.746 324.935 310.941 324.458 311.331 324.085C311.73 323.703 312.238 323.512 312.854 323.512C313.47 323.512 313.973 323.703 314.363 324.085C314.762 324.458 314.962 324.935 314.962 325.516C314.962 326.089 314.767 326.562 314.376 326.935C313.994 327.308 313.487 327.494 312.854 327.494C312.221 327.494 311.709 327.308 311.318 326.935C310.937 326.562 310.746 326.089 310.746 325.516Z" fill="#0B5932"/>
</g>
<defs>
<clipPath id="clip0_183_1102">
<rect width="360" height="360" fill="white"/>
</clipPath>
</defs>
</svg>
