<svg width="365" height="341" viewBox="0 0 365 341" fill="none" xmlns="http://www.w3.org/2000/svg">
<g opacity="0.4">
<path opacity="0.4" d="M309.75 170.395C309.251 170.748 321.609 190.972 321.609 190.972L301.017 178.641L309.75 170.395Z" fill="#B8B8E1"/>
<path opacity="0.4" d="M82.1963 176.123V200.51L92.2595 175.648L82.1963 176.123Z" fill="#B8B8E1"/>
<path opacity="0.4" d="M143.373 28.7567L135.261 12.9922L133.997 33.4264L143.373 28.7567Z" fill="#B8B8E1"/>
<path opacity="0.4" d="M58.0457 99.606C58.0457 99.606 28 111.474 28 147.893C28 186.531 69.4499 193.542 86.0299 180.118C86.0299 180.118 123.856 198.189 142.763 173.405C142.763 173.405 151.829 182.701 184.989 181.133C218.149 179.566 228.001 170.623 228.001 170.623C228.001 170.623 233.177 189.899 263.234 194.027C293.291 198.156 307.233 175.989 307.233 175.989C307.233 175.989 330.03 170.833 335.206 143.974C340.382 117.115 319.69 94.9363 289.611 84.6143C289.806 76.83 288.283 69.098 285.15 61.9639C282.017 54.8299 277.35 48.4677 271.479 43.3264C251.264 25.2657 226.915 31.9777 218.104 36.1065C218.104 36.1065 213.671 24.2279 184.025 20.0992C154.378 15.9704 139.35 30.94 139.35 30.94C139.35 30.94 105.081 21.0596 75.6231 51.0651C52.87 74.3144 58.0457 99.606 58.0457 99.606Z" fill="#B8B8E1"/>
<path opacity="0.4" d="M157.015 40.7709C160.106 35.4708 164.569 31.0949 169.939 28.1004C175.308 25.1058 181.386 23.6027 187.538 23.7479C209.404 23.7479 218.204 43.873 218.204 43.873C218.204 43.873 239.45 28.4176 262.768 43.873C286.086 59.3284 280.379 85.1609 280.379 85.1609C280.379 85.1609 312.519 91.3541 322.35 118.191C332.18 145.028 318.205 168.775 303.187 173.93C303.187 173.93 299.552 191.483 271.047 190.964C242.542 190.445 236.59 162.107 236.59 162.107C236.59 162.107 228.045 162.581 223.38 158.96C219.026 165.044 213.273 170 206.601 173.414C199.929 176.827 192.533 178.598 185.033 178.578C159.132 178.578 148.249 159.998 148.249 159.998C148.249 159.998 138.873 172.992 116.607 162.107C116.607 162.107 104.693 185.963 77.7507 170.651C77.7507 170.651 65.8366 182.342 50.8082 170.651C35.7798 158.96 23.3449 113.544 66.3242 103.222C66.3242 103.222 63.3318 84.1343 82.1838 57.8049C101.036 31.4756 137.842 27.3578 157.015 40.7709Z" fill="#B8B8E1"/>
<path opacity="0.4" d="M157.015 40.7709C160.106 35.4708 164.569 31.0949 169.939 28.1004C175.308 25.1058 181.386 23.6027 187.538 23.7479C209.404 23.7479 218.204 43.873 218.204 43.873C218.204 43.873 239.45 28.4176 262.768 43.873C286.086 59.3284 280.379 85.1609 280.379 85.1609C280.379 85.1609 312.519 91.3541 322.35 118.191C332.18 145.028 318.205 168.775 303.187 173.93C303.187 173.93 299.552 191.483 271.047 190.964C242.542 190.445 236.59 162.107 236.59 162.107C236.59 162.107 228.045 162.581 223.38 158.96C219.026 165.044 213.273 170 206.601 173.414C199.929 176.827 192.533 178.598 185.033 178.578C159.132 178.578 148.249 159.998 148.249 159.998C148.249 159.998 138.873 172.992 116.607 162.107C116.607 162.107 104.693 185.963 77.7507 170.651C77.7507 170.651 65.8366 182.342 50.8082 170.651C35.7798 158.96 23.3449 113.544 66.3242 103.222C66.3242 103.222 63.3318 84.1343 82.1838 57.8049C101.036 31.4756 137.842 27.3578 157.015 40.7709Z" fill="white"/>
<path opacity="0.4" d="M134.728 57.8053C134.728 57.8053 136.291 46.9644 161.161 43.8733C186.031 40.7823 200.538 50.8393 200.538 50.8393C200.538 50.8393 191.073 33.8715 171.002 35.6157C171.002 35.6157 178.528 24.6424 195.872 30.4492C213.217 36.256 212.497 57.8053 212.497 57.8053C208.954 57.1653 205.315 57.2957 201.827 58.1874C198.34 59.0792 195.088 60.7112 192.293 62.9718C192.293 62.9718 214.569 57.2864 234.263 68.1272C253.958 78.9681 250.145 106.986 250.145 106.986C250.145 106.986 259.133 107.351 261.228 118.71C263.323 130.07 246.2 142.446 236.613 130.059C236.613 130.059 233.288 145.515 202.677 141.938C172.066 138.361 168.476 111.48 168.476 111.48C168.476 111.48 163.81 120.775 171.59 131.097C171.59 131.097 148.792 146.066 131.171 133.161C131.171 133.161 147.23 125.941 145.157 107.362C145.157 107.362 141.012 135.745 108.894 129.032C76.7759 122.32 80.4 91.233 93.8657 85.6139C107.331 79.9948 117.705 85.6139 117.705 85.6139C117.705 85.6139 117.184 81.0325 104.228 77.4225C104.162 77.4225 106.234 55.222 134.728 57.8053Z" fill="white"/>
<path opacity="0.4" d="M77.4736 116.217C77.4736 116.217 57.5245 110.023 53.0913 139.4C48.6582 168.776 93.7655 170.31 97.9104 153.332C97.9104 153.332 84.9324 154.248 83.9017 142.436C83.9017 142.436 104.815 155.396 113.282 137.335C113.282 137.379 81.3637 135.823 77.4736 116.217Z" fill="white"/>
<path opacity="0.4" d="M151.828 147.369C151.828 147.369 152.704 164.481 178.771 169.371C204.837 174.262 218.148 149.809 218.148 149.809C218.148 149.809 187.26 153.883 177.95 140.039C177.95 139.995 159.087 150.648 151.828 147.369Z" fill="white"/>
<path opacity="0.4" d="M117.964 132.873C117.964 132.873 139.731 136.185 143.355 121.911C148.186 121.436 153.064 121.943 157.693 123.4C162.322 124.857 166.606 127.235 170.286 130.389C183.242 141.186 176.67 165.341 149.484 166.478C122.297 167.615 122.142 144.09 122.142 144.09C122.142 144.09 132.549 144.089 133.502 137.764C133.513 137.764 120.812 145.293 117.964 132.873Z" fill="white"/>
<path opacity="0.4" d="M222.814 56.3426C222.814 56.3426 251.863 65.0418 254.955 82.142H272.565C272.565 82.142 272.565 58.7492 254.955 50.5799C237.344 42.4106 222.814 56.3426 222.814 56.3426Z" fill="white"/>
<path opacity="0.4" d="M100.537 75.9501C100.537 75.9501 98.4644 63.0449 110.899 53.7606C110.899 53.7606 101.568 51.6962 91.726 59.9538C81.8845 68.2114 88.6228 82.1433 88.6228 82.1433C90.0811 80.3578 91.8899 78.8875 93.9386 77.8226C95.9872 76.7577 98.2325 76.1205 100.537 75.9501Z" fill="white"/>
<path opacity="0.4" d="M272.555 111.909C272.555 111.909 273.596 120.862 272.555 124.991C272.555 124.991 295.352 127.972 300.539 142.478C300.539 142.478 315.523 138.007 307.277 115.674C301.06 98.8272 272.122 105.561 272.555 111.909Z" fill="white"/>
<path opacity="0.4" d="M135.249 42.8335L100.537 0L117.893 50.5832C117.893 50.5832 125.817 46.7525 131.104 50.5832C131.104 50.5832 129.552 43.827 135.249 42.8335Z" fill="#B8B8E1"/>
<path opacity="0.4" d="M132.245 44.4342C130.217 46.7415 131.137 50.5722 131.137 50.5722C128.089 48.3643 124.177 48.7065 121.417 49.391C120.215 49.6748 119.043 50.0703 117.915 50.5722L100.537 0L135.249 42.8445C134.09 43.0038 133.026 43.5671 132.245 44.4342Z" fill="white"/>
<path opacity="0.4" d="M257.526 91.9567L311.932 78.0469L266.337 106.982C263.713 104.735 260.711 102.968 257.471 101.76C257.471 101.76 259.089 96.0855 257.526 91.9567Z" fill="#B8B8E1"/>
<path opacity="0.4" d="M257.526 91.9567L311.932 78.0469L266.337 106.982C263.713 104.735 260.711 102.968 257.471 101.76C257.471 101.76 259.089 96.0855 257.526 91.9567Z" fill="white"/>
<path opacity="0.4" d="M77.4736 94.5318L36.8105 90.668L65.3268 111.908C65.3268 111.908 73.6167 109.535 77.5179 110.031C77.4736 110.064 76.188 100.725 77.4736 94.5318Z" fill="#B8B8E1"/>
<path opacity="0.4" d="M77.4736 94.5318L36.8105 90.668L65.3268 111.908C65.3268 111.908 73.6167 109.535 77.5179 110.031C77.4736 110.064 76.188 100.725 77.4736 94.5318Z" fill="white"/>
<path opacity="0.4" d="M184.989 70.4518C184.989 70.4518 166.858 74.8676 169.274 95.5668C169.274 95.5668 156.152 91.5043 151.829 92.4978C151.829 92.4978 151.308 84.2071 143.373 82.1427C143.373 82.1427 150.965 74.5806 158.224 80.0783C158.224 80.0783 157.526 76.9872 150.965 74.5585C150.965 74.5585 161.394 63.0222 170.659 67.8134C169.538 68.4475 168.619 69.3835 168.007 70.514C167.396 71.6445 167.116 72.9238 167.201 74.2053C167.201 74.2053 175.148 63.5631 184.989 70.4518Z" fill="white"/>
<path opacity="0.4" d="M177.562 144.434C177.562 144.434 183.635 154.369 193.377 153.718C193.377 153.718 174.969 162.837 167.887 155.009C169.551 155.576 171.324 155.754 173.069 155.53C174.814 155.306 176.484 154.686 177.95 153.718C177.95 153.718 172.032 156.467 167.887 149.931C167.887 149.931 174.802 149.247 177.562 144.434Z" fill="white"/>
<path opacity="0.4" d="M270.482 144.434C270.482 144.434 268.066 153.199 261.327 155.009C261.327 155.009 270.138 159.216 274.627 153.718C274.627 153.718 272.554 161.037 265.306 161.677C265.306 161.677 272.211 170.785 280.501 164.316C288.791 157.847 281.886 144.445 281.886 144.445C281.886 144.445 277.043 153.033 271.18 151.311C271.562 150.181 271.697 148.983 271.577 147.797C271.457 146.611 271.083 145.464 270.482 144.434Z" fill="white"/>
<path opacity="0.4" d="M66.3364 131.305C66.3364 131.305 64.009 149.421 79.2923 151.297C79.2923 151.297 72.299 159.025 62.668 149.244C53.037 139.463 66.3364 131.305 66.3364 131.305Z" fill="white"/>
<path opacity="0.4" d="M106.488 155.207C106.488 155.207 121.073 167.947 132.4 157.735C132.4 157.735 129.208 169.614 117.893 168.134C106.577 166.655 106.488 155.207 106.488 155.207Z" fill="#B8B8E1"/>
<path opacity="0.4" d="M240.303 107.534C237.271 108.431 234.683 110.421 233.044 113.115C231.405 115.809 230.832 119.014 231.436 122.107C231.06 122.217 230.672 122.316 230.273 122.405C227.806 122.897 225.248 122.649 222.922 121.694C220.596 120.738 218.607 119.117 217.206 117.035C215.805 114.954 215.055 112.505 215.051 109.999C215.047 107.493 215.789 105.042 217.183 102.955C218.577 100.869 220.561 99.2416 222.884 98.2783C225.206 97.315 227.763 97.0593 230.232 97.5435C232.701 98.0277 234.97 99.23 236.752 100.999C238.535 102.767 239.751 105.022 240.247 107.479L240.303 107.534Z" fill="white"/>
<path opacity="0.4" d="M250.509 126.698C254.335 122.886 254.335 116.707 250.509 112.896C246.683 109.085 240.479 109.085 236.653 112.896C232.827 116.707 232.827 122.886 236.653 126.698C240.479 130.509 246.683 130.509 250.509 126.698Z" fill="white"/>
<path opacity="0.4" d="M110.901 90.667C123.347 89.817 134.729 98.5051 135.283 107.359C135.837 116.213 120.953 121.026 110.901 117.239C100.849 113.453 101.569 104.941 108.141 101.287C104.762 101.663 101.511 102.795 98.6322 104.599C98.6322 104.599 97.0807 91.6165 110.901 90.667Z" fill="white"/>
<path opacity="0.4" d="M200.704 71.1399C200.704 71.1399 217.982 71.8243 222.814 83.8685C222.814 83.8685 218.115 80.7774 215.112 83.8685C215.112 83.8685 229.032 85.9329 231.792 95.5704C231.792 95.5704 241.29 95.9568 243.584 103.144C243.584 103.144 247.03 79.265 233.798 71.1288C220.565 62.9927 200.704 71.1399 200.704 71.1399Z" fill="white"/>
<path opacity="0.4" d="M132.247 44.4356C130.219 46.7428 131.139 50.5736 131.139 50.5736C128.091 48.3656 124.179 48.7079 121.419 49.3923L113.284 25.293L125.032 42.9563L121.929 31.6076L132.214 44.4576L132.247 44.4356Z" fill="white"/>
<path opacity="0.4" d="M213.028 36.0208L222.814 19.4062V37.9306L213.028 36.0208Z" fill="#B8B8E1"/>
</g>
<g opacity="0.4">
<path d="M294.309 250.873C280.868 243.492 265.551 260.494 271.044 272.424C271.044 272.424 258.632 270.427 260.186 280.89C261.741 291.353 269.758 291.469 269.758 291.469C269.758 291.469 265.527 305.026 250.999 310.001C250.999 310.001 276.847 310.029 285.169 294.453C285.169 294.453 293.187 297.679 299.656 287.365C306.125 277.052 301.199 268.568 301.199 268.568C301.199 268.568 306.529 257.574 294.309 250.873Z" fill="#B8B8E1"/>
<path opacity="0.5" d="M294.286 250.792C280.845 243.416 265.534 260.43 271.039 272.359C271.039 272.359 258.62 270.368 260.186 280.832C261.752 291.295 269.77 291.405 269.77 291.405C269.77 291.405 265.551 304.962 251.023 309.954C251.023 309.954 276.87 309.954 285.181 294.371C285.181 294.371 293.198 297.597 299.668 287.272C306.137 276.948 301.193 268.475 301.193 268.475C301.193 268.475 306.511 257.487 294.286 250.792Z" fill="white"/>
<path opacity="0.3" d="M292.952 270.502C290.995 270.33 289.029 270.711 287.283 271.601C285.538 272.491 284.084 273.853 283.093 275.528C279.312 281.461 278.698 289.229 288.019 290.597C297.34 291.965 303.588 277.323 298.965 269.134C298.965 269.134 303.997 261.371 294.875 254.296C285.752 247.22 276.981 254.584 275.368 262.087C273.755 269.59 281.375 273.243 281.375 273.243C281.375 273.243 280.913 270.502 285.308 269.365C285.308 269.365 282.345 259.767 288.68 259.657C288.68 259.657 284.794 262.462 287.821 268.424C289.687 268.658 291.457 269.375 292.952 270.502Z" fill="white"/>
<path opacity="0.3" d="M273.14 275.297C273.14 275.297 273.958 277.028 277.634 278.055C277.634 278.055 274.764 285.558 278.656 289.021L273.14 290.614C273.14 290.614 277.605 285.362 273.14 283.648C273.14 283.648 274.525 290.475 267.985 287.872C261.446 285.269 264.485 272.682 273.14 275.297Z" fill="white"/>
</g>
<g opacity="0.4">
<path d="M109.977 312.376C109.977 312.376 97.4847 307.163 95.6481 296.531C95.6481 296.531 106.205 293.241 104.136 279.498C102.068 265.756 91.9689 261.835 91.9689 261.835C91.9689 261.835 93.0292 250.357 79.9695 251.028C66.9099 251.7 60.4844 260.792 60.8089 268.31C60.8089 268.31 56.3939 274.101 57.0718 281.687C57.7496 289.274 68.7524 302.577 78.2314 300.353C78.2314 300.353 84.3556 308.825 96.5751 312.949C96.5751 312.949 88.0811 307.465 85.1436 300.353C85.1436 300.353 86.1285 300.747 88.9039 300.353C88.9039 300.353 97.9019 310.968 109.977 312.376Z" fill="#B8B8E1"/>
<path opacity="0.5" d="M110 312.415C110 312.415 97.5024 307.203 95.6599 296.588C95.6599 296.588 106.211 293.287 104.131 279.544C102.051 265.801 91.9633 261.892 91.9633 261.892C91.9633 261.892 93.0178 250.414 79.9582 251.091C66.8986 251.769 60.4847 260.873 60.7975 268.396C60.7975 268.396 56.3883 274.187 57.072 281.774C57.7557 289.36 68.7701 302.622 78.2432 300.422C78.2432 300.422 84.379 308.888 96.5985 313C96.5985 313 88.0988 307.528 85.1554 300.416C85.1554 300.416 86.1404 300.81 88.9157 300.416C88.9157 300.427 97.9254 311.02 110 312.415Z" fill="white"/>
<path opacity="0.3" d="M77.0836 268.308C77.0836 268.308 83.1036 263.49 89.9173 264.254C96.731 265.019 103.533 276.954 101.882 284.854C100.231 292.753 91.134 298.51 85.143 295.793C79.1521 293.077 77.7731 287.315 79.1463 284.906C80.5195 282.497 86.0237 284.906 86.0237 284.906C86.0237 284.906 80.2935 279.288 77.0836 284.906C77.0836 284.877 69.2907 276.369 77.0836 268.308Z" fill="white"/>
<path opacity="0.3" d="M72.7265 270.616C72.7265 270.616 66.7702 267.234 61.9555 270.616C57.1407 273.998 59.9044 289.351 67.4713 294.639C75.0383 299.926 82.1243 296.48 82.1243 296.48C82.1243 296.48 73.8737 288.465 72.0717 282.037C70.2698 275.608 73.0567 264.113 87.0028 261.837C87.0028 261.837 89.2625 257.094 81.2088 254.435C73.1552 251.777 64.4758 258.709 64.7076 266.018C64.7076 266.018 68.0913 257.91 73.6187 258.738C73.6187 258.738 67.7089 261.009 67.4713 266.018C67.4713 266.012 72.8018 268.862 72.7265 270.616Z" fill="white"/>
</g>
<path d="M151.82 340.997C151.82 326.094 151.814 311.192 151.846 296.29C151.849 295.223 151.555 294.787 150.466 294.453C143.748 292.381 137.066 290.194 130.374 288.032C129.98 287.904 129.621 287.66 129.246 287.47C129.246 287.364 129.246 287.255 129.246 287.149C134.5 286.828 139.754 286.529 145.005 286.179C147.439 286.019 149.898 285.932 152.289 285.518C158.215 284.487 163.515 286.529 168.843 288.553C169.418 288.771 170.016 288.935 170.827 289.195C170.149 286.218 169.619 283.43 168.866 280.7C167.767 276.708 167.344 272.655 167.289 268.534C167.263 266.684 166.927 264.828 167.024 262.991C167.134 260.932 167.57 258.893 167.877 256.776C167.311 256.615 166.42 256.208 165.508 256.153C164.52 256.095 163.505 256.326 162.516 256.509C161.905 256.622 161.327 256.898 160.723 257.062C159.579 257.37 158.874 257.017 158.92 255.739C159.01 253.301 159.194 250.866 159.214 248.429C159.227 246.794 159.071 245.153 158.903 243.524C158.461 239.195 160.535 235.473 161.763 231.545C162.338 229.708 162.865 227.855 163.447 226.021C163.699 225.231 164.032 224.466 164.342 223.647C162.72 222.398 161.036 221.158 159.417 219.845C155.052 216.299 151.833 211.732 148.531 207.28C147.762 206.243 146.262 204.9 147.448 202.961C147.694 202.556 146.579 201.217 145.949 200.423C144.98 199.206 143.884 198.088 142.847 196.923C142.107 196.094 141.289 195.317 140.679 194.401C140.372 193.942 140.394 193.232 140.397 192.638C140.397 192.535 141.037 192.433 141.409 192.323C141.209 190.644 141.865 189.494 143.522 188.906C143.826 188.797 144.295 188.993 144.631 189.16C145.348 189.513 146.033 189.943 146.893 190.435C148.977 193.38 148.631 197.664 151.475 200.613C153.365 202.572 155.048 204.724 156.877 206.744C158.884 208.963 161.22 210.714 163.786 212.329C165.324 213.296 166.788 214.475 168.449 215.329C169.211 215.721 169.706 215.631 170.42 215.069C171.231 214.43 172.323 214.144 173.306 213.697C173.037 210.884 172.591 207.91 172.511 204.926C172.41 201.294 174.737 199.113 178.346 198.599C181.471 198.156 183.969 198.789 186.153 200.921C188.419 203.131 188.829 205.996 187.536 208.86C186.583 210.977 185.165 212.971 185.371 215.47C185.381 215.576 185.41 215.679 185.439 215.817C187.672 217.272 189.33 215.573 191.01 214.629C192.025 214.057 192.781 213.8 193.728 214.516C194.885 215.39 196.167 215.014 197.088 214.359C200.087 212.22 203.095 210.052 205.832 207.601C209.096 204.682 212.04 201.412 215.216 198.393C216.189 197.469 217.478 196.881 218.606 196.113C220.125 195.079 220.435 193.881 220.241 192.111C220.034 190.207 220.183 188.264 220.147 186.337C220.141 185.987 219.853 185.595 219.944 185.296C220.092 184.814 220.448 184.397 220.713 183.95C221.175 184.262 221.967 184.509 222.038 184.891C222.225 185.9 222.102 186.966 222.102 188.01C222.273 188.081 222.442 188.151 222.613 188.225C223.408 187.059 224.235 185.913 224.988 184.718C225.576 183.79 226.119 182.826 226.597 181.837C227.276 180.43 228.623 180.392 229.702 180C231.331 181.734 230.73 183.385 229.583 185.348C230.481 184.769 230.966 184.458 231.447 184.146C231.612 184.236 231.774 184.326 231.938 184.419C231.648 185.29 231.525 186.269 231.037 187.014C228.507 190.872 226.406 195.018 223.049 198.323C221.918 199.434 222.135 201.075 222.296 202.601C222.345 203.063 222.054 203.728 221.692 204.04C218.767 206.558 215.778 208.999 212.841 211.5C212.088 212.14 211.293 212.821 210.789 213.646C208.776 216.944 205.622 219.042 202.746 221.438C200.966 222.921 199.089 224.293 197.344 225.815C197.027 226.091 196.998 226.891 197.085 227.405C198.494 235.669 201.376 243.528 203.858 251.496C204.262 252.787 204.621 254.094 205.018 255.389C205.416 256.689 203.923 258.478 202.721 257.878C200.423 256.725 198.365 257.968 196.216 258.077C194.784 258.151 193.379 258.632 191.954 258.931C193.505 269.967 191.53 280.706 190.771 291.642C191.576 291.642 192.151 291.642 192.729 291.642C199.877 291.642 207.025 291.565 214.169 291.671C218.535 291.736 222.9 292.047 227.263 292.298C230.177 292.465 233.089 292.712 236 292.921C236 293.136 236 293.348 236 293.563C235.784 293.563 235.564 293.531 235.357 293.566C231.409 294.205 227.457 294.832 223.514 295.503C221.004 295.93 218.503 296.425 216.001 296.89C216.001 297.722 216.001 298.364 216.001 299.004C216.001 310.701 215.995 322.398 216.014 334.095C216.014 335.026 215.934 335.646 214.79 335.89C209.655 336.979 204.533 338.132 199.421 339.32C195.854 340.152 192.303 340.762 188.593 340.721C177.203 340.595 165.809 340.669 154.415 340.688C153.875 340.688 153.336 340.891 152.799 341C152.467 340.997 152.143 340.997 151.82 340.997ZM192.988 339.969C192.988 324.868 192.988 309.898 192.988 294.966C179.423 294.966 165.97 294.966 152.547 294.966C152.547 310.029 152.547 324.964 152.547 339.969C166.045 339.969 179.461 339.969 192.988 339.969ZM193.825 295.018C193.825 310.126 193.825 324.89 193.825 339.667C194.122 339.683 194.348 339.747 194.545 339.702C200.93 338.228 207.299 336.674 213.71 335.312C215.093 335.02 215.381 334.525 215.378 333.257C215.336 321.781 215.352 310.309 215.352 298.833C215.352 298.268 215.352 297.703 215.352 297.086C208.085 296.386 201.031 295.708 193.825 295.018ZM181.397 294.109C179.255 283.979 177.148 274 175.038 264.022C175.254 263.977 175.474 263.935 175.69 263.89C177.836 273.984 179.982 284.076 182.114 294.099C183.077 294.099 184.024 294.099 185.097 294.099C184.541 288.492 183.963 283 183.462 277.501C182.971 272.102 182.563 266.697 182.121 261.292C182.315 261.279 182.512 261.266 182.706 261.256C183.717 272.199 184.728 283.144 185.74 294.096C187.271 294.096 188.687 294.096 190.092 294.096C190.248 290.971 190.303 287.949 190.567 284.943C190.887 281.333 191.55 277.749 191.766 274.139C191.976 270.628 191.902 267.089 191.76 263.569C191.715 262.438 191.126 261.301 190.671 260.216C190.105 258.87 189.417 257.573 188.784 256.253C188.929 256.179 189.078 256.105 189.223 256.031C189.808 256.946 190.393 257.862 190.978 258.78C191.059 258.745 191.143 258.706 191.223 258.671C190.81 256.876 190.399 255.077 190.005 253.365C182.993 254.216 176.469 257.608 169.512 255.321C169.192 256.291 168.921 256.966 168.749 257.666C168.345 259.329 167.751 260.993 167.673 262.676C167.56 265.155 167.757 267.657 167.958 270.137C168.152 272.539 168.345 274.967 168.843 277.318C170.032 282.923 171.402 288.492 172.705 294.103C175.471 294.109 178.288 294.109 181.397 294.109ZM192.041 214.661C192.287 215.856 192.49 216.838 192.69 217.821C192.558 217.869 192.422 217.917 192.29 217.966C191.96 217.14 191.634 216.312 191.304 215.48C189.818 216.125 188.331 216.771 186.822 217.423C186.968 218.73 187.11 220.018 187.262 221.383C188.593 220.779 189.776 220.243 191.32 219.543C190.852 222.048 188.735 221.878 187.692 222.947C187.986 224.248 188.231 225.577 188.59 226.878C189.75 231.073 190.021 235.457 192.367 239.397C195.321 244.353 197.712 249.64 200.358 254.775C200.669 255.379 200.956 256.127 201.48 256.448C202.078 256.815 202.944 256.921 203.651 256.831C203.871 256.802 204.207 255.687 204.065 255.189C202.947 251.278 201.738 247.391 200.507 243.512C200.391 243.149 199.99 242.802 199.631 242.6C198.584 242.005 198.52 241.218 199.36 240.538C198.659 237.458 197.993 234.458 197.285 231.468C196.917 229.904 196.626 228.295 196.028 226.817C195.098 224.518 193.918 222.318 192.888 220.056C192.804 219.873 193.049 219.543 193.188 219.141C194.148 221.515 195.036 223.711 195.925 225.908C198.439 223.946 200.833 222.205 203.076 220.291C205.199 218.48 207.202 216.52 209.18 214.548C209.674 214.057 209.707 213.081 210.224 212.644C213.924 209.516 217.695 206.468 221.369 203.458C219.533 201.791 217.763 200.182 216.134 198.699C211.623 203.282 207.067 207.916 202.352 212.705C202.788 211.831 203.173 211.06 203.558 210.29C201.748 211.449 200.207 212.875 198.575 214.185C197.925 214.706 197.098 215.088 196.287 215.313C195.473 215.541 194.933 215.759 195.011 216.745C195.088 217.75 195.027 218.762 195.027 219.774C194.813 219.774 194.603 219.774 194.39 219.774C194.39 219.077 194.296 218.364 194.41 217.683C194.684 216.003 193.883 215.146 192.041 214.661ZM186.735 250.998C186.861 251.062 186.984 251.127 187.11 251.191C187.611 247.786 188.108 244.382 188.609 240.974C188.8 241.007 188.987 241.042 189.178 241.074C188.748 244.414 188.318 247.751 187.892 251.066C189.214 251.069 189.834 250.61 189.934 249.318C190.154 246.495 190.39 243.659 190.9 240.878C191.256 238.935 190.613 237.49 189.605 235.961C187.549 232.846 186.076 229.454 185.003 225.879C184.641 224.669 184.043 223.528 183.552 222.356C182.486 222.873 181.591 223.31 180.696 223.744C180.612 223.596 180.524 223.451 180.44 223.304C180.954 222.941 181.471 222.578 181.714 222.407C181.862 221.845 181.875 221.248 182.063 221.19C183.342 220.782 183.219 219.902 182.987 218.929C181.061 219.308 180.201 220.252 180.198 221.958C180.198 222.597 180.23 223.243 180.179 223.878C179.765 228.972 179.267 234.063 178.938 239.163C178.776 241.662 178.767 244.193 178.977 246.685C179.151 248.766 179.794 250.815 178.401 252.977C180.896 252.488 183.394 251.997 185.93 251.502C186.305 248.814 186.67 246.19 187.036 243.569C187.223 243.595 187.41 243.621 187.595 243.65C187.304 246.097 187.019 248.548 186.735 250.998ZM132.145 287.486C132.145 287.576 132.141 287.669 132.141 287.759C137.822 289.59 143.587 291.206 149.151 293.341C152.047 294.453 154.787 294.022 157.595 293.826C161.605 293.544 165.599 293.052 169.59 292.567C170.252 292.487 171.309 292.07 171.396 291.649C171.561 290.843 171.166 290.027 170.081 289.683C167.034 288.713 164.045 287.554 160.994 286.594C159.708 286.189 158.306 285.848 156.978 285.913C153.003 286.102 149.045 286.552 145.073 286.809C140.766 287.088 136.452 287.265 132.145 287.486ZM167.576 227.122C165.302 230.267 163.101 233.305 160.91 236.35C160.758 236.558 160.655 236.809 160.564 237.053C159.618 239.609 159.298 242.169 159.789 244.925C160.138 246.887 159.892 248.965 159.824 250.989C159.766 252.761 159.582 254.534 159.424 256.712C160.658 256.294 161.463 255.967 162.3 255.755C163.059 255.562 163.86 255.34 164.62 255.405C165.899 255.514 167.163 255.835 168.588 256.095C168.61 246.271 168.601 236.619 167.576 227.122ZM170.01 244.931C170.194 244.899 170.381 244.867 170.565 244.835C170.853 247.584 171.144 250.333 171.438 253.166C172.414 253.166 173.186 253.166 174.123 253.166C172.604 251.47 172.633 251.47 172.776 248.817C173.015 244.321 173.15 239.818 173.457 235.328C173.603 233.189 174.029 231.069 174.343 228.947C174.685 226.628 175.532 224.306 173.532 222.189C172.986 221.611 172.992 220.519 172.747 219.661C172.876 219.636 173.002 219.61 173.131 219.581C173.784 220.933 174.437 222.282 175.135 223.727C176.805 221.858 175.61 220.782 173.858 219.594C174.766 219.594 175.044 219.594 175.461 219.594C173.878 218.252 173.089 218.197 172.039 219.482C170.914 220.859 169.884 222.324 168.901 223.808C168.21 224.855 167.777 225.889 168.177 227.331C168.691 229.181 168.827 231.172 168.882 233.109C169.06 239.442 169.124 245.776 169.234 252.113C169.237 252.321 169.279 252.533 169.308 252.761C169.787 252.832 170.239 252.896 170.666 252.961C170.446 250.288 170.226 247.61 170.01 244.931ZM179.603 220.622C179.465 220.487 179.326 220.355 179.19 220.22C178.476 220.673 177.597 220.998 177.09 221.617C176.55 222.276 176.243 223.188 176.039 224.039C174.388 230.906 173.671 237.891 173.419 244.934C173.354 246.723 173.218 248.509 173.131 250.298C173.121 250.497 173.144 250.754 173.26 250.895C174.02 251.814 174.808 252.71 175.584 253.606C178.521 251.146 178.809 250.654 178.582 248.429C178.524 247.857 178.279 247.295 178.285 246.733C178.366 241.636 178.45 236.536 178.618 231.442C178.663 230.038 179.07 228.651 179.193 227.248C179.384 225.038 179.471 222.828 179.603 220.622ZM167.208 215.717C165.418 214.481 163.725 213.309 161.776 211.96C161.702 213.53 161.647 214.728 161.592 215.929C161.434 215.939 161.275 215.949 161.117 215.958C161.078 215.011 161.078 214.06 160.991 213.119C160.93 212.448 160.984 211.571 160.59 211.154C158.399 208.822 156.04 206.648 153.837 204.329C152.263 202.671 150.541 202.755 149.248 204.717C148.644 205.633 148.576 206.391 149.368 207.357C151.494 209.956 153.455 212.689 155.54 215.322C156.034 215.945 156.758 216.389 157.656 217.15C157.656 215.57 157.656 214.426 157.656 213.11C158.335 215.213 158.538 217.423 159.673 218.952C160.894 220.596 162.985 221.601 164.707 222.892C165.308 221.923 165.777 221.168 166.245 220.416C166.707 219.674 167.176 218.936 167.706 218.094C167.308 218.123 167.034 218.139 166.704 218.162C166.888 217.272 167.053 216.469 167.208 215.717ZM181.054 204.117C180.405 203.898 179.439 203.394 178.427 203.275C175.761 202.961 173.632 203.596 173.474 206.037C173.254 209.355 173.593 212.666 174.727 215.833C175.548 218.129 176.996 218.704 179.119 217.603C179.81 217.243 180.408 216.71 181.058 216.27C181.345 216.074 181.83 215.695 181.93 215.772C183.223 216.764 183.559 214.844 184.535 214.966C184.593 214.256 184.648 213.543 184.706 212.833C184.528 212.759 184.347 212.689 184.169 212.615C183.995 213.081 183.817 213.55 183.643 214.015C183.436 213.835 183.232 213.656 183.025 213.479C183.41 212.939 184.018 211.886 184.144 211.94C185.517 212.528 185.717 211.289 185.879 210.685C186.105 209.846 185.869 208.883 185.83 207.971C185.64 207.961 185.446 207.948 185.255 207.939C184.774 208.613 184.295 209.291 183.82 209.956C182.877 207.971 182.027 206.172 181.054 204.117ZM200.53 256.625C199.047 253.85 197.622 251.188 196.106 248.352C195.699 250.324 195.334 252.077 194.972 253.834C194.82 251.332 195.57 248.824 195.12 246.547C194.665 244.241 193.027 242.166 191.702 239.593C191.388 242.628 191.327 245.162 190.829 247.607C190.073 251.303 190.849 254.733 191.957 258.154C194.826 257.643 197.602 257.149 200.53 256.625ZM226.904 183.17C226.852 183.131 226.797 183.096 226.746 183.058C225.805 184.622 224.939 186.237 223.879 187.718C223.518 188.222 222.674 188.386 222.051 188.707C221.86 188.097 221.618 187.496 221.495 186.873C221.356 186.16 221.323 185.428 221.246 184.702C221.075 184.724 220.903 184.75 220.732 184.773C220.761 185.322 220.806 185.871 220.813 186.423C220.829 188.35 220.558 190.332 220.932 192.185C221.223 193.627 220.868 194.62 220.134 195.676C219.811 196.142 219.478 196.605 219.155 197.064C219.802 197.867 220.373 198.58 221.243 199.662C224.09 195.811 226.775 192.179 229.463 188.546C229.34 188.45 229.214 188.354 229.092 188.261C228.752 188.418 228.413 188.572 228.074 188.729C227.938 188.652 227.802 188.575 227.667 188.498C228.481 186.385 229.295 184.272 230.106 182.158C230.022 182.123 229.938 182.088 229.854 182.052C229.017 183.758 228.18 185.466 227.343 187.172C227.166 187.088 226.991 187.005 226.814 186.921C227.638 185.039 228.462 183.154 229.286 181.272C229.15 181.214 229.017 181.156 228.882 181.098C227.928 183.016 226.972 184.933 226.019 186.851C225.87 186.786 225.718 186.722 225.569 186.658C226.012 185.492 226.458 184.333 226.904 183.17ZM231.816 293.496C220.506 291.825 209.031 292.583 197.618 294.761C198.581 294.867 199.554 294.783 200.504 294.883C204.236 295.265 207.962 295.721 211.691 296.12C212.78 296.235 213.908 296.447 214.967 296.283C220.677 295.397 226.371 294.408 231.816 293.496ZM173.496 203.715C176.159 202.007 178.779 202.334 181.407 203.487C181.675 203.606 181.972 203.831 182.085 204.085C182.647 205.344 183.152 206.625 183.675 207.9C183.765 207.736 183.856 207.576 183.946 207.412C184.942 207.56 185.934 207.704 187.087 207.874C188.402 206.217 187.446 203.368 186.134 201.904C183.491 198.949 180.153 198.528 176.505 199.707C175.112 200.154 173.548 202.199 173.496 203.715ZM148.389 202.129C149.132 201.785 150.001 201.384 150.89 200.972C149.662 199.177 148.192 197.716 148.133 195.362C148.101 194.054 147.18 192.77 146.592 191.312C146.472 193.505 146.366 195.419 146.259 197.334C146.127 197.33 145.991 197.33 145.858 197.327C145.858 196.123 145.858 194.918 145.858 193.736C145.377 193.489 144.95 193.268 144.76 193.168C144.249 194.106 143.752 195.018 143.047 196.312C144.673 198.082 146.463 200.031 148.389 202.129ZM184.625 217.673C183.488 218.958 183.627 220.285 184.169 221.701C184.842 223.445 185.359 225.25 186.05 226.987C186.926 229.184 187.908 231.342 188.842 233.517C188.994 233.465 189.142 233.414 189.294 233.363C188.887 231.509 188.483 229.653 188.076 227.8C187.494 225.16 186.761 222.539 186.396 219.87C186.225 218.605 186.121 217.718 184.625 217.673ZM162.18 233.899C162.797 233.003 163.466 232.139 164.022 231.204C166.213 227.527 168.352 223.817 170.543 220.14C171.444 218.624 172.556 217.349 174.63 217.571C174.353 216.851 174.13 216.273 173.91 215.711C171.428 215.881 162.574 229.232 162.18 233.899ZM190.952 292.326C190.567 293.81 191.114 294.34 192.484 294.212C196.112 293.868 199.748 293.585 203.373 293.21C205.205 293.02 207.022 292.689 208.844 292.423C208.841 292.391 208.841 292.359 208.838 292.326C202.908 292.326 196.978 292.326 190.952 292.326ZM164.51 226.027C166.297 223.339 168.016 220.606 169.903 217.988C170.821 216.716 172.052 215.669 173.238 214.42C172.381 214.847 171.273 215.085 170.659 215.762C167.945 218.772 165.693 222.096 164.51 226.027ZM216.939 198.512C218.328 199.723 219.588 200.825 220.978 202.039C221.278 201.515 221.514 201.104 221.608 200.94C220.403 199.591 219.352 198.416 218.267 197.199C217.859 197.6 217.443 198.011 216.939 198.512ZM171.735 293.03C168.375 293.354 165.101 293.672 161.825 293.99C161.828 294.038 161.831 294.083 161.831 294.131C165.127 294.131 168.423 294.131 171.787 294.131C171.767 293.711 171.751 293.361 171.735 293.03ZM178.65 253.49C178.741 254.974 178.741 254.974 183.135 253.94C183.038 253.651 182.929 253.124 182.851 253.128C181.487 253.205 180.13 253.349 178.65 253.49ZM183.914 253.436C184.056 253.545 184.198 253.657 184.341 253.767C185.459 253.555 186.58 253.375 187.685 253.115C187.953 253.05 188.16 252.736 188.396 252.533C188.099 252.318 187.776 251.891 187.507 251.923C186.59 252.029 185.669 252.228 184.796 252.53C184.441 252.655 184.205 253.124 183.914 253.436ZM151.617 201.978C149.487 201.808 147.581 203.256 148.078 204.576C149.219 203.738 150.386 202.88 151.617 201.978ZM181.316 217.808C182.231 217.911 182.832 217.979 183.458 218.049C183.879 217.339 184.299 216.633 184.715 215.929C184.657 215.859 184.599 215.791 184.541 215.721C183.543 216.366 182.544 217.012 181.316 217.808ZM174.475 255.077C174.482 255.202 174.488 255.328 174.498 255.453C175.529 255.299 176.56 255.144 177.558 254.994C177.781 253.641 177.154 253.606 176.304 254.02C175.671 254.329 175.083 254.721 174.475 255.077Z" fill="black"/>
<path d="M192.987 339.967C179.458 339.967 166.044 339.967 152.547 339.967C152.547 324.962 152.547 310.028 152.547 294.965C165.97 294.965 179.422 294.965 192.987 294.965C192.987 309.893 192.987 324.866 192.987 339.967ZM174.068 299.641C175.302 299.641 176.533 299.612 177.768 299.651C178.737 299.68 178.944 299.15 178.911 298.337C178.879 297.595 179.044 296.763 177.871 296.77C175.351 296.776 172.827 296.699 170.316 296.834C169.828 296.86 168.952 297.775 169.02 298.138C169.127 298.703 169.828 299.474 170.384 299.577C171.573 299.792 172.837 299.641 174.068 299.641Z" fill="white"/>
<path d="M193.823 295.016C201.029 295.706 208.083 296.384 215.354 297.081C215.354 297.697 215.354 298.263 215.354 298.828C215.354 310.303 215.338 321.776 215.38 333.251C215.383 334.52 215.095 335.014 213.712 335.307C207.301 336.668 200.932 338.223 194.547 339.697C194.347 339.742 194.124 339.681 193.826 339.662C193.823 324.885 193.823 310.124 193.823 295.016Z" fill="white"/>
<path d="M181.396 294.108C178.287 294.108 175.466 294.108 172.707 294.108C171.405 288.498 170.035 282.928 168.845 277.324C168.348 274.973 168.154 272.545 167.96 270.143C167.76 267.66 167.563 265.158 167.676 262.682C167.753 260.999 168.348 259.332 168.752 257.672C168.923 256.971 169.194 256.297 169.514 255.327C176.471 257.614 182.996 254.225 190.008 253.371C190.402 255.083 190.812 256.878 191.226 258.677C191.145 258.712 191.061 258.751 190.98 258.786C190.395 257.871 189.81 256.955 189.226 256.037C189.08 256.111 188.932 256.185 188.786 256.258C189.419 257.575 190.108 258.873 190.673 260.222C191.129 261.307 191.717 262.441 191.762 263.575C191.904 267.095 191.979 270.631 191.769 274.144C191.552 277.758 190.89 281.342 190.57 284.949C190.302 287.955 190.247 290.977 190.095 294.102C188.689 294.102 187.274 294.102 185.742 294.102C184.731 283.15 183.719 272.205 182.708 261.262C182.514 261.275 182.317 261.288 182.123 261.298C182.566 266.7 182.976 272.108 183.464 277.507C183.962 283.006 184.543 288.494 185.099 294.105C184.026 294.105 183.08 294.105 182.117 294.105C179.987 284.085 177.842 273.99 175.693 263.896C175.476 263.941 175.256 263.983 175.04 264.028C177.147 274 179.257 283.976 181.396 294.108ZM172.041 289.673C172.245 289.66 172.445 289.647 172.649 289.631C172.009 281.242 171.369 272.853 170.703 264.468C170.691 264.323 170.332 264.207 169.944 263.954C170.652 272.677 171.346 281.175 172.041 289.673Z" fill="#29A063"/>
<path d="M192.041 214.661C193.882 215.15 194.684 216.004 194.412 217.684C194.303 218.365 194.393 219.078 194.393 219.774C194.606 219.774 194.816 219.774 195.03 219.774C195.03 218.766 195.091 217.751 195.013 216.746C194.939 215.757 195.476 215.541 196.29 215.313C197.098 215.089 197.925 214.706 198.578 214.186C200.213 212.876 201.751 211.45 203.56 210.29C203.176 211.061 202.791 211.832 202.355 212.706C207.07 207.914 211.626 203.282 216.137 198.699C217.769 200.18 219.539 201.792 221.372 203.459C217.698 206.472 213.927 209.516 210.227 212.644C209.71 213.081 209.677 214.058 209.183 214.549C207.205 216.521 205.205 218.48 203.079 220.292C200.833 222.206 198.439 223.947 195.928 225.909C195.039 223.712 194.151 221.512 193.191 219.142C193.052 219.54 192.806 219.871 192.89 220.057C193.921 222.318 195.097 224.518 196.031 226.818C196.629 228.298 196.92 229.904 197.288 231.468C197.996 234.458 198.662 237.458 199.363 240.538C198.523 241.219 198.587 242.006 199.634 242.6C199.99 242.802 200.394 243.149 200.51 243.512C201.741 247.392 202.946 251.278 204.068 255.19C204.21 255.688 203.874 256.802 203.654 256.831C202.946 256.924 202.077 256.818 201.483 256.449C200.959 256.128 200.672 255.376 200.361 254.776C197.712 249.64 195.32 244.354 192.37 239.398C190.024 235.457 189.753 231.073 188.593 226.879C188.234 225.581 187.988 224.248 187.694 222.948C188.738 221.875 190.855 222.048 191.323 219.543C189.779 220.243 188.596 220.78 187.265 221.384C187.113 220.019 186.971 218.731 186.825 217.424C188.334 216.768 189.821 216.123 191.307 215.48C191.637 216.312 191.966 217.141 192.293 217.966C192.425 217.918 192.561 217.87 192.693 217.822C192.49 216.839 192.286 215.856 192.041 214.661Z" fill="#29A063"/>
<path d="M186.735 250.998C187.02 248.547 187.307 246.097 187.592 243.646C187.404 243.621 187.217 243.595 187.033 243.566C186.667 246.187 186.302 248.811 185.927 251.499C183.391 251.997 180.896 252.485 178.398 252.973C179.791 250.815 179.145 248.763 178.974 246.681C178.767 244.189 178.777 241.658 178.935 239.16C179.264 234.059 179.762 228.969 180.176 223.875C180.227 223.239 180.195 222.594 180.195 221.954C180.198 220.249 181.058 219.305 182.984 218.926C183.216 219.899 183.339 220.779 182.06 221.187C181.875 221.245 181.862 221.842 181.711 222.404C181.465 222.577 180.951 222.937 180.437 223.3C180.521 223.448 180.609 223.592 180.693 223.74C181.588 223.307 182.483 222.87 183.549 222.353C184.04 223.525 184.635 224.665 185 225.876C186.07 229.451 187.543 232.845 189.602 235.957C190.61 237.486 191.253 238.932 190.897 240.875C190.387 243.656 190.151 246.492 189.931 249.315C189.831 250.606 189.211 251.065 187.889 251.062C188.315 247.751 188.745 244.411 189.175 241.071C188.984 241.038 188.797 241.003 188.606 240.971C188.105 244.375 187.608 247.78 187.107 251.187C186.984 251.126 186.858 251.062 186.735 250.998Z" fill="white"/>
<path d="M132.146 287.484C136.457 287.262 140.767 287.086 145.072 286.806C149.043 286.549 153.001 286.1 156.976 285.91C158.304 285.846 159.703 286.186 160.992 286.591C164.043 287.551 167.032 288.711 170.079 289.681C171.165 290.028 171.559 290.84 171.394 291.646C171.307 292.067 170.25 292.485 169.588 292.565C165.597 293.05 161.603 293.541 157.593 293.824C154.785 294.02 152.045 294.45 149.149 293.339C143.588 291.203 137.824 289.588 132.14 287.757C132.143 287.667 132.143 287.577 132.146 287.484Z" fill="white"/>
<path d="M167.576 227.121C168.597 236.618 168.61 246.269 168.587 256.1C167.165 255.84 165.902 255.516 164.619 255.41C163.859 255.346 163.055 255.567 162.299 255.76C161.465 255.972 160.657 256.3 159.423 256.717C159.581 254.536 159.762 252.767 159.824 250.994C159.891 248.97 160.137 246.892 159.788 244.93C159.297 242.174 159.617 239.615 160.564 237.058C160.654 236.814 160.761 236.564 160.909 236.355C163.103 233.304 165.301 230.265 167.576 227.121ZM160.286 249.732C160.909 249.423 161.265 249.365 161.391 249.166C163.42 245.932 165.433 242.688 167.401 239.419C167.595 239.094 167.469 238.58 167.488 238.243C165.126 242.004 162.816 245.691 160.286 249.732Z" fill="white"/>
<path d="M170.009 244.929C170.229 247.607 170.445 250.289 170.665 252.958C170.242 252.897 169.789 252.83 169.308 252.759C169.282 252.528 169.24 252.319 169.234 252.11C169.121 245.777 169.056 239.44 168.881 233.107C168.827 231.17 168.691 229.179 168.177 227.329C167.776 225.883 168.209 224.852 168.901 223.805C169.883 222.322 170.914 220.857 172.039 219.479C173.089 218.191 173.877 218.246 175.461 219.592C175.044 219.592 174.766 219.592 173.858 219.592C175.609 220.777 176.805 221.856 175.134 223.725C174.436 222.28 173.783 220.928 173.131 219.579C173.001 219.605 172.875 219.63 172.746 219.659C172.992 220.517 172.985 221.609 173.531 222.187C175.532 224.303 174.685 226.625 174.342 228.944C174.029 231.07 173.602 233.19 173.457 235.326C173.153 239.816 173.018 244.319 172.775 248.815C172.633 251.471 172.601 251.468 174.123 253.164C173.186 253.164 172.41 253.164 171.437 253.164C171.14 250.331 170.853 247.582 170.565 244.833C170.378 244.865 170.193 244.897 170.009 244.929Z" fill="white"/>
<path d="M179.604 220.623C179.472 222.83 179.385 225.043 179.194 227.246C179.071 228.65 178.664 230.037 178.619 231.44C178.451 236.537 178.367 241.634 178.286 246.731C178.276 247.294 178.525 247.859 178.583 248.427C178.809 250.653 178.522 251.144 175.584 253.605C174.809 252.705 174.021 251.812 173.261 250.894C173.145 250.753 173.122 250.496 173.132 250.296C173.219 248.508 173.355 246.722 173.419 244.933C173.672 237.89 174.389 230.904 176.04 224.037C176.244 223.186 176.551 222.274 177.09 221.616C177.598 220.996 178.477 220.672 179.191 220.219C179.326 220.354 179.465 220.489 179.604 220.623Z" fill="#92E3A9"/>
<path d="M167.209 215.722C167.054 216.473 166.889 217.276 166.705 218.166C167.034 218.143 167.309 218.124 167.706 218.098C167.176 218.94 166.711 219.678 166.246 220.42C165.774 221.172 165.309 221.93 164.708 222.897C162.985 221.605 160.895 220.6 159.673 218.956C158.539 217.427 158.332 215.217 157.657 213.114C157.657 214.431 157.657 215.574 157.657 217.154C156.758 216.39 156.035 215.95 155.54 215.327C153.456 212.693 151.495 209.963 149.368 207.362C148.577 206.395 148.648 205.637 149.249 204.721C150.545 202.759 152.264 202.676 153.837 204.333C156.041 206.655 158.4 208.826 160.591 211.158C160.982 211.575 160.93 212.452 160.992 213.123C161.079 214.064 161.079 215.015 161.118 215.962C161.276 215.953 161.434 215.943 161.593 215.934C161.647 214.732 161.706 213.534 161.777 211.964C163.725 213.313 165.418 214.485 167.209 215.722Z" fill="#29A063"/>
<path d="M181.055 204.116C182.028 206.172 182.878 207.97 183.818 209.958C184.293 209.29 184.771 208.616 185.253 207.941C185.443 207.951 185.637 207.964 185.828 207.973C185.867 208.882 186.106 209.849 185.876 210.687C185.715 211.288 185.515 212.531 184.141 211.943C184.015 211.888 183.408 212.942 183.023 213.481C183.23 213.661 183.434 213.841 183.64 214.018C183.815 213.552 183.993 213.083 184.167 212.617C184.345 212.691 184.526 212.762 184.703 212.836C184.645 213.546 184.59 214.259 184.532 214.968C183.556 214.846 183.224 216.767 181.928 215.775C181.824 215.694 181.343 216.076 181.055 216.272C180.406 216.712 179.808 217.246 179.116 217.605C176.997 218.707 175.549 218.132 174.725 215.836C173.591 212.669 173.252 209.354 173.471 206.04C173.633 203.599 175.762 202.963 178.425 203.278C179.44 203.393 180.406 203.901 181.055 204.116ZM175.142 214.76C175.824 215.469 176.224 215.884 176.622 216.298C177.061 215.813 177.782 215.363 177.847 214.834C177.898 214.419 177.213 213.729 176.706 213.51C176.47 213.411 175.875 214.153 175.142 214.76Z" fill="#CE7A63"/>
<path d="M200.531 256.622C197.601 257.146 194.828 257.64 191.955 258.154C190.85 254.731 190.075 251.3 190.828 247.607C191.329 245.163 191.39 242.629 191.7 239.594C193.025 242.166 194.663 244.241 195.119 246.547C195.568 248.824 194.818 251.336 194.97 253.834C195.332 252.078 195.697 250.324 196.104 248.352C197.626 251.185 199.048 253.851 200.531 256.622Z" fill="white"/>
<path d="M226.904 183.168C226.458 184.327 226.012 185.49 225.567 186.649C225.715 186.714 225.867 186.778 226.016 186.842C226.969 184.925 227.925 183.007 228.879 181.09C229.014 181.148 229.147 181.205 229.283 181.263C228.459 183.145 227.635 185.031 226.811 186.913C226.988 186.996 227.163 187.08 227.341 187.163C228.178 185.458 229.014 183.749 229.851 182.044C229.935 182.079 230.019 182.114 230.103 182.15C229.289 184.263 228.475 186.376 227.664 188.49C227.799 188.567 227.935 188.644 228.071 188.721C228.41 188.564 228.749 188.409 229.089 188.252C229.212 188.348 229.338 188.445 229.46 188.538C226.775 192.17 224.087 195.806 221.24 199.654C220.371 198.574 219.799 197.861 219.152 197.055C219.475 196.596 219.805 196.134 220.131 195.668C220.865 194.611 221.22 193.619 220.93 192.177C220.555 190.324 220.829 188.342 220.81 186.415C220.804 185.866 220.758 185.316 220.729 184.764C220.9 184.742 221.072 184.716 221.243 184.693C221.321 185.419 221.353 186.152 221.492 186.865C221.615 187.488 221.857 188.088 222.048 188.698C222.671 188.38 223.515 188.217 223.877 187.709C224.936 186.229 225.799 184.613 226.743 183.049C226.801 183.094 226.853 183.132 226.904 183.168Z" fill="#CE7A63"/>
<path d="M231.817 293.498C226.372 294.41 220.678 295.399 214.968 296.285C213.908 296.449 212.781 296.237 211.692 296.122C207.959 295.723 204.237 295.27 200.505 294.885C199.551 294.789 198.582 294.869 197.619 294.763C209.032 292.585 220.504 291.827 231.817 293.498Z" fill="white"/>
<path d="M173.496 203.711C173.551 202.195 175.112 200.149 176.504 199.699C180.153 198.524 183.491 198.941 186.134 201.896C187.443 203.361 188.402 206.21 187.087 207.867C185.934 207.697 184.942 207.552 183.946 207.404C183.856 207.568 183.765 207.729 183.675 207.892C183.151 206.617 182.647 205.336 182.085 204.077C181.972 203.826 181.671 203.598 181.406 203.48C178.776 202.33 176.159 202.002 173.496 203.711Z" fill="#263238"/>
<path d="M148.388 202.13C146.462 200.033 144.672 198.083 143.047 196.317C143.751 195.023 144.249 194.111 144.759 193.173C144.95 193.272 145.377 193.491 145.858 193.741C145.858 194.92 145.858 196.128 145.858 197.332C145.991 197.335 146.126 197.335 146.259 197.338C146.365 195.424 146.469 193.51 146.592 191.316C147.177 192.775 148.101 194.059 148.133 195.366C148.191 197.717 149.661 199.182 150.889 200.977C150.001 201.385 149.132 201.787 148.388 202.13Z" fill="#CE7A63"/>
<path d="M184.624 217.672C186.12 217.717 186.224 218.603 186.395 219.865C186.76 222.534 187.494 225.155 188.075 227.795C188.483 229.648 188.887 231.505 189.294 233.358C189.142 233.409 188.993 233.461 188.841 233.512C187.904 231.338 186.925 229.183 186.049 226.983C185.358 225.245 184.841 223.44 184.169 221.696C183.626 220.283 183.487 218.953 184.624 217.672Z" fill="#29A063"/>
<path d="M162.18 233.899C162.577 229.232 171.428 215.881 173.91 215.711C174.126 216.273 174.349 216.851 174.63 217.571C172.556 217.346 171.444 218.624 170.542 220.14C168.352 223.821 166.212 227.527 164.022 231.204C163.466 232.139 162.794 233.003 162.18 233.899Z" fill="#29A063"/>
<path d="M190.952 292.324C196.975 292.324 202.908 292.324 208.837 292.324C208.841 292.356 208.841 292.388 208.844 292.421C207.021 292.687 205.205 293.021 203.373 293.207C199.748 293.58 196.112 293.866 192.483 294.209C191.117 294.338 190.567 293.805 190.952 292.324Z" fill="white"/>
<path d="M164.512 226.026C165.694 222.095 167.947 218.771 170.661 215.764C171.275 215.083 172.383 214.849 173.24 214.422C172.054 215.671 170.823 216.718 169.905 217.99C168.018 220.604 166.299 223.341 164.512 226.026Z" fill="#29A063"/>
<path d="M216.938 198.513C217.443 198.012 217.859 197.604 218.267 197.199C219.356 198.416 220.402 199.592 221.608 200.941C221.514 201.105 221.278 201.516 220.978 202.039C219.588 200.825 218.328 199.724 216.938 198.513Z" fill="white"/>
<path d="M171.735 293.027C171.751 293.355 171.767 293.705 171.786 294.129C168.423 294.129 165.127 294.129 161.831 294.129C161.827 294.081 161.824 294.036 161.824 293.988C165.098 293.673 168.374 293.355 171.735 293.027Z" fill="white"/>
<path d="M178.648 253.488C180.128 253.347 181.486 253.205 182.846 253.125C182.924 253.122 183.033 253.649 183.13 253.938C178.736 254.972 178.736 254.972 178.648 253.488Z" fill="white"/>
<path d="M183.914 253.436C184.205 253.125 184.441 252.653 184.796 252.531C185.669 252.229 186.59 252.03 187.507 251.924C187.776 251.891 188.099 252.319 188.396 252.534C188.16 252.733 187.953 253.051 187.685 253.115C186.58 253.375 185.455 253.558 184.341 253.767C184.198 253.658 184.056 253.549 183.914 253.436Z" fill="white"/>
<path d="M151.615 201.975C150.384 202.88 149.218 203.738 148.077 204.573C147.583 203.253 149.486 201.804 151.615 201.975Z" fill="white"/>
<path d="M181.315 217.81C182.543 217.017 183.542 216.371 184.54 215.723C184.598 215.793 184.657 215.861 184.715 215.931C184.298 216.635 183.881 217.338 183.458 218.051C182.831 217.98 182.23 217.913 181.315 217.81Z" fill="white"/>
<path d="M174.474 255.078C175.081 254.725 175.669 254.33 176.299 254.022C177.149 253.607 177.773 253.643 177.553 254.995C176.555 255.146 175.524 255.3 174.493 255.454C174.487 255.329 174.48 255.204 174.474 255.078Z" fill="white"/>
<path d="M174.068 299.641C172.834 299.641 171.573 299.792 170.381 299.573C169.825 299.47 169.124 298.7 169.017 298.134C168.95 297.771 169.825 296.856 170.313 296.83C172.824 296.696 175.348 296.773 177.868 296.766C179.041 296.763 178.876 297.592 178.909 298.333C178.944 299.146 178.737 299.676 177.765 299.647C176.537 299.612 175.302 299.641 174.068 299.641ZM178.165 297.508C176.495 297.508 174.824 297.508 173.063 297.508C173.124 298.07 173.173 298.51 173.221 298.931C178.114 299.262 178.178 299.242 178.165 297.508ZM172.401 297.161C171.338 297.441 170.468 297.669 169.599 297.897C169.732 298.231 169.816 298.822 170.006 298.857C170.766 299.002 171.56 298.976 172.401 299.018C172.401 298.433 172.401 298.022 172.401 297.161Z" fill="black"/>
<path d="M172.041 289.673C171.346 281.175 170.654 272.677 169.943 263.957C170.331 264.211 170.693 264.326 170.703 264.471C171.368 272.857 172.008 281.246 172.648 289.635C172.444 289.644 172.241 289.657 172.041 289.673Z" fill="black"/>
<path d="M160.288 249.73C162.821 245.689 165.132 242.002 167.491 238.238C167.471 238.576 167.597 239.089 167.404 239.414C165.436 242.683 163.422 245.927 161.393 249.161C161.264 249.36 160.909 249.418 160.288 249.73Z" fill="black"/>
<path d="M175.14 214.758C175.87 214.151 176.468 213.409 176.7 213.509C177.208 213.724 177.893 214.415 177.841 214.832C177.776 215.362 177.056 215.812 176.616 216.297C176.222 215.883 175.825 215.468 175.14 214.758Z" fill="black"/>
<path d="M178.166 297.512C178.179 299.246 178.114 299.265 173.222 298.935C173.177 298.517 173.128 298.074 173.063 297.512C174.825 297.512 176.495 297.512 178.166 297.512Z" fill="white"/>
<path d="M172.401 297.16C172.401 298.021 172.401 298.432 172.401 299.02C171.558 298.978 170.766 299.004 170.007 298.859C169.816 298.824 169.732 298.233 169.6 297.899C170.469 297.668 171.335 297.44 172.401 297.16Z" fill="white"/>
<path d="M129.091 244.344C131.342 244.447 133.072 245.303 133.731 248.023C134.179 247.263 134.517 246.903 134.616 246.486C134.976 244.955 135.981 244.416 137.458 244.408C137.828 244.406 138.2 244.19 138.873 243.72C138.392 243.364 137.951 242.918 137.419 242.673C136.127 242.085 136.299 241.083 136.504 240.014C136.593 239.556 136.598 239.086 136.691 238.086C134.549 240.115 132.569 239.831 130.444 238.495C131.467 240.877 131.191 242.806 129 244.026" fill="black"/>
<path d="M131.254 239.475C133.014 240.818 134.555 240.556 136.113 239.02C135.96 240.22 135.571 241.166 135.82 241.896C136.076 242.641 136.959 243.173 137.792 244.031C135.45 243.685 134.351 244.737 133.84 246.719C133.229 244.643 131.915 243.884 129.78 244.014C131.755 242.891 131.954 241.379 131.254 239.475Z" fill="black"/>
<path d="M142.679 253.884C140.719 251.325 142.835 253.769 142.679 253.884C139.435 249.647 140.613 250.628 137.369 246.391C137.224 246.501 137.078 246.609 136.933 246.719C140.17 250.963 142.679 253.884 142.679 253.884Z" fill="black"/>
<path d="M131.253 239.477C131.953 241.381 131.753 242.893 129.781 244.018C131.916 243.885 133.23 244.647 133.841 246.723C134.352 244.738 135.451 243.687 137.793 244.035C136.96 243.177 136.075 242.645 135.821 241.9C135.572 241.173 135.959 240.227 136.114 239.023C134.554 240.555 133.013 240.817 131.253 239.477Z" fill="white"/>
<path d="M231.187 261.382C228.199 261.527 225.901 262.728 225.027 266.549C224.431 265.482 223.983 264.976 223.852 264.391C223.374 262.239 222.039 261.482 220.078 261.471C219.587 261.468 219.093 261.165 218.199 260.504C218.837 260.005 219.423 259.378 220.13 259.034C221.846 258.208 221.616 256.8 221.345 255.299C221.227 254.655 221.22 253.994 221.096 252.59C223.94 255.44 226.569 255.041 229.39 253.165C228.032 256.511 228.398 259.22 231.308 260.934" fill="black"/>
<path d="M228.306 255.055C225.838 256.841 223.677 256.492 221.492 254.449C221.706 256.046 222.253 257.303 221.904 258.274C221.544 259.265 220.306 259.972 219.138 261.112C222.422 260.653 223.964 262.05 224.68 264.686C225.537 261.926 227.38 260.916 230.374 261.089C227.605 259.597 227.325 257.587 228.306 255.055Z" fill="black"/>
<path d="M210.098 278.651C209.893 278.493 209.978 278.476 209.773 278.315C214.041 272.51 215.231 270.496 219.499 264.691C219.691 264.842 219.882 264.99 220.073 265.141C215.815 270.956 214.356 272.836 210.098 278.651Z" fill="black"/>
<path d="M228.31 255.052C227.328 257.583 227.608 259.594 230.374 261.089C227.38 260.913 225.537 261.926 224.68 264.686C223.964 262.047 222.422 260.649 219.138 261.112C220.306 259.972 221.547 259.265 221.904 258.274C222.253 257.307 221.71 256.049 221.492 254.449C223.681 256.485 225.841 256.834 228.31 255.052Z" fill="white"/>
<path d="M46.5171 105.724L46.9371 108.776L61.3571 108.132C61.2451 109.112 61.0771 110.12 60.8531 111.268L64.4931 111.52C65.2211 108.16 65.2211 105.584 65.2211 103.036V100.6H47.1891V103.54H61.5531C61.5531 104.156 61.5531 104.8 61.5251 105.416L46.5171 105.724ZM50.9971 117.372H47.3011V125.044H65.6411V122.076H50.9971V117.372ZM56.9051 112.836V109.7H53.2091V112.836H44.6131V115.748H67.8251V112.836H56.9051ZM89.4949 99.62H85.9949V118.884H89.4949V99.62ZM80.9269 118.324H84.3709V100.124H80.9269V106.648H78.4069V109.588H80.9269V118.324ZM79.1349 111.828C76.8109 112.22 74.7949 112.36 72.0789 112.388V109.784H77.3149V107.012H72.0789V104.52H78.2109V101.608H68.5229V115.3H70.2869C74.0949 115.3 76.5309 115.244 79.4429 114.712L79.1349 111.828ZM76.0269 122.02V116.84H72.3309V124.96H90.1389V122.02H76.0269ZM92.6287 116.112C97.1927 115.44 100.441 113.368 102.149 110.596C103.857 113.368 107.105 115.44 111.669 116.112L113.041 113.116C107.189 112.304 104.305 109.168 104.053 106.116H111.809V103.176H103.997V100.012H100.301V103.176H92.4887V106.116H100.245C99.9927 109.168 97.1087 112.304 91.2567 113.116L92.6287 116.112ZM90.4727 119.444V122.44H113.825V119.444H90.4727ZM122.755 112.584C122.783 113.928 123.931 115.048 125.219 115.048C126.591 115.048 127.683 113.928 127.683 112.584C127.683 111.324 126.591 110.148 125.219 110.148C123.931 110.148 122.755 111.324 122.755 112.584ZM137.676 102.084V105.024H145.824C145.712 106.256 145.516 107.376 145.264 108.468L136.304 108.972L136.78 112.08L144.144 111.408C142.66 114.236 140.168 116.616 136.164 118.716L138.18 121.516C147.42 116.672 149.492 110.008 149.492 102.084H137.676ZM154.252 99.62V109.504H149.436V112.5H154.252V125.408H157.948V99.62H154.252ZM176.286 108.328H165.674V103.764H176.286V108.328ZM179.898 100.824H162.034V111.24H179.898V100.824ZM182.698 113.984H159.346V116.924H164.694V125.492H168.362V116.924H173.766V125.492H177.462V116.924H182.698V113.984ZM187.316 102.056H183.648V119.052H185.944C189.864 119.052 194.148 118.772 198.544 117.848L198.152 114.768C194.372 115.524 190.704 115.804 187.316 115.888V102.056ZM200.14 99.592V125.38H203.836V99.592H200.14ZM210.33 111.828H218.618V108.944H210.33V104.744H219.682V101.748H206.634V119.584H208.874C213.494 119.584 217.106 119.472 221.138 118.856L220.802 115.916C217.274 116.448 214.166 116.588 210.33 116.616V111.828ZM223.014 99.62V125.436H226.738V99.62H223.014ZM237.544 112.584C237.572 113.928 238.72 115.048 240.008 115.048C241.38 115.048 242.472 113.928 242.472 112.584C242.472 111.324 241.38 110.148 240.008 110.148C238.72 110.148 237.544 111.324 237.544 112.584ZM273.745 111.38C267.865 110.428 264.701 106.564 264.701 102.896V101.048H260.753V102.896C260.753 106.48 257.561 110.428 251.737 111.38L253.249 114.432C257.757 113.62 261.033 111.184 262.713 108.02C264.393 111.212 267.697 113.62 272.233 114.432L273.745 111.38ZM264.589 119.388V113.62H260.893V119.388H251.177V122.356H274.529V119.388H264.589ZM280.211 104.436H291.327V111.268H280.211V104.436ZM287.631 119.416V114.18H294.939V101.524H276.599V114.18H283.935V119.416H274.135V122.412H297.487V119.416H287.631ZM314.789 99.62V114.236H318.513V99.62H314.789ZM301.349 115.384V125.1H318.513V115.384H301.349ZM314.901 118.268V122.216H304.989V118.268H314.901ZM304.485 100.796C300.481 100.796 297.457 103.372 297.457 107.012C297.457 110.624 300.481 113.2 304.485 113.2C308.489 113.2 311.485 110.624 311.485 107.012C311.485 103.372 308.489 100.796 304.485 100.796ZM304.485 103.876C306.417 103.876 307.873 105.052 307.873 107.012C307.873 108.944 306.417 110.12 304.485 110.12C302.525 110.12 301.069 108.944 301.069 107.012C301.069 105.052 302.525 103.876 304.485 103.876Z" fill="#0B5932"/>
<path d="M164.668 147.292H158.424V142.504H164.668V147.292ZM156.128 147.292H152.404V149.056H170.66V147.292H166.964V142.504H170.744V140.74H152.32V142.504H156.128V147.292ZM155.26 160.704H170.016V155.188H152.936V156.896H167.748V159.052H153.02V164.792H170.772V163.056H155.26V160.704ZM150.192 151.156V152.976H172.928V151.156H150.192ZM190.202 148.384H193.562V157.064H195.774V139.984H193.562V146.536H190.202V140.432H188.018V154.88H190.202V148.384ZM186.562 151.912C183.678 152.5 181.186 152.64 177.938 152.668V148.944H185.106V141.944H175.67V143.792H182.894V147.208H175.726V154.516H177.378C180.99 154.516 183.622 154.376 186.814 153.732L186.562 151.912ZM188.55 155.916H186.226V156.56C186.226 159.808 182.138 162.496 177.742 163.196L178.666 164.988C182.39 164.344 185.862 162.412 187.402 159.64C188.914 162.412 192.442 164.344 196.138 164.988L197.062 163.196C192.638 162.496 188.55 159.808 188.55 156.56V155.916ZM203.976 158.66H216.632V162.888H203.976V158.66ZM201.736 164.736H218.872V156.84H201.736V164.736ZM207.14 142.616H213.384V147.88H207.14V142.616ZM211.424 152.612V149.728H219.376V147.88H215.68V142.616H219.488V140.768H201.064V142.616H204.844V147.88H201.148V149.728H209.128V152.612H198.936V154.46H221.644V152.612H211.424Z" fill="black"/>
<path d="M141.944 64.4847H133.044V61.8447H141.944V64.4847ZM143.584 58.0647H141.944V60.5247H133.044V58.0647H131.424V65.8247H143.584V58.0647ZM145.644 67.9847H129.364V69.3047H136.644V75.3047H138.284V69.3047H145.644V67.9847ZM150.283 60.1447H159.463V65.9647H150.283V60.1447ZM155.723 71.6247V67.2647H161.063V58.8447H148.703V67.2647H154.063V71.6247H146.783V72.9847H163.043V71.6247H155.723ZM175.301 63.9647C172.481 64.5447 169.861 64.7647 166.921 64.7647V58.3847H165.281V66.1447H166.741C169.841 66.1447 172.541 65.9247 175.521 65.3247L175.301 63.9647ZM168.881 69.6647H177.281V73.7047H168.881V69.6647ZM167.281 75.0247H178.881V68.3647H167.281V75.0247ZM177.241 57.3247V67.5047H178.881V57.3247H177.241ZM189.68 58.8847C192.62 58.8847 194.3 59.5647 194.3 60.7647C194.3 61.9647 192.62 62.6447 189.68 62.6447C186.74 62.6447 185.06 61.9647 185.06 60.7647C185.06 59.5647 186.74 58.8847 189.68 58.8847ZM189.68 63.8647C193.62 63.8647 195.98 62.7847 195.98 60.7647C195.98 58.7447 193.62 57.6447 189.68 57.6447C185.74 57.6447 183.38 58.7447 183.38 60.7647C183.38 62.7847 185.74 63.8647 189.68 63.8647ZM185.18 71.9847H195.72V67.9447H183.52V69.1847H194.1V70.7847H183.58V75.0847H196.26V73.8047H185.18V71.9847ZM181.56 65.0847V66.4047H197.8V65.0847H181.56ZM208.819 59.5447C210.559 59.5447 211.799 60.4847 211.799 61.8847C211.799 63.2847 210.559 64.2247 208.819 64.2247C207.059 64.2247 205.819 63.2847 205.819 61.8847C205.819 60.4847 207.059 59.5447 208.819 59.5447ZM208.819 65.5647C211.479 65.5647 213.379 64.0647 213.379 61.8847C213.379 59.6847 211.479 58.1847 208.819 58.1847C206.139 58.1847 204.239 59.6847 204.239 61.8847C204.239 64.0647 206.139 65.5647 208.819 65.5647ZM214.719 66.4447C210.779 67.0447 206.239 67.0847 202.899 67.0847L203.119 68.4647C204.599 68.4647 206.299 68.4447 208.079 68.3647V74.7247H209.719V68.2647C211.419 68.1647 213.159 67.9647 214.859 67.6647L214.719 66.4447ZM216.019 57.3647V75.3047H217.659V57.3647H216.019ZM230.977 59.5447H226.497V57.3447H224.857V59.5447H220.397V60.8647H230.977V59.5447ZM222.957 65.1847C222.957 63.9447 224.057 63.1447 225.677 63.1447C227.297 63.1447 228.417 63.9447 228.417 65.1847C228.417 66.4447 227.297 67.2447 225.677 67.2447C224.057 67.2447 222.957 66.4447 222.957 65.1847ZM229.977 65.1847C229.977 63.1847 228.217 61.8647 225.677 61.8647C223.137 61.8647 221.397 63.1847 221.397 65.1847C221.397 67.2047 223.137 68.5247 225.677 68.5247C228.217 68.5247 229.977 67.2047 229.977 65.1847ZM224.737 69.7447H223.097V74.8847H235.057V73.5447H224.737V69.7447ZM234.257 63.2647V57.3447H232.617V70.8047H234.257V64.6447H236.897V63.2647H234.257Z" fill="black"/>
<path d="M120.666 82.8086H243.999" stroke="#B3BCB7" stroke-width="1.66667"/>
</svg>
