<svg width="86" height="38" viewBox="0 0 86 38" fill="none" xmlns="http://www.w3.org/2000/svg">
<path d="M34.872 12.912C34.872 9.904 37.656 8.144 41.688 8.144C45.752 8.144 48.536 9.904 48.536 12.912C48.536 15.92 45.752 17.68 41.688 17.68C37.656 17.68 34.872 15.92 34.872 12.912ZM43.8 25.904V20.912C49.016 20.304 52.696 17.296 52.696 12.912C52.696 7.984 47.992 4.784 41.688 4.784C35.416 4.784 30.712 7.984 30.712 12.912C30.712 17.296 34.392 20.272 39.576 20.912V25.904H28.376V29.328H55.064V25.904H43.8ZM78.0055 3.248V32.816H82.2295V3.248H78.0055ZM66.3895 5.328C61.9415 5.328 58.6455 9.36 58.6455 15.824C58.6455 22.32 61.9415 26.384 66.3895 26.384C70.8375 26.384 74.1335 22.32 74.1335 15.824C74.1335 9.36 70.8375 5.328 66.3895 5.328ZM66.3895 9.136C68.5655 9.136 70.0695 11.472 70.0695 15.824C70.0695 20.208 68.5655 22.544 66.3895 22.544C64.2135 22.544 62.7095 20.208 62.7095 15.824C62.7095 11.472 64.2135 9.136 66.3895 9.136Z" fill="#25A765"/>
<path d="M11.5007 5.01709C9.99037 5.01709 8.49487 5.31101 7.09955 5.88208C5.70422 6.45315 4.4364 7.29018 3.36846 8.34538C2.30053 9.40058 1.4534 10.6533 0.875434 12.032C0.297472 13.4106 0 14.8883 0 16.3806V21.4936C0 22.9859 0.297472 24.4636 0.875434 25.8423C1.4534 27.2209 2.30053 28.4736 3.36846 29.5288C4.4364 30.584 5.70422 31.4211 7.09955 31.9921C8.49487 32.5632 9.99037 32.8571 11.5007 32.8571C14.5506 32.8568 17.4755 31.6594 19.632 29.5284C21.7885 27.3973 23 24.5072 23 21.4936V16.3798C22.9998 13.3664 21.7882 10.4764 19.6317 8.34556C17.4752 6.2147 14.5505 5.01744 11.5007 5.01709ZM16.6443 21.4762C16.6563 22.151 16.5321 22.8214 16.279 23.4483C16.026 24.0752 15.6491 24.646 15.1703 25.1274C14.6916 25.6088 14.1206 25.9912 13.4907 26.2522C12.8607 26.5132 12.1845 26.6476 11.5014 26.6476C10.8184 26.6476 10.1422 26.5132 9.51224 26.2522C8.88232 25.9912 8.31133 25.6088 7.83259 25.1274C7.35384 24.646 6.97694 24.0752 6.72386 23.4483C6.47079 22.8214 6.34662 22.151 6.3586 21.4762V16.3965C6.34662 15.7217 6.47079 15.0513 6.72386 14.4244C6.97694 13.7975 7.35384 13.2267 7.83259 12.7453C8.31133 12.2639 8.88232 11.8815 9.51224 11.6205C10.1422 11.3595 10.8184 11.225 11.5014 11.225C12.1845 11.225 12.8607 11.3595 13.4907 11.6205C14.1206 11.8815 14.6916 12.2639 15.1703 12.7453C15.6491 13.2267 16.026 13.7975 16.279 14.4244C16.5321 15.0513 16.6563 15.7217 16.6443 16.3965V21.4762Z" fill="#25A765"/>
<path d="M8.06061 2.98825C8.13961 3.01643 8.21089 3.06238 8.2688 3.12248C8.32672 3.18259 8.36969 3.25518 8.39431 3.33452C8.41893 3.41387 8.42452 3.49779 8.41064 3.57964C8.39677 3.66149 8.3638 3.73902 8.31436 3.80611L8.31647 3.8121C8.08255 3.95502 7.87975 4.14252 7.71989 4.36365C7.56003 4.58479 7.4463 4.83514 7.38534 5.10014C10.0448 4.15248 12.9557 4.15248 15.6152 5.10014C15.5544 4.83514 15.4408 4.58477 15.281 4.36362C15.1212 4.14248 14.9185 3.95499 14.6846 3.8121L14.6861 3.80611C14.6367 3.739 14.6037 3.66143 14.5898 3.57954C14.5759 3.49765 14.5816 3.41369 14.6062 3.33433C14.6309 3.25496 14.674 3.18236 14.732 3.12229C14.79 3.06222 14.8613 3.01633 14.9404 2.98825C15.1395 2.93309 15.3151 2.81571 15.4411 2.65369C15.567 2.49166 15.6364 2.29369 15.639 2.08942C15.6415 1.88515 15.577 1.68555 15.4552 1.52051C15.3333 1.35548 15.1606 1.23387 14.963 1.1739C14.7654 1.11392 14.5534 1.11881 14.3588 1.18781C14.1642 1.25682 13.9974 1.38624 13.8835 1.55671C13.7696 1.72718 13.7145 1.92953 13.7267 2.13346C13.7389 2.33739 13.8176 2.53194 13.951 2.688H13.9489V2.68957C13.9983 2.75675 14.0312 2.83435 14.045 2.91624C14.0588 2.99814 14.0531 3.08209 14.0285 3.16146C14.0038 3.24083 13.9608 3.31345 13.9029 3.37358C13.8449 3.43371 13.7736 3.47971 13.6946 3.50794L13.6925 3.51472C13.4194 3.50507 13.1472 3.54938 12.8917 3.64503C12.6536 3.49013 12.3914 3.37471 12.1156 3.30335V3.29397C12.0303 3.23087 11.961 3.14897 11.9132 3.05477C11.8655 2.96058 11.8406 2.85668 11.8406 2.75134C11.8406 2.64599 11.8655 2.54209 11.9132 2.4479C11.961 2.3537 12.0303 2.2718 12.1156 2.2087V2.20714H12.1127C12.3332 2.067 12.5017 1.86011 12.5932 1.61742C12.6847 1.37473 12.6942 1.1093 12.6203 0.860825C12.5464 0.612353 12.3931 0.39421 12.1832 0.239036C11.9734 0.0838614 11.7183 0 11.4562 0C11.1941 0 10.939 0.0838614 10.7292 0.239036C10.5193 0.39421 10.366 0.612353 10.2921 0.860825C10.2182 1.1093 10.2277 1.37473 10.3192 1.61742C10.4107 1.86011 10.5792 2.067 10.7997 2.20714C10.885 2.27024 10.9544 2.35214 11.0021 2.44633C11.0498 2.54053 11.0747 2.64442 11.0747 2.74977C11.0747 2.85512 11.0498 2.95901 11.0021 3.05321C10.9544 3.1474 10.885 3.2293 10.7997 3.2924V3.30022C10.5364 3.369 10.2855 3.47777 10.0561 3.62262C9.81622 3.54086 9.56315 3.50357 9.30959 3.51263L9.30748 3.50586C9.22835 3.47776 9.15694 3.43182 9.0989 3.37171C9.04086 3.31159 8.9978 3.23895 8.97312 3.15952C8.94845 3.0801 8.94283 2.9961 8.95673 2.91416C8.97063 2.83222 9.00366 2.7546 9.05319 2.68747V2.68592H9.05108C9.18464 2.5298 9.26343 2.33514 9.27565 2.13108C9.28788 1.92702 9.23288 1.72454 9.1189 1.55394C9.00492 1.38335 8.83808 1.25382 8.64337 1.18474C8.44866 1.11567 8.23654 1.11076 8.03877 1.17076C7.841 1.23076 7.66822 1.35243 7.54628 1.51757C7.42435 1.68271 7.35983 1.88243 7.36238 2.08683C7.36493 2.29123 7.43441 2.48931 7.56042 2.65144C7.68643 2.81356 7.86219 2.931 8.0614 2.98616L8.06061 2.98825Z" fill="#123B1E"/>
</svg>
