<svg width="151" height="151" viewBox="0 0 151 151" fill="none" xmlns="http://www.w3.org/2000/svg">
<path d="M76.4673 32.1904C70.7591 32.1904 65.1068 33.3147 59.8331 35.4992C54.5594 37.6836 49.7676 40.8854 45.7313 44.9217C41.695 48.958 38.4932 53.7498 36.3087 59.0235C34.1243 64.2972 33 69.9495 33 75.6577V95.216C33 100.924 34.1243 106.577 36.3087 111.85C38.4932 117.124 41.695 121.916 45.7313 125.952C49.7676 129.988 54.5594 133.19 59.8331 135.375C65.1068 137.559 70.7591 138.683 76.4673 138.683V138.683C87.9947 138.682 99.0495 134.102 107.2 125.95C115.351 117.799 119.93 106.743 119.93 95.216V75.6547C119.929 64.1279 115.35 53.0733 107.199 44.9224C99.0485 36.7715 87.9942 32.1918 76.4673 32.1904V32.1904ZM95.908 95.1492C95.9532 97.7305 95.4839 100.295 94.5274 102.693C93.5709 105.091 92.1464 107.274 90.337 109.116C88.5275 110.957 86.3694 112.42 83.9886 113.418C81.6078 114.417 79.052 114.931 76.4703 114.931C73.8886 114.931 71.3328 114.417 68.952 113.418C66.5712 112.42 64.4131 110.957 62.6037 109.116C60.7942 107.274 59.3697 105.091 58.4132 102.693C57.4567 100.295 56.9874 97.7305 57.0327 95.1492V75.7186C56.9874 73.1373 57.4567 70.5728 58.4132 68.1749C59.3697 65.7769 60.7942 63.5935 62.6037 61.752C64.4131 59.9105 66.5712 58.4479 68.952 57.4495C71.3328 56.4511 73.8886 55.9369 76.4703 55.9369C79.052 55.9369 81.6078 56.4511 83.9886 57.4495C86.3694 58.4479 88.5275 59.9105 90.337 61.752C92.1464 63.5935 93.5709 65.7769 94.5274 68.1749C95.4839 70.5728 95.9532 73.1373 95.908 75.7186V95.1492Z" fill="#25A765"/>
<path d="M63.4664 24.4306C63.765 24.5384 64.0344 24.7141 64.2533 24.944C64.4722 25.1739 64.6346 25.4516 64.7277 25.7551C64.8207 26.0586 64.8418 26.3796 64.7894 26.6927C64.7369 27.0058 64.6123 27.3024 64.4255 27.559L64.4334 27.5819C63.5493 28.1286 62.7829 28.8458 62.1787 29.6917C61.5745 30.5376 61.1446 31.4953 60.9142 32.5089C70.9657 28.884 81.9677 28.884 92.0193 32.5089C91.7895 31.4953 91.3601 30.5375 90.7562 29.6916C90.1523 28.8457 89.386 28.1285 88.502 27.5819L88.508 27.559C88.3209 27.3023 88.1963 27.0056 88.1438 26.6924C88.0914 26.3791 88.1127 26.058 88.2059 25.7544C88.2992 25.4508 88.4619 25.1731 88.6811 24.9433C88.9004 24.7135 89.1701 24.538 89.469 24.4306V24.4306C90.2214 24.2196 90.8853 23.7706 91.3612 23.1508C91.8371 22.531 92.0996 21.7738 92.1092 20.9924C92.1188 20.211 91.875 19.4475 91.4145 18.8162C90.954 18.1849 90.3013 17.7198 89.5543 17.4904C88.8073 17.2609 88.0061 17.2796 87.2706 17.5436C86.5351 17.8076 85.9049 18.3026 85.4743 18.9547C85.0437 19.6068 84.8358 20.3808 84.8818 21.1608C84.9278 21.9409 85.2252 22.6851 85.7295 23.2821H85.7215V23.2881C85.9081 23.545 86.0324 23.8419 86.0846 24.1551C86.1368 24.4684 86.1154 24.7895 86.0222 25.0931C85.929 25.3967 85.7665 25.6745 85.5475 25.9045C85.3285 26.1345 85.0591 26.3105 84.7604 26.4185L84.7524 26.4444C83.7204 26.4075 82.6914 26.577 81.7257 26.9429C80.8257 26.3503 79.835 25.9088 78.7926 25.6359V25.6C78.4699 25.3586 78.208 25.0453 78.0275 24.685C77.8471 24.3247 77.7531 23.9273 77.7531 23.5243C77.7531 23.1214 77.8471 22.7239 78.0275 22.3636C78.208 22.0033 78.4699 21.69 78.7926 21.4487V21.4427H78.7817C79.6148 20.9066 80.2519 20.1153 80.5977 19.1869C80.9436 18.2586 80.9795 17.2433 80.7001 16.2928C80.4208 15.3424 79.8412 14.5079 79.048 13.9144C78.2549 13.3208 77.2909 13 76.3002 13C75.3096 13 74.3456 13.3208 73.5524 13.9144C72.7593 14.5079 72.1797 15.3424 71.9003 16.2928C71.621 17.2433 71.6569 18.2586 72.0028 19.1869C72.3486 20.1153 72.9857 20.9066 73.8188 21.4427C74.1415 21.684 74.4035 21.9973 74.5839 22.3576C74.7644 22.7179 74.8583 23.1154 74.8583 23.5183C74.8583 23.9213 74.7644 24.3187 74.5839 24.679C74.4035 25.0394 74.1415 25.3526 73.8188 25.594V25.6239C72.8238 25.887 71.8757 26.3031 71.0084 26.8571C70.1018 26.5444 69.1453 26.4018 68.187 26.4364L68.179 26.4105C67.88 26.303 67.6101 26.1273 67.3907 25.8974C67.1713 25.6674 67.0086 25.3895 66.9153 25.0857C66.822 24.7819 66.8008 24.4606 66.8534 24.1472C66.9059 23.8337 67.0307 23.5368 67.2179 23.28V23.2741H67.21C67.7147 22.6769 68.0125 21.9323 68.0587 21.1518C68.1049 20.3712 67.8971 19.5967 67.4663 18.9441C67.0355 18.2915 66.4049 17.7961 65.669 17.5319C64.9331 17.2676 64.1314 17.2489 63.3839 17.4784C62.6364 17.7079 61.9834 18.1733 61.5225 18.805C61.0617 19.4367 60.8178 20.2006 60.8274 20.9825C60.8371 21.7643 61.0997 22.5221 61.5759 23.1422C62.0522 23.7623 62.7165 24.2116 63.4694 24.4226L63.4664 24.4306Z" fill="#123B1E"/>
<path d="M76.4673 32.1904C70.7591 32.1904 65.1068 33.3147 59.8331 35.4992C54.5594 37.6836 49.7676 40.8854 45.7313 44.9217C41.695 48.958 38.4932 53.7498 36.3087 59.0235C34.1243 64.2972 33 69.9495 33 75.6577V95.216C33 100.924 34.1243 106.577 36.3087 111.85C38.4932 117.124 41.695 121.916 45.7313 125.952C49.7676 129.988 54.5594 133.19 59.8331 135.375C65.1068 137.559 70.7591 138.683 76.4673 138.683V138.683C87.9947 138.682 99.0495 134.102 107.2 125.95C115.351 117.799 119.93 106.743 119.93 95.216V75.6547C119.929 64.1279 115.35 53.0733 107.199 44.9224C99.0485 36.7715 87.9942 32.1918 76.4673 32.1904V32.1904ZM95.908 95.1492C95.9532 97.7305 95.4839 100.295 94.5274 102.693C93.5709 105.091 92.1464 107.274 90.337 109.116C88.5275 110.957 86.3694 112.42 83.9886 113.418C81.6078 114.417 79.052 114.931 76.4703 114.931C73.8886 114.931 71.3328 114.417 68.952 113.418C66.5712 112.42 64.4131 110.957 62.6037 109.116C60.7942 107.274 59.3697 105.091 58.4132 102.693C57.4567 100.295 56.9874 97.7305 57.0327 95.1492V75.7186C56.9874 73.1373 57.4567 70.5728 58.4132 68.1749C59.3697 65.7769 60.7942 63.5935 62.6037 61.752C64.4131 59.9105 66.5712 58.4479 68.952 57.4495C71.3328 56.4511 73.8886 55.9369 76.4703 55.9369C79.052 55.9369 81.6078 56.4511 83.9886 57.4495C86.3694 58.4479 88.5275 59.9105 90.337 61.752C92.1464 63.5935 93.5709 65.7769 94.5274 68.1749C95.4839 70.5728 95.9532 73.1373 95.908 75.7186V95.1492Z" fill="#25A765"/>
<path d="M63.4664 24.4306C63.765 24.5384 64.0344 24.7141 64.2533 24.944C64.4722 25.1739 64.6346 25.4516 64.7277 25.7551C64.8207 26.0586 64.8418 26.3796 64.7894 26.6927C64.7369 27.0058 64.6123 27.3024 64.4255 27.559L64.4334 27.5819C63.5493 28.1286 62.7829 28.8458 62.1787 29.6917C61.5745 30.5376 61.1446 31.4953 60.9142 32.5089C70.9657 28.884 81.9677 28.884 92.0193 32.5089C91.7895 31.4953 91.3601 30.5375 90.7562 29.6916C90.1523 28.8457 89.386 28.1285 88.502 27.5819L88.508 27.559C88.3209 27.3023 88.1963 27.0056 88.1438 26.6924C88.0914 26.3791 88.1127 26.058 88.2059 25.7544C88.2992 25.4508 88.4619 25.1731 88.6811 24.9433C88.9004 24.7135 89.1701 24.538 89.469 24.4306V24.4306C90.2214 24.2196 90.8853 23.7706 91.3612 23.1508C91.8371 22.531 92.0996 21.7738 92.1092 20.9924C92.1188 20.211 91.875 19.4475 91.4145 18.8162C90.954 18.1849 90.3013 17.7198 89.5543 17.4904C88.8073 17.2609 88.0061 17.2796 87.2706 17.5436C86.5351 17.8076 85.9049 18.3026 85.4743 18.9547C85.0437 19.6068 84.8358 20.3808 84.8818 21.1608C84.9278 21.9409 85.2252 22.6851 85.7295 23.2821H85.7215V23.2881C85.9081 23.545 86.0324 23.8419 86.0846 24.1551C86.1368 24.4684 86.1154 24.7895 86.0222 25.0931C85.929 25.3967 85.7665 25.6745 85.5475 25.9045C85.3285 26.1345 85.0591 26.3105 84.7604 26.4185L84.7524 26.4444C83.7204 26.4075 82.6914 26.577 81.7257 26.9429C80.8257 26.3503 79.835 25.9088 78.7926 25.6359V25.6C78.4699 25.3586 78.208 25.0453 78.0275 24.685C77.8471 24.3247 77.7531 23.9273 77.7531 23.5243C77.7531 23.1214 77.8471 22.7239 78.0275 22.3636C78.208 22.0033 78.4699 21.69 78.7926 21.4487V21.4427H78.7817C79.6148 20.9066 80.2519 20.1153 80.5977 19.1869C80.9436 18.2586 80.9795 17.2433 80.7001 16.2928C80.4208 15.3424 79.8412 14.5079 79.048 13.9144C78.2549 13.3208 77.2909 13 76.3002 13C75.3096 13 74.3456 13.3208 73.5524 13.9144C72.7593 14.5079 72.1797 15.3424 71.9003 16.2928C71.621 17.2433 71.6569 18.2586 72.0028 19.1869C72.3486 20.1153 72.9857 20.9066 73.8188 21.4427C74.1415 21.684 74.4035 21.9973 74.5839 22.3576C74.7644 22.7179 74.8583 23.1154 74.8583 23.5183C74.8583 23.9213 74.7644 24.3187 74.5839 24.679C74.4035 25.0394 74.1415 25.3526 73.8188 25.594V25.6239C72.8238 25.887 71.8757 26.3031 71.0084 26.8571C70.1018 26.5444 69.1453 26.4018 68.187 26.4364L68.179 26.4105C67.88 26.303 67.6101 26.1273 67.3907 25.8974C67.1713 25.6674 67.0086 25.3895 66.9153 25.0857C66.822 24.7819 66.8008 24.4606 66.8534 24.1472C66.9059 23.8337 67.0307 23.5368 67.2179 23.28V23.2741H67.21C67.7147 22.6769 68.0125 21.9323 68.0587 21.1518C68.1049 20.3712 67.8971 19.5967 67.4663 18.9441C67.0355 18.2915 66.4049 17.7961 65.669 17.5319C64.9331 17.2676 64.1314 17.2489 63.3839 17.4784C62.6364 17.7079 61.9834 18.1733 61.5225 18.805C61.0617 19.4367 60.8178 20.2006 60.8274 20.9825C60.8371 21.7643 61.0997 22.5221 61.5759 23.1422C62.0522 23.7623 62.7165 24.2116 63.4694 24.4226L63.4664 24.4306Z" fill="#123B1E"/>
</svg>
