<svg width="360" height="217" viewBox="0 0 360 217" fill="none" xmlns="http://www.w3.org/2000/svg">
<g clip-path="url(#clip0_183_1457)">
<rect width="360" height="217" fill="white"/>
<path d="M150.123 46.4863C150.25 46.5286 150.365 46.5976 150.458 46.6878C150.551 46.7781 150.621 46.887 150.66 47.0062C150.7 47.1253 150.709 47.2513 150.686 47.3742C150.664 47.497 150.611 47.6134 150.532 47.7142L150.535 47.7232C150.159 47.9377 149.832 48.2192 149.575 48.5512C149.318 48.8832 149.135 49.2591 149.037 49.6569C153.315 48.2342 157.998 48.2342 162.276 49.6569C162.179 49.2591 161.996 48.8832 161.739 48.5512C161.482 48.2192 161.156 47.9377 160.779 47.7232L160.782 47.7142C160.702 47.6134 160.649 47.497 160.627 47.374C160.605 47.2511 160.614 47.125 160.653 47.0059C160.693 46.8867 160.762 46.7777 160.856 46.6875C160.949 46.5974 161.064 46.5285 161.191 46.4863V46.4863C161.511 46.4035 161.794 46.2273 161.996 45.984C162.199 45.7408 162.311 45.4435 162.315 45.1369C162.319 44.8302 162.215 44.5305 162.019 44.2828C161.823 44.035 161.545 43.8524 161.227 43.7624C160.909 43.6723 160.568 43.6797 160.255 43.7833C159.942 43.8869 159.674 44.0812 159.491 44.3371C159.307 44.593 159.219 44.8968 159.238 45.203C159.258 45.5092 159.385 45.8012 159.599 46.0355H159.596V46.0379C159.675 46.1387 159.728 46.2552 159.75 46.3782C159.773 46.5011 159.763 46.6272 159.724 46.7463C159.684 46.8655 159.615 46.9745 159.522 47.0648C159.429 47.1551 159.314 47.2241 159.187 47.2665L159.183 47.2767C158.744 47.2622 158.306 47.3287 157.895 47.4723C157.512 47.2398 157.09 47.0665 156.647 46.9594V46.9453C156.509 46.8505 156.398 46.7276 156.321 46.5862C156.244 46.4448 156.204 46.2888 156.204 46.1306C156.204 45.9725 156.244 45.8165 156.321 45.6751C156.398 45.5336 156.509 45.4107 156.647 45.316V45.3136H156.642C156.997 45.1032 157.268 44.7926 157.415 44.4283C157.562 44.0639 157.577 43.6654 157.459 43.2924C157.34 42.9193 157.093 42.5918 156.755 42.3589C156.418 42.1259 156.007 42 155.586 42C155.164 42 154.754 42.1259 154.416 42.3589C154.079 42.5918 153.832 42.9193 153.713 43.2924C153.594 43.6654 153.609 44.0639 153.757 44.4283C153.904 44.7926 154.175 45.1032 154.53 45.3136C154.667 45.4083 154.779 45.5313 154.855 45.6727C154.932 45.8141 154.972 45.9701 154.972 46.1283C154.972 46.2864 154.932 46.4424 154.855 46.5838C154.779 46.7252 154.667 46.8482 154.53 46.9429V46.9547C154.106 47.0579 153.703 47.2212 153.333 47.4387C152.948 47.3159 152.54 47.26 152.133 47.2736L152.129 47.2634C152.002 47.2212 151.887 47.1522 151.794 47.062C151.7 46.9717 151.631 46.8627 151.591 46.7434C151.552 46.6242 151.543 46.4981 151.565 46.3751C151.587 46.2521 151.64 46.1355 151.72 46.0347V46.0324H151.717C151.932 45.798 152.058 45.5058 152.078 45.1994C152.098 44.8931 152.009 44.5891 151.826 44.333C151.642 44.0768 151.374 43.8824 151.061 43.7787C150.748 43.675 150.406 43.6676 150.088 43.7577C149.77 43.8478 149.492 44.0304 149.296 44.2784C149.1 44.5263 148.996 44.8261 149 45.133C149.004 45.4398 149.116 45.7372 149.319 45.9806C149.521 46.224 149.804 46.4003 150.125 46.4832L150.123 46.4863Z" fill="#123B1E"/>
<path d="M194.153 60.0456C193.762 58.7917 193.545 57.5955 193.501 56.4426C193.443 55.2896 194.197 54.569 195.748 54.2807C197.676 53.9925 199.343 54.5978 200.749 56.0822C202.14 57.5667 203.184 59.3682 203.865 61.4868C205.315 66.1996 206.373 71.46 207.054 77.2681C207.736 83.0761 208.04 89.0572 207.997 95.2112C207.939 101.365 207.576 107.505 206.909 113.659C206.228 119.813 205.315 125.52 204.155 130.809C203.576 133.115 202.604 134.672 201.256 135.493C199.908 136.315 198.691 136.617 197.632 136.43C196.284 136.041 195.212 135.378 194.443 134.412C193.675 133.447 193.53 131.962 194.008 129.944C195.168 124.756 196.11 119.164 196.835 113.154C197.56 107.144 197.966 101.091 198.067 94.995C198.169 88.8986 197.922 82.8456 197.342 76.8357C196.763 70.8258 195.704 65.2339 194.153 60.0456Z" fill="#28A062"/>
<path d="M181.066 66.7757C179.645 63.4465 177.688 60.5641 175.224 58.0996C172.76 55.6351 169.875 53.6895 166.585 52.2051C163.294 50.735 159.728 50 155.887 50C151.712 50 147.871 50.6774 144.363 52.0465C140.855 53.4157 137.811 55.3469 135.231 57.8546C134.753 58.3302 134.303 58.8346 133.854 59.3391C131.926 61.5009 130.346 63.9509 129.157 66.6892C127.679 70.0761 126.939 73.7223 126.939 77.6569C126.939 81.5914 127.592 85.18 128.911 88.4515C130.23 91.7231 132.1 94.5911 134.506 97.0412C136.912 99.4912 139.768 101.408 143.058 102.763C146.349 104.132 149.973 104.809 153.916 104.809C158.192 104.809 162.12 104.103 165.686 102.676C168.962 101.379 171.832 99.5921 174.325 97.3582C174.543 97.1709 174.775 96.9835 174.992 96.7817C177.63 94.274 179.66 91.3628 181.08 88.0336C182.501 84.7044 183.225 81.1302 183.225 77.311C183.196 73.6215 182.486 70.1049 181.066 66.7757ZM155.061 100.327C142.334 100.327 131.998 90.0657 131.998 77.3974C131.998 64.7292 142.319 54.4678 155.061 54.4678C167.802 54.4678 178.123 64.7292 178.123 77.3974C178.123 90.0657 167.802 100.327 155.061 100.327Z" fill="#28A062"/>
<path d="M131.49 141.455C129.605 141.455 128.083 141.253 126.894 140.85C125.72 140.446 125.083 139.509 125.01 138.054C124.923 136.67 125.401 135.618 126.416 134.883C127.431 134.148 128.764 133.701 130.402 133.543L150.725 131.957C150.725 130.905 150.725 129.377 150.725 127.389C150.725 125.4 150.725 123.411 150.725 121.422C150.725 119.433 150.74 117.588 150.783 115.888C150.826 114.187 150.841 113.092 150.841 112.602C150.928 111.218 151.305 110.065 152.001 109.128C152.696 108.192 153.653 107.73 154.871 107.73C156.175 107.73 157.089 108.22 157.625 109.186C158.161 110.166 158.466 111.305 158.538 112.587C158.538 113.077 158.538 114.029 158.538 115.455C158.538 116.882 158.538 118.496 158.538 120.327C158.538 122.157 158.538 124.059 158.538 126.048C158.538 128.037 158.538 129.767 158.538 131.222L181.064 129.392C182.615 129.305 183.76 129.651 184.485 130.43C185.224 131.208 185.674 132.231 185.833 133.528C186.08 135.877 184.369 137.304 180.687 137.794L131.49 141.455Z" stroke="#8CCBA7" stroke-width="1.44121" stroke-miterlimit="10"/>
<path d="M155.062 55.1445C142.697 55.1445 132.666 65.1177 132.666 77.4113C132.666 89.7048 142.697 99.678 155.062 99.678C167.426 99.678 177.457 89.7048 177.457 77.4113C177.457 65.1033 167.426 55.1445 155.062 55.1445ZM167.47 89.5174C167.223 89.7624 166.962 89.993 166.701 90.2236C163.541 93.0772 159.483 94.5184 154.482 94.5184C148.857 94.5184 144.61 92.8322 141.755 89.4454C138.885 86.0585 137.565 81.7493 137.783 76.5177C137.884 74.4424 138.363 72.3958 139.189 70.3781C139.769 68.9513 140.537 67.6687 141.479 66.5301C141.871 66.0545 142.291 65.5789 142.74 65.1465C144.277 63.6765 146.132 62.5091 148.278 61.63C150.423 60.7508 152.829 60.3185 155.467 60.3185C160.758 60.4338 164.774 62.0335 167.542 65.1465C170.311 68.2596 171.789 72.0499 172.007 76.5177C172.239 81.8502 170.717 86.1882 167.47 89.5174Z" stroke="#8CCBA7" stroke-width="1.44121" stroke-miterlimit="10"/>
<path d="M198.735 68.5324C199.079 68.5324 199.358 68.255 199.358 67.9127C199.358 67.5704 199.079 67.293 198.735 67.293C198.39 67.293 198.111 67.5704 198.111 67.9127C198.111 68.255 198.39 68.5324 198.735 68.5324Z" fill="#273D40"/>
<path d="M198.737 58.272C199.025 58.272 199.259 58.0398 199.259 57.7532C199.259 57.4667 199.025 57.2344 198.737 57.2344C198.448 57.2344 198.215 57.4667 198.215 57.7532C198.215 58.0398 198.448 58.272 198.737 58.272Z" fill="#273D40"/>
<path d="M204.778 81.0885C205.066 81.0885 205.3 80.8562 205.3 80.5696C205.3 80.2831 205.066 80.0508 204.778 80.0508C204.489 80.0508 204.256 80.2831 204.256 80.5696C204.256 80.8562 204.489 81.0885 204.778 81.0885Z" fill="#273D40"/>
<path d="M201.272 88.0924C201.56 88.0924 201.794 87.8601 201.794 87.5735C201.794 87.287 201.56 87.0547 201.272 87.0547C200.984 87.0547 200.75 87.287 200.75 87.5735C200.75 87.8601 200.984 88.0924 201.272 88.0924Z" fill="#273D40"/>
<path d="M202.575 100.842C202.863 100.842 203.096 100.61 203.096 100.324C203.096 100.037 202.863 99.8047 202.575 99.8047C202.286 99.8047 202.053 100.037 202.053 100.324C202.053 100.61 202.286 100.842 202.575 100.842Z" fill="#273D40"/>
<path d="M200.748 110.186C201.037 110.186 201.27 109.954 201.27 109.667C201.27 109.381 201.037 109.148 200.748 109.148C200.46 109.148 200.227 109.381 200.227 109.667C200.227 109.954 200.46 110.186 200.748 110.186Z" fill="#273D40"/>
<path d="M203.475 120.522C203.763 120.522 203.997 120.29 203.997 120.003C203.997 119.717 203.763 119.484 203.475 119.484C203.187 119.484 202.953 119.717 202.953 120.003C202.953 120.29 203.187 120.522 203.475 120.522Z" fill="#273D40"/>
<path d="M197.922 128.487C198.21 128.487 198.444 128.255 198.444 127.968C198.444 127.682 198.21 127.449 197.922 127.449C197.634 127.449 197.4 127.682 197.4 127.968C197.4 128.255 197.634 128.487 197.922 128.487Z" fill="#273D40"/>
<path d="M70.5697 179.536C70.5697 177.888 72.2497 176.816 74.5377 176.816C76.8257 176.816 78.4897 177.888 78.4897 179.536C78.4897 181.184 76.8257 182.256 74.5377 182.256C72.2497 182.256 70.5697 181.184 70.5697 179.536ZM75.1937 186.256V183.264C77.8657 183.072 79.7377 181.648 79.7377 179.536C79.7377 177.248 77.5617 175.776 74.5377 175.776C71.4977 175.776 69.3057 177.248 69.3057 179.536C69.3057 181.648 71.1937 183.072 73.8657 183.264V186.256H68.0257V187.344H81.0657V186.256H75.1937ZM92.3925 174.832V189.216H93.7045V174.832H92.3925ZM86.1365 175.936C84.0085 175.936 82.4885 177.888 82.4885 180.944C82.4885 184 84.0085 185.952 86.1365 185.952C88.2645 185.952 89.7845 184 89.7845 180.944C89.7845 177.888 88.2645 175.936 86.1365 175.936ZM86.1365 177.12C87.5285 177.12 88.5205 178.624 88.5205 180.944C88.5205 183.28 87.5285 184.784 86.1365 184.784C84.7285 184.784 83.7365 183.28 83.7365 180.944C83.7365 178.624 84.7285 177.12 86.1365 177.12ZM107.383 179.152H98.9352V175.36H97.6232V180.224H107.383V179.152ZM98.8392 184.64H97.5272V188.832H107.463V187.76H98.8392V184.64ZM95.8632 182.144V183.2H108.871V182.144H95.8632ZM116.055 179.456C116.055 177.952 117.447 177.072 119.463 177.072C121.495 177.072 122.887 177.952 122.887 179.456C122.887 180.96 121.495 181.84 119.463 181.84C117.447 181.84 116.055 180.96 116.055 179.456ZM120.519 185.952V183.456C123.127 183.152 124.967 181.648 124.967 179.456C124.967 176.992 122.615 175.392 119.463 175.392C116.327 175.392 113.975 176.992 113.975 179.456C113.975 181.648 115.815 183.136 118.407 183.456V185.952H112.807V187.664H126.151V185.952H120.519ZM135.765 180.576C133.381 179.888 132.325 178.176 132.325 176.432V175.072H130.181V176.432C130.181 178.224 129.109 180.08 126.645 180.816L127.669 182.48C129.413 181.952 130.613 180.832 131.285 179.44C131.941 180.72 133.077 181.728 134.757 182.224L135.765 180.576ZM136.869 187.52H131.269V186.192H136.869V187.52ZM136.869 184.576H131.269V183.2H129.173V189.2H138.965V183.2H136.869V184.576ZM136.837 174.64V182.56H138.965V174.64H136.837ZM143.14 178.048H146.516V176.336H141.06V186.064H142.084C143.972 186.064 145.54 186 147.332 185.664L147.172 183.952C145.764 184.208 144.516 184.288 143.14 184.32V178.048ZM151.284 174.624V180.304H149.956V174.912H147.988V188.688H149.956V182H151.284V189.376H153.284V174.624H151.284ZM166.323 177.904H158.323V176.608H166.211V174.928H156.227V179.568H166.323V177.904ZM158.195 186.752H166.259V182.848H156.083V184.432H164.179V185.264H156.099V189.248H166.643V187.632H158.195V186.752ZM154.579 180.352V182.016H167.907V180.352H154.579ZM173.218 175.616C170.914 175.616 169.17 177.136 169.17 179.248C169.17 181.376 170.914 182.88 173.218 182.88C175.522 182.88 177.282 181.376 177.282 179.248C177.282 177.136 175.522 175.616 173.218 175.616ZM173.218 177.424C174.354 177.424 175.218 178.096 175.218 179.248C175.218 180.4 174.354 181.072 173.218 181.072C172.082 181.072 171.218 180.4 171.218 179.248C171.218 178.096 172.082 177.424 173.218 177.424ZM178.658 174.624V189.408H180.77V174.624H178.658ZM168.818 186.416C171.362 186.416 174.818 186.384 177.986 185.744L177.858 184.224C174.754 184.688 171.138 184.704 168.546 184.704L168.818 186.416ZM195.681 174.624V189.408H197.793V174.624H195.681ZM189.873 175.664C187.649 175.664 186.001 177.68 186.001 180.912C186.001 184.16 187.649 186.192 189.873 186.192C192.097 186.192 193.745 184.16 193.745 180.912C193.745 177.68 192.097 175.664 189.873 175.664ZM189.873 177.568C190.961 177.568 191.713 178.736 191.713 180.912C191.713 183.104 190.961 184.272 189.873 184.272C188.785 184.272 188.033 183.104 188.033 180.912C188.033 178.736 188.785 177.568 189.873 177.568ZM203.456 184.272C202.352 184.272 201.616 183.104 201.616 180.912C201.616 178.752 202.352 177.568 203.456 177.568C204.544 177.568 205.296 178.752 205.296 180.912C205.296 183.104 204.544 184.272 203.456 184.272ZM203.456 175.664C201.216 175.664 199.584 177.68 199.584 180.912C199.584 184.16 201.216 186.192 203.456 186.192C205.68 186.192 207.328 184.16 207.328 180.912C207.328 177.68 205.68 175.664 203.456 175.664ZM213.072 179.808V178.08H211.04V174.64H208.928V189.376H211.04V184.112H213.072V182.384H211.04V179.808H213.072ZM214.238 176.16V177.84H219.15C218.846 181.104 217.214 183.408 213.454 185.216L214.558 186.88C219.79 184.352 221.31 180.672 221.31 176.16H214.238ZM223.566 174.624V189.36H225.694V174.624H223.566ZM232.157 175.888C229.933 175.888 228.317 177.248 228.317 179.264C228.317 181.264 229.933 182.64 232.157 182.64C234.397 182.64 235.997 181.264 235.997 179.264C235.997 177.248 234.397 175.888 232.157 175.888ZM232.157 177.008C233.645 177.008 234.717 177.92 234.717 179.264C234.717 180.592 233.645 181.52 232.157 181.52C230.685 181.52 229.597 180.592 229.597 179.264C229.597 177.92 230.685 177.008 232.157 177.008ZM237.885 174.832V189.216H239.197V174.832H237.885ZM227.757 186.064C230.349 186.064 233.821 186.032 237.053 185.44L236.941 184.464C233.805 184.944 230.205 184.96 227.597 184.96L227.757 186.064ZM245.869 181.184C248.189 180.832 250.301 179.68 251.085 178.016C251.853 179.68 253.965 180.832 256.301 181.184L256.781 180.128C254.253 179.792 251.933 178.368 251.933 176.624V176.608H256.397V175.552H245.773V176.608H250.237V176.624C250.237 178.368 247.917 179.792 245.373 180.128L245.869 181.184ZM247.533 184.8H246.221V188.864H256.141V187.792H247.533V184.8ZM244.557 182.224V183.28H250.525V186.192H251.837V183.28H257.581V182.224H244.557ZM264.411 180.352H260.379V176.688H264.411V180.352ZM265.691 175.648H259.099V181.392H265.691V175.648ZM261.851 186.336H269.643V182.816H260.523V183.856H268.347V185.36H260.571V188.992H270.171V187.936H261.851V186.336ZM269.643 177.92V174.848H268.331V182.144H269.643V179.008H271.771V177.92H269.643ZM279.578 186.336V183.632H284.17V182.576H275.338V180.256H283.834V175.888H274.01V176.96H282.554V179.2H274.042V183.632H278.25V186.336H272.41V187.408H285.45V186.336H279.578ZM286.544 190.266L285.723 189.703C286.213 189.021 286.468 188.318 286.489 187.594V186.289H287.903V187.422C287.903 187.948 287.773 188.474 287.513 189C287.257 189.526 286.934 189.948 286.544 190.266ZM85.798 202.688C88.15 202.4 90.31 201.344 91.094 199.76C91.894 201.344 94.038 202.4 96.39 202.688L96.854 201.648C94.342 201.36 92.054 200.128 91.942 198.544H96.406V197.488H85.798V198.544H90.246C90.134 200.128 87.846 201.36 85.334 201.648L85.798 202.688ZM94.662 208.64C94.662 209.6 93.318 210.16 91.078 210.16C88.822 210.16 87.494 209.6 87.494 208.64C87.494 207.68 88.822 207.136 91.078 207.136C93.318 207.136 94.662 207.68 94.662 208.64ZM97.574 204.608V203.552H84.598V204.608H90.422V206.144C87.75 206.272 86.166 207.152 86.166 208.64C86.166 210.272 88.022 211.168 91.094 211.168C94.15 211.168 95.99 210.272 95.99 208.64C95.99 207.152 94.422 206.272 91.75 206.144V204.608H97.574ZM106.837 203.776C104.725 203.072 103.365 201.392 103.365 199.52V198.96H106.533V197.904H98.8368V198.96H102.053V199.52C102.053 201.584 100.613 203.44 98.4528 204.192L99.1248 205.232C100.837 204.624 102.133 203.344 102.741 201.712C103.349 203.136 104.581 204.272 106.213 204.8L106.837 203.776ZM105.093 210.128C102.949 210.128 101.669 209.536 101.669 208.512C101.669 207.504 102.949 206.912 105.093 206.912C107.205 206.912 108.501 207.504 108.501 208.512C108.501 209.536 107.205 210.128 105.093 210.128ZM105.093 205.872C102.149 205.872 100.357 206.848 100.357 208.512C100.357 210.192 102.149 211.168 105.093 211.168C108.005 211.168 109.813 210.192 109.813 208.512C109.813 206.848 108.005 205.872 105.093 205.872ZM109.653 200.464V196.848H108.341V205.504H109.653V201.568H111.781V200.464H109.653ZM122.932 207.472H124.26V196.848H122.932V198.704H118.884V199.76H122.932V201.456H118.884V202.496H122.932V207.472ZM120.564 203.728C118.42 204.112 116.548 204.224 114.58 204.24V197.872H113.268V205.344H114.356C116.468 205.344 118.404 205.232 120.708 204.816L120.564 203.728ZM116.372 209.792V206.56H115.06V210.864H124.628V209.792H116.372ZM130.723 203.904C132.403 203.488 133.683 202.528 134.291 201.264C134.915 202.432 136.163 203.296 137.811 203.696L138.339 202.672C136.307 202.208 134.915 200.976 134.915 199.536V199.504H138.083V198.464H134.915V196.864H133.603V198.464H130.451V199.504H133.619V199.536C133.619 201.072 132.227 202.384 130.163 202.864L130.723 203.904ZM138.963 204.432C135.827 204.88 132.227 204.896 129.491 204.896L129.667 206C130.867 206 132.227 205.984 133.635 205.936V210.768H134.947V205.856C136.307 205.776 137.715 205.632 139.059 205.408L138.963 204.432ZM139.987 196.848V211.2H141.299V196.848H139.987ZM144.274 198.24V207.568H150.866V198.24H144.274ZM149.586 199.296V206.528H145.554V199.296H149.586ZM153.874 196.832V211.216H155.186V196.832H153.874ZM158.208 198.384V199.44H163.6C163.328 202.848 161.408 205.6 157.552 207.44L158.256 208.512C163.024 206.176 164.928 202.528 164.928 198.384H158.208ZM167.824 196.832V211.184H169.136V196.832H167.824ZM177.231 203.92H173.167V201.296H177.231V203.92ZM178.511 197.872H177.231V200.272H173.167V197.872H171.871V204.976H178.511V197.872ZM174.799 206.368H173.487V210.864H183.055V209.792H174.799V206.368ZM182.415 201.184V196.848H181.103V207.376H182.415V202.288H184.527V201.184H182.415ZM196.623 201.024H193.055V198.288H196.623V201.024ZM191.743 201.024H189.615V202.032H200.047V201.024H197.935V198.288H200.095V197.28H189.567V198.288H191.743V201.024ZM191.247 208.688H199.679V205.536H189.919V206.512H198.383V207.744H189.967V211.024H200.111V210.032H191.247V208.688ZM188.351 203.232V204.272H201.343V203.232H188.351ZM211.214 201.648H213.134V206.608H214.398V196.848H213.134V200.592H211.214V197.104H209.966V205.36H211.214V201.648ZM209.134 203.664C207.486 204 206.062 204.08 204.206 204.096V201.968H208.302V197.968H202.91V199.024H207.038V200.976H202.942V205.152H203.886C205.95 205.152 207.454 205.072 209.278 204.704L209.134 203.664ZM210.27 205.952H208.942V206.32C208.942 208.176 206.606 209.712 204.094 210.112L204.622 211.136C206.75 210.768 208.734 209.664 209.614 208.08C210.477 209.664 212.494 210.768 214.606 211.136L215.134 210.112C212.606 209.712 210.27 208.176 210.27 206.32V205.952ZM219.084 207.52H226.316V209.936H219.084V207.52ZM217.804 210.992H227.596V206.48H217.804V210.992ZM220.892 198.352H224.46V201.36H220.892V198.352ZM223.34 204.064V202.416H227.884V201.36H225.772V198.352H227.948V197.296H217.42V198.352H219.58V201.36H217.468V202.416H222.028V204.064H216.204V205.12H229.18V204.064H223.34ZM240.587 196.848V204.544H241.899V196.848H240.587ZM232.651 205.248V210.992H241.899V205.248H240.603V207.008H233.947V205.248H232.651ZM233.947 208.032H240.603V209.936H233.947V208.032ZM234.187 197.52C232.027 197.52 230.459 198.864 230.459 200.816C230.459 202.8 232.027 204.128 234.187 204.128C236.363 204.128 237.947 202.8 237.947 200.816C237.947 198.864 236.363 197.52 234.187 197.52ZM234.187 198.608C235.643 198.608 236.667 199.52 236.667 200.816C236.667 202.128 235.643 203.04 234.187 203.04C232.763 203.04 231.739 202.128 231.739 200.816C231.739 199.52 232.763 198.608 234.187 198.608ZM246.25 198.224H244.938V207.472H246.122C248.41 207.472 250.666 207.312 253.162 206.8L253.018 205.68C250.634 206.16 248.41 206.352 246.25 206.352V198.224ZM254.49 196.832V211.168H255.802V196.832H254.49ZM259.881 199.296H265.241V198.208H258.569V207.632H259.705C262.409 207.632 264.297 207.536 266.489 207.12L266.345 206.032C264.265 206.4 262.425 206.512 259.881 206.512V199.296ZM271.369 202.496H269.001V196.832H267.689V211.216H269.001V203.584H271.369V202.496ZM272.156 209.242C272.156 208.992 272.229 208.784 272.375 208.617C272.526 208.451 272.75 208.367 273.047 208.367C273.344 208.367 273.568 208.451 273.719 208.617C273.875 208.784 273.953 208.992 273.953 209.242C273.953 209.482 273.875 209.682 273.719 209.844C273.568 210.005 273.344 210.086 273.047 210.086C272.75 210.086 272.526 210.005 272.375 209.844C272.229 209.682 272.156 209.482 272.156 209.242Z" fill="black"/>
<path d="M240.909 95.8972C240.909 93.9531 241.169 92.5392 241.688 91.6347C242.208 90.7302 243.331 89.9401 245.067 89.2435L248.706 87.892C251.617 86.7796 253.519 85.2202 254.424 83.2137C255.328 81.2072 255.599 79.0864 255.255 76.8719C255.12 75.9675 254.808 75.0734 254.32 74.1689C253.831 73.2644 253.228 72.4847 252.5 71.8297C251.773 71.1748 250.889 70.6654 249.849 70.3223C248.81 69.9792 247.666 69.8752 246.419 70.0104C244.547 70.2183 243.144 70.8941 242.208 72.0377C241.272 73.1813 240.701 74.7615 240.493 76.768C240.358 77.7348 239.994 78.5146 239.401 79.1071C238.809 79.6997 238.029 79.9596 237.062 79.8869C235.814 79.8141 234.962 79.3671 234.515 78.5353C234.068 77.7036 233.912 76.8408 234.047 75.9363C234.255 73.9298 234.744 72.1936 235.503 70.7381C236.823 68.4509 238.445 66.8187 240.389 65.8519C242.333 64.885 244.516 64.2924 246.938 64.0845C249.09 63.8766 251.097 64.0533 252.968 64.6043C254.84 65.1553 256.482 66.039 257.907 67.2554C259.331 68.4717 260.474 69.9376 261.337 71.6738C262.2 73.41 262.741 75.3853 262.949 77.5997C263.229 81.2072 262.356 84.4404 260.35 87.3202C258.343 90.2 255.744 92.2896 252.552 93.61L249.745 94.9615C249.194 95.2422 248.862 95.6165 248.758 96.1051C248.654 96.5937 248.633 97.1135 248.706 97.6645C248.841 98.9849 248.987 100.191 249.122 101.303C249.257 102.416 249.402 103.382 249.538 104.214C249.673 105.462 249.517 106.574 249.07 107.541C248.623 108.508 247.801 109.1 246.627 109.308C245.306 109.516 244.267 109.236 243.508 108.477C242.749 107.718 242.26 106.74 242.052 105.566C241.709 103.975 241.428 102.364 241.22 100.731C241.013 99.1096 240.909 97.4982 240.909 95.8972ZM248.082 126.566C246.699 126.701 245.4 126.379 244.183 125.579C242.967 124.778 242.291 123.479 242.156 121.68C242.021 120.713 242.229 119.736 242.78 118.769C243.331 117.802 243.996 117.137 244.755 116.794C245.587 116.305 246.554 116.066 247.666 116.066C248.779 116.066 249.714 116.378 250.473 117.002C251.794 117.906 252.511 118.977 252.656 120.224C252.792 121.472 252.584 122.688 252.033 123.863C251.69 124.414 251.149 124.986 250.421 125.579C249.693 126.171 248.914 126.504 248.082 126.566Z" fill="#767676"/>
</g>
<defs>
<clipPath id="clip0_183_1457">
<rect width="360" height="217" fill="white"/>
</clipPath>
</defs>
</svg>
