<svg width="360" height="338" viewBox="0 0 360 338" fill="none" xmlns="http://www.w3.org/2000/svg">
<rect width="360" height="338" fill="white"/>
<g filter="url(#filter0_d_183_482)">
<rect x="32" y="17" width="296" height="296" rx="10" fill="white"/>
</g>
<path d="M109.719 166.524C109.719 165.208 110.937 164.438 112.701 164.438C114.479 164.438 115.697 165.208 115.697 166.524C115.697 167.84 114.479 168.61 112.701 168.61C110.937 168.61 109.719 167.84 109.719 166.524ZM113.625 172.208V170.024C115.907 169.758 117.517 168.442 117.517 166.524C117.517 164.368 115.459 162.968 112.701 162.968C109.957 162.968 107.899 164.368 107.899 166.524C107.899 168.442 109.509 169.744 111.777 170.024V172.208H106.877V173.706H118.553V172.208H113.625ZM126.966 167.504C124.88 166.902 123.956 165.404 123.956 163.878V162.688H122.08V163.878C122.08 165.446 121.142 167.07 118.986 167.714L119.882 169.17C121.408 168.708 122.458 167.728 123.046 166.51C123.62 167.63 124.614 168.512 126.084 168.946L126.966 167.504ZM127.932 173.58H123.032V172.418H127.932V173.58ZM127.932 171.004H123.032V169.8H121.198V175.05H129.766V169.8H127.932V171.004ZM127.904 162.31V169.24H129.766V162.31H127.904ZM133.418 165.292H136.372V163.794H131.598V172.306H132.494C134.146 172.306 135.518 172.25 137.086 171.956L136.946 170.458C135.714 170.682 134.622 170.752 133.418 170.78V165.292ZM140.544 162.296V167.266H139.382V162.548H137.66V174.602H139.382V168.75H140.544V175.204H142.294V162.296H140.544ZM153.703 165.166H146.703V164.032H153.605V162.562H144.869V166.622H153.703V165.166ZM146.591 172.908H153.647V169.492H144.743V170.878H151.827V171.606H144.757V175.092H153.983V173.678H146.591V172.908ZM143.427 167.308V168.764H155.089V167.308H143.427ZM159.736 163.164C157.72 163.164 156.194 164.494 156.194 166.342C156.194 168.204 157.72 169.52 159.736 169.52C161.752 169.52 163.292 168.204 163.292 166.342C163.292 164.494 161.752 163.164 159.736 163.164ZM159.736 164.746C160.73 164.746 161.486 165.334 161.486 166.342C161.486 167.35 160.73 167.938 159.736 167.938C158.742 167.938 157.986 167.35 157.986 166.342C157.986 165.334 158.742 164.746 159.736 164.746ZM164.496 162.296V175.232H166.344V162.296H164.496ZM155.886 172.614C158.112 172.614 161.136 172.586 163.908 172.026L163.796 170.696C161.08 171.102 157.916 171.116 155.648 171.116L155.886 172.614ZM179.391 162.296V175.232H181.239V162.296H179.391ZM174.309 163.206C172.363 163.206 170.921 164.97 170.921 167.798C170.921 170.64 172.363 172.418 174.309 172.418C176.255 172.418 177.697 170.64 177.697 167.798C177.697 164.97 176.255 163.206 174.309 163.206ZM174.309 164.872C175.261 164.872 175.919 165.894 175.919 167.798C175.919 169.716 175.261 170.738 174.309 170.738C173.357 170.738 172.699 169.716 172.699 167.798C172.699 165.894 173.357 164.872 174.309 164.872ZM186.194 170.738C185.228 170.738 184.584 169.716 184.584 167.798C184.584 165.908 185.228 164.872 186.194 164.872C187.146 164.872 187.804 165.908 187.804 167.798C187.804 169.716 187.146 170.738 186.194 170.738ZM186.194 163.206C184.234 163.206 182.806 164.97 182.806 167.798C182.806 170.64 184.234 172.418 186.194 172.418C188.14 172.418 189.582 170.64 189.582 167.798C189.582 164.97 188.14 163.206 186.194 163.206ZM194.608 166.832V165.32H192.83V162.31H190.982V175.204H192.83V170.598H194.608V169.086H192.83V166.832H194.608ZM195.629 163.64V165.11H199.927C199.661 167.966 198.233 169.982 194.943 171.564L195.909 173.02C200.487 170.808 201.817 167.588 201.817 163.64H195.629ZM203.791 162.296V175.19H205.653V162.296H203.791ZM214.426 170.603H210.318V168.818H214.426V170.603ZM221.112 166.524C221.112 165.208 222.33 164.438 224.094 164.438C225.872 164.438 227.09 165.208 227.09 166.524C227.09 167.84 225.872 168.61 224.094 168.61C222.33 168.61 221.112 167.84 221.112 166.524ZM225.018 172.208V170.024C227.3 169.758 228.91 168.442 228.91 166.524C228.91 164.368 226.852 162.968 224.094 162.968C221.35 162.968 219.292 164.368 219.292 166.524C219.292 168.442 220.902 169.744 223.17 170.024V172.208H218.27V173.706H229.946V172.208H225.018ZM239.282 162.296V175.232H241.13V162.296H239.282ZM234.2 163.206C232.254 163.206 230.812 164.97 230.812 167.798C230.812 170.64 232.254 172.418 234.2 172.418C236.146 172.418 237.588 170.64 237.588 167.798C237.588 164.97 236.146 163.206 234.2 163.206ZM234.2 164.872C235.152 164.872 235.81 165.894 235.81 167.798C235.81 169.716 235.152 170.738 234.2 170.738C233.248 170.738 232.59 169.716 232.59 167.798C232.59 165.894 233.248 164.872 234.2 164.872Z" fill="#505050"/>
<g filter="url(#filter1_d_183_482)">
<rect x="137" y="72" width="77" height="77" rx="15" fill="white"/>
</g>
<path d="M175.501 93.5391C173.071 93.5391 170.666 93.9803 168.421 94.8377C166.176 95.695 164.137 96.9517 162.419 98.5359C160.701 100.12 159.338 102.001 158.408 104.071C157.479 106.14 157 108.359 157 110.599V118.276C157 120.516 157.479 122.734 158.408 124.804C159.338 126.874 160.701 128.755 162.419 130.339C164.137 131.923 166.176 133.18 168.421 134.037C170.666 134.894 173.071 135.336 175.501 135.336V135.336C180.407 135.335 185.113 133.538 188.582 130.338C192.051 127.139 194 122.8 194 118.276V110.598C194 106.074 192.051 101.735 188.581 98.5361C185.112 95.3371 180.407 93.5396 175.501 93.5391V93.5391ZM183.776 118.249C183.795 119.262 183.595 120.269 183.188 121.21C182.781 122.151 182.175 123.008 181.404 123.731C180.634 124.454 179.716 125.028 178.702 125.42C177.689 125.811 176.601 126.013 175.502 126.013C174.403 126.013 173.316 125.811 172.302 125.42C171.289 125.028 170.37 124.454 169.6 123.731C168.83 123.008 168.224 122.151 167.817 121.21C167.41 120.269 167.21 119.262 167.229 118.249V110.623C167.21 109.61 167.41 108.603 167.817 107.662C168.224 106.721 168.83 105.864 169.6 105.141C170.37 104.419 171.289 103.845 172.302 103.453C173.316 103.061 174.403 102.859 175.502 102.859C176.601 102.859 177.689 103.061 178.702 103.453C179.716 103.845 180.634 104.419 181.404 105.141C182.175 105.864 182.781 106.721 183.188 107.662C183.595 108.603 183.795 109.61 183.776 110.623V118.249Z" fill="#25A765"/>
<path d="M169.969 90.4863C170.096 90.5286 170.211 90.5976 170.304 90.6878C170.397 90.7781 170.466 90.887 170.506 91.0062C170.545 91.1253 170.554 91.2513 170.532 91.3742C170.51 91.497 170.457 91.6134 170.377 91.7142L170.381 91.7232C170.004 91.9377 169.678 92.2192 169.421 92.5512C169.164 92.8832 168.981 93.2591 168.883 93.6569C173.161 92.2342 177.844 92.2342 182.122 93.6569C182.024 93.2591 181.841 92.8832 181.584 92.5512C181.327 92.2192 181.001 91.9377 180.625 91.7232L180.628 91.7142C180.548 91.6134 180.495 91.497 180.473 91.374C180.45 91.2511 180.459 91.125 180.499 91.0059C180.539 90.8867 180.608 90.7777 180.701 90.6875C180.795 90.5974 180.909 90.5285 181.037 90.4863V90.4863C181.357 90.4035 181.639 90.2273 181.842 89.984C182.045 89.7408 182.156 89.4435 182.16 89.1369C182.164 88.8302 182.061 88.5305 181.865 88.2828C181.669 88.035 181.391 87.8524 181.073 87.7624C180.755 87.6723 180.414 87.6797 180.101 87.7833C179.788 87.8869 179.52 88.0812 179.336 88.3371C179.153 88.593 179.065 88.8968 179.084 89.203C179.104 89.5092 179.23 89.8012 179.445 90.0355H179.442V90.0379C179.521 90.1387 179.574 90.2552 179.596 90.3782C179.618 90.5011 179.609 90.6272 179.57 90.7463C179.53 90.8655 179.461 90.9745 179.367 91.0648C179.274 91.1551 179.16 91.2241 179.032 91.2665L179.029 91.2767C178.59 91.2622 178.152 91.3287 177.741 91.4723C177.358 91.2398 176.936 91.0665 176.492 90.9594V90.9453C176.355 90.8505 176.244 90.7276 176.167 90.5862C176.09 90.4448 176.05 90.2888 176.05 90.1306C176.05 89.9725 176.09 89.8165 176.167 89.6751C176.244 89.5336 176.355 89.4107 176.492 89.316V89.3136H176.488C176.842 89.1032 177.113 88.7926 177.261 88.4283C177.408 88.0639 177.423 87.6654 177.304 87.2924C177.185 86.9193 176.939 86.5918 176.601 86.3589C176.264 86.1259 175.853 86 175.432 86C175.01 86 174.6 86.1259 174.262 86.3589C173.924 86.5918 173.678 86.9193 173.559 87.2924C173.44 87.6654 173.455 88.0639 173.602 88.4283C173.75 88.7926 174.021 89.1032 174.375 89.3136C174.513 89.4083 174.624 89.5313 174.701 89.6727C174.778 89.8141 174.818 89.9701 174.818 90.1283C174.818 90.2864 174.778 90.4424 174.701 90.5838C174.624 90.7252 174.513 90.8482 174.375 90.9429V90.9547C173.952 91.0579 173.548 91.2212 173.179 91.4387C172.793 91.3159 172.386 91.26 171.978 91.2736L171.975 91.2634C171.848 91.2212 171.733 91.1522 171.639 91.062C171.546 90.9717 171.477 90.8627 171.437 90.7434C171.397 90.6242 171.388 90.4981 171.411 90.3751C171.433 90.2521 171.486 90.1355 171.566 90.0347V90.0324H171.562C171.777 89.798 171.904 89.5058 171.924 89.1994C171.943 88.8931 171.855 88.5891 171.672 88.333C171.488 88.0768 171.22 87.8824 170.907 87.7787C170.593 87.675 170.252 87.6676 169.934 87.7577C169.616 87.8478 169.338 88.0304 169.142 88.2784C168.946 88.5263 168.842 88.8261 168.846 89.133C168.85 89.4398 168.962 89.7372 169.164 89.9806C169.367 90.224 169.65 90.4003 169.97 90.4832L169.969 90.4863Z" fill="#123B1E"/>
<path d="M132.494 186.301L133.785 190.273H137.698L134.583 192.729L135.875 196.701L132.495 194.246L129.114 196.701L130.405 192.728L127.299 190.272H131.203L132.494 186.301Z" fill="#111111"/>
<path d="M162.494 186.301L163.785 190.273H167.698L164.583 192.729L165.875 196.701L162.495 194.246L159.114 196.701L160.405 192.728L157.299 190.272H161.203L162.494 186.301Z" fill="#111111"/>
<path d="M147.494 186.301L148.785 190.273H152.698L149.583 192.729L150.875 196.701L147.495 194.246L144.114 196.701L145.405 192.728L142.299 190.272H146.203L147.494 186.301Z" fill="#111111"/>
<path d="M177.494 186.301L178.785 190.273H182.698L179.583 192.729L180.875 196.701L177.495 194.246L174.114 196.701L175.405 192.728L172.299 190.272H176.203L177.494 186.301Z" fill="#111111"/>
<path d="M192.494 186.301L193.785 190.273H197.698L194.583 192.729L195.875 196.701L192.495 194.246L189.114 196.701L190.405 192.728L187.299 190.272H191.203L192.494 186.301Z" fill="#111111"/>
<path d="M208.285 193.135H209.469V194.02H208.285V196H207.195V194.02H203.311V193.381L207.131 187.469H208.285V193.135ZM204.541 193.135H207.195V188.951L207.066 189.186L204.541 193.135ZM210.582 195.432C210.582 195.244 210.637 195.088 210.746 194.963C210.859 194.838 211.027 194.775 211.25 194.775C211.473 194.775 211.641 194.838 211.754 194.963C211.871 195.088 211.93 195.244 211.93 195.432C211.93 195.611 211.871 195.762 211.754 195.883C211.641 196.004 211.473 196.064 211.25 196.064C211.027 196.064 210.859 196.004 210.746 195.883C210.637 195.762 210.582 195.611 210.582 195.432ZM217.865 187.463V188.383H217.666C216.822 188.398 216.15 188.648 215.65 189.133C215.15 189.617 214.861 190.299 214.783 191.178C215.232 190.662 215.846 190.404 216.623 190.404C217.365 190.404 217.957 190.666 218.398 191.189C218.844 191.713 219.066 192.389 219.066 193.217C219.066 194.096 218.826 194.799 218.346 195.326C217.869 195.854 217.229 196.117 216.424 196.117C215.607 196.117 214.945 195.805 214.438 195.18C213.93 194.551 213.676 193.742 213.676 192.754V192.338C213.676 190.768 214.01 189.568 214.678 188.74C215.35 187.908 216.348 187.482 217.672 187.463H217.865ZM216.441 191.307C216.07 191.307 215.729 191.418 215.416 191.641C215.104 191.863 214.887 192.143 214.766 192.479V192.877C214.766 193.58 214.924 194.146 215.24 194.576C215.557 195.006 215.951 195.221 216.424 195.221C216.912 195.221 217.295 195.041 217.572 194.682C217.854 194.322 217.994 193.852 217.994 193.27C217.994 192.684 217.852 192.211 217.566 191.852C217.285 191.488 216.91 191.307 216.441 191.307Z" fill="#111111"/>
<rect x="118.5" y="223.5" width="114" height="55" rx="4.5" stroke="#E5E5EC"/>
<path d="M212.999 248.965L208.883 253.197L204.999 248.965H212.999Z" fill="black"/>
<path d="M208.883 250.13V243.598" stroke="black" stroke-width="2" stroke-miterlimit="10"/>
<path d="M203.399 252.398V255.598H214.599V252.398" stroke="black" stroke-width="2" stroke-miterlimit="10"/>
<path d="M136.831 246.296H142.191V245.208H135.519V254.632H136.655C139.359 254.632 141.247 254.536 143.439 254.12L143.295 253.032C141.215 253.4 139.375 253.512 136.831 253.512V246.296ZM148.319 249.496H145.951V243.832H144.639V258.216H145.951V250.584H148.319V249.496ZM156.109 245.256C158.317 245.256 159.757 245.944 159.757 247.08C159.757 248.2 158.317 248.888 156.109 248.888C153.917 248.888 152.461 248.2 152.461 247.08C152.461 245.944 153.917 245.256 156.109 245.256ZM156.109 249.96C159.149 249.96 161.133 248.856 161.133 247.08C161.133 245.304 159.149 244.2 156.109 244.2C153.069 244.2 151.085 245.304 151.085 247.08C151.085 248.856 153.069 249.96 156.109 249.96ZM152.589 253.672H151.277V257.864H161.197V256.776H152.589V253.672ZM149.613 251.112V252.184H155.565V255.08H156.893V252.184H162.621V251.112H149.613ZM171.5 255.336V252.632H176.092V251.576H167.26V249.256H175.756V244.888H165.932V245.96H174.476V248.2H165.964V252.632H170.172V255.336H164.332V256.408H177.372V255.336H171.5ZM190.571 250.712H182.011V246.232H190.427V245.144H180.715V251.784H190.571V250.712ZM179.051 255.16V256.248H192.075V255.16H179.051Z" fill="black"/>
<defs>
<filter id="filter0_d_183_482" x="16" y="1" width="336" height="336" filterUnits="userSpaceOnUse" color-interpolation-filters="sRGB">
<feFlood flood-opacity="0" result="BackgroundImageFix"/>
<feColorMatrix in="SourceAlpha" type="matrix" values="0 0 0 0 0 0 0 0 0 0 0 0 0 0 0 0 0 0 127 0" result="hardAlpha"/>
<feOffset dx="4" dy="4"/>
<feGaussianBlur stdDeviation="10"/>
<feComposite in2="hardAlpha" operator="out"/>
<feColorMatrix type="matrix" values="0 0 0 0 0 0 0 0 0 0 0 0 0 0 0 0 0 0 0.1 0"/>
<feBlend mode="normal" in2="BackgroundImageFix" result="effect1_dropShadow_183_482"/>
<feBlend mode="normal" in="SourceGraphic" in2="effect1_dropShadow_183_482" result="shape"/>
</filter>
<filter id="filter1_d_183_482" x="129" y="66" width="93" height="93" filterUnits="userSpaceOnUse" color-interpolation-filters="sRGB">
<feFlood flood-opacity="0" result="BackgroundImageFix"/>
<feColorMatrix in="SourceAlpha" type="matrix" values="0 0 0 0 0 0 0 0 0 0 0 0 0 0 0 0 0 0 127 0" result="hardAlpha"/>
<feOffset dy="2"/>
<feGaussianBlur stdDeviation="4"/>
<feComposite in2="hardAlpha" operator="out"/>
<feColorMatrix type="matrix" values="0 0 0 0 0 0 0 0 0 0 0 0 0 0 0 0 0 0 0.15 0"/>
<feBlend mode="normal" in2="BackgroundImageFix" result="effect1_dropShadow_183_482"/>
<feBlend mode="normal" in="SourceGraphic" in2="effect1_dropShadow_183_482" result="shape"/>
</filter>
</defs>
</svg>
