<svg width="360" height="360" viewBox="0 0 360 360" fill="none" xmlns="http://www.w3.org/2000/svg">
<g clip-path="url(#clip0_181_8503)">
<rect width="360" height="360" fill="#25A765"/>
<g opacity="0.4">
<path opacity="0.4" d="M292.203 143.25C291.758 143.566 302.804 161.678 302.804 161.678L284.396 150.635L292.203 143.25Z" fill="#25A765"/>
<path opacity="0.4" d="M88.7812 148.376V170.215L97.7772 147.951L88.7812 148.376Z" fill="#25A765"/>
<path opacity="0.4" d="M143.472 16.4083L136.219 2.29102L135.09 20.5901L143.472 16.4083Z" fill="#25A765"/>
<path opacity="0.4" d="M67.1949 79.8599C67.1949 79.8599 40.3359 90.4874 40.3359 123.101C40.3359 157.703 77.3897 163.98 92.2111 151.959C92.2111 151.959 126.025 168.142 142.927 145.948C142.927 145.948 151.031 154.272 180.674 152.868C210.317 151.465 219.125 143.457 219.125 143.457C219.125 143.457 223.752 160.718 250.621 164.415C277.49 168.113 289.953 148.261 289.953 148.261C289.953 148.261 310.333 143.645 314.959 119.592C319.586 95.5392 301.089 75.6781 274.2 66.4346C274.374 59.4637 273.013 52.5396 270.212 46.151C267.412 39.7624 263.24 34.065 257.992 29.4609C239.921 13.2873 218.154 19.298 210.278 22.9954C210.278 22.9954 206.315 12.358 179.812 8.66061C153.31 4.96323 139.876 18.3687 139.876 18.3687C139.876 18.3687 109.242 9.5207 82.9081 36.391C62.5682 57.211 67.1949 79.8599 67.1949 79.8599Z" fill="#25A765"/>
<path opacity="0.4" d="M155.666 27.1748C158.429 22.4285 162.419 18.5098 167.219 15.8282C172.019 13.1465 177.452 11.8004 182.951 11.9305C202.499 11.9305 210.365 29.9527 210.365 29.9527C210.365 29.9527 229.358 16.1123 250.203 29.9527C271.048 43.7932 265.946 66.9265 265.946 66.9265C265.946 66.9265 294.677 72.4726 303.465 96.5056C312.253 120.539 299.76 141.803 286.335 146.42C286.335 146.42 283.086 162.139 257.604 161.674C232.122 161.21 226.802 135.832 226.802 135.832C226.802 135.832 219.163 136.257 214.992 133.015C211.1 138.463 205.957 142.901 199.993 145.958C194.029 149.014 187.417 150.6 180.712 150.582C157.559 150.582 147.83 133.944 147.83 133.944C147.83 133.944 139.448 145.58 119.544 135.832C119.544 135.832 108.893 157.196 84.8085 143.484C84.8085 143.484 74.1581 153.953 60.7236 143.484C47.2892 133.015 36.1731 92.3436 74.594 83.1001C74.594 83.1001 71.919 66.0071 88.7715 42.4289C105.624 18.8507 138.527 15.1632 155.666 27.1748Z" fill="#25A765"/>
<path opacity="0.4" d="M155.666 27.1748C158.429 22.4285 162.419 18.5098 167.219 15.8282C172.019 13.1465 177.452 11.8004 182.951 11.9305C202.499 11.9305 210.365 29.9527 210.365 29.9527C210.365 29.9527 229.358 16.1123 250.203 29.9527C271.048 43.7932 265.946 66.9265 265.946 66.9265C265.946 66.9265 294.677 72.4726 303.465 96.5056C312.253 120.539 299.76 141.803 286.335 146.42C286.335 146.42 283.086 162.139 257.604 161.674C232.122 161.21 226.802 135.832 226.802 135.832C226.802 135.832 219.163 136.257 214.992 133.015C211.1 138.463 205.957 142.901 199.993 145.958C194.029 149.014 187.417 150.6 180.712 150.582C157.559 150.582 147.83 133.944 147.83 133.944C147.83 133.944 139.448 145.58 119.544 135.832C119.544 135.832 108.893 157.196 84.8085 143.484C84.8085 143.484 74.1581 153.953 60.7236 143.484C47.2892 133.015 36.1731 92.3436 74.594 83.1001C74.594 83.1001 71.919 66.0071 88.7715 42.4289C105.624 18.8507 138.527 15.1632 155.666 27.1748Z" fill="white"/>
<path opacity="0.4" d="M135.742 42.424C135.742 42.424 137.139 32.7159 159.371 29.9478C181.603 27.1797 194.572 36.1859 194.572 36.1859C194.572 36.1859 186.111 20.9911 168.169 22.5531C168.169 22.5531 174.896 12.7263 190.401 17.9264C205.906 23.1264 205.262 42.424 205.262 42.424C202.095 41.8509 198.842 41.9677 195.724 42.7662C192.607 43.5648 189.699 45.0263 187.201 47.0507C187.201 47.0507 207.115 41.9593 224.72 51.6674C242.326 61.3755 238.918 86.4663 238.918 86.4663C238.918 86.4663 246.952 86.7926 248.825 96.9653C250.697 107.138 235.39 118.22 226.821 107.128C226.821 107.128 223.848 120.969 196.484 117.766C169.12 114.562 165.91 90.4899 165.91 90.4899C165.91 90.4899 161.739 98.814 168.694 108.057C168.694 108.057 148.314 121.463 132.561 109.906C132.561 109.906 146.917 103.441 145.065 86.8024C145.065 86.8024 141.359 112.219 112.648 106.209C83.9359 100.198 87.1756 72.3589 99.2131 67.3269C111.251 62.2949 120.524 67.3269 120.524 67.3269C120.524 67.3269 120.058 63.2242 108.477 59.9915C108.417 59.9915 110.27 40.1107 135.742 42.424Z" fill="white"/>
<path opacity="0.4" d="M84.5622 94.7261C84.5622 94.7261 66.7289 89.1801 62.7659 115.487C58.8029 141.794 99.1261 143.168 102.831 127.963C102.831 127.963 91.2299 128.784 90.3085 118.205C90.3085 118.205 109.004 129.812 116.573 113.638C116.573 113.678 88.0397 112.284 84.5622 94.7261Z" fill="white"/>
<path opacity="0.4" d="M151.031 122.631C151.031 122.631 151.814 137.954 175.116 142.334C198.418 146.713 210.317 124.816 210.317 124.816C210.317 124.816 182.705 128.464 174.383 116.067C174.383 116.027 157.521 125.567 151.031 122.631Z" fill="white"/>
<path opacity="0.4" d="M120.76 109.649C120.76 109.649 140.218 112.615 143.458 99.8324C147.777 99.4072 152.137 99.8608 156.275 101.166C160.413 102.471 164.243 104.6 167.533 107.425C179.114 117.093 173.239 138.724 148.936 139.742C124.634 140.761 124.495 119.693 124.495 119.693C124.495 119.693 133.798 119.693 134.65 114.029C134.66 114.029 123.306 120.771 120.76 109.649Z" fill="white"/>
<path opacity="0.4" d="M214.488 41.1147C214.488 41.1147 240.456 48.9049 243.22 64.2184H258.963C258.963 64.2184 258.963 43.2698 243.22 35.9542C227.477 28.6385 214.488 41.1147 214.488 41.1147Z" fill="white"/>
<path opacity="0.4" d="M105.18 58.6701C105.18 58.6701 103.327 47.1133 114.444 38.7992C114.444 38.7992 106.101 36.9505 97.3037 44.3452C88.5059 51.74 94.5296 64.2162 94.5296 64.2162C95.8332 62.6172 97.4502 61.3006 99.2816 60.3469C101.113 59.3933 103.12 58.8227 105.18 58.6701V58.6701Z" fill="white"/>
<path opacity="0.4" d="M258.954 90.871C258.954 90.871 259.885 98.8886 258.954 102.586C258.954 102.586 279.333 105.255 283.97 118.245C283.97 118.245 297.365 114.242 289.993 94.2421C284.435 79.156 258.567 85.1865 258.954 90.871Z" fill="white"/>
<path opacity="0.4" d="M136.212 29.0161L105.182 -9.3418L120.697 35.9561C120.697 35.9561 127.78 32.5256 132.506 35.9561C132.506 35.9561 131.119 29.9058 136.212 29.0161Z" fill="#25A765"/>
<path opacity="0.4" d="M133.527 30.4495C131.714 32.5157 132.536 35.9462 132.536 35.9462C129.811 33.969 126.314 34.2754 123.847 34.8884C122.773 35.1425 121.725 35.4967 120.716 35.9462L105.182 -9.3418L136.212 29.0259C135.176 29.1686 134.225 29.673 133.527 30.4495V30.4495Z" fill="white"/>
<path opacity="0.4" d="M245.518 73.0072L294.154 60.5508L253.395 86.4621C251.049 84.4507 248.366 82.8678 245.469 81.786C245.469 81.786 246.915 76.7046 245.518 73.0072Z" fill="#25A765"/>
<path opacity="0.4" d="M245.518 73.0072L294.154 60.5508L253.395 86.4621C251.049 84.4507 248.366 82.8678 245.469 81.786C245.469 81.786 246.915 76.7046 245.518 73.0072Z" fill="white"/>
<path opacity="0.4" d="M84.5632 75.3136L48.2129 71.8535L73.7047 90.8743C73.7047 90.8743 81.1154 88.7488 84.6028 89.1936C84.5632 89.2233 83.4139 80.8597 84.5632 75.3136Z" fill="#25A765"/>
<path opacity="0.4" d="M84.5632 75.3136L48.2129 71.8535L73.7047 90.8743C73.7047 90.8743 81.1154 88.7488 84.6028 89.1936C84.5632 89.2233 83.4139 80.8597 84.5632 75.3136Z" fill="white"/>
<path opacity="0.4" d="M180.675 53.7497C180.675 53.7497 164.466 57.7041 166.626 76.2405C166.626 76.2405 154.896 72.6024 151.032 73.4922C151.032 73.4922 150.566 66.0677 143.473 64.2191C143.473 64.2191 150.259 57.4471 156.749 62.3704C156.749 62.3704 156.124 59.6023 150.259 57.4273C150.259 57.4273 159.582 47.0964 167.865 51.387C166.863 51.9548 166.041 52.793 165.494 53.8054C164.948 54.8178 164.698 55.9635 164.774 57.111C164.774 57.111 171.877 47.5808 180.675 53.7497Z" fill="white"/>
<path opacity="0.4" d="M174.036 119.996C174.036 119.996 179.465 128.894 188.174 128.31C188.174 128.31 171.718 136.476 165.387 129.467C166.875 129.974 168.46 130.133 170.02 129.933C171.579 129.732 173.072 129.177 174.383 128.31C174.383 128.31 169.092 130.772 165.387 124.919C165.387 124.919 171.569 124.306 174.036 119.996Z" fill="white"/>
<path opacity="0.4" d="M257.1 119.996C257.1 119.996 254.94 127.846 248.916 129.467C248.916 129.467 256.792 133.233 260.805 128.31C260.805 128.31 258.952 134.865 252.473 135.438C252.473 135.438 258.645 143.594 266.056 137.801C273.467 132.008 267.294 120.006 267.294 120.006C267.294 120.006 262.965 127.697 257.724 126.155C258.065 125.143 258.186 124.07 258.079 123.008C257.971 121.946 257.637 120.919 257.1 119.996V119.996Z" fill="white"/>
<path opacity="0.4" d="M74.6074 108.238C74.6074 108.238 72.5268 124.461 86.1892 126.142C86.1892 126.142 79.9376 133.062 71.328 124.303C62.7185 115.544 74.6074 108.238 74.6074 108.238Z" fill="white"/>
<path opacity="0.4" d="M110.498 129.646C110.498 129.646 123.536 141.055 133.662 131.91C133.662 131.91 130.808 142.548 120.693 141.223C110.577 139.898 110.498 129.646 110.498 129.646Z" fill="#25A765"/>
<path opacity="0.4" d="M230.122 86.9577C227.412 87.7608 225.099 89.5424 223.634 91.955C222.168 94.3676 221.656 97.2382 222.197 100.007C221.86 100.106 221.513 100.195 221.156 100.274C218.951 100.715 216.664 100.493 214.585 99.6375C212.506 98.7817 210.728 97.3299 209.475 95.4657C208.223 93.6016 207.553 91.4088 207.549 89.1646C207.545 86.9203 208.208 84.7253 209.455 82.8571C210.701 80.9889 212.474 79.5314 214.551 78.6687C216.627 77.8061 218.913 77.5771 221.12 78.0107C223.327 78.4443 225.355 79.521 226.949 81.1047C228.542 82.6884 229.629 84.7081 230.073 86.9083L230.122 86.9577Z" fill="white"/>
<path opacity="0.4" d="M239.245 104.117C242.665 100.704 242.665 95.1708 239.245 91.7579C235.825 88.345 230.279 88.345 226.859 91.7579C223.439 95.1708 223.439 100.704 226.859 104.117C230.279 107.53 235.825 107.53 239.245 104.117Z" fill="white"/>
<path opacity="0.4" d="M114.444 71.8524C125.57 71.0912 135.745 78.8715 136.24 86.8001C136.736 94.7287 123.43 99.0391 114.444 95.6481C105.458 92.2572 106.102 84.6351 111.977 81.3628C108.956 81.6996 106.05 82.7135 103.476 84.3286C103.476 84.3286 102.089 72.7026 114.444 71.8524Z" fill="white"/>
<path opacity="0.4" d="M194.723 54.3647C194.723 54.3647 210.168 54.9776 214.488 65.7633C214.488 65.7633 210.287 62.9952 207.602 65.7633C207.602 65.7633 220.046 67.612 222.513 76.2425C222.513 76.2425 231.004 76.5885 233.054 83.0243C233.054 83.0243 236.136 61.6408 224.306 54.3548C212.477 47.0688 194.723 54.3647 194.723 54.3647Z" fill="white"/>
<path opacity="0.4" d="M133.526 30.453C131.713 32.5191 132.535 35.9496 132.535 35.9496C129.811 33.9724 126.313 34.2788 123.846 34.8918L116.574 13.3105L127.076 29.1282L124.302 18.9654L133.496 30.4727L133.526 30.453Z" fill="white"/>
<path opacity="0.4" d="M205.742 22.9195L214.49 8.04102V24.6298L205.742 22.9195Z" fill="#25A765"/>
</g>
<g opacity="0.4">
<path d="M305.349 233.992C290.369 225.576 273.172 244.736 279.25 258.258C279.25 258.258 265.392 255.939 267.078 267.784C268.763 279.629 277.72 279.798 277.72 279.798C277.72 279.798 272.926 295.114 256.67 300.672C256.67 300.672 285.548 300.83 294.923 283.249C294.923 283.249 303.865 286.938 311.143 275.302C318.422 263.666 312.96 254.044 312.96 254.044C312.96 254.044 318.968 241.632 305.349 233.992Z" fill="#25A765"/>
<path opacity="0.5" d="M305.32 233.902C290.34 225.492 273.15 244.666 279.241 258.188C279.241 258.188 265.377 255.875 267.075 267.72C268.773 279.565 277.73 279.728 277.73 279.728C277.73 279.728 272.95 295.044 256.694 300.621C256.694 300.621 285.572 300.747 294.933 283.159C294.933 283.159 303.875 286.848 311.154 275.199C318.432 263.55 312.951 253.941 312.951 253.941C312.951 253.941 318.946 241.535 305.32 233.902Z" fill="white"/>
<path opacity="0.3" d="M303.736 256.194C301.551 255.989 299.352 256.411 297.398 257.41C295.443 258.408 293.812 259.942 292.697 261.832C288.443 268.526 287.719 277.311 298.126 278.904C308.534 280.497 315.585 263.963 310.461 254.675C310.461 254.675 316.121 245.918 305.964 237.869C295.807 229.82 285.971 238.108 284.131 246.588C282.292 255.068 290.788 259.238 290.788 259.238C290.788 259.238 290.286 256.135 295.202 254.87C295.202 254.87 291.939 243.998 299.017 243.905C299.017 243.905 294.661 247.059 298.014 253.818C300.097 254.092 302.071 254.912 303.736 256.194Z" fill="white"/>
<path opacity="0.3" d="M281.579 261.524C281.579 261.524 282.484 263.487 286.586 264.667C286.586 264.667 283.343 273.141 287.674 277.077L281.503 278.853C281.503 278.853 286.517 272.933 281.538 270.972C281.538 270.972 283.051 278.703 275.758 275.726C268.465 272.75 271.922 258.524 281.579 261.524Z" fill="white"/>
</g>
<g opacity="0.4">
<path d="M103.37 302.518C103.37 302.518 89.2926 296.642 87.2229 284.654C87.2229 284.654 99.119 280.945 96.7881 265.452C94.4572 249.958 83.0768 245.538 83.0768 245.538C83.0768 245.538 84.2717 232.597 69.5549 233.354C54.8382 234.112 47.5973 244.362 47.9629 252.837C47.9629 252.837 42.9877 259.366 43.7516 267.92C44.5155 276.473 56.9144 291.47 67.5962 288.963C67.5962 288.963 74.4975 298.515 88.2675 303.164C88.2675 303.164 78.6958 296.981 75.3855 288.963C75.3855 288.963 76.4954 289.407 79.6229 288.963C79.6229 288.963 89.7627 300.931 103.37 302.518Z" fill="#25A765"/>
<path opacity="0.5" d="M103.395 302.566C103.395 302.566 89.3117 296.69 87.2354 284.722C87.2354 284.722 99.125 281.001 96.781 265.507C94.4371 250.013 83.0698 245.606 83.0698 245.606C83.0698 245.606 84.2581 232.665 69.5413 233.429C54.8246 234.193 47.5968 244.457 47.9493 252.938C47.9493 252.938 42.9806 259.467 43.7511 268.021C44.5215 276.574 56.9335 291.526 67.6087 289.045C67.6087 289.045 74.5231 298.59 88.2931 303.226C88.2931 303.226 78.7148 297.056 75.398 289.038C75.398 289.038 76.5079 289.482 79.6354 289.038C79.6354 289.051 89.7883 300.993 103.395 302.566Z" fill="white"/>
<path opacity="0.3" d="M66.3034 252.831C66.3034 252.831 73.0872 247.399 80.7655 248.261C88.4438 249.123 96.1091 262.579 94.2482 271.485C92.3874 280.391 82.1366 286.881 75.3855 283.818C68.6343 280.756 67.0804 274.26 68.6278 271.544C70.1752 268.828 76.3779 271.544 76.3779 271.544C76.3779 271.544 69.9205 265.21 66.3034 271.544C66.3034 271.511 57.5216 261.92 66.3034 252.831Z" fill="white"/>
<path opacity="0.3" d="M61.3938 255.435C61.3938 255.435 54.6818 251.622 49.256 255.435C43.8303 259.248 46.9447 276.557 55.4718 282.518C63.9989 288.48 71.9841 284.595 71.9841 284.595C71.9841 284.595 62.6866 275.558 60.656 268.311C58.6254 261.064 61.7659 248.103 77.4817 245.537C77.4817 245.537 80.028 240.19 70.9525 237.193C61.8769 234.196 52.0962 242.011 52.3574 250.251C52.3574 250.251 56.1704 241.11 62.3993 242.044C62.3993 242.044 55.7395 244.604 55.4718 250.251C55.4718 250.245 61.4787 253.457 61.3938 255.435Z" fill="white"/>
</g>
<path d="M101.713 68.1188C102.273 65.4519 102.273 63.2917 102.273 61.6648V60.0647H89.6848V62.8649H98.8057C98.779 64.2251 98.6724 65.8252 98.299 67.8521L101.713 68.1188ZM103.339 69.2389C101.046 69.5056 98.5924 69.6656 96.1655 69.7723V65.5585H92.7251V69.8523C91.1517 69.8789 89.6315 69.8789 88.2447 69.8789L88.5914 72.6792C92.9652 72.6792 98.5124 72.5725 103.553 71.7458L103.339 69.2389ZM99.9258 80.52C96.7255 80.52 94.992 79.9332 94.992 78.6264C94.992 77.3197 96.7255 76.7063 99.9258 76.7063C103.073 76.7063 104.806 77.3197 104.806 78.6264C104.806 79.9332 103.073 80.52 99.9258 80.52ZM99.9258 73.986C94.672 73.986 91.3917 75.7195 91.3917 78.6264C91.3917 81.5334 94.672 83.2669 99.9258 83.2669C105.126 83.2669 108.407 81.5334 108.407 78.6264C108.407 75.7195 105.126 73.986 99.9258 73.986ZM108.193 64.7585V58.7312H104.673V73.7193H108.193V67.6654H111.154V64.7585H108.193ZM114.138 70.8924C118.432 70.3057 121.446 68.4655 122.913 65.9586C124.379 68.4655 127.393 70.3057 131.687 70.8924L132.94 68.1454C127.953 67.5321 125.366 65.1318 125.019 62.7849H131.98V59.9847H113.765V62.7849H120.832C120.486 65.1318 117.872 67.5321 112.858 68.1454L114.138 70.8924ZM134.007 72.3058H111.818V75.1061H121.072V83.3469H124.593V75.1061H134.007V72.3058ZM149.34 60.6247H145.793V64.1984C145.793 68.7588 143.926 73.4526 139.793 75.3995L141.9 78.2531C144.673 76.8929 146.513 74.306 147.58 71.1857C148.594 74.1193 150.327 76.4929 152.887 77.7997L155.021 75.0261C151.074 73.0792 149.34 68.6255 149.34 64.1984V60.6247ZM163.102 68.1721H159.528V58.7312H156.008V83.2936H159.528V71.1057H163.102V68.1721ZM183.288 65.3719H169.767V59.6113H166.246V68.1721H183.288V65.3719ZM169.553 75.4528H166.006V82.7602H183.421V79.9599H169.553V75.4528ZM163.5 70.679V73.506H185.742V70.679H163.5ZM192.71 71.6762L193.804 62.0399H204.43V65.1782H196.89L196.421 69.2541C197.315 68.7766 198.266 68.5379 199.273 68.5379C201.079 68.5379 202.494 69.0978 203.518 70.2177C204.543 71.3376 205.055 72.9046 205.055 74.9187C205.055 76.1428 204.794 77.241 204.273 78.2133C203.761 79.1769 203.023 79.9278 202.06 80.4661C201.096 80.9957 199.959 81.2604 198.648 81.2604C197.502 81.2604 196.438 81.0304 195.457 80.5703C194.476 80.1015 193.699 79.446 193.127 78.6039C192.562 77.7618 192.263 76.8026 192.228 75.7261H195.952C196.03 76.5161 196.304 77.1324 196.773 77.5752C197.25 78.0093 197.871 78.2263 198.635 78.2263C199.486 78.2263 200.141 77.9225 200.601 77.3148C201.061 76.6984 201.291 75.8302 201.291 74.7103C201.291 73.6339 201.027 72.8091 200.497 72.2361C199.967 71.6632 199.217 71.3767 198.244 71.3767C197.35 71.3767 196.625 71.6111 196.07 72.0799L195.705 72.4185L192.71 71.6762ZM218.892 73.1607C218.892 75.7825 218.349 77.7879 217.264 79.1769C216.179 80.5659 214.59 81.2604 212.498 81.2604C210.432 81.2604 208.852 80.579 207.758 79.216C206.664 77.853 206.104 75.8997 206.078 73.356V69.8661C206.078 67.2183 206.625 65.2086 207.719 63.8369C208.822 62.4653 210.406 61.7794 212.472 61.7794C214.538 61.7794 216.118 62.4609 217.212 63.8239C218.306 65.1782 218.866 67.1272 218.892 69.6708V73.1607ZM215.129 69.3322C215.129 67.7609 214.912 66.6193 214.478 65.9074C214.052 65.1869 213.384 64.8266 212.472 64.8266C211.587 64.8266 210.931 65.1695 210.506 65.8553C210.089 66.5325 209.868 67.596 209.842 69.0457V73.6556C209.842 75.2008 210.05 76.3511 210.467 77.1064C210.892 77.853 211.569 78.2263 212.498 78.2263C213.418 78.2263 214.083 77.866 214.491 77.1455C214.899 76.4249 215.111 75.3224 215.129 73.8379V69.3322ZM224.129 64.4118H229.756V61.5582H220.662V77.773H222.369C225.516 77.773 228.129 77.6664 231.116 77.1063L230.849 74.2527C228.503 74.6794 226.422 74.8127 224.129 74.8661V64.4118ZM237.703 58.7046V68.1721H235.49V59.1846H232.21V82.1468H235.49V70.9991H237.703V83.2936H241.037V58.7046H237.703ZM262.957 65.3719H249.436V59.6113H245.915V68.1721H262.957V65.3719ZM249.222 75.4528H245.675V82.7602H263.09V79.9599H249.222V75.4528ZM243.169 70.679V73.506H265.411V70.679H243.169ZM65.8959 105.852H73.8433V102.998H62.4022V119.453H64.4824C68.7495 119.453 72.1098 119.32 75.8168 118.653L75.4701 115.746C72.2965 116.279 69.3896 116.466 65.8959 116.519V105.852ZM84.2443 109.799H80.6706V100.731H77.1503V125.347H80.6706V112.706H84.2443V109.799ZM96.5373 116.786C94.6972 116.786 93.4704 114.839 93.4704 111.186C93.4704 107.559 94.6972 105.612 96.5373 105.612C98.3508 105.612 99.6043 107.559 99.6043 111.186C99.6043 114.839 98.3508 116.786 96.5373 116.786ZM96.5373 102.438C92.8037 102.438 90.0834 105.798 90.0834 111.186C90.0834 116.599 92.8037 119.986 96.5373 119.986C100.244 119.986 102.991 116.599 102.991 111.186C102.991 105.798 100.244 102.438 96.5373 102.438ZM112.752 109.985H109.179V100.731H105.658V125.294H109.179V112.892H112.752V109.985ZM132.939 107.372H119.417V101.611H115.897V110.172H132.939V107.372ZM119.204 117.453H115.657V124.76H133.072V121.96H119.204V117.453ZM113.15 112.679V115.506H135.392V112.679H113.15ZM140.537 106.305H146.431V103.505H137.07V119.826H138.751C142.351 119.826 144.778 119.72 147.525 119.186L147.231 116.306C145.071 116.733 143.098 116.893 140.537 116.946V106.305ZM149.018 109.692H144.751V112.546H149.018V124.2H152.298V101.185H149.018V109.692ZM154.112 100.705V125.267H157.446V100.705H154.112ZM160.826 127.753L158.859 126.724L159.328 125.878C159.91 124.819 160.209 123.764 160.227 122.714V119.797H163.404L163.391 122.401C163.382 123.365 163.139 124.337 162.662 125.318C162.184 126.299 161.572 127.111 160.826 127.753ZM187.051 118.306H190.571V100.758H187.051V105.532H181.077V108.385H187.051V118.306ZM184.144 111.052C180.943 111.666 177.903 111.906 174.863 111.986V102.411H171.369V114.919H173.423C177.05 114.919 180.73 114.733 184.597 113.959L184.144 111.052ZM177.903 122.067V116.919H174.383V124.867H191.131V122.067H177.903ZM205.101 103.02C205.101 100.428 207.045 98.916 209.601 98.916C212.157 98.916 214.101 100.428 214.101 103.02C214.101 105.612 212.157 107.124 209.601 107.124C207.045 107.124 205.101 105.612 205.101 103.02ZM211.977 110.94C215.937 110.076 218.745 107.016 218.745 103.02C218.745 98.268 214.785 94.848 209.601 94.848C204.417 94.848 200.493 98.268 200.493 103.02C200.493 107.016 203.265 110.076 207.225 110.94V115.584C204.309 115.656 201.501 115.656 199.089 115.656L199.701 119.508C205.425 119.508 213.201 119.436 220.329 117.996L220.041 114.576C217.449 114.972 214.677 115.188 211.977 115.368V110.94ZM221.841 92.904V126.168H226.593V92.904H221.841ZM241.223 121.08H254.664V114.786H237.702V117.373H251.197V118.653H237.729V125.107H255.304V122.467H241.223V121.08ZM241.356 104.145H251.09V106.465H241.356V104.145ZM247.97 110.759V109.159H254.531V101.451H237.916V109.159H244.45V110.759H235.169V113.532H257.357V110.759H247.97ZM262.849 112.306H270.637V102.811H259.356V105.612H267.17V109.532H259.382V119.666H261.462C265.729 119.666 269.116 119.506 272.797 118.84L272.477 115.986C269.276 116.546 266.37 116.733 262.849 116.759V112.306ZM281.171 109.985H277.651V100.705H274.13V125.347H277.651V112.892H281.171V109.985ZM284.941 117.179C284.941 115.964 285.088 114.996 285.384 114.275C285.679 113.555 286.217 112.847 286.998 112.153C287.788 111.449 288.313 110.881 288.574 110.447C288.834 110.004 288.965 109.54 288.965 109.053C288.965 107.586 288.287 106.853 286.933 106.853C286.291 106.853 285.774 107.052 285.384 107.452C285.002 107.842 284.802 108.385 284.785 109.079H281.008C281.025 107.421 281.559 106.123 282.61 105.186C283.669 104.248 285.11 103.779 286.933 103.779C288.774 103.779 290.202 104.227 291.217 105.121C292.233 106.006 292.741 107.261 292.741 108.884C292.741 109.622 292.576 110.321 292.246 110.981C291.916 111.632 291.339 112.357 290.514 113.155L289.459 114.158C288.8 114.792 288.422 115.534 288.327 116.385L288.274 117.179H284.941ZM284.563 121.177C284.563 120.595 284.758 120.118 285.149 119.744C285.548 119.363 286.056 119.172 286.673 119.172C287.289 119.172 287.793 119.363 288.183 119.744C288.583 120.118 288.782 120.595 288.782 121.177C288.782 121.75 288.587 122.223 288.196 122.596C287.814 122.97 287.306 123.156 286.673 123.156C286.039 123.156 285.527 122.97 285.136 122.596C284.754 122.223 284.563 121.75 284.563 121.177Z" fill="white"/>
<g clip-path="url(#clip1_181_8503)">
<path d="M148.648 314.46C148.648 299.638 148.641 284.817 148.673 269.995C148.676 268.935 148.386 268.5 147.309 268.168C140.667 266.108 134.061 263.932 127.445 261.783C127.055 261.655 126.701 261.412 126.33 261.224C126.33 261.118 126.33 261.01 126.33 260.904C131.525 260.585 136.719 260.288 141.91 259.94C144.316 259.78 146.747 259.694 149.111 259.281C154.97 258.256 160.209 260.288 165.477 262.3C166.045 262.517 166.636 262.68 167.438 262.939C166.767 259.978 166.244 257.205 165.499 254.49C164.413 250.52 163.995 246.488 163.94 242.39C163.915 240.55 163.582 238.704 163.678 236.877C163.787 234.829 164.218 232.801 164.522 230.696C163.963 230.536 163.081 230.13 162.18 230.076C161.202 230.018 160.199 230.248 159.222 230.431C158.618 230.542 158.046 230.817 157.449 230.98C156.318 231.287 155.621 230.935 155.666 229.664C155.756 227.239 155.938 224.818 155.957 222.394C155.97 220.768 155.816 219.136 155.65 217.516C155.213 213.21 157.263 209.508 158.477 205.601C159.046 203.774 159.567 201.931 160.142 200.107C160.391 199.321 160.72 198.561 161.027 197.746C159.423 196.504 157.759 195.271 156.158 193.964C151.842 190.438 148.66 185.896 145.396 181.468C144.635 180.437 143.153 179.101 144.325 177.172C144.568 176.77 143.466 175.437 142.843 174.648C141.885 173.438 140.802 172.326 139.776 171.167C139.045 170.343 138.236 169.57 137.633 168.659C137.329 168.202 137.351 167.496 137.355 166.906C137.355 166.803 137.987 166.701 138.355 166.592C138.157 164.922 138.805 163.778 140.444 163.194C140.744 163.085 141.207 163.28 141.54 163.446C142.249 163.797 142.926 164.225 143.776 164.714C145.836 167.643 145.495 171.905 148.306 174.837C150.175 176.785 151.839 178.926 153.647 180.935C155.631 183.142 157.941 184.883 160.477 186.49C161.998 187.451 163.445 188.624 165.087 189.473C165.841 189.863 166.33 189.774 167.036 189.215C167.838 188.579 168.917 188.295 169.889 187.851C169.623 185.052 169.183 182.094 169.103 179.127C169.004 175.514 171.304 173.345 174.872 172.834C177.961 172.393 180.431 173.023 182.59 175.144C184.83 177.341 185.235 180.191 183.958 183.04C183.015 185.145 181.613 187.129 181.817 189.614C181.827 189.719 181.856 189.821 181.884 189.959C184.092 191.406 185.731 189.716 187.392 188.777C188.395 188.208 189.142 187.953 190.078 188.665C191.222 189.534 192.49 189.16 193.401 188.509C196.365 186.381 199.34 184.225 202.045 181.788C205.272 178.884 208.182 175.632 211.323 172.63C212.284 171.71 213.559 171.125 214.674 170.362C216.175 169.333 216.482 168.142 216.29 166.382C216.086 164.487 216.233 162.555 216.198 160.638C216.191 160.29 215.907 159.9 215.996 159.603C216.143 159.124 216.495 158.709 216.757 158.265C217.213 158.575 217.996 158.821 218.066 159.201C218.252 160.204 218.13 161.264 218.13 162.303C218.3 162.373 218.466 162.443 218.635 162.517C219.421 161.357 220.239 160.217 220.983 159.028C221.565 158.105 222.101 157.147 222.574 156.163C223.245 154.764 224.577 154.726 225.644 154.336C227.254 156.061 226.66 157.703 225.526 159.654C226.414 159.079 226.893 158.77 227.369 158.46C227.532 158.549 227.692 158.639 227.855 158.731C227.567 159.597 227.446 160.571 226.963 161.312C224.462 165.149 222.386 169.272 219.066 172.559C217.948 173.665 218.162 175.297 218.322 176.814C218.37 177.274 218.082 177.935 217.725 178.245C214.834 180.75 211.879 183.177 208.975 185.666C208.23 186.301 207.444 186.978 206.946 187.799C204.956 191.08 201.838 193.166 198.995 195.549C197.234 197.025 195.378 198.389 193.653 199.903C193.34 200.177 193.311 200.973 193.398 201.484C194.791 209.703 197.64 217.519 200.094 225.444C200.493 226.728 200.848 228.028 201.24 229.316C201.633 230.609 200.157 232.389 198.969 231.791C196.698 230.645 194.663 231.881 192.538 231.989C191.123 232.063 189.733 232.542 188.325 232.839C189.858 243.815 187.906 254.496 187.155 265.373C187.951 265.373 188.52 265.373 189.091 265.373C196.158 265.373 203.224 265.296 210.288 265.402C214.604 265.466 218.919 265.775 223.232 266.025C226.114 266.191 228.992 266.437 231.87 266.644C231.87 266.858 231.87 267.069 231.87 267.283C231.656 267.283 231.439 267.251 231.235 267.286C227.331 267.922 223.424 268.545 219.526 269.213C217.044 269.637 214.572 270.129 212.099 270.592C212.099 271.42 212.099 272.059 212.099 272.694C212.099 284.328 212.093 295.962 212.112 307.595C212.112 308.522 212.032 309.138 210.901 309.381C205.825 310.464 200.761 311.611 195.707 312.792C192.181 313.62 188.67 314.227 185.002 314.185C173.741 314.061 162.477 314.134 151.213 314.153C150.679 314.153 150.146 314.354 149.616 314.463C149.287 314.46 148.967 314.46 148.648 314.46ZM189.347 313.438C189.347 298.418 189.347 283.529 189.347 268.679C175.936 268.679 162.637 268.679 149.366 268.679C149.366 283.66 149.366 298.514 149.366 313.438C162.71 313.438 175.974 313.438 189.347 313.438ZM190.174 268.73C190.174 283.756 190.174 298.44 190.174 313.137C190.468 313.153 190.692 313.217 190.887 313.173C197.199 311.706 203.496 310.16 209.834 308.806C211.201 308.515 211.486 308.023 211.482 306.762C211.441 295.348 211.457 283.938 211.457 272.525C211.457 271.963 211.457 271.401 211.457 270.787C204.272 270.091 197.298 269.417 190.174 268.73ZM177.888 267.826C175.77 257.751 173.687 247.827 171.601 237.902C171.815 237.857 172.032 237.816 172.246 237.771C174.367 247.811 176.489 257.847 178.597 267.817C179.549 267.817 180.485 267.817 181.546 267.817C180.996 262.239 180.424 256.777 179.929 251.308C179.444 245.939 179.041 240.563 178.603 235.187C178.795 235.174 178.99 235.161 179.182 235.152C180.182 246.035 181.182 256.921 182.181 267.813C183.696 267.813 185.095 267.813 186.485 267.813C186.638 264.705 186.692 261.7 186.954 258.71C187.27 255.119 187.925 251.554 188.139 247.964C188.347 244.473 188.274 240.953 188.133 237.452C188.088 236.327 187.507 235.196 187.056 234.117C186.497 232.778 185.817 231.488 185.191 230.175C185.335 230.102 185.481 230.028 185.625 229.955C186.203 230.865 186.782 231.775 187.36 232.689C187.44 232.654 187.523 232.615 187.603 232.58C187.194 230.795 186.788 229.006 186.398 227.303C179.466 228.15 173.016 231.523 166.138 229.249C165.822 230.213 165.553 230.884 165.384 231.581C164.985 233.235 164.397 234.89 164.32 236.564C164.209 239.03 164.403 241.518 164.601 243.984C164.793 246.373 164.985 248.788 165.477 251.126C166.652 256.7 168.007 262.239 169.294 267.82C172.029 267.826 174.815 267.826 177.888 267.826ZM188.411 188.809C188.654 189.997 188.855 190.975 189.053 191.952C188.922 192 188.788 192.048 188.657 192.096C188.331 191.275 188.008 190.451 187.683 189.623C186.213 190.265 184.743 190.907 183.252 191.556C183.395 192.856 183.536 194.137 183.686 195.494C185.002 194.894 186.171 194.361 187.699 193.664C187.235 196.156 185.143 195.986 184.111 197.05C184.402 198.344 184.644 199.666 184.999 200.96C186.146 205.132 186.414 209.492 188.734 213.411C191.653 218.34 194.017 223.598 196.634 228.706C196.941 229.306 197.225 230.05 197.742 230.37C198.333 230.734 199.19 230.839 199.889 230.75C200.106 230.721 200.439 229.613 200.298 229.118C199.193 225.227 197.998 221.362 196.781 217.503C196.666 217.142 196.27 216.797 195.915 216.596C194.88 216.005 194.816 215.222 195.647 214.545C194.953 211.482 194.295 208.498 193.596 205.525C193.232 203.969 192.944 202.369 192.353 200.899C191.433 198.612 190.267 196.424 189.248 194.175C189.165 193.993 189.408 193.664 189.545 193.265C190.494 195.625 191.372 197.81 192.251 199.995C194.736 198.044 197.103 196.312 199.32 194.408C201.419 192.607 203.4 190.658 205.355 188.697C205.844 188.208 205.876 187.237 206.387 186.803C210.045 183.692 213.773 180.66 217.405 177.667C215.591 176.009 213.84 174.409 212.23 172.933C207.77 177.491 203.266 182.101 198.605 186.863C199.036 185.995 199.416 185.228 199.796 184.461C198.008 185.615 196.484 187.033 194.87 188.336C194.228 188.854 193.41 189.234 192.609 189.457C191.804 189.684 191.27 189.901 191.347 190.882C191.423 191.882 191.363 192.888 191.363 193.894C191.152 193.894 190.944 193.894 190.733 193.894C190.733 193.201 190.641 192.492 190.753 191.815C191.024 190.144 190.232 189.291 188.411 188.809ZM183.165 224.949C183.29 225.013 183.411 225.077 183.536 225.141C184.031 221.755 184.523 218.369 185.018 214.98C185.207 215.012 185.392 215.047 185.58 215.079C185.156 218.401 184.731 221.72 184.309 225.016C185.616 225.019 186.229 224.563 186.328 223.279C186.545 220.471 186.778 217.65 187.283 214.884C187.635 212.951 186.999 211.514 186.002 209.993C183.97 206.895 182.514 203.522 181.453 199.967C181.095 198.762 180.504 197.628 180.019 196.462C178.964 196.977 178.08 197.411 177.195 197.842C177.112 197.695 177.025 197.552 176.942 197.405C177.45 197.044 177.961 196.683 178.201 196.513C178.348 195.954 178.361 195.36 178.546 195.303C179.811 194.897 179.69 194.022 179.46 193.054C177.556 193.431 176.706 194.37 176.703 196.066C176.703 196.702 176.735 197.344 176.683 197.976C176.275 203.043 175.783 208.106 175.457 213.178C175.297 215.663 175.287 218.18 175.495 220.659C175.668 222.729 176.303 224.767 174.926 226.917C177.393 226.431 179.862 225.943 182.37 225.451C182.74 222.777 183.101 220.167 183.462 217.561C183.648 217.586 183.833 217.612 184.015 217.641C183.728 220.075 183.446 222.512 183.165 224.949ZM129.196 261.24C129.196 261.329 129.192 261.422 129.192 261.511C134.809 263.332 140.508 264.939 146.009 267.063C148.871 268.168 151.58 267.74 154.356 267.545C158.321 267.264 162.269 266.775 166.215 266.293C166.87 266.213 167.914 265.798 168.001 265.379C168.163 264.578 167.774 263.766 166.7 263.424C163.688 262.46 160.733 261.307 157.717 260.352C156.446 259.949 155.059 259.61 153.746 259.674C149.817 259.863 145.903 260.31 141.977 260.566C137.719 260.843 133.454 261.019 129.196 261.24ZM164.225 201.203C161.976 204.33 159.8 207.352 157.634 210.38C157.484 210.588 157.382 210.837 157.292 211.079C156.356 213.622 156.04 216.168 156.526 218.909C156.871 220.86 156.628 222.927 156.561 224.94C156.503 226.703 156.321 228.466 156.165 230.632C157.385 230.217 158.18 229.891 159.008 229.68C159.758 229.488 160.551 229.268 161.301 229.332C162.567 229.44 163.816 229.76 165.224 230.018C165.247 220.247 165.237 210.648 164.225 201.203ZM166.63 218.915C166.812 218.883 166.997 218.851 167.18 218.819C167.464 221.554 167.751 224.288 168.042 227.105C169.007 227.105 169.77 227.105 170.697 227.105C169.195 225.419 169.224 225.419 169.365 222.78C169.601 218.308 169.735 213.83 170.039 209.364C170.182 207.237 170.604 205.129 170.914 203.017C171.253 200.711 172.09 198.401 170.112 196.296C169.572 195.721 169.579 194.635 169.336 193.782C169.464 193.757 169.588 193.731 169.716 193.702C170.361 195.047 171.007 196.389 171.697 197.826C173.348 195.967 172.166 194.897 170.435 193.715C171.333 193.715 171.607 193.715 172.019 193.715C170.454 192.38 169.675 192.326 168.636 193.603C167.525 194.974 166.505 196.43 165.534 197.906C164.851 198.948 164.423 199.976 164.819 201.41C165.327 203.25 165.461 205.231 165.515 207.157C165.691 213.456 165.755 219.755 165.863 226.058C165.867 226.265 165.908 226.476 165.937 226.703C166.41 226.773 166.857 226.837 167.279 226.901C167.061 224.243 166.844 221.579 166.63 218.915ZM176.115 194.737C175.977 194.603 175.84 194.472 175.706 194.338C175 194.789 174.131 195.111 173.629 195.728C173.096 196.383 172.792 197.29 172.591 198.136C170.959 204.966 170.25 211.913 170 218.918C169.936 220.698 169.802 222.474 169.716 224.253C169.706 224.451 169.729 224.706 169.844 224.847C170.595 225.76 171.374 226.652 172.141 227.543C175.045 225.096 175.329 224.607 175.105 222.394C175.048 221.825 174.805 221.266 174.811 220.707C174.891 215.638 174.974 210.565 175.141 205.499C175.185 204.103 175.588 202.723 175.709 201.327C175.898 199.13 175.984 196.932 176.115 194.737ZM163.86 189.86C162.091 188.63 160.417 187.464 158.49 186.122C158.417 187.684 158.362 188.876 158.308 190.071C158.152 190.08 157.995 190.09 157.839 190.099C157.8 189.157 157.8 188.211 157.714 187.276C157.653 186.608 157.708 185.736 157.318 185.321C155.152 183.002 152.82 180.839 150.641 178.533C149.085 176.885 147.383 176.968 146.105 178.919C145.507 179.83 145.44 180.584 146.223 181.545C148.325 184.129 150.264 186.848 152.325 189.467C152.813 190.087 153.529 190.527 154.417 191.284C154.417 189.713 154.417 188.576 154.417 187.266C155.088 189.358 155.289 191.556 156.411 193.076C157.618 194.712 159.685 195.712 161.388 196.996C161.982 196.031 162.445 195.28 162.908 194.533C163.365 193.795 163.828 193.06 164.352 192.224C163.959 192.252 163.688 192.268 163.362 192.291C163.544 191.406 163.707 190.607 163.86 189.86ZM177.549 178.322C176.907 178.105 175.952 177.603 174.952 177.485C172.316 177.172 170.211 177.804 170.055 180.232C169.837 183.532 170.173 186.825 171.294 189.975C172.106 192.259 173.537 192.83 175.636 191.735C176.319 191.377 176.91 190.847 177.552 190.409C177.837 190.214 178.316 189.837 178.415 189.914C179.693 190.901 180.025 188.991 180.99 189.112C181.047 188.406 181.102 187.697 181.159 186.991C180.983 186.918 180.805 186.848 180.629 186.774C180.456 187.237 180.281 187.704 180.108 188.167C179.904 187.988 179.702 187.809 179.498 187.633C179.878 187.097 180.479 186.049 180.603 186.103C181.961 186.688 182.159 185.455 182.319 184.854C182.542 184.021 182.309 183.062 182.271 182.155C182.082 182.146 181.891 182.133 181.702 182.123C181.226 182.794 180.753 183.468 180.284 184.129C179.351 182.155 178.511 180.366 177.549 178.322ZM196.803 230.546C195.337 227.786 193.928 225.138 192.43 222.317C192.027 224.278 191.666 226.022 191.308 227.77C191.158 225.281 191.899 222.787 191.455 220.522C191.005 218.228 189.385 216.165 188.075 213.606C187.766 216.625 187.705 219.145 187.213 221.576C186.465 225.253 187.232 228.664 188.328 232.066C191.165 231.558 193.909 231.066 196.803 230.546ZM222.878 157.489C222.826 157.45 222.772 157.415 222.721 157.377C221.791 158.933 220.935 160.539 219.887 162.012C219.53 162.513 218.696 162.676 218.079 162.996C217.891 162.389 217.651 161.791 217.53 161.172C217.392 160.463 217.36 159.734 217.284 159.012C217.114 159.035 216.945 159.06 216.776 159.083C216.805 159.629 216.849 160.175 216.856 160.725C216.872 162.641 216.603 164.612 216.974 166.455C217.261 167.889 216.91 168.876 216.185 169.927C215.865 170.39 215.536 170.85 215.217 171.307C215.856 172.106 216.421 172.815 217.281 173.891C220.095 170.061 222.75 166.449 225.408 162.836C225.286 162.74 225.162 162.644 225.04 162.552C224.705 162.708 224.369 162.862 224.034 163.018C223.9 162.941 223.766 162.865 223.631 162.788C224.437 160.686 225.242 158.584 226.043 156.483C225.96 156.447 225.877 156.412 225.794 156.377C224.967 158.073 224.139 159.773 223.312 161.469C223.136 161.386 222.964 161.303 222.788 161.22C223.603 159.348 224.417 157.473 225.232 155.601C225.098 155.543 224.967 155.486 224.833 155.428C223.89 157.335 222.945 159.242 222.002 161.149C221.855 161.085 221.705 161.022 221.558 160.958C221.996 159.798 222.437 158.645 222.878 157.489ZM227.733 267.216C216.552 265.555 205.208 266.309 193.925 268.475C194.877 268.58 195.838 268.497 196.778 268.596C200.467 268.976 204.151 269.43 207.837 269.826C208.914 269.941 210.029 270.152 211.077 269.989C216.722 269.107 222.35 268.123 227.733 267.216ZM170.077 177.923C172.709 176.223 175.3 176.549 177.897 177.696C178.163 177.814 178.457 178.038 178.568 178.29C179.124 179.542 179.623 180.817 180.14 182.085C180.23 181.922 180.319 181.762 180.408 181.599C181.392 181.746 182.373 181.89 183.514 182.059C184.814 180.411 183.868 177.578 182.571 176.121C179.958 173.182 176.658 172.764 173.051 173.936C171.674 174.38 170.128 176.415 170.077 177.923ZM145.255 176.345C145.99 176.003 146.849 175.604 147.728 175.195C146.514 173.409 145.06 171.956 145.003 169.614C144.971 168.314 144.06 167.036 143.479 165.586C143.361 167.768 143.255 169.672 143.15 171.576C143.019 171.572 142.885 171.572 142.754 171.569C142.754 170.371 142.754 169.173 142.754 167.998C142.278 167.752 141.856 167.532 141.667 167.433C141.163 168.365 140.671 169.272 139.974 170.56C141.581 172.32 143.351 174.259 145.255 176.345ZM181.079 191.805C179.955 193.083 180.092 194.402 180.629 195.811C181.293 197.545 181.804 199.34 182.488 201.069C183.354 203.253 184.325 205.4 185.248 207.563C185.398 207.511 185.545 207.46 185.695 207.409C185.293 205.566 184.894 203.72 184.491 201.877C183.916 199.251 183.191 196.644 182.83 193.99C182.661 192.731 182.558 191.85 181.079 191.805ZM158.89 207.943C159.5 207.051 160.161 206.192 160.71 205.263C162.876 201.605 164.991 197.916 167.157 194.258C168.048 192.751 169.147 191.482 171.198 191.703C170.924 190.987 170.703 190.412 170.486 189.853C168.033 190.023 159.279 203.301 158.89 207.943ZM187.334 266.053C186.954 267.529 187.494 268.056 188.849 267.928C192.436 267.587 196.03 267.306 199.614 266.932C201.426 266.743 203.221 266.414 205.023 266.149C205.02 266.117 205.02 266.085 205.016 266.053C199.154 266.053 193.292 266.053 187.334 266.053ZM161.193 200.113C162.959 197.44 164.659 194.721 166.525 192.118C167.432 190.853 168.649 189.812 169.821 188.569C168.975 188.994 167.879 189.23 167.272 189.904C164.589 192.898 162.362 196.204 161.193 200.113ZM213.025 172.748C214.399 173.952 215.645 175.048 217.019 176.255C217.316 175.735 217.549 175.326 217.642 175.163C216.45 173.821 215.412 172.652 214.338 171.441C213.936 171.841 213.524 172.25 213.025 172.748ZM168.336 266.753C165.014 267.076 161.777 267.392 158.538 267.708C158.541 267.756 158.545 267.801 158.545 267.849C161.803 267.849 165.062 267.849 168.387 267.849C168.368 267.43 168.352 267.082 168.336 266.753ZM175.172 227.428C175.262 228.904 175.262 228.904 179.607 227.875C179.511 227.588 179.402 227.064 179.325 227.067C177.977 227.144 176.636 227.287 175.172 227.428ZM180.376 227.374C180.517 227.482 180.658 227.594 180.798 227.703C181.903 227.492 183.012 227.313 184.105 227.054C184.37 226.99 184.574 226.677 184.807 226.476C184.513 226.262 184.194 225.837 183.929 225.869C183.022 225.975 182.111 226.173 181.249 226.473C180.897 226.597 180.664 227.064 180.376 227.374ZM148.446 176.195C146.341 176.025 144.456 177.466 144.948 178.779C146.076 177.945 147.229 177.092 148.446 176.195ZM177.808 191.939C178.712 192.041 179.306 192.109 179.926 192.179C180.341 191.473 180.757 190.77 181.169 190.071C181.111 190 181.054 189.933 180.996 189.863C180.009 190.505 179.022 191.147 177.808 191.939ZM171.045 229.006C171.051 229.13 171.058 229.255 171.067 229.38C172.086 229.226 173.106 229.073 174.093 228.923C174.313 227.578 173.693 227.543 172.853 227.955C172.227 228.262 171.646 228.651 171.045 229.006Z" fill="black"/>
<path d="M189.348 313.438C175.972 313.438 162.711 313.438 149.367 313.438C149.367 298.514 149.367 283.661 149.367 268.68C162.638 268.68 175.937 268.68 189.348 268.68C189.348 283.527 189.348 298.419 189.348 313.438ZM170.643 273.331C171.864 273.331 173.081 273.302 174.301 273.34C175.259 273.369 175.464 272.842 175.432 272.034C175.4 271.296 175.563 270.468 174.403 270.475C171.912 270.481 169.417 270.405 166.934 270.539C166.452 270.564 165.586 271.475 165.653 271.836C165.759 272.398 166.452 273.164 167.001 273.267C168.177 273.481 169.426 273.331 170.643 273.331Z" fill="white"/>
<path d="M190.174 268.729C197.298 269.415 204.272 270.089 211.459 270.782C211.459 271.396 211.459 271.958 211.459 272.52C211.459 283.933 211.444 295.343 211.485 306.757C211.488 308.018 211.204 308.51 209.837 308.801C203.499 310.155 197.202 311.701 190.889 313.168C190.691 313.212 190.471 313.152 190.177 313.133C190.174 298.436 190.174 283.755 190.174 268.729Z" fill="white"/>
<path d="M177.888 267.825C174.815 267.825 172.026 267.825 169.298 267.825C168.01 262.245 166.656 256.706 165.48 251.132C164.988 248.793 164.797 246.379 164.605 243.989C164.407 241.52 164.212 239.032 164.324 236.569C164.4 234.895 164.988 233.237 165.388 231.586C165.557 230.889 165.825 230.219 166.141 229.254C173.019 231.528 179.469 228.158 186.402 227.309C186.791 229.011 187.197 230.797 187.606 232.586C187.526 232.621 187.443 232.659 187.363 232.694C186.785 231.784 186.207 230.873 185.629 229.96C185.485 230.033 185.338 230.107 185.194 230.18C185.82 231.49 186.501 232.78 187.06 234.122C187.51 235.202 188.092 236.329 188.136 237.457C188.277 240.958 188.35 244.475 188.143 247.969C187.929 251.563 187.274 255.128 186.958 258.715C186.692 261.705 186.638 264.711 186.488 267.819C185.098 267.819 183.699 267.819 182.185 267.819C181.185 256.926 180.185 246.04 179.185 235.157C178.993 235.17 178.799 235.183 178.607 235.192C179.044 240.565 179.45 245.944 179.933 251.314C180.425 256.782 181 262.241 181.549 267.822C180.488 267.822 179.552 267.822 178.6 267.822C176.495 257.856 174.374 247.816 172.25 237.776C172.036 237.821 171.818 237.863 171.604 237.907C173.687 247.826 175.773 257.747 177.888 267.825ZM168.64 263.414C168.841 263.401 169.039 263.388 169.24 263.372C168.608 255.029 167.975 246.685 167.317 238.345C167.304 238.201 166.95 238.086 166.566 237.834C167.266 246.51 167.953 254.962 168.64 263.414Z" fill="white"/>
<path d="M188.41 188.815C190.231 189.301 191.023 190.15 190.755 191.821C190.646 192.498 190.736 193.207 190.736 193.9C190.947 193.9 191.154 193.9 191.365 193.9C191.365 192.897 191.426 191.888 191.349 190.888C191.276 189.904 191.806 189.69 192.611 189.464C193.41 189.24 194.227 188.86 194.873 188.342C196.489 187.039 198.01 185.621 199.799 184.468C199.419 185.234 199.038 186.001 198.607 186.87C203.268 182.104 207.773 177.498 212.232 172.939C213.845 174.412 215.596 176.016 217.407 177.673C213.775 180.67 210.047 183.698 206.389 186.809C205.878 187.244 205.846 188.215 205.357 188.703C203.402 190.665 201.425 192.613 199.323 194.415C197.103 196.319 194.735 198.05 192.253 200.002C191.375 197.817 190.496 195.629 189.547 193.271C189.41 193.667 189.167 193.996 189.25 194.182C190.269 196.43 191.432 198.618 192.355 200.906C192.946 202.378 193.234 203.975 193.598 205.531C194.298 208.505 194.956 211.488 195.649 214.552C194.818 215.229 194.882 216.011 195.917 216.602C196.269 216.804 196.668 217.149 196.783 217.51C198 221.368 199.192 225.233 200.3 229.124C200.441 229.619 200.109 230.728 199.891 230.756C199.192 230.849 198.332 230.744 197.745 230.376C197.227 230.057 196.943 229.309 196.636 228.712C194.017 223.604 191.653 218.346 188.736 213.418C186.417 209.498 186.148 205.138 185.001 200.966C184.647 199.676 184.404 198.35 184.113 197.056C185.145 195.99 187.238 196.162 187.701 193.67C186.174 194.367 185.005 194.9 183.688 195.501C183.538 194.143 183.398 192.862 183.254 191.562C184.746 190.911 186.215 190.269 187.685 189.63C188.011 190.457 188.337 191.281 188.659 192.102C188.79 192.054 188.924 192.006 189.055 191.958C188.854 190.981 188.653 190.003 188.41 188.815Z" fill="white"/>
<path d="M183.166 224.945C183.447 222.508 183.731 220.071 184.012 217.633C183.827 217.608 183.642 217.582 183.46 217.554C183.099 220.16 182.738 222.77 182.367 225.443C179.86 225.939 177.393 226.424 174.924 226.91C176.301 224.763 175.662 222.722 175.492 220.652C175.288 218.173 175.298 215.656 175.454 213.171C175.78 208.098 176.272 203.035 176.681 197.969C176.732 197.337 176.7 196.695 176.7 196.059C176.703 194.363 177.553 193.424 179.457 193.047C179.687 194.015 179.808 194.89 178.543 195.296C178.361 195.353 178.348 195.947 178.198 196.506C177.956 196.679 177.448 197.037 176.94 197.398C177.023 197.544 177.109 197.688 177.192 197.835C178.077 197.404 178.962 196.969 180.016 196.455C180.502 197.621 181.089 198.755 181.45 199.959C182.508 203.515 183.965 206.891 186 209.986C186.996 211.507 187.632 212.944 187.281 214.877C186.776 217.643 186.543 220.464 186.325 223.271C186.226 224.555 185.613 225.012 184.306 225.009C184.728 221.716 185.153 218.394 185.578 215.072C185.389 215.04 185.204 215.004 185.016 214.973C184.52 218.359 184.028 221.744 183.533 225.134C183.412 225.073 183.287 225.009 183.166 224.945Z" fill="white"/>
<path d="M129.194 261.241C133.455 261.021 137.717 260.845 141.972 260.567C145.898 260.311 149.812 259.864 153.741 259.676C155.054 259.612 156.438 259.95 157.712 260.353C160.728 261.308 163.683 262.461 166.695 263.426C167.769 263.771 168.159 264.579 167.996 265.381C167.909 265.799 166.865 266.214 166.21 266.294C162.264 266.777 158.316 267.265 154.351 267.547C151.575 267.741 148.866 268.169 146.004 267.064C140.506 264.94 134.807 263.333 129.188 261.512C129.191 261.423 129.191 261.334 129.194 261.241Z" fill="white"/>
<path d="M164.226 201.199C165.236 210.645 165.248 220.244 165.226 230.021C163.82 229.763 162.571 229.44 161.303 229.335C160.552 229.271 159.757 229.491 159.009 229.683C158.185 229.894 157.386 230.219 156.166 230.635C156.323 228.466 156.501 226.706 156.562 224.942C156.629 222.93 156.872 220.863 156.527 218.912C156.041 216.171 156.358 213.625 157.294 211.082C157.383 210.84 157.489 210.59 157.636 210.383C159.805 207.348 161.977 204.326 164.226 201.199ZM157.019 223.687C157.636 223.38 157.987 223.323 158.112 223.125C160.118 219.908 162.108 216.682 164.054 213.43C164.245 213.108 164.121 212.596 164.14 212.261C161.804 216.002 159.52 219.669 157.019 223.687Z" fill="white"/>
<path d="M166.629 218.911C166.846 221.575 167.06 224.242 167.278 226.897C166.859 226.836 166.412 226.769 165.936 226.699C165.91 226.469 165.869 226.261 165.863 226.053C165.751 219.754 165.687 213.452 165.514 207.153C165.46 205.226 165.326 203.246 164.818 201.406C164.422 199.969 164.85 198.943 165.533 197.902C166.505 196.426 167.524 194.97 168.635 193.599C169.674 192.318 170.453 192.373 172.019 193.711C171.606 193.711 171.332 193.711 170.434 193.711C172.165 194.89 173.347 195.963 171.696 197.822C171.006 196.385 170.361 195.04 169.715 193.698C169.587 193.724 169.463 193.749 169.335 193.778C169.578 194.631 169.571 195.717 170.111 196.292C172.089 198.397 171.252 200.707 170.913 203.013C170.603 205.127 170.182 207.236 170.038 209.36C169.738 213.826 169.603 218.304 169.364 222.776C169.223 225.418 169.191 225.414 170.696 227.101C169.77 227.101 169.003 227.101 168.041 227.101C167.747 224.284 167.463 221.549 167.179 218.815C166.993 218.847 166.811 218.879 166.629 218.911Z" fill="white"/>
<path d="M176.116 194.736C175.985 196.931 175.898 199.132 175.71 201.323C175.589 202.719 175.186 204.099 175.141 205.495C174.975 210.564 174.892 215.634 174.812 220.703C174.803 221.262 175.049 221.824 175.106 222.39C175.33 224.603 175.045 225.092 172.142 227.539C171.375 226.644 170.595 225.756 169.845 224.843C169.73 224.702 169.707 224.447 169.717 224.249C169.803 222.469 169.937 220.693 170.001 218.914C170.25 211.909 170.96 204.961 172.592 198.132C172.793 197.286 173.097 196.378 173.63 195.724C174.132 195.107 175.001 194.784 175.707 194.334C175.841 194.468 175.978 194.602 176.116 194.736Z" fill="white"/>
<path d="M163.859 189.857C163.706 190.604 163.543 191.403 163.361 192.288C163.687 192.265 163.959 192.246 164.351 192.22C163.828 193.057 163.368 193.792 162.908 194.53C162.441 195.277 161.981 196.031 161.387 196.993C159.684 195.709 157.617 194.709 156.41 193.073C155.288 191.553 155.084 189.355 154.416 187.263C154.416 188.573 154.416 189.71 154.416 191.281C153.528 190.521 152.813 190.083 152.324 189.464C150.263 186.844 148.324 184.129 146.222 181.542C145.439 180.58 145.51 179.827 146.104 178.916C147.385 176.964 149.084 176.881 150.64 178.53C152.819 180.839 155.151 182.998 157.317 185.318C157.703 185.733 157.652 186.605 157.713 187.272C157.799 188.208 157.799 189.154 157.838 190.096C157.994 190.087 158.151 190.077 158.307 190.067C158.362 188.873 158.419 187.681 158.489 186.119C160.416 187.461 162.09 188.627 163.859 189.857Z" fill="white"/>
<path d="M177.55 178.322C178.512 180.366 179.352 182.155 180.282 184.132C180.751 183.468 181.224 182.797 181.7 182.126C181.889 182.136 182.08 182.149 182.269 182.158C182.307 183.062 182.544 184.024 182.317 184.858C182.157 185.455 181.959 186.691 180.601 186.107C180.477 186.052 179.876 187.1 179.496 187.637C179.7 187.815 179.902 187.994 180.106 188.17C180.279 187.707 180.454 187.241 180.627 186.777C180.802 186.851 180.981 186.921 181.157 186.995C181.1 187.7 181.045 188.41 180.988 189.116C180.023 188.994 179.694 190.904 178.413 189.917C178.311 189.837 177.835 190.218 177.55 190.412C176.908 190.85 176.317 191.38 175.634 191.738C173.538 192.834 172.107 192.262 171.292 189.978C170.171 186.828 169.835 183.532 170.053 180.235C170.212 177.808 172.318 177.175 174.95 177.488C175.953 177.603 176.908 178.108 177.55 178.322ZM171.704 188.908C172.378 189.614 172.774 190.026 173.167 190.438C173.602 189.956 174.314 189.508 174.378 188.981C174.429 188.569 173.752 187.883 173.25 187.665C173.017 187.566 172.429 188.304 171.704 188.908Z" fill="white"/>
<path d="M196.803 230.549C193.906 231.07 191.165 231.562 188.325 232.073C187.232 228.668 186.466 225.257 187.21 221.583C187.705 219.152 187.766 216.632 188.073 213.613C189.382 216.172 191.002 218.235 191.452 220.529C191.896 222.794 191.155 225.292 191.305 227.777C191.663 226.03 192.024 224.285 192.427 222.324C193.931 225.142 195.337 227.793 196.803 230.549Z" fill="white"/>
<path d="M222.879 157.483C222.438 158.636 221.997 159.792 221.556 160.945C221.703 161.009 221.853 161.073 222 161.137C222.943 159.23 223.888 157.323 224.831 155.416C224.965 155.474 225.096 155.531 225.23 155.589C224.415 157.46 223.601 159.335 222.786 161.207C222.962 161.29 223.134 161.373 223.31 161.456C224.137 159.76 224.965 158.061 225.792 156.365C225.875 156.4 225.958 156.435 226.041 156.47C225.236 158.572 224.431 160.674 223.629 162.776C223.764 162.852 223.898 162.929 224.032 163.006C224.367 162.849 224.703 162.696 225.038 162.539C225.16 162.635 225.284 162.731 225.406 162.824C222.751 166.436 220.093 170.052 217.279 173.879C216.419 172.806 215.854 172.097 215.215 171.295C215.534 170.838 215.86 170.378 216.183 169.915C216.908 168.864 217.259 167.877 216.972 166.443C216.601 164.6 216.873 162.629 216.854 160.712C216.847 160.166 216.803 159.62 216.774 159.07C216.943 159.048 217.112 159.022 217.282 159C217.358 159.722 217.39 160.45 217.528 161.159C217.649 161.779 217.889 162.376 218.077 162.983C218.694 162.667 219.528 162.504 219.885 161.999C220.933 160.527 221.786 158.92 222.719 157.365C222.776 157.409 222.828 157.448 222.879 157.483Z" fill="white"/>
<path d="M227.734 267.219C222.351 268.126 216.723 269.11 211.078 269.992C210.03 270.155 208.915 269.944 207.838 269.829C204.149 269.433 200.468 268.982 196.779 268.599C195.836 268.503 194.878 268.583 193.926 268.478C205.209 266.312 216.55 265.558 227.734 267.219Z" fill="white"/>
<path d="M170.076 177.918C170.13 176.41 171.673 174.376 173.05 173.929C176.657 172.759 179.957 173.175 182.57 176.113C183.864 177.57 184.813 180.403 183.513 182.052C182.372 181.882 181.391 181.739 180.408 181.592C180.318 181.755 180.229 181.914 180.139 182.077C179.622 180.809 179.123 179.535 178.567 178.282C178.456 178.033 178.159 177.806 177.897 177.688C175.296 176.545 172.709 176.219 170.076 177.918Z" fill="white"/>
<path d="M145.255 176.345C143.351 174.259 141.581 172.32 139.975 170.563C140.671 169.276 141.163 168.369 141.668 167.436C141.856 167.535 142.278 167.752 142.754 168.002C142.754 169.174 142.754 170.375 142.754 171.573C142.885 171.576 143.019 171.576 143.15 171.579C143.255 169.675 143.358 167.772 143.479 165.59C144.057 167.04 144.971 168.318 145.003 169.618C145.06 171.956 146.514 173.413 147.728 175.198C146.849 175.604 145.99 176.003 145.255 176.345Z" fill="white"/>
<path d="M181.08 191.807C182.559 191.851 182.662 192.733 182.831 193.988C183.192 196.643 183.917 199.249 184.492 201.875C184.895 203.718 185.294 205.564 185.697 207.408C185.546 207.459 185.399 207.51 185.249 207.561C184.323 205.398 183.355 203.255 182.489 201.067C181.806 199.339 181.294 197.544 180.63 195.809C180.093 194.404 179.956 193.081 181.08 191.807Z" fill="white"/>
<path d="M158.891 207.945C159.284 203.303 168.034 190.025 170.487 189.855C170.701 190.414 170.922 190.989 171.199 191.705C169.149 191.481 168.05 192.753 167.158 194.26C164.992 197.921 162.877 201.607 160.712 205.265C160.162 206.194 159.498 207.054 158.891 207.945Z" fill="white"/>
<path d="M187.337 266.053C193.292 266.053 199.157 266.053 205.019 266.053C205.023 266.085 205.023 266.117 205.026 266.149C203.224 266.414 201.429 266.746 199.617 266.931C196.033 267.302 192.439 267.586 188.851 267.928C187.5 268.056 186.957 267.525 187.337 266.053Z" fill="white"/>
<path d="M161.193 200.117C162.363 196.207 164.589 192.901 167.273 189.911C167.88 189.234 168.975 189.001 169.822 188.576C168.65 189.819 167.432 190.86 166.525 192.125C164.66 194.725 162.96 197.447 161.193 200.117Z" fill="white"/>
<path d="M213.025 172.744C213.524 172.246 213.936 171.84 214.338 171.438C215.415 172.648 216.45 173.817 217.642 175.159C217.549 175.322 217.316 175.731 217.019 176.251C215.645 175.044 214.399 173.948 213.025 172.744Z" fill="white"/>
<path d="M168.337 266.75C168.353 267.076 168.369 267.424 168.388 267.846C165.062 267.846 161.804 267.846 158.545 267.846C158.542 267.798 158.539 267.753 158.539 267.705C161.775 267.392 165.015 267.076 168.337 266.75Z" fill="white"/>
<path d="M175.174 227.425C176.637 227.285 177.979 227.144 179.324 227.064C179.4 227.061 179.509 227.585 179.605 227.872C175.26 228.9 175.26 228.9 175.174 227.425Z" fill="white"/>
<path d="M180.375 227.371C180.663 227.062 180.896 226.592 181.247 226.471C182.11 226.17 183.02 225.972 183.927 225.867C184.193 225.835 184.512 226.26 184.806 226.474C184.573 226.672 184.368 226.988 184.103 227.052C183.011 227.311 181.899 227.493 180.797 227.7C180.656 227.592 180.516 227.483 180.375 227.371Z" fill="white"/>
<path d="M148.447 176.193C147.23 177.094 146.077 177.947 144.949 178.777C144.46 177.465 146.342 176.024 148.447 176.193Z" fill="white"/>
<path d="M177.809 191.94C179.023 191.151 180.01 190.509 180.997 189.863C181.054 189.934 181.112 190.001 181.169 190.071C180.757 190.77 180.345 191.47 179.927 192.179C179.307 192.109 178.713 192.042 177.809 191.94Z" fill="white"/>
<path d="M171.047 229.007C171.647 228.656 172.229 228.263 172.852 227.956C173.692 227.544 174.309 227.579 174.091 228.924C173.104 229.074 172.085 229.227 171.066 229.381C171.06 229.256 171.053 229.131 171.047 229.007Z" fill="white"/>
<path d="M170.643 273.328C169.423 273.328 168.177 273.478 166.998 273.261C166.449 273.159 165.756 272.392 165.65 271.83C165.583 271.469 166.449 270.559 166.931 270.533C169.413 270.399 171.908 270.476 174.4 270.469C175.56 270.466 175.397 271.29 175.429 272.028C175.464 272.836 175.26 273.363 174.298 273.335C173.084 273.299 171.864 273.328 170.643 273.328ZM174.694 271.207C173.042 271.207 171.391 271.207 169.65 271.207C169.711 271.766 169.758 272.204 169.806 272.622C174.643 272.951 174.707 272.932 174.694 271.207ZM168.995 270.862C167.944 271.14 167.085 271.367 166.225 271.594C166.356 271.926 166.439 272.514 166.628 272.549C167.378 272.692 168.164 272.667 168.995 272.708C168.995 272.127 168.995 271.718 168.995 270.862Z" fill="black"/>
<path d="M168.64 263.413C167.953 254.961 167.269 246.508 166.566 237.836C166.95 238.088 167.308 238.203 167.317 238.347C167.975 246.687 168.608 255.031 169.24 263.374C169.039 263.384 168.838 263.397 168.64 263.413Z" fill="black"/>
<path d="M157.02 223.685C159.524 219.667 161.808 216 164.14 212.256C164.121 212.591 164.246 213.102 164.054 213.425C162.109 216.677 160.118 219.903 158.112 223.12C157.984 223.318 157.633 223.375 157.02 223.685Z" fill="black"/>
<path d="M171.703 188.908C172.425 188.304 173.016 187.566 173.246 187.665C173.748 187.879 174.425 188.566 174.374 188.981C174.31 189.508 173.598 189.956 173.163 190.438C172.773 190.026 172.38 189.614 171.703 188.908Z" fill="black"/>
<path d="M174.693 271.207C174.705 272.931 174.642 272.95 169.805 272.621C169.76 272.206 169.712 271.766 169.648 271.207C171.389 271.207 173.041 271.207 174.693 271.207Z" fill="white"/>
<path d="M168.994 270.865C168.994 271.721 168.994 272.13 168.994 272.715C168.161 272.673 167.378 272.699 166.627 272.555C166.439 272.52 166.356 271.932 166.225 271.6C167.084 271.37 167.94 271.143 168.994 270.865Z" fill="white"/>
<path d="M158.199 289.213C157.662 289.213 157.131 289.319 156.636 289.524C156.14 289.729 155.691 290.03 155.311 290.409C154.932 290.787 154.631 291.238 154.426 291.734C154.221 292.23 154.115 292.76 154.115 293.296V295.135C154.115 295.671 154.221 296.202 154.426 296.697C154.631 297.193 154.932 297.642 155.311 298.022C155.691 298.402 156.14 298.702 156.636 298.907C157.132 299.112 157.662 299.218 158.199 299.218C159.282 299.218 160.32 298.787 161.087 298.022C161.853 297.256 162.282 296.218 162.282 295.135V293.296C162.282 292.213 161.852 291.175 161.087 290.409C160.322 289.644 159.282 289.213 158.199 289.213ZM160.026 295.128C160.03 295.371 159.986 295.611 159.897 295.837C159.807 296.063 159.674 296.268 159.503 296.44C159.333 296.614 159.13 296.751 158.906 296.845C158.683 296.939 158.443 296.987 158.2 296.987C157.957 296.987 157.717 296.939 157.494 296.845C157.271 296.751 157.067 296.614 156.897 296.44C156.728 296.266 156.593 296.061 156.503 295.837C156.413 295.611 156.369 295.371 156.374 295.128V293.303C156.37 293.06 156.414 292.82 156.503 292.594C156.593 292.368 156.726 292.163 156.897 291.991C157.067 291.817 157.271 291.68 157.494 291.586C157.717 291.492 157.957 291.444 158.2 291.444C158.443 291.444 158.683 291.492 158.906 291.586C159.13 291.68 159.333 291.817 159.503 291.991C159.673 292.165 159.807 292.37 159.897 292.594C159.987 292.82 160.032 293.06 160.026 293.303V295.128Z" fill="#29A063"/>
<path d="M156.978 288.485C157.005 288.495 157.031 288.511 157.052 288.533C157.073 288.555 157.088 288.581 157.097 288.609C157.106 288.637 157.107 288.667 157.102 288.696C157.097 288.726 157.085 288.754 157.068 288.777L157.069 288.78C156.986 288.831 156.914 288.898 156.858 288.978C156.802 289.058 156.761 289.148 156.739 289.243C157.683 288.902 158.717 288.902 159.662 289.243C159.64 289.148 159.601 289.058 159.543 288.978C159.487 288.898 159.414 288.832 159.332 288.78V288.777C159.315 288.754 159.303 288.725 159.298 288.696C159.293 288.666 159.295 288.636 159.303 288.607C159.312 288.579 159.326 288.552 159.347 288.532C159.368 288.509 159.393 288.494 159.422 288.483C159.492 288.464 159.555 288.422 159.599 288.363C159.644 288.304 159.669 288.234 159.67 288.161C159.671 288.088 159.648 288.016 159.605 287.956C159.561 287.897 159.5 287.853 159.43 287.832C159.359 287.81 159.285 287.812 159.216 287.837C159.146 287.862 159.088 287.909 159.047 287.97C159.007 288.032 158.987 288.105 158.991 288.178C158.995 288.251 159.024 288.321 159.071 288.378H159.069C159.086 288.401 159.098 288.43 159.103 288.458C159.108 288.488 159.106 288.519 159.098 288.547C159.089 288.576 159.075 288.602 159.054 288.623C159.033 288.644 159.008 288.661 158.979 288.671L158.978 288.674C158.881 288.67 158.785 288.687 158.693 288.721C158.608 288.665 158.516 288.624 158.418 288.598V288.594C158.388 288.572 158.363 288.542 158.346 288.508C158.329 288.474 158.32 288.436 158.32 288.398C158.32 288.361 158.329 288.323 158.346 288.289C158.363 288.255 158.388 288.226 158.418 288.203H158.417C158.495 288.152 158.555 288.077 158.588 287.991C158.62 287.904 158.623 287.808 158.597 287.72C158.571 287.631 158.516 287.552 158.441 287.496C158.367 287.44 158.277 287.41 158.183 287.41C158.09 287.41 157.999 287.44 157.924 287.496C157.85 287.552 157.795 287.631 157.769 287.72C157.743 287.808 157.746 287.904 157.778 287.991C157.811 288.079 157.871 288.153 157.949 288.203C157.979 288.225 158.004 288.255 158.021 288.289C158.038 288.323 158.047 288.361 158.047 288.398C158.047 288.436 158.038 288.474 158.021 288.508C158.004 288.542 157.979 288.571 157.949 288.594V288.597C157.855 288.622 157.766 288.661 157.685 288.713C157.601 288.683 157.511 288.67 157.42 288.674L157.419 288.671C157.39 288.661 157.366 288.645 157.345 288.623C157.324 288.601 157.308 288.575 157.3 288.547C157.291 288.519 157.29 288.488 157.295 288.458C157.3 288.428 157.312 288.401 157.329 288.378H157.328C157.375 288.321 157.404 288.251 157.407 288.178C157.411 288.105 157.392 288.032 157.351 287.97C157.311 287.909 157.252 287.862 157.183 287.837C157.114 287.812 157.038 287.811 156.969 287.832C156.898 287.854 156.837 287.897 156.794 287.956C156.751 288.015 156.727 288.086 156.729 288.161C156.73 288.234 156.755 288.306 156.799 288.363C156.845 288.422 156.907 288.464 156.978 288.485Z" fill="#103B1E"/>
<path d="M164.412 290.341C164.412 290.217 164.436 290.094 164.481 289.979C164.527 289.862 164.594 289.753 164.681 289.66C164.77 289.566 164.876 289.489 164.993 289.433C165.121 289.373 165.262 289.343 165.403 289.346H166.896C167.037 289.343 167.177 289.373 167.305 289.433C167.423 289.488 167.53 289.565 167.618 289.66C167.705 289.753 167.772 289.862 167.818 289.979C167.864 290.094 167.886 290.217 167.887 290.341V290.662C167.889 290.783 167.868 290.903 167.827 291.017C167.788 291.128 167.727 291.228 167.647 291.315C167.562 291.405 167.459 291.475 167.344 291.522C167.21 291.577 167.065 291.603 166.92 291.6H166.526V292.546H167.745C167.817 292.544 167.887 292.552 167.957 292.57C168.004 292.583 168.048 292.607 168.084 292.64C168.115 292.667 168.135 292.702 168.146 292.74C168.156 292.781 168.163 292.824 168.162 292.865C168.162 292.903 168.156 292.941 168.146 292.978C168.135 293.017 168.113 293.051 168.084 293.078C168.048 293.111 168.004 293.136 167.957 293.149C167.889 293.168 167.817 293.179 167.745 293.176H164.561C164.489 293.179 164.419 293.168 164.351 293.149C164.304 293.134 164.259 293.111 164.223 293.078C164.193 293.051 164.172 293.016 164.16 292.978C164.15 292.941 164.145 292.903 164.145 292.865C164.145 292.822 164.15 292.781 164.16 292.74C164.171 292.701 164.193 292.667 164.223 292.64C164.259 292.607 164.304 292.583 164.351 292.57C164.42 292.552 164.49 292.543 164.561 292.546H165.784V291.602H165.386C165.241 291.606 165.096 291.578 164.962 291.523C164.849 291.478 164.749 291.409 164.665 291.321C164.582 291.234 164.518 291.13 164.476 291.017C164.434 290.903 164.413 290.783 164.413 290.662V290.341H164.412ZM165.155 290.547C165.152 290.651 165.185 290.753 165.249 290.835C165.286 290.877 165.33 290.91 165.381 290.932C165.432 290.954 165.485 290.965 165.541 290.963H166.759C166.814 290.965 166.869 290.954 166.92 290.932C166.971 290.91 167.015 290.877 167.051 290.835C167.115 290.753 167.147 290.651 167.145 290.547V290.401C167.147 290.295 167.115 290.191 167.051 290.106C167.013 290.063 166.966 290.03 166.912 290.009C166.859 289.988 166.803 289.979 166.745 289.984H165.553C165.497 289.979 165.44 289.987 165.386 290.009C165.333 290.031 165.286 290.064 165.248 290.106C165.184 290.191 165.151 290.295 165.154 290.401L165.155 290.547Z" fill="#29A063"/>
<path d="M169.265 289.722C169.263 289.657 169.274 289.592 169.296 289.531C169.314 289.484 169.343 289.441 169.381 289.407C169.416 289.377 169.458 289.354 169.502 289.343C169.595 289.318 169.693 289.318 169.787 289.343C169.831 289.354 169.873 289.377 169.908 289.407C169.946 289.441 169.975 289.484 169.993 289.531C170.016 289.592 170.027 289.657 170.024 289.722V289.754C170.026 289.852 170.036 289.95 170.058 290.045C170.078 290.121 170.11 290.192 170.157 290.256C170.21 290.326 170.272 290.388 170.34 290.442C170.417 290.503 170.513 290.575 170.629 290.657C170.714 290.713 170.781 290.792 170.823 290.884C170.839 290.929 170.843 290.977 170.835 291.024C170.827 291.071 170.809 291.115 170.78 291.152C170.75 291.2 170.708 291.241 170.659 291.27C170.612 291.296 170.56 291.31 170.505 291.313C170.469 291.313 170.434 291.309 170.399 291.301C170.361 291.293 170.325 291.276 170.293 291.253C170.186 291.173 170.08 291.084 169.972 290.986C169.866 290.89 169.767 290.784 169.678 290.67C169.596 290.786 169.503 290.895 169.402 290.995C169.304 291.093 169.194 291.178 169.074 291.247C169.033 291.272 168.989 291.292 168.943 291.306C168.896 291.322 168.848 291.331 168.8 291.333C168.745 291.336 168.69 291.327 168.64 291.306C168.582 291.281 168.533 291.238 168.502 291.182C168.473 291.144 168.455 291.1 168.447 291.053C168.439 291.006 168.443 290.957 168.459 290.913C168.501 290.82 168.569 290.742 168.654 290.686C168.767 290.604 168.861 290.531 168.938 290.468C169.007 290.413 169.07 290.348 169.121 290.276C169.167 290.211 169.201 290.138 169.221 290.061C169.245 289.967 169.259 289.871 169.263 289.775L169.265 289.722ZM169.114 293.288C169.046 293.29 168.979 293.281 168.912 293.263C168.869 293.25 168.831 293.226 168.8 293.194C168.774 293.165 168.758 293.131 168.751 293.093C168.745 293.051 168.742 293.01 168.742 292.967V291.89C168.736 291.833 168.741 291.776 168.758 291.721C168.775 291.668 168.804 291.617 168.843 291.575C168.912 291.518 169.001 291.488 169.091 291.49C169.18 291.489 169.266 291.515 169.339 291.566C169.379 291.6 169.412 291.644 169.433 291.692C169.454 291.741 169.464 291.794 169.462 291.848H171.459C171.46 291.789 171.473 291.732 171.496 291.678C171.515 291.635 171.544 291.597 171.58 291.568C171.616 291.541 171.655 291.521 171.698 291.508C171.741 291.497 171.785 291.49 171.831 291.49C171.877 291.49 171.922 291.495 171.967 291.508C172.007 291.52 172.045 291.542 172.077 291.572C172.112 291.608 172.137 291.649 172.152 291.696C172.172 291.758 172.181 291.823 172.18 291.888V292.965C172.18 293.007 172.177 293.05 172.171 293.092C172.165 293.13 172.148 293.165 172.122 293.192C172.091 293.225 172.053 293.249 172.01 293.262C171.945 293.281 171.877 293.289 171.809 293.286L169.114 293.288ZM171.459 292.435H169.462V292.7H171.459V292.435ZM171.437 289.699C171.43 289.642 171.437 289.583 171.456 289.529C171.476 289.476 171.507 289.426 171.549 289.386C171.624 289.33 171.715 289.3 171.808 289.301C171.855 289.301 171.902 289.307 171.947 289.319C171.99 289.331 172.031 289.353 172.063 289.383C172.1 289.418 172.127 289.46 172.146 289.507C172.169 289.568 172.18 289.634 172.177 289.699V290.959C172.18 291.025 172.168 291.093 172.146 291.156C172.127 291.203 172.1 291.245 172.063 291.28C172.031 291.31 171.99 291.332 171.947 291.344C171.856 291.369 171.759 291.369 171.668 291.344C171.624 291.332 171.583 291.31 171.549 291.28C171.511 291.246 171.484 291.204 171.467 291.156C171.445 291.092 171.436 291.025 171.437 290.959V289.699Z" fill="#29A063"/>
<path d="M173.651 292.485H174.182C174.254 292.482 174.325 292.493 174.392 292.512C174.439 292.527 174.484 292.55 174.52 292.583C174.55 292.61 174.571 292.645 174.582 292.683C174.592 292.72 174.597 292.758 174.597 292.796C174.597 292.839 174.592 292.88 174.582 292.921C174.571 292.96 174.549 292.994 174.52 293.021C174.484 293.054 174.439 293.078 174.392 293.091C174.323 293.109 174.253 293.118 174.182 293.115H173.326C173.258 293.118 173.19 293.109 173.125 293.091C173.082 293.078 173.044 293.054 173.013 293.021C172.986 292.993 172.971 292.957 172.964 292.921C172.958 292.879 172.955 292.837 172.955 292.796V289.675C172.955 289.634 172.958 289.591 172.964 289.55C172.969 289.512 172.986 289.477 173.013 289.45C173.044 289.417 173.082 289.393 173.125 289.38C173.19 289.361 173.258 289.353 173.326 289.356H174.091C174.161 289.354 174.233 289.362 174.301 289.38C174.348 289.393 174.392 289.417 174.429 289.45C174.459 289.477 174.48 289.512 174.49 289.55C174.502 289.591 174.507 289.634 174.506 289.675C174.506 289.713 174.501 289.751 174.49 289.788C174.48 289.827 174.458 289.861 174.429 289.888C174.392 289.921 174.348 289.946 174.301 289.959C174.233 289.978 174.161 289.989 174.091 289.986H173.651V292.485V292.485ZM174.889 289.699C174.882 289.643 174.887 289.585 174.904 289.532C174.921 289.478 174.95 289.427 174.986 289.386C175.049 289.331 175.13 289.301 175.214 289.301C175.296 289.301 175.375 289.331 175.436 289.386C175.473 289.427 175.501 289.478 175.518 289.532C175.535 289.585 175.54 289.643 175.533 289.699V290.818H175.966V289.699C175.959 289.643 175.964 289.585 175.981 289.532C175.998 289.478 176.027 289.427 176.063 289.386C176.126 289.331 176.207 289.301 176.291 289.301C176.373 289.301 176.452 289.331 176.513 289.386C176.55 289.427 176.578 289.478 176.595 289.532C176.612 289.585 176.617 289.643 176.61 289.699V292.828C176.612 292.895 176.603 292.961 176.583 293.025C176.569 293.071 176.544 293.113 176.513 293.149C176.484 293.179 176.449 293.202 176.409 293.213C176.37 293.225 176.331 293.232 176.291 293.232C176.249 293.232 176.207 293.225 176.167 293.213C176.127 293.202 176.092 293.179 176.063 293.149C176.031 293.114 176.007 293.071 175.993 293.025C175.973 292.961 175.963 292.895 175.966 292.828V291.45H175.533V292.828C175.535 292.895 175.526 292.961 175.506 293.025C175.492 293.071 175.467 293.113 175.436 293.149C175.407 293.179 175.372 293.202 175.332 293.213C175.293 293.225 175.254 293.232 175.214 293.232C175.172 293.232 175.13 293.225 175.09 293.213C175.05 293.202 175.015 293.179 174.986 293.149C174.955 293.113 174.93 293.071 174.916 293.025C174.896 292.961 174.886 292.895 174.889 292.828V289.699V289.699Z" fill="#29A063"/>
<path d="M177.544 291.31C177.483 291.311 177.421 291.304 177.361 291.291C177.323 291.282 177.287 291.265 177.255 291.24C177.232 291.219 177.215 291.192 177.207 291.161C177.199 291.124 177.195 291.086 177.195 291.048C177.195 291.016 177.199 290.985 177.207 290.953C177.215 290.922 177.232 290.893 177.255 290.871C177.285 290.844 177.322 290.824 177.361 290.813C177.421 290.798 177.483 290.791 177.544 290.793H180.875C180.937 290.791 180.999 290.798 181.058 290.813C181.097 290.824 181.134 290.844 181.164 290.871C181.187 290.893 181.204 290.922 181.212 290.953C181.22 290.985 181.224 291.017 181.224 291.048C181.224 291.086 181.221 291.124 181.212 291.161C181.206 291.192 181.189 291.219 181.164 291.24C181.133 291.265 181.097 291.282 181.058 291.291C180.998 291.304 180.937 291.311 180.875 291.31H177.544ZM178.263 292.657V292.827H180.582C180.652 292.825 180.723 292.832 180.792 292.845C180.838 292.853 180.881 292.871 180.92 292.896C180.949 292.914 180.969 292.941 180.981 292.974C180.992 293.007 180.998 293.041 180.997 293.075C180.998 293.112 180.993 293.149 180.981 293.184C180.969 293.216 180.947 293.243 180.92 293.263C180.881 293.287 180.838 293.303 180.792 293.308C180.723 293.319 180.652 293.323 180.582 293.323H177.892C177.825 293.325 177.757 293.317 177.691 293.302C177.65 293.291 177.61 293.272 177.579 293.242C177.553 293.217 177.536 293.183 177.531 293.148C177.524 293.109 177.522 293.068 177.522 293.029V292.424C177.522 292.394 177.526 292.364 177.533 292.336C177.541 292.306 177.558 292.278 177.582 292.257C177.612 292.231 177.648 292.213 177.687 292.203C177.748 292.187 177.809 292.18 177.872 292.182H180.157V292.012H177.857C177.796 292.013 177.734 292.008 177.674 291.994C177.635 291.985 177.599 291.968 177.569 291.941C177.545 291.919 177.528 291.891 177.52 291.859C177.513 291.825 177.509 291.791 177.509 291.756C177.509 291.725 177.513 291.695 177.52 291.665C177.528 291.633 177.545 291.603 177.569 291.58C177.599 291.551 177.634 291.53 177.674 291.518C177.734 291.501 177.796 291.494 177.857 291.495H180.546C180.608 291.494 180.669 291.501 180.727 291.518C180.767 291.53 180.804 291.55 180.834 291.579C180.857 291.602 180.874 291.629 180.885 291.661C180.894 291.691 180.899 291.721 180.899 291.752V292.435C180.902 292.466 180.896 292.498 180.885 292.526C180.873 292.555 180.856 292.581 180.832 292.602C180.745 292.65 180.646 292.67 180.546 292.659L178.263 292.657ZM177.9 290.595C177.832 290.598 177.763 290.589 177.699 290.568C177.657 290.555 177.621 290.53 177.592 290.498C177.569 290.468 177.554 290.432 177.549 290.394C177.543 290.353 177.54 290.31 177.54 290.267V289.67C177.54 289.628 177.543 289.585 177.549 289.545C177.556 289.507 177.57 289.471 177.592 289.441C177.62 289.407 177.657 289.383 177.699 289.371C177.765 289.353 177.832 289.344 177.9 289.346H180.453C180.514 289.345 180.577 289.351 180.637 289.367C180.676 289.377 180.712 289.397 180.742 289.424C180.766 289.448 180.783 289.477 180.791 289.509C180.798 289.545 180.802 289.581 180.802 289.616C180.802 289.649 180.798 289.68 180.791 289.712C180.783 289.743 180.766 289.772 180.742 289.794C180.712 289.821 180.676 289.842 180.637 289.853C180.577 289.87 180.515 289.877 180.453 289.876H178.28V290.064H180.453C180.515 290.062 180.577 290.069 180.637 290.088C180.676 290.099 180.712 290.12 180.742 290.149C180.766 290.174 180.781 290.204 180.791 290.236C180.798 290.268 180.802 290.299 180.802 290.33C180.802 290.367 180.798 290.402 180.791 290.438C180.783 290.469 180.767 290.498 180.742 290.52C180.712 290.546 180.676 290.564 180.637 290.575C180.577 290.59 180.515 290.597 180.453 290.595H177.9Z" fill="#29A063"/>
<path d="M181.555 292.866C181.555 292.823 181.56 292.781 181.57 292.741C181.581 292.702 181.603 292.668 181.632 292.64C181.668 292.608 181.713 292.584 181.76 292.571C181.829 292.553 181.899 292.544 181.97 292.546H183.803C183.873 292.545 183.945 292.553 184.013 292.571C184.06 292.584 184.104 292.608 184.141 292.64C184.171 292.668 184.192 292.703 184.202 292.741C184.214 292.781 184.219 292.824 184.218 292.866C184.218 292.904 184.213 292.942 184.202 292.978C184.192 293.018 184.17 293.052 184.141 293.079C184.104 293.112 184.06 293.136 184.013 293.149C183.945 293.169 183.873 293.179 183.803 293.177H181.97C181.898 293.179 181.828 293.169 181.76 293.149C181.713 293.135 181.668 293.112 181.632 293.079C181.602 293.052 181.581 293.016 181.57 292.978C181.561 292.942 181.555 292.904 181.555 292.866ZM182.833 289.315C183.119 289.297 183.401 289.383 183.628 289.555C183.726 289.644 183.803 289.753 183.858 289.873C183.911 289.993 183.94 290.123 183.942 290.254C183.945 290.293 183.946 290.349 183.946 290.421V290.87C183.946 290.942 183.945 290.998 183.942 291.037C183.949 291.168 183.925 291.298 183.875 291.418C183.822 291.538 183.744 291.644 183.645 291.729C183.408 291.895 183.123 291.976 182.834 291.957C182.546 291.978 182.26 291.895 182.027 291.724C181.932 291.636 181.856 291.531 181.804 291.412C181.752 291.293 181.726 291.165 181.726 291.036C181.723 290.997 181.72 290.941 181.719 290.869C181.718 290.797 181.717 290.723 181.717 290.645C181.717 290.568 181.717 290.493 181.719 290.422C181.722 290.35 181.723 290.294 181.726 290.255C181.724 290.125 181.749 289.995 181.8 289.875C181.851 289.755 181.927 289.647 182.021 289.557C182.252 289.379 182.542 289.293 182.833 289.315ZM183.2 290.236C183.202 290.181 183.187 290.126 183.157 290.08C183.129 290.042 183.094 290.012 183.053 289.991C183.016 289.972 182.974 289.959 182.932 289.952C182.899 289.947 182.867 289.943 182.834 289.943C182.801 289.944 182.77 289.948 182.739 289.955C182.697 289.963 182.657 289.978 182.62 289.998C182.578 290.02 182.543 290.053 182.517 290.092C182.485 290.139 182.47 290.194 182.469 290.25C182.466 290.293 182.463 290.35 182.462 290.424C182.461 290.497 182.459 290.572 182.459 290.651C182.459 290.729 182.459 290.803 182.462 290.873C182.465 290.943 182.466 290.998 182.469 291.037C182.465 291.095 182.479 291.151 182.51 291.2C182.536 291.238 182.572 291.268 182.611 291.29C182.649 291.311 182.689 291.324 182.732 291.33C182.766 291.333 182.801 291.336 182.835 291.336C182.868 291.336 182.899 291.333 182.931 291.33C182.972 291.324 183.013 291.311 183.049 291.29C183.09 291.268 183.125 291.238 183.153 291.2C183.185 291.152 183.201 291.096 183.201 291.037C183.204 290.994 183.205 290.937 183.205 290.863V290.408C183.204 290.336 183.202 290.279 183.2 290.236ZM184.556 289.699C184.549 289.642 184.556 289.583 184.574 289.529C184.594 289.474 184.625 289.426 184.667 289.386C184.741 289.33 184.833 289.3 184.925 289.301C184.972 289.301 185.019 289.307 185.065 289.319C185.108 289.331 185.149 289.353 185.183 289.383C185.219 289.418 185.247 289.46 185.265 289.507C185.288 289.568 185.299 289.634 185.296 289.699V292.828C185.299 292.895 185.287 292.963 185.265 293.025C185.247 293.072 185.219 293.114 185.183 293.149C185.149 293.179 185.11 293.202 185.065 293.213C184.974 293.237 184.877 293.237 184.786 293.213C184.74 293.2 184.697 293.177 184.662 293.144C184.626 293.112 184.6 293.071 184.585 293.025C184.563 292.961 184.553 292.895 184.555 292.828L184.556 289.699Z" fill="#29A063"/>
<path d="M165.253 294.247C165.399 294.244 165.545 294.265 165.686 294.308C165.798 294.345 165.9 294.406 165.984 294.49C166.065 294.573 166.126 294.675 166.163 294.785C166.206 294.914 166.232 295.05 166.238 295.185C166.238 295.213 166.238 295.278 166.241 295.38C166.243 295.482 166.243 295.603 166.243 295.744C166.243 295.885 166.243 296.034 166.246 296.193C166.249 296.353 166.247 296.501 166.246 296.642C166.245 296.783 166.243 296.905 166.242 297.007C166.241 297.108 166.24 297.172 166.24 297.197C166.254 297.451 166.168 297.699 166.002 297.889C165.849 298.042 165.6 298.119 165.255 298.118C165.104 298.122 164.954 298.101 164.809 298.058C164.698 298.024 164.596 297.964 164.514 297.881C164.435 297.799 164.377 297.701 164.341 297.593C164.301 297.465 164.276 297.332 164.271 297.196C164.268 297.169 164.267 297.103 164.267 297.001C164.267 296.9 164.266 296.778 164.264 296.637C164.263 296.496 164.262 296.347 164.262 296.188C164.262 296.029 164.262 295.88 164.264 295.739C164.267 295.598 164.267 295.478 164.267 295.377C164.267 295.277 164.268 295.213 164.271 295.185C164.277 295.048 164.3 294.914 164.34 294.782C164.373 294.672 164.431 294.572 164.51 294.488C164.592 294.405 164.694 294.343 164.805 294.307C164.947 294.264 165.1 294.243 165.253 294.247ZM165.495 295.167C165.497 295.114 165.489 295.061 165.472 295.012C165.46 294.978 165.439 294.947 165.412 294.923C165.388 294.903 165.361 294.89 165.332 294.884C165.306 294.879 165.279 294.875 165.253 294.875C165.226 294.875 165.2 294.879 165.174 294.887C165.146 294.894 165.119 294.91 165.099 294.93C165.072 294.956 165.052 294.988 165.038 295.024C165.02 295.075 165.01 295.128 165.008 295.182C165.008 295.209 165.008 295.274 165.006 295.379C165.003 295.483 165.003 295.605 165.002 295.746C165.001 295.887 164.999 296.035 164.999 296.195C164.999 296.354 164.999 296.503 165.002 296.644C165.005 296.785 165.005 296.906 165.005 297.008C165.005 297.11 165.006 297.174 165.008 297.199C165.006 297.253 165.014 297.31 165.032 297.362C165.044 297.396 165.063 297.426 165.089 297.451C165.11 297.471 165.138 297.484 165.168 297.49C165.195 297.495 165.224 297.496 165.253 297.496C165.279 297.496 165.305 297.494 165.33 297.49C165.358 297.484 165.384 297.471 165.405 297.451C165.431 297.426 165.451 297.394 165.465 297.362C165.485 297.31 165.495 297.255 165.495 297.199C165.495 297.171 165.497 297.106 165.498 297.001C165.499 296.898 165.501 296.774 165.501 296.632V295.73C165.501 295.588 165.499 295.466 165.498 295.363C165.495 295.26 165.495 295.195 165.495 295.167ZM167.126 294.631C167.119 294.573 167.126 294.514 167.144 294.461C167.164 294.406 167.195 294.358 167.237 294.317C167.311 294.261 167.403 294.231 167.495 294.232C167.542 294.232 167.589 294.239 167.635 294.251C167.678 294.262 167.719 294.285 167.751 294.315C167.788 294.349 167.817 294.392 167.834 294.439C167.857 294.5 167.867 294.565 167.865 294.631V297.76C167.867 297.827 167.856 297.894 167.834 297.957C167.815 298.004 167.788 298.046 167.751 298.081C167.719 298.111 167.678 298.133 167.635 298.145C167.544 298.17 167.447 298.17 167.356 298.145C167.311 298.133 167.271 298.111 167.237 298.081C167.199 298.047 167.172 298.005 167.155 297.957C167.132 297.894 167.123 297.827 167.125 297.76L167.126 294.631Z" fill="#29A063"/>
<path d="M173.962 294.247C174.108 294.243 174.253 294.264 174.392 294.308C174.503 294.345 174.604 294.406 174.686 294.49C174.766 294.575 174.824 294.675 174.86 294.785C174.901 294.914 174.926 295.05 174.933 295.185C174.933 295.213 174.933 295.278 174.935 295.38C174.938 295.482 174.938 295.603 174.938 295.744C174.938 295.885 174.938 296.034 174.941 296.193C174.943 296.353 174.942 296.501 174.941 296.642C174.939 296.783 174.938 296.905 174.937 297.007C174.935 297.108 174.934 297.172 174.934 297.197C174.947 297.449 174.865 297.696 174.703 297.889C174.554 298.042 174.307 298.119 173.963 298.118C173.813 298.122 173.663 298.101 173.519 298.058C173.409 298.024 173.309 297.964 173.228 297.881C173.151 297.799 173.093 297.701 173.061 297.593C173.022 297.464 172.998 297.33 172.992 297.196C172.989 297.169 172.988 297.103 172.988 297.001C172.988 296.9 172.986 296.778 172.985 296.637C172.984 296.496 172.982 296.347 172.982 296.188C172.982 296.029 172.984 295.88 172.985 295.739C172.986 295.598 172.988 295.478 172.988 295.377C172.988 295.277 172.989 295.213 172.992 295.185C172.998 295.048 173.02 294.914 173.058 294.782C173.089 294.672 173.146 294.572 173.223 294.488C173.304 294.405 173.403 294.343 173.514 294.307C173.659 294.264 173.81 294.243 173.962 294.247ZM174.191 295.167C174.193 295.115 174.186 295.061 174.17 295.012C174.16 294.978 174.142 294.947 174.116 294.923C174.095 294.903 174.069 294.89 174.04 294.884C174.014 294.879 173.988 294.875 173.962 294.875C173.935 294.875 173.911 294.879 173.886 294.887C173.858 294.894 173.835 294.91 173.815 294.93C173.791 294.957 173.772 294.988 173.76 295.024C173.744 295.075 173.734 295.128 173.733 295.182C173.73 295.209 173.729 295.274 173.729 295.379C173.729 295.482 173.728 295.605 173.727 295.746C173.725 295.887 173.724 296.035 173.724 296.195C173.724 296.354 173.725 296.503 173.727 296.644C173.728 296.785 173.729 296.906 173.729 297.008C173.729 297.11 173.73 297.174 173.733 297.199C173.73 297.253 173.738 297.308 173.754 297.362C173.764 297.394 173.783 297.426 173.806 297.451C173.826 297.471 173.852 297.484 173.879 297.49C173.907 297.495 173.934 297.496 173.962 297.496C173.986 297.496 174.012 297.494 174.037 297.49C174.065 297.484 174.089 297.471 174.108 297.451C174.131 297.424 174.151 297.394 174.163 297.362C174.181 297.31 174.19 297.255 174.19 297.199C174.19 297.171 174.191 297.106 174.193 297.001C174.194 296.898 174.195 296.774 174.195 296.632V295.73C174.195 295.588 174.194 295.466 174.193 295.363C174.191 295.26 174.19 295.195 174.191 295.167ZM175.516 294.631C175.51 294.573 175.516 294.514 175.535 294.461C175.554 294.406 175.586 294.358 175.627 294.317C175.702 294.261 175.793 294.231 175.886 294.232C175.933 294.232 175.98 294.239 176.026 294.251C176.069 294.262 176.109 294.285 176.143 294.315C176.18 294.35 176.207 294.392 176.225 294.439C176.249 294.5 176.259 294.565 176.257 294.631V295.071H176.545C176.617 295.068 176.687 295.078 176.755 295.098C176.802 295.112 176.847 295.136 176.883 295.169C176.912 295.196 176.934 295.231 176.945 295.269C176.955 295.306 176.96 295.343 176.96 295.381C176.96 295.424 176.955 295.466 176.945 295.507C176.934 295.546 176.912 295.58 176.883 295.607C176.847 295.64 176.802 295.663 176.755 295.676C176.686 295.695 176.616 295.704 176.545 295.701H176.257V296.494H176.545C176.617 296.491 176.687 296.501 176.755 296.521C176.802 296.535 176.847 296.559 176.883 296.592C176.913 296.619 176.934 296.654 176.945 296.692C176.955 296.729 176.96 296.766 176.96 296.804C176.96 296.847 176.955 296.889 176.945 296.93C176.934 296.969 176.912 297.003 176.883 297.03C176.847 297.063 176.802 297.086 176.755 297.099C176.686 297.118 176.616 297.127 176.545 297.124H176.257V297.756C176.259 297.823 176.247 297.89 176.225 297.953C176.207 298 176.18 298.042 176.143 298.077C176.109 298.107 176.07 298.129 176.026 298.141C175.934 298.166 175.838 298.166 175.746 298.141C175.702 298.129 175.661 298.107 175.627 298.077C175.589 298.043 175.562 298.001 175.545 297.953C175.523 297.889 175.514 297.823 175.515 297.756L175.516 294.631Z" fill="#29A063"/>
<path d="M183.055 294.287C183.121 294.285 183.184 294.294 183.247 294.312C183.288 294.325 183.324 294.35 183.353 294.381C183.378 294.413 183.393 294.449 183.399 294.488C183.405 294.537 183.408 294.586 183.408 294.635V296.431C183.408 296.492 183.403 296.568 183.393 296.659C183.384 296.751 183.369 296.851 183.348 296.957C183.325 297.068 183.297 297.179 183.263 297.287C183.229 297.398 183.186 297.505 183.132 297.608C183.083 297.706 183.021 297.799 182.951 297.884C182.886 297.964 182.806 298.029 182.715 298.076C182.677 298.098 182.636 298.111 182.593 298.116C182.55 298.122 182.507 298.116 182.465 298.103C182.395 298.078 182.331 298.038 182.28 297.984C182.25 297.957 182.228 297.92 182.216 297.881C182.204 297.84 182.199 297.795 182.201 297.751C182.205 297.702 182.215 297.655 182.231 297.611C182.247 297.565 182.271 297.521 182.298 297.481C182.365 297.387 182.425 297.287 182.477 297.185C182.521 297.095 182.557 297.003 182.583 296.906C182.607 296.809 182.624 296.71 182.634 296.611C182.643 296.507 182.647 296.39 182.647 296.263V294.92H181.822C181.751 294.922 181.679 294.914 181.611 294.896C181.564 294.883 181.52 294.859 181.483 294.826C181.453 294.799 181.433 294.764 181.422 294.726C181.412 294.685 181.405 294.642 181.406 294.601C181.406 294.563 181.412 294.525 181.422 294.488C181.433 294.449 181.455 294.415 181.483 294.388C181.52 294.355 181.564 294.33 181.611 294.317C181.679 294.298 181.751 294.287 181.822 294.29H183.055V294.287ZM184.476 294.631C184.469 294.573 184.476 294.514 184.494 294.461C184.513 294.406 184.545 294.358 184.587 294.317C184.661 294.261 184.752 294.231 184.845 294.232C184.892 294.232 184.939 294.239 184.985 294.251C185.028 294.262 185.068 294.285 185.102 294.315C185.139 294.35 185.168 294.392 185.185 294.439C185.208 294.5 185.218 294.565 185.216 294.631V297.76C185.217 297.826 185.207 297.894 185.185 297.957C185.166 298.004 185.139 298.046 185.102 298.081C185.07 298.111 185.029 298.133 184.985 298.145C184.893 298.17 184.797 298.17 184.705 298.145C184.66 298.133 184.617 298.108 184.581 298.076C184.546 298.043 184.52 298.003 184.504 297.957C184.482 297.893 184.473 297.826 184.474 297.76L184.476 294.631Z" fill="#29A063"/>
<g clip-path="url(#clip2_181_8503)">
<path d="M126.181 218.316C128.406 218.419 130.117 219.269 130.768 221.975C131.211 221.219 131.545 220.861 131.643 220.447C131.998 218.923 132.993 218.387 134.453 218.38C134.818 218.377 135.186 218.163 135.852 217.695C135.376 217.342 134.94 216.898 134.414 216.654C133.137 216.069 133.307 215.072 133.509 214.01C133.597 213.554 133.602 213.086 133.695 212.092C131.577 214.11 129.62 213.827 127.519 212.499C128.53 214.868 128.257 216.786 126.091 218" fill="black"/>
<path d="M128.316 213.483C130.056 214.818 131.579 214.557 133.12 213.029C132.968 214.224 132.583 215.164 132.83 215.891C133.083 216.631 133.956 217.16 134.779 218.013C132.464 217.67 131.377 218.715 130.872 220.687C130.268 218.623 128.969 217.867 126.858 217.996C128.811 216.88 129.008 215.376 128.316 213.483Z" fill="black"/>
<path d="M139.613 227.818C137.675 225.273 139.766 227.704 139.613 227.818C136.406 223.604 137.571 224.579 134.363 220.365C134.219 220.475 134.076 220.582 133.932 220.692C137.132 224.913 139.613 227.818 139.613 227.818Z" fill="black"/>
<path d="M128.319 213.484C129.011 215.378 128.814 216.882 126.864 218C128.975 217.869 130.274 218.627 130.878 220.691C131.383 218.717 132.47 217.671 134.785 218.017C133.961 217.164 133.086 216.635 132.835 215.894C132.589 215.171 132.972 214.23 133.125 213.033C131.583 214.556 130.059 214.817 128.319 213.484Z" fill="white"/>
</g>
</g>
<g clip-path="url(#clip3_181_8503)">
<path d="M228.714 242.445C226.489 242.548 224.778 243.398 224.127 246.104C223.683 245.348 223.349 244.99 223.252 244.575C222.896 243.052 221.902 242.516 220.442 242.509C220.076 242.506 219.708 242.292 219.043 241.824C219.518 241.47 219.954 241.027 220.481 240.783C221.758 240.198 221.587 239.201 221.385 238.139C221.297 237.683 221.293 237.215 221.2 236.221C223.318 238.239 225.275 237.956 227.376 236.628C226.364 238.997 226.637 240.915 228.804 242.128" fill="black"/>
<path d="M226.575 237.612C224.835 238.947 223.311 238.686 221.771 237.158C221.922 238.352 222.307 239.293 222.061 240.019C221.808 240.76 220.935 241.289 220.111 242.142C222.427 241.799 223.514 242.844 224.018 244.816C224.623 242.752 225.922 241.996 228.032 242.125C226.08 241.009 225.883 239.505 226.575 237.612Z" fill="black"/>
<path d="M213.464 254.628C213.311 254.513 213.374 254.501 213.221 254.384C216.428 250.17 217.323 248.708 220.53 244.494C220.674 244.604 220.817 244.711 220.961 244.821C217.761 249.042 216.664 250.407 213.464 254.628Z" fill="black"/>
<path d="M226.575 237.609C225.883 239.503 226.081 241.007 228.03 242.125C225.92 241.994 224.621 242.752 224.016 244.816C223.512 242.842 222.425 241.796 220.109 242.142C220.933 241.289 221.808 240.76 222.059 240.019C222.305 239.296 221.923 238.355 221.769 237.158C223.312 238.681 224.835 238.942 226.575 237.609Z" fill="white"/>
</g>
</g>
<defs>
<clipPath id="clip0_181_8503">
<rect width="360" height="360" fill="white"/>
</clipPath>
<clipPath id="clip1_181_8503">
<rect width="105.531" height="160.124" fill="white" transform="translate(126.332 154.334)"/>
</clipPath>
<clipPath id="clip2_181_8503">
<rect width="17.9012" height="21.2572" fill="white" transform="matrix(-1 0 0 1 143.99 212.094)"/>
</clipPath>
<clipPath id="clip3_181_8503">
<rect width="17.9012" height="21.2572" fill="white" transform="translate(210.904 236.223)"/>
</clipPath>
</defs>
</svg>
