<svg width="1060" height="1060" viewBox="0 0 1060 1060" fill="none" xmlns="http://www.w3.org/2000/svg">
<g clip-path="url(#clip0_331_125)">
<rect width="1060" height="1060" fill="#3A8764"/>
<g opacity="0.5">
<path d="M-48 631.848H467.75" stroke="#38642D" stroke-width="8" stroke-miterlimit="10" stroke-linejoin="round"/>
<path d="M-48 787.141H467.75" stroke="#38642D" stroke-width="8" stroke-miterlimit="10" stroke-linejoin="round"/>
<path d="M160.812 631.848V787.144" stroke="#38642D" stroke-width="8" stroke-miterlimit="10" stroke-linejoin="round"/>
<path d="M375.905 384H49.3418V564.395H375.905V384Z" stroke="#38642D" stroke-width="8" stroke-miterlimit="10" stroke-linejoin="round"/>
<path d="M49.3418 538.512H375.12" stroke="#38642D" stroke-width="8" stroke-miterlimit="10" stroke-linejoin="round"/>
<path d="M200.062 547.926H224.398" stroke="#38642D" stroke-width="8" stroke-miterlimit="10" stroke-linejoin="round"/>
<path d="M272.282 434.195L226.752 479.686" stroke="#38642D" stroke-width="8" stroke-miterlimit="10" stroke-linejoin="round"/>
<path d="M313.89 421.648L268.359 467.139" stroke="#38642D" stroke-width="8" stroke-miterlimit="10" stroke-linejoin="round"/>
<path d="M307.607 456.941L262.076 502.432" stroke="#38642D" stroke-width="8" stroke-miterlimit="10" stroke-linejoin="round"/>
<path d="M212.623 564.395V608.317" stroke="#38642D" stroke-width="8" stroke-miterlimit="10" stroke-linejoin="round"/>
<path d="M140.402 631.85V608.32H284.844V631.85" stroke="#38642D" stroke-width="8" stroke-miterlimit="10" stroke-linejoin="round"/>
<path d="M-33.8691 714.199H160.813" stroke="#38642D" stroke-width="8" stroke-miterlimit="10" stroke-linejoin="round"/>
<path d="M187.504 700.082V726.749" stroke="#38642D" stroke-width="8" stroke-miterlimit="10" stroke-linejoin="round"/>
<path d="M418.295 787.144V820.87H447.34V787.144V631.848" stroke="#38642D" stroke-width="8" stroke-miterlimit="10" stroke-linejoin="round"/>
<path d="M2.24023 787.145V725.184H16.3704V787.145" stroke="#38642D" stroke-width="8" stroke-miterlimit="10" stroke-linejoin="round"/>
<path d="M27.3613 787.145V725.184H42.2765V787.145" stroke="#38642D" stroke-width="8" stroke-miterlimit="10" stroke-linejoin="round"/>
<path d="M53.2656 787.145V725.184H68.1808V787.145" stroke="#38642D" stroke-width="8" stroke-miterlimit="10" stroke-linejoin="round"/>
<path d="M79.1719 787.145V725.184H93.302V787.145" stroke="#38642D" stroke-width="8" stroke-miterlimit="10" stroke-linejoin="round"/>
<path d="M105.076 787.145V725.184H119.206V787.145" stroke="#38642D" stroke-width="8" stroke-miterlimit="10" stroke-linejoin="round"/>
<path d="M130.197 787.145V725.184H145.112V787.145" stroke="#38642D" stroke-width="8" stroke-miterlimit="10" stroke-linejoin="round"/>
</g>
<g opacity="0.5">
<path d="M541.128 172.241C553.41 172.241 563.366 162.285 563.366 150.003C563.366 137.722 553.41 127.766 541.128 127.766C528.847 127.766 518.891 137.722 518.891 150.003C518.891 162.285 528.847 172.241 541.128 172.241Z" stroke="#38642D" stroke-width="8" stroke-miterlimit="10"/>
<path d="M1271.64 150H562.254" stroke="#38642D" stroke-width="8" stroke-miterlimit="10"/>
<path d="M1009.23 740.428V108.875H1250.51V740.428C1250.51 740.428 1229.39 705.959 1206.04 705.959C1182.69 705.959 1179.35 740.428 1166.01 740.428C1152.67 740.428 1138.21 705.959 1122.65 705.959C1107.08 705.959 1098.18 740.428 1082.62 740.428C1067.05 740.428 1055.93 707.071 1041.48 707.071C1027.02 707.071 1019.24 740.428 1009.23 740.428Z" stroke="#38642D" stroke-width="8" stroke-miterlimit="10" stroke-linejoin="round"/>
<path d="M590.055 740.428V108.875H831.335V740.428C831.335 740.428 810.209 705.959 786.859 705.959C763.509 705.959 760.174 740.428 746.831 740.428C733.488 740.428 719.034 705.959 703.467 705.959C687.901 705.959 679.006 740.428 663.439 740.428C647.873 740.428 636.754 707.071 622.299 707.071C607.845 707.071 598.95 740.428 590.055 740.428Z" stroke="#38642D" stroke-width="8" stroke-miterlimit="10" stroke-linejoin="round"/>
<path d="M766.854 150V512.476" stroke="#38642D" stroke-width="8" stroke-miterlimit="10"/>
<path d="M766.854 572.52V605.876" stroke="#38642D" stroke-width="8" stroke-miterlimit="10"/>
<path d="M695.688 319.004V658.13" stroke="#38642D" stroke-width="8" stroke-miterlimit="10"/>
<path d="M631.188 220.062V383.51" stroke="#38642D" stroke-width="8" stroke-miterlimit="10"/>
<path d="M1053.71 228.969V383.521" stroke="#38642D" stroke-width="8" stroke-miterlimit="10"/>
<path d="M1053.71 424.637V459.105" stroke="#38642D" stroke-width="8" stroke-miterlimit="10"/>
</g>
<path opacity="0.5" d="M-17 821H1061" stroke="#38642D" stroke-width="8"/>
<ellipse cx="865.237" cy="899.929" rx="173.03" ry="58.9789" transform="rotate(-5.74613 865.237 899.929)" fill="black" fill-opacity="0.3"/>
<ellipse cx="447.993" cy="997.365" rx="358.084" ry="59.9958" transform="rotate(2.78034 447.993 997.365)" fill="black" fill-opacity="0.3"/>
<g clip-path="url(#clip1_331_125)">
<path d="M1020.57 880.692C1019 875.858 1017.58 870.868 1015.7 866.034C1014.44 862.759 1013.34 858.86 1010.98 856.833C1006.74 853.558 1004.07 849.972 1003.13 844.514C1000.93 833.598 992.597 829.075 982.696 826.268C981.125 825.8 979.082 824.865 978.296 823.461C971.067 809.426 962.267 807.711 953.938 820.81C948.595 829.387 941.523 832.506 933.351 835.313C921.879 839.212 913.236 846.853 905.85 855.741C903.179 858.86 903.179 864.162 902.079 867.905C878.349 870.556 854.305 873.051 829.475 875.858C829.475 875.078 829.318 872.895 829.161 870.712C827.59 840.459 826.018 810.206 824.447 779.953C824.132 773.248 823.504 766.698 822.875 759.992C822.561 755.782 823.661 752.819 828.847 753.131C830.104 753.287 831.361 752.663 832.618 752.351C842.205 749.856 842.99 748.453 841.89 738.784C840.633 728.336 839.533 718.044 838.747 707.595C837.49 690.754 837.49 673.756 835.29 656.914C831.676 630.404 829.475 603.425 818.318 578.318C832.147 570.521 845.662 563.036 859.02 555.395C864.52 552.276 868.606 548.845 868.763 541.204C869.077 529.352 865.62 519.528 859.02 509.859C851.476 498.943 844.562 487.559 839.062 475.708C828.533 453.252 809.675 441.712 787.516 433.447C783.588 432.044 779.816 429.081 777.145 425.806C770.544 417.697 769.13 408.808 771.487 398.048C773.373 389.627 773.059 379.959 770.387 371.85C768.03 364.832 762.373 358.906 759.23 351.421C754.829 341.129 729.371 339.569 723.714 350.485C721.985 353.916 717.899 356.411 714.442 358.594C696.684 369.51 685.212 398.204 703.913 417.073C709.885 423.155 714.599 430.172 720.414 436.254C729.214 445.143 735.5 446.079 746.658 441.4C752.944 451.381 753.101 451.537 743.357 458.866C735.186 464.948 728.428 470.874 730.157 483.037C731.1 489.275 727.171 496.136 726.071 502.842C723.871 516.097 730.471 527.793 734.243 539.8C737.229 549.157 738.014 558.202 735.5 567.558C727.485 597.344 722.299 627.441 724.185 658.473C724.499 662.684 721.828 667.986 718.842 671.105C700.141 690.286 680.969 708.999 661.797 727.712C656.611 732.702 648.91 736.445 646.082 742.371C639.796 755.938 627.224 763.111 618.109 773.715C616.852 775.275 614.338 775.899 612.137 776.678C607.737 778.394 602.551 778.862 599.094 781.513C590.922 788.218 582.279 789.622 572.064 787.906C567.821 787.126 560.592 788.53 558.707 791.337C552.735 800.849 542.363 802.409 534.191 807.711C518.633 817.535 503.233 827.516 487.046 836.405C479.189 840.771 470.074 843.578 461.274 845.293C444.773 848.568 427.801 852.623 411.143 852.311C391.342 851.999 371.384 847.944 353.941 837.184C347.183 832.974 341.211 827.36 335.868 821.59C325.811 810.83 293.438 814.728 286.052 828.607C283.538 833.442 279.452 837.496 273.794 842.174C272.694 835.313 271.908 828.451 270.651 821.59C269.394 814.728 267.665 808.023 265.937 800.226C271.908 794.924 263.894 795.236 261.065 792.896C263.108 791.337 265.623 789.622 267.98 787.75C267.665 787.126 267.351 786.659 267.037 786.035C262.951 787.438 258.708 788.842 254.151 790.557C253.836 788.062 253.365 785.723 253.051 782.916C251.165 783.072 249.593 783.384 248.65 783.384C247.865 779.173 247.079 774.807 246.136 770.597C243.464 772 240.95 773.403 238.278 774.807C237.964 772.468 237.493 769.661 237.021 766.23C235.607 767.01 234.978 767.322 234.978 767.478C234.193 780.109 230.264 784.32 215.806 787.594C203.863 790.245 192.548 794.612 187.362 806.152C183.905 813.793 183.119 822.682 180.919 832.506C179.819 833.442 177.147 835.625 174.319 837.964C174.79 838.744 175.419 839.367 175.89 840.147C177.462 839.367 179.033 838.744 179.347 838.588C183.276 842.798 186.891 846.541 189.248 849.192C182.805 858.86 175.733 867.437 170.861 877.262C161.589 895.819 153.575 915.156 145.403 934.181C143.832 937.612 142.26 941.51 142.574 945.097C143.36 952.582 138.803 953.83 133.145 955.389C118.216 959.444 105.33 955.077 92.9151 947.592C90.715 946.345 88.672 944.785 86.3148 943.382C85.8433 953.83 91.815 962.719 101.715 965.993C132.517 975.974 163.161 986.422 194.434 995.311C216.435 1001.55 238.278 1009.66 261.851 1009.81C266.408 1009.81 270.966 1012.46 275.366 1014.18C280.08 1015.9 284.323 1019.01 289.352 1014.49C290.452 1013.4 293.438 1013.4 295.009 1014.02C307.424 1018.55 318.11 1013.24 328.954 1008.72C342.312 1003.11 355.984 997.806 369.341 992.348C370.598 991.88 371.698 990.788 372.956 989.853C361.484 977.533 346.24 977.221 330.84 974.882C334.454 969.268 337.754 963.498 341.526 958.352C342.783 956.637 345.926 955.077 347.655 955.389C357.398 957.105 367.455 958.508 376.57 961.939C394.328 968.488 412.557 971.607 431.415 972.387C440.53 972.855 449.645 974.57 458.288 977.377C462.374 978.625 465.517 983.615 468.188 987.358C474.16 995.935 480.446 1002.33 492.389 1003.73C505.276 1005.29 517.691 1010.91 530.577 1014.18C538.749 1016.21 547.078 1017.61 555.406 1018.39C564.678 1019.33 573.95 1019.79 583.379 1019.95C610.88 1020.57 637.596 1015.27 664.468 1009.97C676.726 1007.47 689.141 1007.01 701.713 1006.69C719.314 1006.23 734.557 1013.24 751.058 1015.58C759.072 1016.67 766.616 1020.57 774.63 1021.35C785.002 1022.29 791.131 1016.99 792.86 1006.07C794.117 998.897 787.674 995.934 782.645 992.192C769.601 982.367 754.986 979.56 739.114 979.716C737.7 979.716 735.814 979.56 734.714 978.625C722.142 968.8 709.099 973.479 695.27 975.662C680.498 978.001 664.468 978.937 650.011 975.506C640.739 973.323 632.881 963.03 625.495 955.389C616.066 945.721 614.809 932.466 614.338 919.834C613.709 900.185 614.809 880.537 614.023 860.888C613.552 848.1 611.037 835.313 609.309 821.902C616.223 820.81 617.795 815.82 617.638 808.023C617.481 802.565 619.681 796.015 623.295 791.961C632.253 781.513 642.31 772 652.525 762.799C657.868 757.809 665.097 754.846 670.126 749.544C686.469 732.546 702.341 714.769 718.371 697.459C720.099 695.588 722.142 694.028 724.971 691.377C725.285 694.34 725.757 696.212 725.757 698.083C725.757 714.613 725.914 731.143 725.757 747.829C725.6 754.534 727.014 758.589 735.186 757.809C741.786 757.185 746.343 759.836 747.286 767.322C748.858 780.421 751.372 793.364 752.472 806.619C754.044 825.021 754.515 843.422 755.772 861.979C756.244 868.529 754.044 873.519 750.586 875.858C745.243 875.858 741.786 875.078 738.8 876.014C729.057 878.821 719.471 882.096 709.727 885.527C707.684 886.306 705.484 887.554 704.07 889.269C702.184 891.453 699.041 895.507 699.827 896.443C701.87 899.094 705.17 901.745 708.313 902.057C715.856 902.836 723.557 902.369 731.1 902.369C741.472 902.369 751.844 902.369 763.315 903.928C757.972 908.45 752.629 912.973 747.286 917.495C744.772 919.678 741.943 921.55 739.586 923.889C734.086 929.659 736.129 936.052 743.986 938.08C756.715 941.51 768.973 939.015 780.916 934.961C792.074 931.218 802.76 926.54 813.603 921.861C819.418 919.366 820.832 912.817 816.118 909.074C809.046 903.304 810.617 895.507 809.36 890.673C813.603 893.636 818.475 899.25 824.29 900.341C830.575 901.589 837.962 899.25 844.405 897.222C849.905 895.507 854.777 893.324 860.905 895.975C864.048 897.378 868.606 895.507 872.534 895.039C881.963 893.948 891.392 892.544 900.821 891.92C903.65 891.764 908.365 893.168 909.15 895.039C913.236 904.864 922.194 906.579 930.68 906.891C944.352 907.515 958.181 906.111 971.853 905.955C973.896 905.955 976.096 907.359 977.825 908.606C995.583 921.394 1018.37 910.166 1019.63 892.388C1019.63 892.076 1020.41 891.92 1020.73 891.608C1020.57 888.022 1020.57 884.435 1020.57 880.692ZM602.394 794.612C604.909 794.3 607.423 793.52 609.937 793.832C616.223 794.456 617.009 796.951 613.08 803.189C610.409 802.097 607.737 801.161 604.594 799.914C606.794 798.51 608.052 797.731 610.252 796.171C606.794 795.547 604.594 795.08 602.394 794.612C600.98 796.483 599.723 798.354 598.465 800.382C602.08 802.409 605.694 804.28 609.309 806.308C606.794 811.921 603.18 817.224 597.365 814.572C584.322 808.959 571.907 801.785 557.764 794.456C561.85 792.584 564.364 790.401 566.25 790.869C574.736 793.052 583.065 796.015 589.508 798.198C594.694 796.795 598.465 795.703 602.394 794.612ZM346.24 835.313C354.569 845.293 366.827 847.009 378.299 850.128C394.957 854.65 411.772 858.081 429.215 854.338C435.658 852.935 442.259 851.999 449.959 850.751C438.801 891.608 429.687 930.594 448.388 969.268C411.457 973.791 379.87 956.637 345.14 951.335C351.112 941.666 351.112 931.998 350.64 921.706C350.169 908.138 348.912 894.415 352.683 880.537C354.883 872.427 351.112 862.603 349.698 853.558C348.755 847.477 347.34 841.395 346.083 835.313C341.683 836.093 342.312 838.588 343.097 842.174C346.083 854.65 348.598 867.281 351.269 880.381C336.654 877.885 324.711 879.289 315.125 888.334C307.424 877.106 300.038 866.502 292.652 855.741C291.866 856.209 291.238 856.677 290.452 857.145C292.181 860.108 293.281 863.539 295.481 866.034C307.424 879.289 312.767 895.507 317.01 912.349C319.996 924.668 319.682 936.052 312.767 946.812C311.667 948.528 308.524 950.087 306.481 949.931C292.652 948.372 278.98 946.345 265.308 944.629C256.194 943.538 247.393 942.758 242.679 932.622C240.479 927.787 236.707 922.797 229.792 923.889C225.549 924.668 221.149 925.604 217.535 927.475C211.72 930.438 207.949 930.282 206.534 922.329C226.807 917.339 244.407 906.891 259.651 892.7C266.094 901.277 276.152 902.057 278.98 894.415C282.909 883.499 286.838 872.272 283.38 860.264C280.709 851.063 277.409 842.174 286.052 833.442C294.381 825.021 302.553 818.471 315.282 818.627C328.954 818.627 337.44 827.204 346.24 835.313ZM765.358 1016.67C742.572 1011.22 721.671 1002.48 698.884 1003.73C685.841 1004.36 672.797 1006.54 659.911 1008.25C641.682 1010.75 623.452 1014.8 605.066 1015.74C585.108 1016.83 564.521 1017.14 544.877 1014.34C528.691 1012 513.29 1004.67 497.733 999.053C494.275 997.806 490.975 994.687 488.618 991.724C481.075 982.056 483.589 973.011 490.504 963.966C498.518 953.674 509.362 950.399 521.462 952.426C531.677 954.142 542.206 956.481 545.506 968.8C545.663 969.736 547.078 970.516 548.178 970.828C559.807 975.662 571.75 978.157 584.322 977.065C588.879 976.598 593.594 975.506 598.151 975.662C608.837 975.818 619.366 976.286 630.053 977.221C639.796 978.001 649.539 979.093 659.125 980.652C674.997 983.303 690.555 981.432 705.799 977.377C713.656 975.35 720.571 974.102 727.642 979.405C730.785 981.588 735.186 983.303 739.114 983.147C756.087 982.679 771.016 987.514 783.902 998.274C786.416 1000.3 788.459 1002.8 790.659 1005.14C790.031 1005.91 789.559 1006.85 788.931 1007.63C782.802 1005.14 776.516 1002.8 770.387 1000.3C770.073 1001.08 769.759 1001.86 769.287 1002.64C775.259 1006.07 781.073 1009.5 787.045 1012.93C786.731 1013.56 786.259 1014.02 785.945 1014.65C780.288 1012.62 774.787 1010.59 769.601 1008.72C767.873 1011.37 766.616 1014.18 765.358 1016.67ZM488.146 999.521C487.518 1000.14 487.046 1000.61 486.418 1001.24C481.86 996.87 477.303 992.816 473.06 988.293C469.131 983.927 466.46 977.065 461.588 975.194C451.845 971.451 449.173 963.966 447.13 955.545C444.459 944.005 439.744 932.154 440.53 920.77C441.944 901.277 447.759 882.096 450.43 862.447C451.845 853.09 456.716 849.816 465.045 848.1C476.046 845.761 486.889 843.266 495.375 834.845C498.833 831.414 503.861 829.543 507.004 827.516C507.633 839.056 507.004 850.907 509.204 862.291C510.933 871.18 515.962 879.445 519.733 888.022C524.291 898.47 533.405 899.25 544.092 897.222C537.649 905.955 532.148 913.596 527.277 920.302C532.62 932.154 537.806 943.849 542.992 955.545C522.719 945.097 496.632 944.473 483.275 967.397C479.346 974.102 478.403 980.34 482.018 987.202C484.218 991.256 486.103 995.311 488.146 999.521ZM568.136 851.531C567.507 851.375 567.036 851.219 566.407 851.063C565.15 854.338 564.521 858.081 562.478 860.888C555.406 871.18 547.706 881.004 540.477 891.141C536.706 896.443 532.463 895.663 528.062 892.544C525.862 890.985 524.448 888.334 522.719 886.15C513.919 874.767 512.033 861.2 510.462 847.632C508.89 834.533 511.247 823.305 525.077 817.068C531.834 814.105 538.12 810.206 544.406 806.152C552.106 801.161 558.549 803.033 566.093 807.243C577.407 813.481 589.665 817.847 601.451 823.305C603.337 824.241 605.537 826.424 605.851 828.451C607.737 840.771 610.095 853.09 610.566 865.41C611.352 883.967 610.095 902.68 611.037 921.238C611.666 935.584 613.08 950.243 625.181 961.159C628.952 964.59 631.781 969.112 635.867 974.102C620.466 973.323 606.48 972.543 591.551 971.763C592.179 965.993 593.594 960.691 593.437 955.389C592.651 936.208 588.094 917.963 577.722 901.277C571.121 890.517 566.407 878.509 566.878 865.41C567.35 860.888 567.821 856.209 568.136 851.531ZM790.817 628.376C792.231 631.027 795.374 634.302 795.845 638.045C798.36 656.446 801.503 674.847 802.289 693.249C803.074 713.053 801.503 732.858 800.874 752.663C800.874 753.287 800.246 754.067 799.146 756.406C782.645 756.406 765.516 756.406 748.543 756.406C728.9 756.406 728.9 756.25 728.9 737.225C728.9 723.502 730.314 709.623 728.428 696.212C727.171 687.635 731.1 683.736 735.814 678.902C740.529 674.068 744.615 668.922 749.329 664.087C754.986 658.473 760.801 652.859 766.773 647.713C774.159 641.32 782.016 635.394 790.817 628.376ZM106.744 964.122C128.274 959.444 149.332 953.362 171.49 955.233C173.061 955.389 174.633 954.921 176.047 954.765C196.005 951.803 213.449 942.914 229.321 931.218C233.878 927.787 236.078 929.191 238.907 932.778C249.436 946.189 259.808 959.756 270.494 973.011C273.166 976.286 273.794 979.093 271.594 983.147C267.351 991.1 268.451 999.365 271.751 1008.25C214.077 1002.48 161.118 980.808 106.744 964.122ZM795.531 558.358C796.788 552.588 797.888 546.818 799.146 541.048C798.36 540.892 797.417 540.736 796.631 540.58C795.374 545.258 794.117 550.093 793.017 554.771C791.76 560.541 787.516 561.633 782.488 561.944C775.102 562.256 767.873 562.724 760.487 562.88C757.658 562.88 754.515 562.88 751.844 562.1C748.072 561.009 744.457 559.293 742.257 558.514C738.8 546.974 736.443 535.278 732.043 524.518C725.442 508.144 730.314 493.017 735.5 477.891C736.286 475.552 739.429 472.745 741.629 472.589C755.458 471.341 769.287 470.874 783.745 470.094C771.959 510.639 781.702 533.719 818.946 533.407C819.261 548.845 812.032 557.734 795.531 558.358ZM788.302 610.599C799.931 609.975 810.932 617.304 813.289 631.495C816.746 652.859 819.104 674.224 821.147 695.744C821.775 702.293 819.732 708.999 819.889 715.549C820.204 738.16 820.675 760.928 821.461 783.54C822.247 804.28 823.504 825.021 824.604 845.761C825.075 855.43 825.547 865.254 826.175 874.923C826.804 884.747 829.161 886.462 839.533 883.655C837.019 882.72 835.29 882.096 833.09 881.16C837.647 879.757 841.733 878.509 845.976 877.262C858.705 873.207 861.377 875.234 860.591 888.334C860.591 888.646 860.434 888.801 860.434 888.801C852.105 891.297 843.776 893.792 835.604 896.287C823.189 900.185 813.76 894.727 812.189 882.096C810.617 869.62 809.675 857.145 809.046 844.67C807.317 815.196 805.274 785.879 804.489 756.406C804.017 739.252 805.903 721.942 805.746 704.788C805.432 687.635 805.274 670.325 802.289 653.483C799.46 638.98 793.017 625.101 788.302 610.599ZM801.66 444.207C815.961 450.289 827.432 461.517 835.29 476.02C842.519 489.119 849.591 502.374 857.92 514.85C863.891 523.738 866.091 532.783 865.306 543.075C864.834 549.001 855.719 554.927 852.262 551.028C845.662 544.011 838.119 540.58 828.218 542.14C828.218 541.36 828.218 540.424 828.061 539.645C833.09 537.305 838.119 534.966 844.562 532.003C839.533 532.003 835.919 532.003 831.833 532.003C819.261 512.822 806.532 493.485 793.96 474.304C793.645 477.267 793.174 480.542 792.86 483.505C795.217 486 798.36 488.651 800.717 491.77C806.06 499.255 810.932 506.896 816.118 514.382C819.575 519.372 821.304 524.05 816.903 529.352C795.531 530.444 781.545 517.968 782.331 497.072C782.645 488.339 786.259 479.762 787.045 471.029C787.831 459.646 794.588 452.004 801.66 444.207ZM218.478 824.865C227.121 819.251 234.507 825.644 241.264 825.177C251.322 824.553 253.522 836.093 261.851 835.469C261.065 828.451 260.437 822.37 259.808 816.288C269.394 822.837 270.651 828.919 267.037 836.872C271.908 845.449 276.623 852.467 279.923 860.108C284.638 871.024 279.137 881.628 276.466 891.92C275.051 897.534 268.608 897.846 264.994 892.856C262.48 889.425 260.279 885.683 257.765 881.628C262.794 875.546 266.88 861.511 264.208 851.999C262.322 858.081 261.065 864.474 259.494 870.712C256.351 883.499 247.079 888.49 235.45 882.252C226.492 877.418 218.635 870.556 209.992 864.318C213.292 861.511 215.02 859.952 216.906 858.393C216.592 857.925 216.435 857.613 216.12 857.145C213.92 858.081 211.877 859.016 209.677 859.952C205.277 855.274 198.205 851.531 204.806 843.578C208.106 839.679 211.563 835.781 215.02 832.038C215.963 833.442 216.749 834.533 218.792 837.496C218.478 831.57 218.478 827.828 218.478 824.865ZM533.248 920.926C542.992 903.772 553.364 885.683 563.578 867.749C564.521 883.032 570.65 896.599 578.193 909.698C588.565 927.631 592.337 947.124 588.722 967.553C588.251 970.048 583.851 973.791 581.65 973.635C572.064 972.855 562.478 971.14 553.049 968.956C551.163 968.488 549.278 965.058 548.335 962.719C543.149 948.684 538.12 934.493 533.248 920.926ZM275.68 1010.28C275.209 1009.97 274.894 1009.5 274.423 1009.19C279.295 1004.51 284.323 999.833 289.195 995.311C288.723 994.999 288.409 994.531 287.938 994.219C282.909 996.87 277.88 999.521 273.009 1002.17C274.423 998.118 276.623 994.843 279.452 992.504C282.28 990.009 285.895 988.137 289.824 985.642C281.023 980.184 277.88 988.761 272.537 990.477C274.266 984.707 280.866 977.221 284.795 977.533C286.366 977.689 287.781 979.872 289.195 981.12C299.253 981.432 303.81 974.414 307.581 966.149C310.567 959.6 314.653 953.674 317.01 946.968C319.525 940.107 322.039 932.778 321.882 925.76C321.568 916.559 318.268 907.515 317.168 898.158C316.853 895.351 317.953 890.517 319.996 889.269C328.011 884.279 336.654 879.757 347.497 883.343C347.497 885.371 347.497 887.554 347.497 889.893C347.497 901.589 347.655 913.129 347.34 924.824C347.183 931.218 347.969 938.391 345.14 943.694C335.083 962.719 323.768 981.12 313.082 999.677C309.939 1005.14 306.167 1008.88 299.095 1008.41C295.795 1008.25 292.338 1009.97 288.881 1010.91C286.209 1011.53 283.695 1012.31 281.023 1013.09C280.866 1012.62 280.709 1012 280.552 1011.53C284.795 1009.19 288.881 1006.69 293.124 1004.36C292.495 1003.58 292.024 1002.8 291.395 1001.86C286.052 1004.67 280.866 1007.47 275.68 1010.28ZM748.858 759.525C755.929 759.525 762.373 759.369 768.973 759.68C770.387 759.68 772.273 760.928 773.059 762.02C781.545 775.587 781.859 790.557 779.973 805.684C778.087 820.81 775.259 835.937 774.63 851.063C774.159 862.447 776.673 873.831 777.145 885.371C777.302 887.866 775.102 892.232 773.216 892.7C763.944 895.195 753.886 889.893 750.586 883.343C753.729 876.482 758.287 870.868 758.287 865.254C758.129 840.303 756.558 815.508 755.458 790.557C755.458 789.622 754.986 788.53 754.829 787.594C752.786 778.706 750.901 769.505 748.858 759.525ZM144.46 950.867C145.875 944.941 146.66 938.547 148.703 932.622C152.318 922.953 155.932 913.129 160.961 903.928C169.761 887.866 179.505 872.427 188.933 856.677C191.605 852.311 194.905 852.623 198.205 856.209C206.22 865.41 214.077 874.767 222.092 883.967C218.478 879.757 212.977 876.95 207.949 873.363C202.291 869.465 196.948 870.244 193.962 876.17C190.976 881.784 188.619 887.71 186.105 893.48C179.347 909.23 181.233 927.787 169.29 942.134C171.804 941.354 174.319 940.263 175.104 938.391C178.404 929.815 185.476 927.164 193.491 925.604C196.162 924.98 198.991 924.512 202.134 923.889C203.077 925.136 204.177 926.54 205.12 927.943C206.22 929.347 207.163 930.594 208.263 932.154C188.148 942.758 170.39 957.728 144.46 950.867ZM188.305 831.882C187.362 829.075 186.105 827.048 185.948 824.709C185.162 812.857 194.905 797.887 205.906 793.676C213.92 790.713 222.092 787.594 230.264 784.787C232.621 784.008 235.45 784.319 237.807 784.164C239.378 781.824 240.95 779.485 242.521 776.99C242.993 777.302 243.464 777.458 243.936 777.77C243.936 781.357 243.936 784.787 243.936 788.842C245.979 788.374 247.55 788.062 249.908 787.594C248.179 791.025 246.922 793.52 245.507 796.327C251.322 796.327 256.665 796.327 260.122 796.327C261.851 802.565 263.265 807.243 264.522 811.766C256.351 812.389 256.036 816.756 256.351 827.672C244.564 818.315 230.264 818.471 216.906 818.315C213.763 822.837 209.834 827.828 206.534 833.13C203.077 838.588 200.248 844.358 196.948 850.128C192.862 846.697 188.305 842.954 183.59 839.056C185.633 836.249 187.205 833.754 188.305 831.882ZM787.674 895.975C796.16 848.1 796.945 803.345 776.83 759.836C784.688 759.057 792.388 758.433 800.56 757.653C801.346 770.285 801.817 781.668 802.603 793.208C803.389 804.592 804.803 816.132 805.432 827.516C806.217 843.89 806.689 860.42 807.16 876.794C807.474 886.306 807.946 895.975 807.789 905.487C807.789 908.45 805.903 911.569 804.803 914.532C801.974 913.129 798.046 912.349 796.317 910.01C792.545 905.02 789.717 899.25 787.674 895.975ZM710.985 401.791C709.885 405.221 708.47 409.12 707.056 413.642C694.17 403.818 693.541 386.976 707.213 368.731C715.699 357.347 739.429 353.916 754.044 362.025C769.287 370.602 774.159 380.426 766.301 403.038C761.43 401.011 761.43 401.011 762.53 396.021C763.63 391.031 759.701 383.233 755.301 382.454C750.743 381.518 747.286 382.766 745.872 388.068C745.243 390.407 743.357 392.434 742.1 394.617C740.843 392.122 739.429 389.783 738.171 387.288C736.914 384.481 735.814 381.674 734.714 378.867C734.086 379.179 733.457 379.491 732.828 379.959C734.557 387.912 736.129 395.865 737.857 403.818C737.386 404.286 736.757 404.754 736.286 405.221C729.843 400.075 723.399 394.773 716.171 389.003C716.642 391.342 717.271 393.526 717.585 395.865C717.899 398.36 717.742 401.011 717.742 403.506C715.228 402.726 712.87 402.103 710.985 401.791ZM822.089 750.948C822.875 733.794 824.918 718.044 824.132 702.605C823.189 680.305 820.989 657.85 817.846 635.706C815.646 620.267 807.317 608.571 789.245 606.544C800.246 606.544 801.346 597.967 803.86 590.95C806.06 585.336 809.203 581.437 815.489 581.281C826.332 606.544 828.533 633.211 831.99 659.565C834.19 676.251 834.19 693.249 835.447 710.091C836.233 720.227 837.804 730.363 838.276 740.499C838.433 743.15 837.019 747.361 834.976 748.609C831.99 750.168 827.747 750.012 822.089 750.948ZM724.971 401.791C732.357 405.689 740.214 409.744 747.915 413.798C748.229 413.175 748.701 412.551 749.015 411.927C746.186 408.184 743.515 404.442 741.943 402.259C746.029 395.709 749.015 390.407 752.158 385.417C760.015 389.939 760.801 393.994 756.715 402.726C760.33 406.781 763.787 409.744 766.144 413.33C768.659 417.073 769.916 421.595 771.802 425.806C773.53 429.705 777.616 433.759 776.987 437.034C776.202 441.244 771.802 444.987 768.816 448.73C767.087 450.913 764.887 452.94 762.687 454.811C760.33 456.839 757.815 458.71 755.458 460.737C757.344 448.73 745.243 438.905 753.101 427.521C741.629 442.648 739.272 443.583 726.857 437.19C729.528 435.318 731.886 433.759 734.243 432.2C734.086 431.576 733.771 430.952 733.614 430.328C730 431.42 726.385 432.512 722.299 433.603C719.471 429.549 715.856 424.558 712.242 419.568C712.713 419.1 713.342 418.789 713.813 418.321C711.927 417.853 710.199 417.541 707.213 416.917C713.656 411.459 719.156 406.781 724.971 401.791ZM182.176 925.76C181.39 925.292 180.605 924.824 179.819 924.357C185.319 909.23 190.662 894.104 196.32 879.133C198.677 872.895 201.977 874.143 207.006 877.262C214.077 881.472 221.935 884.903 229.792 886.774C237.178 888.49 245.036 887.242 252.736 887.71C254.151 887.71 255.408 889.425 256.351 890.049C236.236 912.037 208.892 918.431 182.176 925.76ZM812.66 916.715C812.66 917.339 812.818 917.807 812.818 918.431C805.432 921.55 798.046 924.98 790.502 927.787C776.202 933.089 762.058 939.639 746.186 935.117C743.829 934.493 740.843 932.466 740.214 930.282C739.743 928.879 742.1 925.76 743.829 924.201C752.944 916.403 762.373 908.762 771.644 901.121C777.459 896.287 782.016 896.287 787.045 901.901C789.088 904.084 790.502 906.891 791.917 909.542C796.631 918.431 797.888 919.054 808.26 916.559C809.517 916.403 811.089 916.715 812.66 916.715ZM964.624 832.35C965.567 835.313 967.139 837.652 966.981 839.991C966.667 845.449 969.339 850.751 962.581 855.586C946.866 866.658 929.894 867.281 911.979 864.786C907.265 864.162 905.536 860.576 909.307 856.365C924.08 840.303 942.78 833.13 964.624 832.35ZM970.282 902.68C957.238 905.331 942.623 904.396 928.008 903.304C918.579 902.68 916.536 896.755 917.008 888.646C917.165 885.215 917.008 881.628 917.008 879.757C935.08 878.821 953.309 877.729 970.282 876.794C970.282 883.967 970.282 892.7 970.282 902.68ZM662.111 733.482C664.468 730.519 666.354 727.556 668.711 725.061C690.084 703.853 711.456 682.645 732.986 661.436C734.714 659.721 736.757 657.85 739.114 656.914C740.529 656.29 743.2 656.758 743.986 657.85C745.086 659.097 745.715 661.904 745.086 663.152C743.2 666.426 740.529 669.389 737.857 672.04C719.471 690.91 700.77 709.779 682.383 728.648C678.297 732.702 674.683 737.225 670.597 741.903C667.454 738.784 665.097 736.289 662.111 733.482ZM770.387 588.767C769.759 588.143 769.287 587.519 768.659 586.895C771.802 584.088 774.316 580.502 777.93 578.474C790.031 571.613 803.074 566.155 814.389 558.202C820.204 554.147 824.604 554.303 829.79 556.642C831.99 557.578 834.033 560.229 834.976 562.568C835.29 563.348 832.147 565.843 830.261 567.091C819.261 575.356 803.074 577.227 798.674 593.913C797.888 596.876 790.502 598.279 785.002 600.93C785.316 597.188 785.474 595.316 785.631 593.601C785.316 593.445 784.845 593.289 784.531 592.977C781.702 596.876 779.03 600.774 776.202 604.673C774.63 597.344 782.331 592.197 776.359 585.336C774.159 586.739 772.273 587.675 770.387 588.767ZM1012.71 887.398C1012.71 897.222 1004.38 907.203 996.211 907.203C986.468 907.203 976.568 898.002 976.568 889.269C976.568 879.289 986.939 868.373 996.368 868.373C1006.11 868.373 1012.71 876.014 1012.71 887.398ZM914.336 873.051C914.336 872.116 914.179 871.336 914.179 870.4C922.979 869.62 931.78 869.776 940.266 868.061C949.381 866.19 958.181 862.447 965.724 859.952C969.653 861.2 973.896 864.007 976.725 863.071C979.082 862.135 980.653 856.989 980.968 853.558C981.596 845.761 981.125 837.808 981.125 828.607C986.311 832.038 992.282 834.377 995.268 838.588C1000.77 846.229 1004.7 855.118 1008.47 862.135C993.697 858.081 992.911 858.081 975.939 868.061C958.495 878.197 939.323 876.95 920.308 875.858C918.422 875.39 916.379 873.831 914.336 873.051ZM781.859 891.141C770.701 856.833 783.431 823.149 784.216 789.31C792.86 846.697 791.917 879.601 781.859 891.141ZM769.759 896.755C763.473 901.121 709.413 900.341 702.184 895.351C713.813 884.903 728.271 881.316 742.729 878.041C753.258 897.534 756.244 894.727 769.759 896.755ZM727.957 660.812C724.185 628.064 730 598.435 738.643 569.586C742.1 569.898 745.086 570.209 749.015 570.521C736.6 586.739 738.329 605.297 738.014 623.542C737.857 629.936 736.6 636.173 736.286 642.567C736.129 645.218 738.329 648.649 737.229 650.52C735.343 654.107 731.728 656.758 727.957 660.812ZM766.616 624.322C769.916 620.579 772.273 617.928 774.787 615.121C778.559 619.332 781.859 622.918 784.845 626.349C782.488 629.156 780.445 631.651 779.188 633.211C776.202 629.78 773.687 626.973 771.173 624.322C770.544 624.79 769.916 625.413 769.444 625.881C771.487 629 773.373 631.963 775.573 635.238C769.759 638.824 767.558 649.74 757.029 642.723C758.129 644.75 759.072 646.778 759.544 647.557C755.772 651.612 752.786 655.043 750.115 657.85C747.758 655.822 745.4 653.951 742.257 651.3C744.143 649.74 745.872 647.401 747.758 647.089C756.087 645.842 755.772 639.916 757.029 633.678C758.444 626.193 761.744 619.02 764.258 611.534C765.044 611.69 765.673 612.002 766.458 612.158C766.616 615.901 766.616 619.643 766.616 624.322ZM302.238 968.333C297.681 965.993 294.067 963.186 289.981 961.939C285.423 960.535 280.395 960.224 275.523 959.912C262.479 959.132 259.179 956.949 254.622 945.721C273.009 948.372 291.081 950.867 309.939 953.518C306.796 959.444 304.281 964.278 302.238 968.333ZM757.029 466.039C763.787 458.554 770.387 452.004 776.045 444.831C783.431 435.474 785.316 434.851 793.802 440.777C789.717 448.574 785.788 456.527 781.23 464.012C780.13 465.883 776.987 467.287 774.63 467.287C764.887 467.599 754.986 467.443 745.558 467.443C746.815 465.416 748.229 462.765 749.801 459.958C751.686 461.673 753.415 463.076 757.029 466.039ZM358.341 983.459C358.341 984.083 358.341 984.863 358.498 985.486C344.669 991.412 330.84 997.338 314.967 1004.04C319.211 995.779 321.882 989.385 325.654 983.771C327.382 981.276 331.782 978.625 334.611 978.937C342.626 979.56 350.326 981.9 358.341 983.459ZM617.009 793.052C617.481 787.906 616.381 782.448 618.581 779.797C626.752 769.973 636.024 760.772 645.139 751.727C646.082 750.792 650.011 751.415 651.425 752.507C652.525 753.443 652.996 757.185 652.053 758.121C640.739 769.817 629.11 781.201 617.009 793.052ZM744.3 639.292C746.029 619.799 739.743 597.344 752.944 576.915C753.729 579.41 754.672 581.125 754.672 582.997C755.144 590.482 756.715 598.279 755.144 605.297C752.472 617.304 747.758 629 744.3 639.292ZM965.567 815.352C978.768 824.865 983.639 851.063 974.21 860.108C970.439 856.365 970.439 856.365 970.282 843.89C970.124 830.947 966.038 822.838 958.181 820.498C960.695 818.783 962.895 817.224 965.567 815.352ZM264.994 960.847C277.88 965.682 292.181 960.535 300.981 975.818C296.267 975.35 292.652 975.038 289.195 974.57C287.152 974.414 284.638 973.323 283.223 974.102C278.509 977.065 275.994 974.102 273.48 971.14C270.808 968.333 268.608 965.37 264.994 960.847ZM885.578 872.116C891.392 873.207 897.364 872.583 900.193 875.234C902.393 877.262 902.393 885.371 900.35 887.242C897.05 890.049 891.078 889.737 886.835 890.673C886.521 884.123 886.049 878.977 885.578 872.116ZM671.383 745.178C665.411 749.7 661.797 752.663 658.025 755.47C658.497 754.534 658.968 753.599 659.44 752.507C655.825 750.168 652.368 747.673 648.753 745.334C651.425 741.747 654.096 738.16 658.339 732.39C663.054 737.069 666.826 740.655 671.383 745.178ZM726.071 353.916C731.414 345.651 738.329 345.339 746.029 347.211C752.786 348.77 758.129 351.733 757.972 359.53C752.786 357.971 747.758 355.787 742.572 354.852C737.386 353.916 732.2 354.228 726.071 353.916ZM750.743 643.035C748.229 625.881 758.129 599.215 774.159 592.509C759.387 606.232 755.301 624.634 750.743 643.035ZM872.063 892.7C871.434 884.903 870.806 879.289 870.177 871.96C874.106 873.363 879.292 873.675 880.078 875.546C881.649 879.757 881.649 884.903 880.706 889.269C880.549 890.829 875.677 891.297 872.063 892.7ZM363.212 987.825C363.527 988.761 363.998 989.853 364.312 990.788C343.883 997.338 325.182 1008.57 303.653 1012.15C323.454 1004.04 343.254 995.935 363.212 987.825ZM594.38 792.273C594.065 791.649 593.751 790.869 593.28 790.245C597.837 786.815 602.08 783.072 607.109 780.421C608.523 779.641 611.823 782.292 614.338 783.384C613.238 785.723 612.609 789.777 610.88 790.245C605.694 791.649 600.037 791.649 594.38 792.273ZM850.376 554.771C850.062 555.551 849.748 556.33 849.591 557.11C844.248 553.991 838.904 550.717 833.718 547.598C833.247 548.377 832.933 549.001 832.461 549.781C836.076 552.588 839.69 555.239 843.305 558.046C842.833 558.826 842.519 559.449 842.047 560.229C836.547 556.954 830.89 553.523 825.232 550.249C831.361 541.672 838.904 542.919 850.376 554.771ZM779.03 573.64C769.444 575.823 765.83 582.841 762.844 591.418C761.744 585.024 760.487 578.474 759.23 571.613C765.987 572.393 772.587 573.016 779.03 573.64ZM828.847 533.563C826.018 539.489 823.818 544.011 821.618 548.533C821.147 548.377 820.832 548.065 820.361 547.91C821.147 540.424 821.932 532.939 823.032 523.426C825.861 528.261 827.59 531.224 828.847 533.563Z" fill="black"/>
<path d="M765.354 1016.68C766.611 1014.18 768.026 1011.38 769.44 1008.72C774.626 1010.6 780.283 1012.62 785.784 1014.65C786.098 1014.03 786.569 1013.56 786.884 1012.94C780.912 1009.5 775.097 1006.07 769.126 1002.64C769.44 1001.86 769.754 1001.08 770.226 1000.3C776.355 1002.8 782.641 1005.14 788.769 1007.63C789.398 1006.85 789.869 1005.92 790.498 1005.14C788.298 1002.8 786.255 1000.3 783.741 998.277C770.697 987.673 755.768 982.838 738.953 983.15C735.181 983.306 730.624 981.591 727.481 979.408C720.252 974.105 713.495 975.353 705.637 977.38C690.394 981.435 674.836 983.306 658.964 980.655C649.378 978.94 639.634 978.004 629.891 977.224C619.362 976.289 608.676 975.821 597.99 975.665C593.432 975.509 588.718 976.601 584.161 977.068C571.589 978.16 559.488 975.665 548.016 970.831C547.073 970.363 545.659 969.583 545.345 968.803C542.044 956.484 531.515 954.145 521.301 952.429C509.2 950.402 498.357 953.677 490.342 963.969C483.271 973.014 480.913 982.059 488.456 991.727C490.814 994.69 494.114 997.809 497.571 999.056C513.129 1004.67 528.53 1012 544.716 1014.34C564.517 1017.15 584.946 1016.83 604.904 1015.74C623.291 1014.81 641.52 1010.75 659.75 1008.26C672.793 1006.54 685.679 1004.51 698.723 1003.73C721.509 1002.49 742.41 1011.22 765.354 1016.68Z" fill="#F8CBB2"/>
<path d="M346.556 835.156C347.813 841.238 349.227 847.32 350.17 853.558C351.585 862.602 355.356 872.427 353.156 880.536C349.384 894.415 350.642 908.138 351.113 921.705C351.427 932.153 351.585 941.822 345.613 951.334C380.343 956.636 411.93 973.946 448.86 969.268C430.159 930.594 439.117 891.608 450.432 850.751C442.731 851.998 436.131 852.934 429.688 854.337C412.244 858.08 395.429 854.649 378.771 850.127C367.142 847.008 355.042 845.293 346.713 835.312C346.241 835.312 346.556 835.156 346.556 835.156ZM370.128 886.15C371.385 884.902 372.485 883.811 373.743 882.563C373.9 884.434 373.9 886.306 374.528 888.021C381.129 905.799 388.043 923.42 394.329 941.198C395.272 943.849 394.486 949.151 392.758 950.087C389.458 951.958 384.9 951.49 380.814 952.114C380.814 951.49 380.657 950.71 380.657 950.087C393.858 947.124 394.015 946.968 389.143 933.868C383.172 917.962 376.571 902.056 370.128 886.15ZM423.559 920.457C422.773 898.781 428.902 878.509 439.117 859.172C433.931 879.756 428.745 900.029 423.559 920.457Z" fill="#D8FFD8"/>
<path d="M488.148 999.521C486.262 995.467 484.376 991.256 482.176 987.202C478.719 980.34 479.662 973.946 483.433 967.397C496.791 944.473 522.878 945.097 543.15 955.545C537.964 943.849 532.778 932.154 527.435 920.302C532.307 913.596 537.807 906.111 544.25 897.222C533.564 899.25 524.449 898.314 519.892 888.022C516.12 879.601 511.091 871.18 509.363 862.291C507.163 850.907 507.791 839.055 507.163 827.516C504.02 829.387 498.991 831.414 495.534 834.845C487.048 843.266 476.047 845.761 465.204 848.1C456.875 849.971 451.846 853.09 450.589 862.447C447.76 881.94 442.103 901.121 440.688 920.77C439.903 932.154 444.617 944.005 447.289 955.545C449.174 963.966 451.846 971.295 461.746 975.194C466.461 977.065 469.132 983.927 473.218 988.293C477.461 992.816 482.176 997.026 486.576 1001.24C487.048 1000.61 487.519 999.989 488.148 999.521ZM522.878 924.98C500.562 924.045 479.19 926.851 461.118 941.666C467.718 927.319 500.877 918.275 522.878 924.98ZM504.648 904.708C491.919 896.443 482.333 879.445 485.319 874.299C491.291 883.655 497.577 893.48 504.648 904.708Z" fill="#7D8E11"/>
<path d="M568.138 851.531C567.824 856.21 567.352 860.732 567.195 865.41C566.724 878.509 571.438 890.517 578.038 901.277C588.41 918.119 592.81 936.209 593.753 955.39C593.91 960.692 592.653 965.994 591.867 971.764C606.797 972.543 620.783 973.323 636.184 974.103C632.098 969.113 629.269 964.59 625.497 961.159C613.397 950.399 612.14 935.741 611.354 921.238C610.411 902.681 611.668 883.968 610.883 865.41C610.411 853.091 608.054 840.771 606.168 828.452C605.854 826.58 603.654 824.241 601.768 823.306C589.982 817.848 577.724 813.481 566.409 807.243C558.866 803.033 552.423 801.162 544.723 806.152C538.437 810.206 532.151 814.105 525.393 817.068C511.564 823.306 509.207 834.534 510.778 847.633C512.35 861.2 514.236 874.767 523.036 886.151C524.765 888.334 526.179 890.985 528.379 892.544C532.622 895.663 537.022 896.443 540.794 891.141C548.023 881.005 555.566 871.024 562.795 860.888C564.681 858.081 565.466 854.338 566.724 851.063C567.038 851.219 567.509 851.375 568.138 851.531Z" fill="#F8CBB2"/>
<path d="M346.242 835.309C337.441 827.2 328.955 818.624 315.44 818.468C302.711 818.312 294.54 824.861 286.211 833.282C277.567 842.015 280.867 850.904 283.539 860.104C286.839 872.112 282.91 883.34 279.139 894.256C276.467 901.897 266.253 901.117 259.809 892.541C244.566 906.731 226.965 917.336 206.693 922.17C208.264 930.123 211.879 930.279 217.693 927.316C221.465 925.445 225.865 924.509 229.951 923.729C236.866 922.482 240.637 927.628 242.837 932.462C247.395 942.598 256.195 943.378 265.467 944.47C279.139 946.185 292.968 948.212 306.64 949.772C308.683 949.928 311.826 948.368 312.926 946.653C319.841 935.893 320.155 924.509 317.169 912.189C312.926 895.348 307.583 879.129 295.64 865.874C293.439 863.379 292.182 859.948 290.611 856.986C291.397 856.518 292.025 856.05 292.811 855.582C300.197 866.342 307.583 876.946 315.283 888.174C324.869 879.129 336.97 877.726 351.428 880.221C348.599 867.122 346.242 854.49 343.256 842.015C342.47 838.428 341.842 836.089 346.242 835.154C346.556 835.154 346.242 835.309 346.242 835.309ZM241.737 910.474C251.166 913.281 251.638 919.675 251.638 928.407C247.866 921.858 245.194 916.868 241.737 910.474Z" fill="#D8FFD8"/>
<path d="M790.82 628.375C782.019 635.392 774.162 641.318 766.619 647.712C760.49 652.858 754.675 658.472 749.175 664.086C744.46 668.764 740.217 674.066 735.66 678.901C730.946 683.735 727.017 687.633 728.274 696.21C730.317 709.621 728.745 723.5 728.745 737.223C728.745 756.248 728.745 756.249 748.389 756.404C765.518 756.404 782.648 756.404 798.991 756.404C800.091 753.909 800.72 753.286 800.72 752.662C801.349 732.857 802.92 713.052 802.134 693.247C801.349 674.69 798.363 656.289 795.691 638.043C795.22 634.457 792.234 631.026 790.82 628.375Z" fill="#FFCCCC"/>
<path d="M106.742 964.122C161.116 980.807 214.075 1002.48 271.749 1008.25C268.449 999.365 267.192 991.1 271.592 983.147C273.792 979.092 273.163 976.285 270.492 973.01C259.806 959.599 249.434 946.188 238.905 932.777C236.233 929.346 234.033 927.943 229.319 931.218C213.289 942.913 196.003 951.802 176.045 954.765C174.474 954.921 172.902 955.389 171.488 955.233C149.33 953.361 128.272 959.443 106.742 964.122ZM206.061 991.1C198.36 992.035 151.058 963.03 148.387 955.701C168.03 967.708 186.417 979.092 206.061 991.1Z" fill="#E9F6F0"/>
<path d="M795.537 558.358C812.037 557.734 819.266 548.845 818.795 533.407C781.55 533.719 771.807 510.639 783.593 470.094C769.293 470.873 755.306 471.341 741.477 472.589C739.277 472.745 736.134 475.708 735.348 477.891C730.162 493.017 725.291 508.144 731.891 524.518C736.291 535.278 738.649 546.974 742.106 558.514C744.149 559.293 747.92 561.165 751.692 562.1C754.521 562.88 757.506 562.88 760.335 562.88C767.721 562.724 774.95 562.256 782.336 561.944C787.365 561.788 791.608 560.541 792.865 554.771C793.965 549.937 795.222 545.258 796.48 540.58C797.265 540.736 798.208 540.892 798.994 541.048C797.894 546.818 796.794 552.588 795.537 558.358ZM806.38 534.342C807.323 534.654 808.266 535.122 809.366 535.434C807.009 541.516 804.651 547.442 802.294 553.523C801.351 553.056 800.251 552.744 799.308 552.276C801.665 546.194 804.023 540.268 806.38 534.342Z" fill="#FFCCCC"/>
<path d="M788.304 610.599C793.019 624.945 799.462 638.98 801.976 653.483C804.962 670.325 805.119 687.635 805.434 704.788C805.748 721.942 803.705 739.252 804.176 756.405C805.119 785.879 807.005 815.352 808.734 844.669C809.519 857.145 810.462 869.62 811.877 882.096C813.448 894.727 822.877 900.185 835.292 896.287C843.464 893.635 851.793 891.296 860.122 888.801C860.122 888.801 860.279 888.489 860.279 888.333C861.064 875.234 858.393 873.363 845.664 877.261C841.578 878.509 837.492 879.757 832.778 881.16C835.135 882.096 836.706 882.719 839.221 883.655C828.849 886.462 826.492 884.747 825.863 874.922C825.234 865.254 824.763 855.429 824.291 845.761C823.191 825.02 821.934 804.28 821.149 783.54C820.363 760.928 819.891 738.16 819.577 715.548C819.42 708.999 821.463 702.137 820.834 695.744C818.634 674.223 816.434 652.703 812.977 631.495C810.934 617.46 799.933 609.975 788.304 610.599Z" fill="white"/>
<path d="M801.658 444.207C794.744 452.004 787.829 459.645 787.043 471.185C786.415 479.918 782.643 488.495 782.329 497.228C781.543 518.124 795.529 530.6 816.902 529.508C821.302 524.206 819.573 519.528 816.116 514.537C810.773 507.052 806.058 499.255 800.715 491.926C798.358 488.807 795.372 486.156 792.858 483.661C793.172 480.698 793.643 477.423 793.958 474.46C806.53 493.641 819.259 512.978 831.831 532.159C835.917 532.159 839.531 532.159 844.56 532.159C837.96 535.122 832.931 537.461 828.059 539.8C828.059 540.58 828.059 541.516 828.216 542.295C838.274 540.736 845.66 544.167 852.26 551.184C855.875 554.927 864.989 549.157 865.304 543.231C866.089 533.095 863.889 523.894 857.918 515.005C849.589 502.53 842.36 489.431 835.288 476.175C827.431 461.673 815.959 450.289 801.658 444.207Z" fill="white"/>
<path d="M218.478 824.862C218.478 827.825 218.478 831.568 218.478 837.493C216.435 834.531 215.806 833.439 214.706 832.035C211.406 835.778 207.792 839.677 204.492 843.575C198.049 851.372 204.963 855.271 209.363 859.949C211.563 859.014 213.763 858.078 215.806 857.142C216.121 857.61 216.278 857.922 216.592 858.39C214.863 859.949 212.978 861.509 209.678 864.316C218.164 870.398 226.021 877.415 235.136 882.249C246.765 888.487 256.037 883.497 259.18 870.709C260.751 864.472 262.008 858.234 263.894 851.996C266.566 861.509 262.48 875.544 257.451 881.625C259.965 885.524 262.008 889.423 264.68 892.853C268.294 897.844 274.737 897.532 276.152 891.918C278.823 881.47 284.324 871.021 279.609 860.105C276.309 852.464 271.594 845.447 266.723 836.87C270.18 828.917 269.08 822.835 259.494 816.285C260.123 822.367 260.908 828.449 261.537 835.466C253.365 836.09 251.165 824.55 240.95 825.174C234.664 825.642 227.121 819.248 218.478 824.862Z" fill="#F8CBB2"/>
<path d="M275.68 1010.29C280.866 1007.48 286.209 1004.67 291.395 1001.86C292.024 1002.64 292.495 1003.42 293.124 1004.36C288.881 1006.7 284.795 1009.19 280.552 1011.53C280.709 1012 280.866 1012.62 281.023 1013.09C283.695 1012.31 286.209 1011.69 288.881 1010.91C292.338 1009.97 295.796 1008.26 299.096 1008.41C306.167 1008.88 309.939 1005.3 313.082 999.681C323.768 980.968 335.083 962.723 345.141 943.698C347.969 938.396 347.184 931.222 347.341 924.828C347.655 913.133 347.498 901.593 347.498 889.897C347.498 887.558 347.498 885.375 347.498 883.348C336.654 879.761 328.011 884.283 319.997 889.273C317.954 890.521 316.854 895.199 317.168 898.162C318.425 907.363 321.725 916.564 321.882 925.764C322.04 932.782 319.525 940.111 317.011 946.972C314.653 953.678 310.41 959.604 307.582 966.153C303.81 974.418 299.253 981.436 289.195 981.124C287.781 979.876 286.367 977.693 284.795 977.537C280.866 977.381 274.266 984.711 272.537 990.481C277.88 988.765 281.023 980.188 289.824 985.646C285.895 988.141 282.438 990.013 279.452 992.508C276.623 995.003 274.423 998.122 273.009 1002.18C278.038 999.525 283.066 996.874 287.938 994.223C288.409 994.535 288.724 995.003 289.195 995.315C284.324 999.993 279.295 1004.67 274.423 1009.19C274.895 1009.51 275.209 1009.82 275.68 1010.29Z" fill="#F8CBB2"/>
<path d="M748.862 759.521C750.905 769.501 752.79 778.546 754.676 787.747C754.833 788.682 755.305 789.774 755.305 790.71C756.405 815.661 757.976 840.456 758.133 865.406C758.133 871.02 753.576 876.634 750.433 883.496C753.733 890.045 763.791 895.348 773.063 892.852C774.948 892.385 777.149 888.018 776.991 885.523C776.52 874.139 774.006 862.599 774.477 851.216C775.106 836.089 778.091 820.963 779.82 805.836C781.706 790.71 781.234 775.739 772.905 762.172C772.12 760.925 770.234 759.833 768.82 759.833C762.376 759.365 755.933 759.521 748.862 759.521Z" fill="#F8CBB2"/>
<path d="M144.461 950.868C170.39 957.729 188.148 942.759 208.106 932.467C207.006 931.063 205.906 929.66 204.963 928.256C203.863 926.853 202.92 925.449 201.978 924.202C198.835 924.825 196.163 925.293 193.334 925.917C185.32 927.476 178.091 930.127 174.948 938.704C174.319 940.576 171.805 941.667 169.133 942.447C181.077 928.1 179.191 909.387 185.948 893.793C188.463 888.023 190.82 882.097 193.806 876.483C196.949 870.401 202.292 869.777 207.792 873.676C212.821 877.107 218.321 880.07 221.936 884.28C213.921 875.079 206.063 865.723 198.049 856.522C194.906 852.936 191.449 852.624 188.777 856.99C179.348 872.584 169.605 888.179 160.804 904.241C155.776 913.286 152.161 923.11 148.547 932.934C146.504 938.548 145.875 944.942 144.461 950.868Z" fill="#F8CBB2"/>
<path d="M188.299 831.881C187.199 833.596 185.627 836.247 183.742 839.366C188.456 843.265 193.014 847.007 197.099 850.438C200.4 844.668 203.228 838.898 206.686 833.44C209.986 828.138 213.914 823.148 217.057 818.626C230.572 818.782 244.716 818.626 256.502 827.982C256.345 816.91 256.502 812.7 264.674 812.076C263.417 807.554 262.002 802.875 260.274 796.638C256.816 796.638 251.473 796.638 245.659 796.638C247.073 793.831 248.33 791.18 250.059 787.905C247.702 788.373 246.13 788.685 244.087 789.152C244.087 785.254 244.087 781.667 244.087 778.08C243.616 777.769 243.144 777.613 242.673 777.301C241.101 779.64 239.373 782.135 237.958 784.474C235.601 784.63 232.772 784.318 230.415 785.098C222.243 787.905 214.229 791.024 206.057 793.987C194.899 798.041 185.156 813.012 186.099 825.019C186.099 827.047 187.356 829.23 188.299 831.881Z" fill="#030303"/>
<path d="M787.672 895.97C789.715 899.245 792.544 905.015 796.315 910.005C798.044 912.344 801.973 913.124 804.801 914.527C805.901 911.564 807.63 908.445 807.787 905.482C807.944 895.97 807.473 886.301 807.159 876.789C806.687 860.415 806.216 843.885 805.43 827.511C804.801 816.127 803.387 804.587 802.601 793.203C801.815 781.664 801.187 770.28 800.558 757.648C792.386 758.428 784.686 759.052 776.829 759.832C796.787 803.34 796.158 848.095 787.672 895.97Z" fill="#F8CBB2"/>
<path d="M710.986 401.793C712.872 402.261 715.229 402.728 717.744 403.196C717.744 400.701 717.901 398.05 717.587 395.555C717.429 393.372 716.644 391.189 716.172 388.694C723.244 394.463 729.844 399.61 736.287 404.912C736.759 404.444 737.387 403.976 737.859 403.508C736.13 395.555 734.559 387.602 732.83 379.649C733.459 379.337 734.087 379.025 734.716 378.557C735.816 381.364 736.916 384.327 738.173 386.978C739.273 389.473 740.845 391.968 742.102 394.307C743.359 392.124 745.402 390.097 745.873 387.758C747.288 382.456 750.745 381.364 755.302 382.144C759.703 382.924 763.631 390.721 762.531 395.711C761.431 400.857 761.431 400.857 766.303 402.728C774.003 380.117 769.289 370.292 754.045 361.715C739.43 353.45 715.701 357.037 707.215 368.421C693.543 386.666 694.171 403.508 707.058 413.333C708.472 409.122 709.886 405.224 710.986 401.793ZM751.059 365.146C752.159 372.164 747.131 377.933 736.916 379.961C742.102 374.503 746.502 369.824 751.059 365.146Z" fill="#030303"/>
<path d="M822.089 750.947C827.746 750.012 831.989 750.167 834.975 748.452C837.018 747.205 838.432 743.15 838.275 740.343C837.647 730.207 836.232 720.07 835.447 709.934C834.189 693.092 834.189 676.094 831.989 659.408C828.532 633.054 826.332 606.544 815.489 581.125C809.203 581.281 806.06 585.18 803.859 590.793C801.188 597.655 800.088 606.232 789.245 606.388C807.317 608.571 815.646 620.111 817.846 635.549C820.989 657.693 823.189 680.149 824.132 702.449C824.917 718.043 822.875 733.793 822.089 750.947Z" fill="#FFCCCC"/>
<path d="M724.968 401.788C719.153 406.778 713.653 411.457 707.367 416.915C710.196 417.538 712.082 418.006 713.968 418.318C713.496 418.786 712.867 419.098 712.396 419.566C716.01 424.556 719.625 429.546 722.454 433.601C726.539 432.353 730.154 431.261 733.768 430.326C733.926 430.95 734.24 431.573 734.397 432.197C732.04 433.756 729.682 435.316 727.011 437.187C739.426 443.581 741.94 442.489 753.255 427.519C745.24 438.903 757.341 448.727 755.612 460.735C758.127 458.707 760.641 456.836 762.841 454.809C765.041 452.938 767.084 450.91 768.97 448.727C771.956 444.984 776.356 441.242 777.142 437.031C777.77 433.756 773.841 429.546 771.956 425.803C770.07 421.749 768.656 417.226 766.298 413.328C763.941 409.741 760.484 406.622 756.869 402.724C760.955 393.991 760.169 389.936 752.312 385.414C749.169 390.56 746.026 395.706 742.097 402.256C743.669 404.439 746.497 408.182 749.169 411.924C748.855 412.548 748.383 413.172 748.069 413.796C740.211 409.741 732.354 405.687 724.968 401.788Z" fill="#F8CBB2"/>
<path d="M812.665 916.718C811.094 916.718 809.522 916.406 808.108 916.718C797.736 919.213 796.479 918.589 791.764 909.701C790.35 907.05 788.936 904.243 786.893 902.059C781.864 896.446 777.464 896.446 771.492 901.28C762.22 908.921 752.791 916.562 743.677 924.359C741.948 925.919 739.591 928.882 740.062 930.441C740.848 932.468 743.677 934.495 746.034 935.275C761.906 939.798 776.05 933.248 790.35 927.946C797.893 925.139 805.279 921.708 812.665 918.589C812.822 917.81 812.822 917.186 812.665 916.718Z" fill="#6D3D32"/>
<path d="M964.623 832.352C942.936 832.975 924.235 840.305 909.306 856.523C905.534 860.733 907.263 864.164 911.977 864.944C929.735 867.439 946.865 866.815 962.58 855.743C969.337 850.909 966.666 845.607 966.98 840.149C966.98 837.81 965.565 835.314 964.623 832.352Z" fill="white"/>
<path d="M970.281 902.684C970.281 892.859 970.281 884.127 970.281 876.953C953.309 877.889 935.08 878.824 917.008 879.916C917.008 881.787 917.165 885.218 917.008 888.805C916.536 896.758 918.579 902.684 928.008 903.464C942.623 904.243 957.238 905.335 970.281 902.684Z" fill="white"/>
<path d="M662.109 733.484C665.095 736.447 667.452 738.786 670.595 741.905C674.681 737.227 678.296 732.705 682.382 728.65C700.768 709.781 719.469 690.912 737.855 672.043C740.527 669.236 743.041 666.429 745.084 663.154C745.87 661.906 745.084 659.099 743.984 657.852C743.041 656.76 740.37 656.292 739.113 656.916C736.913 657.852 734.87 659.567 732.984 661.438C711.454 682.647 690.082 703.855 668.71 725.063C666.352 727.403 664.467 730.521 662.109 733.484Z" fill="white"/>
<path d="M770.389 588.768C772.275 587.832 774.16 586.741 776.518 585.493C782.489 592.199 774.789 597.501 776.36 604.83C779.189 600.931 781.861 597.033 784.689 593.134C785.004 593.29 785.475 593.446 785.789 593.758C785.632 595.473 785.475 597.189 785.161 601.087C790.661 598.436 798.047 597.033 798.833 594.07C803.233 577.54 819.419 575.513 830.42 567.248C832.306 565.844 835.449 563.505 835.134 562.725C834.349 560.386 832.306 557.891 829.948 556.799C824.762 554.46 820.362 554.304 814.548 558.359C803.233 566.156 790.19 571.614 778.089 578.632C774.475 580.659 771.96 584.246 768.817 587.053C769.289 587.52 769.917 588.144 770.389 588.768Z" fill="#F8CBB2"/>
<path d="M1012.71 887.4C1012.71 876.016 1006.11 868.375 996.367 868.375C986.938 868.375 976.724 879.291 976.567 889.271C976.567 898.16 986.467 907.205 996.21 907.205C1004.38 907.205 1012.71 897.069 1012.71 887.4Z" fill="white"/>
<path d="M914.335 873.049C916.378 873.984 918.421 875.388 920.464 875.544C939.479 876.635 958.651 877.883 976.095 867.747C993.067 857.766 993.853 857.766 1008.62 861.821C1004.7 854.647 1000.92 845.915 995.424 838.273C992.281 834.063 986.467 831.88 981.281 828.293C981.281 837.65 981.752 845.447 981.124 853.244C980.81 856.675 979.238 861.977 976.881 862.756C974.052 863.848 969.809 860.885 965.88 859.638C958.337 862.133 949.537 865.875 940.422 867.747C931.936 869.462 922.978 869.462 914.335 870.086C914.335 871.333 914.335 872.113 914.335 873.049Z" fill="white"/>
<path d="M769.758 896.756C756.243 894.729 753.414 897.38 742.571 878.199C728.113 881.474 713.813 884.905 702.026 895.509C709.412 900.499 763.315 901.123 769.758 896.756Z" fill="#6D3D32"/>
<path d="M727.96 660.813C731.731 656.758 735.188 654.107 737.231 650.521C738.331 648.649 736.131 645.218 736.288 642.567C736.603 636.174 738.017 629.936 738.017 623.542C738.331 605.297 736.603 586.584 749.018 570.522C745.246 570.21 742.103 569.898 738.646 569.586C730.002 598.435 724.345 628.065 727.96 660.813Z" fill="#FFCCCC"/>
<path d="M766.617 624.322C766.617 619.644 766.617 615.901 766.617 612.003C765.832 611.847 765.203 611.535 764.417 611.379C761.903 618.708 758.603 625.882 757.188 633.523C755.931 639.761 756.245 645.686 747.917 646.934C745.874 647.246 744.302 649.585 742.416 651.144C745.559 653.796 747.759 655.667 750.274 657.694C752.945 654.887 755.931 651.456 759.703 647.402C759.231 646.622 758.288 644.595 757.188 642.568C767.717 649.585 769.918 638.669 775.732 635.082C773.532 631.807 771.646 628.689 769.603 625.726C770.232 625.258 770.86 624.634 771.332 624.166C773.846 626.973 776.361 629.78 779.347 633.055C780.604 631.496 782.647 629.001 785.004 626.194C782.018 622.919 778.718 619.176 774.946 614.966C772.275 617.929 769.918 620.58 766.617 624.322Z" fill="white"/>
<path d="M302.239 968.331C304.282 964.276 306.954 959.442 309.939 953.672C291.081 951.021 272.852 948.526 254.623 945.875C259.18 956.947 262.637 959.13 275.524 960.066C280.395 960.378 285.424 960.69 289.981 962.093C294.067 963.185 297.682 965.992 302.239 968.331Z" fill="white"/>
<path d="M757.027 466.039C753.412 463.076 751.684 461.517 749.955 460.113C748.384 462.92 746.812 465.571 745.712 467.599C755.141 467.599 765.042 467.754 774.785 467.443C777.142 467.287 780.285 465.883 781.385 464.168C785.942 456.682 789.714 448.729 793.957 440.932C785.471 434.85 783.585 435.63 776.199 444.987C770.385 452.004 763.784 458.71 757.027 466.039Z" fill="white"/>
<path d="M602.394 794.616C598.465 795.707 594.694 796.799 589.508 798.202C583.065 796.175 574.736 793.212 566.25 790.873C564.364 790.405 561.692 792.744 557.764 794.46C571.907 801.789 584.322 808.807 597.365 814.576C603.337 817.228 606.951 811.925 609.309 806.311C605.694 804.284 602.237 802.413 598.465 800.386C599.88 798.358 601.137 796.487 602.394 794.616Z" fill="white"/>
<path d="M358.337 983.462C350.48 981.902 342.622 979.563 334.607 978.939C331.779 978.627 327.378 981.278 325.65 983.773C321.878 989.387 319.207 995.781 314.964 1004.05C330.679 997.341 344.508 991.415 358.494 985.489C358.337 984.865 358.337 984.085 358.337 983.462Z" fill="#E9F6F0"/>
<path d="M617.011 793.05C629.111 781.199 640.74 769.815 652.055 758.275C652.998 757.339 652.526 753.441 651.426 752.661C650.012 751.569 646.083 750.79 645.14 751.881C636.026 760.926 626.754 769.971 618.582 779.951C616.382 782.446 617.482 787.904 617.011 793.05Z" fill="white"/>
<path d="M744.301 639.287C747.758 628.995 752.472 617.299 755.144 605.136C756.716 598.118 755.144 590.321 754.673 582.836C754.515 580.964 753.573 579.249 752.944 576.754C739.743 597.338 746.029 619.794 744.301 639.287Z" fill="#FFCCCC"/>
<path d="M965.572 815.352C962.9 817.223 960.7 818.782 958.186 820.498C966.043 822.837 970.286 830.946 970.286 843.889C970.443 856.365 970.443 856.365 974.215 860.107C983.644 851.063 978.772 824.864 965.572 815.352Z" fill="white"/>
<path d="M264.996 960.848C268.61 965.37 270.811 968.333 273.325 971.14C275.839 974.103 278.354 976.91 283.068 974.103C284.483 973.323 286.997 974.259 289.04 974.57C292.497 974.882 296.112 975.194 300.826 975.818C292.183 960.692 278.039 965.682 264.996 960.848Z" fill="#E9F6F0"/>
<path d="M885.578 872.117C886.05 879.135 886.364 884.125 886.835 890.674C891.078 889.739 897.05 890.051 900.35 887.244C902.55 885.372 902.393 877.263 900.193 875.236C897.364 872.585 891.393 873.209 885.578 872.117Z" fill="white"/>
<path d="M671.383 745.178C666.825 740.812 663.054 737.069 658.339 732.391C654.096 738.161 651.425 741.747 648.753 745.334C652.368 747.673 655.825 750.168 659.439 752.507C658.968 753.443 658.497 754.379 658.025 755.47C661.797 752.663 665.411 749.7 671.383 745.178Z" fill="white"/>
<path d="M726.074 353.918C732.203 354.23 737.546 354.074 742.575 354.854C747.761 355.79 752.79 357.817 757.975 359.532C758.29 351.735 752.79 348.772 746.032 347.213C738.332 345.341 731.26 345.653 726.074 353.918Z" fill="#030303"/>
<path d="M750.743 643.037C755.3 624.636 759.386 606.235 774.158 592.512C758.129 599.217 748.386 625.884 750.743 643.037Z" fill="white"/>
<path d="M872.065 892.701C875.522 891.454 880.394 890.83 880.708 889.271C881.651 884.904 881.651 879.758 880.079 875.548C879.294 873.52 874.108 873.208 870.179 871.961C870.965 879.29 871.436 884.904 872.065 892.701Z" fill="white"/>
<path d="M363.212 987.828C343.412 995.937 323.454 1004.05 303.653 1012.16C325.182 1008.57 343.883 997.341 364.312 990.791C363.841 989.855 363.527 988.764 363.212 987.828Z" fill="#E9F6F0"/>
<path d="M594.384 792.274C599.884 791.651 605.541 791.651 610.884 790.247C612.456 789.779 613.242 785.881 614.342 783.385C611.827 782.294 608.527 779.643 607.113 780.423C602.241 783.074 597.841 786.816 593.284 790.247C593.755 790.871 594.069 791.495 594.384 792.274Z" fill="white"/>
<path d="M850.377 554.768C838.905 542.917 831.362 541.669 825.233 550.09C830.89 553.521 836.391 556.795 842.048 560.07C842.519 559.291 842.834 558.667 843.305 557.887C839.691 555.08 836.076 552.429 832.462 549.622C832.933 548.842 833.248 548.219 833.719 547.439C839.062 550.558 844.405 553.833 849.591 556.951C849.906 556.328 850.063 555.548 850.377 554.768Z" fill="white"/>
<path d="M779.029 573.641C772.586 573.017 766.143 572.237 759.228 571.613C760.486 578.631 761.743 585.024 762.843 591.418C765.829 582.841 769.443 575.824 779.029 573.641Z" fill="#FFCCCC"/>
<path d="M828.846 533.562C827.589 531.223 825.86 528.26 823.031 523.426C821.931 532.938 821.145 540.424 820.36 547.909C820.831 548.065 821.145 548.377 821.617 548.533C823.817 544.01 826.017 539.488 828.846 533.562Z" fill="white"/>
<path d="M602.395 794.614C604.595 795.082 606.795 795.549 610.252 796.173C608.052 797.577 606.638 798.512 604.595 799.916C607.738 801.163 610.409 802.099 613.081 803.19C617.01 797.109 616.224 794.614 609.938 793.834C607.581 793.522 604.909 794.302 602.395 794.614Z" fill="white"/>
<path d="M370.126 886.153C376.569 902.06 383.169 917.966 389.141 934.028C394.013 947.127 393.856 947.283 380.655 950.246C380.655 950.87 380.812 951.649 380.812 952.273C384.898 951.805 389.455 952.117 392.756 950.246C394.484 949.31 395.27 943.852 394.327 941.357C388.041 923.58 381.126 905.802 374.526 888.181C373.898 886.465 374.055 884.594 373.74 882.723C372.64 883.658 371.383 884.906 370.126 886.153Z" fill="black"/>
<path d="M423.559 920.458C428.745 900.029 433.931 879.6 439.117 859.172C428.902 878.509 422.774 898.781 423.559 920.458Z" fill="black"/>
<path d="M522.875 924.98C500.717 918.43 467.715 927.319 461.115 941.666C479.345 926.695 500.56 923.888 522.875 924.98Z" fill="black"/>
<path d="M504.65 904.71C497.579 893.482 491.293 883.657 485.321 874.301C482.335 879.447 491.921 896.601 504.65 904.71Z" fill="black"/>
<path d="M241.734 910.477C245.192 916.714 248.02 921.705 251.635 928.41C251.635 919.677 251.006 913.439 241.734 910.477Z" fill="black"/>
<path d="M206.066 991.098C186.423 979.091 168.036 967.707 148.392 955.699C151.064 963.029 198.366 992.19 206.066 991.098Z" fill="black"/>
<path d="M806.374 534.34C804.017 540.266 801.66 546.348 799.146 552.273C800.088 552.741 801.189 553.053 802.131 553.521C804.489 547.439 806.846 541.513 809.203 535.431C808.26 534.964 807.317 534.652 806.374 534.34Z" fill="black"/>
<path d="M751.056 365.148C746.499 369.827 742.098 374.505 736.912 379.963C746.97 377.936 751.999 372.166 751.056 365.148Z" fill="black"/>
</g>
<g clip-path="url(#clip2_331_125)">
<path d="M91 184.557V170.252H109.087V154.992L127.175 155.946V170.252H147.166V155.946L165.254 154.992V170.252H184.293V184.557H91ZM137.647 154.039C113.847 154.039 98.6158 141.64 98.6158 125.428C98.6158 109.215 113.847 96.8164 137.647 96.8164C161.446 96.8164 176.678 109.215 176.678 125.428C176.678 141.64 161.446 154.039 137.647 154.039ZM137.647 111.122C125.271 111.122 117.655 116.844 117.655 125.428C117.655 134.011 126.223 139.733 137.647 139.733C150.022 139.733 157.638 134.011 157.638 125.428C157.638 116.844 150.022 111.122 137.647 111.122Z" fill="white"/>
<path d="M190.006 155.946V141.64H283.299V155.946H190.006ZM249.028 111.122C253.788 118.752 266.164 122.566 279.491 123.52L272.827 137.826C258.548 136.872 243.316 132.103 236.653 121.613C230.941 132.103 213.805 137.826 199.526 138.779L192.862 125.428C208.093 125.428 219.517 120.659 223.325 113.029H198.574V96.8164H274.731V111.122H249.028ZM200.478 194.094V160.715H271.876V194.094H200.478ZM254.74 174.066H218.565V180.742H254.74V174.066Z" fill="white"/>
<path d="M319.473 177.878L323.281 162.618C328.04 164.526 331.848 166.433 336.608 166.433C346.128 166.433 351.84 163.572 351.84 155.943C351.84 148.313 347.08 145.452 337.56 145.452C332.8 145.452 326.136 148.313 322.329 150.22L325.184 102.535H368.975V117.794H340.416L339.464 131.146C341.368 130.193 345.176 130.193 347.08 130.193C363.263 130.193 372.783 138.776 372.783 156.896C372.783 172.156 361.359 183.6 342.32 183.6C333.752 182.646 325.184 180.739 319.473 177.878Z" fill="white"/>
<path d="M380.4 144.499V141.638C380.4 112.073 396.584 100.629 414.671 100.629C432.759 100.629 448.942 112.073 448.942 140.684V142.592C448.942 172.157 431.807 182.647 414.671 182.647C395.632 183.601 380.4 172.157 380.4 144.499ZM426.095 143.546V141.638C426.095 124.471 422.287 116.842 413.719 116.842C405.152 116.842 402.296 124.471 402.296 140.684V143.546C402.296 160.712 405.152 168.342 413.719 168.342C422.287 168.342 426.095 160.712 426.095 143.546Z" fill="white"/>
<path d="M501.3 172.157C493.684 174.065 476.548 175.019 467.029 175.019H458.461V104.444H497.492V118.75H475.596V159.759C484.164 159.759 493.684 158.806 499.396 157.852L501.3 172.157ZM527.955 196V145.454H521.291V191.231H505.108V94.9074H521.291V131.148H527.955V93H545.09V196H527.955Z" fill="white"/>
<path d="M556.514 144.5V137.825H646.951V144.5H556.514ZM566.985 193.139V169.297H626.008V159.76H566.985V153.084H634.575V175.973H575.553V186.463H637.431V193.139H566.985V193.139ZM566.985 129.241V98.7227H634.575V105.399H575.553V121.612H635.527V128.287H566.985V129.241Z" fill="white"/>
<path d="M141.455 292.326V311.4H182.39V319.03H92.9043V311.4H133.839V292.326C114.8 291.372 102.424 280.882 102.424 265.622C102.424 249.409 116.704 237.965 138.599 237.965C160.494 237.965 174.774 248.456 174.774 265.622C173.822 280.882 160.494 291.372 141.455 292.326ZM137.647 245.594C120.512 245.594 110.04 253.224 110.04 265.622C110.04 278.02 120.512 285.65 137.647 285.65C154.783 285.65 165.254 278.02 165.254 265.622C165.254 253.224 153.831 245.594 137.647 245.594Z" fill="white"/>
<path d="M220.469 238.918C236.652 238.918 246.172 253.224 246.172 274.205C246.172 295.187 236.652 309.492 220.469 309.492C204.285 309.492 194.766 295.187 194.766 274.205C194.766 253.224 204.285 238.918 220.469 238.918ZM220.469 246.548C209.997 246.548 203.333 257.992 203.333 274.205C203.333 290.418 209.997 301.863 220.469 301.863C230.941 301.863 237.604 290.418 237.604 274.205C237.604 257.992 230.941 246.548 220.469 246.548ZM264.26 331.427V232.242H272.827V331.427H264.26Z" fill="white"/>
<path d="M335.656 271.344H346.128V234.15H354.695V327.613H346.128V278.974H335.656C334.704 297.094 327.088 309.492 313.761 309.492C299.481 309.492 291.865 295.187 291.865 275.159C291.865 255.131 299.481 240.826 313.761 240.826C327.088 240.826 334.704 253.224 335.656 271.344ZM313.761 248.455C306.145 248.455 300.433 258.946 300.433 275.159C300.433 291.372 305.193 301.863 313.761 301.863C322.328 301.863 327.088 291.372 327.088 275.159C327.088 258.946 321.376 248.455 313.761 248.455ZM366.119 331.427V232.242H374.687V331.427H366.119Z" fill="white"/>
<path d="M443.23 307.581C433.71 301.859 422.287 288.507 418.479 277.063C414.671 289.461 405.151 301.859 393.727 310.443L388.016 303.767C402.295 294.23 413.719 277.063 413.719 258.943V240.822H422.287V258.943C422.287 277.063 433.71 293.276 447.99 301.859L443.23 307.581ZM462.27 331.424V274.202H439.422V266.572H462.27V231.285H470.837V331.424H462.27Z" fill="white"/>
<path d="M141.455 407.724V422.03H182.39V429.659H92.9043V422.03H133.839V407.724H105.28V373.391H113.848V401.048H172.87V407.724H141.455ZM104.328 466.854V437.289H112.896V459.224H172.87V466.854H104.328V466.854Z" fill="white"/>
<path d="M209.996 437.287C223.324 437.287 242.363 436.333 251.883 434.426L252.835 442.056C242.363 443.963 222.372 445.871 205.237 445.871H195.717V379.111H243.315V386.741H204.285V437.287H209.996ZM268.067 408.676H284.25V416.306H268.067V469.713H259.499V369.574H268.067V408.676Z" fill="white"/>
<path d="M289.963 427.752V420.122H380.4V427.752H289.963ZM302.339 466.854V437.289H310.906V459.224H370.881V466.854H302.339V466.854ZM302.339 408.678V373.391H310.906V401.048H369.929V408.678H302.339Z" fill="white"/>
<path d="M435.614 433.472L436.566 441.102C427.046 443.009 415.622 443.963 402.295 443.963H390.871V381.019H430.854V388.648H399.439V436.333C412.766 437.287 427.046 435.38 435.614 433.472ZM421.334 415.352V407.722H444.182V371.482H452.749V463.991H444.182V415.352H421.334ZM464.173 468.759V369.574H472.741V469.713H464.173V468.759Z" fill="white"/>
<path d="M102.424 605.139V572.713H114.799V562.222C106.232 562.222 98.6158 562.222 92.9039 562.222L91 547.917C100.52 547.917 111.943 547.917 121.463 547.917C135.743 547.917 145.262 546.963 155.734 546.009L156.686 559.361C151.926 560.315 142.407 560.315 132.887 561.268V577.481H120.511V591.787H180.485V606.093H102.424V605.139ZM100.52 543.148V509.769H150.022V543.148H100.52ZM131.935 523.12H117.655V529.796H131.935V523.12ZM161.446 582.25V574.62H144.31V563.176H161.446V505H179.533V582.25H161.446Z" fill="white"/>
<path d="M230.94 528.843C230.94 550.778 237.604 562.222 254.74 571.759L244.268 585.111C235.7 581.296 224.277 569.852 221.421 560.315C218.565 570.806 207.141 583.204 198.573 587.972L188.102 574.62C205.237 565.083 211.901 551.731 212.853 528.843H192.861V514.537H250.932V528.843H230.94ZM276.635 505V608H258.548V505H276.635Z" fill="white"/>
<path d="M347.081 507.861C363.264 507.861 374.688 518.352 374.688 531.704C374.688 546.009 363.264 556.5 347.081 556.5C330.897 556.5 319.473 546.009 319.473 531.704C318.521 517.398 330.897 507.861 347.081 507.861ZM330.897 607.046V576.528H382.304V572.713H330.897V559.361H400.391V588.926H348.984V592.741H402.295V607.046H330.897ZM347.081 542.194C352.792 542.194 357.552 538.38 357.552 531.704C357.552 525.981 352.792 521.213 347.081 521.213C341.369 521.213 336.609 525.028 336.609 531.704C336.609 538.38 340.417 542.194 347.081 542.194ZM400.391 540.287V555.546H382.304V505H400.391V525.028H412.767V539.333H400.391V540.287Z" fill="white"/>
<path d="M445.133 510.722C462.269 510.722 472.741 526.935 472.741 547.917C472.741 569.852 462.269 585.111 445.133 585.111C427.998 585.111 416.574 568.898 416.574 547.917C416.574 526.935 427.998 510.722 445.133 510.722ZM445.133 526.935C439.422 526.935 434.662 533.611 434.662 547.917C434.662 563.176 439.422 569.852 445.133 569.852C450.845 569.852 455.605 563.176 455.605 547.917C455.605 533.611 450.845 526.935 445.133 526.935ZM499.396 543.148H511.771V557.454H499.396V608H481.308V505H499.396V543.148Z" fill="white"/>
<path d="M525.099 561.268C525.099 553.638 527.955 550.777 534.619 545.055C539.379 542.194 541.283 539.333 541.283 535.518C541.283 529.796 537.475 527.888 529.859 527.888C524.147 527.888 520.339 528.842 516.531 529.796V515.49C521.291 513.583 527.955 512.629 536.523 512.629C550.802 512.629 562.226 518.351 562.226 532.657C562.226 543.147 558.418 546.962 551.754 552.684C545.09 557.453 542.235 558.407 542.235 563.175V569.851H526.051V561.268H525.099ZM524.147 580.342H543.186V597.509H524.147V580.342Z" fill="white"/>
</g>
</g>
<defs>
<clipPath id="clip0_331_125">
<rect width="1060" height="1060" fill="white"/>
</clipPath>
<clipPath id="clip1_331_125">
<rect width="934.569" height="678.977" fill="white" transform="matrix(-1 0 0 1 1020.57 343)"/>
</clipPath>
<clipPath id="clip2_331_125">
<rect width="555" height="515" fill="white" transform="translate(91 93)"/>
</clipPath>
</defs>
</svg>
