<svg width="364" height="363" viewBox="0 0 364 363" fill="none" xmlns="http://www.w3.org/2000/svg">
<g clip-path="url(#clip0_324_2)" filter="url(#filter0_d_324_2)">
<rect width="360" height="360" transform="translate(2)" fill="#25A765"/>
<g opacity="0.4">
<path opacity="0.4" d="M294.205 143.251C293.76 143.567 304.806 161.679 304.806 161.679L286.398 150.636L294.205 143.251Z" fill="#25A765"/>
<path opacity="0.4" d="M90.7812 148.377V170.216L99.7772 147.952L90.7812 148.377Z" fill="#25A765"/>
<path opacity="0.4" d="M145.472 16.4093L138.219 2.29199L137.09 20.5911L145.472 16.4093Z" fill="#25A765"/>
<path opacity="0.4" d="M69.1949 79.8599C69.1949 79.8599 42.3359 90.4874 42.3359 123.101C42.3359 157.703 79.3897 163.98 94.2111 151.959C94.2111 151.959 128.025 168.142 144.927 145.948C144.927 145.948 153.031 154.272 182.674 152.868C212.317 151.465 221.125 143.457 221.125 143.457C221.125 143.457 225.752 160.718 252.621 164.415C279.49 168.113 291.953 148.261 291.953 148.261C291.953 148.261 312.333 143.645 316.959 119.592C321.586 95.5392 303.089 75.6781 276.2 66.4346C276.374 59.4637 275.013 52.5396 272.212 46.151C269.412 39.7624 265.24 34.065 259.992 29.4609C241.921 13.2873 220.154 19.298 212.278 22.9954C212.278 22.9954 208.315 12.358 181.812 8.66061C155.31 4.96323 141.876 18.3687 141.876 18.3687C141.876 18.3687 111.242 9.5207 84.9081 36.391C64.5682 57.211 69.1949 79.8599 69.1949 79.8599Z" fill="#25A765"/>
<path opacity="0.4" d="M157.666 27.1738C160.429 22.4275 164.419 18.5088 169.219 15.8272C174.019 13.1456 179.452 11.7995 184.951 11.9295C204.499 11.9295 212.365 29.9518 212.365 29.9518C212.365 29.9518 231.358 16.1113 252.203 29.9518C273.048 43.7922 267.946 66.9256 267.946 66.9256C267.946 66.9256 296.677 72.4716 305.465 96.5046C314.253 120.538 301.76 141.802 288.335 146.419C288.335 146.419 285.086 162.138 259.604 161.673C234.122 161.209 228.802 135.831 228.802 135.831C228.802 135.831 221.163 136.256 216.992 133.014C213.1 138.462 207.957 142.9 201.993 145.957C196.029 149.013 189.417 150.599 182.712 150.581C159.559 150.581 149.83 133.943 149.83 133.943C149.83 133.943 141.448 145.579 121.544 135.831C121.544 135.831 110.893 157.195 86.8085 143.483C86.8085 143.483 76.1581 153.952 62.7236 143.483C49.2892 133.014 38.1731 92.3426 76.594 83.0991C76.594 83.0991 73.919 66.0062 90.7715 42.428C107.624 18.8497 140.527 15.1622 157.666 27.1738Z" fill="#25A765"/>
<path opacity="0.4" d="M157.666 27.1738C160.429 22.4275 164.419 18.5088 169.219 15.8272C174.019 13.1456 179.452 11.7995 184.951 11.9295C204.499 11.9295 212.365 29.9518 212.365 29.9518C212.365 29.9518 231.358 16.1113 252.203 29.9518C273.048 43.7922 267.946 66.9256 267.946 66.9256C267.946 66.9256 296.677 72.4716 305.465 96.5046C314.253 120.538 301.76 141.802 288.335 146.419C288.335 146.419 285.086 162.138 259.604 161.673C234.122 161.209 228.802 135.831 228.802 135.831C228.802 135.831 221.163 136.256 216.992 133.014C213.1 138.462 207.957 142.9 201.993 145.957C196.029 149.013 189.417 150.599 182.712 150.581C159.559 150.581 149.83 133.943 149.83 133.943C149.83 133.943 141.448 145.579 121.544 135.831C121.544 135.831 110.893 157.195 86.8085 143.483C86.8085 143.483 76.1581 153.952 62.7236 143.483C49.2892 133.014 38.1731 92.3426 76.594 83.0991C76.594 83.0991 73.919 66.0062 90.7715 42.428C107.624 18.8497 140.527 15.1622 157.666 27.1738Z" fill="white"/>
<path opacity="0.4" d="M137.744 42.424C137.744 42.424 139.141 32.7159 161.373 29.9478C183.605 27.1797 196.574 36.1859 196.574 36.1859C196.574 36.1859 188.113 20.9911 170.171 22.5531C170.171 22.5531 176.898 12.7263 192.403 17.9264C207.908 23.1264 207.264 42.424 207.264 42.424C204.097 41.8509 200.844 41.9677 197.726 42.7662C194.609 43.5648 191.701 45.0263 189.203 47.0507C189.203 47.0507 209.117 41.9593 226.722 51.6674C244.328 61.3755 240.919 86.4663 240.919 86.4663C240.919 86.4663 248.954 86.7926 250.827 96.9653C252.699 107.138 237.392 118.22 228.823 107.128C228.823 107.128 225.85 120.969 198.486 117.766C171.122 114.562 167.912 90.4899 167.912 90.4899C167.912 90.4899 163.741 98.814 170.696 108.057C170.696 108.057 150.316 121.463 134.563 109.906C134.563 109.906 148.919 103.441 147.067 86.8024C147.067 86.8024 143.361 112.219 114.65 106.209C85.9378 100.198 89.1776 72.3589 101.215 67.3269C113.253 62.2949 122.526 67.3269 122.526 67.3269C122.526 67.3269 122.06 63.2242 110.479 59.9915C110.419 59.9915 112.272 40.1107 137.744 42.424Z" fill="white"/>
<path opacity="0.4" d="M86.5622 94.7261C86.5622 94.7261 68.7289 89.1801 64.7659 115.487C60.8029 141.794 101.126 143.168 104.831 127.963C104.831 127.963 93.2299 128.784 92.3085 118.205C92.3085 118.205 111.004 129.812 118.573 113.638C118.573 113.678 90.0397 112.284 86.5622 94.7261Z" fill="white"/>
<path opacity="0.4" d="M153.031 122.631C153.031 122.631 153.814 137.954 177.116 142.334C200.418 146.713 212.317 124.816 212.317 124.816C212.317 124.816 184.705 128.464 176.383 116.067C176.383 116.027 159.521 125.567 153.031 122.631Z" fill="white"/>
<path opacity="0.4" d="M122.758 109.649C122.758 109.649 142.216 112.615 145.456 99.8324C149.775 99.4072 154.135 99.8608 158.273 101.166C162.411 102.471 166.241 104.6 169.531 107.425C181.112 117.093 175.237 138.724 150.934 139.742C126.632 140.761 126.493 119.693 126.493 119.693C126.493 119.693 135.796 119.693 136.648 114.029C136.658 114.029 125.304 120.771 122.758 109.649Z" fill="white"/>
<path opacity="0.4" d="M216.488 41.1147C216.488 41.1147 242.456 48.9049 245.22 64.2184H260.963C260.963 64.2184 260.963 43.2698 245.22 35.9542C229.477 28.6385 216.488 41.1147 216.488 41.1147Z" fill="white"/>
<path opacity="0.4" d="M107.178 58.6711C107.178 58.6711 105.325 47.1143 116.442 38.8001C116.442 38.8001 108.1 36.9514 99.3018 44.3462C90.504 51.741 96.5277 64.2172 96.5277 64.2172C97.8313 62.6182 99.4483 61.3016 101.28 60.3479C103.111 59.3943 105.118 58.8237 107.178 58.6711V58.6711Z" fill="white"/>
<path opacity="0.4" d="M260.954 90.871C260.954 90.871 261.885 98.8886 260.954 102.586C260.954 102.586 281.333 105.255 285.97 118.245C285.97 118.245 299.365 114.242 291.993 94.2421C286.435 79.156 260.567 85.1865 260.954 90.871Z" fill="white"/>
<path opacity="0.4" d="M138.214 29.0161L107.184 -9.3418L122.699 35.9561C122.699 35.9561 129.782 32.5256 134.508 35.9561C134.508 35.9561 133.121 29.9058 138.214 29.0161Z" fill="#25A765"/>
<path opacity="0.4" d="M135.529 30.4495C133.716 32.5157 134.538 35.9462 134.538 35.9462C131.813 33.969 128.316 34.2754 125.849 34.8884C124.775 35.1425 123.727 35.4967 122.718 35.9462L107.184 -9.3418L138.214 29.0259C137.178 29.1686 136.227 29.673 135.529 30.4495V30.4495Z" fill="white"/>
<path opacity="0.4" d="M247.518 73.0062L296.154 60.5498L255.395 86.4611C253.049 84.4497 250.366 82.8668 247.469 81.785C247.469 81.785 248.915 76.7036 247.518 73.0062Z" fill="#25A765"/>
<path opacity="0.4" d="M247.518 73.0062L296.154 60.5498L255.395 86.4611C253.049 84.4497 250.366 82.8668 247.469 81.785C247.469 81.785 248.915 76.7036 247.518 73.0062Z" fill="white"/>
<path opacity="0.4" d="M86.5651 75.3136L50.2148 71.8535L75.7066 90.8743C75.7066 90.8743 83.1174 88.7488 86.6048 89.1936C86.5651 89.2233 85.4159 80.8597 86.5651 75.3136Z" fill="#25A765"/>
<path opacity="0.4" d="M86.5651 75.3136L50.2148 71.8535L75.7066 90.8743C75.7066 90.8743 83.1174 88.7488 86.6048 89.1936C86.5651 89.2233 85.4159 80.8597 86.5651 75.3136Z" fill="white"/>
<path opacity="0.4" d="M182.675 53.7497C182.675 53.7497 166.466 57.7041 168.626 76.2405C168.626 76.2405 156.896 72.6024 153.032 73.4922C153.032 73.4922 152.566 66.0677 145.473 64.2191C145.473 64.2191 152.259 57.4471 158.749 62.3704C158.749 62.3704 158.124 59.6023 152.259 57.4273C152.259 57.4273 161.582 47.0964 169.865 51.387C168.863 51.9548 168.041 52.793 167.494 53.8054C166.948 54.8178 166.698 55.9635 166.774 57.111C166.774 57.111 173.877 47.5808 182.675 53.7497Z" fill="white"/>
<path opacity="0.4" d="M176.036 119.996C176.036 119.996 181.465 128.894 190.174 128.31C190.174 128.31 173.718 136.476 167.387 129.467C168.875 129.974 170.46 130.133 172.02 129.933C173.579 129.732 175.072 129.177 176.383 128.31C176.383 128.31 171.092 130.772 167.387 124.919C167.387 124.919 173.569 124.306 176.036 119.996Z" fill="white"/>
<path opacity="0.4" d="M259.098 119.996C259.098 119.996 256.938 127.846 250.914 129.467C250.914 129.467 258.79 133.233 262.803 128.31C262.803 128.31 260.95 134.865 254.471 135.438C254.471 135.438 260.643 143.594 268.054 137.801C275.465 132.008 269.292 120.006 269.292 120.006C269.292 120.006 264.963 127.697 259.722 126.155C260.063 125.143 260.184 124.07 260.077 123.008C259.969 121.946 259.635 120.919 259.098 119.996V119.996Z" fill="white"/>
<path opacity="0.4" d="M76.6074 108.239C76.6074 108.239 74.5268 124.462 88.1892 126.143C88.1892 126.143 81.9376 133.063 73.328 124.304C64.7185 115.545 76.6074 108.239 76.6074 108.239Z" fill="white"/>
<path opacity="0.4" d="M112.5 129.646C112.5 129.646 125.538 141.055 135.664 131.91C135.664 131.91 132.81 142.548 122.695 141.223C112.579 139.898 112.5 129.646 112.5 129.646Z" fill="#25A765"/>
<path opacity="0.4" d="M232.121 86.9567C229.41 87.7599 227.097 89.5414 225.632 91.954C224.166 94.3666 223.654 97.2373 224.195 100.006C223.858 100.105 223.511 100.194 223.154 100.273C220.949 100.714 218.662 100.492 216.583 99.6366C214.504 98.7807 212.726 97.3289 211.473 95.4648C210.221 93.6006 209.551 91.4078 209.547 89.1636C209.543 86.9193 210.206 84.7243 211.453 82.8561C212.699 80.988 214.473 79.5304 216.549 78.6678C218.625 77.8051 220.911 77.5761 223.118 78.0097C225.325 78.4433 227.353 79.52 228.947 81.1037C230.54 82.6875 231.628 84.7071 232.071 86.9073L232.121 86.9567Z" fill="white"/>
<path opacity="0.4" d="M241.247 104.117C244.667 100.704 244.667 95.1708 241.247 91.7579C237.827 88.345 232.281 88.345 228.861 91.7579C225.441 95.1708 225.441 100.704 228.861 104.117C232.281 107.53 237.827 107.53 241.247 104.117Z" fill="white"/>
<path opacity="0.4" d="M116.444 71.8515C127.57 71.0902 137.745 78.8706 138.24 86.7992C138.736 94.7278 125.43 99.0381 116.444 95.6472C107.458 92.2563 108.102 84.6341 113.977 81.3618C110.956 81.6986 108.05 82.7125 105.476 84.3277C105.476 84.3277 104.089 72.7017 116.444 71.8515Z" fill="white"/>
<path opacity="0.4" d="M196.723 54.3647C196.723 54.3647 212.168 54.9776 216.488 65.7633C216.488 65.7633 212.287 62.9952 209.602 65.7633C209.602 65.7633 222.046 67.612 224.513 76.2425C224.513 76.2425 233.004 76.5885 235.054 83.0243C235.054 83.0243 238.136 61.6408 226.306 54.3548C214.477 47.0688 196.723 54.3647 196.723 54.3647Z" fill="white"/>
<path opacity="0.4" d="M135.526 30.453C133.713 32.5191 134.535 35.9496 134.535 35.9496C131.811 33.9724 128.313 34.2788 125.846 34.8918L118.574 13.3105L129.076 29.1282L126.302 18.9654L135.496 30.4727L135.526 30.453Z" fill="white"/>
<path opacity="0.4" d="M207.742 22.9185L216.49 8.04004V24.6288L207.742 22.9185Z" fill="#25A765"/>
</g>
<g opacity="0.4">
<path d="M307.351 233.993C292.37 225.577 275.174 244.737 281.252 258.259C281.252 258.259 267.394 255.94 269.08 267.785C270.765 279.63 279.722 279.799 279.722 279.799C279.722 279.799 274.928 295.115 258.672 300.673C258.672 300.673 287.55 300.831 296.925 283.25C296.925 283.25 305.867 286.939 313.145 275.303C320.424 263.667 314.962 254.045 314.962 254.045C314.962 254.045 320.97 241.633 307.351 233.993Z" fill="#25A765"/>
<path opacity="0.5" d="M307.322 233.902C292.342 225.492 275.152 244.666 281.243 258.188C281.243 258.188 267.379 255.875 269.077 267.72C270.775 279.565 279.732 279.728 279.732 279.728C279.732 279.728 274.952 295.044 258.696 300.621C258.696 300.621 287.574 300.747 296.935 283.159C296.935 283.159 305.877 286.848 313.156 275.199C320.434 263.55 314.952 253.941 314.952 253.941C314.952 253.941 320.948 241.535 307.322 233.902Z" fill="white"/>
<path opacity="0.3" d="M305.74 256.193C303.555 255.988 301.356 256.41 299.401 257.409C297.447 258.407 295.816 259.941 294.701 261.831C290.447 268.525 289.723 277.31 300.13 278.903C310.538 280.496 317.589 263.962 312.465 254.674C312.465 254.674 318.125 245.917 307.968 237.868C297.811 229.819 287.974 238.107 286.135 246.587C284.296 255.067 292.792 259.238 292.792 259.238C292.792 259.238 292.29 256.134 297.206 254.869C297.206 254.869 293.943 243.997 301.021 243.904C301.021 243.904 296.665 247.058 300.018 253.817C302.101 254.091 304.075 254.911 305.74 256.193Z" fill="white"/>
<path opacity="0.3" d="M283.579 261.524C283.579 261.524 284.484 263.487 288.586 264.667C288.586 264.667 285.343 273.141 289.674 277.077L283.503 278.853C283.503 278.853 288.517 272.933 283.538 270.972C283.538 270.972 285.051 278.703 277.758 275.726C270.465 272.75 273.922 258.524 283.579 261.524Z" fill="white"/>
</g>
<g opacity="0.4">
<path d="M105.37 302.518C105.37 302.518 91.2926 296.642 89.2229 284.654C89.2229 284.654 101.119 280.945 98.7881 265.452C96.4572 249.958 85.0768 245.538 85.0768 245.538C85.0768 245.538 86.2717 232.597 71.5549 233.354C56.8382 234.112 49.5973 244.362 49.9629 252.837C49.9629 252.837 44.9877 259.366 45.7516 267.92C46.5155 276.473 58.9144 291.47 69.5962 288.963C69.5962 288.963 76.4975 298.515 90.2675 303.164C90.2675 303.164 80.6958 296.981 77.3855 288.963C77.3855 288.963 78.4954 289.407 81.6229 288.963C81.6229 288.963 91.7627 300.931 105.37 302.518Z" fill="#25A765"/>
<path opacity="0.5" d="M105.393 302.566C105.393 302.566 91.3097 296.69 89.2334 284.722C89.2334 284.722 101.123 281.001 98.7791 265.507C96.4351 250.013 85.0678 245.606 85.0678 245.606C85.0678 245.606 86.2561 232.665 71.5394 233.429C56.8226 234.193 49.5948 244.457 49.9474 252.938C49.9474 252.938 44.9787 259.467 45.7491 268.021C46.5196 276.574 58.9315 291.526 69.6067 289.045C69.6067 289.045 76.5211 298.59 90.2912 303.226C90.2912 303.226 80.7129 297.056 77.396 289.038C77.396 289.038 78.506 289.482 81.6335 289.038C81.6335 289.051 91.7863 300.993 105.393 302.566Z" fill="white"/>
<path opacity="0.3" d="M68.3014 252.831C68.3014 252.831 75.0852 247.399 82.7636 248.261C90.4419 249.123 98.1071 262.579 96.2463 271.485C94.3855 280.391 84.1347 286.881 77.3835 283.818C70.6323 280.756 69.0784 274.26 70.6258 271.544C72.1732 268.828 78.3759 271.544 78.3759 271.544C78.3759 271.544 71.9186 265.21 68.3014 271.544C68.3014 271.511 59.5197 261.92 68.3014 252.831Z" fill="white"/>
<path opacity="0.3" d="M63.3918 255.435C63.3918 255.435 56.6798 251.622 51.2541 255.435C45.8283 259.248 48.9428 276.557 57.4699 282.518C65.997 288.48 73.9821 284.595 73.9821 284.595C73.9821 284.595 64.6846 275.558 62.654 268.311C60.6235 261.064 63.764 248.103 79.4797 245.537C79.4797 245.537 82.0261 240.19 72.9505 237.193C63.875 234.196 54.0943 242.011 54.3554 250.251C54.3554 250.251 58.1685 241.11 64.3973 242.044C64.3973 242.044 57.7376 244.604 57.4699 250.251C57.4699 250.245 63.4767 253.457 63.3918 255.435Z" fill="white"/>
</g>
<path d="M102.966 66.3853V69.2389H109.473V66.3853H102.966ZM96.2453 60.5714V64.1451C96.2453 68.8388 94.3784 73.6126 90.1647 75.5595L92.3782 78.4131C97.0187 76.0929 99.1256 70.359 99.1256 64.1451V60.5714H96.2453ZM96.992 60.5714V64.1451C96.992 70.3057 98.9389 75.7462 103.579 77.9864L105.686 75.1594C101.606 73.3459 99.819 68.8388 99.819 64.1451V60.5714H96.992ZM107.713 58.6512V83.4269H111.233V58.6512H107.713ZM123.072 70.439V73.8793H126.619V70.439H123.072ZM124.886 58.9179C119.232 58.9179 115.952 60.3847 115.952 63.105C115.952 65.8252 119.232 67.3187 124.886 67.3187C130.513 67.3187 133.82 65.8252 133.82 63.105C133.82 60.3847 130.513 58.9179 124.886 58.9179ZM124.886 61.5048C128.46 61.5048 130.14 62.0115 130.14 63.105C130.14 64.2517 128.46 64.7318 124.886 64.7318C121.312 64.7318 119.632 64.2517 119.632 63.105C119.632 62.0115 121.312 61.5048 124.886 61.5048ZM113.712 68.3855V71.1857H136.034V68.3855H113.712ZM116.272 72.7859V75.4261H129.846V76.6796H116.298V81.32H119.792V79.1332H133.34V72.7859H116.272ZM116.298 80.5466V83.2135H133.98V80.5466H116.298ZM147.767 60.5714V64.1717C147.767 68.7588 145.873 73.506 141.713 75.4528L143.846 78.3064C148.513 76.0129 150.647 70.279 150.647 64.1717V60.5714H147.767ZM148.487 60.5714V64.1717C148.487 70.0923 150.434 75.5862 154.887 77.853L157.021 75.0261C153.074 73.1059 151.314 68.5988 151.314 64.1717V60.5714H148.487ZM158.008 58.6779V83.3736H161.581V58.6779H158.008ZM160.781 68.1721V71.1324H165.155V68.1721H160.781ZM168.193 65.3452V68.1454H185.315V65.3452H168.193ZM165.42 70.7057V73.5326H187.795V70.7057H165.42ZM168.193 59.558V66.732H171.713V59.558H168.193ZM167.953 80.0132V82.8402H185.448V80.0132H167.953ZM167.953 75.5061V80.76H171.5V75.5061H167.953ZM197.692 72.3664L194.697 71.6502L195.778 62.0399H206.43V65.074H198.864L198.395 69.2801C198.647 69.1326 199.029 68.9763 199.541 68.8113C200.053 68.6377 200.626 68.5509 201.26 68.5509C202.18 68.5509 202.996 68.6941 203.708 68.9806C204.42 69.2671 205.023 69.6838 205.518 70.2307C206.022 70.7777 206.404 71.4461 206.664 72.2361C206.925 73.0262 207.055 73.9203 207.055 74.9187C207.055 75.7608 206.925 76.5638 206.664 77.3278C206.404 78.0831 206.009 78.7602 205.479 79.3592C204.95 79.9496 204.285 80.414 203.487 80.7526C202.688 81.0912 201.742 81.2604 200.648 81.2604C199.832 81.2604 199.042 81.1389 198.278 80.8958C197.523 80.6527 196.841 80.2925 196.233 79.815C195.634 79.3375 195.153 78.7602 194.788 78.0831C194.432 77.3972 194.245 76.6159 194.228 75.7391H197.952C198.004 76.2773 198.143 76.7418 198.369 77.1324C198.603 77.5144 198.912 77.8096 199.294 78.0179C199.676 78.2263 200.123 78.3305 200.635 78.3305C201.112 78.3305 201.52 78.2393 201.859 78.057C202.198 77.8747 202.471 77.6229 202.679 77.3017C202.888 76.9718 203.04 76.5899 203.135 76.1558C203.239 75.713 203.291 75.2356 203.291 74.7234C203.291 74.2112 203.231 73.7467 203.109 73.33C202.988 72.9133 202.801 72.553 202.549 72.2492C202.297 71.9453 201.976 71.7109 201.585 71.546C201.203 71.381 200.756 71.2986 200.244 71.2986C199.55 71.2986 199.011 71.4071 198.629 71.6241C198.256 71.8411 197.944 72.0886 197.692 72.3664ZM220.905 69.8531V73.1347C220.905 74.5584 220.753 75.7868 220.449 76.8199C220.145 77.8443 219.707 78.6864 219.134 79.3462C218.57 79.9973 217.897 80.4791 217.116 80.7916C216.334 81.1042 215.466 81.2604 214.511 81.2604C213.747 81.2604 213.035 81.1649 212.376 80.974C211.716 80.7743 211.121 80.4661 210.592 80.0494C210.071 79.6327 209.619 79.1075 209.237 78.4737C208.864 77.8313 208.577 77.0673 208.378 76.1818C208.178 75.2963 208.078 74.2806 208.078 73.1347V69.8531C208.078 68.4294 208.23 67.2096 208.534 66.1939C208.847 65.1695 209.285 64.3318 209.849 63.6806C210.422 63.0295 211.099 62.5521 211.881 62.2482C212.662 61.9357 213.53 61.7794 214.485 61.7794C215.249 61.7794 215.957 61.8793 216.608 62.0789C217.268 62.2699 217.862 62.5694 218.392 62.9775C218.921 63.3855 219.373 63.9107 219.746 64.5531C220.119 65.1869 220.406 65.9465 220.606 66.832C220.805 67.7088 220.905 68.7158 220.905 69.8531ZM217.142 73.6295V69.3452C217.142 68.6594 217.103 68.0604 217.024 67.5482C216.955 67.036 216.846 66.6019 216.699 66.246C216.551 65.8814 216.369 65.5862 216.152 65.3605C215.935 65.1348 215.688 64.9698 215.41 64.8657C215.132 64.7615 214.824 64.7094 214.485 64.7094C214.06 64.7094 213.682 64.7919 213.352 64.9568C213.031 65.1218 212.758 65.3865 212.532 65.7512C212.306 66.1071 212.132 66.5846 212.011 67.1836C211.898 67.7739 211.842 68.4945 211.842 69.3452V73.6295C211.842 74.3153 211.876 74.9187 211.946 75.4396C212.024 75.9605 212.137 76.4076 212.284 76.7808C212.441 77.1455 212.623 77.445 212.831 77.6794C213.048 77.9051 213.296 78.07 213.574 78.1742C213.86 78.2784 214.173 78.3305 214.511 78.3305C214.928 78.3305 215.297 78.248 215.618 78.0831C215.948 77.9094 216.226 77.6403 216.451 77.2757C216.686 76.9024 216.859 76.4162 216.972 75.8172C217.085 75.2182 217.142 74.489 217.142 73.6295ZM239.73 58.6779V83.3736H243.09V58.6779H239.73ZM236.423 68.1721V71.0257H240.53V68.1721H236.423ZM234.21 59.1046V82.2001H237.49V59.1046H234.21ZM222.582 74.8928V77.7997H224.315C227.489 77.7997 230.103 77.7197 233.09 77.133L232.823 74.2527C229.889 74.7861 227.356 74.8928 224.315 74.8928H222.582ZM222.582 61.5315V76.2796H226.102V64.3851H231.703V61.5315H222.582ZM247.862 65.3452V68.1454H264.984V65.3452H247.862ZM245.089 70.7057V73.5326H267.464V70.7057H245.089ZM247.862 59.558V66.732H251.382V59.558H247.862ZM247.622 80.0132V82.8402H265.117V80.0132H247.622ZM247.622 75.5061V80.76H251.169V75.5061H247.622ZM79.1242 100.651V125.427H82.6979V100.651H79.1242ZM81.8978 109.799V112.706H86.2716V109.799H81.8978ZM64.2962 116.546V119.48H66.3764C70.6701 119.48 74.0571 119.373 77.7908 118.706L77.4441 115.773C73.8171 116.413 70.5368 116.546 66.3764 116.546H64.2962ZM64.2962 102.945V117.96H67.8165V105.798H75.8173V102.945H64.2962ZM98.458 102.385C94.6976 102.385 91.9773 105.798 91.9773 111.186C91.9773 116.626 94.6976 120.04 98.458 120.04C102.218 120.04 104.939 116.626 104.939 111.186C104.939 105.798 102.218 102.385 98.458 102.385ZM98.458 105.612C100.298 105.612 101.552 107.559 101.552 111.186C101.552 114.866 100.298 116.839 98.458 116.839C96.6178 116.839 95.391 114.866 95.391 111.186C95.391 107.559 96.6178 105.612 98.458 105.612ZM107.632 100.678V125.374H111.206V100.678H107.632ZM110.406 109.985V112.919H114.78V109.985H110.406ZM117.818 107.345V110.145H134.939V107.345H117.818ZM115.044 112.706V115.533H137.42V112.706H115.044ZM117.818 101.558V108.732H121.338V101.558H117.818ZM117.578 122.013V124.84H135.073V122.013H117.578ZM117.578 117.506V122.76H121.125V117.506H117.578ZM156.086 100.678V125.374H159.473V100.678H156.086ZM146.698 109.692V112.546H152.432V109.692H146.698ZM150.992 101.105V124.28H154.299V101.105H150.992ZM138.964 116.973V119.906H140.671C144.271 119.906 146.725 119.8 149.472 119.24L149.205 116.359C146.485 116.893 144.165 116.973 140.671 116.973H138.964ZM138.964 103.451V118.2H142.458V106.278H148.379V103.451H138.964ZM165.391 119.836L165.378 122.349C165.378 123.313 165.135 124.285 164.649 125.266C164.171 126.247 163.564 127.05 162.826 127.675L160.872 126.672C161.089 126.273 161.302 125.874 161.51 125.474C161.719 125.075 161.892 124.636 162.031 124.159C162.17 123.681 162.24 123.139 162.24 122.531V119.836H165.391ZM189.103 100.678V118.36H192.65V100.678H189.103ZM183.103 105.505V108.359H189.637V105.505H183.103ZM176.329 122.12V124.947H193.21V122.12H176.329ZM176.329 116.946V123.773H179.903V116.946H176.329ZM173.342 102.358V112.732H176.862V102.358H173.342ZM173.342 111.986V114.946H175.395C179.022 114.946 182.756 114.759 186.623 113.959L186.17 111.052C182.436 111.772 178.889 111.986 175.395 111.986H173.342ZM209.143 109.536V116.556H213.967V109.536H209.143ZM211.591 94.812C206.371 94.812 202.375 98.232 202.375 103.02C202.375 107.808 206.371 111.228 211.591 111.228C216.847 111.228 220.771 107.808 220.771 103.02C220.771 98.232 216.847 94.812 211.591 94.812ZM211.591 98.916C214.147 98.916 216.091 100.392 216.091 103.02C216.091 105.612 214.147 107.16 211.591 107.16C209.035 107.16 207.091 105.612 207.091 103.02C207.091 100.392 209.035 98.916 211.591 98.916ZM223.903 92.832V126.276H228.691V92.832H223.903ZM201.583 119.58C207.343 119.58 215.191 119.508 222.427 118.068L222.067 114.612C215.047 115.656 206.875 115.728 201.007 115.728L201.583 119.58ZM237.115 110.759V113.559H259.437V110.759H237.115ZM246.476 108.145V111.559H249.996V108.145H246.476ZM239.862 101.398V109.159H256.61V101.398H239.862ZM253.116 104.145V106.438H243.355V104.145H253.116ZM239.675 114.786V117.426H253.25V118.68H239.702V123.32H243.195V121.133H256.743V114.786H239.675ZM239.702 122.547V125.214H257.383V122.547H239.702ZM276.156 100.651V125.427H279.677V100.651H276.156ZM278.877 109.985V112.919H283.25V109.985H278.877ZM261.328 116.786V119.693H263.408C267.702 119.693 271.089 119.533 274.823 118.866L274.476 116.013C270.849 116.653 267.596 116.786 263.408 116.786H261.328ZM261.302 102.758V105.585H269.142V109.505H261.328V117.88H264.849V112.332H272.663V102.758H261.302ZM290.3 117.205H286.98C286.989 116.424 287.049 115.751 287.162 115.187C287.284 114.614 287.488 114.097 287.774 113.637C288.069 113.177 288.46 112.721 288.946 112.27C289.354 111.905 289.71 111.558 290.014 111.228C290.318 110.898 290.557 110.56 290.73 110.212C290.904 109.856 290.991 109.461 290.991 109.027C290.991 108.524 290.913 108.107 290.756 107.777C290.609 107.439 290.383 107.183 290.079 107.009C289.784 106.835 289.411 106.748 288.959 106.748C288.586 106.748 288.239 106.831 287.917 106.996C287.596 107.152 287.331 107.395 287.123 107.725C286.923 108.055 286.819 108.489 286.811 109.027H283.034C283.06 107.838 283.334 106.857 283.855 106.084C284.384 105.303 285.092 104.726 285.977 104.352C286.863 103.97 287.857 103.779 288.959 103.779C290.175 103.779 291.216 103.979 292.084 104.378C292.953 104.769 293.617 105.346 294.077 106.11C294.537 106.866 294.767 107.786 294.767 108.871C294.767 109.626 294.619 110.299 294.324 110.889C294.029 111.471 293.643 112.014 293.165 112.517C292.688 113.021 292.163 113.542 291.59 114.08C291.095 114.523 290.756 114.987 290.574 115.473C290.4 115.959 290.309 116.537 290.3 117.205ZM286.589 121.229C286.589 120.673 286.78 120.213 287.162 119.849C287.544 119.475 288.056 119.289 288.699 119.289C289.332 119.289 289.84 119.475 290.222 119.849C290.613 120.213 290.808 120.673 290.808 121.229C290.808 121.767 290.613 122.223 290.222 122.596C289.84 122.97 289.332 123.156 288.699 123.156C288.056 123.156 287.544 122.97 287.162 122.596C286.78 122.223 286.589 121.767 286.589 121.229Z" fill="white"/>
<g clip-path="url(#clip1_324_2)">
<path d="M150.646 314.46C150.646 299.638 150.639 284.817 150.671 269.995C150.674 268.935 150.384 268.5 149.307 268.168C142.666 266.108 136.059 263.932 129.443 261.783C129.053 261.655 128.699 261.412 128.328 261.224C128.328 261.118 128.328 261.01 128.328 260.904C133.523 260.585 138.717 260.288 143.908 259.94C146.314 259.78 148.745 259.694 151.109 259.281C156.968 258.256 162.207 260.288 167.475 262.3C168.044 262.517 168.635 262.68 169.436 262.939C168.765 259.978 168.242 257.205 167.497 254.49C166.411 250.52 165.993 246.488 165.938 242.39C165.913 240.55 165.58 238.704 165.676 236.877C165.785 234.829 166.216 232.801 166.52 230.696C165.961 230.536 165.079 230.13 164.178 230.076C163.2 230.018 162.197 230.248 161.22 230.431C160.616 230.542 160.044 230.817 159.447 230.98C158.316 231.287 157.619 230.935 157.664 229.664C157.754 227.239 157.936 224.818 157.955 222.394C157.968 220.768 157.814 219.136 157.648 217.516C157.211 213.21 159.262 209.508 160.475 205.601C161.044 203.774 161.565 201.931 162.14 200.107C162.389 199.321 162.718 198.561 163.025 197.746C161.421 196.504 159.757 195.271 158.156 193.964C153.84 190.438 150.658 185.896 147.394 181.468C146.633 180.437 145.151 179.101 146.323 177.172C146.566 176.77 145.464 175.437 144.841 174.648C143.883 173.438 142.8 172.326 141.774 171.167C141.043 170.343 140.234 169.57 139.631 168.659C139.327 168.202 139.35 167.496 139.353 166.906C139.353 166.803 139.985 166.701 140.353 166.592C140.155 164.922 140.803 163.778 142.442 163.194C142.742 163.085 143.205 163.28 143.538 163.446C144.247 163.797 144.924 164.225 145.774 164.714C147.834 167.643 147.493 171.905 150.304 174.837C152.173 176.785 153.837 178.926 155.645 180.935C157.629 183.142 159.939 184.883 162.475 186.49C163.996 187.451 165.443 188.624 167.085 189.473C167.839 189.863 168.328 189.774 169.034 189.215C169.836 188.579 170.915 188.295 171.887 187.851C171.621 185.052 171.181 182.094 171.101 179.127C171.002 175.514 173.302 173.345 176.87 172.834C179.959 172.393 182.429 173.023 184.588 175.144C186.828 177.341 187.234 180.191 185.956 183.04C185.013 185.145 183.611 187.129 183.815 189.614C183.825 189.719 183.854 189.821 183.882 189.959C186.09 191.406 187.729 189.716 189.39 188.777C190.393 188.208 191.141 187.953 192.077 188.665C193.22 189.534 194.488 189.16 195.399 188.509C198.364 186.381 201.338 184.225 204.044 181.788C207.27 178.884 210.18 175.632 213.321 172.63C214.282 171.71 215.557 171.125 216.672 170.362C218.173 169.333 218.48 168.142 218.288 166.382C218.084 164.487 218.231 162.555 218.196 160.638C218.189 160.29 217.905 159.9 217.994 159.603C218.141 159.124 218.493 158.709 218.755 158.265C219.212 158.575 219.994 158.821 220.065 159.201C220.25 160.204 220.128 161.264 220.128 162.303C220.298 162.373 220.464 162.443 220.633 162.517C221.419 161.357 222.237 160.217 222.981 159.028C223.563 158.105 224.099 157.147 224.572 156.163C225.243 154.764 226.575 154.726 227.642 154.336C229.252 156.061 228.658 157.703 227.524 159.654C228.412 159.079 228.891 158.77 229.367 158.46C229.53 158.549 229.69 158.639 229.853 158.731C229.565 159.597 229.444 160.571 228.961 161.312C226.46 165.149 224.384 169.272 221.064 172.559C219.946 173.665 220.16 175.297 220.32 176.814C220.368 177.274 220.08 177.935 219.723 178.245C216.832 180.75 213.877 183.177 210.973 185.666C210.228 186.301 209.442 186.978 208.944 187.799C206.954 191.08 203.836 193.166 200.993 195.549C199.232 197.025 197.376 198.389 195.651 199.903C195.338 200.177 195.309 200.973 195.396 201.484C196.789 209.703 199.638 217.519 202.092 225.444C202.491 226.728 202.846 228.028 203.239 229.316C203.631 230.609 202.156 232.389 200.967 231.791C198.696 230.645 196.661 231.881 194.536 231.989C193.121 232.063 191.732 232.542 190.323 232.839C191.856 243.815 189.904 254.496 189.153 265.373C189.949 265.373 190.518 265.373 191.089 265.373C198.156 265.373 205.222 265.296 212.286 265.402C216.602 265.466 220.917 265.775 225.23 266.025C228.112 266.191 230.99 266.437 233.868 266.644C233.868 266.858 233.868 267.069 233.868 267.283C233.654 267.283 233.437 267.251 233.233 267.286C229.329 267.922 225.422 268.545 221.524 269.213C219.042 269.637 216.57 270.129 214.097 270.592C214.097 271.42 214.097 272.059 214.097 272.694C214.097 284.328 214.091 295.962 214.11 307.595C214.11 308.522 214.03 309.138 212.899 309.381C207.823 310.464 202.759 311.611 197.705 312.792C194.179 313.62 190.668 314.227 187 314.185C175.739 314.061 164.475 314.134 153.211 314.153C152.677 314.153 152.144 314.354 151.614 314.463C151.285 314.46 150.965 314.46 150.646 314.46ZM191.345 313.438C191.345 298.418 191.345 283.529 191.345 268.679C177.934 268.679 164.635 268.679 151.364 268.679C151.364 283.66 151.364 298.514 151.364 313.438C164.708 313.438 177.972 313.438 191.345 313.438ZM192.172 268.73C192.172 283.756 192.172 298.44 192.172 313.137C192.466 313.153 192.69 313.217 192.885 313.173C199.197 311.706 205.494 310.16 211.832 308.806C213.199 308.515 213.484 308.023 213.48 306.762C213.439 295.348 213.455 283.938 213.455 272.525C213.455 271.963 213.455 271.401 213.455 270.787C206.27 270.091 199.296 269.417 192.172 268.73ZM179.886 267.826C177.768 257.751 175.685 247.827 173.599 237.902C173.813 237.857 174.03 237.816 174.244 237.771C176.365 247.811 178.487 257.847 180.595 267.817C181.547 267.817 182.483 267.817 183.544 267.817C182.994 262.239 182.422 256.777 181.927 251.308C181.442 245.939 181.039 240.563 180.602 235.187C180.793 235.174 180.988 235.161 181.18 235.152C182.18 246.035 183.18 256.921 184.179 267.813C185.694 267.813 187.093 267.813 188.483 267.813C188.636 264.705 188.69 261.7 188.952 258.71C189.268 255.119 189.923 251.554 190.137 247.964C190.345 244.473 190.272 240.953 190.131 237.452C190.086 236.327 189.505 235.196 189.054 234.117C188.495 232.778 187.815 231.488 187.189 230.175C187.333 230.102 187.479 230.028 187.623 229.955C188.201 230.865 188.78 231.775 189.358 232.689C189.438 232.654 189.521 232.615 189.601 232.58C189.192 230.795 188.786 229.006 188.396 227.303C181.464 228.15 175.014 231.523 168.136 229.249C167.82 230.213 167.552 230.884 167.382 231.581C166.983 233.235 166.395 234.89 166.318 236.564C166.207 239.03 166.401 241.518 166.6 243.984C166.791 246.373 166.983 248.788 167.475 251.126C168.65 256.7 170.005 262.239 171.292 267.82C174.027 267.826 176.813 267.826 179.886 267.826ZM190.409 188.809C190.652 189.997 190.853 190.975 191.051 191.952C190.92 192 190.786 192.048 190.655 192.096C190.329 191.275 190.006 190.451 189.681 189.623C188.211 190.265 186.742 190.907 185.25 191.556C185.393 192.856 185.534 194.137 185.684 195.494C187 194.894 188.17 194.361 189.697 193.664C189.233 196.156 187.141 195.986 186.109 197.05C186.4 198.344 186.643 199.666 186.997 200.96C188.144 205.132 188.412 209.492 190.732 213.411C193.651 218.34 196.015 223.598 198.632 228.706C198.939 229.306 199.223 230.05 199.74 230.37C200.331 230.734 201.188 230.839 201.887 230.75C202.104 230.721 202.437 229.613 202.296 229.118C201.191 225.227 199.996 221.362 198.779 217.503C198.664 217.142 198.268 216.797 197.913 216.596C196.878 216.005 196.814 215.222 197.645 214.545C196.952 211.482 196.293 208.498 195.594 205.525C195.23 203.969 194.942 202.369 194.351 200.899C193.431 198.612 192.265 196.424 191.246 194.175C191.163 193.993 191.406 193.664 191.543 193.265C192.492 195.625 193.37 197.81 194.249 199.995C196.734 198.044 199.101 196.312 201.319 194.408C203.417 192.607 205.398 190.658 207.353 188.697C207.842 188.208 207.874 187.237 208.385 186.803C212.043 183.692 215.771 180.66 219.403 177.667C217.589 176.009 215.838 174.409 214.228 172.933C209.768 177.491 205.264 182.101 200.603 186.863C201.034 185.995 201.414 185.228 201.795 184.461C200.006 185.615 198.482 187.033 196.868 188.336C196.226 188.854 195.409 189.234 194.607 189.457C193.802 189.684 193.268 189.901 193.345 190.882C193.421 191.882 193.361 192.888 193.361 193.894C193.15 193.894 192.942 193.894 192.731 193.894C192.731 193.201 192.639 192.492 192.751 191.815C193.022 190.144 192.23 189.291 190.409 188.809ZM185.163 224.949C185.288 225.013 185.409 225.077 185.534 225.141C186.029 221.755 186.521 218.369 187.016 214.98C187.205 215.012 187.39 215.047 187.579 215.079C187.154 218.401 186.729 221.72 186.307 225.016C187.614 225.019 188.227 224.563 188.326 223.279C188.543 220.471 188.777 217.65 189.281 214.884C189.633 212.951 188.997 211.514 188 209.993C185.968 206.895 184.512 203.522 183.451 199.967C183.093 198.762 182.502 197.628 182.017 196.462C180.962 196.977 180.078 197.411 179.193 197.842C179.11 197.695 179.023 197.552 178.94 197.405C179.448 197.044 179.959 196.683 180.199 196.513C180.346 195.954 180.359 195.36 180.544 195.303C181.809 194.897 181.688 194.022 181.458 193.054C179.554 193.431 178.704 194.37 178.701 196.066C178.701 196.702 178.733 197.344 178.682 197.976C178.273 203.043 177.781 208.106 177.455 213.178C177.295 215.663 177.286 218.18 177.493 220.659C177.666 222.729 178.301 224.767 176.925 226.917C179.391 226.431 181.86 225.943 184.368 225.451C184.739 222.777 185.1 220.167 185.461 217.561C185.646 217.586 185.831 217.612 186.013 217.641C185.726 220.075 185.445 222.512 185.163 224.949ZM131.194 261.24C131.194 261.329 131.19 261.422 131.19 261.511C136.807 263.332 142.506 264.939 148.007 267.063C150.869 268.168 153.578 267.74 156.354 267.545C160.319 267.264 164.267 266.775 168.213 266.293C168.868 266.213 169.912 265.798 169.999 265.379C170.162 264.578 169.772 263.766 168.698 263.424C165.686 262.46 162.731 261.307 159.715 260.352C158.444 259.949 157.057 259.61 155.744 259.674C151.815 259.863 147.901 260.31 143.975 260.566C139.717 260.843 135.452 261.019 131.194 261.24ZM166.223 201.203C163.974 204.33 161.798 207.352 159.632 210.38C159.482 210.588 159.38 210.837 159.29 211.079C158.354 213.622 158.038 216.168 158.524 218.909C158.869 220.86 158.626 222.927 158.559 224.94C158.501 226.703 158.319 228.466 158.163 230.632C159.383 230.217 160.178 229.891 161.006 229.68C161.757 229.488 162.549 229.268 163.3 229.332C164.565 229.44 165.814 229.76 167.222 230.018C167.245 220.247 167.235 210.648 166.223 201.203ZM168.628 218.915C168.81 218.883 168.995 218.851 169.178 218.819C169.462 221.554 169.749 224.288 170.04 227.105C171.005 227.105 171.768 227.105 172.695 227.105C171.193 225.419 171.222 225.419 171.363 222.78C171.599 218.308 171.733 213.83 172.037 209.364C172.181 207.237 172.602 205.129 172.912 203.017C173.251 200.711 174.088 198.401 172.11 196.296C171.57 195.721 171.577 194.635 171.334 193.782C171.462 193.757 171.586 193.731 171.714 193.702C172.359 195.047 173.005 196.389 173.695 197.826C175.346 195.967 174.164 194.897 172.433 193.715C173.331 193.715 173.605 193.715 174.017 193.715C172.452 192.38 171.673 192.326 170.634 193.603C169.523 194.974 168.504 196.43 167.532 197.906C166.849 198.948 166.421 199.976 166.817 201.41C167.325 203.25 167.459 205.231 167.513 207.157C167.689 213.456 167.753 219.755 167.861 226.058C167.865 226.265 167.906 226.476 167.935 226.703C168.408 226.773 168.855 226.837 169.277 226.901C169.059 224.243 168.842 221.579 168.628 218.915ZM178.113 194.737C177.976 194.603 177.838 194.472 177.704 194.338C176.998 194.789 176.129 195.111 175.628 195.728C175.094 196.383 174.791 197.29 174.589 198.136C172.957 204.966 172.248 211.913 171.998 218.918C171.935 220.698 171.8 222.474 171.714 224.253C171.705 224.451 171.727 224.706 171.842 224.847C172.593 225.76 173.372 226.652 174.139 227.543C177.043 225.096 177.327 224.607 177.103 222.394C177.046 221.825 176.803 221.266 176.81 220.707C176.889 215.638 176.972 210.565 177.139 205.499C177.183 204.103 177.586 202.723 177.707 201.327C177.896 199.13 177.982 196.932 178.113 194.737ZM165.858 189.86C164.089 188.63 162.415 187.464 160.488 186.122C160.415 187.684 160.36 188.876 160.306 190.071C160.15 190.08 159.993 190.09 159.837 190.099C159.798 189.157 159.798 188.211 159.712 187.276C159.651 186.608 159.706 185.736 159.316 185.321C157.15 183.002 154.818 180.839 152.639 178.533C151.083 176.885 149.381 176.968 148.103 178.919C147.505 179.83 147.438 180.584 148.221 181.545C150.323 184.129 152.262 186.848 154.323 189.467C154.811 190.087 155.527 190.527 156.415 191.284C156.415 189.713 156.415 188.576 156.415 187.266C157.086 189.358 157.287 191.556 158.409 193.076C159.616 194.712 161.683 195.712 163.386 196.996C163.98 196.031 164.443 195.28 164.906 194.533C165.363 193.795 165.826 193.06 166.35 192.224C165.957 192.252 165.686 192.268 165.36 192.291C165.542 191.406 165.705 190.607 165.858 189.86ZM179.547 178.322C178.905 178.105 177.95 177.603 176.95 177.485C174.315 177.172 172.209 177.804 172.053 180.232C171.835 183.532 172.171 186.825 173.292 189.975C174.104 192.259 175.535 192.83 177.634 191.735C178.317 191.377 178.908 190.847 179.55 190.409C179.835 190.214 180.314 189.837 180.413 189.914C181.691 190.901 182.023 188.991 182.988 189.112C183.045 188.406 183.1 187.697 183.157 186.991C182.981 186.918 182.803 186.848 182.627 186.774C182.454 187.237 182.279 187.704 182.106 188.167C181.902 187.988 181.7 187.809 181.496 187.633C181.876 187.097 182.477 186.049 182.601 186.103C183.959 186.688 184.157 185.455 184.317 184.854C184.54 184.021 184.307 183.062 184.269 182.155C184.08 182.146 183.889 182.133 183.7 182.123C183.224 182.794 182.751 183.468 182.282 184.129C181.349 182.155 180.509 180.366 179.547 178.322ZM198.801 230.546C197.335 227.786 195.926 225.138 194.428 222.317C194.025 224.278 193.664 226.022 193.306 227.77C193.156 225.281 193.897 222.787 193.453 220.522C193.003 218.228 191.383 216.165 190.074 213.606C189.764 216.625 189.703 219.145 189.211 221.576C188.463 225.253 189.23 228.664 190.326 232.066C193.163 231.558 195.907 231.066 198.801 230.546ZM224.876 157.489C224.824 157.45 224.77 157.415 224.719 157.377C223.789 158.933 222.933 160.539 221.885 162.012C221.528 162.513 220.694 162.676 220.077 162.996C219.889 162.389 219.649 161.791 219.528 161.172C219.39 160.463 219.358 159.734 219.282 159.012C219.113 159.035 218.943 159.06 218.774 159.083C218.803 159.629 218.847 160.175 218.854 160.725C218.87 162.641 218.601 164.612 218.972 166.455C219.259 167.889 218.908 168.876 218.183 169.927C217.863 170.39 217.534 170.85 217.215 171.307C217.854 172.106 218.419 172.815 219.279 173.891C222.093 170.061 224.748 166.449 227.406 162.836C227.284 162.74 227.16 162.644 227.038 162.552C226.703 162.708 226.367 162.862 226.032 163.018C225.898 162.941 225.764 162.865 225.63 162.788C226.435 160.686 227.24 158.584 228.041 156.483C227.958 156.447 227.875 156.412 227.792 156.377C226.965 158.073 226.137 159.773 225.31 161.469C225.134 161.386 224.962 161.303 224.786 161.22C225.601 159.348 226.415 157.473 227.23 155.601C227.096 155.543 226.965 155.486 226.831 155.428C225.888 157.335 224.943 159.242 224 161.149C223.853 161.085 223.703 161.022 223.556 160.958C223.994 159.798 224.435 158.645 224.876 157.489ZM229.731 267.216C218.55 265.555 207.206 266.309 195.923 268.475C196.875 268.58 197.836 268.497 198.776 268.596C202.465 268.976 206.149 269.43 209.835 269.826C210.912 269.941 212.027 270.152 213.075 269.989C218.72 269.107 224.348 268.123 229.731 267.216ZM172.075 177.923C174.707 176.223 177.298 176.549 179.895 177.696C180.161 177.814 180.455 178.038 180.566 178.29C181.122 179.542 181.621 180.817 182.138 182.085C182.228 181.922 182.317 181.762 182.406 181.599C183.39 181.746 184.371 181.89 185.512 182.059C186.812 180.411 185.866 177.578 184.569 176.121C181.956 173.182 178.656 172.764 175.049 173.936C173.672 174.38 172.126 176.415 172.075 177.923ZM147.253 176.345C147.988 176.003 148.847 175.604 149.726 175.195C148.512 173.409 147.058 171.956 147.001 169.614C146.969 168.314 146.058 167.036 145.477 165.586C145.359 167.768 145.253 169.672 145.148 171.576C145.017 171.572 144.883 171.572 144.752 171.569C144.752 170.371 144.752 169.173 144.752 167.998C144.276 167.752 143.854 167.532 143.665 167.433C143.161 168.365 142.669 169.272 141.972 170.56C143.579 172.32 145.349 174.259 147.253 176.345ZM183.077 191.805C181.953 193.083 182.09 194.402 182.627 195.811C183.291 197.545 183.803 199.34 184.486 201.069C185.352 203.253 186.323 205.4 187.246 207.563C187.396 207.511 187.543 207.46 187.694 207.409C187.291 205.566 186.892 203.72 186.489 201.877C185.914 199.251 185.189 196.644 184.828 193.99C184.659 192.731 184.556 191.85 183.077 191.805ZM160.888 207.943C161.498 207.051 162.159 206.192 162.709 205.263C164.874 201.605 166.989 197.916 169.155 194.258C170.047 192.751 171.145 191.482 173.196 191.703C172.922 190.987 172.701 190.412 172.484 189.853C170.031 190.023 161.277 203.301 160.888 207.943ZM189.332 266.053C188.952 267.529 189.492 268.056 190.847 267.928C194.434 267.587 198.028 267.306 201.612 266.932C203.424 266.743 205.219 266.414 207.021 266.149C207.018 266.117 207.018 266.085 207.015 266.053C201.152 266.053 195.29 266.053 189.332 266.053ZM163.191 200.113C164.958 197.44 166.657 194.721 168.523 192.118C169.43 190.853 170.647 189.812 171.82 188.569C170.973 188.994 169.877 189.23 169.27 189.904C166.587 192.898 164.36 196.204 163.191 200.113ZM215.023 172.748C216.397 173.952 217.643 175.048 219.017 176.255C219.314 175.735 219.547 175.326 219.64 175.163C218.448 173.821 217.41 172.652 216.336 171.441C215.934 171.841 215.522 172.25 215.023 172.748ZM170.334 266.753C167.012 267.076 163.776 267.392 160.536 267.708C160.539 267.756 160.543 267.801 160.543 267.849C163.801 267.849 167.06 267.849 170.385 267.849C170.366 267.43 170.35 267.082 170.334 266.753ZM177.17 227.428C177.26 228.904 177.26 228.904 181.605 227.875C181.509 227.588 181.4 227.064 181.323 227.067C179.975 227.144 178.634 227.287 177.17 227.428ZM182.375 227.374C182.515 227.482 182.656 227.594 182.796 227.703C183.902 227.492 185.01 227.313 186.103 227.054C186.368 226.99 186.572 226.677 186.805 226.476C186.512 226.262 186.192 225.837 185.927 225.869C185.02 225.975 184.109 226.173 183.247 226.473C182.895 226.597 182.662 227.064 182.375 227.374ZM150.444 176.195C148.339 176.025 146.454 177.466 146.946 178.779C148.074 177.945 149.227 177.092 150.444 176.195ZM179.806 191.939C180.71 192.041 181.304 192.109 181.924 192.179C182.339 191.473 182.755 190.77 183.167 190.071C183.109 190 183.052 189.933 182.994 189.863C182.007 190.505 181.02 191.147 179.806 191.939ZM173.043 229.006C173.049 229.13 173.056 229.255 173.065 229.38C174.085 229.226 175.104 229.073 176.091 228.923C176.311 227.578 175.691 227.543 174.851 227.955C174.225 228.262 173.644 228.651 173.043 229.006Z" fill="black"/>
<path d="M191.348 313.438C177.972 313.438 164.711 313.438 151.367 313.438C151.367 298.514 151.367 283.661 151.367 268.68C164.638 268.68 177.937 268.68 191.348 268.68C191.348 283.527 191.348 298.419 191.348 313.438ZM172.643 273.331C173.864 273.331 175.081 273.302 176.301 273.34C177.259 273.369 177.464 272.842 177.432 272.034C177.4 271.296 177.563 270.468 176.403 270.475C173.912 270.481 171.417 270.405 168.934 270.539C168.452 270.564 167.586 271.475 167.653 271.836C167.759 272.398 168.452 273.164 169.001 273.267C170.177 273.481 171.426 273.331 172.643 273.331Z" fill="white"/>
<path d="M192.172 268.729C199.296 269.415 206.27 270.089 213.458 270.782C213.458 271.396 213.458 271.958 213.458 272.52C213.458 283.933 213.442 295.343 213.483 306.757C213.486 308.018 213.202 308.51 211.835 308.801C205.497 310.155 199.2 311.701 192.887 313.168C192.689 313.212 192.469 313.152 192.175 313.133C192.172 298.436 192.172 283.755 192.172 268.729Z" fill="white"/>
<path d="M179.886 267.825C176.813 267.825 174.024 267.825 171.296 267.825C170.008 262.245 168.654 256.706 167.478 251.132C166.986 248.793 166.795 246.379 166.603 243.989C166.405 241.52 166.21 239.032 166.322 236.569C166.398 234.895 166.986 233.237 167.386 231.586C167.555 230.889 167.823 230.219 168.14 229.254C175.018 231.528 181.467 228.158 188.4 227.309C188.789 229.011 189.195 230.797 189.604 232.586C189.524 232.621 189.441 232.659 189.361 232.694C188.783 231.784 188.205 230.873 187.627 229.96C187.483 230.033 187.336 230.107 187.192 230.18C187.818 231.49 188.499 232.78 189.058 234.122C189.508 235.202 190.09 236.329 190.134 237.457C190.275 240.958 190.348 244.475 190.141 247.969C189.927 251.563 189.272 255.128 188.956 258.715C188.69 261.705 188.636 264.711 188.486 267.819C187.096 267.819 185.697 267.819 184.183 267.819C183.183 256.926 182.183 246.04 181.183 235.157C180.991 235.17 180.797 235.183 180.605 235.192C181.043 240.565 181.448 245.944 181.931 251.314C182.423 256.782 182.998 262.241 183.547 267.822C182.487 267.822 181.55 267.822 180.598 267.822C178.493 257.856 176.372 247.816 174.248 237.776C174.034 237.821 173.816 237.863 173.602 237.907C175.685 247.826 177.771 257.747 179.886 267.825ZM170.638 263.414C170.839 263.401 171.037 263.388 171.238 263.372C170.606 255.029 169.973 246.685 169.315 238.345C169.302 238.201 168.948 238.086 168.564 237.834C169.264 246.51 169.951 254.962 170.638 263.414Z" fill="white"/>
<path d="M190.406 188.814C192.227 189.3 193.019 190.149 192.751 191.82C192.642 192.497 192.732 193.206 192.732 193.899C192.943 193.899 193.15 193.899 193.361 193.899C193.361 192.896 193.422 191.887 193.345 190.887C193.272 189.903 193.802 189.689 194.607 189.463C195.406 189.239 196.223 188.859 196.869 188.341C198.485 187.038 200.006 185.62 201.795 184.467C201.415 185.233 201.035 186 200.603 186.869C205.264 182.103 209.769 177.497 214.228 172.938C215.842 174.411 217.592 176.015 219.404 177.672C215.771 180.669 212.043 183.697 208.385 186.808C207.874 187.243 207.842 188.214 207.353 188.702C205.398 190.664 203.421 192.612 201.319 194.414C199.099 196.318 196.731 198.049 194.249 200.001C193.371 197.816 192.492 195.628 191.543 193.27C191.406 193.666 191.163 193.995 191.246 194.181C192.265 196.429 193.428 198.617 194.351 200.905C194.942 202.377 195.23 203.974 195.594 205.53C196.294 208.504 196.952 211.487 197.645 214.551C196.814 215.228 196.878 216.01 197.913 216.601C198.265 216.803 198.664 217.148 198.779 217.509C199.996 221.367 201.188 225.232 202.296 229.123C202.437 229.618 202.105 230.727 201.888 230.755C201.188 230.848 200.329 230.743 199.741 230.375C199.223 230.056 198.939 229.308 198.632 228.711C196.013 223.603 193.649 218.345 190.732 213.417C188.413 209.497 188.144 205.137 186.997 200.965C186.643 199.675 186.4 198.349 186.109 197.055C187.141 195.989 189.234 196.161 189.697 193.669C188.17 194.366 187.001 194.899 185.684 195.5C185.534 194.142 185.394 192.861 185.25 191.561C186.742 190.91 188.211 190.268 189.681 189.629C190.007 190.456 190.333 191.28 190.655 192.101C190.786 192.053 190.92 192.005 191.051 191.957C190.85 190.98 190.649 190.002 190.406 188.814Z" fill="white"/>
<path d="M185.164 224.945C185.445 222.508 185.729 220.071 186.011 217.633C185.825 217.608 185.64 217.582 185.458 217.554C185.097 220.16 184.736 222.77 184.365 225.443C181.858 225.939 179.391 226.424 176.922 226.91C178.299 224.763 177.66 222.722 177.491 220.652C177.286 218.173 177.296 215.656 177.452 213.171C177.778 208.098 178.27 203.035 178.679 197.969C178.73 197.337 178.698 196.695 178.698 196.059C178.701 194.363 179.551 193.424 181.455 193.047C181.685 194.015 181.806 194.89 180.541 195.296C180.359 195.353 180.346 195.947 180.196 196.506C179.954 196.679 179.446 197.037 178.938 197.398C179.021 197.544 179.107 197.688 179.19 197.835C180.075 197.404 180.96 196.969 182.014 196.455C182.5 197.621 183.087 198.755 183.448 199.959C184.506 203.515 185.963 206.891 187.998 209.986C188.994 211.507 189.63 212.944 189.279 214.877C188.774 217.643 188.541 220.464 188.323 223.271C188.224 224.555 187.611 225.012 186.304 225.009C186.726 221.716 187.151 218.394 187.576 215.072C187.387 215.04 187.202 215.004 187.014 214.973C186.518 218.359 186.027 221.744 185.531 225.134C185.41 225.073 185.285 225.009 185.164 224.945Z" fill="white"/>
<path d="M131.19 261.242C135.452 261.022 139.713 260.846 143.968 260.568C147.895 260.312 151.808 259.865 155.737 259.677C157.05 259.613 158.434 259.951 159.708 260.354C162.724 261.309 165.679 262.462 168.691 263.427C169.765 263.772 170.155 264.58 169.992 265.382C169.905 265.8 168.861 266.215 168.206 266.295C164.261 266.778 160.312 267.266 156.348 267.547C153.571 267.742 150.862 268.17 148 267.065C142.502 264.941 136.803 263.334 131.184 261.513C131.187 261.424 131.187 261.335 131.19 261.242Z" fill="white"/>
<path d="M166.224 201.2C167.234 210.646 167.246 220.245 167.224 230.022C165.818 229.764 164.569 229.441 163.301 229.336C162.55 229.272 161.755 229.492 161.007 229.684C160.183 229.895 159.384 230.22 158.164 230.636C158.321 228.467 158.499 226.707 158.56 224.943C158.627 222.931 158.87 220.864 158.525 218.913C158.039 216.172 158.356 213.626 159.292 211.083C159.381 210.841 159.487 210.591 159.634 210.384C161.803 207.349 163.975 204.327 166.224 201.2ZM159.017 223.688C159.634 223.381 159.985 223.324 160.11 223.126C162.116 219.909 164.106 216.683 166.052 213.431C166.243 213.109 166.119 212.597 166.138 212.262C163.803 216.003 161.518 219.67 159.017 223.688Z" fill="white"/>
<path d="M168.627 218.911C168.845 221.575 169.059 224.242 169.276 226.897C168.857 226.836 168.41 226.769 167.934 226.699C167.908 226.469 167.867 226.261 167.861 226.053C167.749 219.754 167.685 213.452 167.512 207.153C167.458 205.226 167.324 203.246 166.816 201.406C166.42 199.969 166.848 198.943 167.532 197.902C168.503 196.426 169.522 194.97 170.633 193.599C171.672 192.318 172.451 192.373 174.017 193.711C173.604 193.711 173.33 193.711 172.432 193.711C174.164 194.89 175.346 195.963 173.694 197.822C173.004 196.385 172.359 195.04 171.713 193.698C171.585 193.724 171.461 193.749 171.333 193.778C171.576 194.631 171.57 195.717 172.109 196.292C174.087 198.397 173.25 200.707 172.911 203.013C172.601 205.127 172.18 207.236 172.036 209.36C171.736 213.826 171.601 218.304 171.362 222.776C171.221 225.418 171.189 225.414 172.694 227.101C171.768 227.101 171.001 227.101 170.039 227.101C169.745 224.284 169.461 221.549 169.177 218.815C168.991 218.847 168.809 218.879 168.627 218.911Z" fill="white"/>
<path d="M178.116 194.736C177.985 196.931 177.898 199.132 177.71 201.323C177.589 202.719 177.186 204.099 177.141 205.495C176.975 210.564 176.892 215.634 176.812 220.703C176.803 221.262 177.049 221.824 177.106 222.39C177.33 224.603 177.045 225.092 174.142 227.539C173.375 226.644 172.595 225.756 171.845 224.843C171.73 224.702 171.707 224.447 171.717 224.249C171.803 222.469 171.937 220.693 172.001 218.914C172.25 211.909 172.96 204.961 174.592 198.132C174.793 197.286 175.097 196.378 175.63 195.724C176.132 195.107 177.001 194.784 177.707 194.334C177.841 194.468 177.978 194.602 178.116 194.736Z" fill="white"/>
<path d="M165.858 189.858C165.704 190.605 165.541 191.404 165.359 192.289C165.685 192.266 165.957 192.247 166.35 192.221C165.826 193.058 165.366 193.793 164.906 194.531C164.439 195.278 163.979 196.032 163.385 196.994C161.682 195.71 159.615 194.71 158.408 193.074C157.286 191.554 157.082 189.356 156.414 187.264C156.414 188.574 156.414 189.711 156.414 191.282C155.526 190.522 154.811 190.084 154.322 189.465C152.261 186.845 150.322 184.13 148.22 181.543C147.437 180.581 147.508 179.828 148.102 178.917C149.383 176.965 151.082 176.882 152.638 178.531C154.817 180.84 157.149 182.999 159.315 185.319C159.702 185.734 159.65 186.606 159.711 187.273C159.797 188.209 159.797 189.155 159.836 190.097C159.992 190.088 160.149 190.078 160.305 190.068C160.36 188.874 160.417 187.682 160.487 186.12C162.414 187.462 164.088 188.628 165.858 189.858Z" fill="white"/>
<path d="M179.548 178.321C180.51 180.365 181.35 182.154 182.28 184.131C182.749 183.467 183.222 182.796 183.698 182.125C183.887 182.135 184.078 182.148 184.267 182.157C184.305 183.061 184.542 184.023 184.315 184.857C184.155 185.454 183.957 186.69 182.599 186.106C182.475 186.051 181.874 187.099 181.494 187.636C181.698 187.815 181.9 187.993 182.104 188.169C182.277 187.706 182.452 187.24 182.625 186.776C182.801 186.85 182.979 186.92 183.155 186.994C183.098 187.7 183.043 188.409 182.986 189.115C182.021 188.993 181.692 190.903 180.411 189.916C180.309 189.837 179.833 190.217 179.548 190.411C178.906 190.849 178.315 191.379 177.632 191.737C175.536 192.833 174.105 192.261 173.29 189.977C172.169 186.827 171.833 183.531 172.051 180.234C172.21 177.807 174.316 177.174 176.948 177.487C177.951 177.602 178.906 178.107 179.548 178.321ZM173.702 188.907C174.376 189.613 174.772 190.025 175.165 190.437C175.6 189.955 176.312 189.507 176.376 188.98C176.427 188.568 175.75 187.882 175.248 187.664C175.015 187.565 174.427 188.303 173.702 188.907Z" fill="white"/>
<path d="M198.799 230.549C195.902 231.07 193.161 231.562 190.321 232.073C189.228 228.668 188.462 225.257 189.206 221.583C189.701 219.152 189.762 216.632 190.069 213.613C191.378 216.172 192.998 218.235 193.449 220.529C193.893 222.794 193.151 225.292 193.302 227.777C193.659 226.03 194.02 224.285 194.423 222.324C195.928 225.142 197.333 227.793 198.799 230.549Z" fill="white"/>
<path d="M224.875 157.483C224.434 158.636 223.993 159.792 223.552 160.945C223.699 161.009 223.849 161.073 223.996 161.137C224.939 159.23 225.884 157.323 226.827 155.416C226.961 155.474 227.092 155.531 227.226 155.589C226.411 157.46 225.597 159.335 224.782 161.207C224.958 161.29 225.13 161.373 225.306 161.456C226.133 159.76 226.961 158.061 227.788 156.365C227.871 156.4 227.954 156.435 228.037 156.47C227.232 158.572 226.427 160.674 225.626 162.776C225.76 162.852 225.894 162.929 226.028 163.006C226.363 162.849 226.699 162.696 227.034 162.539C227.156 162.635 227.28 162.731 227.402 162.824C224.747 166.436 222.089 170.052 219.275 173.879C218.415 172.806 217.85 172.097 217.211 171.295C217.53 170.838 217.856 170.378 218.179 169.915C218.904 168.864 219.255 167.877 218.968 166.443C218.597 164.6 218.869 162.629 218.85 160.712C218.843 160.166 218.799 159.62 218.77 159.07C218.939 159.048 219.109 159.022 219.278 159C219.355 159.722 219.386 160.45 219.524 161.159C219.645 161.779 219.885 162.376 220.073 162.983C220.69 162.667 221.524 162.504 221.881 161.999C222.929 160.527 223.782 158.92 224.715 157.365C224.773 157.409 224.824 157.448 224.875 157.483Z" fill="white"/>
<path d="M229.734 267.219C224.351 268.126 218.723 269.11 213.078 269.992C212.03 270.155 210.915 269.944 209.838 269.829C206.149 269.433 202.468 268.982 198.779 268.599C197.836 268.503 196.878 268.583 195.926 268.478C207.209 266.312 218.55 265.558 229.734 267.219Z" fill="white"/>
<path d="M172.074 177.918C172.129 176.41 173.672 174.376 175.048 173.929C178.655 172.759 181.955 173.175 184.568 176.113C185.862 177.57 186.811 180.403 185.511 182.052C184.37 181.882 183.39 181.739 182.406 181.592C182.316 181.755 182.227 181.914 182.137 182.077C181.62 180.809 181.121 179.535 180.565 178.282C180.454 178.033 180.157 177.806 179.895 177.688C177.294 176.545 174.707 176.219 172.074 177.918Z" fill="white"/>
<path d="M147.253 176.345C145.349 174.259 143.58 172.32 141.973 170.563C142.669 169.276 143.161 168.369 143.666 167.436C143.854 167.535 144.276 167.752 144.752 168.002C144.752 169.174 144.752 170.375 144.752 171.573C144.883 171.576 145.017 171.576 145.148 171.579C145.254 169.675 145.356 167.772 145.477 165.59C146.055 167.04 146.969 168.318 147.001 169.618C147.058 171.956 148.512 173.413 149.726 175.198C148.847 175.604 147.988 176.003 147.253 176.345Z" fill="white"/>
<path d="M183.08 191.806C184.559 191.85 184.662 192.732 184.831 193.987C185.192 196.642 185.917 199.248 186.492 201.874C186.895 203.717 187.294 205.564 187.697 207.407C187.546 207.458 187.399 207.509 187.249 207.56C186.323 205.397 185.355 203.254 184.489 201.066C183.806 199.338 183.294 197.543 182.63 195.808C182.093 194.403 181.956 193.08 183.08 191.806Z" fill="white"/>
<path d="M160.891 207.945C161.284 203.303 170.034 190.025 172.487 189.855C172.701 190.414 172.922 190.989 173.199 191.705C171.149 191.481 170.05 192.753 169.158 194.26C166.992 197.921 164.877 201.607 162.712 205.265C162.162 206.194 161.498 207.054 160.891 207.945Z" fill="white"/>
<path d="M189.333 266.053C195.288 266.053 201.153 266.053 207.015 266.053C207.019 266.085 207.019 266.117 207.022 266.149C205.22 266.414 203.425 266.746 201.613 266.931C198.029 267.302 194.435 267.586 190.848 267.928C189.496 268.056 188.953 267.525 189.333 266.053Z" fill="white"/>
<path d="M163.191 200.118C164.361 196.208 166.587 192.902 169.271 189.912C169.878 189.235 170.973 189.002 171.82 188.577C170.648 189.82 169.43 190.861 168.523 192.126C166.658 194.726 164.958 197.448 163.191 200.118Z" fill="white"/>
<path d="M215.023 172.744C215.522 172.246 215.934 171.84 216.336 171.438C217.413 172.648 218.448 173.817 219.64 175.159C219.547 175.322 219.314 175.731 219.017 176.251C217.643 175.044 216.397 173.948 215.023 172.744Z" fill="white"/>
<path d="M170.337 266.749C170.353 267.075 170.369 267.423 170.388 267.845C167.062 267.845 163.804 267.845 160.545 267.845C160.542 267.797 160.539 267.752 160.539 267.704C163.775 267.391 167.015 267.075 170.337 266.749Z" fill="white"/>
<path d="M177.172 227.426C178.635 227.286 179.977 227.145 181.322 227.065C181.398 227.062 181.507 227.586 181.603 227.873C177.258 228.901 177.258 228.901 177.172 227.426Z" fill="white"/>
<path d="M182.371 227.371C182.659 227.062 182.892 226.592 183.243 226.471C184.106 226.17 185.016 225.972 185.923 225.867C186.189 225.835 186.508 226.26 186.802 226.474C186.569 226.672 186.364 226.988 186.099 227.052C185.007 227.311 183.895 227.493 182.793 227.7C182.652 227.592 182.512 227.483 182.371 227.371Z" fill="white"/>
<path d="M150.447 176.194C149.23 177.095 148.077 177.948 146.949 178.778C146.46 177.466 148.342 176.025 150.447 176.194Z" fill="white"/>
<path d="M179.805 191.94C181.019 191.151 182.006 190.509 182.993 189.863C183.05 189.934 183.108 190.001 183.165 190.071C182.753 190.77 182.341 191.47 181.923 192.179C181.303 192.109 180.709 192.042 179.805 191.94Z" fill="white"/>
<path d="M173.043 229.007C173.644 228.656 174.225 228.263 174.848 227.956C175.688 227.544 176.305 227.579 176.087 228.924C175.1 229.074 174.081 229.227 173.062 229.381C173.056 229.256 173.049 229.131 173.043 229.007Z" fill="white"/>
<path d="M172.641 273.327C171.421 273.327 170.175 273.477 168.996 273.26C168.447 273.158 167.754 272.391 167.648 271.829C167.581 271.468 168.447 270.558 168.929 270.532C171.411 270.398 173.906 270.475 176.398 270.468C177.558 270.465 177.395 271.289 177.427 272.027C177.462 272.835 177.258 273.362 176.296 273.334C175.082 273.298 173.862 273.327 172.641 273.327ZM176.692 271.206C175.041 271.206 173.389 271.206 171.648 271.206C171.709 271.765 171.756 272.203 171.804 272.621C176.641 272.95 176.705 272.931 176.692 271.206ZM170.993 270.861C169.942 271.139 169.083 271.366 168.223 271.593C168.354 271.925 168.437 272.513 168.626 272.548C169.376 272.691 170.162 272.666 170.993 272.707C170.993 272.126 170.993 271.717 170.993 270.861Z" fill="black"/>
<path d="M170.64 263.414C169.953 254.962 169.269 246.509 168.566 237.837C168.95 238.089 169.308 238.204 169.317 238.348C169.975 246.688 170.608 255.032 171.24 263.375C171.039 263.385 170.838 263.398 170.64 263.414Z" fill="black"/>
<path d="M159.016 223.685C161.52 219.667 163.804 216 166.136 212.256C166.117 212.591 166.242 213.102 166.05 213.425C164.105 216.677 162.114 219.903 160.108 223.12C159.98 223.318 159.629 223.375 159.016 223.685Z" fill="black"/>
<path d="M173.699 188.909C174.421 188.305 175.012 187.567 175.242 187.666C175.744 187.88 176.421 188.567 176.37 188.982C176.306 189.509 175.594 189.957 175.159 190.439C174.769 190.027 174.376 189.615 173.699 188.909Z" fill="black"/>
<path d="M176.689 271.207C176.702 272.931 176.638 272.95 171.801 272.621C171.756 272.206 171.708 271.766 171.645 271.207C173.386 271.207 175.037 271.207 176.689 271.207Z" fill="white"/>
<path d="M170.992 270.865C170.992 271.721 170.992 272.13 170.992 272.715C170.159 272.673 169.376 272.699 168.625 272.555C168.437 272.52 168.354 271.932 168.223 271.6C169.082 271.37 169.938 271.143 170.992 270.865Z" fill="white"/>
<path d="M160.201 289.212C159.664 289.212 159.133 289.318 158.638 289.523C158.142 289.728 157.693 290.029 157.313 290.408C156.934 290.786 156.633 291.237 156.428 291.733C156.223 292.229 156.117 292.759 156.117 293.295V295.134C156.117 295.67 156.223 296.202 156.428 296.696C156.633 297.192 156.934 297.641 157.313 298.021C157.693 298.401 158.142 298.702 158.638 298.906C159.134 299.111 159.664 299.217 160.201 299.217C161.284 299.217 162.322 298.786 163.088 298.021C163.855 297.255 164.284 296.217 164.284 295.134V293.295C164.284 292.212 163.854 291.174 163.088 290.408C162.323 289.643 161.284 289.212 160.201 289.212ZM162.028 295.127C162.032 295.37 161.988 295.61 161.899 295.836C161.809 296.062 161.676 296.267 161.505 296.439C161.335 296.613 161.132 296.75 160.908 296.844C160.685 296.938 160.445 296.986 160.202 296.986C159.959 296.986 159.719 296.938 159.496 296.844C159.273 296.75 159.069 296.613 158.899 296.439C158.729 296.265 158.595 296.061 158.505 295.836C158.415 295.61 158.37 295.37 158.376 295.127V293.302C158.372 293.059 158.416 292.819 158.505 292.593C158.595 292.367 158.728 292.162 158.899 291.99C159.069 291.816 159.273 291.679 159.496 291.585C159.719 291.491 159.959 291.443 160.202 291.443C160.445 291.443 160.685 291.491 160.908 291.585C161.132 291.679 161.335 291.816 161.505 291.99C161.675 292.164 161.809 292.369 161.899 292.593C161.989 292.819 162.034 293.059 162.028 293.302V295.127Z" fill="#29A063"/>
<path d="M158.98 288.485C159.007 288.495 159.033 288.511 159.054 288.533C159.075 288.555 159.09 288.581 159.099 288.609C159.108 288.637 159.109 288.667 159.104 288.696C159.099 288.726 159.087 288.754 159.07 288.777L159.071 288.78C158.988 288.831 158.916 288.898 158.86 288.978C158.804 289.058 158.763 289.148 158.741 289.243C159.685 288.902 160.719 288.902 161.664 289.243C161.642 289.148 161.603 289.058 161.545 288.978C161.489 288.898 161.416 288.832 161.334 288.78V288.777C161.317 288.754 161.305 288.725 161.3 288.696C161.294 288.666 161.297 288.636 161.305 288.607C161.314 288.579 161.328 288.552 161.349 288.532C161.37 288.509 161.395 288.494 161.424 288.483C161.494 288.464 161.557 288.422 161.601 288.363C161.646 288.304 161.67 288.234 161.672 288.161C161.673 288.088 161.65 288.016 161.607 287.956C161.563 287.897 161.502 287.853 161.432 287.832C161.361 287.81 161.287 287.812 161.217 287.837C161.148 287.862 161.09 287.909 161.049 287.97C161.009 288.032 160.989 288.105 160.993 288.178C160.997 288.251 161.026 288.321 161.073 288.378H161.071C161.088 288.401 161.1 288.43 161.105 288.458C161.11 288.488 161.108 288.519 161.1 288.547C161.091 288.576 161.076 288.602 161.056 288.623C161.035 288.644 161.01 288.661 160.981 288.671L160.98 288.674C160.883 288.67 160.787 288.687 160.695 288.721C160.61 288.665 160.518 288.624 160.42 288.598V288.594C160.39 288.572 160.365 288.542 160.348 288.508C160.331 288.474 160.322 288.436 160.322 288.398C160.322 288.361 160.331 288.323 160.348 288.289C160.365 288.255 160.39 288.226 160.42 288.203H160.419C160.497 288.152 160.557 288.077 160.59 287.991C160.622 287.904 160.625 287.808 160.599 287.72C160.573 287.631 160.518 287.552 160.443 287.496C160.369 287.44 160.279 287.41 160.185 287.41C160.092 287.41 160.001 287.44 159.926 287.496C159.852 287.552 159.797 287.631 159.771 287.72C159.745 287.808 159.748 287.904 159.78 287.991C159.813 288.079 159.873 288.153 159.951 288.203C159.981 288.225 160.006 288.255 160.023 288.289C160.04 288.323 160.049 288.361 160.049 288.398C160.049 288.436 160.04 288.474 160.023 288.508C160.006 288.542 159.981 288.571 159.951 288.594V288.597C159.857 288.622 159.768 288.661 159.687 288.713C159.603 288.683 159.513 288.67 159.422 288.674L159.421 288.671C159.392 288.661 159.368 288.645 159.347 288.623C159.326 288.601 159.31 288.575 159.302 288.547C159.293 288.519 159.292 288.488 159.297 288.458C159.302 288.428 159.314 288.401 159.331 288.378H159.33C159.377 288.321 159.405 288.251 159.409 288.178C159.413 288.105 159.394 288.032 159.353 287.97C159.313 287.909 159.254 287.862 159.185 287.837C159.116 287.812 159.04 287.811 158.971 287.832C158.9 287.854 158.839 287.897 158.796 287.956C158.753 288.015 158.729 288.086 158.731 288.161C158.732 288.234 158.757 288.306 158.801 288.363C158.847 288.422 158.909 288.464 158.98 288.485Z" fill="#103B1E"/>
<path d="M166.412 290.341C166.412 290.217 166.436 290.094 166.481 289.979C166.527 289.862 166.594 289.753 166.681 289.66C166.77 289.566 166.876 289.489 166.993 289.433C167.121 289.373 167.262 289.343 167.403 289.346H168.896C169.037 289.343 169.177 289.373 169.305 289.433C169.423 289.488 169.53 289.565 169.618 289.66C169.705 289.753 169.772 289.862 169.818 289.979C169.864 290.094 169.886 290.217 169.887 290.341V290.662C169.889 290.783 169.868 290.903 169.827 291.017C169.788 291.128 169.727 291.228 169.647 291.315C169.562 291.405 169.459 291.475 169.344 291.522C169.21 291.577 169.065 291.603 168.92 291.6H168.526V292.546H169.745C169.817 292.544 169.887 292.552 169.957 292.57C170.004 292.583 170.048 292.607 170.084 292.64C170.115 292.667 170.135 292.702 170.146 292.74C170.156 292.781 170.163 292.824 170.162 292.865C170.162 292.903 170.156 292.941 170.146 292.978C170.135 293.017 170.113 293.051 170.084 293.078C170.048 293.111 170.004 293.136 169.957 293.149C169.889 293.168 169.817 293.179 169.745 293.176H166.561C166.489 293.179 166.419 293.168 166.351 293.149C166.304 293.134 166.259 293.111 166.223 293.078C166.193 293.051 166.172 293.016 166.16 292.978C166.15 292.941 166.145 292.903 166.145 292.865C166.145 292.822 166.15 292.781 166.16 292.74C166.171 292.701 166.193 292.667 166.223 292.64C166.259 292.607 166.304 292.583 166.351 292.57C166.42 292.552 166.49 292.543 166.561 292.546H167.784V291.602H167.386C167.241 291.606 167.096 291.578 166.962 291.523C166.849 291.478 166.749 291.409 166.665 291.321C166.582 291.234 166.518 291.13 166.476 291.017C166.434 290.903 166.413 290.783 166.413 290.662V290.341H166.412ZM167.155 290.547C167.152 290.651 167.185 290.753 167.249 290.835C167.286 290.877 167.33 290.91 167.381 290.932C167.432 290.954 167.485 290.965 167.541 290.963H168.759C168.814 290.965 168.869 290.954 168.92 290.932C168.971 290.91 169.015 290.877 169.051 290.835C169.115 290.753 169.147 290.651 169.145 290.547V290.401C169.147 290.295 169.115 290.191 169.051 290.106C169.013 290.063 168.966 290.03 168.912 290.009C168.859 289.988 168.803 289.979 168.745 289.984H167.553C167.497 289.979 167.44 289.987 167.386 290.009C167.333 290.031 167.286 290.064 167.248 290.106C167.184 290.191 167.151 290.295 167.154 290.401L167.155 290.547Z" fill="#29A063"/>
<path d="M171.263 289.722C171.261 289.657 171.272 289.592 171.294 289.531C171.312 289.484 171.341 289.441 171.379 289.407C171.414 289.377 171.456 289.354 171.5 289.343C171.593 289.318 171.691 289.318 171.785 289.343C171.829 289.354 171.871 289.377 171.906 289.407C171.944 289.441 171.973 289.484 171.991 289.531C172.015 289.592 172.025 289.657 172.022 289.722V289.754C172.024 289.852 172.034 289.95 172.056 290.045C172.076 290.121 172.109 290.192 172.156 290.256C172.208 290.326 172.27 290.388 172.338 290.442C172.415 290.503 172.511 290.575 172.627 290.657C172.712 290.713 172.78 290.792 172.821 290.884C172.837 290.929 172.841 290.977 172.833 291.024C172.825 291.071 172.807 291.115 172.778 291.152C172.748 291.2 172.706 291.241 172.657 291.27C172.61 291.296 172.558 291.31 172.503 291.313C172.468 291.313 172.432 291.309 172.397 291.301C172.359 291.293 172.323 291.276 172.291 291.253C172.184 291.173 172.078 291.084 171.97 290.986C171.864 290.89 171.765 290.784 171.676 290.67C171.594 290.786 171.501 290.895 171.4 290.995C171.302 291.093 171.192 291.178 171.072 291.247C171.031 291.272 170.987 291.292 170.941 291.306C170.894 291.322 170.846 291.331 170.798 291.333C170.743 291.336 170.688 291.327 170.639 291.306C170.58 291.281 170.531 291.238 170.5 291.182C170.471 291.144 170.453 291.1 170.445 291.053C170.437 291.006 170.441 290.957 170.457 290.913C170.499 290.82 170.567 290.742 170.652 290.686C170.765 290.604 170.859 290.531 170.936 290.468C171.005 290.413 171.068 290.348 171.119 290.276C171.165 290.211 171.199 290.138 171.219 290.061C171.243 289.967 171.257 289.871 171.261 289.775L171.263 289.722ZM171.112 293.288C171.045 293.29 170.977 293.281 170.91 293.263C170.867 293.25 170.829 293.226 170.798 293.194C170.772 293.165 170.756 293.131 170.75 293.093C170.743 293.051 170.74 293.01 170.74 292.967V291.89C170.734 291.833 170.739 291.776 170.756 291.721C170.773 291.668 170.802 291.617 170.841 291.575C170.91 291.518 170.999 291.488 171.089 291.49C171.178 291.489 171.264 291.515 171.337 291.566C171.377 291.6 171.41 291.644 171.431 291.692C171.452 291.741 171.462 291.794 171.46 291.848H173.457C173.458 291.789 173.471 291.732 173.494 291.678C173.513 291.635 173.542 291.597 173.578 291.568C173.614 291.541 173.653 291.521 173.696 291.508C173.739 291.497 173.783 291.49 173.829 291.49C173.875 291.49 173.921 291.495 173.965 291.508C174.005 291.52 174.043 291.542 174.075 291.572C174.11 291.608 174.135 291.649 174.15 291.696C174.17 291.758 174.179 291.823 174.178 291.888V292.965C174.178 293.007 174.175 293.05 174.169 293.092C174.163 293.13 174.146 293.165 174.12 293.192C174.089 293.225 174.051 293.249 174.008 293.262C173.943 293.281 173.875 293.289 173.807 293.286L171.112 293.288ZM173.457 292.435H171.46V292.7H173.457V292.435ZM173.435 289.699C173.428 289.642 173.435 289.583 173.454 289.529C173.474 289.476 173.505 289.426 173.547 289.386C173.622 289.33 173.713 289.3 173.806 289.301C173.853 289.301 173.9 289.307 173.945 289.319C173.988 289.331 174.029 289.353 174.062 289.383C174.098 289.418 174.125 289.46 174.144 289.507C174.167 289.568 174.178 289.634 174.175 289.699V290.959C174.178 291.025 174.166 291.093 174.144 291.156C174.125 291.203 174.098 291.245 174.062 291.28C174.029 291.31 173.988 291.332 173.945 291.344C173.854 291.369 173.757 291.369 173.666 291.344C173.622 291.332 173.581 291.31 173.547 291.28C173.509 291.246 173.482 291.204 173.465 291.156C173.443 291.092 173.434 291.025 173.435 290.959V289.699Z" fill="#29A063"/>
<path d="M175.649 292.485H176.18C176.252 292.482 176.323 292.493 176.39 292.512C176.437 292.527 176.482 292.55 176.518 292.583C176.548 292.61 176.569 292.645 176.58 292.683C176.59 292.72 176.595 292.758 176.595 292.796C176.595 292.839 176.59 292.88 176.58 292.921C176.569 292.96 176.547 292.994 176.518 293.021C176.482 293.054 176.437 293.078 176.39 293.091C176.321 293.109 176.251 293.118 176.18 293.115H175.324C175.256 293.118 175.188 293.109 175.123 293.091C175.08 293.078 175.042 293.054 175.011 293.021C174.984 292.993 174.969 292.957 174.962 292.921C174.956 292.879 174.953 292.837 174.953 292.796V289.675C174.953 289.634 174.956 289.591 174.962 289.55C174.967 289.512 174.984 289.477 175.011 289.45C175.042 289.417 175.08 289.393 175.123 289.38C175.188 289.361 175.256 289.353 175.324 289.356H176.089C176.159 289.354 176.231 289.362 176.299 289.38C176.346 289.393 176.39 289.417 176.427 289.45C176.457 289.477 176.478 289.512 176.488 289.55C176.5 289.591 176.505 289.634 176.504 289.675C176.504 289.713 176.499 289.751 176.488 289.788C176.478 289.827 176.456 289.861 176.427 289.888C176.39 289.921 176.346 289.946 176.299 289.959C176.231 289.978 176.159 289.989 176.089 289.986H175.649V292.485V292.485ZM176.887 289.699C176.88 289.643 176.885 289.585 176.902 289.532C176.919 289.478 176.948 289.427 176.984 289.386C177.047 289.331 177.128 289.301 177.212 289.301C177.294 289.301 177.374 289.331 177.434 289.386C177.471 289.427 177.499 289.478 177.516 289.532C177.533 289.585 177.538 289.643 177.531 289.699V290.818H177.964V289.699C177.957 289.643 177.962 289.585 177.979 289.532C177.996 289.478 178.025 289.427 178.061 289.386C178.124 289.331 178.205 289.301 178.289 289.301C178.371 289.301 178.451 289.331 178.511 289.386C178.548 289.427 178.576 289.478 178.593 289.532C178.61 289.585 178.615 289.643 178.608 289.699V292.828C178.61 292.895 178.601 292.961 178.581 293.025C178.567 293.071 178.542 293.113 178.511 293.149C178.482 293.179 178.447 293.202 178.407 293.213C178.368 293.225 178.329 293.232 178.289 293.232C178.247 293.232 178.205 293.225 178.165 293.213C178.125 293.202 178.09 293.179 178.061 293.149C178.029 293.114 178.005 293.071 177.991 293.025C177.971 292.961 177.961 292.895 177.964 292.828V291.45H177.531V292.828C177.533 292.895 177.524 292.961 177.504 293.025C177.49 293.071 177.465 293.113 177.434 293.149C177.405 293.179 177.37 293.202 177.33 293.213C177.291 293.225 177.252 293.232 177.212 293.232C177.17 293.232 177.128 293.225 177.088 293.213C177.048 293.202 177.013 293.179 176.984 293.149C176.953 293.113 176.928 293.071 176.914 293.025C176.894 292.961 176.884 292.895 176.887 292.828V289.699V289.699Z" fill="#29A063"/>
<path d="M179.544 291.31C179.483 291.311 179.421 291.304 179.361 291.291C179.323 291.282 179.287 291.265 179.255 291.24C179.232 291.219 179.215 291.192 179.207 291.161C179.199 291.124 179.195 291.086 179.195 291.048C179.195 291.016 179.199 290.985 179.207 290.953C179.215 290.922 179.232 290.893 179.255 290.871C179.285 290.844 179.322 290.824 179.361 290.813C179.421 290.798 179.483 290.791 179.544 290.793H182.875C182.937 290.791 182.999 290.798 183.058 290.813C183.097 290.824 183.134 290.844 183.164 290.871C183.187 290.893 183.204 290.922 183.212 290.953C183.22 290.985 183.224 291.017 183.224 291.048C183.224 291.086 183.221 291.124 183.212 291.161C183.206 291.192 183.189 291.219 183.164 291.24C183.133 291.265 183.097 291.282 183.058 291.291C182.998 291.304 182.937 291.311 182.875 291.31H179.544ZM180.263 292.657V292.827H182.582C182.652 292.825 182.723 292.832 182.792 292.845C182.838 292.853 182.881 292.871 182.92 292.896C182.949 292.914 182.969 292.941 182.981 292.974C182.992 293.007 182.998 293.041 182.997 293.075C182.998 293.112 182.993 293.149 182.981 293.184C182.969 293.216 182.947 293.243 182.92 293.263C182.881 293.287 182.838 293.303 182.792 293.308C182.723 293.319 182.652 293.323 182.582 293.323H179.892C179.825 293.325 179.757 293.317 179.691 293.302C179.65 293.291 179.61 293.272 179.579 293.242C179.553 293.217 179.536 293.183 179.531 293.148C179.524 293.109 179.522 293.068 179.522 293.029V292.424C179.522 292.394 179.526 292.364 179.533 292.336C179.541 292.306 179.558 292.278 179.582 292.257C179.612 292.231 179.648 292.213 179.687 292.203C179.748 292.187 179.809 292.18 179.872 292.182H182.157V292.012H179.857C179.796 292.013 179.734 292.008 179.674 291.994C179.635 291.985 179.599 291.968 179.569 291.941C179.545 291.919 179.528 291.891 179.52 291.859C179.513 291.825 179.509 291.791 179.509 291.756C179.509 291.725 179.513 291.695 179.52 291.665C179.528 291.633 179.545 291.603 179.569 291.58C179.599 291.551 179.634 291.53 179.674 291.518C179.734 291.501 179.796 291.494 179.857 291.495H182.546C182.608 291.494 182.669 291.501 182.727 291.518C182.767 291.53 182.804 291.55 182.834 291.579C182.857 291.602 182.874 291.629 182.885 291.661C182.894 291.691 182.899 291.721 182.899 291.752V292.435C182.902 292.466 182.896 292.498 182.885 292.526C182.873 292.555 182.856 292.581 182.832 292.602C182.745 292.65 182.646 292.67 182.546 292.659L180.263 292.657ZM179.9 290.595C179.832 290.598 179.763 290.589 179.699 290.568C179.657 290.555 179.621 290.53 179.592 290.498C179.569 290.468 179.554 290.432 179.549 290.394C179.543 290.353 179.54 290.31 179.54 290.267V289.67C179.54 289.628 179.543 289.585 179.549 289.545C179.556 289.507 179.57 289.471 179.592 289.441C179.62 289.407 179.657 289.383 179.699 289.371C179.765 289.353 179.832 289.344 179.9 289.346H182.453C182.514 289.345 182.577 289.351 182.637 289.367C182.676 289.377 182.712 289.397 182.742 289.424C182.766 289.448 182.783 289.477 182.791 289.509C182.798 289.545 182.802 289.581 182.802 289.616C182.802 289.649 182.798 289.68 182.791 289.712C182.783 289.743 182.766 289.772 182.742 289.794C182.712 289.821 182.676 289.842 182.637 289.853C182.577 289.87 182.515 289.877 182.453 289.876H180.28V290.064H182.453C182.515 290.062 182.577 290.069 182.637 290.088C182.676 290.099 182.712 290.12 182.742 290.149C182.766 290.174 182.781 290.204 182.791 290.236C182.798 290.268 182.802 290.299 182.802 290.33C182.802 290.367 182.798 290.402 182.791 290.438C182.783 290.469 182.767 290.498 182.742 290.52C182.712 290.546 182.676 290.564 182.637 290.575C182.577 290.59 182.515 290.597 182.453 290.595H179.9Z" fill="#29A063"/>
<path d="M183.555 292.866C183.555 292.823 183.56 292.781 183.57 292.741C183.581 292.702 183.603 292.668 183.632 292.64C183.668 292.608 183.713 292.584 183.76 292.571C183.829 292.553 183.899 292.544 183.97 292.546H185.803C185.873 292.545 185.945 292.553 186.013 292.571C186.06 292.584 186.104 292.608 186.141 292.64C186.171 292.668 186.192 292.703 186.202 292.741C186.214 292.781 186.219 292.824 186.218 292.866C186.218 292.904 186.213 292.942 186.202 292.978C186.192 293.018 186.17 293.052 186.141 293.079C186.104 293.112 186.06 293.136 186.013 293.149C185.945 293.169 185.873 293.179 185.803 293.177H183.97C183.898 293.179 183.828 293.169 183.76 293.149C183.713 293.135 183.668 293.112 183.632 293.079C183.602 293.052 183.581 293.016 183.57 292.978C183.561 292.942 183.555 292.904 183.555 292.866ZM184.833 289.315C185.119 289.297 185.401 289.383 185.628 289.555C185.726 289.644 185.803 289.753 185.858 289.873C185.911 289.993 185.94 290.123 185.942 290.254C185.945 290.293 185.946 290.349 185.946 290.421V290.87C185.946 290.942 185.945 290.998 185.942 291.037C185.949 291.168 185.925 291.298 185.875 291.418C185.822 291.538 185.744 291.644 185.645 291.729C185.408 291.895 185.123 291.976 184.834 291.957C184.546 291.978 184.26 291.895 184.027 291.724C183.932 291.636 183.856 291.531 183.804 291.412C183.752 291.293 183.726 291.165 183.726 291.036C183.723 290.997 183.72 290.941 183.719 290.869C183.718 290.797 183.717 290.723 183.717 290.645C183.717 290.568 183.717 290.493 183.719 290.422C183.722 290.35 183.723 290.294 183.726 290.255C183.724 290.125 183.749 289.995 183.8 289.875C183.851 289.755 183.927 289.647 184.021 289.557C184.252 289.379 184.542 289.293 184.833 289.315ZM185.2 290.236C185.202 290.181 185.187 290.126 185.157 290.08C185.129 290.042 185.094 290.012 185.053 289.991C185.016 289.972 184.974 289.959 184.932 289.952C184.899 289.947 184.867 289.943 184.834 289.943C184.801 289.944 184.77 289.948 184.739 289.955C184.697 289.963 184.657 289.978 184.62 289.998C184.578 290.02 184.543 290.053 184.517 290.092C184.485 290.139 184.47 290.194 184.469 290.25C184.466 290.293 184.463 290.35 184.462 290.424C184.461 290.497 184.459 290.572 184.459 290.651C184.459 290.729 184.459 290.803 184.462 290.873C184.465 290.943 184.466 290.998 184.469 291.037C184.465 291.095 184.479 291.151 184.51 291.2C184.536 291.238 184.572 291.268 184.611 291.29C184.649 291.311 184.689 291.324 184.732 291.33C184.766 291.333 184.801 291.336 184.835 291.336C184.868 291.336 184.899 291.333 184.931 291.33C184.972 291.324 185.013 291.311 185.049 291.29C185.09 291.268 185.125 291.238 185.153 291.2C185.185 291.152 185.201 291.096 185.201 291.037C185.204 290.994 185.205 290.937 185.205 290.863V290.408C185.204 290.336 185.202 290.279 185.2 290.236ZM186.556 289.699C186.549 289.642 186.556 289.583 186.574 289.529C186.594 289.474 186.625 289.426 186.667 289.386C186.741 289.33 186.833 289.3 186.925 289.301C186.972 289.301 187.019 289.307 187.065 289.319C187.108 289.331 187.149 289.353 187.183 289.383C187.219 289.418 187.247 289.46 187.265 289.507C187.288 289.568 187.299 289.634 187.296 289.699V292.828C187.299 292.895 187.287 292.963 187.265 293.025C187.247 293.072 187.219 293.114 187.183 293.149C187.149 293.179 187.11 293.202 187.065 293.213C186.974 293.237 186.877 293.237 186.786 293.213C186.74 293.2 186.697 293.177 186.662 293.144C186.626 293.112 186.6 293.071 186.585 293.025C186.563 292.961 186.553 292.895 186.555 292.828L186.556 289.699Z" fill="#29A063"/>
<path d="M167.253 294.248C167.399 294.245 167.545 294.266 167.686 294.309C167.798 294.346 167.9 294.407 167.984 294.491C168.065 294.574 168.126 294.676 168.163 294.786C168.206 294.915 168.232 295.051 168.238 295.186C168.238 295.214 168.238 295.279 168.241 295.381C168.243 295.483 168.243 295.604 168.243 295.745C168.243 295.886 168.243 296.035 168.246 296.194C168.249 296.354 168.247 296.502 168.246 296.643C168.245 296.784 168.243 296.906 168.242 297.008C168.241 297.109 168.24 297.173 168.24 297.198C168.254 297.451 168.168 297.7 168.002 297.89C167.849 298.043 167.6 298.12 167.255 298.119C167.104 298.123 166.954 298.102 166.809 298.059C166.698 298.025 166.596 297.965 166.514 297.882C166.435 297.8 166.377 297.702 166.341 297.594C166.301 297.466 166.276 297.333 166.271 297.197C166.268 297.17 166.267 297.104 166.267 297.002C166.267 296.901 166.266 296.779 166.264 296.638C166.263 296.497 166.262 296.348 166.262 296.189C166.262 296.03 166.262 295.881 166.264 295.74C166.267 295.599 166.267 295.479 166.267 295.378C166.267 295.278 166.268 295.214 166.271 295.186C166.277 295.049 166.3 294.915 166.34 294.783C166.373 294.673 166.431 294.573 166.51 294.489C166.592 294.406 166.694 294.344 166.805 294.308C166.947 294.265 167.1 294.244 167.253 294.248ZM167.495 295.168C167.497 295.115 167.489 295.062 167.472 295.013C167.46 294.979 167.439 294.948 167.412 294.924C167.388 294.904 167.361 294.891 167.332 294.885C167.306 294.88 167.279 294.876 167.253 294.876C167.226 294.876 167.2 294.88 167.174 294.887C167.146 294.895 167.119 294.911 167.099 294.931C167.072 294.957 167.052 294.989 167.038 295.025C167.02 295.075 167.01 295.129 167.008 295.183C167.008 295.21 167.008 295.275 167.006 295.38C167.003 295.484 167.003 295.606 167.002 295.747C167.001 295.888 166.999 296.036 166.999 296.196C166.999 296.355 166.999 296.504 167.002 296.645C167.005 296.786 167.005 296.907 167.005 297.009C167.005 297.111 167.006 297.175 167.008 297.2C167.006 297.254 167.014 297.31 167.032 297.363C167.044 297.397 167.063 297.427 167.089 297.451C167.11 297.472 167.138 297.485 167.168 297.491C167.195 297.496 167.224 297.497 167.253 297.497C167.279 297.497 167.305 297.495 167.33 297.491C167.358 297.485 167.384 297.472 167.405 297.451C167.431 297.427 167.451 297.395 167.465 297.363C167.485 297.31 167.495 297.256 167.495 297.2C167.495 297.172 167.497 297.107 167.498 297.002C167.499 296.899 167.501 296.775 167.501 296.633V295.731C167.501 295.589 167.499 295.467 167.498 295.364C167.495 295.261 167.495 295.196 167.495 295.168ZM169.126 294.632C169.119 294.574 169.126 294.515 169.144 294.462C169.164 294.407 169.195 294.359 169.237 294.318C169.311 294.262 169.403 294.232 169.495 294.233C169.542 294.233 169.589 294.24 169.635 294.252C169.678 294.263 169.719 294.286 169.751 294.316C169.788 294.35 169.817 294.393 169.834 294.44C169.857 294.501 169.867 294.566 169.865 294.632V297.761C169.867 297.827 169.856 297.895 169.834 297.958C169.815 298.005 169.788 298.047 169.751 298.082C169.719 298.112 169.678 298.134 169.635 298.146C169.544 298.171 169.447 298.171 169.356 298.146C169.311 298.134 169.271 298.112 169.237 298.082C169.199 298.048 169.172 298.006 169.155 297.958C169.132 297.895 169.123 297.827 169.125 297.761L169.126 294.632Z" fill="#29A063"/>
<path d="M175.963 294.248C176.11 294.244 176.255 294.265 176.394 294.309C176.505 294.346 176.606 294.407 176.688 294.491C176.768 294.575 176.826 294.676 176.862 294.786C176.903 294.915 176.928 295.051 176.935 295.186C176.935 295.214 176.935 295.279 176.937 295.381C176.94 295.483 176.94 295.604 176.94 295.745C176.94 295.886 176.94 296.035 176.943 296.194C176.945 296.354 176.944 296.502 176.943 296.643C176.941 296.784 176.94 296.906 176.939 297.008C176.937 297.109 176.936 297.173 176.936 297.198C176.949 297.45 176.867 297.697 176.705 297.89C176.556 298.043 176.309 298.12 175.965 298.119C175.815 298.123 175.665 298.102 175.521 298.059C175.411 298.025 175.311 297.965 175.23 297.882C175.153 297.8 175.095 297.702 175.063 297.594C175.024 297.465 175 297.331 174.994 297.197C174.991 297.17 174.99 297.104 174.99 297.002C174.99 296.901 174.988 296.779 174.987 296.638C174.986 296.497 174.984 296.348 174.984 296.189C174.984 296.03 174.986 295.881 174.987 295.74C174.988 295.599 174.99 295.479 174.99 295.378C174.99 295.278 174.991 295.214 174.994 295.186C175 295.049 175.022 294.915 175.06 294.783C175.091 294.673 175.148 294.573 175.225 294.489C175.306 294.406 175.405 294.344 175.516 294.308C175.661 294.265 175.812 294.244 175.963 294.248ZM176.193 295.168C176.195 295.116 176.188 295.062 176.172 295.013C176.162 294.979 176.144 294.948 176.118 294.924C176.097 294.904 176.071 294.891 176.042 294.885C176.016 294.88 175.99 294.876 175.963 294.876C175.937 294.876 175.913 294.88 175.888 294.887C175.86 294.895 175.837 294.911 175.817 294.931C175.792 294.958 175.774 294.989 175.762 295.025C175.745 295.075 175.736 295.129 175.735 295.183C175.732 295.21 175.731 295.275 175.731 295.38C175.731 295.483 175.73 295.606 175.729 295.747C175.727 295.887 175.726 296.036 175.726 296.196C175.726 296.355 175.727 296.504 175.729 296.645C175.73 296.786 175.731 296.907 175.731 297.009C175.731 297.111 175.732 297.175 175.735 297.2C175.732 297.254 175.74 297.309 175.756 297.363C175.766 297.395 175.785 297.427 175.808 297.451C175.828 297.472 175.854 297.485 175.881 297.491C175.909 297.496 175.936 297.497 175.963 297.497C175.988 297.497 176.014 297.495 176.039 297.491C176.067 297.485 176.091 297.472 176.11 297.451C176.133 297.425 176.153 297.395 176.165 297.363C176.183 297.31 176.192 297.256 176.192 297.2C176.192 297.172 176.193 297.107 176.195 297.002C176.196 296.899 176.197 296.775 176.197 296.633V295.731C176.197 295.589 176.196 295.467 176.195 295.364C176.193 295.261 176.192 295.196 176.193 295.168ZM177.518 294.632C177.512 294.574 177.518 294.515 177.537 294.462C177.556 294.407 177.588 294.359 177.629 294.318C177.704 294.262 177.795 294.232 177.888 294.233C177.935 294.233 177.982 294.24 178.027 294.252C178.071 294.263 178.111 294.286 178.145 294.316C178.182 294.351 178.209 294.393 178.227 294.44C178.251 294.501 178.261 294.566 178.259 294.632V295.072H178.547C178.619 295.069 178.689 295.079 178.757 295.099C178.804 295.113 178.849 295.137 178.885 295.169C178.914 295.197 178.936 295.232 178.947 295.27C178.957 295.307 178.962 295.344 178.962 295.382C178.962 295.425 178.957 295.467 178.947 295.508C178.936 295.547 178.914 295.581 178.885 295.608C178.849 295.641 178.804 295.664 178.757 295.677C178.688 295.696 178.618 295.705 178.547 295.702H178.259V296.495H178.547C178.619 296.492 178.689 296.502 178.757 296.522C178.804 296.536 178.849 296.56 178.885 296.592C178.915 296.62 178.936 296.655 178.947 296.693C178.957 296.73 178.962 296.767 178.962 296.805C178.962 296.848 178.957 296.89 178.947 296.931C178.936 296.97 178.914 297.004 178.885 297.031C178.849 297.064 178.804 297.087 178.757 297.1C178.688 297.119 178.618 297.128 178.547 297.125H178.259V297.757C178.261 297.824 178.249 297.891 178.227 297.954C178.209 298.001 178.182 298.043 178.145 298.078C178.111 298.108 178.072 298.13 178.027 298.142C177.936 298.167 177.839 298.167 177.748 298.142C177.704 298.13 177.663 298.108 177.629 298.078C177.591 298.044 177.564 298.002 177.547 297.954C177.525 297.89 177.516 297.824 177.517 297.757L177.518 294.632Z" fill="#29A063"/>
<path d="M185.055 294.288C185.121 294.286 185.184 294.295 185.247 294.313C185.288 294.326 185.324 294.351 185.353 294.382C185.378 294.414 185.393 294.45 185.399 294.489C185.405 294.538 185.408 294.587 185.408 294.636V296.432C185.408 296.493 185.403 296.569 185.393 296.66C185.384 296.752 185.369 296.852 185.348 296.958C185.325 297.069 185.297 297.18 185.263 297.288C185.229 297.399 185.186 297.506 185.132 297.609C185.083 297.707 185.021 297.8 184.951 297.885C184.886 297.965 184.806 298.03 184.715 298.077C184.677 298.099 184.636 298.112 184.593 298.117C184.55 298.122 184.507 298.117 184.465 298.104C184.395 298.079 184.331 298.039 184.28 297.985C184.25 297.958 184.228 297.921 184.216 297.882C184.204 297.841 184.199 297.796 184.201 297.752C184.205 297.703 184.215 297.656 184.231 297.612C184.247 297.566 184.271 297.522 184.298 297.481C184.365 297.387 184.425 297.288 184.477 297.186C184.521 297.096 184.557 297.004 184.583 296.907C184.607 296.81 184.624 296.711 184.634 296.612C184.643 296.508 184.647 296.391 184.647 296.263V294.921H183.822C183.751 294.923 183.679 294.915 183.611 294.897C183.564 294.884 183.52 294.86 183.483 294.827C183.453 294.8 183.433 294.765 183.422 294.727C183.412 294.686 183.405 294.643 183.406 294.602C183.406 294.564 183.412 294.526 183.422 294.489C183.433 294.45 183.455 294.416 183.483 294.389C183.52 294.356 183.564 294.331 183.611 294.318C183.679 294.299 183.751 294.288 183.822 294.291H185.055V294.288ZM186.476 294.632C186.469 294.574 186.476 294.515 186.494 294.462C186.513 294.407 186.545 294.359 186.587 294.318C186.661 294.262 186.752 294.232 186.845 294.233C186.892 294.233 186.939 294.24 186.985 294.252C187.028 294.263 187.068 294.286 187.102 294.316C187.139 294.351 187.168 294.393 187.185 294.44C187.208 294.501 187.218 294.566 187.216 294.632V297.761C187.217 297.827 187.207 297.895 187.185 297.958C187.166 298.005 187.139 298.047 187.102 298.082C187.07 298.112 187.029 298.134 186.985 298.146C186.893 298.171 186.797 298.171 186.705 298.146C186.66 298.134 186.617 298.109 186.581 298.077C186.546 298.044 186.52 298.004 186.504 297.958C186.482 297.894 186.473 297.827 186.474 297.761L186.476 294.632Z" fill="#29A063"/>
<g clip-path="url(#clip2_324_2)">
<path d="M128.181 218.318C130.406 218.421 132.117 219.271 132.768 221.977C133.211 221.221 133.545 220.863 133.643 220.448C133.998 218.925 134.993 218.389 136.453 218.382C136.818 218.379 137.186 218.165 137.852 217.697C137.376 217.343 136.94 216.9 136.414 216.656C135.137 216.071 135.307 215.074 135.509 214.012C135.597 213.556 135.602 213.088 135.695 212.094C133.577 214.112 131.62 213.829 129.519 212.501C130.53 214.87 130.257 216.788 128.091 218.002" fill="black"/>
<path d="M130.318 213.483C132.058 214.818 133.581 214.557 135.122 213.029C134.97 214.224 134.585 215.164 134.831 215.891C135.085 216.631 135.957 217.16 136.781 218.013C134.466 217.67 133.379 218.715 132.874 220.687C132.27 218.623 130.971 217.867 128.86 217.996C130.813 216.88 131.01 215.376 130.318 213.483Z" fill="black"/>
<path d="M141.617 227.819C139.679 225.274 141.77 227.705 141.617 227.819C138.409 223.605 139.575 224.58 136.367 220.366C136.223 220.476 136.08 220.583 135.936 220.693C139.136 224.914 141.617 227.819 141.617 227.819Z" fill="black"/>
<path d="M130.319 213.485C131.011 215.379 130.814 216.883 128.864 218.001C130.975 217.87 132.274 218.628 132.878 220.692C133.383 218.718 134.47 217.672 136.785 218.018C135.961 217.165 135.086 216.636 134.835 215.895C134.589 215.172 134.972 214.231 135.125 213.034C133.583 214.557 132.059 214.818 130.319 213.485Z" fill="white"/>
</g>
</g>
<g clip-path="url(#clip3_324_2)">
<path d="M230.71 242.446C228.485 242.549 226.774 243.399 226.123 246.105C225.679 245.349 225.346 244.991 225.248 244.576C224.892 243.053 223.898 242.517 222.438 242.51C222.072 242.507 221.704 242.293 221.039 241.825C221.514 241.471 221.951 241.028 222.477 240.784C223.754 240.199 223.583 239.202 223.381 238.14C223.293 237.684 223.289 237.216 223.196 236.222C225.314 238.24 227.271 237.957 229.372 236.629C228.36 238.998 228.633 240.916 230.8 242.129" fill="black"/>
<path d="M228.573 237.611C226.833 238.946 225.309 238.685 223.769 237.157C223.92 238.351 224.305 239.292 224.059 240.018C223.806 240.759 222.933 241.288 222.109 242.141C224.425 241.798 225.512 242.843 226.016 244.815C226.621 242.751 227.92 241.995 230.03 242.124C228.078 241.008 227.881 239.504 228.573 237.611Z" fill="black"/>
<path d="M215.462 254.628C215.309 254.513 215.372 254.501 215.219 254.384C218.426 250.17 219.321 248.708 222.528 244.494C222.672 244.604 222.815 244.711 222.959 244.821C219.759 249.042 218.663 250.407 215.462 254.628Z" fill="black"/>
<path d="M228.571 237.608C227.879 239.502 228.077 241.006 230.026 242.124C227.916 241.993 226.617 242.751 226.012 244.815C225.508 242.841 224.421 241.795 222.105 242.141C222.929 241.288 223.804 240.759 224.055 240.018C224.301 239.295 223.919 238.354 223.765 237.157C225.308 238.68 226.831 238.941 228.571 237.608Z" fill="white"/>
</g>
</g>
<defs>
<filter id="filter0_d_324_2" x="0.66654" y="0" width="362.667" height="362.667" filterUnits="userSpaceOnUse" color-interpolation-filters="sRGB">
<feFlood flood-opacity="0" result="BackgroundImageFix"/>
<feColorMatrix in="SourceAlpha" type="matrix" values="0 0 0 0 0 0 0 0 0 0 0 0 0 0 0 0 0 0 127 0" result="hardAlpha"/>
<feOffset dy="1.33346"/>
<feGaussianBlur stdDeviation="0.66673"/>
<feComposite in2="hardAlpha" operator="out"/>
<feColorMatrix type="matrix" values="0 0 0 0 0 0 0 0 0 0 0 0 0 0 0 0 0 0 0.25 0"/>
<feBlend mode="normal" in2="BackgroundImageFix" result="effect1_dropShadow_324_2"/>
<feBlend mode="normal" in="SourceGraphic" in2="effect1_dropShadow_324_2" result="shape"/>
</filter>
<clipPath id="clip0_324_2">
<rect width="360" height="360" fill="white" transform="translate(2)"/>
</clipPath>
<clipPath id="clip1_324_2">
<rect width="105.531" height="160.124" fill="white" transform="translate(128.332 154.334)"/>
</clipPath>
<clipPath id="clip2_324_2">
<rect width="17.9012" height="21.2572" fill="white" transform="matrix(-1 0 0 1 145.992 212.095)"/>
</clipPath>
<clipPath id="clip3_324_2">
<rect width="17.9012" height="21.2572" fill="white" transform="translate(212.902 236.223)"/>
</clipPath>
</defs>
</svg>
