<svg width="360" height="200" viewBox="0 0 360 200" fill="none" xmlns="http://www.w3.org/2000/svg">
<g clip-path="url(#clip0_327_5)">
<rect width="360" height="200" fill="white"/>
<path d="M70.5697 162.536C70.5697 160.888 72.2497 159.816 74.5377 159.816C76.8257 159.816 78.4897 160.888 78.4897 162.536C78.4897 164.184 76.8257 165.256 74.5377 165.256C72.2497 165.256 70.5697 164.184 70.5697 162.536ZM75.1937 169.256V166.264C77.8657 166.072 79.7377 164.648 79.7377 162.536C79.7377 160.248 77.5617 158.776 74.5377 158.776C71.4977 158.776 69.3057 160.248 69.3057 162.536C69.3057 164.648 71.1937 166.072 73.8657 166.264V169.256H68.0257V170.344H81.0657V169.256H75.1937ZM92.3925 157.832V172.216H93.7045V157.832H92.3925ZM86.1365 158.936C84.0085 158.936 82.4885 160.888 82.4885 163.944C82.4885 167 84.0085 168.952 86.1365 168.952C88.2645 168.952 89.7845 167 89.7845 163.944C89.7845 160.888 88.2645 158.936 86.1365 158.936ZM86.1365 160.12C87.5285 160.12 88.5205 161.624 88.5205 163.944C88.5205 166.28 87.5285 167.784 86.1365 167.784C84.7285 167.784 83.7365 166.28 83.7365 163.944C83.7365 161.624 84.7285 160.12 86.1365 160.12ZM107.383 162.152H98.9352V158.36H97.6232V163.224H107.383V162.152ZM98.8392 167.64H97.5272V171.832H107.463V170.76H98.8392V167.64ZM95.8632 165.144V166.2H108.871V165.144H95.8632ZM116.055 162.456C116.055 160.952 117.447 160.072 119.463 160.072C121.495 160.072 122.887 160.952 122.887 162.456C122.887 163.96 121.495 164.84 119.463 164.84C117.447 164.84 116.055 163.96 116.055 162.456ZM120.519 168.952V166.456C123.127 166.152 124.967 164.648 124.967 162.456C124.967 159.992 122.615 158.392 119.463 158.392C116.327 158.392 113.975 159.992 113.975 162.456C113.975 164.648 115.815 166.136 118.407 166.456V168.952H112.807V170.664H126.151V168.952H120.519ZM135.765 163.576C133.381 162.888 132.325 161.176 132.325 159.432V158.072H130.181V159.432C130.181 161.224 129.109 163.08 126.645 163.816L127.669 165.48C129.413 164.952 130.613 163.832 131.285 162.44C131.941 163.72 133.077 164.728 134.757 165.224L135.765 163.576ZM136.869 170.52H131.269V169.192H136.869V170.52ZM136.869 167.576H131.269V166.2H129.173V172.2H138.965V166.2H136.869V167.576ZM136.837 157.64V165.56H138.965V157.64H136.837ZM143.14 161.048H146.516V159.336H141.06V169.064H142.084C143.972 169.064 145.54 169 147.332 168.664L147.172 166.952C145.764 167.208 144.516 167.288 143.14 167.32V161.048ZM151.284 157.624V163.304H149.956V157.912H147.988V171.688H149.956V165H151.284V172.376H153.284V157.624H151.284ZM166.323 160.904H158.323V159.608H166.211V157.928H156.227V162.568H166.323V160.904ZM158.195 169.752H166.259V165.848H156.083V167.432H164.179V168.264H156.099V172.248H166.643V170.632H158.195V169.752ZM154.579 163.352V165.016H167.907V163.352H154.579ZM173.218 158.616C170.914 158.616 169.17 160.136 169.17 162.248C169.17 164.376 170.914 165.88 173.218 165.88C175.522 165.88 177.282 164.376 177.282 162.248C177.282 160.136 175.522 158.616 173.218 158.616ZM173.218 160.424C174.354 160.424 175.218 161.096 175.218 162.248C175.218 163.4 174.354 164.072 173.218 164.072C172.082 164.072 171.218 163.4 171.218 162.248C171.218 161.096 172.082 160.424 173.218 160.424ZM178.658 157.624V172.408H180.77V157.624H178.658ZM168.818 169.416C171.362 169.416 174.818 169.384 177.986 168.744L177.858 167.224C174.754 167.688 171.138 167.704 168.546 167.704L168.818 169.416ZM195.681 157.624V172.408H197.793V157.624H195.681ZM189.873 158.664C187.649 158.664 186.001 160.68 186.001 163.912C186.001 167.16 187.649 169.192 189.873 169.192C192.097 169.192 193.745 167.16 193.745 163.912C193.745 160.68 192.097 158.664 189.873 158.664ZM189.873 160.568C190.961 160.568 191.713 161.736 191.713 163.912C191.713 166.104 190.961 167.272 189.873 167.272C188.785 167.272 188.033 166.104 188.033 163.912C188.033 161.736 188.785 160.568 189.873 160.568ZM203.456 167.272C202.352 167.272 201.616 166.104 201.616 163.912C201.616 161.752 202.352 160.568 203.456 160.568C204.544 160.568 205.296 161.752 205.296 163.912C205.296 166.104 204.544 167.272 203.456 167.272ZM203.456 158.664C201.216 158.664 199.584 160.68 199.584 163.912C199.584 167.16 201.216 169.192 203.456 169.192C205.68 169.192 207.328 167.16 207.328 163.912C207.328 160.68 205.68 158.664 203.456 158.664ZM213.072 162.808V161.08H211.04V157.64H208.928V172.376H211.04V167.112H213.072V165.384H211.04V162.808H213.072ZM214.238 159.16V160.84H219.15C218.846 164.104 217.214 166.408 213.454 168.216L214.558 169.88C219.79 167.352 221.31 163.672 221.31 159.16H214.238ZM223.566 157.624V172.36H225.694V157.624H223.566ZM232.157 158.888C229.933 158.888 228.317 160.248 228.317 162.264C228.317 164.264 229.933 165.64 232.157 165.64C234.397 165.64 235.997 164.264 235.997 162.264C235.997 160.248 234.397 158.888 232.157 158.888ZM232.157 160.008C233.645 160.008 234.717 160.92 234.717 162.264C234.717 163.592 233.645 164.52 232.157 164.52C230.685 164.52 229.597 163.592 229.597 162.264C229.597 160.92 230.685 160.008 232.157 160.008ZM237.885 157.832V172.216H239.197V157.832H237.885ZM227.757 169.064C230.349 169.064 233.821 169.032 237.053 168.44L236.941 167.464C233.805 167.944 230.205 167.96 227.597 167.96L227.757 169.064ZM245.869 164.184C248.189 163.832 250.301 162.68 251.085 161.016C251.853 162.68 253.965 163.832 256.301 164.184L256.781 163.128C254.253 162.792 251.933 161.368 251.933 159.624V159.608H256.397V158.552H245.773V159.608H250.237V159.624C250.237 161.368 247.917 162.792 245.373 163.128L245.869 164.184ZM247.533 167.8H246.221V171.864H256.141V170.792H247.533V167.8ZM244.557 165.224V166.28H250.525V169.192H251.837V166.28H257.581V165.224H244.557ZM264.411 163.352H260.379V159.688H264.411V163.352ZM265.691 158.648H259.099V164.392H265.691V158.648ZM261.851 169.336H269.643V165.816H260.523V166.856H268.347V168.36H260.571V171.992H270.171V170.936H261.851V169.336ZM269.643 160.92V157.848H268.331V165.144H269.643V162.008H271.771V160.92H269.643ZM279.578 169.336V166.632H284.17V165.576H275.338V163.256H283.834V158.888H274.01V159.96H282.554V162.2H274.042V166.632H278.25V169.336H272.41V170.408H285.45V169.336H279.578ZM286.544 173.266L285.723 172.703C286.213 172.021 286.468 171.318 286.489 170.594V169.289H287.903V170.422C287.903 170.948 287.773 171.474 287.513 172C287.257 172.526 286.934 172.948 286.544 173.266ZM85.798 185.688C88.15 185.4 90.31 184.344 91.094 182.76C91.894 184.344 94.038 185.4 96.39 185.688L96.854 184.648C94.342 184.36 92.054 183.128 91.942 181.544H96.406V180.488H85.798V181.544H90.246C90.134 183.128 87.846 184.36 85.334 184.648L85.798 185.688ZM94.662 191.64C94.662 192.6 93.318 193.16 91.078 193.16C88.822 193.16 87.494 192.6 87.494 191.64C87.494 190.68 88.822 190.136 91.078 190.136C93.318 190.136 94.662 190.68 94.662 191.64ZM97.574 187.608V186.552H84.598V187.608H90.422V189.144C87.75 189.272 86.166 190.152 86.166 191.64C86.166 193.272 88.022 194.168 91.094 194.168C94.15 194.168 95.99 193.272 95.99 191.64C95.99 190.152 94.422 189.272 91.75 189.144V187.608H97.574ZM106.837 186.776C104.725 186.072 103.365 184.392 103.365 182.52V181.96H106.533V180.904H98.8368V181.96H102.053V182.52C102.053 184.584 100.613 186.44 98.4528 187.192L99.1248 188.232C100.837 187.624 102.133 186.344 102.741 184.712C103.349 186.136 104.581 187.272 106.213 187.8L106.837 186.776ZM105.093 193.128C102.949 193.128 101.669 192.536 101.669 191.512C101.669 190.504 102.949 189.912 105.093 189.912C107.205 189.912 108.501 190.504 108.501 191.512C108.501 192.536 107.205 193.128 105.093 193.128ZM105.093 188.872C102.149 188.872 100.357 189.848 100.357 191.512C100.357 193.192 102.149 194.168 105.093 194.168C108.005 194.168 109.813 193.192 109.813 191.512C109.813 189.848 108.005 188.872 105.093 188.872ZM109.653 183.464V179.848H108.341V188.504H109.653V184.568H111.781V183.464H109.653ZM122.932 190.472H124.26V179.848H122.932V181.704H118.884V182.76H122.932V184.456H118.884V185.496H122.932V190.472ZM120.564 186.728C118.42 187.112 116.548 187.224 114.58 187.24V180.872H113.268V188.344H114.356C116.468 188.344 118.404 188.232 120.708 187.816L120.564 186.728ZM116.372 192.792V189.56H115.06V193.864H124.628V192.792H116.372ZM130.723 186.904C132.403 186.488 133.683 185.528 134.291 184.264C134.915 185.432 136.163 186.296 137.811 186.696L138.339 185.672C136.307 185.208 134.915 183.976 134.915 182.536V182.504H138.083V181.464H134.915V179.864H133.603V181.464H130.451V182.504H133.619V182.536C133.619 184.072 132.227 185.384 130.163 185.864L130.723 186.904ZM138.963 187.432C135.827 187.88 132.227 187.896 129.491 187.896L129.667 189C130.867 189 132.227 188.984 133.635 188.936V193.768H134.947V188.856C136.307 188.776 137.715 188.632 139.059 188.408L138.963 187.432ZM139.987 179.848V194.2H141.299V179.848H139.987ZM144.274 181.24V190.568H150.866V181.24H144.274ZM149.586 182.296V189.528H145.554V182.296H149.586ZM153.874 179.832V194.216H155.186V179.832H153.874ZM158.208 181.384V182.44H163.6C163.328 185.848 161.408 188.6 157.552 190.44L158.256 191.512C163.024 189.176 164.928 185.528 164.928 181.384H158.208ZM167.824 179.832V194.184H169.136V179.832H167.824ZM177.231 186.92H173.167V184.296H177.231V186.92ZM178.511 180.872H177.231V183.272H173.167V180.872H171.871V187.976H178.511V180.872ZM174.799 189.368H173.487V193.864H183.055V192.792H174.799V189.368ZM182.415 184.184V179.848H181.103V190.376H182.415V185.288H184.527V184.184H182.415ZM196.623 184.024H193.055V181.288H196.623V184.024ZM191.743 184.024H189.615V185.032H200.047V184.024H197.935V181.288H200.095V180.28H189.567V181.288H191.743V184.024ZM191.247 191.688H199.679V188.536H189.919V189.512H198.383V190.744H189.967V194.024H200.111V193.032H191.247V191.688ZM188.351 186.232V187.272H201.343V186.232H188.351ZM211.214 184.648H213.134V189.608H214.398V179.848H213.134V183.592H211.214V180.104H209.966V188.36H211.214V184.648ZM209.134 186.664C207.486 187 206.062 187.08 204.206 187.096V184.968H208.302V180.968H202.91V182.024H207.038V183.976H202.942V188.152H203.886C205.95 188.152 207.454 188.072 209.278 187.704L209.134 186.664ZM210.27 188.952H208.942V189.32C208.942 191.176 206.606 192.712 204.094 193.112L204.622 194.136C206.75 193.768 208.734 192.664 209.614 191.08C210.477 192.664 212.494 193.768 214.606 194.136L215.134 193.112C212.606 192.712 210.27 191.176 210.27 189.32V188.952ZM219.084 190.52H226.316V192.936H219.084V190.52ZM217.804 193.992H227.596V189.48H217.804V193.992ZM220.892 181.352H224.46V184.36H220.892V181.352ZM223.34 187.064V185.416H227.884V184.36H225.772V181.352H227.948V180.296H217.42V181.352H219.58V184.36H217.468V185.416H222.028V187.064H216.204V188.12H229.18V187.064H223.34ZM240.587 179.848V187.544H241.899V179.848H240.587ZM232.651 188.248V193.992H241.899V188.248H240.603V190.008H233.947V188.248H232.651ZM233.947 191.032H240.603V192.936H233.947V191.032ZM234.187 180.52C232.027 180.52 230.459 181.864 230.459 183.816C230.459 185.8 232.027 187.128 234.187 187.128C236.363 187.128 237.947 185.8 237.947 183.816C237.947 181.864 236.363 180.52 234.187 180.52ZM234.187 181.608C235.643 181.608 236.667 182.52 236.667 183.816C236.667 185.128 235.643 186.04 234.187 186.04C232.763 186.04 231.739 185.128 231.739 183.816C231.739 182.52 232.763 181.608 234.187 181.608ZM246.25 181.224H244.938V190.472H246.122C248.41 190.472 250.666 190.312 253.162 189.8L253.018 188.68C250.634 189.16 248.41 189.352 246.25 189.352V181.224ZM254.49 179.832V194.168H255.802V179.832H254.49ZM259.881 182.296H265.241V181.208H258.569V190.632H259.705C262.409 190.632 264.297 190.536 266.489 190.12L266.345 189.032C264.265 189.4 262.425 189.512 259.881 189.512V182.296ZM271.369 185.496H269.001V179.832H267.689V194.216H269.001V186.584H271.369V185.496ZM272.156 192.242C272.156 191.992 272.229 191.784 272.375 191.617C272.526 191.451 272.75 191.367 273.047 191.367C273.344 191.367 273.568 191.451 273.719 191.617C273.875 191.784 273.953 191.992 273.953 192.242C273.953 192.482 273.875 192.682 273.719 192.844C273.568 193.005 273.344 193.086 273.047 193.086C272.75 193.086 272.526 193.005 272.375 192.844C272.229 192.682 272.156 192.482 272.156 192.242Z" fill="black"/>
<path d="M179.733 57.8516C175.605 57.8516 171.518 58.6646 167.704 60.2442C163.891 61.8238 160.426 64.1391 157.507 67.0578C154.588 69.9766 152.273 73.4417 150.693 77.2552C149.114 81.0687 148.301 85.1561 148.301 89.2838V103.427C148.301 107.555 149.114 111.642 150.693 115.455C152.273 119.269 154.588 122.734 157.507 125.653C160.426 128.572 163.891 130.887 167.704 132.466C171.518 134.046 175.605 134.859 179.733 134.859V134.859C188.069 134.858 196.063 131.546 201.957 125.652C207.851 119.757 211.162 111.763 211.162 103.427V89.2816C211.161 80.9463 207.85 72.9525 201.956 67.0584C196.062 61.1642 188.068 57.8525 179.733 57.8516V57.8516ZM193.791 103.379C193.824 105.245 193.484 107.1 192.793 108.834C192.101 110.568 191.071 112.146 189.762 113.478C188.454 114.81 186.893 115.867 185.172 116.589C183.45 117.311 181.602 117.683 179.735 117.683C177.868 117.683 176.02 117.311 174.299 116.589C172.577 115.867 171.016 114.81 169.708 113.478C168.399 112.146 167.369 110.568 166.678 108.834C165.986 107.1 165.647 105.245 165.679 103.379V89.3278C165.647 87.4612 165.986 85.6068 166.678 83.8728C167.369 82.1387 168.399 80.5598 169.708 79.2282C171.016 77.8966 172.577 76.839 174.299 76.117C176.02 75.395 177.868 75.0232 179.735 75.0232C181.602 75.0232 183.45 75.395 185.172 76.117C186.893 76.839 188.454 77.8966 189.762 79.2282C191.071 80.5598 192.101 82.1387 192.793 83.8728C193.484 85.6068 193.824 87.4612 193.791 89.3278V103.379Z" fill="#25A765"/>
<path d="M170.33 52.2657C170.546 52.3437 170.741 52.4708 170.899 52.637C171.058 52.8033 171.175 53.0041 171.242 53.2235C171.31 53.443 171.325 53.6751 171.287 53.9015C171.249 54.1279 171.159 54.3424 171.024 54.528L171.03 54.5445C170.39 54.9399 169.836 55.4585 169.399 56.0702C168.962 56.6819 168.651 57.3744 168.485 58.1073C175.753 55.4861 183.709 55.4861 190.978 58.1073C190.811 57.3744 190.501 56.6818 190.064 56.0701C189.628 55.4584 189.073 54.9398 188.434 54.5445L188.439 54.528C188.303 54.3424 188.213 54.1278 188.175 53.9013C188.137 53.6748 188.153 53.4425 188.22 53.223C188.288 53.0034 188.405 52.8026 188.564 52.6365C188.722 52.4703 188.917 52.3434 189.133 52.2657V52.2657C189.678 52.1131 190.158 51.7885 190.502 51.3403C190.846 50.8921 191.036 50.3445 191.043 49.7795C191.05 49.2145 190.873 48.6624 190.54 48.2059C190.207 47.7493 189.735 47.413 189.195 47.2471C188.655 47.0812 188.076 47.0947 187.544 47.2856C187.012 47.4765 186.556 47.8345 186.245 48.306C185.933 48.7775 185.783 49.3372 185.816 49.9013C185.85 50.4654 186.065 51.0035 186.429 51.4352H186.424V51.4395C186.558 51.6254 186.648 51.84 186.686 52.0665C186.724 52.2931 186.708 52.5253 186.641 52.7448C186.574 52.9644 186.456 53.1652 186.298 53.3316C186.139 53.4979 185.945 53.6251 185.729 53.7032L185.723 53.722C184.977 53.6953 184.232 53.8178 183.534 54.0824C182.883 53.6539 182.167 53.3347 181.413 53.1373V53.1114C181.18 52.9368 180.99 52.7103 180.86 52.4497C180.729 52.1892 180.661 51.9018 180.661 51.6104C180.661 51.319 180.729 51.0316 180.86 50.7711C180.99 50.5105 181.18 50.284 181.413 50.1094V50.1051H181.405C182.008 49.7175 182.468 49.1452 182.718 48.4739C182.969 47.8026 182.995 47.0684 182.792 46.3811C182.59 45.6938 182.171 45.0904 181.598 44.6612C181.024 44.232 180.327 44 179.611 44C178.894 44 178.197 44.232 177.624 44.6612C177.05 45.0904 176.631 45.6938 176.429 46.3811C176.227 47.0684 176.253 47.8026 176.503 48.4739C176.753 49.1452 177.214 49.7175 177.816 50.1051C178.05 50.2796 178.239 50.5062 178.37 50.7667C178.5 51.0273 178.568 51.3147 178.568 51.6061C178.568 51.8975 178.5 52.1848 178.37 52.4454C178.239 52.7059 178.05 52.9325 177.816 53.107V53.1286C177.097 53.3189 176.411 53.6198 175.784 54.0204C175.129 53.7943 174.437 53.6911 173.744 53.7162L173.738 53.6975C173.522 53.6197 173.327 53.4927 173.168 53.3264C173.01 53.1601 172.892 52.9592 172.824 52.7395C172.757 52.5198 172.742 52.2874 172.78 52.0608C172.818 51.8341 172.908 51.6194 173.043 51.4337V51.4294H173.037C173.402 50.9976 173.618 50.4592 173.651 49.8947C173.685 49.3303 173.534 48.7702 173.223 48.2983C172.911 47.8264 172.455 47.4682 171.923 47.2771C171.391 47.086 170.811 47.0724 170.271 47.2384C169.73 47.4044 169.258 47.7409 168.925 48.1977C168.591 48.6545 168.415 49.2069 168.422 49.7723C168.429 50.3377 168.619 50.8856 168.963 51.3341C169.308 51.7825 169.788 52.1073 170.333 52.2599L170.33 52.2657Z" fill="#123B1E"/>
</g>
<defs>
<clipPath id="clip0_327_5">
<rect width="360" height="200" fill="white"/>
</clipPath>
</defs>
</svg>
