<?xml version="1.0" encoding="utf-8"?>
<!-- Generator: Adobe Illustrator 25.0.1, SVG Export Plug-In . SVG Version: 6.00 Build 0)  -->
<svg version="1.1" id="레이어_1" xmlns="http://www.w3.org/2000/svg" xmlns:xlink="http://www.w3.org/1999/xlink" x="0px"
	 y="0px" viewBox="0 0 40 40" style="enable-background:new 0 0 40 40;" xml:space="preserve">
<style type="text/css">
	.st0{fill:#25A765;}
	.st1{fill:#123B1E;}
</style>
<path class="st0" d="M20,8c-1.6,0-3.1,0.3-4.6,0.9c-1.5,0.6-2.8,1.5-3.9,2.6c-1.1,1.1-2,2.4-2.6,3.9C8.3,16.8,8,18.4,8,20v5.4
	C8,27,8.3,28.5,8.9,30c0.6,1.5,1.5,2.8,2.6,3.9c1.1,1.1,2.4,2,3.9,2.6c1.5,0.6,3,0.9,4.6,0.9c3.2,0,6.2-1.3,8.5-3.5s3.5-5.3,3.5-8.5
	V20c0-3.2-1.3-6.2-3.5-8.5C26.3,9.2,23.2,8,20,8z M25.4,25.4c0,0.7-0.1,1.4-0.4,2.1s-0.7,1.3-1.2,1.8c-0.5,0.5-1.1,0.9-1.8,1.2
	c-0.7,0.3-1.4,0.4-2.1,0.4s-1.4-0.1-2.1-0.4c-0.7-0.3-1.3-0.7-1.8-1.2c-0.5-0.5-0.9-1.1-1.2-1.8c-0.3-0.7-0.4-1.4-0.4-2.1V20
	c0-0.7,0.1-1.4,0.4-2.1c0.3-0.7,0.7-1.3,1.2-1.8c0.5-0.5,1.1-0.9,1.8-1.2c0.7-0.3,1.4-0.4,2.1-0.4s1.4,0.1,2.1,0.4
	c0.7,0.3,1.3,0.7,1.8,1.2c0.5,0.5,0.9,1.1,1.2,1.8s0.4,1.4,0.4,2.1V25.4z"/>
<path class="st1" d="M16.4,5.8c0.1,0,0.2,0.1,0.2,0.1c0.1,0.1,0.1,0.1,0.1,0.2c0,0.1,0,0.2,0,0.3c0,0.1,0,0.2-0.1,0.2l0,0
	c-0.2,0.2-0.5,0.3-0.6,0.6c-0.2,0.2-0.3,0.5-0.3,0.8c2.8-1,5.8-1,8.6,0c-0.1-0.3-0.2-0.5-0.3-0.8c-0.2-0.2-0.4-0.4-0.6-0.6l0,0
	c-0.1-0.1-0.1-0.2-0.1-0.2c0-0.1,0-0.2,0-0.3c0-0.1,0.1-0.2,0.1-0.2s0.1-0.1,0.2-0.1c0.2-0.1,0.4-0.2,0.5-0.4
	c0.1-0.2,0.2-0.4,0.2-0.6c0-0.2-0.1-0.4-0.2-0.6C24,4.1,23.8,4,23.6,3.9c-0.2-0.1-0.4-0.1-0.6,0c-0.2,0.1-0.4,0.2-0.5,0.4
	c-0.1,0.2-0.2,0.4-0.2,0.6c0,0.2,0.1,0.4,0.2,0.6h0v0c0.1,0.1,0.1,0.2,0.1,0.2c0,0.1,0,0.2,0,0.3c0,0.1-0.1,0.2-0.1,0.2
	c-0.1,0.1-0.1,0.1-0.2,0.1l0,0c-0.3,0-0.6,0-0.8,0.1c-0.2-0.2-0.5-0.3-0.8-0.4v0c-0.1-0.1-0.2-0.2-0.2-0.3s-0.1-0.2-0.1-0.3
	c0-0.1,0-0.2,0.1-0.3c0-0.1,0.1-0.2,0.2-0.3v0h0c0.2-0.1,0.4-0.4,0.5-0.6c0.1-0.3,0.1-0.5,0-0.8c-0.1-0.3-0.2-0.5-0.5-0.7
	c-0.2-0.2-0.5-0.3-0.8-0.3c-0.3,0-0.5,0.1-0.8,0.3c-0.2,0.2-0.4,0.4-0.5,0.7c-0.1,0.3-0.1,0.5,0,0.8c0.1,0.3,0.3,0.5,0.5,0.6
	c0.1,0.1,0.2,0.2,0.2,0.3c0,0.1,0.1,0.2,0.1,0.3c0,0.1,0,0.2-0.1,0.3c0,0.1-0.1,0.2-0.2,0.3v0c-0.3,0.1-0.5,0.2-0.8,0.3
	c-0.3-0.1-0.5-0.1-0.8-0.1l0,0c-0.1,0-0.2-0.1-0.2-0.1S17.4,6.1,17.4,6c0-0.1,0-0.2,0-0.3c0-0.1,0-0.2,0.1-0.2v0h0
	c0.1-0.2,0.2-0.4,0.2-0.6c0-0.2,0-0.4-0.2-0.6C17.4,4.1,17.2,4,17,3.9c-0.2-0.1-0.4-0.1-0.6,0S16,4.1,15.9,4.3
	c-0.1,0.2-0.2,0.4-0.2,0.6c0,0.2,0.1,0.4,0.2,0.6C16,5.6,16.2,5.8,16.4,5.8L16.4,5.8z"/>
</svg>
