<svg width="40" height="40" viewBox="0 0 40 40" fill="none" xmlns="http://www.w3.org/2000/svg">
<path d="M20 8.94284C18.5772 8.94284 17.1684 9.22764 15.854 9.78098C14.5396 10.3343 13.3452 11.1454 12.3392 12.1678C11.3332 13.1902 10.5352 14.404 9.9907 15.7399C9.44624 17.0758 9.16602 18.5076 9.16602 19.9535V24.9078C9.16602 26.3537 9.44624 27.7855 9.9907 29.1214C10.5352 30.4573 11.3332 31.6711 12.3392 32.6935C13.3452 33.7159 14.5396 34.527 15.854 35.0803C17.1684 35.6337 18.5772 35.9185 20 35.9185C22.8731 35.9181 25.6284 34.7579 27.6599 32.6931C29.6914 30.6282 30.8327 27.8278 30.8327 24.9078V19.9527C30.8325 17.0329 29.6911 14.2327 27.6597 12.168C25.6282 10.1033 22.873 8.94318 20 8.94284ZM24.8454 24.8909C24.8567 25.5447 24.7397 26.1943 24.5013 26.8018C24.2629 27.4092 23.9079 27.9623 23.4569 28.4287C23.0059 28.8952 22.468 29.2657 21.8746 29.5186C21.2812 29.7715 20.6442 29.9018 20.0007 29.9018C19.3572 29.9018 18.7202 29.7715 18.1268 29.5186C17.5334 29.2657 16.9955 28.8952 16.5445 28.4287C16.0935 27.9623 15.7385 27.4092 15.5001 26.8018C15.2617 26.1943 15.1447 25.5447 15.156 24.8909V19.9689C15.1447 19.3151 15.2617 18.6655 15.5001 18.058C15.7385 17.4506 16.0935 16.8975 16.5445 16.4311C16.9955 15.9646 17.5334 15.5941 18.1268 15.3412C18.7202 15.0883 19.3572 14.958 20.0007 14.958C20.6442 14.958 21.2812 15.0883 21.8746 15.3412C22.468 15.5941 23.0059 15.9646 23.4569 16.4311C23.9079 16.8975 24.2629 17.4506 24.5013 18.058C24.7397 18.6655 24.8567 19.3151 24.8454 19.9689V24.8909Z" fill="#26BD71"/>
<path d="M16.7594 6.9771C16.8338 7.00441 16.901 7.04893 16.9555 7.10717C17.0101 7.1654 17.0505 7.23574 17.0737 7.31263C17.0969 7.38951 17.1022 7.47082 17.0891 7.55013C17.0761 7.62943 17.045 7.70456 16.9984 7.76956L17.0004 7.77537C16.7801 7.91386 16.589 8.09553 16.4384 8.3098C16.2878 8.52407 16.1807 8.76665 16.1233 9.02342C18.6285 8.10519 21.3707 8.10519 23.876 9.02342C23.8187 8.76665 23.7117 8.52405 23.5612 8.30977C23.4107 8.09549 23.2197 7.91382 22.9993 7.77537L23.0008 7.76956C22.9542 7.70454 22.9231 7.62938 22.9101 7.55003C22.897 7.47069 22.9023 7.38934 22.9256 7.31243C22.9488 7.23553 22.9894 7.16519 23.044 7.10698C23.0986 7.04878 23.1659 7.00431 23.2404 6.9771C23.4279 6.92366 23.5934 6.80992 23.712 6.65293C23.8306 6.49593 23.896 6.30411 23.8984 6.10618C23.9008 5.90825 23.8401 5.71485 23.7253 5.55494C23.6105 5.39503 23.4478 5.27719 23.2616 5.21908C23.0754 5.16097 22.8758 5.1657 22.6924 5.23257C22.5091 5.29943 22.352 5.42484 22.2447 5.59001C22.1374 5.75519 22.0856 5.95125 22.097 6.14885C22.1085 6.34645 22.1826 6.53496 22.3083 6.68617H22.3063V6.68769C22.3528 6.75279 22.3838 6.82798 22.3968 6.90733C22.4098 6.98668 22.4045 7.06803 22.3813 7.14493C22.358 7.22184 22.3175 7.2922 22.263 7.35047C22.2084 7.40873 22.1412 7.4533 22.0668 7.48066L22.0648 7.48722C21.8076 7.47788 21.5511 7.52081 21.3104 7.61349C21.0861 7.4634 20.8391 7.35156 20.5793 7.28241V7.27333C20.4989 7.21219 20.4336 7.13283 20.3887 7.04156C20.3437 6.95029 20.3203 6.84962 20.3203 6.74754C20.3203 6.64547 20.3437 6.5448 20.3887 6.45353C20.4336 6.36226 20.4989 6.2829 20.5793 6.22176V6.22024H20.5766C20.7843 6.08446 20.9431 5.88399 21.0293 5.64884C21.1155 5.41369 21.1244 5.15649 21.0548 4.91573C20.9852 4.67497 20.8407 4.46361 20.643 4.31325C20.4453 4.16289 20.205 4.08163 19.9581 4.08163C19.7112 4.08163 19.4709 4.16289 19.2733 4.31325C19.0756 4.46361 18.9311 4.67497 18.8615 4.91573C18.7919 5.15649 18.8008 5.41369 18.887 5.64884C18.9732 5.88399 19.132 6.08446 19.3397 6.22024C19.4201 6.28138 19.4854 6.36074 19.5304 6.45201C19.5753 6.54328 19.5987 6.64395 19.5987 6.74603C19.5987 6.8481 19.5753 6.94877 19.5304 7.04004C19.4854 7.13131 19.4201 7.21067 19.3397 7.27181V7.27939C19.0917 7.34603 18.8553 7.45142 18.6392 7.59178C18.4132 7.51255 18.1748 7.47643 17.936 7.4852L17.934 7.47864C17.8594 7.45141 17.7922 7.4069 17.7375 7.34865C17.6828 7.29041 17.6422 7.22001 17.619 7.14306C17.5958 7.0661 17.5905 6.9847 17.6036 6.90531C17.6167 6.82592 17.6478 6.75071 17.6944 6.68567V6.68415H17.6924C17.8183 6.53288 17.8925 6.34427 17.904 6.14655C17.9155 5.94882 17.8637 5.75263 17.7563 5.58733C17.649 5.42203 17.4918 5.29653 17.3084 5.22959C17.1249 5.16266 16.9251 5.15791 16.7388 5.21604C16.5525 5.27418 16.3897 5.39208 16.2749 5.55209C16.16 5.7121 16.0992 5.90561 16.1016 6.10367C16.104 6.30172 16.1695 6.49366 16.2882 6.65075C16.4069 6.80783 16.5725 6.92163 16.7601 6.97508L16.7594 6.9771Z" fill="#123B1E"/>
</svg>
