<svg width="48" height="48" viewBox="0 0 48 48" fill="none" xmlns="http://www.w3.org/2000/svg">
<path d="M33.845 12.8003H14.145C11.6345 12.8003 9.59766 14.8351 9.59766 17.347V28.1344C9.59766 30.6464 11.6345 32.6812 14.145 32.6812H20.5187L23.2503 37.1073C23.2503 37.1073 23.2766 37.1545 23.324 37.2122C23.4608 37.443 23.7082 37.6003 23.9977 37.6003C24.2819 37.6003 24.5292 37.443 24.6661 37.2175C24.724 37.1493 24.745 37.1073 24.745 37.1073L27.4766 32.6812H33.8503C36.3608 32.6812 38.3977 30.6464 38.3977 28.1344V17.347C38.3924 14.8351 36.3556 12.8003 33.845 12.8003Z" fill="#00C402"/>
<path d="M15.9936 21.0861C15.9936 21.0861 15.2094 21.0861 14.4936 21.7783V18.9937H12.7305V26.3146H14.5094V25.743C14.5094 25.743 14.9305 26.4982 15.9884 26.4982C15.9884 26.4982 18.4726 26.409 18.4726 23.7659C18.4778 23.7607 18.3884 21.0861 15.9936 21.0861ZM15.6041 24.9459C14.8831 24.9459 14.3147 24.2746 14.5094 23.5194C14.6094 23.1366 14.9199 22.8272 15.2989 22.7275C16.0568 22.5283 16.7357 23.0946 16.7357 23.8183C16.7357 24.4424 16.2305 24.9459 15.6041 24.9459Z" fill="white"/>
<path d="M19.0469 18.9985V20.6924C19.0469 20.6924 19.8521 20.6557 19.8521 22.1503V26.4821H21.5521V21.7465C21.5469 21.7518 21.6206 18.9985 19.0469 18.9985Z" fill="white"/>
<path d="M25.7038 21.1069C25.7038 21.1069 22.7933 21.1069 22.7933 23.8182C22.7933 23.8182 22.6986 26.4928 25.7038 26.4928C25.7038 26.4928 28.6828 26.4875 28.6828 23.8182C28.6828 23.8182 28.7775 21.1069 25.7038 21.1069ZM25.7038 24.9457C24.9828 24.9457 24.4144 24.2745 24.6091 23.5245C24.7038 23.1469 25.0144 22.8323 25.3933 22.7326C26.1512 22.5334 26.8354 23.0945 26.8354 23.8182C26.8354 24.4423 26.3301 24.9457 25.7038 24.9457Z" fill="white"/>
<path d="M33.544 21.2853V21.7782C33.544 21.7782 33.0387 21.107 32.0651 21.107C32.0651 21.107 29.5703 21.0021 29.5703 23.7973C29.5703 23.7973 29.544 26.4036 31.9966 26.4036C31.9966 26.4036 32.9966 26.4456 33.544 25.7324V26.1414C33.544 26.1414 33.6651 27.4263 32.423 27.4263H31.9966V28.9838H32.6808C32.6808 28.9838 35.2598 29.01 35.2598 26.2411V21.2853H33.544ZM32.4914 24.9457C31.7703 24.9457 31.2019 24.2692 31.3966 23.5141C31.4966 23.1365 31.8072 22.8218 32.1861 22.7274C32.944 22.5334 33.623 23.0945 33.623 23.8182C33.623 24.4423 33.1177 24.9457 32.4914 24.9457Z" fill="white"/>
</svg>
