<svg width="48" height="48" viewBox="0 0 48 48" fill="none" xmlns="http://www.w3.org/2000/svg">
<path d="M29.225 10.3999H18.7858C14.1558 10.3999 10.4023 14.1533 10.4023 18.7834V29.2226C10.4023 33.8526 14.1558 37.5999 18.7858 37.5999H29.225C33.8551 37.5999 37.6023 33.8465 37.6023 29.2226V18.7772C37.6023 14.1533 33.8489 10.3999 29.225 10.3999ZM34.991 28.2163C34.991 31.9574 31.9599 34.9886 28.2188 34.9886H19.7859C16.0448 34.9886 13.0137 31.9574 13.0137 28.2163V19.7835C13.0137 16.0486 16.0448 13.0113 19.7859 13.0113H28.2188C31.9599 13.0113 34.991 16.0424 34.991 19.7835V28.2163Z" fill="url(#paint0_radial_243_2207)"/>
<path d="M24.3665 16.8818C20.4094 16.8818 17.1992 20.0858 17.1992 24.043C17.1992 28.0001 20.4094 31.2041 24.3665 31.2041C28.3237 31.2041 31.5277 27.994 31.5277 24.043C31.5277 20.0858 28.3237 16.8818 24.3665 16.8818ZM24.3665 28.3582C21.9836 28.3582 20.0575 26.4259 20.0575 24.0492C20.0575 21.6662 21.9836 19.7401 24.3665 19.7401C26.7433 19.7401 28.6756 21.6662 28.6756 24.0492C28.6756 26.4259 26.7495 28.3582 24.3665 28.3582Z" fill="url(#paint1_radial_243_2207)"/>
<path d="M32.8572 16.7709C32.8572 17.7771 32.0423 18.592 31.036 18.592C30.0297 18.592 29.2148 17.7771 29.2148 16.7709C29.2148 15.7646 30.0297 14.9497 31.036 14.9497C32.0423 14.9497 32.8572 15.7646 32.8572 16.7709Z" fill="url(#paint2_radial_243_2207)"/>
<defs>
<radialGradient id="paint0_radial_243_2207" cx="0" cy="0" r="1" gradientUnits="userSpaceOnUse" gradientTransform="translate(10.6493 34.7209) scale(33.3473)">
<stop offset="0.0969" stop-color="#FFD879"/>
<stop offset="0.1539" stop-color="#FCCB76"/>
<stop offset="0.2583" stop-color="#F5AA6C"/>
<stop offset="0.3976" stop-color="#E9755E"/>
<stop offset="0.449" stop-color="#E45F58"/>
<stop offset="0.6786" stop-color="#D22A9C"/>
<stop offset="1" stop-color="#6968DF"/>
</radialGradient>
<radialGradient id="paint1_radial_243_2207" cx="0" cy="0" r="1" gradientUnits="userSpaceOnUse" gradientTransform="translate(10.6494 34.7201) scale(33.3471 33.3471)">
<stop offset="0.0969" stop-color="#FFD879"/>
<stop offset="0.1539" stop-color="#FCCB76"/>
<stop offset="0.2583" stop-color="#F5AA6C"/>
<stop offset="0.3976" stop-color="#E9755E"/>
<stop offset="0.449" stop-color="#E45F58"/>
<stop offset="0.6786" stop-color="#D22A9C"/>
<stop offset="1" stop-color="#6968DF"/>
</radialGradient>
<radialGradient id="paint2_radial_243_2207" cx="0" cy="0" r="1" gradientUnits="userSpaceOnUse" gradientTransform="translate(10.6513 34.7223) scale(33.3485)">
<stop offset="0.0969" stop-color="#FFD879"/>
<stop offset="0.1539" stop-color="#FCCB76"/>
<stop offset="0.2583" stop-color="#F5AA6C"/>
<stop offset="0.3976" stop-color="#E9755E"/>
<stop offset="0.449" stop-color="#E45F58"/>
<stop offset="0.6786" stop-color="#D22A9C"/>
<stop offset="1" stop-color="#6968DF"/>
</radialGradient>
</defs>
</svg>
