<svg width="48" height="48" viewBox="0 0 48 48" fill="none" xmlns="http://www.w3.org/2000/svg">
<path d="M24.0007 10.7314C22.2935 10.7314 20.6029 11.0732 19.0256 11.7372C17.4483 12.4012 16.0151 13.3745 14.8078 14.6014C13.6006 15.8283 12.643 17.2849 11.9896 18.8879C11.3363 20.491 11 22.2091 11 23.9442V29.8894C11 31.6245 11.3363 33.3427 11.9896 34.9457C12.643 36.5488 13.6006 38.0053 14.8078 39.2323C16.0151 40.4592 17.4483 41.4324 19.0256 42.0964C20.6029 42.7604 22.2935 43.1022 24.0007 43.1022C27.4485 43.1018 30.7549 41.7096 33.1927 39.2317C35.6305 36.7539 37 33.3934 37 29.8894V23.9433C36.9998 20.4395 35.6301 17.0792 33.1924 14.6016C30.7546 12.124 27.4483 10.7318 24.0007 10.7314ZM29.8153 29.8691C29.8288 30.6537 29.6885 31.4332 29.4024 32.1622C29.1163 32.8911 28.6902 33.5548 28.1491 34.1145C27.6079 34.6743 26.9624 35.1189 26.2503 35.4223C25.5382 35.7258 24.7738 35.8821 24.0016 35.8821C23.2295 35.8821 22.465 35.7258 21.753 35.4223C21.0409 35.1189 20.3954 34.6743 19.8542 34.1145C19.313 33.5548 18.887 32.8911 18.6009 32.1622C18.3148 31.4332 18.1744 30.6537 18.188 29.8691V23.9627C18.1744 23.1781 18.3148 22.3986 18.6009 21.6697C18.887 20.9408 19.313 20.2771 19.8542 19.7173C20.3954 19.1576 21.0409 18.713 21.753 18.4095C22.465 18.106 23.2295 17.9497 24.0016 17.9497C24.7738 17.9497 25.5382 18.106 26.2503 18.4095C26.9624 18.713 27.6079 19.1576 28.1491 19.7173C28.6902 20.2771 29.1163 20.9408 29.4024 21.6697C29.6885 22.3986 29.8288 23.1781 29.8153 23.9627V29.8691Z" fill="#26BD71"/>
<path d="M20.1097 8.37251C20.199 8.40527 20.2796 8.45871 20.3451 8.52859C20.4105 8.59847 20.4591 8.68288 20.4869 8.77514C20.5148 8.86739 20.5211 8.96497 20.5054 9.06014C20.4897 9.15531 20.4524 9.24546 20.3965 9.32347L20.3989 9.33043C20.1345 9.49662 19.9053 9.71463 19.7245 9.97175C19.5438 10.2289 19.4153 10.52 19.3463 10.8281C22.3527 9.72621 25.6433 9.72621 28.6496 10.8281C28.5809 10.52 28.4525 10.2288 28.2719 9.97171C28.0913 9.71458 27.8621 9.49657 27.5977 9.33043L27.5994 9.32347C27.5435 9.24544 27.5062 9.15525 27.4905 9.06003C27.4749 8.96481 27.4812 8.86719 27.5091 8.77491C27.537 8.68262 27.5857 8.59822 27.6512 8.52837C27.7168 8.45852 27.7975 8.40516 27.8869 8.37251C28.1119 8.30837 28.3105 8.1719 28.4528 7.9835C28.5952 7.7951 28.6737 7.56492 28.6765 7.3274C28.6794 7.08989 28.6065 6.85781 28.4688 6.66591C28.331 6.47402 28.1358 6.33262 27.9124 6.26289C27.689 6.19315 27.4493 6.19883 27.2294 6.27907C27.0094 6.35931 26.8209 6.50979 26.6921 6.708C26.5633 6.90621 26.5011 7.14149 26.5149 7.37861C26.5286 7.61573 26.6176 7.84194 26.7684 8.0234H26.766V8.02522C26.8218 8.10333 26.859 8.19356 26.8746 8.28878C26.8902 8.38401 26.8839 8.48162 26.856 8.57391C26.8281 8.66619 26.7795 8.75063 26.714 8.82055C26.6485 8.89046 26.5679 8.94395 26.4786 8.97678L26.4762 8.98466C26.1675 8.97344 25.8597 9.02496 25.5709 9.13618C25.3017 8.95606 25.0054 8.82186 24.6937 8.73889V8.72798C24.5971 8.65461 24.5188 8.55938 24.4648 8.44986C24.4109 8.34034 24.3827 8.21953 24.3827 8.09704C24.3827 7.97455 24.4109 7.85374 24.4648 7.74422C24.5188 7.6347 24.5971 7.53947 24.6937 7.4661V7.46428H24.6904C24.9396 7.30134 25.1301 7.06078 25.2335 6.77859C25.337 6.49641 25.3477 6.18777 25.2642 5.89887C25.1806 5.60996 25.0073 5.35631 24.77 5.17589C24.5328 4.99546 24.2445 4.89795 23.9482 4.89795C23.6519 4.89795 23.3636 4.99546 23.1263 5.17589C22.8891 5.35631 22.7158 5.60996 22.6322 5.89887C22.5487 6.18777 22.5594 6.49641 22.6629 6.77859C22.7663 7.06078 22.9568 7.30134 23.206 7.46428C23.3025 7.53765 23.3809 7.63287 23.4349 7.7424C23.4888 7.85192 23.5169 7.97273 23.5169 8.09522C23.5169 8.21771 23.4888 8.33851 23.4349 8.44804C23.3809 8.55756 23.3025 8.65279 23.206 8.72616V8.73525C22.9084 8.81523 22.6249 8.94169 22.3654 9.11012C22.0943 9.01505 21.8082 8.9717 21.5216 8.98223L21.5192 8.97435C21.4298 8.94168 21.349 8.88827 21.2834 8.81837C21.2178 8.74847 21.1691 8.66401 21.1412 8.57166C21.1133 8.47931 21.107 8.38163 21.1227 8.28636C21.1384 8.19109 21.1758 8.10084 21.2318 8.02279V8.02097H21.2294C21.3803 7.83945 21.4694 7.61311 21.4832 7.37584C21.497 7.13858 21.4349 6.90314 21.306 6.70478C21.1772 6.50643 20.9886 6.35582 20.7685 6.2755C20.5484 6.19518 20.3086 6.18948 20.085 6.25924C19.8614 6.329 19.6661 6.47048 19.5283 6.66249C19.3905 6.85451 19.3175 7.08672 19.3204 7.32439C19.3233 7.56205 19.4018 7.79238 19.5443 7.98088C19.6867 8.16939 19.8854 8.30594 20.1106 8.37008L20.1097 8.37251Z" fill="#123B1E"/>
</svg>
