<svg width="93" height="96" viewBox="0 0 93 96" fill="none" xmlns="http://www.w3.org/2000/svg">
<g filter="url(#filter0_d_43_140)">
<rect x="8" y="6.84491" width="77" height="78.6471" rx="15" fill="white"/>
</g>
<path d="M46.5011 28.8447C44.0715 28.8447 41.6657 29.2954 39.421 30.1711C37.1764 31.0468 35.1368 32.3303 33.4188 33.9484C31.7009 35.5665 30.3381 37.4874 29.4083 39.6015C28.4785 41.7156 28 43.9815 28 46.2698V54.1103C28 56.3986 28.4785 58.6645 29.4083 60.7786C30.3381 62.8927 31.7009 64.8136 33.4188 66.4317C35.1368 68.0498 37.1764 69.3333 39.421 70.209C41.6657 71.0847 44.0715 71.5354 46.5011 71.5354V71.5354C51.4075 71.5349 56.1128 69.6988 59.5819 66.431C63.0511 63.1632 65 58.7314 65 54.1103V46.2686C64.9997 41.6477 63.0506 37.2162 59.5815 33.9487C56.1123 30.6812 51.4073 28.8453 46.5011 28.8447V28.8447ZM54.7756 54.0835C54.7949 55.1183 54.5951 56.1463 54.188 57.1076C53.7809 58.0689 53.1746 58.9442 52.4044 59.6824C51.6343 60.4206 50.7157 61.0069 49.7024 61.4072C48.689 61.8074 47.6012 62.0136 46.5023 62.0136C45.4035 62.0136 44.3156 61.8074 43.3023 61.4072C42.289 61.0069 41.3704 60.4206 40.6003 59.6824C39.8301 58.9442 39.2238 58.0689 38.8166 57.1076C38.4095 56.1463 38.2098 55.1183 38.2291 54.0835V46.2942C38.2098 45.2594 38.4095 44.2314 38.8166 43.2701C39.2238 42.3088 39.8301 41.4335 40.6003 40.6953C41.3704 39.9571 42.289 39.3708 43.3023 38.9705C44.3156 38.5703 45.4035 38.3642 46.5023 38.3642C47.6012 38.3642 48.689 38.5703 49.7024 38.9705C50.7157 39.3708 51.6343 39.9571 52.4044 40.6953C53.1746 41.4335 53.7809 42.3088 54.188 43.2701C54.5951 44.2314 54.7949 45.2594 54.7756 46.2942V54.0835Z" fill="#25A765"/>
<path d="M40.9691 25.7266C41.0962 25.7699 41.2108 25.8403 41.304 25.9325C41.3972 26.0246 41.4663 26.136 41.5059 26.2576C41.5455 26.3793 41.5545 26.508 41.5322 26.6335C41.5098 26.759 41.4568 26.8779 41.3773 26.9808L41.3807 26.99C41.0044 27.2091 40.6781 27.4966 40.421 27.8357C40.1638 28.1748 39.9808 28.5587 39.8828 28.9651C44.161 27.5119 48.8438 27.5119 53.122 28.9651C53.0242 28.5587 52.8415 28.1748 52.5845 27.8357C52.3274 27.4966 52.0013 27.2091 51.625 26.99L51.6275 26.9808C51.5479 26.8779 51.4949 26.7589 51.4726 26.6333C51.4502 26.5078 51.4593 26.379 51.499 26.2573C51.5387 26.1356 51.6079 26.0243 51.7012 25.9322C51.7946 25.8401 51.9094 25.7697 52.0366 25.7266V25.7266C52.3568 25.6421 52.6394 25.4621 52.842 25.2136C53.0445 24.9652 53.1562 24.6616 53.1603 24.3484C53.1644 24.0351 53.0607 23.7291 52.8646 23.476C52.6686 23.2229 52.3908 23.0364 52.0729 22.9445C51.755 22.8525 51.4139 22.86 51.1009 22.9658C50.7878 23.0716 50.5196 23.2701 50.3363 23.5315C50.153 23.7929 50.0645 24.1032 50.0841 24.4159C50.1037 24.7286 50.2303 25.0269 50.4449 25.2662H50.4415V25.2686C50.5209 25.3717 50.5738 25.4906 50.5961 25.6162C50.6183 25.7418 50.6092 25.8705 50.5695 25.9922C50.5299 26.114 50.4607 26.2253 50.3675 26.3175C50.2743 26.4097 50.1596 26.4803 50.0325 26.5236L50.0291 26.5339C49.5898 26.5192 49.1518 26.5871 48.7408 26.7338C48.3577 26.4962 47.936 26.3193 47.4924 26.2098V26.1954C47.355 26.0987 47.2435 25.9731 47.1667 25.8287C47.0899 25.6842 47.0499 25.5249 47.0499 25.3634C47.0499 25.2018 47.0899 25.0425 47.1667 24.8981C47.2435 24.7536 47.355 24.628 47.4924 24.5313V24.5289H47.4877C47.8423 24.314 48.1135 23.9967 48.2607 23.6246C48.4079 23.2524 48.4232 22.8454 48.3043 22.4644C48.1854 22.0834 47.9387 21.7489 47.6011 21.5109C47.2635 21.273 46.8532 21.1444 46.4315 21.1444C46.0099 21.1444 45.5996 21.273 45.262 21.5109C44.9244 21.7489 44.6777 22.0834 44.5588 22.4644C44.4399 22.8454 44.4552 23.2524 44.6024 23.6246C44.7496 23.9967 45.0208 24.314 45.3754 24.5289C45.5127 24.6256 45.6242 24.7512 45.701 24.8956C45.7778 25.0401 45.8178 25.1994 45.8178 25.3609C45.8178 25.5225 45.7778 25.6818 45.701 25.8262C45.6242 25.9707 45.5127 26.0963 45.3754 26.193V26.205C44.9519 26.3105 44.5483 26.4773 44.1792 26.6994C43.7933 26.574 43.3862 26.5169 42.9783 26.5307L42.9749 26.5204C42.8476 26.4773 42.7327 26.4068 42.6394 26.3146C42.546 26.2225 42.4767 26.1111 42.437 25.9893C42.3973 25.8675 42.3883 25.7387 42.4107 25.613C42.433 25.4874 42.4861 25.3684 42.5658 25.2654V25.263H42.5624C42.7773 25.0236 42.904 24.7251 42.9237 24.4122C42.9434 24.0993 42.8549 23.7888 42.6715 23.5272C42.4882 23.2656 42.2198 23.067 41.9065 22.9611C41.5933 22.8552 41.2521 22.8477 40.9339 22.9397C40.6158 23.0317 40.3378 23.2182 40.1417 23.4715C39.9455 23.7247 39.8417 24.0309 39.8458 24.3444C39.8499 24.6578 39.9617 24.9616 40.1644 25.2102C40.3671 25.4588 40.6499 25.6388 40.9703 25.7234L40.9691 25.7266Z" fill="#123B1E"/>
<defs>
<filter id="filter0_d_43_140" x="0" y="0.84491" width="93" height="94.6471" filterUnits="userSpaceOnUse" color-interpolation-filters="sRGB">
<feFlood flood-opacity="0" result="BackgroundImageFix"/>
<feColorMatrix in="SourceAlpha" type="matrix" values="0 0 0 0 0 0 0 0 0 0 0 0 0 0 0 0 0 0 127 0" result="hardAlpha"/>
<feOffset dy="2"/>
<feGaussianBlur stdDeviation="4"/>
<feComposite in2="hardAlpha" operator="out"/>
<feColorMatrix type="matrix" values="0 0 0 0 0 0 0 0 0 0 0 0 0 0 0 0 0 0 0.15 0"/>
<feBlend mode="normal" in2="BackgroundImageFix" result="effect1_dropShadow_43_140"/>
<feBlend mode="normal" in="SourceGraphic" in2="effect1_dropShadow_43_140" result="shape"/>
</filter>
</defs>
</svg>
