<svg width="55" height="55" viewBox="0 0 55 55" fill="none" xmlns="http://www.w3.org/2000/svg">
<path d="M27.8545 10.198C25.6674 10.198 23.5017 10.6288 21.4812 11.4657C19.4606 12.3027 17.6246 13.5294 16.0781 15.0759C14.5316 16.6224 13.3049 18.4584 12.4679 20.479C11.631 22.4995 11.2002 24.6652 11.2002 26.8523V34.3459C11.2002 36.533 11.631 38.6986 12.4679 40.7192C13.3049 42.7398 14.5316 44.5758 16.0781 46.1223C17.6246 47.6688 19.4606 48.8955 21.4812 49.7325C23.5017 50.5694 25.6674 51.0002 27.8545 51.0002V51.0002C32.2711 50.9997 36.5067 49.2448 39.6296 46.1216C42.7525 42.9984 44.5068 38.7626 44.5068 34.3459V26.8511C44.5065 22.4347 42.752 18.1992 39.6292 15.0762C36.5063 11.9532 32.2709 10.1985 27.8545 10.198V10.198ZM35.3031 34.3203C35.3204 35.3093 35.1406 36.2919 34.7741 37.2107C34.4076 38.1294 33.8618 38.966 33.1686 39.6715C32.4753 40.3771 31.6484 40.9375 30.7362 41.32C29.824 41.7026 28.8448 41.8996 27.8556 41.8996C26.8665 41.8996 25.8872 41.7026 24.975 41.32C24.0628 40.9375 23.236 40.3771 22.5427 39.6715C21.8494 38.966 21.3036 38.1294 20.9371 37.2107C20.5706 36.2919 20.3908 35.3093 20.4082 34.3203V26.8756C20.3908 25.8866 20.5706 24.904 20.9371 23.9853C21.3036 23.0665 21.8494 22.2299 22.5427 21.5244C23.236 20.8188 24.0628 20.2584 24.975 19.8759C25.8872 19.4934 26.8665 19.2963 27.8556 19.2963C28.8448 19.2963 29.824 19.4934 30.7362 19.8759C31.6484 20.2584 32.4753 20.8188 33.1686 21.5244C33.8618 22.2299 34.4076 23.0665 34.7741 23.9853C35.1406 24.904 35.3204 25.8866 35.3031 26.8756V34.3203Z" fill="url(#paint0_linear_34_191)"/>
<path d="M22.8735 7.22453C22.9879 7.26583 23.0911 7.33318 23.175 7.42127C23.2589 7.50935 23.3211 7.61575 23.3568 7.73203C23.3924 7.84832 23.4005 7.97131 23.3804 8.09127C23.3603 8.21122 23.3126 8.32486 23.241 8.42318L23.244 8.43196C22.9053 8.64143 22.6116 8.91622 22.3801 9.24032C22.1486 9.56441 21.9839 9.93133 21.8957 10.3197C25.7468 8.93083 29.9622 8.93083 33.8134 10.3197C33.7254 9.93133 33.5609 9.56438 33.3295 9.24027C33.0981 8.91616 32.8045 8.64138 32.4658 8.43196L32.4681 8.42318C32.3964 8.32483 32.3486 8.21114 32.3286 8.09113C32.3085 7.97111 32.3166 7.84806 32.3523 7.73174C32.3881 7.61542 32.4504 7.50903 32.5344 7.42099C32.6184 7.33295 32.7218 7.26568 32.8363 7.22453V7.22453C33.1246 7.14369 33.3789 6.97167 33.5613 6.7342C33.7436 6.49673 33.8442 6.20659 33.8478 5.90721C33.8515 5.60783 33.7581 5.31531 33.5817 5.07343C33.4052 4.83155 33.1552 4.65333 32.869 4.56543C32.5828 4.47753 32.2758 4.48469 31.994 4.58583C31.7122 4.68696 31.4707 4.87664 31.3057 5.12648C31.1407 5.37632 31.0611 5.67287 31.0787 5.97176C31.0963 6.27064 31.2103 6.55577 31.4035 6.78449H31.4004V6.78678C31.4719 6.88525 31.5196 6.99897 31.5396 7.119C31.5596 7.23903 31.5514 7.36206 31.5157 7.47839C31.48 7.59471 31.4177 7.70114 31.3338 7.78927C31.2499 7.8774 31.1466 7.94481 31.0322 7.98619L31.0292 7.99612C30.6337 7.98199 30.2395 8.04692 29.8695 8.18711C29.5246 7.96008 29.1451 7.79093 28.7457 7.68634V7.67259C28.622 7.58011 28.5217 7.46008 28.4525 7.32203C28.3834 7.18398 28.3474 7.03171 28.3474 6.87731C28.3474 6.72292 28.3834 6.57065 28.4525 6.4326C28.5217 6.29454 28.622 6.17451 28.7457 6.08203V6.07974H28.7415C29.0607 5.87436 29.3048 5.57114 29.4373 5.21546C29.5698 4.85977 29.5836 4.47075 29.4765 4.10659C29.3695 3.74243 29.1474 3.42272 28.8435 3.1953C28.5397 2.96788 28.1703 2.84497 27.7907 2.84497C27.4112 2.84497 27.0418 2.96788 26.7379 3.1953C26.434 3.42272 26.212 3.74243 26.1049 4.10659C25.9979 4.47075 26.0117 4.85977 26.1442 5.21546C26.2767 5.57114 26.5208 5.87436 26.84 6.07974C26.9636 6.17222 27.064 6.29225 27.1331 6.4303C27.2023 6.56835 27.2383 6.72062 27.2383 6.87502C27.2383 7.02941 27.2023 7.18168 27.1331 7.31973C27.064 7.45779 26.9636 7.57782 26.84 7.6703V7.68176C26.4588 7.78257 26.0955 7.94197 25.7632 8.15426C25.4159 8.03444 25.0494 7.97979 24.6822 7.99307L24.6791 7.98314C24.5646 7.94195 24.4611 7.87463 24.3771 7.78653C24.2931 7.69842 24.2307 7.59195 24.195 7.47555C24.1592 7.35915 24.1511 7.23603 24.1712 7.11594C24.1913 6.99586 24.2392 6.8821 24.3109 6.78372V6.78143H24.3079C24.5012 6.55263 24.6153 6.26734 24.633 5.96827C24.6508 5.6692 24.5711 5.37245 24.4061 5.12242C24.241 4.8724 23.9994 4.68256 23.7174 4.58133C23.4355 4.48009 23.1283 4.4729 22.8419 4.56083C22.5555 4.64877 22.3053 4.82709 22.1287 5.06912C21.9522 5.31114 21.8587 5.60384 21.8624 5.90341C21.8661 6.20298 21.9667 6.4933 22.1492 6.7309C22.3317 6.9685 22.5862 7.14062 22.8747 7.22148L22.8735 7.22453Z" fill="#123B1E"/>
<defs>
<linearGradient id="paint0_linear_34_191" x1="11.2002" y1="10.1979" x2="44.8128" y2="51.1633" gradientUnits="userSpaceOnUse">
<stop stop-color="#25A765"/>
<stop offset="1" stop-color="#04E2A5"/>
</linearGradient>
</defs>
</svg>
