<svg width="232" height="40" viewBox="0 0 232 40" fill="none" xmlns="http://www.w3.org/2000/svg">
<path d="M210.451 1.65784C212.877 1.65784 215.332 1.65784 217.551 1.65784C217.392 3.58802 217.122 5.4322 217.103 7.27638C217.05 13.4348 217.041 19.5932 217.113 25.7564C217.132 27.5576 217.31 29.397 217.729 31.1456C218.369 33.8211 219.173 34.1699 221.796 33.2908C221.796 34.0791 221.796 34.8292 221.796 35.7322C217.508 35.4933 215.688 32.6506 214.158 29.0339C212.675 31.7237 211.645 34.8961 208.343 34.9056C205.065 34.9152 203.954 31.9339 202.668 29.2584C201.658 30.7395 200.921 32.3257 199.723 33.4293C198.553 34.5043 196.917 35.0872 195.078 36.1144C194.987 34.8818 194.934 34.1651 194.871 33.3577C197.34 34.3371 198.178 34.0552 198.775 31.6186C199.256 29.6454 199.448 27.5671 199.477 25.5319C199.574 19.4547 199.559 13.3727 199.511 7.29071C199.497 5.44175 199.213 3.59757 199.049 1.67217C201.282 1.67217 203.732 1.67217 205.956 1.67217C205.807 3.56413 205.556 5.35098 205.542 7.13305C205.494 13.3727 205.465 19.6123 205.556 25.8472C205.585 27.8012 205.826 29.7935 206.331 31.6759C206.567 32.5598 207.66 33.2191 208.362 33.9836C209.017 33.2621 210.028 32.6362 210.259 31.8049C210.75 29.999 211.039 28.0879 211.063 26.2151C211.154 19.2683 211.13 12.3168 211.072 5.37009C211.067 4.16611 210.682 2.95736 210.451 1.65784Z" fill="#1D3361"/>
<path d="M41.9323 31.4991C42.6206 32.0963 43.2463 32.7843 44.0068 33.2716C45.1331 33.993 46.3171 34.9916 47.5493 35.1062C49.1136 35.2495 50.1917 33.9978 50.2928 32.3782C50.495 29.1532 50.6634 25.9235 50.6875 22.6986C50.7453 15.3649 50.7068 8.02638 50.7068 0.477661C53.0797 0.477661 55.3274 0.477661 57.8447 0.477661C57.8447 1.4953 57.8399 2.42217 57.8447 3.34904C57.888 12.3454 57.9217 21.3465 57.9843 30.3429C57.9891 31.2029 57.8543 32.2874 58.3116 32.8655C59.0673 33.8258 60.2224 35.0393 61.2525 35.0775C62.3065 35.111 63.9767 34.0886 64.3666 33.1283C65.0645 31.4035 66.0127 31.5707 67.2978 31.824C67.3652 35.0011 66.1282 36.8501 63.3318 37.8343C59.9 39.043 57.0939 37.9585 54.2204 34.2271C52.0159 37.5619 49.0655 39.1529 45.0609 37.7722C42.4329 36.8692 41.2873 35.0345 41.321 32.1632C41.5184 31.9434 41.7253 31.7188 41.9323 31.4991Z" fill="#1D3361"/>
<path d="M69.6465 -0.00012207C72.0049 -0.00012207 74.1276 -0.00012207 76.5727 -0.00012207C76.5727 5.32698 76.5727 10.85 76.5727 16.1771C78.4113 16.2105 79.7927 16.201 81.4147 16.2105C81.4147 17.2186 81.4147 18.0642 81.4147 19.1727C79.9082 19.2634 78.445 19.3542 76.7123 19.4593C76.7123 25.699 76.7123 31.8096 76.7123 38.0779C74.2383 38.0779 72.0386 38.0779 69.6465 38.0779C69.6465 25.4505 69.6465 12.8661 69.6465 -0.00012207Z" fill="#1D3361"/>
<path d="M156.967 4.33325C156.967 3.76949 156.967 2.83306 156.967 1.71509C163.788 1.71509 170.54 1.71509 177.539 1.71509C177.707 11.0889 178.097 20.4101 173.486 29.0051C170.945 33.7446 167.34 37.0794 161.395 36.8119C158.305 36.6733 156.135 35.0728 155.384 32.3065C154.618 29.4781 155.947 25.1591 158.175 24.0746C158.994 23.678 160.606 23.6589 161.121 24.1749C161.694 24.753 161.429 26.1385 161.275 27.1944C159.128 25.6034 157.66 25.9665 156.717 28.2646C155.331 31.6472 158.267 35.4072 161.992 34.9533C164.899 34.5998 167.316 33.1235 168.408 30.5388C169.679 27.5336 170.849 24.2944 171.08 21.0885C171.508 15.2884 171.205 9.43103 171.205 3.20094C166.44 3.66438 161.554 2.03519 156.967 4.33325Z" fill="#1D3361"/>
<path d="M0 17.4145C0.779737 17.4145 1.55466 17.4145 2.38253 17.4145C2.628 17.9974 2.60875 19.2635 3.39811 19.9514C4.25005 20.6968 5.60255 20.6108 6.8251 20.5773C8.70225 20.5248 9.4146 18.8669 9.44348 17.1708C9.5253 12.5126 9.51086 7.85438 9.53493 3.19615C9.53974 2.34095 9.53493 1.48575 9.53493 0.444214C11.9319 0.444214 14.1219 0.444214 16.7162 0.444214C16.7162 1.96829 16.7018 3.51148 16.7162 5.04989C16.7547 9.07269 16.7403 13.1003 16.8799 17.1231C16.9424 18.8717 18.0832 20.6968 20.1721 20.6872C23.5365 20.6681 23.2236 18.1359 23.2236 18.1359L25.9479 18.1598C25.9479 18.1598 25.3414 22.1014 22.2754 22.7607C19.2239 23.4153 16.0327 23.3484 13.1785 19.6504C10.9115 23.0235 7.88401 24.5762 3.84093 23.1668C1.39583 22.3164 0.21178 20.4913 0 17.4145Z" fill="#1D3361"/>
<path d="M36.5179 0.449097C36.5179 9.67955 36.5179 18.7953 36.5179 28.0593C34.2653 28.0593 32.1475 28.0593 29.8564 28.0593C29.8564 18.867 29.8564 9.75122 29.8564 0.449097C31.9791 0.449097 34.0921 0.449097 36.5179 0.449097Z" fill="#1D3361"/>
<path d="M187.416 38.0828C185.65 38.0828 183.667 38.0828 181.973 38.0828C181.973 25.852 181.973 13.6928 181.973 1.20874C182.622 1.20874 186.656 1.20874 187.436 1.20874C187.436 6.42596 187.436 11.4855 187.436 16.9464C189.525 16.7457 191.589 16.5498 193.722 16.3444C193.722 16.9416 193.722 17.792 193.722 18.4609C191.657 18.2889 189.534 18.1121 187.421 17.9401C187.416 24.8248 187.416 31.3176 187.416 38.0828Z" fill="#1D3361"/>
<path d="M149.551 17.8829C149.551 24.9395 149.551 31.5136 149.551 38.1784C147.779 38.1784 145.657 38.1784 143.804 38.1784C143.996 36.081 144.328 34.0792 144.343 32.0725C144.401 23.2339 144.386 14.3904 144.338 5.5517C144.328 4.15662 144.02 2.76632 143.842 1.2948C145.748 1.2948 147.731 1.2948 149.488 1.2948C149.488 6.41646 149.488 11.4712 149.488 16.9464C151.567 16.741 153.637 16.5403 155.779 16.3301C155.779 16.9321 155.779 17.8446 155.779 18.547C153.719 18.3272 151.649 18.1074 149.551 17.8829Z" fill="#1D3361"/>
<path d="M7.63384 36.7163C15.0028 36.7163 22.0253 36.8119 29.0429 36.6686C31.7383 36.6112 33.9235 35.3977 34.992 32.641C35.5696 32.6458 36.2098 32.6458 37.1291 32.598C37.1291 37.1224 34.2748 39.645 28.8456 39.8314C19.532 40.1515 10.1945 39.9174 0.818359 39.9174C0.818359 35.6079 0.818359 31.308 0.818359 26.8552C3.08056 26.8552 5.18392 26.8552 7.63384 26.8552C7.63384 30.1662 7.63384 33.3529 7.63384 36.7163Z" fill="#1D3361"/>
<path d="M93.4534 36.1287C96.3991 36.5492 98.3628 35.7465 99.4939 33.1284C99.8309 35.4121 98.7527 37.2181 96.3076 37.4904C92.51 37.9108 88.6595 37.8391 84.8282 37.906C84.5201 37.9108 84.2024 37.3948 83.8848 37.1225C84.2121 36.8597 84.5297 36.3915 84.8715 36.3724C86.3636 36.2912 87.8605 36.339 89.6365 36.339C89.6365 34.5808 89.7665 33.0854 89.5691 31.633C89.4921 31.0787 88.7509 30.3764 88.1589 30.1758C85.5983 29.3158 84.4624 27.5385 84.4287 24.9872C84.395 22.6223 84.395 20.2525 84.4623 17.8876C84.5538 14.763 85.7475 13.1434 88.8424 12.5844C90.6714 12.2547 92.6496 12.3455 94.4979 12.6322C97.0055 13.0239 98.4158 14.6961 98.4735 17.2474C98.5361 20.1618 98.7383 23.1144 98.358 25.981C98.1799 27.3092 97.0103 29.1677 95.8552 29.5738C93.5689 30.3764 93.232 31.6855 93.439 33.6444C93.5208 34.4136 93.4534 35.1971 93.4534 36.1287ZM94.6856 21.3084C94.7048 21.3084 94.7193 21.3084 94.7385 21.3084C94.7385 19.5837 94.8588 17.8494 94.7048 16.1342C94.5315 14.2136 93.1598 13.5112 91.3404 13.5638C89.5836 13.6164 88.3995 14.4716 88.3514 16.2632C88.2648 19.5598 88.26 22.8611 88.361 26.1577C88.4188 28.0067 89.5836 28.9957 91.4752 29.0196C93.3619 29.0435 94.5315 28.1261 94.6567 26.2485C94.777 24.6098 94.6856 22.9567 94.6856 21.3084Z" fill="#1D3361"/>
<path d="M101.866 12.551C103.098 12.551 104.114 12.551 105.529 12.551C105.529 17.859 105.529 23.1575 105.529 28.7234C106.694 28.7234 107.801 28.7043 108.638 28.7043C108.667 29.1104 108.609 29.7363 108.609 30.1567C105.693 30.2045 105.587 30.109 105.64 33.3434C105.664 34.8293 105.654 36.3199 105.654 38.0065C104.35 38.0065 103.204 38.0065 101.861 38.0065C101.866 29.6216 101.866 21.2416 101.866 12.551Z" fill="#1D3361"/>
<path d="M231.004 31.2936C231 31.0595 231 30.8254 230.995 30.5913C230.995 26.9841 230.995 23.3866 230.995 19.8129C230.995 16.2392 230.995 12.6464 230.995 9.03444C231 8.80034 231 8.56623 231.004 8.33213C230.889 1.94438 232.208 1.43317 231.972 1.42361C231.659 1.41406 230.995 1.39017 230.995 1.38539C230.335 1.38539 229.498 1.38062 228.598 1.38062C228.463 1.38062 228.338 1.38062 228.203 1.38062C228.073 1.38062 227.943 1.38062 227.808 1.38062C226.908 1.38062 226.071 1.38539 225.412 1.38539C225.412 1.39017 224.747 1.41406 224.434 1.42361C224.203 1.43317 225.522 1.94438 225.407 8.33213C225.412 8.56623 225.412 8.80034 225.416 9.03444C225.416 12.6416 225.416 16.2392 225.416 19.8129C225.416 23.3866 225.416 26.9794 225.416 30.5913C225.412 30.8254 225.412 31.0595 225.407 31.2936C225.522 37.6861 224.203 38.1973 224.434 38.2021C224.747 38.2117 225.412 38.2356 225.412 38.2403C226.071 38.2403 226.908 38.2451 227.808 38.2451C227.943 38.2451 228.068 38.2451 228.203 38.2451C228.333 38.2451 228.463 38.2451 228.598 38.2451C229.498 38.2451 230.335 38.2403 230.995 38.2403C230.995 38.2356 231.659 38.2117 231.972 38.2021C232.208 38.1973 230.889 37.6861 231.004 31.2936Z" fill="#1D3361"/>
<path d="M139.294 14.7439C139.125 13.1004 139.279 11.4234 139.096 9.77989C138.653 5.79532 136.569 2.86661 132.579 1.90152C131.087 1.53841 129.489 1.35208 127.91 1.34253C126.332 1.34731 124.739 1.53841 123.242 1.90152C119.247 2.86661 117.167 5.79532 116.725 9.77989C116.542 11.4234 116.696 13.1004 116.527 14.7439C116.383 16.1342 115.993 17.4958 115.709 18.8622C115.969 19.8799 116.397 21.017 116.527 22.1827C116.811 24.6814 116.686 27.2471 117.211 29.6837C117.851 32.6315 119.805 35.049 122.861 35.5124C124.507 35.7609 126.207 35.909 127.901 35.9185C129.595 35.909 131.299 35.7609 132.94 35.5124C136.001 35.049 137.956 32.6315 138.591 29.6837C139.12 27.2471 138.99 24.6767 139.274 22.1827C139.409 21.017 139.833 19.8799 140.093 18.8622C139.828 17.4958 139.438 16.1294 139.294 14.7439ZM133.383 29.1725C133.263 32.0916 131.087 34.2941 128.262 34.4136C128.141 34.4183 128.026 34.4136 127.91 34.4136C127.795 34.4136 127.679 34.4183 127.559 34.4136C124.729 34.2941 122.558 32.0964 122.438 29.1725C122.385 27.8299 121.682 19.7366 120.488 18.6855C121.937 17.8303 122.231 12.3885 122.356 9.21613C122.5 5.42744 124.464 3.00994 127.737 2.9526C127.795 2.9526 127.853 2.95738 127.91 2.95738C127.968 2.95738 128.026 2.9526 128.084 2.9526C131.357 3.00994 133.32 5.42744 133.465 9.21613C133.585 12.3885 133.884 17.8303 135.332 18.6855C134.139 19.7366 133.436 27.8299 133.383 29.1725Z" fill="#1D3361"/>
</svg>
