<svg width="20" height="20" viewBox="0 0 20 20" fill="none" xmlns="http://www.w3.org/2000/svg">
<path d="M18.5708 8.76566C18.5346 7.02569 17.7659 5.61789 16.5046 4.47493C14.6655 2.80894 12.4484 2.14536 9.96939 2.11133C9.67643 2.12538 9.34353 2.12834 9.01359 2.16015C6.8194 2.37321 4.8575 3.12853 3.26845 4.69982C1.26143 6.68465 0.865643 9.4211 2.2335 11.7455C2.91853 12.9092 3.89726 13.7718 5.06834 14.4198C5.31321 14.5552 5.39236 14.6772 5.30655 14.965C5.07426 15.7411 4.8723 16.5267 4.68291 17.3138C4.64001 17.4936 4.69771 17.6978 4.7088 17.8901C4.89597 17.8309 5.10755 17.8095 5.26512 17.7059C6.26087 17.0512 7.24108 16.3743 8.2346 15.7159C8.35666 15.6353 8.52386 15.585 8.66959 15.585C9.47817 15.582 10.2934 15.6671 11.0946 15.5953C13.129 15.4141 14.9673 14.7039 16.4928 13.3101C17.8222 12.0954 18.6085 10.6099 18.5701 8.76566H18.5708Z" fill="black"/>
</svg>
